<svg enable-background="new 0 0 242.7 242.7" viewBox="0 0 242.7 242.7" xmlns="http://www.w3.org/2000/svg"><path d="m121.3 0c-67 0-121.3 54.3-121.3 121.3s54.3 121.3 121.3 121.3 121.3-54.3 121.3-121.3-54.3-121.3-121.3-121.3zm0 4.7c46.1 0 75.4 27.3 81.2 32.9-3.1 3.1-6.1 6.1-9.2 9.2-5-4.8-31.9-30.1-73.8-29.3-39.6.7-64.8 24.1-70.2 29.4-3.1-3.1-6.1-6.1-9.2-9.2 5.8-5.8 35.2-33 81.2-33zm-86.6 118.9c.2 5.8 2 38.5 29.3 62.6 22.2 19.8 47.6 21.6 55 21.8v13c-7.3-.2-40.2-1.8-67.4-28.4-28.2-27.6-29.8-62-29.9-68.9 4.3-.1 8.6-.1 13-.1zm-13-4.6c.3-9 2.3-36.7 23.2-61.6 27.9-33.2 67.5-35.4 74.1-35.7v13c-6.1.2-35.4 1.6-59.1 25.6-23.5 23.7-25 52.5-25.1 58.7zm16.3 2.3c0-46 37.3-83.3 83.3-83.3s83.3 37.3 83.3 83.3-37.3 83.3-83.3 83.3c-46 .1-83.3-37.2-83.3-83.3zm85.7 86.7c6.7-.2 34.3-1.8 57.5-23.9 25.1-24 26.7-54.4 26.9-60.4h13c-.2 7-1.7 41.1-29.7 68.6-27.3 27-60.5 28.5-67.7 28.7zm84.3-89c-.3-7.7-2.1-32.2-20.9-54.1-24.2-28.1-57.7-30-63.4-30.2 0-4.3 0-8.7 0-13 7 .2 40.7 1.7 68.2 29.2s29 61.1 29.2 68.1zm-203.3 3.9c-.7-46.9 27.3-77.1 32.9-82.8 3.1 3 6.2 6.1 9.3 9.1-4.9 5.1-29.8 31.8-29.2 73.5.5 39.9 24 65.4 29.2 70.8l-9.2 9.2c-5.9-6.1-32.4-34.8-33-79.8zm119.1 114c-46.7.9-77.3-26-83.6-31.8l9.2-9.2c5.1 4.9 31.9 29.7 73.4 29.1 39.8-.5 65.1-23.8 70.6-29.1l9.2 9.2c-6.9 6.3-35.2 30.9-78.8 31.8zm81.2-34.3-9.1-9.3c4.9-5.1 30.1-32.4 29-74.6-1-39-23.7-63.8-29.2-69.5 3.1-3 6.3-6.1 9.4-9.1 5.2 5.6 37.7 41.9 32.1 94.1-3.9 36.7-24.7 60.5-32.2 68.4z" fill="#000001"/></svg>