<svg viewBox="0 0 320 320" xmlns="http://www.w3.org/2000/svg"><circle fill="#2d598a" cx="160" cy="160" r="160"/><path fill="white" d="M160.09 227.05L160.09 227.05Q143.89 227.05 131.29 219.31L131.29 219.31L131.29 219.31Q118.69 211.57 111.58 196.72L111.58 196.72L111.58 196.72Q104.47 181.87 104.47 161.53L104.47 161.53L104.47 161.53Q104.47 141.19 111.58 126.34L111.58 126.34L111.58 126.34Q118.69 111.49 131.29 103.75L131.29 103.75L131.29 103.75Q143.89 96.01 160.09 96.01L160.09 96.01L160.09 96.01Q176.11 96.01 188.71 103.75L188.71 103.75L188.71 103.75Q201.31 111.49 208.42 126.34L208.42 126.34L208.42 126.34Q215.53 141.19 215.53 161.53L215.53 161.53L215.53 161.53Q215.53 181.87 208.42 196.72L208.42 196.72L208.42 196.72Q201.31 211.57 188.71 219.31L188.71 219.31L188.71 219.31Q176.11 227.05 160.09 227.05L160.09 227.05ZM160.09 197.89L160.09 197.89Q169.09 197.89 174.40 189.16L174.40 189.16L174.40 189.16Q179.71 180.43 179.71 161.53L179.71 161.53L179.71 161.53Q179.71 142.63 174.40 133.90L174.40 133.90L174.40 133.90Q169.09 125.17 160.09 125.17L160.09 125.17L160.09 125.17Q150.91 125.17 145.60 133.90L145.60 133.90L145.60 133.90Q140.29 142.63 140.29 161.53L140.29 161.53L140.29 161.53Q140.29 180.43 145.60 189.16L145.60 189.16L145.60 189.16Q150.91 197.89 160.09 197.89L160.09 197.89Z"/></svg>