<svg viewBox="0 0 320 320" xmlns="http://www.w3.org/2000/svg"><circle fill="#2d598a" cx="160" cy="160" r="160"/><path fill="white" d="M160.99 196.27L209.59 196.27L209.59 224.53L111.49 224.53L111.49 202.21L158.65 158.11L158.65 158.11Q165.49 151.63 167.83 147.04L167.83 147.04L167.83 147.04Q170.17 142.45 170.17 137.77L170.17 137.77L170.17 137.77Q170.17 131.65 166.03 128.23L166.03 128.23L166.03 128.23Q161.89 124.81 153.97 124.81L153.97 124.81L153.97 124.81Q146.95 124.81 141.10 127.96L141.10 127.96L141.10 127.96Q135.25 131.11 131.47 137.05L131.47 137.05L105.01 122.29L105.01 122.29Q112.39 110.05 125.71 103.03L125.71 103.03L125.71 103.03Q139.03 96.01 157.21 96.01L157.21 96.01L157.21 96.01Q171.61 96.01 182.68 100.69L182.68 100.69L182.68 100.69Q193.75 105.37 199.96 114.10L199.96 114.10L199.96 114.10Q206.17 122.83 206.17 134.35L206.17 134.35L206.17 134.35Q206.17 144.61 201.76 153.70L201.76 153.70L201.76 153.70Q197.35 162.79 184.75 174.31L184.75 174.31L160.99 196.27Z"/></svg>