<svg enable-background="new 0 0 307 307" viewBox="0 0 307 307" xmlns="http://www.w3.org/2000/svg"><path d="m0 0h307v307h-307z"/><g fill="#fff"><path d="m0 240.2h307v15.7h-307z"/><path d="m0 49.2h307v15.7h-307z"/><path d="m222.6 14.5h84.4v16.5h-84.4z"/><path d="m0 14.5h83.3v16.5h-83.3z"/><path d="m0 275.5h83.3v16.5h-83.3z"/><path d="m222.6 275.3h84.4v16.5h-84.4z"/><path d="m301.4 101.6h-75.6v14.6h28.8v77.6h16.9v-77.6h29.9z"/><path d="m220.6 156.9h-9.4v-54.5h-8.2l-49.4 57.8v10.5h41.3v23.1h16.3v-23.1h9.4zm-48.4 0 22.6-26v.1 25.9z"/><path d="m128.3 142.3c1-.6 10.8-6.8 11.2-17.1.4-10.6-9.2-21.4-23.4-22.9-4.5-.4-9.4-.6-14.4-.6-6.9-.1-13.3.2-19.3.6v92l32.6-.6c16.3.1 29-12 29.7-25.7.6-10.3-6-20.6-16.4-25.7zm-28.9-25.7c2-.4 4.4-.7 7.1-.6 2.3 0 4.4.2 6.1.5 5.5.7 9.7 5.5 9.6 10.8-.1 5-3.8 9.4-9 10.3-1.8.3-3.9.5-6.2.5-2.9 0-5.5-.3-7.7-.6.1-7 .1-14 .1-20.9zm28.2 49.6c-.4 7.8-6.7 13.9-14.4 14.9-1.6.2-3.4.3-5.3.2-3.5-.1-6.4-.8-8.5-1.5v-28.8c2-.5 4.4-1 7.1-1.2 2.4-.2 4.6-.1 6.6.1 7.6.8 13.8 6.7 14.4 14.3v1c.1.3.1.6.1 1z"/><path d="m34.1 179.8 24.7-39c.9-1.9 1.9-4.3 2.7-7.1.9-3.4 1.3-6.4 1.4-8.9-.1-3-.7-6.9-2.9-10.9-7.2-13-24.7-13.3-25.9-13.3-3 0-7.9.4-13.3 2.7-8.3 3.7-12.8 9.9-14.6 12.6 3.6 3.1 7.1 6.2 10.7 9.4.9-1.6 3.2-5.3 7.8-7.8 4.1-2.3 7.9-2.5 9.8-2.6.5-.1 5.3-.4 8.6 3.2 2.4 2.7 2.5 5.8 2.6 6.6-.1 2.3-.5 5.3-1.5 8.7-1.7 5.3-4.3 9.1-6.2 11.4-10.2 14.9-20.4 29.8-30.6 44.8v4.2h61.1v-14z"/></g></svg>