<svg enable-background="new 0 0 32 32" viewBox="0 0 32 32" xmlns="http://www.w3.org/2000/svg"><circle cx="16" cy="16" fill="#f1cb60" r="16"/><g fill="#fff"><path d="m15.3 24.9v1.5h.7v-2.2h-1.5v.7zm-7.4-8.1h-.7v3.7h.7v-1.5h.7v-1.5h-.7zm8.8 4.4h.7v2.2h-.7zm-.7 2.2h.7v.7h-.7zm-7.3-.7h2.2v2.2h-2.2zm-1.5-7.3h.7v.7h-.7zm4.4-1.5h.7v.7h-.7zm4.4-.7h.7v1.5h-.7zm-9.5-2.2h2.2v2.2h-2.2zm6.6 13.9h.7v1.5h-.7zm.7-11.7h-.7v1.5h.7v-.7h.7v-1.5h-.7c0-.1 0 .7 0 .7zm.7-1.5h.7v.7h-.7zm0 2.2h.7v.7h-.7zm-3.6 1.5h2.2v.7h-2.2z"/><path d="m13.8 12.4v-.7h.7v-.7h-.7v-1.5h-2.2v.7h1.5v.8h-.7v.7h-.7v.7h-.7v-.7h-.7v-.7h.7v.7h.7v-.7h-.7v-1.5h-6v5.1h5.9v-.7h.7v-1.5h.7v.7h.7v-.7zm-4.4 1.5h-3.7v-3.7h3.7zm.7 0v-1.5h.7v1.5zm3-2.2v-.7h.7v.7zm5.8 8v-.7h-1.5v-1.5h-.7v.7h-.7v-.7h.7v-2.2h-1.5v.7h-.7v1.5h-.7v.7h.7v-.7h.7v2.2h-1.5v-.7h-.7v-1.5h-.7v-.7h-1.5v-.7h-.7v-.7h-1.4v.7h-.8v.7h.7v.7h.7v-.7h.7v.7h-.6v.7h.7v.8h.7v-.7h.7v-.7h.7v.7h-.7v.7h-.7v1.5h1.5v.7h-1.5v-.7h-.7v.7h-1.4v-.7h-.8v.7h-.7v5.1h5.1v-4.4h.7v2.2h1.5v-.7h.7v-1.5h-.7v-.7h-.7v.7h-.7v-1.5h2.2v.7h.7v-1.5h1.5v.7h.7v-.7c0 .1.7.1.7.1zm-7.3 5.9h-3.7v-3.7h3.7zm.7-5.9h-.7v-.7h.7zm1.5 3h.7v.7h-.7zm5.1-13.2h.7v1.5h-.7zm-1.4 0h-.7v2.2h-.8v.7h.7v.7h.7v1.5h.7v-1.5h.7v1.5h.7v-.7h.7v-1.5h-1.5v-1.4h-1.5c.3 0 .3-1.5.3-1.5z"/><path clip-rule="evenodd" d="m24.1 17.6h-1.5v.7h-.7v.7h-.7v-2.2h.7v-.7h-.7v.7h-.7v.7h-.7v-1.5h-.7v1.5h-.7v.7h.7.7v1.5h2.2v.7h-2.2v.7h-.7v.7h-.7v.7h.7v.7h-.7v.7h.7v.7h.7v.7h-.7v.7h5.9v-4.4h-.7v3.7h-3.7v-3.7h2.2v-2.6h.7v.7h1.5v-1.5h-.7l-.2-.6h.7v-2.2h-.7z" fill-rule="evenodd"/><path d="m18.2 20.5h.7v.7h-.7zm3.7-3.7h.7v.7h-.7zm1.4 3.7h1.5v.7h-1.5zm0-9.5h2.2v2.2h-2.2zm-2.9 2.9h.7v.7h-.7zm-2.9 1.5h.7v.7h-.7zm5.1 0h.7v.7h-.7zm-1.5 7.3h2.2v2.2h-2.2zm-.7-7.3h.7v.7h-.7zm-5.1-4.4h.7v.7h-.7z"/><path d="m20.4 9.5v.7h1.5v.8h-.7v.7h-.7v-.7h-.7v.7h.7v.7h.7v.7h.7v1.5h5.1v-5.1zm5.9 4.4h-3.7v-3.7h3.7zm-16.4-5.7c.5.3 1.1.4 1.5.4h1.7 2.9 2.8 1.7c.5 0 1-.1 1.5-.4.6-.4 1-1.1 1-2.1 0-.8-.3-1.2-.6-1.5-.7-.6-1.8-.6-2.2-.6-.2 0-1 .1-1.9.6-.8.5-1.5 1.1-2.1 1.9l-.2.3v-.1c-.6-.9-1.4-1.6-2.3-2.1-1-.5-1.8-.6-2-.6-.4 0-1.5 0-2.2.7-.5.4-.6 1-.6 1.5 0 .9.3 1.6 1 2zm8.8-2.4c.8-.5 1.4-.5 1.4-.5h.1c.6 0 1.1.1 1.3.3.1.1.2.3.2.6 0 1-.5 1.3-1.3 1.3-.7 0-2.4 0-3.5 0 .5-.7 1.1-1.3 1.8-1.7zm-8.4-.3c.2-.2.6-.3 1.1-.3h.3s.6.1 1.4.5c.7.4 1.3 1 1.8 1.7-1.1 0-2.8 0-3.5 0-.8 0-1.3-.3-1.3-1.3 0-.2.1-.4.2-.6zm7.2 19.4h-.7v1.5h.7v-1.5h.7v-.7h-.7z"/></g></svg>