<svg viewBox="0 0 320 320" xmlns="http://www.w3.org/2000/svg"><circle fill="#2d598a" cx="160" cy="160" r="160"/><path fill="white" d="M176.47 148.93L176.47 148.93Q192.13 152.17 200.50 161.80L200.50 161.80L200.50 161.80Q208.87 171.43 208.87 185.11L208.87 185.11L208.87 185.11Q208.87 196.27 202.84 205.81L202.84 205.81L202.84 205.81Q196.81 215.35 184.48 221.20L184.48 221.20L184.48 221.20Q172.15 227.05 153.97 227.05L153.97 227.05L153.97 227.05Q140.65 227.05 127.60 223.81L127.60 223.81L127.60 223.81Q114.55 220.57 105.01 214.63L105.01 214.63L117.97 187.81L117.97 187.81Q125.35 192.85 134.62 195.55L134.62 195.55L134.62 195.55Q143.89 198.25 152.89 198.25L152.89 198.25L152.89 198.25Q162.07 198.25 167.47 194.83L167.47 194.83L167.47 194.83Q172.87 191.41 172.87 185.11L172.87 185.11L172.87 185.11Q172.87 172.87 153.61 172.87L153.61 172.87L138.67 172.87L138.67 150.37L161.17 126.07L111.49 126.07L111.49 98.53L202.57 98.53L202.57 120.85L176.47 148.93Z"/></svg>