<svg viewBox="0 0 320 320" xmlns="http://www.w3.org/2000/svg"><circle fill="#2d598a" cx="160" cy="160" r="160"/><path fill="white" d="M196.63 158.11L196.63 158.11Q205.27 163.15 209.95 170.53L209.95 170.53L209.95 170.53Q214.63 177.91 214.63 187.45L214.63 187.45L214.63 187.45Q214.63 199.33 207.79 208.33L207.79 208.33L207.79 208.33Q200.95 217.33 188.53 222.19L188.53 222.19L188.53 222.19Q176.11 227.05 159.91 227.05L159.91 227.05L159.91 227.05Q143.71 227.05 131.29 222.19L131.29 222.19L131.29 222.19Q118.87 217.33 112.03 208.33L112.03 208.33L112.03 208.33Q105.19 199.33 105.19 187.45L105.19 187.45L105.19 187.45Q105.19 177.91 109.87 170.53L109.87 170.53L109.87 170.53Q114.55 163.15 123.19 158.11L123.19 158.11L123.19 158.11Q116.71 153.61 113.20 147.13L113.20 147.13L113.20 147.13Q109.69 140.65 109.69 132.73L109.69 132.73L109.69 132.73Q109.69 121.75 115.99 113.38L115.99 113.38L115.99 113.38Q122.29 105.01 133.72 100.51L133.72 100.51L133.72 100.51Q145.15 96.01 159.91 96.01L159.91 96.01L159.91 96.01Q174.67 96.01 186.10 100.51L186.10 100.51L186.10 100.51Q197.53 105.01 203.83 113.38L203.83 113.38L203.83 113.38Q210.13 121.75 210.13 132.73L210.13 132.73L210.13 132.73Q210.13 140.65 206.62 147.13L206.62 147.13L206.62 147.13Q203.11 153.61 196.63 158.11L196.63 158.11ZM159.91 121.03L159.91 121.03Q153.25 121.03 149.11 124.54L149.11 124.54L149.11 124.54Q144.97 128.05 144.97 134.35L144.97 134.35L144.97 134.35Q144.97 140.47 149.02 143.98L149.02 143.98L149.02 143.98Q153.07 147.49 159.91 147.49L159.91 147.49L159.91 147.49Q166.75 147.49 170.89 143.98L170.89 143.98L170.89 143.98Q175.03 140.47 175.03 134.35L175.03 134.35L175.03 134.35Q175.03 128.05 170.89 124.54L170.89 124.54L170.89 124.54Q166.75 121.03 159.91 121.03L159.91 121.03ZM159.91 202.03L159.91 202.03Q168.55 202.03 173.68 197.80L173.68 197.80L173.68 197.80Q178.81 193.57 178.81 186.37L178.81 186.37L178.81 186.37Q178.81 179.17 173.68 174.94L173.68 174.94L173.68 174.94Q168.55 170.71 159.91 170.71L159.91 170.71L159.91 170.71Q151.27 170.71 146.14 174.94L146.14 174.94L146.14 174.94Q141.01 179.17 141.01 186.37L141.01 186.37L141.01 186.37Q141.01 193.57 146.14 197.80L146.14 197.80L146.14 197.80Q151.27 202.03 159.91 202.03L159.91 202.03Z"/></svg>