<svg viewBox="0 0 320 320" xmlns="http://www.w3.org/2000/svg"><circle fill="#2d598a" cx="160" cy="160" r="160"/><path fill="white" d="M153.79 96.01L153.79 96.01Q180.97 96.01 196.63 112.03L196.63 112.03L196.63 112.03Q212.29 128.05 212.29 158.11L212.29 158.11L212.29 158.11Q212.29 179.71 203.92 195.28L203.92 195.28L203.92 195.28Q195.55 210.85 180.34 218.95L180.34 218.95L180.34 218.95Q165.13 227.05 145.15 227.05L145.15 227.05L145.15 227.05Q134.53 227.05 124.81 224.62L124.81 224.62L124.81 224.62Q115.09 222.19 108.25 217.87L108.25 217.87L121.21 192.31L121.21 192.31Q130.39 198.79 144.43 198.79L144.43 198.79L144.43 198.79Q157.93 198.79 166.30 191.32L166.30 191.32L166.30 191.32Q174.67 183.85 176.11 169.63L176.11 169.63L176.11 169.63Q165.31 178.81 147.85 178.81L147.85 178.81L147.85 178.81Q135.97 178.81 126.07 173.86L126.07 173.86L126.07 173.86Q116.17 168.91 110.32 159.82L110.32 159.82L110.32 159.82Q104.47 150.73 104.47 139.03L104.47 139.03L104.47 139.03Q104.47 126.25 111.04 116.44L111.04 116.44L111.04 116.44Q117.61 106.63 128.86 101.32L128.86 101.32L128.86 101.32Q140.11 96.01 153.79 96.01L153.79 96.01ZM156.31 153.25L156.31 153.25Q164.05 153.25 168.91 148.84L168.91 148.84L168.91 148.84Q173.77 144.43 173.77 137.23L173.77 137.23L173.77 137.23Q173.77 130.21 169 125.80L169 125.80L169 125.80Q164.23 121.39 156.13 121.39L156.13 121.39L156.13 121.39Q148.57 121.39 143.80 125.71L143.80 125.71L143.80 125.71Q139.03 130.03 139.03 137.41L139.03 137.41L139.03 137.41Q139.03 144.61 143.80 148.93L143.80 148.93L143.80 148.93Q148.57 153.25 156.31 153.25L156.31 153.25Z"/></svg>