<svg xmlns="http://www.w3.org/2000/svg" width="2000" height="2000" viewBox="0 0 2000 2000"><circle cx="1000" cy="1000" r="1000" fill="#0babf3"/><path d="M977.79,275.92c24-43.9,61.12-83.35,109.54-99.76,51.74-18.11,114.15-1.13,147.78,42.68,36.38,43,38.08,105.34,20.21,156.59-21.83,56.27-55.7,106.87-83.35,160.31,36.06,20.21,74.62,43.65,91.11,83.67,9.3,17.54,9.62,42.44,30.15,51.58,31.53,18.92,66.94,34,90.14,63.86,21.75,24.9,29.51,58,33.71,90,39,23.12,83.91,42.68,107.68,83.75,35.09,57.32,23,131.45-9.46,187.15-72.27,130.88-155.7,255.94-250.2,371.87-70.49,80.6-146.81,156.27-226.27,228.05-19.24,21-47.78,16.33-71.54,7-19.81,34.84-36.7,71.38-58.69,105-11.48,18.19-34.84,28.13-55.78,21.67-28.54-7-47.45-42.68-32.42-69.2,17.95-36.94,39.45-72.11,59.26-108.08Q841,1631.7,803,1610.2c-12,17.7-21,41.31-43.17,48.67-28,10.51-61-9.46-66.61-38.32-4.93-21.91,10.51-40.74,19-59.42-74.29-39.21-148-79.31-221.83-119.24-20.53-10.27-41.88-29.35-37.43-54.73,6.14-33.79,18.35-66.13,25.63-99.68,44.95-186.74,51.66-387.23-10.27-571-7.6-22.07-16.9-49.15,1.21-68.88C512.06,596,570.91,542,642.78,548.11c62.33,6.47,100.81,63.86,122.64,117.14q106-194.75,212.37-389.33m89.73,48.67c-91.75,167.1-182,335.17-274.62,501.86-17.14,35.09-73.81,34.36-89-1.94-20.45-58.45-19.32-133-71-174.86-26.76.89-45.76,24.58-65.8,39.77,71.22,218.43,58.69,456.83-3.72,675.83,65.64,36.06,131.77,71.06,197.25,107.44Q952.48,1122.61,1143.43,772c16-29.91,36.94-61.36,32.17-96.93-4.85-26.19-32.42-37-52.06-50.44-22.8,39.29-42,80.76-66.29,119.24-16.17,26.92-57.15,29.75-77.85,6.63C960.57,733.15,961.7,704.37,975,684c56.1-102.43,111.88-205.09,168.15-307.44,12-22.55,23.28-47.45,21.18-73.65-1.37-20.7-23.93-38.64-44.14-30.23-24.25,8.57-40.18,30.56-52.63,51.9m193.37,444.3Q1056,1145.28,850.06,1521.19c26,13.66,51.74,27.57,77.2,42.28Q1102.12,1243.22,1277,923c16.82-31.93,40.58-64.35,36.54-102.43-3.4-27.49-32.42-38.32-52.63-51.74M1055.15,1539.3c141.47-128.62,250.77-287.47,347.7-451.09,17.46-33.39,42.77-66.29,41.15-105.82-1.13-29.26-32-41.55-52.06-56.59C1279,1129.92,1169.46,1336,1055.15,1539.3Z" fill="#f8f8f8"/></svg>