<svg xmlns="http://www.w3.org/2000/svg" width="1238" height="2000" viewBox="0 0 1238 2000"><g transform="translate(-381)"><g fill="#3c3c3b"><path d="M1000,0h0q180.82,179.1,361.27,358.5Q1266,453.21,1170.51,547.79c-57-56.89-113.55-114.15-170.51-171-56.9,56.89-113.48,114.08-170.44,171Q734.08,453.18,638.73,358.5,819.18,179,1000,0Z"/><path d="M638.79,1641c64-62.57,127.05-126,190.76-188.79,56.9,56.89,113.55,114.08,170.44,171,57-56.89,113.61-114.08,170.57-171q95.38,94.61,190.76,189.22Q1181.07,1821,1000,2000C879.7,1880.29,758.53,1761.33,638.79,1641Z"/></g><path d="M381,613.49q115.27-114.68,230.91-229,194.33,192,388.09,384.76,194.33-192.13,388.09-384.76Q1503.83,498.66,1619,613.3v1.81q-193,192.6-387,384.26,193.39,192.41,387,384.51v1.44q-115.17,115.05-230.91,229.48c-129.74-128-258.42-257-388-385.07-129.74,128-258.35,257.11-388.09,385.07q-115.83-114.4-231-229.42v-1.31q193.3-192.6,387-384.7Q574.55,807.15,381,615.05Z" fill="#1b75bc"/></g></svg>