<svg xmlns="http://www.w3.org/2000/svg" xmlns:xlink="http://www.w3.org/1999/xlink" viewBox="0 0 1761.14 1996.34" width="2000" height="2000"><defs><linearGradient id="0" x1="125.58" y1="502.93" x2="1854.42" y2="1501.07" gradientUnits="userSpaceOnUse"><stop stop-color="#0071bc"/><stop offset="1" stop-color="#662d91"/></linearGradient><linearGradient id="1" x1="218.98" y1="560.74" x2="1773.31" y2="1454.03" xlink:href="#0"/></defs><path d="M1803.6,470.09l-760-438.68a107.59,107.59,0,0,0-107.59,0L176.4,470.09a107.59,107.59,0,0,0-53.79,93.15v877.51a107.59,107.59,0,0,0,53.79,93.15l759.81,438.68a107.59,107.59,0,0,0,107.59,0l759.81-438.68a107.59,107.59,0,0,0,53.79-93.15V563.24A107.59,107.59,0,0,0,1803.6,470.09Z" transform="translate(-109.43-3.83)" fill="none" stroke-miterlimit="10" stroke-width="26.34" stroke="url(#0)"/><path d="M1724.65,516.43L1043.14,123a106.38,106.38,0,0,0-106.38,0L255.3,516.43a106.38,106.38,0,0,0-53.16,91.94v787.1a106.38,106.38,0,0,0,53.16,92.1L936.81,1881a106.38,106.38,0,0,0,106.38,0l681.52-393.47a106.38,106.38,0,0,0,53.16-92.1V608.37A106.38,106.38,0,0,0,1724.65,516.43Z" transform="translate(-109.43-3.83)" fill="url(#1)"/><g fill="#fff" transform="translate(-109.43-3.83)"><path d="m498.13 559.79q24.58-24.42 49-48.89 24.58 24.5 49.05 49.05-24.42 24.5-48.95 48.95-24.57-24.5-49.1-49.11"/><path d="m645.71 559.85q24.42-24.5 48.95-48.95 24.5 24.42 48.89 48.89-24.42 24.5-48.95 48.95-24.49-24.42-48.89-48.89"/><path d="m1236.5 559.69q24.42-24.5 48.89-48.89 24.58 24.5 49.05 49.05-24.42 24.5-48.89 48.95-24.5-24.59-49.05-49.11"/><path d="m1383.76 560q24.5-24.58 49.16-49.16 24.5 24.42 48.95 48.95l-49.16 49.16q-24.5-24.47-48.95-48.95"/><path d="m571.95 633.56q24.5-24.42 48.95-48.89 24.5 24.42 48.89 48.89-24.42 24.5-48.95 48.95-24.5-24.43-48.89-48.95"/><path d="m719.95 633.66q24.34-24.26 48.47-48.66 24.18 24.42 48.47 48.68-24.26 24.18-48.47 48.42-24.26-24.2-48.47-48.44"/><path d="m1163.21 633.34c16.18-16.23 32.4-32.4 48.53-48.74q24.26 24.4 48.63 48.8-24.37 24.26-48.63 48.6c-16.07-16.31-32.35-32.43-48.53-48.66"/><path d="m1310.26 633.45q24.42-24.5 48.89-48.89 24.5 24.42 48.95 48.95-24.42 24.5-48.89 48.95c-16.28-16.4-32.67-32.68-48.95-49.01"/><path d="m498.13 707.37l49.1-49.1q24.5 24.5 48.89 48.95-24.5 24.58-49.05 49.05-24.49-24.43-48.94-48.9"/><path d="m645.66 707.32q24.5-24.42 49-48.89 24.5 24.42 48.89 48.89-24.42 24.5-48.95 48.95-24.49-24.43-48.94-48.95"/><path d="m793.4 707.05q24.18-24.26 48.42-48.47 24.42 24.42 48.78 48.84-24.18 24.18-48.42 48.37-24.42-24.34-48.78-48.74"/><path d="m1089.61 707.05q24.18-24.26 48.37-48.47 24.34 24.26 48.58 48.58c-16.23 16.07-32.3 32.3-48.53 48.37-16.03-16.23-32.3-32.3-48.42-48.48"/><path d="m1236.5 707.21q24.5-24.58 49.05-49.05 24.5 24.42 48.95 48.95-24.5 24.58-49.05 49.1c-16.28-16.38-32.67-32.66-48.95-49"/><path d="m1384 707.21q24.42-24.5 48.89-48.89 24.5 24.42 48.95 48.95-24.42 24.5-48.89 48.95c-16.26-16.39-32.64-32.67-48.95-49.01"/><path d="m940.82 712.22l48.37-48.37c17 15.75 33.67 31.82 49.9 48.37q-24.42 24.74-49.9 48.31-24.19-24.18-48.37-48.31"/><path d="m572.11 781.13q24.42-24.26 48.89-48.58 24.18 24.34 48.42 48.53-24.26 24.34-48.53 48.63-24.41-24.26-48.78-48.58"/><path d="m867.21 780.82c16.12-16.18 32.24-32.24 48.37-48.42q24.18 24.18 48.31 48.37c-16.07 16.12-32.24 32.24-48.31 48.37q-24.18-24.14-48.37-48.32"/><path d="m1015.9 780.82c16-16.23 32.24-32.19 48.26-48.42 16.54 15.86 32.35 32.35 48.68 48.42-16.23 16.07-32.35 32.35-48.58 48.47-16.07-16.23-32.26-32.29-48.36-48.47"/><path d="m1311 780.87c16.07-16.23 32.19-32.35 48.26-48.58q24.5 24.26 48.84 48.58-24.5 24.26-48.89 48.58c-16.02-16.28-32.21-32.35-48.21-48.58"/><path d="m645.87 854.58q24.18-24.26 48.53-48.47 24.26 24.42 48.68 48.79-24.18 24.26-48.42 48.42-24.42-24.32-48.79-48.74"/><path d="m940.92 854.47q24.1-24.18 48.26-48.26 25.45 23.55 49.9 48.31-24.34 24.82-49.84 48.26-24.19-24.17-48.32-48.31"/><path d="m1237.24 854.58q24.1-24.18 48.26-48.21 24.18 24.18 48.42 48.21c-16.18 16-32.3 32.14-48.42 48.16-16.02-16.13-32.19-32.09-48.26-48.16"/><path d="m719.69 928.34q24.18-24.26 48.42-48.37 24.1 24.1 48.21 48.26-24.1 24.18-48.31 48.42-24.11-24.18-48.32-48.31"/><path d="m1163.32 928.34q24.18-24.18 48.42-48.37 24.18 24.1 48.26 48.37-24.1 24.18-48.26 48.37c-16.07-16.18-32.3-32.24-48.42-48.37"/><path d="m646 1002q24.18-24.26 48.42-48.37 24.1 24.18 48.26 48.37-24.1 24.18-48.26 48.37-24.29-24.19-48.42-48.37"/><path d="m793.4 1002q24.18-24.18 48.37-48.31 24.1 24.18 48.23 48.31-24 24.18-48.21 48.31-24.21-24.18-48.39-48.31"/><path d="m1089.55 1002c16.12-16.23 32.4-32.3 48.53-48.53 16.18 16.12 32.3 32.4 48.47 48.53q-24.26 24.18-48.47 48.53c-16.08-16.23-32.4-32.3-48.53-48.53"/><path d="m1232.86 1002c16.54-15.54 31.3-33.19 49.05-47.42 15.28 16.39 32.24 31.19 47.74 47.42-15.49 16.12-32.19 31-47.58 47.26-18.07-13.75-32.5-31.82-49.21-47.26"/><path d="m719.69 1075.66q24.18-24.18 48.31-48.31c16.12 16.18 32.24 32.24 48.31 48.42q-24.1 24.18-48.21 48.26-24.18-24.19-48.41-48.37"/><path d="m1163.37 1075.66c16.07-16.12 32.3-32.19 48.37-48.37q24.18 24.18 48.31 48.37c-16.18 16.07-32.09 32.4-48.42 48.26-16.07-16.12-32.19-32.14-48.26-48.26"/><path d="m645.87 1149.42q24.34-24.42 48.79-48.74 24.26 24.18 48.42 48.42-24.34 24.42-48.68 48.79-24.35-24.18-48.53-48.47"/><path d="m940.71 1149.53q24.26-24.26 48.53-48.47 25.69 23.55 50.05 48.37-24.42 25-50.11 48.63-24.26-24.27-48.47-48.53"/><path d="m1237.24 1149.47c16.07-16.12 32.24-32.14 48.26-48.21q24.26 24.1 48.47 48.16-24.18 24.1-48.47 48.21-24.11-24.11-48.26-48.16"/><path d="m572.06 1222.87q24.42-24.26 48.84-48.58 24.26 24.26 48.53 48.63-24.27 24.18-48.43 48.58c-16.33-16.18-32.61-32.5-48.94-48.63"/><path d="m866.95 1223.18q24.34-24.34 48.63-48.58 24.34 24.26 48.68 48.58-24.26 24.34-48.58 48.68-24.42-24.26-48.73-48.68"/><path d="m1015.58 1223.18c16.23-16.28 32.56-32.46 48.74-48.74 16.23 16.18 32.46 32.46 48.74 48.58q-24.42 24.42-48.79 48.89-24.35-24.33-48.69-48.73"/><path d="m1310.95 1223.13c16-16.23 32.24-32.4 48.26-48.68q24.42 24.34 48.95 48.68-24.42 24.34-48.89 48.63c-16.08-16.23-32.27-32.4-48.32-48.63"/><path d="m940.5 1291.78q24.34-24.26 48.68-48.63c17.18 15.75 33.88 32 50.32 48.58q-24.58 25.05-50.26 48.84-24.42-24.42-48.74-48.79"/><path d="m498.13 1296.68q24.5-24.5 48.95-48.95 24.58 24.5 49.05 49.05-24.42 24.5-48.89 48.95-24.58-24.57-49.11-49.05"/><path d="m645.66 1296.63q24.5-24.42 48.95-48.89 24.5 24.42 48.95 48.95-24.42 24.5-48.89 48.89-24.51-24.42-49.01-48.95"/><path d="m793.08 1296.89c16.39-16.28 32.72-32.67 49.1-48.95q24.34 24.34 48.74 48.68-24.5 24.66-49 49.16-24.42-24.41-48.84-48.89"/><path d="m1089.24 1296.95c16.28-16.33 32.67-32.56 48.84-48.89q24.42 24.42 48.89 48.74-24.5 24.5-48.95 49-24.41-24.43-48.78-48.85"/><path d="m1236.5 1296.79c16.28-16.33 32.67-32.67 48.95-49q24.5 24.58 49.05 49.1-24.5 24.5-48.95 48.95-24.55-24.5-49.05-49.05"/><path d="m1384 1296.79c16.28-16.33 32.67-32.67 48.95-49q24.42 24.5 48.89 48.95-24.42 24.5-48.95 48.95-24.47-24.43-48.89-48.9"/><path d="m571.9 1370.39q24.5-24.42 48.95-48.89 24.5 24.42 48.95 48.95-24.42 24.5-48.89 48.89-24.51-24.42-49.01-48.95"/><path d="m719.53 1370.44q24.34-24.5 48.84-48.84 24.5 24.34 48.89 48.84c-16.28 16.28-32.56 32.67-48.84 48.95-16.33-16.28-32.61-32.66-48.89-48.95"/><path d="m1162.79 1370.55q24.42-24.5 49-49 24.5 24.58 49.05 49-24.58 24.5-49.05 49.1-24.58-24.49-49-49.1"/><path d="m1310.26 1370.55c16.28-16.33 32.67-32.67 48.95-49q24.42 24.5 48.89 48.95-24.42 24.5-48.95 48.95-24.49-24.45-48.89-48.9"/><path d="m498.29 1444q24.42-24.5 48.95-48.95 24.5 24.5 48.95 48.95-24.5 24.5-48.95 48.95-24.5-24.37-48.95-48.95"/><path d="m645.66 1444.15q24.5-24.42 48.95-48.89 24.5 24.42 48.95 48.95-24.42 24.5-48.89 48.89-24.51-24.42-49.01-48.95"/><path d="m1236.5 1444.31q24.5-24.58 49.05-49.1 24.42 24.5 48.89 48.95-24.5 24.58-49.05 49.05-24.5-24.42-48.89-48.9"/><path d="m1383.76 1444q24.42-24.5 48.95-48.95l49.16 49.16q-24.42 24.5-48.95 48.95-24.66-24.53-49.16-49.16"/></g></svg>