<svg enable-background="new 0 0 390.5 390.5" viewBox="0 0 390.5 390.5" xmlns="http://www.w3.org/2000/svg" xmlns:xlink="http://www.w3.org/1999/xlink"><linearGradient id="a" gradientUnits="userSpaceOnUse" x1="194.2539" x2="196.2539" y1="388.7397" y2=".2397"><stop offset="0" stop-color="#e06fcf"/><stop offset="1" stop-color="#fa72de"/></linearGradient><circle cx="195.3" cy="195.3" fill="url(#a)" r="195.3"/><image height="273" opacity=".45" overflow="visible" transform="translate(40.25 56.25)" width="312" xlink:href="2DF65232.png"/><path d="m344.3 263.5-46.6-46.4 45.6-45.9-34.5-34.4-45.6 45.9-35.6-35.5 51.4-51.7-34.2-34.5-51.7 51.7-48.6-48.4-34.5 34.2 48.6 48.6-34.6 34.6-44.5-44-34.5 34.5 44.4 44.2-44.1 44.1 34.5 34.8 44.3-44.4 70.6 70.2 68.6-69.2 46.2 46.2zm-149.7-11.9-35.9-35.5 34.4-34.5 35.7 35.7z" fill="#fff"/></svg>