<svg xmlns="http://www.w3.org/2000/svg" width="1732" height="2000" viewBox="0 0 1732 2000"><defs><linearGradient id="0" x1="1687.08" y1="320.67" x2="320.4" y2="1687.36" gradientUnits="userSpaceOnUse"><stop stop-color="#60c6f2"/><stop offset=".32" stop-color="#60c6f2"/><stop offset=".66" stop-color="#1e4281"/><stop offset="1" stop-color="#1e4281"/></linearGradient></defs><path d="M134,500V1500l866,500,866-500V500L1000,0Zm917.36-297.14,600.88,346.93L1351.79,723.29ZM347.76,549.81,932.57,212.16,640.15,718.63ZM770.07,793.65l224.59-389L1221.9,798.29,1000,926.4Zm656.74,59.54,289.18-167v667.86ZM284,686.23,565.16,848.55,284,1335.53V686.23Zm411,237.32L925,1056.3v248.41H475Zm380,132.75,221.88-128.1,217.38,376.5H1075Zm0,398.42h569.41L1075,1783.49Zm-719.42,0H925v328.77Z" transform="translate(-134)" fill="url(#0)"/></svg>