<svg xmlns="http://www.w3.org/2000/svg" viewBox="0 0 200.96 197.1"><g fill="#2b5eba"><circle cx="158.86" cy="98.5" r="42.1"/><circle cx="105.66" cy="20.3" r="20.3"/><circle cx="105.66" cy="176.8" r="20.3"/><g transform="translate(-.04)"><path d="m96.4 128.9a12.09 12.09 0 0 0 3.8 .6 12.7 12.7 0 1 0 -10.7 -19.6v.1a5.56 5.56 0 0 0 -.9 1.7c-14 24.7-42.1 8.2-42.1 8.2a30.61 30.61 0 1 0 -15.7 56.9 30.41 30.41 0 0 0 27.1 -16.5v-.1a32.14 32.14 0 0 0 2.2 -5.4c14.6-33.5 36.3-25.9 36.3-25.9"/><path d="M89.2,84h0a13.86,13.86,0,0,0,2.3,3.1,12.66,12.66,0,1,0,6.3-21.3h-.1a7,7,0,0,0-1.9.6c-27.4,7.6-35.6-24-35.6-24h0A30.52,30.52,0,1,0,39.9,78.9H40a41.65,41.65,0,0,0,5.4-2.3C79.3,63.2,89.2,84,89.2,84Z"/></g></g></svg>