<svg xmlns="http://www.w3.org/2000/svg" width="1785.44" height="1998.84" viewBox="0 0 1785.44 1998.84"><defs><linearGradient id="0" x1="169.38" y1="736.33" x2="166.34" y2="733.46" gradientTransform="matrix(436.15 0 0-492.8-72218.5 362936.01)" gradientUnits="userSpaceOnUse"><stop stop-color="#01c1d2"/><stop offset=".22" stop-color="#009eb5"/><stop offset=".58" stop-color="#007bb7"/><stop offset=".87" stop-color="#384d78"/><stop offset="1" stop-color="#483b6b"/></linearGradient></defs><path d="m208.38 238.26q312.02-178.87 791.62-178.87t791.62 178.87a84 84 0 0 1 42.07 78l-42.84 693.53a900 900 0 0 1 -409.42 700l-335.67 217.32a84.24 84.24 0 0 1 -91.54 0l-335.66-217.35a900 900 0 0 1 -409.42 -700l-42.84-693.5a84 84 0 0 1 42.08 -78" transform="translate(-107.28-.58)" fill="url(#0)"/><g fill="none" stroke="#fff" transform="translate(-107.28-.58)"><path d="M193.72,212.77Q513,29.74,1000,30q486.83,0,806.28,182.77a113.33,113.33,0,0,1,56.8,105.3l-42.84,693.53a929.43,929.43,0,0,1-422.79,722.82l-335.67,217.32a113.72,113.72,0,0,1-123.58,0L602.54,1734.43A929.43,929.43,0,0,1,179.76,1011.6L136.92,318.07A113.33,113.33,0,0,1,193.72,212.77Z" stroke-width="58.836"/><g stroke-width="42.03"><path d="m202.94 213.14l763.14 1378.17a42.09 42.09 0 0 0 73.73 -.19l757.24-1384.76"/><path d="m261.83 1347.06l723.74-1291.6a25.25 25.25 0 0 1 44.21 .29l704.18 1297"/></g></g><g fill="#fff"><ellipse cx="1340.67" cy="831.45" rx="92.53" ry="92.38"/><ellipse cx="894.82" cy="1625.08" rx="92.53" ry="92.38"/><ellipse cx="427.94" cy="831.45" rx="92.53" ry="92.38"/></g><g transform="translate(-107.28-.58)"><g fill="none" stroke="#fff" stroke-width="42.03"><path d="m1002.1 1636.16v310.73" stroke-linecap="square"/><path d="m350.16 1487.57q93.39 22 657.8 159.08l654.51-172.16"/></g><path d="m1000 504.5c-26.74 0-50.14 23.37-50.14 50.07v183.61l-267.42 166.91 28.67 62.68 238.75-79.37v183.6l-66.86 50.08v50.07l117-33.38 117 33.38v-50.07l-66.86-50.08v-183.6l234.65 83.6 32.76-66.87-267.41-166.95v-183.61c0-26.7-23.4-50.07-50.14-50.07" fill="#fff"/></g></svg>