<svg id="Layer_1" xmlns="http://www.w3.org/2000/svg" viewBox="0 0 1117 1117.1" width="2500" height="2500"><style>.st0{fill:url(#SVGID_1_)}.st1{fill:#fff}</style><linearGradient id="SVGID_1_" gradientUnits="userSpaceOnUse" y1="558.538" x2="1117.046" y2="558.538"><stop offset="0" stop-color="#e5a800"/><stop offset="1" stop-color="#fac900"/></linearGradient><path class="st0" d="M519.8 1.3c91.6-6.4 184.8 10 268.5 48 100.1 45.1 186.2 120.5 244.3 213.8 47.4 75.7 76.1 163 82.8 252.1 7.2 92.8-8.9 187.4-47.2 272.3-30.4 67.8-74.7 129.3-129.1 179.9-58.3 54.3-128.3 96-203.9 121.2-93.3 31.1-194.9 36.8-291.1 16.8-79.5-16.4-155.2-50.8-220.2-99.5-38.2-28.6-72.8-62.1-102.5-99.5-44.8-56.1-78.6-121-98.8-189.9-25.8-87.8-29.5-181.9-11.1-271.4C24.6 381.6 48.9 320.5 83 265.4c31.4-50.9 71.1-96.8 117-135.1 55.4-46.5 119.9-82.1 188.9-104 42.4-13.6 86.5-21.9 130.9-25"/><path class="st1" d="M779.1 683.8c-5.3-16-10.8-32-15.9-48 25 .1 50 0 75 0V592c-29.9 0-59.8.1-89.7 0-41.3-124-82.7-248-124-372H517.4c-41.4 124-82.6 248-124 372h-89.7v43.8c25 .1 50.1-.1 75.1.1-5.4 15.9-10.7 31.9-16 47.9-19.7.1-39.4 0-59.2 0v43.7h44.5c-14.8 44.5-29.8 89-44.4 133.5 20.3-.2 40.6 0 60.9-.1 14.8-44.5 29.7-89 44.5-133.5 73.9 0 147.8-.1 221.7 0 14.8 44.5 29.6 89 44.5 133.5H838c-14.7-44.5-29.7-89-44.4-133.5 14.8-.1 29.6 0 44.5 0v-43.8c-19.6.2-39.3.2-59 .2zM520 395.3c22 65.5 43.8 131.1 65.6 196.7-43.7.1-87.5 0-131.2.1 21.8-65.7 43.7-131.3 65.6-196.8zm-96.1 288.4c5.2-16 10.7-31.9 15.9-47.9 53.5-.1 107 0 160.5 0 5.4 16 10.7 31.9 16 47.9-64.2.1-128.3.1-192.4 0z"/></svg>