<svg enable-background="new 0 0 804.5 801.8" viewBox="0 0 804.5 801.8" xmlns="http://www.w3.org/2000/svg"><g fill="#2b71ff"><path d="m402.5 801.8-99-99.9c45.2-2.8 106.5-11.5 175-36.6 51.2-18.8 92.8-41.8 124.5-62.4z"/><path d="m402.5 0-402.5 401.2c35.6 30.8 185.5 153.3 411 150.1 214.5-3 356.2-117.9 393.5-150.1-134-133.7-268-267.5-402-401.2zm97.5 485.3c-37.4-23.6-88.1-50.6-151.5-71-86-27.7-161.8-32.8-214.5-32 63.2-27.4 215.5-82.6 396.5-40 68.5 16.2 124.2 42.4 166 67-25.2 16.6-58.8 35.5-100.5 51-36.1 13.4-68.9 20.8-96 25z"/></g></svg>