<svg xmlns="http://www.w3.org/2000/svg" viewBox="0 0 465.98 465.98"><path fill="#51578a" d="m373.58 357.84l1.53 3.89h-69.89l-39.71-99.74 108.04 95.82.03.03"/><path fill="#848de0" d="m237.46 191.55l-34.76-87.27h69.9l-35.11 87.34-.03-.07"/><g fill="#454a75"><path d="m318.75 220.16l54.8 137.65-108.04-95.82-.02-.03 53.26-41.8"/><path d="m95.73 358.44l112.19-93.54-39 96.83h-74.56l1.37-3.29"/></g><path fill="#7880cc" d="m202.7 104.28l34.76 87.27-1.35 3.31-53.24-43.48 19.83-47.1"/><path fill="#5c629c" d="m153.89 220.26l82.22-25.4-28.19 70.04-54.03-44.64"/><path fill="#51578a" d="m153.89 220.26l54.03 44.64-112.19 93.54 58.16-138.18"/><g fill="#686fb0"><path d="m237.53 191.72l81.22 28.44-53.26 41.8-27.96-70.24"/><path d="m182.87 151.38l53.24 43.48-82.22 25.4 28.98-68.88"/></g><path fill="#5c629c" d="m272.6 104.28l46.15 115.88-81.22-28.44-.04-.1 35.11-87.34"/><circle cx="232.99" cy="232.99" r="226" fill="none" stroke="#7880cc" stroke-width="13.979" stroke-miterlimit="10"/></svg>