<svg enable-background="new 0 0 109.3 88.2" viewBox="0 0 109.3 88.2" xmlns="http://www.w3.org/2000/svg" xmlns:xlink="http://www.w3.org/1999/xlink"><linearGradient id="a" gradientUnits="userSpaceOnUse" x1="54.6591" x2="54.2841" y1="86.23" y2=".73"><stop offset="0" stop-color="#f6a080"/><stop offset="1" stop-color="#dc4c42"/></linearGradient><path d="m109.3 82.8-12-79.1c-.5-3.4-4.7-4.8-7.2-2.3l-36 36.6-36.6-37c-1.9-1.9-5.2-.9-5.6 1.8l-11.9 81.6c-.4 2.4 2 4.4 4.3 3.6l50.7-16.4 48.8 15.8c3 1 5.9-1.5 5.5-4.6zm-100-5.1 9.3-64 29.8 30.1-14.4 14.6c-2.2 2.2-1.3 6 1.7 6.9l5.9 1.9zm45.6-14.7-9.7-3.2 9.5-9.7 9.7 9.8zm13.4 4.3 6-2c2.3-.8 3.1-3.7 1.3-5.5l-15.3-15.4 30.1-30.7 9.7 64z" fill="url(#a)"/></svg>