<svg enable-background="new 0 0 127.3 130" viewBox="0 0 127.3 130" xmlns="http://www.w3.org/2000/svg" xmlns:xlink="http://www.w3.org/1999/xlink"><linearGradient id="a" gradientTransform="matrix(1 0 0 -1 0 105.4)" gradientUnits="userSpaceOnUse" x1="30.2266" x2="77.0996" y1="42.6663" y2="39.2858"><stop offset="0" stop-color="#0febf4"/><stop offset=".1599" stop-color="#0fe6f2"/><stop offset=".3433" stop-color="#0fd8ed"/><stop offset=".5382" stop-color="#0fc1e4"/><stop offset=".7412" stop-color="#10a1d7"/><stop offset=".9485" stop-color="#1078c7"/><stop offset="1" stop-color="#106dc3"/></linearGradient><path d="m14.7 0h44.8v44.3l-15.7-16c-1 .6-21.6 12-22.7 35.3-1 21.3 15.2 34.2 17.2 35.7 10.9 8.3 22.6 9 26.8 9 3-.2 20.9-1.9 32.3-17.2 10.4-13.8 11.7-33.7 2.2-48.5-7.8-12-19.9-16.2-23.8-17.3 0-7.4 0-14.8 0-22.2 4.5 1 31 7.3 44.3 32.2 6.3 11.7 7.2 22.9 7.2 29.5-.1 5.8-1.1 24.4-14.8 41.2-18 22-43.8 23.8-48.2 24-5-.2-26-1.4-43.8-18.3-18-17.1-20.1-38.4-20.5-43.3-.1-6.6.7-22 10.7-37.3 5.7-8.8 12.5-14.5 17.3-17.8-4.4-4.5-8.9-8.9-13.3-13.3z" fill="url(#a)"/><circle cx="63.9" cy="66.2" fill="#0febf4" r="15.3"/></svg>