<svg enable-background="new 0 0 226.8 226.8" viewBox="0 0 226.8 226.8" xmlns="http://www.w3.org/2000/svg"><path d="m113.4 0c-62.6 0-113.4 50.8-113.4 113.4s50.8 113.4 113.4 113.4 113.4-50.8 113.4-113.4-50.8-113.4-113.4-113.4zm0 197.4c-23.1 0-44-9.3-59.1-24.4l9-16.4h100.3l9 16.3c-15.2 15.1-36.1 24.5-59.2 24.5zm33.1-72.2 8.1 14.8h-82.3l8.1-14.8zm-57-16.6 23.9-43.9 24 43.9zm94.5 50.4-70.6-129.6-70.7 129.4c-8.4-13.1-13.4-28.7-13.4-45.5 0-46.4 37.6-84 84-84s84 37.6 84 84c.1 16.9-4.8 32.5-13.3 45.7z" fill="#a4a4a4"/></svg>