<svg xmlns="http://www.w3.org/2000/svg" viewBox="0 0 1405 2000"><g transform="translate(-298)"><path d="M1702.75,1285.36c-2.23,302.61-202.08,568.36-492.36,654.34,21.21-6.7,42.43-15.63,62.52-24.57a699.08,699.08,0,0,0,219.94-166.38,670.56,670.56,0,0,0,144-232.26,490.49,490.49,0,0,0,15.63-269.11c-22.33-89.33-70.34-170.84-136.21-235.61-67-64.76-147.37-111.66-236.69-139.58-89.32-26.8-180.87-39.08-273.53-39.08h-7.82a917.89,917.89,0,0,0-274.65,39.08,609.63,609.63,0,0,0-237.81,139.58A494,494,0,0,0,349.6,1247.39c-20.1,89.33-15.63,183.13,14.51,269.11a650.6,650.6,0,0,0,144,232.26c61.41,69.23,136.21,125.06,219.94,166.38,20.1,10,41.31,17.87,62.52,24.57-290.28-86-490.13-351.74-492.36-654.34-5.58-201,83.73-394.17,241.16-519.23,14.51-12.28,26.8-21.22,26.8-21.22,30.14-34.62,46.89-79.28,48-126.18-12.28-93.8-35.73-187.59-68.1-276.92-14.51-20.1-36.84-33.5-61.41-34.62-86-1.12-153-69.23-155.19-154.09,3.35-88.21,77-156.33,164.12-153,82.62,3.35,149.61,70.35,153,153a172.34,172.34,0,0,1-50.24,112.78c-15.63,15.63-21.21,39.08-15.63,61.41a735.15,735.15,0,0,0,148.49,249A138.59,138.59,0,0,0,804,617.61a79.07,79.07,0,0,0,32.38,0c52.47-13.4,107.18-20.1,160.77-17.87h4.47c54.71-2.23,108.3,3.35,160.77,17.87a79.07,79.07,0,0,0,32.38,0,138.59,138.59,0,0,0,74.8-41.32,750.62,750.62,0,0,0,147.37-249c6.7-21.22,1.12-44.67-15.63-61.41a172.34,172.34,0,0,1-50.24-112.78A158.8,158.8,0,0,1,1516.3.12c82.62,3.35,149.61,70.35,153,153C1667,238,1598.92,305,1514.07,307.19a84.65,84.65,0,0,0-61.41,34.62c-32.38,89.33-54.71,182-68.1,276.92a203.62,203.62,0,0,0,48,126.18s12.28,10,26.8,21.22c159.65,126.18,249,318.24,243.39,519.23h0Z" fill="#9becff"/><path d="M1648,1276.42A501.19,501.19,0,0,0,1513,1040.82a609.23,609.23,0,0,0-235.57-139.58,917.89,917.89,0,0,0-274.65-39.08h-3.35a917.89,917.89,0,0,0-274.65,39.08,609.23,609.23,0,0,0-235.57,139.58A494,494,0,0,0,353,1276.42c-20.1,89.33-15.63,182,14.51,269.11a657.63,657.63,0,0,0,142.91,232.26c61.41,69.23,136.21,125.06,218.83,166.38,20.1,10,41.31,17.87,62.52,24.57,67,20.1,137.32,31.27,207.66,31.27h3.35c70.34,0,140.67-11.17,208.78-31.27,21.21-6.7,41.31-15.63,61.41-24.57a707.41,707.41,0,0,0,218.83-166.38c63.64-67,111.65-146.28,142.91-232.26,29-87.1,34.61-179.78,13.4-269.11h0Z" fill="#00a3e9"/><path d="M894.44,1623.7c-4.47,16.75-11.16,33.5-17.86,49.13-21.21,56.95-68.1,100.5-126.16,118.36-68.1,11.17-137.32-3.35-194.26-41.32C497,1708.56,451.2,1650.5,423.29,1584.61A459.17,459.17,0,0,1,382,1380.27,417.53,417.53,0,0,1,434.46,1177c31.26-56.95,82.62-99.38,145.14-117.25,61.41-12.28,125,2.23,174.17,41.32,6.7,4.47,12.28,10,19,15.63a418.65,418.65,0,0,1,101.6,150.74c26.8,63.65,40.19,132.88,41.31,202.11,0,52.48-6.7,103.85-21.21,154.09h0Zm685.51-38c-27.91,65.88-73.69,123.95-132.86,165.26-56.94,38-126.16,52.48-194.26,41.32a200.1,200.1,0,0,1-127.28-118.36c-7.82-15.63-13.4-32.38-17.86-49.13a550.17,550.17,0,0,1-19-154.09c1.12-69.23,14.51-137.35,41.31-202.11a418.65,418.65,0,0,1,101.6-150.74c5.58-5.58,12.28-10,19-15.63,49.12-39.08,112.76-53.6,174.17-41.32a238.18,238.18,0,0,1,145.14,117.25,447.18,447.18,0,0,1,52.47,203.23c0,70.35-13.4,139.58-42.43,204.34h0Z" fill="#111b53"/><path d="M885.5,1609.18A319.8,319.8,0,0,1,868.76,1655c-20.1,52.48-63.64,92.68-118.34,109.43a258.49,258.49,0,0,1-180.87-38c-54.71-38-97.13-91.56-123.93-153-26.8-59.18-40.19-122.83-38-187.59,0-65.88,16.75-129.53,49.12-187.59,29-52.48,77-91.56,135.09-107.2a203.69,203.69,0,0,1,163,38c5.58,4.47,11.16,8.93,17.86,14.52-19-2.23-38,0-56.94,4.47a195.62,195.62,0,0,0-98.25,64.76c-24.56,30.15-42.43,65.88-49.12,105-7.82,38-6.7,78.16,2.23,116.13,10,38,27.91,73.7,52.47,102.73a249.82,249.82,0,0,0,92.67,70.35c35.73,16.75,74.8,23.45,112.76,19a175.39,175.39,0,0,0,56.94-16.75h0Z" fill="#fff"/><path d="M1115.5,1610.3a319.8,319.8,0,0,0,16.75,45.78c20.1,52.48,63.64,92.68,117.23,109.43a258.49,258.49,0,0,0,180.87-38c54.71-38,97.13-91.56,122.81-153,26.8-59.18,40.19-122.83,38-187.59,0-65.88-16.75-129.53-49.12-187.59a225,225,0,0,0-134-107.2c-56.94-11.17-116.11,2.23-161.89,38a194.08,194.08,0,0,0-16.75,14.52c19-2.23,38,0,56.94,4.47a200.49,200.49,0,0,1,98.25,64.76,239.73,239.73,0,0,1,49.12,105c7.82,38,6.7,78.16-2.23,116.13A247.75,247.75,0,0,1,1379,1538.83c-24.56,30.15-55.82,54.71-91.55,70.35-35.73,16.75-73.69,23.45-112.76,19-20.1-3.35-40.19-8.93-59.17-17.87h0Z" fill="#fefefe"/></g></svg>