<svg viewBox="0 0 33.6 38" xmlns="http://www.w3.org/2000/svg"><path d="m12.6 17 4.2 2.2v4.8c-.5 0-1 0-1.7 0-.8-.1-1.5-.3-2-.5l-.1 6h-1.8l.2-6.3c-.8-.3-1.9-.9-2.9-1.9-1.3-1.2-2.1-2.4-2.5-3.2.3-.5.7-1 1.2-1.6.6-.6 1.1-1.2 1.6-1.6.4.3.8.6 1.3.9-.3.2-.7.6-1.1 1s-.6.8-.9 1.1c.3.5.8 1.2 1.5 1.8 1.6 1.2 3.5 1.8 4.1 1.7-.2-.4-.6-1.5-.9-2.1-.1-.9-.2-1.7-.2-2.3zm-12.6-6.9v18.1l16.8 9.8v-2.1l-14.8-8.7v-16z" fill="#c4081d"/><path d="m16.8 23.9v-4.8l3.8-2.9c.1.6.2 1.6.1 2.7-.1.8-.4 2-.6 2.5.8-.2 2.1-1.2 3.3-2.3.5-.5.9-1 1.2-1.4-.2-.3-.4-.5-.7-.8-.5-.5-1.1-1-1.6-1.3.5-.3 1-.6 1.5-.9.5.4 1 .9 1.6 1.5.3.4.6.7.9 1.1.6-.5 1.2-.9 1.8-1.4l1.3.8c-.3.2-.9.5-1.4.9-1.2.9-1.9 1.6-2.9 2.6-.6.6-1.5 1.2-2.7 2.2v5.1c.6-.3 1.6-.8 2.4-1.9.9-1.1 1.3-2.1 1.5-2.8.3.4.7.9 1 1.3-.3.8-1 2.3-2.5 3.7-1 .9-2 1.4-2.7 1.7-.5 0-.9 0-1.4 0l.1-6.3c-.5.1-1.1.6-1.7.7-.8 0-1.6 0-2.3 0zm14.8-12.6v15.9l-14.8 8.7v2.1l16.8-10v-17.7z" fill="#991c2a"/><path d="m20.7 16.2c-1.3 1-2.6 2-3.8 2.9l-4.3-2.1c0-.4 0-.8.1-1.3.1-.6.3-1.1.5-1.5-.4.1-.7.2-1.2.4-.7.3-1.4.8-1.9 1.1-.4-.2-.6-.7-1.1-.9.7-.6 1.9-1.4 3.5-2 1.7-.6 3.1-.7 4.1-.8.7 0 2.5.1 4.6 1 1.3.5 2.2 1.2 2.9 1.7-.5.3-1 .6-1.5.9-.3-.2-.6-.4-.9-.5-.5-.3-1-.5-1.5-.7.1.3.2.6.3 1 .1.3.1.6.2.8zm-12.7-2.5c.6-.6 3.8-3.4 8.7-3.4 4.7.1 7.6 2.7 8.3 3.4.6-.4 1.2-.8 1.8-1.2-.8-.7-4.5-4.1-10.3-4.1-5.5 0-9.1 3.2-9.9 3.9.4.5.9.9 1.4 1.4zm-6-2.5 14.8-8.9 14.8 8.9 2-1-16.8-10.2-16.8 10.1z" fill="#de5419"/></svg>