<svg enable-background="new 0 0 32 32" viewBox="0 0 32 32" xmlns="http://www.w3.org/2000/svg"><circle clip-rule="evenodd" cx="16" cy="16" fill="#3effff" fill-rule="evenodd" r="16"/><path d="m6.5 10.5 9.5-5.5 9.5 5.5v11l-9.5 5.5-9.5-5.5zm.9 10 3.8-2.2 1.9-3.4-5.7-3.3c0-.1 0 8.9 0 8.9zm.5.7 7.7 4.4v-4.3l-4-2.3zm16.7-9.6-5.7 3.3 1.9 3.4 3.8 2.2zm-.4-.8-7.7-4.4v4.3l2 3.4c-.1 0 5.7-3.3 5.7-3.3zm-6.1 4.5-1.2.7 2.3 1.3c.1 0-1.1-2-1.1-2zm-.4-.8-1.2-2.1v2.7c0 .1 1.2-.6 1.2-.6zm-4.9 2.8 2.3-1.3-1.2-.7zm-.4 1.3 3.1 1.8v-3.6zm-4.5-7.8 5.7 3.3 2-3.4v-4.4s-7.7 4.5-7.7 4.5zm16.3 10.4-3.6-2.1-4 2.3v4.2c-.1.1 7.6-4.4 7.6-4.4zm-4.6-2.6-3.1-1.8v3.6zm-5.2-4.1 1.2.7v-2.7s-1.2 2-1.2 2z" fill="#fff"/></svg>