<svg enable-background="new 0 0 32 32" viewBox="0 0 32 32" xmlns="http://www.w3.org/2000/svg"><circle cx="16" cy="16" fill="#a71435" r="16"/><g fill="#fff"><path d="m10.8 5.2c5.9-2.9 13.1-.5 16 5.4 2.1 4.3 1.5 9.5-1.7 13.1-.6-1.3-1.1-2.7-1.6-4l-3.1-8.1c-.3-.8-.8-1.6-1.6-2-1.1-.5-2.3-.7-3.5-.5-1 .1-2 .4-2.6 1.2-.6.7-.9 1.6-1.2 2.5l-2.2 5.6c-.7 1.8-1.4 3.6-2.2 5.4-1.2-1.3-2-2.8-2.5-4.4-1.7-5.6.9-11.6 6.2-14.2z"/><path d="m15.2 13.4c.2-.6 1.1-.9 1.6-.5.3.2.4.6.5.9 1.4 3.6 2.7 7.2 4.1 10.9.2.5.4 1 .6 1.6-.1.1-.2.2-.3.2-3 1.6-6.6 1.9-9.8.7-.6-.2-1.2-.5-1.7-.8.1-.5.3-.9.5-1.4 1.5-3.9 3-7.8 4.5-11.6z"/></g></svg>