<svg xmlns="http://www.w3.org/2000/svg" viewBox="0 0 2500.17 2334.03" width="2500.17" height="2334.03"><defs><linearGradient id="a" x1="-166.07" y1="-1007.9" x2="3636.58" y2="3625.01" gradientUnits="userSpaceOnUse"><stop stop-color="#fbc111"/><stop offset="1" stop-color="#fa5405"/></linearGradient></defs><path d="M2499.12 839.09l1.05-.27L2021.84.94l.28-.94H490.26l.27 1.1-.27-.29L0 851l4.84.8-4 1.65L1262.3 2334l53.2-67.34zM857 898.54l803-1.38 265.2 471.35-670.42 799-669.1-792.57zM509.74 1285L184.46 899.69l545.24-.93zm1215.48-498.7l-379.75-674.93 610.38-1.37 388.74 675.21zM2321.66 896l-320.08 381.44-214.1-380.53zm-723.93-109.49l-677.6 1.16 341.17-599.08zM547.83 113.13l630.07-1.39-385.07 676.15-632.5 1.11z" fill="url(#a)"/></svg>