<svg enable-background="new 0 0 455.6 335.9" viewBox="0 0 455.6 335.9" xmlns="http://www.w3.org/2000/svg" xmlns:xlink="http://www.w3.org/1999/xlink"><linearGradient id="a" gradientUnits="userSpaceOnUse" x1="228.4492" x2="227.7826" y1="5.7276" y2="328.3943"><stop offset="0" stop-color="#0098cb"/><stop offset="1" stop-color="#00689b"/></linearGradient><path d="m449.3 335.9h-65.3c-3 0-5.7-1.6-7.1-4.2l-35.1-64h-114.1v-55.3h83.7l-77.9-142c-2.5-4.6-9.1-4.6-11.6 0l-16.9 30.5h-79.2l46.2-81.1c6.9-12.3 20-19.9 34.1-19.8l38.2.2c18.5.1 35.5 10.2 44.5 26.4l166 300.1c2.3 4.1-.7 9.2-5.5 9.2zm-367.2-4.5 101.1-188.5h-81.2l-101.3 184.4c-2.1 3.9.7 8.6 5.1 8.6h68.8c3.1 0 6-1.7 7.5-4.5z" fill="url(#a)"/></svg>