<svg xmlns="http://www.w3.org/2000/svg" width="2000" height="2000" viewBox="0 0 2000 2000"><circle cx="1000" cy="1000" r="1000" fill="#133b90"/><path d="M1252.19 1179.31A258.2 258.2 0 0 0 1347 838.61L1135.19 456.89A257.89 257.89 0 0 0 921.63 343.81C779 343.81 663.46 459.4 663.46 602a257.33 257.33 0 0 0 19.44 98.34l.11.19L749.09 820a258.26 258.26 0 0 0 -106.16 319.87l.11.19 228 411.77a257.78 257.78 0 0 0 207.37 104.38c142.58 0 258.17-115.59 258.17-258.17a257 257 0 0 0 -29.54 -119.9" fill="#efefef" isolation="isolate"/><path d="M911 1112.3a258.26 258.26 0 0 0 341.23 67l-157-282.91A258.2 258.2 0 0 0 749.09 820L911 1112.3" fill="#e0e0e0" isolation="isolate"/></svg>