<svg viewBox="0 0 146.7 136.4" xmlns="http://www.w3.org/2000/svg" xmlns:xlink="http://www.w3.org/1999/xlink"><linearGradient id="a" gradientUnits="userSpaceOnUse" x1="147.7048" x2="6.3715" y1="5.123" y2="139.7896"><stop offset="0" stop-color="#1c4e85"/><stop offset="1" stop-color="#0b192f"/></linearGradient><path d="m90.3 47.3c-.2 1.5-.9 2.6-1.3 3.1-3.1 1.8-6.1 3.6-9.2 5.4-.2.2-1.2 1-2.8 1-1.8-.1-2.8-1.3-3-1.5-9.9-7.3-19.8-14.5-29.8-21.8-.4-.2-1.3-.4-2.3-.3-2.1.4-3.1 2.3-3.3 2.5-1.9 9.3-3.7 18.6-5.6 27.9-1.7 8.5-3.4 17-5.1 25.6 0 1.8 1.1 3.4 2.8 4 1.6.6 3.4.1 4.5-1.3 8.4-6.2 17.8-12.5 28-18.8 12-7.3 23.5-13.5 34.3-18.8.4-.3 1.7-1.1 3.5-1s3.1.9 3.5 1.3c2.4 2.3 4.8 4.5 7.3 6.8.2.2 1.5 1.5 1.3 3.5-.2 1.3-1 2.1-1.3 2.4-12.8 5.7-26.8 12.6-41.5 21.3-25.1 14.9-45.3 31-61 45.5-1.7 1.2-3.9 1.4-5.8.5-2.2-1.1-3.5-3.6-3-6.3 7.8-40 15.7-80 23.5-120-.8-2.9.6-6 3.3-7.3 2.4-1.2 5.4-.6 7.2 1.5 18.3 13.5 36.4 26.8 54.6 40.2.3.4 1.6 2.2 1.2 4.6zm-16.2 51.5c-1.4 1.8-1.5 4.2-.3 6 1.4 1.9 4 2.6 6.3 1.5 7.4-3.1 15.9-6.1 25.3-8.8 11.2-3.2 21.6-5.2 30.8-6.5 3-.1 5.4-1.9 6-4.3.5-2-.5-3.8-.8-4.3-4.5-3.6-9-7.2-13.5-10.8-.6-.4-1.8-1-3.5-1.2-2.3-.3-4.1.6-4.8.9-5.5 2.9-11.1 6-16.7 9.3-10.3 6.2-19.9 12.2-28.8 18.2zm26.7 36.3h-4l-1.1-5.9h-7.7l-4 5.9h-4.9l16.6-22.1zm-5.6-8.8-1.3-6.3-4.6 6.3zm34.9-5.3 6.2 14.1 9.7-22.1h-3.8l-5.8 13-6.2-13-10.5 22.2h4.6zm-25.5-3.5h6.4l-4.6 17.6h4.8l4-17.5h4.5l2-3.9h-14.9z" fill="url(#a)"/></svg>