<svg enable-background="new 0 0 80.1 79.5" viewBox="0 0 80.1 79.5" xmlns="http://www.w3.org/2000/svg"><path d="m3.9 49.2c-.5 2.1-3.5 1.8-3.7-.3-.6-6.7.2-15.8 6.3-24.3 5.8-8.1 14.7-13.3 24.4-14.6 2-.3 2.9 2.4 1.1 3.4-5.9 3.1-13.4 8.5-19.6 17.3-4.7 6.5-7.1 13.1-8.5 18.5zm20.8 13c-6.4-8.6-9.2-17.4-10.4-23.9-.4-2-3.2-2-3.6 0-1.7 9.6.5 19.6 6.5 27.7 6.2 8.4 14.6 12 21.2 13.5 2.1.5 3.2-2.3 1.4-3.5-4.8-3-10.3-7.4-15.1-13.8zm34.5-1.6c-10.1 3.5-19.4 3.4-26 2.5-2-.3-2.9 2.4-1.1 3.4 8.7 4.5 18.9 5.5 28.4 2.4 9.9-3.3 15.9-10.2 19.3-16 1.1-1.8-1.2-3.8-2.8-2.4-4.3 3.6-10.2 7.4-17.8 10.1zm8.9-33c.2 10.7-2.8 19.5-5.7 25.5-.9 1.8 1.4 3.5 2.9 2.1 7.1-6.8 11.2-16.2 11.1-26.2-.1-10.5-4.8-18.3-9.2-23.3-1.4-1.6-4 0-3.2 2 2.1 5.1 4 11.9 4.1 19.9zm-28.7-18.5c10.2 3.1 17.6 8.7 22.5 13.3 1.4 1.4 3.7-.3 2.9-2.1-4.3-8.8-12-15.7-21.5-18.7-10-3.2-18.9-1.1-25 1.5-2 .8-1.3 3.8.9 3.6 5.5-.3 12.5 0 20.2 2.4z" fill="#005eea"/></svg>