<svg enable-background="new 0 0 226.9 226.9" viewBox="0 0 226.9 226.9" xmlns="http://www.w3.org/2000/svg"><path d="m39.4 136.1v-136.1h-28.9c-5.8 0-10.5 4.7-10.5 10.5v28.4h28.5v51.4h-28.5v126c0 5.8 4.7 10.5 10.5 10.5h91.4c-36.5-13.9-62.5-49.3-62.5-90.7zm169.6 64.7-36.5-36.5c6.1-7.8 9.8-17.5 9.8-28.2 0-25.3-20.5-45.7-45.7-45.7h-34.8v-51.5h34.8c41 0 76 25.4 90.3 61.3v-89.7c0-5.8-4.7-10.5-10.5-10.5h-125.6v136.1c0 25.2 20.5 45.7 45.7 45.7 10.7 0 20.4-3.7 28.2-9.8l36.5 36.5c-8.8 7.9-19 14.1-30.1 18.3h45.2c5.8 0 10.5-4.7 10.5-10.5v-44.4c-4.1 10.6-10.2 20.4-17.8 28.9z" fill="#5757e4"/></svg>