<svg xmlns="http://www.w3.org/2000/svg" viewBox="0 0 226.78 226.78" width="2500" height="2500"><defs><style>.cls-1{fill:#231f20}</style></defs><title>bcn</title><g id="Laag_2" data-name="Laag 2"><g id="BCN"><path class="cls-1" d="M126.73 116H104.9v27.13h22c9.83 0 20.37-3.51 20.37-12.32S141.24 116 126.73 116zM140 93c0-8.5-8-12.24-15.75-12.24H104.9v25h18.87c7.8.05 16.23-4.24 16.23-12.76z"/><path class="cls-1" d="M113.39 23.39a90 90 0 1 0 90 90 90 90 0 0 0-90-90zm14.44 134.49H88.89v-23.06H65v-11.7h23.89v-15.51H65v-11.7h23.89V68.47h42.05c15 0 24.49 12.53 24.49 22.35s-9 15.39-9 15.39A24.34 24.34 0 0 1 162 129.6c0 18.24-15.77 28.28-34.17 28.28z"/></g></g></svg>