<svg xmlns="http://www.w3.org/2000/svg" viewBox="0 0 2000 2000" width="2000" height="2000"><g><path d="M1000,0C447.72,0,0,447.72,0,1000S447.72,2000,1000,2000s1000-447.72,1000-1000S1552.28,0,1000,0Z" fill="#231f20"/><path d="M1367.11,920.22s100-61.89,100-171S1361.67,500.89,1195,500.89H727.78V805.78H462.33v130H727.78v172.33H462.33v130H727.78v256.22h432.67c204.44,0,379.67-111.56,379.67-314.22A270.44,270.44,0,0,0,1367.11,920.22ZM905.67,637.44h215c86.11,0,175,41.56,175,136,0,94.67-93.67,142.33-180.33,141.78H905.67V637.44Zm244.44,693H905.67V1029h242.56c161.22,0,228.22,66.67,228.22,164.56S1259.33,1330.44,1150.11,1330.44Z" fill="#fff"/></g></svg>