<svg enable-background="new 0 0 42.1 39.8" viewBox="0 0 42.1 39.8" xmlns="http://www.w3.org/2000/svg"><path d="m40.3 21.3-.9-8.2 2.7-4.2-1-8.3-5.9-.6-3.1 2.7-.9-.1h-.1-.1l-10-1.6h-.1l-10.3 1.8-3.6-2.5-4 .4-1.8.5-1.2 7.5 2.5 4.3-.7 7.9.3 1.1 3.4 7.5 1 2.1 3.4 4.4 5.7 2.6 1.3 1.1 3.8-.7 3.2.7 1.9-1.1 6.1-2.6 2.7-3.7 1.5-2.7 3.8-7.6zm-8.4 1.6-4.6.3-.3-4.2-.6-.9 1.5.5 2-1.3v-2.1l3.5-2.1 1.8 3.3-.1.1.1.1zm-11.3 15.1-.9-.2-3.4-3.4h.1l1.2-.6.9.7h3.8l1.1-.6.8.5.4.3-2.8 3zm.3-32 3.1-.9 4 4-1.5 2.5-2.1 3.6v.1 1.2l-3.5-.9-3.1.7-.7.1-.1-1.7-3.1-5.7 3.8-3.9 3.1.9zm17.6 8.1.6 5.5-2.6-3zm-7.6-10.6.5.3 1.1 2.5 5.6 6.6-2.3 2.8-1.9-3.5-5-3.5-3.8-3.9 3.9-.8zm-2 13.3-1.1.7-2.1-.8h-.2v-.4l3.4-.6zm-6.4 16.5-.5.2h-3.2l-.2-.2.2-.1h1.4 1zm1.8-15.9-1.8 5.6h-3.2l-1.2-3.2-.8-2.3 3.6-.9zm-17.6-.6 1.9-3.5 3.5 2-.2 1.9 1.9 1.5 1.7-.6-.8.9-.3 4-4.5-.1-3.2-5.9zm6.4-7.1 3 5.3v.2l-3.3-.7-.8-.4-2.7-1.6zm-.1 5.9 3.1.6v.4h-.1l-2.2.7-1-.8zm3.7 12.2-2.8 1.1 1.5-5.8.3-3.7.8-1.2 1.9 5.2-2.3 2zm2.1 4.4-1 .4-2.1 1-1.9-3.7h.1l3.2-1.2 1 .8 2.1 1.7v1.1h-1.4zm1.9-2-2-1.6-1.1-.8-.4-2.1 1.9-1.7h3.5l1.7 1.7-.3 2.1-1 .7zm7.2-1.4-3-1.1.4-2.4-1.9-2 1.7-5.2.9 1.2.3 3.9zm1.2-14.2-2.4.4-1.1.2 1.3-2.3 1.9-3.2 3.8 2.7zm-18.3-10.7 5.7 1-3.6 3.6-4.6 3.5-.6.8-1.7 3.1-2.3-2.8 5.3-6zm-.9 19.9 4.3.1-1.5 5.3-.1.4.3.6 1.6 3.1-7.2-2.5-.6-1.3 2.2-3.8zm15.3 10.1-2.5-1.6h-1.5v-1.1l2.3-1.7.9-.7 3.4 1.3-2.1 3zm2.3-1.6 1.4-2 .4-.5-.1-.5-.6-1.8-1-3.3 4.4-.3 3 5.8-1.1 1.8-7.3 2.2zm11.3-20.2-2.6-3.1-2.5-2.9 3.2-2.4 1.2-.9 2.9 5.9zm1.6-6.9-1.5-3 .9-.7.4.2.5 4.2zm-4.9-4.2 2.9.3-3.3 2.5-1.9 1.4-.7-1.6.7-.6.2-.2zm-14.6 1 7.3 1.1-7.3 1.8-7.4-1.6zm-14.1-.7 2.5 1.8.5.7-1 1.8-4.5-3.6-.4-.4zm-4.7.7.6-.2.6.7-2 4.1zm2 1.2 4.2 3.3-5.1 5.7-1.7-3.5zm-.7 11.1 2 2.5-2.5 2.8zm-.6 6.9 3.2-3.5 3 5.6-2.9 5.1zm13.4 16.6-5.7-2.6-2.2-2.9 6.8 2.4.2.2 3.5 3.5-1.7.3zm15-2.6-5.9 2.5-1.6.9-1.2-.3 3-3.2h.1l.2-.3 7.3-2.2zm4.3-6.6-2.7-5.2 3.1-5.9 3.3 3.8z"/></svg>