<svg enable-background="new 0 0 291.3 339" viewBox="0 0 291.3 339" xmlns="http://www.w3.org/2000/svg"><path d="m83.3 27.8c-17.4 6.2-34.6 18.8-36.7 23.8s-27.4 11.9-27.4 11.9 4.1 17.9 3.1 20.2-17.2 41.6-16.4 76c.7 30.9 9.1 69.8 42.7 103.7 0 0 .8-12.5 7.2-16.6 0 0 6.7 16.7 21.6 37.7 14.2 20.1 48.4 41.1 66.1 48.4 0 0 24.2-9 46-25.6 14.3-10.9 32.9-37.3 36.8-54.4 0 0 3.6 10.1 2.1 17.4 0 0 46.7-48.4 54.2-89.9 7.7-42.2-1-72.4-15-89.4l3.6-30.7s-15-1.4-20.6-4.1c-5.7-2.8-27.9-33.5-63-44.9s-92.1-3.4-108.6 10.8c0 0 9.5 3.9 4.3 5.7z" fill="#0b1523"/><path d="m52.8 77.3c-6.2 3.7-8.3 20.6-8.3 20.6l-5.7-26.1 34.2-10.5s-14 12.3-20.2 16zm117.2-44.5c-40.8-6.4-42.8 17-42.8 17 15-5 21.7.5 21.7.5-37.7 14.7-18.6 43.6-18.6 43.6 5.2-15.1 22.2-28.9 46.5-30.3s49.5 31.6 49.5 31.6c.5-24.3-37.2-46.8-37.2-46.8 9.3-4.1 25.3-3.2 25.3-3.2-25.8-33-88.4-29.1-77.9-27.5 26.8 4.1 33.5 15.1 33.5 15.1zm73.8 47.3-2.1 18.8c15.5 38.5-8.3 96.3-8.3 96.3-1.5-11-18.1-15.1-18.1-15.1 0 25.7-6.1 46-23.2 68.3-17.3 22.5-48.4 34.6-48.4 34.6-21.1-26.1-42.4-41-63-59.3s-32-68.3-32-68.3c-12.9 44.9 34.2 91.1 45.4 104.1 11.1 12.9 49.1 49.7 49.1 49.7 59.6-16.5 83-95.5 83-95.5 3.1 1.8 8.3 17 8.3 17 36.1-36.7 23.2-102.7 23.2-102.7 4.6 1.8 9.8 5.5 9.8 5.5 1.5-24.3-17-38.1-17-44s2.6-17.9 2.6-17.9l-36.6-13.3z" fill="#1c75bc"/><path d="m117.9 147s-8.3 3.2-11.4 6.4-7.7 9.2-11.9 8.7c-4.1-.5-12.4-12.8-18.1-17.4s-13.5-9.3-17-9.2c0 0 11.4-5 19.1.9 7.7 6 8.3 12.4 16 12.8 7.8.6 15.5-1.7 23.3-2.2zm-4.7 39.9-15 6 7.2 20.2 13.9 4.6 14.5-10.1s-5.2-1.4-10.3-6.4c-5.1-5.1-10.3-14.3-10.3-14.3zm30.5 30.2-20.1 11.5 1.5 7.8 18.4 5.6 19.3-5.6 1.5-9.2zm-63.5-115.9s-3.1 16.5 4.6 21.1 18.1 6.4 18.1 6.4l-2.1-5s11.9 2.8 22.7 7.8 19.6 9.6 17.5 18.3-3.1 27.1 6.7 30.3 24.3.9 24.8 6.9-4.6 11.5-10.8 15.6-6.2 4.1-6.2 4.1l12.9 10.1 16-4.1s7.7-15.1 6.2-22.5c-1.5-7.3-16-21-20.1-27.1-4.3-6.3-17-26.1-16-39l7.7 8.7s18.1-6 23.7-9.2l-1 6.9 25.8-10.1s0 23.4-13.4 27.5-21.7.9-21.7.9 5.7 4.1 9.3 8.3c3.6 4.1 5.2 7.3 9.8 6 4.6-1.4 9.3-13.8 13.9-16.5 4.6-2.8 13.4-7.8 13.4-7.8s-7.2-30.3-13.9-38.5c-6.7-8.3-16.5-18.8-35.6-15.1s-29.4 11.9-25.8 26.6c0 0-25.8-3.2-28.9-8.3 0 0 4.1 13.3 12.9 14.7.1-.1-41.2-2.4-50.5-17z" fill="#d1d3d4"/></svg>