<svg enable-background="new 0 0 400.5 398.4" viewBox="0 0 400.5 398.4" xmlns="http://www.w3.org/2000/svg"><path d="m279.6 203.7c-7.3-7.7-15.6-11.4-20.8-13.2 5.6-3 15.2-9.3 21.5-21 12.2-22.6 1.6-46.1-.3-50.3-4-8.8-8.9-13.7-10-14.8-6.3-6.1-12.7-8.5-18.8-10.8-6.6-2.4-17.3-5.5-31.5-5.3-28.3 0-56.5 0-84.8 0-12.3 0-22.3 10-22.3 22.3v197.8h115c5.6.2 15.3-.3 26.1-4.8 9.4-3.9 15.6-9 18.1-11.2 17.4-15.5 20.2-36.8 20.8-41.2.8-6.1 3.6-30-13-47.5zm-122.8-75.7h58.2c1.1-.1 14.4-.8 21 8.5 3.8 5.4 3.6 11.5 3.5 15-.1 3.3-.2 9.1-4 14.3-6.6 9-19.1 8.6-20.5 8.5h-58.3v-46.3zm88.2 115c0 6.9 0 11.1-2.5 15.2-6.3 10.6-22.5 10.5-24.5 10.5h-61.3v-56.2h61.3c2-.1 14.7-.8 22 8 5 6 5 13.4 5 22.5z" fill="#01c0fe"/><path d="m377 292.2-24.8-16c7.4-14.4 23.6-50.9 18-98.2-8.3-70-58.1-108.9-66.8-115.5-58.7-44.4-123.7-33.9-134.3-32-59.3 10.6-93.7 49.1-103 60.3-7.9-5-15.8-10-23.8-15 9.3-11.3 55-65.6 135-74.8 10.7-1.2 97.1-9.6 164 56.5 6.6 6.5 64.1 65.3 58.9 153.2-2.2 37-14.6 65.4-23.2 81.5z" fill="#414043"/><path d="m334.2 307.7c-9.3 11.1-43.7 49.6-103 60.3-10.6 1.9-75.5 12.4-134.3-32-8.7-6.6-58.4-45.5-66.8-115.5-4.4-37.4 4.8-68 12.5-86.3l7.6 6.9-2.1-50-43 25.8 11.6 3.2c-7.2 16.4-14.7 39.5-16.4 67.6-5.1 87.9 52.4 146.7 58.9 153.2 66.8 66.2 153.3 57.8 164 56.5 80-9.2 125.7-63.5 134.8-74.8-7.9-4.9-15.8-9.9-23.8-14.9z" fill="#01bffd"/></svg>