<svg enable-background="new 0 0 594.2 593.8" viewBox="0 0 594.2 593.8" xmlns="http://www.w3.org/2000/svg"><g fill="#481d58"><path d="m315.4 317.5c-6.7-5.1-15.7-7.7-26.8-7.7h-55.9v64.1h54.9c5 0 9.8-.5 14.4-1.5s8.6-2.6 12.1-4.9 6.3-5.4 8.3-9.3c2.1-3.9 3.1-8.9 3.1-15.1.1-11.9-3.3-20.5-10.1-25.6z"/><path d="m297.1 0c-164.1 0-297.1 132.9-297.1 296.9s133 296.9 297.1 296.9 297.1-132.9 297.1-296.9-133-296.9-297.1-296.9zm72.9 376.7c-4.6 8.7-10.7 15.7-18.5 21.1-7.7 5.5-16.5 9.5-26.5 12.1-9.9 2.6-20.1 3.9-30.5 3.9h-113v-233.6h109.8c11.1 0 21.2 1 30.4 2.9 9.1 2 17 5.2 23.5 9.7s11.6 10.4 15.2 17.8 5.4 16.6 5.4 27.5c0 11.8-2.7 21.6-8 29.4-5.4 7.9-13.3 14.3-23.7 19.3 14.4 4.2 25.1 11.4 32.2 21.8s10.6 22.9 10.6 37.5c0 11.8-2.3 22-6.9 30.6zm75.5 37.1h-51.3v-50.4h51.3z"/><path d="m307.3 268.2c5.9-4.3 8.8-11.5 8.8-21.3 0-5.4-1-9.9-2.9-13.4-2-3.5-4.6-6.2-7.8-8.2-3.3-1.9-7-3.3-11.3-4.1-4.4-.8-8.8-1.2-13.3-1.1h-48v54.6h51.9c9.2.1 16.7-2.1 22.6-6.5z"/></g></svg>