<svg viewBox="0 0 420.45 340.34" xmlns="http://www.w3.org/2000/svg" xmlns:xlink="http://www.w3.org/1999/xlink"><linearGradient id="a" gradientUnits="userSpaceOnUse" x1="24.32" x2="440.74" y1="78.5" y2="29.03"><stop offset="0" stop-color="#003561"/><stop offset=".52" stop-color="#0e6b96"/><stop offset="1" stop-color="#2ca9c9"/></linearGradient><linearGradient id="b" gradientUnits="userSpaceOnUse" x1="217.2" x2="94.02" y1="251.51" y2="80.58"><stop offset="0" stop-color="#46daf8"/><stop offset="1" stop-color="#bdf1fc"/></linearGradient><linearGradient id="c" gradientUnits="userSpaceOnUse" x1="208.89" x2="325.73" y1="245.92" y2="73.58"><stop offset="0" stop-color="#0e6b96"/><stop offset="1" stop-color="#2ca9c9"/></linearGradient><path d="m419.34 0h-419.34l210.69 137.75z" fill="url(#a)"/><path d="m0 4.05 210.69 336.29-2.6-199.33z" fill="url(#b)"/><path d="m420.45 1.99-208.21 337.82 1.14-199.34z" fill="url(#c)"/><g fill="#fff"><g opacity=".68"><path d="m188.4 128.05v13.76h4.05v18.23h-10.13v12.15h26.17l-.63-31.32z"/><path d="m192.45 125.83 18.23 11.93 6.14-4.06h-8.16v-22.28h12.15a16.72 16.72 0 0 1 5.71 1 10.65 10.65 0 0 1 7 10.31l14.87-9.82a18.6 18.6 0 0 0 -1.74-3.73 16.52 16.52 0 0 0 -7.55-6.66 16.13 16.13 0 0 0 -6.42-1.19h-50.36v10.13h10.13z"/><path d="m249.07 141.41a14.81 14.81 0 0 0 -10-5.68s8.23-4.12 10-13.48a18.2 18.2 0 0 0 .16-5.75l-17.31 11.57a10.72 10.72 0 0 1 -.87 1.2v.06a12.55 12.55 0 0 1 -7.05 4.07l-9.51 6.36h8.44a17 17 0 0 1 5.71 1 10.7 10.7 0 0 1 4.52 16.89v.06a13 13 0 0 1 -10 4.38h-9.77l-.09 10.12h14a33 33 0 0 0 12.7-2.46 27.93 27.93 0 0 0 5.29-2.9 18 18 0 0 0 3.78-25.44z"/></g><path d="m215.75 83.06a53.61 53.61 0 0 1 43.69 22.51l10.15-6.7a65.82 65.82 0 0 0 -110.84 4.93l10.19 6.66a53.66 53.66 0 0 1 46.81-27.4z" opacity=".68"/><path d="m208.71 190a53.69 53.69 0 0 1 -41.61-76l-10.23-6.73a65.82 65.82 0 0 0 52 94.92z" opacity=".68"/><path d="m271.44 101.64-10.11 6.75a53.68 53.68 0 0 1 -45.58 82c-.89 0-1.78 0-2.66-.07l-.09 12.19c.91 0 1.82.07 2.73.07a65.82 65.82 0 0 0 55.69-100.94z" opacity=".68"/></g></svg>