<svg viewBox="0 0 320 320" xmlns="http://www.w3.org/2000/svg"><circle fill="#2d598a" cx="160" cy="160" r="160"/><path fill="white" d="M200.23 158.83L200.23 158.83Q211.03 162.61 217.15 170.62L217.15 170.62L217.15 170.62Q223.27 178.63 223.27 189.97L223.27 189.97L223.27 189.97Q223.27 206.53 209.95 215.53L209.95 215.53L209.95 215.53Q196.63 224.53 171.43 224.53L171.43 224.53L103.39 224.53L103.39 98.53L167.83 98.53L167.83 98.53Q191.95 98.53 204.55 107.44L204.55 107.44L204.55 107.44Q217.15 116.35 217.15 131.47L217.15 131.47L217.15 131.47Q217.15 140.47 212.74 147.58L212.74 147.58L212.74 147.58Q208.33 154.69 200.23 158.83L200.23 158.83ZM163.15 124.27L138.67 124.27L138.67 148.57L163.15 148.57L163.15 148.57Q181.15 148.57 181.15 136.33L181.15 136.33L181.15 136.33Q181.15 124.27 163.15 124.27L163.15 124.27ZM168.55 198.79L168.55 198.79Q187.27 198.79 187.27 186.01L187.27 186.01L187.27 186.01Q187.27 173.23 168.55 173.23L168.55 173.23L138.67 173.23L138.67 198.79L168.55 198.79Z"/></svg>