<svg xmlns="http://www.w3.org/2000/svg" width="2000" height="2000" viewBox="0 0 2000 2000"><defs><linearGradient id="0" x1="292.89" y1="292.89" x2="1707.11" y2="1707.11" gradientUnits="userSpaceOnUse"><stop stop-color="#30b5ec"/><stop offset="1" stop-color="#1e58bb"/></linearGradient></defs><circle cx="1000" cy="1000" r="1000" fill="url(#0)"/><path d="M1453.81 964.29a297.37 297.37 0 0 0 -32.38 -16.67H1420l7.62-7.14c14.29-11.43 28.57-23.81 40.48-38.1 56.19-64.76 72.38-137.14 48.57-215.71-19-64.76-62.86-112.86-131.43-147.62-52.38-26.19-111.43-38.1-182.38-38.1h-579l1.9 569h-261v223.81h381l-119 72.38v133.33h588.57c38.1 0 78.57-4.76 119-11 136.19-23.81 242.86-153.33 242.86-295.24 0-103.33-41.43-181-123.81-229.52M1250 874.76c-11.9 8.1-27.14 12.38-42.86 16.19-11.43 3.33-23.81 3.33-34.76 3.33h-319V699H1200c41.43 1 76.19 28.57 88.57 69.52 11.43 39-4.76 82.86-38.1 106.67M940.48 1303.33H853.33V1074.76H1208.1c51 0 87.14 16.67 112.86 52.38 21 28.57 26.19 66.67 14.29 101.43-12.38 33.33-38.1 58.1-71.43 66.67-20.48 4.76-40 8.1-57.14 8.57H940" fill="#fff"/></svg>