<svg enable-background="new 0 0 110 110" viewBox="0 0 110 110" xmlns="http://www.w3.org/2000/svg"><path d="m86 81.7c10.7-13.4 12.6-31.6 4.9-46.1-10.2-19.3-31.7-21.7-33.4-21.8 0-4.6 0-9.2 0-13.8 1.6.1 32.2 2.3 46.3 28.9 10.6 19.9 7.4 45.1-8.1 62.9-3.2-3.4-6.5-6.7-9.7-10.1z" fill="#4f438e"/><path d="m23.3 82.2c-10.4-12.4-12.9-29.7-6.3-44.2 6.3-13.7 19.6-23 34.8-24.2 0-4.6 0-9.2 0-13.8-20.5 1.6-38.4 14.1-46.8 32.5-8.9 19.5-5.7 42.7 8.3 59.3 3.3-3.2 6.7-6.4 10-9.6z" fill="#4f438e"/><path d="m91.3 95.5c-3 2.7-16.4 14.5-37.2 14.5-20.4-.1-33.6-11.6-36.6-14.3 3.2-3.2 6.4-6.5 9.5-9.7 2.5 2.2 12.2 10.2 27.1 10.4 15.4.1 25.6-8.4 28-10.4 3 3.1 6.1 6.3 9.2 9.5z" fill="#eabe03"/><g fill="#4f438e"><path d="m54.5 22.6c-18.1 0-32.8 14.7-32.8 32.8s14.7 32.8 32.8 32.8 32.8-14.7 32.8-32.8-14.7-32.8-32.8-32.8zm15 40c-.6 4.7-5.5 8.8-11.9 8.7h-.4v4.2h-3.2v-4.2h-2.2-1.6v4.2h-3v-4.2h-3.3-4v-3.2h4v-25.7h-4v-3.2h4 3.3v-3.7h3v3.7h1.1 2.7v-3.7h3.2v3.7h.4c4.6.3 8.4 3.1 9.7 7.1 1.3 4.1-.8 7.7-1.1 8.3.3.3 3.8 3.7 3.3 8z"/><path d="m58.5 58.4h-8.4v7.8h8.4c2.1-.1 3.8-1.8 3.8-3.9 0-2-1.7-3.8-3.8-3.9z"/><path d="m58.6 51.9c1.2-.7 1.9-2.1 1.8-3.4-.1-1.6-1.4-3-3.1-3.3h-7.2v7.2h6.5c.6 0 1.4-.1 2-.5z"/></g></svg>