<svg enable-background="new 0 0 2000 2000" viewBox="0 0 2000 2000" xmlns="http://www.w3.org/2000/svg"><path d="m1970 1242c-133.5 535.7-676.2 861.7-1212 728s-861.7-676.1-728-1211.8 676.1-861.9 1211.8-728.2 861.9 676.2 728.2 1212z"/><path d="m1441 857.5c19.9-133.1-81.4-204.6-220-252.3l45-180.3-109.8-27.3-43.8 175.5c-28.8-7.2-58.4-14-87.9-20.7l44-176.7-109.7-27.3-44.8 180.2-221.3-54.8-29.2 117.2s81.4 18.7 79.7 19.8c44.4 11.1 52.5 40.5 51.1 63.8l-123.1 493.8c-5.4 13.5-19.2 33.7-50.3 26 1.1 1.6-79.8-20-79.8-20l-54.5 125.8 221 55.8-45.4 182.3 109.6 27.3 45-180.4c30 8.1 59 15.6 87.4 22.7l-44.8 179.6 109.7 27.3 45.4-182c187.1 35.4 327.8 21.1 387-148 47.7-136.3-2.3-214.8-100.8-266.1 71.8-16.5 125.8-63.7 140.3-161.2m-250.8 351.6c-34 136.3-263.3 62.6-337.8 44.1l60.3-241.5c74.4 18.6 312.9 55.3 277.5 197.4m34-353.5c-30.9 124-221.9 61-283.9 45.5l54.6-219.1c62 15.5 261.5 44.3 229.3 173.6" fill="#fff"/><path d="m771.8 1565.7 296.7-1189.9 87.7 21.8-296.8 1190z"/></svg>