<svg xmlns="http://www.w3.org/2000/svg" viewBox="0 0 318.92 516.37"><path d="m0 212.77v130h104.15a46.3 46.3 0 0 1 6.13 -19.75" fill="#b9bec1"/><path d="M0,0V177.83L127.87,305.7a46.2,46.2,0,0,1,21-5.89V133Z" fill="#de575b"/><g fill="#b9bec1"><path d="M37.34,459.72,110.39,390a58.86,58.86,0,0,1-9.3-23.91H.26A158.85,158.85,0,0,0,37.34,459.72Z"/><path d="M171.21,198V299.12a58.78,58.78,0,0,1,20.87,8.58l71.56-71.56A158.91,158.91,0,0,0,171.21,198Z"/><path d="M149,415.36a59,59,0,0,1-22.29-9L53.44,476.3A159,159,0,0,0,149,516.37Z"/><path d="M208.51 323.85a59 59 0 0 1 8.55 19.21H318.55A158.88 158.88 0 0 0 280 252.39"/><path d="M193.84,405.38a59,59,0,0,1-19.91,9.17V516.08a158.79,158.79,0,0,0,89.5-37.77Z"/><path d="M218.08 366.11A58.61 58.61 0 0 1 210.69 387L281 460.68a158.9 158.9 0 0 0 37.9 -94.57"/></g></svg>