<svg enable-background="new 0 0 32 32" viewBox="0 0 32 32" xmlns="http://www.w3.org/2000/svg"><circle cx="16" cy="16" fill="#4700c2" r="16"/><g clip-rule="evenodd" fill="#fff" fill-rule="evenodd"><path d="m13.7 14.5c-.3.2-.7.4-1 .6v2c.3-.2.7-.3 1-.5zm-5.2 3.7c.2.4.7.5 1 .3l1-.5c0-.8 0-1.4 0-1.7v-.1c-.8.4-1.4.7-1.7.8-.3.4-.5.9-.3 1.2zm5.5-.2c0 .4.3.8.8.8.4 0 .8-.3.8-.8v-6.4c0-.4-.3-.8-.8-.8h-.1c-.4 0-.7.4-.7.8v3.2z"/><path d="m25 13.1c0-.4-.3-.6-.7-.7-.3-.1-.6-.1-.9-.1-.7 0-1.5.1-2.2.3-1 .2-2.1.5-3.1.8-.3.1-.6.2-.9.3h.1c.6-.5 1.2-1 1.8-1.5 1.3-1.1 2.5-2.3 3.6-3.6.3-.3.6-.7.7-1.1.2-.6 0-1-.7-1.2-.4-.2-.6-.3-.9-.3-.6 0-1.2.1-1.8.2s-1.5.4-2.1.5c-1 .3-2.2.8-3.3 1.3-.6.2-1.1.5-1.7.7l-2.1.8c-2.8 1.3-3.6.4-3.6.4-.5 1.1-.1 3 3 1.6.5-.2 1-.4 1.5-.6.9-.4 1.9-.8 2.8-1.2.6-.3 1.3-.5 2-.8l.5-.1c.6-.2 1.2-.4 1.8-.6.7-.1 1.3-.2 1.7-.2h.1c.2 0 .2.1.2.2 0 .2-.3.8-2.9 2.9-.2.2-.4.3-.6.5-.3.2-.6.5-.9.7l-.2.2-.1.1-.2.2v2.7c.9-.3 5.3-1.8 5.8-1.4 0 .1.6.4-4.5 3.9-.2.2-.4.3-.6.5l-.7.6c-.9.7-1.9 1.3-2.8 2l-.4.3v2.1l9.8-7.2c.6-.5 1.2-1 1.7-1.6.3-.3.6-.7.7-1.1 0-.1.1-.3.1-.5zm-16 11.1c-.3.3-.2.8.1 1.1s.7.3 1 .1l.4-.3c0-.6 0-1.3 0-2.1l-1.3 1c-.1.1-.1.1-.2.2z"/><path d="m12.4 12.9c-.1-.4-.5-.6-.9-.6s-.7.4-.7.8v3.2c0 .6 0 3.9-.1 6.5v2.1 1.6c0 .4.3.8.8.8.4 0 .8-.3.8-.8 0-.5 0-1.5 0-2.7 0-.6 0-1.3 0-2.1 0-3.3.1-7.3.1-8.6 0 0 0-.1 0-.2z"/></g></svg>