<svg xmlns="http://www.w3.org/2000/svg" viewBox="0 0 2000.13 1770.13" width="2000" height="2000"><g transform="translate(0-115.87)"><path d="m1107.84 1331c508-154.06 326.67-671.94 0-691.61 83 0 150.77-233.81 150.77-523.35 797.56 55.72 1172.3 1348.26-24 1752.52 7.65-104.89-36.05-397.7-126.74-537.56" stroke="#000" stroke-miterlimit="10" stroke-width=".25"/><path d="M0,1178c595.44,0,1077.25-474.19,1077.25-1060.91H521.15C522.24,404.44,289.53,639.35,1.09,640.44H0V1178Zm728.73-97.24C578,1214.06,493.83,1282.89,80.85,1348.44c243.64,0,440.3,240.37,440.3,537.56h556.11c0-89.59-18.57-538.65-348.52-805.24h0Z" fill="#f60"/></g></svg>