<svg enable-background="new 0 0 529 610" viewBox="0 0 529 610" xmlns="http://www.w3.org/2000/svg" xmlns:xlink="http://www.w3.org/1999/xlink"><linearGradient id="a" gradientUnits="userSpaceOnUse" x1="100.6307" x2="427.1727" y1="140.3673" y2="466.9093"><stop offset="0"/><stop offset="1" stop-color="#414141"/></linearGradient><linearGradient id="b" gradientUnits="userSpaceOnUse" x1="90.5271" x2="411.8175" y1="521.5664" y2="119.6309"><stop offset="0" stop-color="#414141"/><stop offset=".9749" stop-color="#2a2a2a"/></linearGradient><linearGradient id="c"><stop offset="0" stop-color="#7bbedc"/><stop offset="1" stop-color="#c1f9ef"/></linearGradient><linearGradient id="d" gradientUnits="userSpaceOnUse" x1="-2.2291" x2="89.6858" xlink:href="#c" y1="367.8561" y2="511.8561"/><linearGradient id="e" gradientUnits="userSpaceOnUse" x1="264.7297" x2="527.6882" y1="379.5479" y2="379.5479"><stop offset="0" stop-color="#1a1a1a"/><stop offset="1" stop-color="#252525"/></linearGradient><linearGradient id="f"><stop offset="0" stop-color="#7bbedc"/><stop offset="1" stop-color="#b1efec"/></linearGradient><linearGradient id="g" gradientUnits="userSpaceOnUse" x1="519.9066" x2="441.0129" xlink:href="#f" y1="243.4205" y2="97.1227"/><linearGradient id="h" gradientUnits="userSpaceOnUse" x1="366.4114" x2="378.9221" xlink:href="#f" y1="272.4986" y2="435.1369"/><linearGradient id="i" gradientUnits="userSpaceOnUse" x1="236.5665" x2="288.8218" xlink:href="#c" y1="112.6464" y2="249.8378"/><linearGradient id="j" gradientUnits="userSpaceOnUse" x1="193.7856" x2="124.8494" xlink:href="#c" y1="308.0148" y2="417.802"/><path d="m59.5 185.1 204.9 118.5v237l-206-119z" fill="#2f2f2f"/><path d="m264.4 540.6v-237l205.5-117.3v233.7z" fill="#1a1a1a"/><path d="m264.4 303.6 205.5-117.3-205.5-119.7-204.9 118.5z" fill="#424242"/><path d="m61.4 183.4 200-115.9c1.9-1.1 4.3-1.1 6.2 0l199.8 115.9c1.9 1.1 3.1 3.1 3.1 5.3v228.8c0 2.2-1.2 4.2-3.1 5.3l-199.9 117c-1.9 1.1-4.3 1.1-6.2 0l-199.8-114.9c-1.9-1.1-3.1-3.1-3.1-5.4v-230.8c0-2.2 1.1-4.2 3-5.3z" fill="none" stroke="url(#a)" stroke-width="5"/><path d="m264.7 0-262.9 151.8v303.6l263 151.8 263-151.8v-303.6zm231.9 437.5-231.9 133.9-231.8-133.9v-267.7l231.8-133.9 231.9 133.9z" fill="url(#b)"/><path d="m13.1 437.4-.1 9.1 88.5 52.2c-.1.5-.2 1.1-.2 1.7 0 4.1 3.3 7.4 7.4 7.4s7.4-3.3 7.4-7.4-3.3-7.4-7.4-7.4c-1.9 0-3.6.7-4.9 1.9l-85.2-50.4v-82c2.7-1.1 4.6-3.8 4.6-6.8 0-4.1-3.3-7.4-7.4-7.4s-7.4 3.3-7.4 7.4c0 3.5 2.4 6.4 5.7 7.2z" fill="url(#d)" stroke="#1a1a1a" stroke-width="3"/><path d="m264.7 571.4v35.9l263-151.8v-303.7l-31.1 18v267.7z" fill="url(#e)"/><g stroke="#1d1d1d" stroke-width="3"><path d="m511.7 244.4 1.1-83.7-88.5-52.2c.1-.5.2-1.1.2-1.7 0-4.1-3.3-7.4-7.4-7.4s-7.4 3.3-7.4 7.4 3.3 7.4 7.4 7.4c1.9 0 3.6-.7 4.9-1.9l85.2 50.4v82c-2.7 1.1-4.6 3.8-4.6 6.8 0 4.1 3.3 7.4 7.4 7.4s7.4-3.3 7.4-7.4c0-3.4-2.4-6.4-5.7-7.1z" fill="url(#g)"/><path d="m433.4 251.9-16.9 8.9c-1.6.8-2.9 2.1-3.7 3.7l-33.7 66.8c-.5 1-1.9 1-2.4 0l-17.9-33c-1.2-2.1-3.8-2.9-5.9-1.7l-16.3 9.3c-2.5 1.4-3.3 4.5-2 7l26.8 48.4c.9 1.6.9 3.5.1 5.1l-51.8 102.7c-1.3 2.6 1.5 5.3 4 3.9l14.2-7.6c2.7-1.5 5-3.7 6.4-6.5l37.6-74.4c.5-.9 1.8-.9 2.2 0l20.6 37.3c1.4 2.6 4.7 3.5 7.3 2.1l14.7-9.1c2.2-1.4 3-4.2 1.7-6.5l-28.8-53.1c-.9-1.7-1-3.8-.1-5.6l47.5-94.1c1.2-2.3-1.3-4.8-3.6-3.6z" fill="url(#h)"/><path d="m373.1 217.2-16-10.4c2.8-2.5 9.9-9.5 9.7-18.8-.2-14.1-16.6-22.4-23.2-25.8-19.8-10.1-40.1-5.6-48-3.4.2-2.7.2-7.2-2-11.9-3-6.3-8.2-9.3-13.1-12.1-2.2-1.2-12.4-6.7-27.7-7.5-11.2-.6-20.7 1.5-27.6 3.7l-21.7-12.9c-.9-.5-2-.5-2.9 0l-16.6 10.3c-1.4.8-1.4 2.8 0 3.7l17.3 10.4-11.4 6.5-17.9-11.8c-1-.7-2.4-.7-3.4 0l-15.6 10.2c-1.2.8-1.2 2.6 0 3.4l15.9 10.2-12.5 7.2c-1.1.6-1.1 2.2 0 2.8l129.2 77c1.3.8 3 .8 4.4 0l14.1-8.7 15.9 9.9c1.4.9 3.2.9 4.6-.1l15.7-10.4c1.1-.7 1-2.3 0-2.9l-15-9.5 10.7-6.6 17.2 10.6c1.5.9 3.4.9 4.9 0l14.9-9.4c1.4-.9 1.4-2.9.1-3.7zm-177.9-47.3 32-19c6-3.6 13.1-5.2 20.1-4.4.4.1.8.1 1.3.2 6.7 1.1 19.5 5.2 20 12.6.1.9 0 2.8-1.5 5.2-1.1 1.7-2.7 3.2-4.4 4.2l-33.7 20.7zm138.3 26.5c-1.6 2.8-4.1 5.1-6.9 6.8l-38.1 21.6-40.5-23.6 34.7-20.5c6.8-4 14.5-6.2 22.3-6.2h1.4c10.4.4 27.3 5 28.7 14.5.3 1.2.5 3.8-1.6 7.4z" fill="url(#i)"/><path d="m214.5 306.3-81.5-47.5c-1.9-1.1-4.3.1-4.6 2.3l-2 15.2c-.2 1.4.5 2.7 1.7 3.4l59.2 34.2c1.1.7 1.3 2.3.3 3.1l-82 67.3c-.5.4-.8.9-.8 1.5l-2.7 17.9c-.1 1.3.5 2.5 1.6 3.1l87.5 51.6c1.8 1.1 4.1.1 4.6-2l3.3-14.3c.5-2-.4-4.1-2.2-5.1l-67.4-38.2c-.5-.3-.6-1-.1-1.3l82.9-67.9c.6-.5 1-1.2 1.2-2l3.2-17.1c.1-1.6-.7-3.4-2.2-4.2z" fill="url(#j)"/></g></svg>