<svg enable-background="new 0 0 64.6 55.3" viewBox="0 0 64.6 55.3" xmlns="http://www.w3.org/2000/svg"><path d="m54.7 5.3-10.1-5.3h-24.9l-9.6 5.4-10.1 13.3 32.3 36.7 32.3-36.7zm6.6 12.8-12.6 6.4-4.1-12.5 9.3-4.5zm-40.8-16.1h23.3l7.9 4.1-8 3.8h-23.3l-7-3.7zm-9.7 5.5 8.2 4.5-2.9 12.5-13.3-6.7zm-5.4 14.1 10.3 5.3 12.6 21.7zm26.8 29.7-14.3-24.8 3.5-14.5h21.3l3.8 14.1zm3.6-2.8 12.8-21.5 10.7-5.4z"/><path d="m41.4 28.8c-.7-1.9-2.3-2.9-2.9-3.2.3-.1 1.4-.6 1.8-1.7.2-.6.2-1.1.1-1.7 0 0-.1-.9-.4-1.7-.6-1.3-2.6-2.5-5.4-2.8v-3.2h-2.5v3.2h-1.9v-3.2h-2.6v3.2h-4.1v2.1c.2 0 1.5.2 2.2 1.4.4.6.4 1.1.5 1.4.1 2.7.1 5.3.2 8 0 1-.4 1.9-1.2 2.4-1 .6-2 .3-2.2.3v2.3h4.5v3.4h2.7v-3h1.9l.1 3h2.5v-3.3h2.4c.6 0 1.6-.1 2.6-.7 1.9-1.3 2.5-4.1 1.7-6.2zm-11-7.9h3.2c1.2 0 2.2.9 2.2 2.1s-.9 2.2-2.1 2.2c-1.1 0-2.2 0-3.3 0zm4 11.8h-3.8v-4.7h3.8c1.2.1 2.2 1.1 2.3 2.2.1 1.3-.9 2.4-2.3 2.5z" fill="#fcc339"/></svg>