<svg enable-background="new 0 0 32 32" viewBox="0 0 32 32" xmlns="http://www.w3.org/2000/svg"><circle clip-rule="evenodd" cx="16" cy="16" fill="#f7931a" fill-rule="evenodd" r="16"/><path d="m26 19.8-.5 2.2-1.5-.4.5-2.2-2.2-.5.4-1.5 2.2.5.5-2.2 1.5.4-.5 2.2 2.2.5-.4 1.5zm-5.4-6c-.2 1.4-.9 2-1.9 2.2 1.3.7 2 1.8 1.3 3.7-.8 2.3-2.7 2.6-5.3 2.1l-.6 2.5-1.5-.4.6-2.5c-.4-.1-.8-.2-1.2-.3l-.6 2.5-1.4-.4.6-2.5c-.3-.1-.7-.2-1.1-.3l-1.9-.4.7-1.7s1.1.3 1.1.3c.4.1.6-.2.7-.4l1-4h.2c-.1 0-.1 0-.2-.1l.7-2.8c0-.3-.1-.7-.7-.9 0 0-1.1-.3-1.1-.3l.4-1.6 2.1.5c.3.1.6.1.9.2l.6-2.5 1.5.4-.5 2.5c.4.1.8.2 1.2.3l.6-2.4 1.5.4-.6 2.5c1.8.5 3.2 1.5 2.9 3.4zm-3.4 4.8c.5-2-2.7-2.5-3.8-2.7l-.8 3.3c1 .3 4.1 1.3 4.6-.6zm.5-4.9c.4-1.8-2.3-2.2-3.1-2.4l-.8 3c.9.3 3.4 1.2 3.9-.6z" fill="#fff"/></svg>