<svg enable-background="new 0 0 32 32" viewBox="0 0 32 32" xmlns="http://www.w3.org/2000/svg"><circle cx="16" cy="16" fill="#0af" r="16"/><g fill="#fff"><path d="m16 4.9c-6.1 0-11 4.9-11 11s4.9 11 11 11c6 .1 11-4.9 11-10.9 0-6.1-5-11.1-11-11.1zm0 1.8c3 0 5.5 2.5 5.5 5.5 0 .6-.1 1.3-.3 1.9-1-.2-1.9.1-2.7.6.7-.7 1.1-1.6 1.1-2.5 0-1.9-1.6-3.5-3.5-3.5-1.8 0-3.3 1.4-3.5 3.1-.7-.1-1.3-.1-2 0 .1-2.9 2.5-5.1 5.4-5.1zm2 10.3-1.9-1.2c-.1-.1-.3-.1-.4 0l-1.7 1c-.1.1-.2.2-.2.4.2 1.3-.7 2.5-2 2.6-.1 0-.2 0-.2 0-1.3 0-2.4-1-2.4-2.2v-.1c0-1.3 1-2.3 2.3-2.3.7 0 1.3.3 1.8.8.1.1.3.2.5.1l1.6-.9c.1-.1.2-.2.2-.4v-.1c0-.2-.1-.3-.3-.4-1.2-.4-1.9-1.7-1.5-2.9.3-1 1.3-1.6 2.3-1.6 1.2.1 2.1 1 2.2 2.2.1 1.1-.6 2.1-1.7 2.4-.2 0-.3.2-.3.4 0 .1.1.3.2.3l1.7 1.1c.2.1.4.1.5-.1.5-.6 1.1-.9 1.9-.9 1.3 0 2.3 1.1 2.2 2.4 0 1.3-1.1 2.3-2.4 2.2s-2.3-1.2-2.2-2.5v-.1s-.1-.1-.2-.2zm-6.5 6c-3 0-5.4-2.4-5.4-5.4 0-3 2.4-5.4 5.4-5.4.3 0 .7 0 1 .1 0 .9.4 1.8 1.1 2.4-.6-.5-1.4-.7-2.1-.7-2 0-3.6 1.7-3.5 3.6 0 1.9 1.6 3.5 3.5 3.5 1.5 0 2.8-.9 3.3-2.3.2.7.5 1.4.9 2-1 1.5-2.6 2.2-4.2 2.2zm9 0c-2.9 0-5.2-2.2-5.4-5.1.6.1 1.2.1 1.8 0 .2 2 2 3.4 3.9 3.2 2-.2 3.4-2 3.2-3.9-.1-1.5-1.2-2.7-2.6-3.1.2-.6.3-1.2.3-1.8 2.9.7 4.7 3.7 3.9 6.6-.4 2.4-2.6 4.1-5.1 4.1z"/><path d="m16 3c-7.2 0-13 5.8-13 13s5.8 13 13 13 13-5.8 13-13-5.8-13-13-13zm0 25c-6.7 0-12.1-5.4-12.1-12s5.4-12.1 12.1-12.1c6.6 0 12 5.4 12 12.1 0 6.6-5.4 12-12 12z"/></g></svg>