<svg enable-background="new 0 0 224.5 206.2" viewBox="0 0 224.5 206.2" xmlns="http://www.w3.org/2000/svg"><g fill="#1878e2"><path d="m185.5 25.2 32 54c9.2 15.5 9.3 34.8.3 50.5l-29.7 51.5c-9 15.6-25.8 25.2-43.9 25l-62.8-.7c-17.4-.2-33.5-9.5-42.4-24.5l-32-54c-9.2-15.5-9.3-34.8-.3-50.5l29.7-51.5c9-15.6 25.8-25.2 43.8-25l62.8.7c17.5.2 33.6 9.5 42.5 24.5zm-67.2 146.5c13.6-6.8 14.7-7.4 18-10.9 2.2-2.4 4.1-5 5.3-7.4 3.4-7.2 2.6-16.6-1.8-23.3-3.6-5.5-5.9-6.9-26.9-17-10.8-5.2-19.8-9.6-19.9-9.8s8.4-4.4 18.9-9.5c10.5-5 20.4-10 21.9-11.1 9.1-6.6 12.4-19.4 7.7-29.5-3.8-8.1-6.8-10.4-25.2-19.4-11.5-5.6-13.4-6.3-15.9-6.3-5.1 0-9.7 2.9-12.3 7.8-1.1 2.1-1.2 3.1-1.3 18.7l-.2 16.4 5-2.6 5.1-2.5v-13.1c0-14.4.1-14.9 3.4-14.9 2 0 25.8 11.7 28.6 14 5.1 4.3 6.7 12.4 3.6 18.7-.8 1.7-2.4 3.9-3.4 4.7-1 .9-9.7 5.3-19.3 9.9-18.2 8.7-19.8 9.8-21.6 14.1-1.8 4.5 0 11.5 3.8 14.4 1.1.7 9.6 5.1 18.9 9.6 9.4 4.5 17.8 8.9 18.7 9.7 2.9 2.7 4.5 6.6 4.5 11 .1 4.6-1.2 7.9-4.3 11.1-2.5 2.5-26.8 15-29.3 15-.8 0-2-.4-2.5-1-.9-.8-1-2-1-14.1v-13.3l-4.8-2.4c-2.6-1.3-4.9-2.4-5.1-2.4s-.2 7.4-.1 16.4c.2 15.6.2 16.5 1.4 18.7 1.4 2.6 4.6 5.6 7.1 6.7 1 .4 3.3.7 5.2.8 3.3.1 3.9-.2 17.8-7.2zm-52.8-41.5c.7-.3 2.2-2.2 3.4-4.1l2-3.5-.8-5.5c-1.1-6.8-1.2-21.6-.1-28.1l.8-4.7-1.6-2.9c-1.9-3.7-3.5-5.4-4.9-5.4-1.3 0-35.1 19.2-37.2 21.2-1.8 1.8-2.9 4.9-2.4 7.5.8 4.2 1.7 4.9 19.2 14.9 15.1 8.7 19.8 11.3 20.1 11.3.1-.1.8-.4 1.5-.7zm113.2-9.3c9.5-5.4 18.1-10.6 19.1-11.5 3.4-3.2 3.5-9 .3-12.2-1.8-1.8-36-21.3-37.3-21.3s-3.4 2.2-5 5.5l-1.5 2.9.9 6.3c1 7.1.8 20.7-.3 27.9l-.7 4.2 2.1 3.5c1.7 3 3.2 4.4 4.8 4.5.2.1 8.1-4.3 17.6-9.8z"/><path d="m46.7 112.4c-8.6-4.8-15.6-9-15.6-9.1 0-.6 30.8-18 31.2-17.7.2.2 0 2.4-.3 4.9-.8 5.8-.8 18.4 0 24.8.3 2.7.5 5.2.4 5.4s-7.2-3.4-15.7-8.3zm115.7 7.3c1.8-8.7 1.8-25.3.1-33.1-.2-1-.1-1.3.5-1.1.4.1 7.7 4.1 16 8.8 11.3 6.5 15 8.8 14.4 9.3-.8.8-30.4 17.6-30.9 17.6-.2.1-.2-.6-.1-1.5z"/></g></svg>