<svg xmlns="http://www.w3.org/2000/svg" viewBox="0 0 1184 1184"><path d="M1166.26,735.27c-79,317.12-400.31,510.12-717.52,431S-61.39,766,17.75,448.84,418-61.41,735.17,17.74,1245.41,418,1166.26,735.27Z" fill="#ff18a2"/><path d="M1097.36,718.08C1027.82,997.15,745.08,1167,465.93,1097.36S17,745.11,86.65,466,438.9,17,718,86.64s449,352.27,379.37,631.44Z" fill="none" stroke="#fff" stroke-width="50.24" stroke-miterlimit="10"/><g fill="#fff"><path d="M853.09,507.65c11.77-78.78-48.22-121.13-130.25-149.38l26.64-106.71-65-16.19-26,103.91C641.49,335,624,331,606.52,327l26.05-104.59-64.91-16.19L541.09,312.93l-131-32.46-17.29,69.39S441,360.91,440,361.6c26.3,6.57,31.08,24,30.27,37.78l-72.9,292.34c-3.22,8-11.38,20-29.77,15.39.66.95-47.21-11.84-47.21-11.84L288.1,769.74l130.84,33-26.89,108,64.88,16.18,26.64-106.79c17.76,4.81,34.93,9.25,51.76,13.43L508.79,939.84l65,16.19,26.89-107.75c110.78,21,194.09,12.51,229.11-87.62C858,680,828.38,633.47,770.09,603.11c42.44-9.83,74.41-37.73,82.94-95.41M704.61,715.8c-20.13,80.66-155.91,37.07-200,26.12l35.68-143c44,11,185.23,32.75,164.31,116.87m20.13-209.28c-18.32,73.41-131.37,36.11-168.07,27L589,403.74C625.7,412.9,743.81,430,724.71,506.51"/><text transform="matrix(.27916-.96024.96024.27916 288.72 688.74)" font-family="Arial-BoldMT, Arial" font-weight="700" font-size="116.99">CORE</text></g></svg>