<svg enable-background="new 0 0 32 32" viewBox="0 0 32 32" xmlns="http://www.w3.org/2000/svg"><circle clip-rule="evenodd" cx="16" cy="16" fill="#272d63" fill-rule="evenodd" r="16"/><path d="m20.2 7.2-.7 2.8c2.2.8 3.8 1.9 3.4 4-.1.6-.3 1.3-.8 1.8-.4.4-1 .6-1.5.8-.6.2-1.3.3-1.9.3-.4 0-.9 0-1.3-.1-.7-.1-1.4-.1-2.1-.3-.2-.1-.4-.1-.6-.1l-.9 3.8-.6 2.1-.7 2.9-1.7-.4.7-2.9c-.4-.1-.8-.2-1.2-.3l-2.3-.6.9-2s1.3.3 1.3.3c.5.1.7-.2.8-.4l1-3.9.5-1.8.5-2.1c0-.4-.1-.8-.8-1 0 0-1.3-.3-1.3-.3l.3-1.8 2.4.6c.4.1.7.2 1.1.3l.7-2.9 1.7.4-.7 2.8c.5.1.9.2 1.4.3l.7-2.8zm-.1 10.3c.5-.1 1.1-.3 1.5-.4h.1c.9.8 1.3 2.1.7 3.7-.9 2.7-3.1 2.9-6.1 2.3l-.7 2.9-1.7-.4.7-2.8v-.1l.5-2.1c1.5.3 3.6.6 4-1 .2-.8-.2-1.5-.8-1.9h.7c.3-.1.6-.1 1.1-.2zm-.5-3.5c.5-2-2.6-2.5-3.6-2.8l-.9 3.5c1 .3 4 1.3 4.5-.7z" fill="#fefefe"/></svg>