<svg enable-background="new 0 0 32 32" viewBox="0 0 32 32" xmlns="http://www.w3.org/2000/svg"><circle cx="16" cy="16" fill="#f8c24a" r="16"/><path d="m16 27c-6.1 0-11-4.9-11-11s4.9-11 11-11 11 4.9 11 11c0 1-.1 2-.4 3-.1.5-.6.7-1.1.6s-.7-.6-.6-1.1c.2-.8.3-1.6.3-2.5 0-5.1-4.1-9.2-9.2-9.2s-9.2 4.1-9.2 9.2 4.1 9.2 9.2 9.2c1 0 1.9-.1 2.8-.4.5-.2 1 .1 1.1.5.2.5-.1 1-.5 1.1-1.1.4-2.3.6-3.4.6zm3.4-11c.4.3.6.8.8 1.4.1.3.1.7 0 1.1-.1.3-.3.6-.5.9-.3.3-.5.5-.9.6-.3.2-.4.2-.8.3l-.3.1c-.2 0-.3.2-.2.4l.1.7c0 .2-.1.3-.2.4l-.7.1c-.2 0-.3-.1-.4-.2l-.1-.7c0-.2-.2-.3-.4-.2l-1.8.2c-.4.1-.8-.2-.9-.5l-1.6-7.5c-.1-.4.2-.8.6-.9l1.8-.4c.2 0 .3-.2.2-.4l-.1-.6c0-.2.1-.3.2-.4l.7-.1c.2 0 .3.1.4.2l.1.7c0 .2.2.3.4.2l.6-.1c.3-.1.6-.1.9 0s.5.2.8.4c.5.4.8.9.9 1.4.1.4.1.9-.1 1.3-.1.4-.4.8-.8 1.1.4 0 .9.2 1.3.5zm-5.5-1.6.1.4c.1.4.5.6.9.6l1.3-.3c.2 0 .4-.2.5-.4s.2-.4.1-.8c-.1-.3-.2-.5-.4-.6s-.4-.2-.6-.1l-1.4.3c-.3.1-.5.5-.5.9zm4 3.7c.1-.2.2-.5.1-.7 0-.3-.2-.5-.4-.6-.2-.2-.4-.2-.7-.2l-1.6.4c-.4.1-.6.5-.6.9l.1.5c.1.4.5.6.9.6l1.6-.3c.2-.2.4-.3.6-.6zm3.3 5.4 1.5-1.8c.1-.1.1-.3 0-.4-.1 0-.1-.1-.2-.1h-1c-.2 0-.3-.1-.3-.3v-.2c0-.2.1-.3.3-.3h2.4c.2 0 .3.1.3.3v.3c0 .1 0 .1-.1.2l-1.6 1.8c-.1.1-.1.3 0 .4 0 0 .1.1.2.1h1.1c.2 0 .3.1.3.3v.2c0 .2-.1.3-.3.3h-2.5c-.2 0-.3-.1-.3-.3v-.3z" fill="#fff"/></svg>