<svg xmlns="http://www.w3.org/2000/svg" viewBox="0 0 376 376"><defs><clipPath id="0"><path d="M159.21,187.5h36.61q10.49,0,15.74,4.75a17.09,17.09,0,0,1,.19,24.42q-5.06,4.65-15.93,4.64H159.21Zm0-55.16h35q10.29,0,15,3.85T214,147.56q0,7.51-4.75,11.37t-15,3.86h-35ZM101.42,77.17H274.58V255.92L188,313.6l-86.58-57.68V187.5h31.07v53.19a5.11,5.11,0,0,0,1.58,3.76,5.16,5.16,0,0,0,3.76,1.58h62.93a44.12,44.12,0,0,0,18.51-3.65,40.19,40.19,0,0,0,13.36-9.6,41.5,41.5,0,0,0,8.11-13.34,42.3,42.3,0,0,0,2.77-14.93q0-11.67-5.14-19.28a43.05,43.05,0,0,0-11.28-11.76,21.11,21.11,0,0,0,3.65-3,35.21,35.21,0,0,0,4.56-5.44,31.17,31.17,0,0,0,3.86-7.91,32.85,32.85,0,0,0,1.58-10.57,40.64,40.64,0,0,0-2.27-12.76,36.45,36.45,0,0,0-7.42-12.65,39.76,39.76,0,0,0-13.66-9.69q-8.52-3.86-21.18-3.86H137.83a5.41,5.41,0,0,0-5.34,5.34v49.83H101.42ZM76.68,52.45v216.7L188,343.3l111.32-74.15V52.45Z"/></clipPath></defs><path d="m0 0h376v376h-376z"/><g clip-path="url(#0)"><path fill="#fff" d="m66.57 42.35h242.86v311.06h-242.86z"/></g></svg>