<svg xmlns="http://www.w3.org/2000/svg" width="2000" height="2000" viewBox="0 0 2000 2000"><g fill="#2e9ccb"><path d="M932.29,2.24c122.1-8.12,245.71,5.83,362.64,42,189.83,58.25,360.89,175,485,330C1882.51,501.65,1953.2,654.61,1983,815.52c28.84,154.92,21,316.7-23.8,467.87-59.2,202.09-184.89,383.66-352.31,511.26a997.65,997.65,0,0,1-300.61,157.54c-147.78,47.71-306.76,59.71-460.16,36-167.72-25.68-328.35-95.54-461.78-200.34C221.69,1661.12,99.7,1483,41.25,1285.11a1002.11,1002.11,0,0,1,88.35-777.58c88-155.38,218.28-286.45,373.2-375.23A993,993,0,0,1,932.29,2.24M378,330.92V1437q75.19,0,150.4,0,0-50.08,0-100.22a439.92,439.92,0,0,0,147.52,89.84c101.74,37.22,217.38,33.7,316.83-9.15,89.63-37.73,164.41-107.86,210.26-193.35,46.83-86.42,63-189.16,43.77-285.63-19.69-102-78.22-195.43-159.55-259.66-74.7-58.84-170.06-87.83-264.45-89.91a408.22,408.22,0,0,0-155.38,29.46c-51.23,20.38-97.88,51-139.78,86.6.64-78.09,1.52-156.23-.15-234.32-3.26-46.81-30-91.22-69.89-116-23.6-15.45-51.69-22.11-79.58-23.72m650.68,283.62c54.8,29.69,104.85,68.91,144.56,117.11,7.25,1.21,14.55,2.08,21.87,3,88.42,11.9,170.65,65.47,215.15,143.12,53.44,91,53.13,211.34-2.52,301.25-48.5,79.84-136.65,135.08-230.31,140.35-8-.18-16,2.75-21.1,9a446.92,446.92,0,0,1-134.2,100.07c-2.88,1.23-5.4,3.16-6.45,6.22,76.86,24.19,160.34,31.13,239.05,11.7,72.59-17.14,138.62-55.47,195.15-103.43.31,75.93-.69,151.89.67,227.79,1.23,42.64,22.08,84.26,55.5,110.81,26.35,21.93,60.35,32.62,94.23,34.6q-.08-553.09,0-1106.23h-151c0,33.11,0,66.24,0,99.35-67.71-58.58-151.19-101.35-240.93-111.15C1148,590.89,1086.83,598.4,1028.63,614.54Z"/><path d="M777.84,729.77a295,295,0,0,1,167.85,23.16c82.72,37.35,145.62,115.15,164.61,203.94,13.08,60,7.45,124.15-16.94,180.6-36.22,85.7-115.52,151.53-206.54,170.91a296.55,296.55,0,0,1-178.59-16.14c-74-30.79-134-93.31-161.78-168.49a297.14,297.14,0,0,1-5.63-189.16c23.31-77.63,80.69-144,153.69-179A291.94,291.94,0,0,1,777.84,729.77Z"/></g></svg>