<svg enable-background="new 0 0 73.8 79.9" viewBox="0 0 73.8 79.9" xmlns="http://www.w3.org/2000/svg" xmlns:xlink="http://www.w3.org/1999/xlink"><linearGradient id="a"><stop offset="0" stop-color="#ff5643"/><stop offset="1" stop-color="#ffa14a"/></linearGradient><linearGradient id="b" gradientTransform="matrix(1 0 0 -1 0 122.2)" gradientUnits="userSpaceOnUse" x1=".9273" x2="50.7772" xlink:href="#a" y1="67.3977" y2="117.2478"/><linearGradient id="c" gradientTransform="matrix(1 0 0 -1 0 122.2)" gradientUnits="userSpaceOnUse" x1="19.8761" x2="68.9761" xlink:href="#a" y1="45.748" y2="94.848"/><path d="m11.6 34c0-4.8 3.9-8.7 8.7-8.7s8.7 3.9 8.7 8.7c0 1.1-.2 2.2-.7 3.2l11 8.3c1.3-.9 3-1.4 4.8-1.4.7 0 1.3.1 2 .2l8.6-14.7c-3.2-2.8-5.3-7-5.3-11.6 0-4 1.5-7.6 4-10.4l-9.9-5.7c-4.4-2.5-9.8-2.5-14.2 0l-22.3 12.9c-4.4 2.5-7 7.2-7 12.3v26.8c1.1-.8 2.3-1.5 3.7-1.7.5-.1 1.1-.2 1.7-.2.4 0 1 0 1.4.1l7.1-12.1c-1.4-1.6-2.3-3.7-2.3-6z" fill="url(#b)"/><path d="m64.8 33.5c-1.9 0-3.8-.4-5.5-1l-8.5 14.8c1.3 1.6 2.1 3.4 2.1 5.7 0 4.8-3.9 8.7-8.7 8.7s-8.7-3.9-8.7-8.7c0-1.1.2-2.1.6-3.1l-10.9-8.6c-1.3 1-3.1 1.6-4.9 1.6-.7 0-1.2-.1-1.8-.2l-7.1 12c.8.8 1.4 1.7 1.8 2.7.4 1.1.7 2.2.7 3.4 0 2.7-1.2 5.1-3.1 6.7l18.3 10.6c4.4 2.5 9.8 2.5 14.2 0l22.3-12.9c4.4-2.5 7.1-7.2 7.1-12.3v-21.7c-2.2 1.4-4.9 2.3-7.9 2.3z" fill="url(#c)"/><ellipse cx="64.8" cy="17.9" fill="#ffa14a" rx="9" ry="9"/></svg>