<svg enable-background="new 0 0 198 226.8" viewBox="0 0 198 226.8" xmlns="http://www.w3.org/2000/svg"><path d="m97.2 0-45.4 26.2 45.4 26.2zm-50.3 81.5v-52.5l-45.4 26.2zm0 58.3v-52.4l-45.4 26.2zm100.7 0v-52.4l-45.4 26.2zm-100.7 58.3v-52.4l-45.4 26.2zm-46.9-81.6v52.4l45.4-26.2zm0-58.3v52.4l45.4-26.2zm50.4-29.2v52.5l45.4-26.3zm46.8 197.8v-52.4l-45.4 26.2zm-46.8-81.5v52.4l45.4-26.2zm50.4-145.3v52.4l45.4-26.2zm50.3 29v52.5l45.3-26.3zm0 58.4v52.4l45.3-26.2zm0 110.7 45.3-26.2-45.3-26.2zm46.9-29.2v-52.4l-45.4 26.2zm-45.4-84.5 45.4 26.2v-52.4zm-5-2.9v-52.5l-45.4 26.2zm-46.8 145.3 45.4-26.2-45.4-26.2zm46.8-29.1v-52.4l-45.4 26.2z" fill="#3fa9f5"/></svg>