<svg enable-background="new 0 0 226.8 226.8" viewBox="0 0 226.8 226.8" xmlns="http://www.w3.org/2000/svg"><g fill="#1ca067"><path d="m125.2 102.6c0-2.9-2.3-5.2-5.2-5.2h-21.9v10.4h21.9c2.9 0 5.2-2.3 5.2-5.2z"/><path d="m113.4 0c-62.6 0-113.4 50.8-113.4 113.4s50.8 113.4 113.4 113.4 113.4-50.8 113.4-113.4-50.8-113.4-113.4-113.4zm55.1 58.3c5.7 5.7 8.7 13.5 9.2 22.8-2-1.5-4-2.9-6.2-4.2-4.5-2.7-9.3-5.1-14.5-7.1-2-5.2-4.4-10.1-7.1-14.5-1.3-2.1-2.7-4.2-4.2-6.1 9.4.4 17.3 3.6 22.8 9.1zm-4 45.6c2 3.3 3.9 6.8 5.6 10.3-1.7 3.5-3.5 7-5.6 10.3.5-6.8.5-13.7 0-20.6zm8.1 16.2c1.4 3.5 2.5 7 3.3 10.5.9 3.6 1.4 7.1 1.7 10.5-2.5 2.2-5.4 4.3-8.6 6.2-3.1 1.9-6.4 3.6-9.8 5.1 1.7-5.5 3.1-11.3 4-17.2 3.6-4.9 6.7-10 9.4-15.1zm-9.4-26.8c-.9-6-2.3-11.8-4-17.2 3.4 1.5 6.6 3.2 9.8 5.1s6.1 4 8.6 6.2c-.3 3.3-.8 6.8-1.7 10.5-.8 3.5-2 7-3.3 10.5-2.7-5.2-5.8-10.2-9.4-15.1zm-13.6-16c-2.4-2.4-5-4.8-7.6-7 3.9.9 7.6 2.1 11.2 3.4 1.3 3.7 2.4 7.4 3.4 11.2-2.2-2.6-4.6-5.2-7-7.6zm7 66.3c-.9 3.8-2 7.6-3.4 11.2-3.7 1.3-7.4 2.5-11.2 3.4 5.2-4.5 10.1-9.4 14.6-14.6zm-10.8-85.7c1.9 3.1 3.6 6.3 5.1 9.8-5.5-1.7-11.3-3.1-17.2-4-4.9-3.6-9.9-6.7-15-9.3 7.2-2.8 14.2-4.5 20.9-5 2.1 2.4 4.2 5.3 6.2 8.5zm-25.1 84.1c-.2 0-.5 0-.7.1h-27.2c-2.9 0-5.3-2.4-5.3-5.3v-44.6c0-2.9 2.4-5.3 5.3-5.3h27.2c8.7 0 15.8 7.1 15.8 15.8 0 3.9-1.4 7.4-3.7 10.2 3.2 3.2 5 7.6 5 12.1 0 9.1-7.3 16.6-16.4 17zm2.1 24.1c-3.3 2-6.7 3.8-10.2 5.5-3.5-1.6-6.9-3.5-10.2-5.5 6.8.5 13.7.5 20.4 0zm-20.3-103.7c3.3-2 6.7-3.8 10.2-5.5 3.5 1.6 6.9 3.5 10.2 5.5-3.4-.3-6.8-.4-10.2-.4-3.5 0-6.9.1-10.2.4zm10.2-27.2c8 0 15.7 3.3 22.6 9.6-7.4 1-15 3.2-22.6 6.6-7.6-3.4-15.2-5.6-22.6-6.6 6.8-6.3 14.6-9.6 22.6-9.6zm-6 19.1c-5.1 2.6-10.1 5.8-15 9.3-6 .9-11.8 2.3-17.2 4 1.5-3.5 3.2-6.7 5.1-9.8 1.9-3.2 4-6 6.2-8.6 6.6.6 13.7 2.3 20.9 5.1zm-31 96.8c2.4 2.4 5 4.8 7.6 7-3.8-.9-7.6-2-11.2-3.4-1.3-3.7-2.4-7.4-3.4-11.2 2.2 2.7 4.6 5.2 7 7.6zm-7-66.2c.9-3.8 2-7.6 3.4-11.2 3.7-1.3 7.4-2.4 11.2-3.4-5.2 4.5-10.1 9.4-14.6 14.6zm-11.9-26.6c5.6-5.6 13.4-8.7 22.8-9.1-1.5 2-2.9 4-4.2 6.1-2.7 4.5-5.1 9.3-7.1 14.5-5.2 2-10 4.4-14.5 7.1-2.1 1.3-4.2 2.7-6.2 4.2.4-9.3 3.5-17.1 9.2-22.8zm4 66.3c-2-3.3-3.9-6.8-5.6-10.3 1.7-3.5 3.5-7 5.6-10.3-.3 3.4-.4 6.9-.4 10.3s.2 6.8.4 10.3zm1.3 10.6c.9 6 2.3 11.8 4 17.2-3.4-1.5-6.6-3.2-9.8-5.1s-6.1-4-8.6-6.2c.3-3.3.8-6.8 1.7-10.5.9-3.6 2-7.1 3.3-10.5 2.7 5.1 5.8 10.2 9.4 15.1zm0-41.9c-3.6 4.9-6.7 9.9-9.3 15.1-1.4-3.5-2.5-7-3.3-10.5-.9-3.6-1.4-7.1-1.7-10.5 2.5-2.2 5.4-4.3 8.6-6.2 3.1-1.9 6.4-3.6 9.8-5.1-1.8 5.4-3.2 11.2-4.1 17.2zm-18.8 43.5c-6.3-6.9-9.6-14.6-9.6-22.6s3.4-15.7 9.6-22.6c.3 2.5.8 4.9 1.4 7.3 1.2 5.1 3 10.2 5.2 15.3-2.2 5.1-4 10.2-5.2 15.3-.6 2.4-1.1 4.9-1.4 7.3zm13.5 33.3c-5.7-5.7-8.7-13.5-9.2-22.8 2 1.5 4 2.9 6.2 4.2 4.5 2.7 9.3 5.1 14.5 7.1 2 5.2 4.4 10.1 7.1 14.5 1.3 2.1 2.7 4.2 4.2 6.1-9.4-.4-17.3-3.5-22.8-9.1zm22.7.5c-1.9-3.1-3.6-6.4-5.1-9.8 5.5 1.7 11.3 3.1 17.2 4 4.9 3.6 9.9 6.7 15 9.3-7.2 2.8-14.2 4.5-20.9 5-2.1-2.5-4.2-5.4-6.2-8.5zm33.2 22.7c-8 0-15.7-3.3-22.6-9.6 7.4-1 15-3.2 22.6-6.6 7.6 3.4 15.2 5.6 22.6 6.6-6.9 6.2-14.7 9.6-22.6 9.6zm5.9-19.2c5.1-2.6 10.1-5.8 15-9.3 6-.9 11.8-2.3 17.2-4-1.5 3.4-3.2 6.6-5.1 9.8s-4 6-6.2 8.6c-6.6-.5-13.7-2.3-20.9-5.1zm49.9-4c-5.6 5.6-13.4 8.7-22.8 9.1 1.5-2 2.9-4 4.2-6.1 2.7-4.5 5.1-9.3 7.1-14.5 5.2-2 10.1-4.4 14.5-7.1 2.1-1.3 4.2-2.7 6.2-4.2-.4 9.3-3.5 17.2-9.2 22.8zm13.5-33.3c-.3-2.5-.8-4.9-1.4-7.3-1.2-5.1-3-10.2-5.2-15.3 2.2-5.1 4-10.2 5.2-15.3.6-2.4 1.1-4.9 1.4-7.3 6.3 6.9 9.6 14.6 9.6 22.6s-3.3 15.8-9.6 22.6z"/><path d="m120 118.4h-21.9v13h21.3.6c3.6 0 6.5-2.9 6.5-6.5s-2.9-6.5-6.5-6.5z"/></g></svg>