<svg enable-background="new 0 0 392.7 389.1" viewBox="0 0 392.7 389.1" xmlns="http://www.w3.org/2000/svg"><ellipse cx="196.3" cy="194.6" fill="#f8921d" rx="196.3" ry="194.6"/><ellipse cx="196.3" cy="194.6" fill="#fff" rx="192.7" ry="190.9"/><path d="m196.3 39.3c-54.4 0-102.2 27.8-130 69.9l59-10c31.3-5 60 5.3 72.2 26.2 2.7 4.7 6.6 13.3 6.5 26.1-.1 6.9-1.2 18.3-7 30.8-9 19.3-24 29.3-30.3 33 5.5-.1 29.5 0 49.5 18.3 4.1 3.7 18.5 17.3 21.5 39.7 4 30.1-15.9 51.6-20.5 56.3-.5.5-.9.9-1.4 1.4-8.8 8.4-19.8 14.2-31.7 16.9 4 .3 8 .5 12.1.5 85.7 0 155.3-69.2 155.3-154.5s-69.4-154.6-155.2-154.6z" fill="#f8921d"/><path d="m237.8 273.3c-3-22.4-17.4-36-21.5-39.7-20-18.3-44-18.4-49.5-18.3 6.3-3.7 21.2-13.7 30.3-33 5.8-12.4 6.9-23.8 7-30.8.1-12.8-3.8-21.4-6.5-26.1-12.2-20.9-40.8-31.2-72.2-26.2l-59 10c-16 24.3-25.3 53.3-25.3 84.6 0 50.9 24.7 96 62.8 124.1-4.3-23.5-8.6-47.1-12.8-70.6l25.5-5c5.5-1.2 14-2.5 24.2-1.3 8.8 1 22.5 2.7 33.8 13.8 12.7 12.5 13.7 28.5 14 33.7.3 4.7.6 10.9-2.8 17.5-3 6-7.4 9.3-11.3 12-8.5 6.1-17.2 8.2-33 11.9-4.6 1.1-8.3 1.8-10.7 2.2l-2.6.5c17.1 8.3 36 13.6 55.9 15.1 11.8-2.7 22.8-8.4 31.7-16.9.5-.5.9-.9 1.4-1.4 4.7-4.5 24.6-25.9 20.6-56.1zm-95-72.9c-8.2 7.9-17.5 10.4-22 11.4l-35.4 7.6-15.1-81.9 40.5-7.6c1.4-.3 23.2-5.1 36.6 9.1 8 8.5 8.6 19.2 8.9 25 .3 5.3.4 23.2-13.5 36.4z" fill="#fff"/><path d="m290.8 99.2-3.5-15.9-29.6 7.1 3.1-28.1-22.4-1.7v28.5l-28.3-10-5.3 14.5 29 7.9-18.5 25.3 16 11.8 15-22.9 12.3 24.9 16.5-10.5-14.6-27z" fill="#fff"/><g fill="#f8921d"><path d="m142.8 200.4c-8.2 7.9-17.5 10.4-22 11.4l-35.4 7.6-15.1-81.9 40.5-7.6c1.4-.3 23.2-5.1 36.6 9.1 8 8.5 8.6 19.2 8.9 25 .3 5.3.4 23.2-13.5 36.4z"/><path d="m91.1 247.3 30.3-5.9c11.9-1.8 21.5-.5 27.4.8 6.2 1.3 12.8 2.8 19.9 7.7 7.5 5.2 11.6 11.5 13.5 14.8 2.9 5 4.2 9.7 4.9 12.9.7 3.5 1.1 6.5 1.4 8.8.2 2 .4 4 .3 6.7s-.4 5.1-.7 6.7c-1.5 7.7-7.5 13.4-9.5 15.3-4.2 4-8.6 6.3-12.2 7.7-5.1 2.3-11.1 3.8-14.5 4.7-1.6.4-2.9.7-3.8.9-6.6 1.4-13.1 2.8-19.7 4.3-4.6-2.2-9.4-4.9-14.5-8-3.6-2.2-6.9-4.5-9.9-6.7-4.4-23.6-8.6-47.1-12.9-70.7z"/></g></svg>