<svg enable-background="new 0 0 2000 2000" viewBox="0 0 2000 2000" xmlns="http://www.w3.org/2000/svg"><g fill="#babfc1"><path d="m812.8 1253.5-430.8-430.7v517.7h397c4.6-31.1 16.2-60.9 33.8-87z"/><path d="m779 1425.4h-397c9.2 134.9 62 263.1 150.4 365.3l280.4-283.5c-17.9-24-29.5-52.2-33.8-81.8z"/><path d="m1405.2 914.8c-101.2-90-230-143.1-365.2-150.5v396.6c30.4 4.9 59.4 16.3 85 33.3z"/><path d="m1190.3 1503.1 280.4 280.4c86.9-100.9 138.6-227.4 147.3-360.2h-399c-4.8 28.1-14.5 55.1-28.7 79.8z"/><path d="m1219 1340.5h397c-9.2-134.9-62-263.1-150.4-365.3l-280.4 281.4c17.7 24.9 29.2 53.7 33.8 83.9z"/><path d="m592.3 1849.6c101.3 90 230.1 143.1 365.3 150.4v-397.6c-30.4-4.9-59.4-16.3-85-33.3z"/><path d="m1039.9 1602.4v397c135.3-9 263.8-62.7 365.3-152.5l-278.4-278.4c-26.4 17-56 28.5-86.9 33.9z"/></g><path d="m382 694.4c106.4 106.4 440 443.1 496.3 498.3 24-14.8 50.3-25.6 77.8-31.8v-648.3l-573.1-512.6c-1 0-1 675.4-1 694.4z" fill="#94c456"/></svg>