<svg xmlns="http://www.w3.org/2000/svg" viewBox="0 0 1366 435.03"><path d="m217.52 0c-120.07 0-217.52 97.45-217.52 217.52s97.45 217.48 217.52 217.48 217.48-97.42 217.48-217.48-97.42-217.52-217.48-217.52m-17.41 391.53a174 174 0 0 1 0 -348c95.71 0 174 77.44 174 174s-78.29 174-174 174m392.4-155.74a27.61 27.61 0 0 0 -11.31 -22.62 24.32 24.32 0 0 0 5.22 -15.67c0-15.66-12.18-27.84-27-27.84h-25.2v95.71h30.45c15.66 0 27.84-13.05 27.84-29.58m-41.76-49.6h7.83a10.58 10.58 0 0 1 10.42 10.44c0 7-5.22 11.32-10.44 11.32h-7.83v-21.76m.89 62.65v-22.62h13.92c6.09 0 11.31 5.22 11.31 12.18a11 11 0 0 1 -11.31 11.31h-13.92m112.24-3.48h-33.93v-76.57h-18.28v95.71h53.08v-19.14m87.88 19.14h20.88l-43.49-95.71h-5.22l-47 95.71h20.88l28.71-58.29m130.51 48.72l-12.18-13.92c-17.4 13.92-46.11 3.48-46.11-24.36 0-25.24 27-36.55 44.37-25.24l12.18-13.92c-7.83-7-18.27-10.44-29.58-10.44-26.1 0-47.85 22.62-47.85 49.6s21.75 49.59 47.85 49.59a51.12 51.12 0 0 0 31.32 -11.31m33.94-27l7-7.83 23.49 43.5h21.69l-33-58.26 32.19-37.42h-25.27l-27 31.32v-31.32h-18.25v95.71h18.33v-35.67m87.82-21.78l27 25.23 27-25.23v58.29h18.18v-95.68h-7l-38.29 35.68-38.28-35.68h-6.09v95.71h18.27v-58.29m135.81-39.19c-26.1 0-47.85 22.62-47.85 49.6s21.75 49.59 47.85 49.59 47.86-22.62 47.86-49.59-21.76-49.6-47.86-49.6m0 79.18c-16.53 0-28.71-13.92-28.71-29.58 0-16.54 13-29.59 28.71-29.59 16.53 0 28.71 13.92 28.71 29.59 0 16.56-13.05 29.61-28.71 29.61m109.63-79.21c-26.1 0-47.85 22.62-47.85 49.6s21.75 49.59 47.85 49.59 47.85-22.62 47.85-49.59-20.9-49.57-47.85-49.57m0 79.15c-16.53 0-28.71-13.92-28.71-29.58 0-16.54 13.05-29.59 28.71-29.59 16.53 0 28.71 13.92 28.71 29.59.87 16.56-12.18 29.61-28.71 29.61m122.68-77.47v53.08l-51.34-53.08h-5.22v95.71h18.28v-55.65l51.33 55.68h5.22v-95.71"/></svg>