<svg enable-background="new 0 0 226.7 226.7" viewBox="0 0 226.7 226.7" xmlns="http://www.w3.org/2000/svg"><path d="m127.5 100.3c7.3-9.5 5-27.3-3.8-33.4s-18.1-3-19.9-1.3-1.7 41.7-1.7 41.7 18.1 2.5 25.4-7zm1.3 17c-6.8-3-26.8-2.2-26.8-2.2s-.3 10.1.4 29 7.2 18.8 13.9 19.1 19.5-.2 23.8-16.5c4.2-16.3-4.4-26.4-11.3-29.4z"/><path d="m113.3 0c-62.6 0-113.3 50.7-113.3 113.3s50.7 113.3 113.3 113.3 113.3-50.7 113.3-113.3-50.7-113.3-113.3-113.3zm46.1 81.6c.3 18.9-16.2 24.2-16.2 24.2s6.7-6.5 6.4-23.1-12.8-24.9-12.8-24.9 22.2 4.9 22.6 23.8zm-74.2 88.8-22.8 1.1v-2.1s14-1.4 14-25.9v-62.5c0-20.7-14-24.3-14-24.3v-1.9l22.8 1.1zm36.5 1.2c-9.9.1-28.3-1.3-28.3-1.3v-114.3c12.1-.2 16.4-1.8 26.4-.4s18.6 11.2 20.9 20.9c2.3 9.8-.2 19.1-3.4 24.2s-10.2 8.6-10.2 8.6 10.6 3.6 14.4 6.7 11 11.6 8.2 30.2c-2.8 18.5-18.1 25.3-28 25.4zm26.4-4.2s10.8-9.2 10.3-27.9-10.3-27.5-10.3-27.5 20.4 5 20.6 27.3c.2 22.2-20.6 28.1-20.6 28.1z"/></svg>