<svg xmlns="http://www.w3.org/2000/svg" viewBox="0 0 650.6 650.6"><defs><linearGradient id="0" y1="0" x2="0" y2="650.6" gradientUnits="userSpaceOnUse"><stop offset=".27" stop-color="#646464"/><stop offset=".59"/></linearGradient><linearGradient id="1" y1="246.78" x2="0" y2="464.64" gradientUnits="userSpaceOnUse"><stop stop-color="#646464"/><stop offset="1"/></linearGradient></defs><circle cx="325.3" cy="325.3" r="309" fill="#fff" stroke="url(#0)" stroke-width="32.6" stroke-miterlimit="10"/><path d="m428.57 320.38s80.33-22.95 75.43-109.83c0 0 0-98.35-150.81-104.91h-180.34v439.36h200s142.6-5 142.6-132.82c0 0 4.92-78.68-86.88-91.8m-152.45-136.06h77.05c49.18 3.28 49.18 37.68 49.18 37.68v26.23c-3.28 41-54.1 42.62-54.1 42.62h-72.13m136.06 134.47c-3.28 41-54.09 42.63-54.09 42.63h-82v-106.59h86.91c49.18 3.28 49.18 37.71 49.18 37.71" fill="url(#1)"/></svg>