<svg enable-background="new 0 0 402.3 402.3" viewBox="0 0 402.3 402.3" xmlns="http://www.w3.org/2000/svg"><circle cx="201.2" cy="201.2" fill="#1e394c" r="201.2"/><path d="m306.8 117.3-20.1-12.2m-183.8 176.7v-164.3m203.9-.2.3 164.3m-101.7-34.3 20.1-12m-20.1 12-20.7-12m-41-118.2 20.3-11.6m20.1 12-20.1-12m-40.4-.2-20.7 12.2m0 164.3 20.7 12m20.4-12-20.4 12m101.7-176.3 20.4-12.2m0 0 20.3 12m20.7-12.1-20.7 12.1m0 164.3 20.7 12m20.4-12-20.4 12m-102.3-81.6-40.7-24m40.7 24 .3 23.3m-40.7 46.5-.2-93.5m81.7 47-.3-23m40.7-24.3-40.7 24.3m40.8 69.3-.1-93.6m-142.3-82.7 20.1 11.7m40.4.5.1 23.1m41.3-23.2-.2 23m-41.1.2 20.9 12.1m20.2-11.4-20.1 11.5" fill="none" stroke="#7bd1cc" stroke-miterlimit="10" stroke-width="1.5"/><path d="m123.5 105.2v188.5m20.3-105.6-.1-70.8m101.9 82.2-142.8-82.2m61.1-12 .1 94.5m142.9 12.3-102-59.8m60.9 35.5.1-70.7m20.7-12.1v188.5m-61.4-153.3 81.7 47.7m-.3-23.9-81.4-46.7m20.4 82.2v-94.3m-20.5 35v72m-19.8 34.9-.4-94.8m-20.6-12v71.5m-81.5.3 102-59.8m-40.8 48.5 142.8-82.7m-122.5 93.7 122.6-71.7m-122.3 95 40.5-23m.3 23-41.1-23.3m40.8.3-122.3-72m204.1.1-40.9-23m-40.9 23 40.8-23m-.1 70.5 40.8-23.7m-40.8 46.9 41.1-23.1m0 24-41.1 22.8m41.2 24-41.2-24m0 24 41.2-24m-41.1 46.9 41.1-22.8m0 22.8-41.2-22.8m-162.7-94.7 80.9-46.7m-40.4-.4-40.8 23.3m.3 23.8 40.5 23.8m-40.5 0 40.7 24.3m-41 0 40.9 23m.1-23-40.9 23m-.1 0 41.1 23.5m-.1-23.5-40.9 23.5m41 23-41.1-23m0 23 41.1-23m-.3-141.7 40.7 23.4m-81.5 47.5 81.5-47.5m81.5 70.6 40.8 24.2" fill="none" stroke="#416f7e" stroke-miterlimit="10"/><g fill="#f6f3f1"><circle cx="164" cy="105.5" r="6"/><circle cx="184.1" cy="117.5" r="6"/><circle cx="164" cy="129.5" r="6"/><circle cx="184.4" cy="140.5" r="6"/><circle cx="164.3" cy="152.5" r="6"/><circle cx="184.4" cy="165" r="6"/><circle cx="205.1" cy="153" r="6"/><circle cx="225.2" cy="165" r="6"/><circle cx="205.1" cy="177" r="6"/><circle cx="184.7" cy="188" r="6"/><circle cx="225.5" cy="188" r="6"/><circle cx="205.4" cy="200" r="6"/><path d="m109.2 164.5c0 3.3-2.7 6-6 6s-6-2.7-6-6 2.7-6 6-6 6 2.7 6 6zm34.8-6c-3.3 0-6 2.7-6 6s2.7 6 6 6 6-2.7 6-6-2.7-6-6-6zm-20.1 12c-3.3 0-6 2.7-6 6s2.7 6 6 6 6-2.7 6-6-2.7-6-6-6zm-21-59c-3.3 0-6 2.7-6 6s2.7 6 6 6 6-2.7 6-6-2.7-6-6-6zm26.7-6c0 3.3-2.7 6-6 6s-6-2.7-6-6 2.7-6 6-6 6 2.7 6 6zm20.1 12c0 3.3-2.7 6-6 6s-6-2.7-6-6 2.7-6 6-6 6 2.7 6 6zm-20.1 12c0 3.3-2.7 6-6 6s-6-2.7-6-6 2.7-6 6-6 6 2.7 6 6zm-20.4 11c0 3.3-2.7 6-6 6s-6-2.7-6-6 2.7-6 6-6 6 2.7 6 6zm40.8 0c0 3.3-2.7 6-6 6s-6-2.7-6-6 2.7-6 6-6 6 2.7 6 6zm-20.1 12c0 3.3-2.7 6-6 6s-6-2.7-6-6 2.7-6 6-6 6 2.7 6 6zm-27 100.3c-3.3 0-6 2.7-6 6s2.7 6 6 6 6-2.7 6-6-2.7-6-6-6zm26.7-6c0 3.3-2.7 6-6 6s-6-2.7-6-6 2.7-6 6-6 6 2.7 6 6zm20.1 12c0 3.3-2.7 6-6 6s-6-2.7-6-6 2.7-6 6-6 6 2.7 6 6zm-20.1 12c0 3.3-2.7 6-6 6s-6-2.7-6-6 2.7-6 6-6 6 2.7 6 6zm-20.4 11c0 3.3-2.7 6-6 6s-6-2.7-6-6 2.7-6 6-6 6 2.7 6 6zm40.8 0c0 3.3-2.7 6-6 6s-6-2.7-6-6 2.7-6 6-6 6 2.7 6 6zm-20.1 12c0 3.3-2.7 6-6 6s-6-2.7-6-6 2.7-6 6-6 6 2.7 6 6zm-27-111.8c-3.3 0-6 2.7-6 6s2.7 6 6 6 6-2.7 6-6-2.7-6-6-6zm40.8 0c-3.3 0-6 2.7-6 6s2.7 6 6 6 6-2.7 6-6-2.7-6-6-6zm-20.1 12c-3.3 0-6 2.7-6 6s2.7 6 6 6 6-2.7 6-6-2.7-6-6-6zm-20.7 12c-3.3 0-6 2.7-6 6s2.7 6 6 6 6-2.7 6-6-2.7-6-6-6zm40.8 0c-3.3 0-6 2.7-6 6s2.7 6 6 6 6-2.7 6-6-2.7-6-6-6zm-20.1 12c-3.3 0-6 2.7-6 6s2.7 6 6 6 6-2.7 6-6-2.7-6-6-6zm-20.7 10.8c-3.3 0-6 2.7-6 6s2.7 6 6 6 6-2.7 6-6-2.7-6-6-6zm40.8 0c-3.3 0-6 2.7-6 6s2.7 6 6 6 6-2.7 6-6-2.7-6-6-6z"/><circle cx="164" cy="176.5" r="6"/><circle cx="164.1" cy="200" r="6"/><path d="m272.1 164.5c0 3.3-2.7 6-6 6s-6-2.7-6-6 2.7-6 6-6c3.4 0 6 2.7 6 6zm34.9-6c-3.3 0-6 2.7-6 6s2.7 6 6 6 6-2.7 6-6-2.7-6-6-6zm-20.2 12c-3.3 0-6 2.7-6 6s2.7 6 6 6 6-2.7 6-6-2.7-6-6-6zm-20.9-59c-3.3 0-6 2.7-6 6s2.7 6 6 6 6-2.7 6-6-2.7-6-6-6zm26.6-6c0 3.3-2.7 6-6 6s-6-2.7-6-6 2.7-6 6-6 6 2.7 6 6zm20.2 12c0 3.3-2.7 6-6 6s-6-2.7-6-6 2.7-6 6-6 6 2.7 6 6zm-20.2 12c0 3.3-2.7 6-6 6s-6-2.7-6-6 2.7-6 6-6 6 2.7 6 6zm-20.4 11c0 3.3-2.7 6-6 6s-6-2.7-6-6 2.7-6 6-6c3.4 0 6 2.7 6 6zm40.9 0c0 3.3-2.7 6-6 6s-6-2.7-6-6 2.7-6 6-6 6 2.7 6 6zm-20.2 12c0 3.3-2.7 6-6 6s-6-2.7-6-6 2.7-6 6-6 6 2.7 6 6zm-26.9 100.3c-3.3 0-6 2.7-6 6s2.7 6 6 6 6-2.7 6-6-2.7-6-6-6zm26.6-6c0 3.3-2.7 6-6 6s-6-2.7-6-6 2.7-6 6-6 6 2.7 6 6zm20.2 12c0 3.3-2.7 6-6 6s-6-2.7-6-6 2.7-6 6-6 6 2.7 6 6zm-20.2 12c0 3.3-2.7 6-6 6s-6-2.7-6-6 2.7-6 6-6 6 2.7 6 6zm-20.4 11c0 3.3-2.7 6-6 6s-6-2.7-6-6 2.7-6 6-6c3.4 0 6 2.7 6 6zm40.9 0c0 3.3-2.7 6-6 6s-6-2.7-6-6 2.7-6 6-6 6 2.7 6 6zm-20.2 12c0 3.3-2.7 6-6 6s-6-2.7-6-6 2.7-6 6-6 6 2.7 6 6zm-26.9-111.8c-3.3 0-6 2.7-6 6s2.7 6 6 6 6-2.7 6-6-2.7-6-6-6zm40.8 0c-3.3 0-6 2.7-6 6s2.7 6 6 6 6-2.7 6-6-2.7-6-6-6zm-20.2 12c-3.3 0-6 2.7-6 6s2.7 6 6 6 6-2.7 6-6-2.6-6-6-6zm-20.6 12c-3.3 0-6 2.7-6 6s2.7 6 6 6 6-2.7 6-6-2.7-6-6-6zm40.8 0c-3.3 0-6 2.7-6 6s2.7 6 6 6 6-2.7 6-6-2.7-6-6-6zm-20.2 12c-3.3 0-6 2.7-6 6s2.7 6 6 6 6-2.7 6-6-2.6-6-6-6zm-20.6 10.8c-3.3 0-6 2.7-6 6s2.7 6 6 6 6-2.7 6-6-2.7-6-6-6zm40.8 0c-3.3 0-6 2.7-6 6s2.7 6 6 6 6-2.7 6-6-2.7-6-6-6z"/><circle cx="184.4" cy="212.3" r="6"/><circle cx="225.2" cy="212.3" r="6"/><circle cx="205.1" cy="224.3" r="6"/><circle cx="184.7" cy="235.3" r="6"/><circle cx="225.5" cy="235.3" r="6"/><circle cx="205.4" cy="247.3" r="6"/><circle cx="245.7" cy="105.3" r="6"/><circle cx="245.7" cy="129.3" r="6"/><circle cx="225.3" cy="140.3" r="6"/><circle cx="246" cy="152.3" r="6"/><circle cx="245.7" cy="176.7" r="6"/><circle cx="245.9" cy="199.7" r="6"/><circle cx="225.3" cy="117.5" r="6"/></g></svg>