<svg enable-background="new 0 0 32 32" viewBox="0 0 32 32" xmlns="http://www.w3.org/2000/svg"><circle cx="16" cy="16" fill="#343434" r="16"/><path d="m23.9 21.1c.4-.1.6-.5.6-.9v1.1c0 .4-.2.7-.6.9l-7.6 2.7c-.2.1-.4.1-.6 0l-7.6-2.7c-.4-.1-.6-.5-.6-.9v-1.1c0 .4.2.7.6.9l7.6 2.7c.2.1.4.1.6 0zm0-1.9c.4-.1.6-.5.6-.9v1.1c0 .4-.2.7-.6.9l-7.6 2.7c-.2.1-.4.1-.6 0l-7.6-2.7c-.4-.1-.6-.5-.6-.9v-1.1c0 .4.2.7.6.9l7.6 2.7c.2.1.4.1.6 0zm0-2c.4-.1.6-.5.6-.8v1.1c0 .4-.2.7-.6.9l-7.6 2.6c-.2.1-.4.1-.6 0l-7.6-2.7c-.4-.1-.6-.5-.6-.9v-1.1c0 .4.2.7.6.9l7.6 2.7c.2.1.4.1.6 0zm-16.4-6.5c0-.4.2-.7.6-.9l7.6-2.7c.2-.1.4-.1.6 0l7.6 2.7c.4.1.6.5.6.9v4.8c0 .4-.2.7-.6.9l-7.6 2.7c-.2.1-.4.1-.6 0l-7.6-2.7c-.4-.1-.6-.5-.6-.9z" fill="#fff"/></svg>