<svg enable-background="new 0 0 32 32" viewBox="0 0 32 32" xmlns="http://www.w3.org/2000/svg"><circle cx="16" cy="16" fill="#ef494d" r="16"/><path clip-rule="evenodd" d="m6 11.4c0-.2.2-.4.4-.4h5c2.3 0 3.8 1.2 3.8 2.9 0 .7-.3 1.3-1 1.9.9.5 1.4 1.3 1.4 2.3 0 2.4-2.3 2.9-3.9 2.9h-5.3c-.2 0-.4-.2-.4-.4v-1.1c0-.2.2-.4.4-.4h5.3c1.1 0 1.6-.4 1.6-1.1s-.5-1.1-1.6-1.2h-5.3c-.2 0-.4-.2-.4-.4v-1.1c0-.2.2-.4.4-.4h5.3c.8-.1 1.2-.4 1.2-1 0-.7-.4-1.1-1.2-1.1h-5.3c-.2 0-.4-.2-.4-.4zm10.4 0c0-.2.2-.4.4-.4h5.1c.2 0 .4.2.4.4v9.2c0 .2-.2.4-.4.4h-1.5c-.2 0-.4-.2-.4-.4v-7.3c0-.2-.2-.4-.4-.4h-2.9c-.2 0-.4-.2-.4-.4zm7.3-.4h1.9c.2 0 .4.2.4.4v1.1c0 .2-.2.4-.4.4h-1.9c-.2 0-.4-.2-.4-.4v-1.1c0-.2.2-.4.4-.4z" fill="#fff" fill-rule="evenodd"/></svg>