<svg id="Layer_1" xmlns="http://www.w3.org/2000/svg" viewBox="0 0 2631.6 2631.6" width="2631.6" height="2631.6"><style>.st0{fill:#5e5e5e}.st1{fill:url(#SVGID_1_)}.st2{fill:#929695}.st3{fill:#bec0bf}</style><circle class="st0" cx="1315.8" cy="1315.8" r="1315.8"/><linearGradient id="SVGID_1_" gradientUnits="userSpaceOnUse" x1="109.62" y1="1315.807" x2="2521.994" y2="1315.807"><stop offset="0" stop-color="#b4b4b4"/><stop offset=".5" stop-color="#fff"/><stop offset="1" stop-color="#b2b2b2"/></linearGradient><circle class="st1" cx="1315.8" cy="1315.8" r="1206.2"/><path class="st2" d="M1224.1 457.5l31.4 31.4v610.2H645.2l-31.4-31.4 610.3-610.2zM1931.7 457.5l31.4 31.4v610.2h-610.2l-31.4-31.4 610.2-610.2zM1963 1274.4v610.2h-610.2l-31.4-31.4 610.2-610.2 31.4 31.4zM1255.4 1274.4v610.2H645.2l-31.4-31.4L1224 1243l31.4 31.4z"/><path class="st3" d="M613.8 457.5H1224v610.2H613.8V457.5zM1321.5 457.5h610.2v610.2h-610.2V457.5zM1931.7 1243.1v610.2h-610.2v-610.2h610.2zM1224.1 1243.1v610.2H613.8v-610.2h610.3z"/><path class="st0" d="M765.2 2246.6v-148.4H793c14.4 0 24.9.6 31.6 1.7 6.7 1.1 12.4 3 17.3 5.5 5.7 3.3 10.2 7.7 13.3 13.1 3.1 5.4 4.7 11.5 4.7 18.3 0 8.8-2.6 15.8-7.8 21.1-5.2 5.3-13 8.8-23.3 10.6 12 1.8 21 5.6 27.1 11.7 6.1 6 9.2 14 9.2 24 0 7.3-1.8 14-5.3 20s-8.3 10.7-14.5 14c-5.5 3-11.9 5.1-19.3 6.4-7.4 1.3-19.6 1.9-36.6 1.9h-24.2zm31.7-89.1h7.1c9.6 0 16.4-1.4 20.4-4.1 4-2.7 6-7.2 6-13.6 0-6.2-1.9-10.6-5.7-13.3-3.8-2.6-10.5-4-20-4H797v35zm0 64.4h12.5c8 0 14-1.7 18.1-5.2 4.1-3.5 6.2-8.6 6.2-15.3 0-6.3-2-11.1-6.1-14.4-4.1-3.3-10-5-17.8-5h-12.9v39.9zM889.1 2246.6v-148.4h31.7v121.4h50.7v27h-82.4zM1136 2172.7c0 10.6-2 20.6-5.9 30.1-4 9.5-9.6 17.8-17.1 24.9-7.7 7.4-16.4 13-26 16.9-9.7 3.9-19.7 5.9-30 5.9-9.1 0-17.9-1.5-26.6-4.6-8.7-3.1-16.6-7.5-23.9-13.2-9.3-7.4-16.5-16.3-21.4-26.7-5-10.3-7.4-21.5-7.4-33.3 0-10.7 2-20.7 5.9-30 3.9-9.4 9.7-17.7 17.2-25 7.4-7.2 16.1-12.8 25.9-16.8 9.8-4 19.9-6 30.4-6 10.3 0 20.4 2 30.2 6s18.4 9.6 25.9 16.8c7.5 7.3 13.2 15.6 17.1 25 3.7 9.4 5.7 19.4 5.7 30zm-79.1 49.6c13.4 0 24.5-4.7 33.3-14.1 8.7-9.4 13.1-21.2 13.1-35.4 0-14.1-4.4-25.9-13.3-35.5-8.9-9.6-19.9-14.4-33.1-14.4-13.4 0-24.6 4.8-33.4 14.3-8.9 9.6-13.3 21.4-13.3 35.5 0 14.3 4.4 26.2 13.1 35.5 8.7 9.4 19.9 14.1 33.6 14.1zM1236.4 2168.3h67.6c.1.9.2 1.8.3 2.8 0 1 .1 2.6.1 4.7 0 22.2-6.4 40.2-19.1 54-12.7 13.8-29.1 20.7-49.3 20.7-23 0-42-7.3-57-22-14.9-14.7-22.4-33.4-22.4-56 0-22.4 7.5-41 22.5-55.6 15-14.7 34-22 56.9-22 12.1 0 23.2 2.5 33.2 7.6 10.1 5.1 19.1 12.6 27 22.7l-21.4 15.8c-5.3-6.6-10.9-11.4-16.8-14.3-5.9-2.9-12.7-4.4-20.4-4.4-14.7 0-26.4 4.6-35.2 13.7-8.8 9.1-13.2 21.3-13.2 36.6 0 15 4.4 27.1 13.2 36.3 8.8 9.2 20.3 13.8 34.5 13.8 10.4 0 18.9-2.4 25.3-7.3 6.5-4.9 9.7-11.3 9.7-19.2v-1.6h-35.7v-26.3zM1448.9 2136.8c-6.4-5.7-13-9.9-19.8-12.6-6.8-2.7-14-4-21.7-4-15.8 0-28.4 4.7-37.8 14.2-9.4 9.5-14.1 22.2-14.1 38.1 0 15.6 4.4 28 13.1 37.1 8.7 9.2 20.6 13.7 35.7 13.7 8.6 0 16.6-1.4 23.9-4.3 7.4-2.9 14.2-7.2 20.5-12.9l-.2 32.5c-6.8 4-13.8 7-21.2 8.9-7.4 2-15.2 2.9-23.4 2.9-23.6 0-43.1-7.3-58.2-22-15.2-14.7-22.8-33.4-22.8-56s7.6-41.2 22.8-55.8c15.2-14.7 34.8-22 58.8-22 8 0 15.8.8 23.3 2.5s14.9 4.3 22.2 7.8l-1.1 31.9zM1630.4 2172.7c0 10.6-2 20.6-5.9 30.1-4 9.5-9.6 17.8-17.1 24.9-7.7 7.4-16.4 13-26 16.9-9.7 3.9-19.7 5.9-30 5.9-9.1 0-17.9-1.5-26.6-4.6-8.7-3.1-16.6-7.5-23.9-13.2-9.3-7.4-16.5-16.3-21.4-26.7-5-10.3-7.4-21.5-7.4-33.3 0-10.7 2-20.7 5.9-30 3.9-9.4 9.7-17.7 17.2-25 7.4-7.2 16.1-12.8 25.9-16.8 9.8-4 19.9-6 30.4-6 10.3 0 20.4 2 30.2 6s18.4 9.6 25.9 16.8c7.5 7.3 13.2 15.6 17.1 25 3.7 9.4 5.7 19.4 5.7 30zm-79.1 49.6c13.4 0 24.5-4.7 33.3-14.1 8.7-9.4 13.1-21.2 13.1-35.4 0-14.1-4.4-25.9-13.3-35.5-8.9-9.6-19.9-14.4-33.1-14.4-13.4 0-24.6 4.8-33.4 14.3-8.9 9.6-13.3 21.4-13.3 35.5 0 14.3 4.4 26.2 13.1 35.5 8.7 9.4 19.9 14.1 33.6 14.1zM1657.7 2246.6v-148.4h31.7v148.4h-31.7zM1723.3 2246.6v-148.4h32.9l65.7 86.3c1.9 2.4 4 5.9 6.2 10.3 2.3 4.4 4.6 9.6 7 15.7-.7-4.4-1.3-8.7-1.6-13.1-.3-4.3-.5-9.7-.5-16.2v-83h30.3v148.4h-31.1l-67.5-88c-1.9-2.4-4-5.9-6.2-10.3s-4.6-9.7-7.1-15.9c.7 4.3 1.3 8.6 1.6 12.9.3 4.4.5 9.8.5 16.5v84.7h-30.2z"/></svg>