<svg xmlns="http://www.w3.org/2000/svg" viewBox="0 0 432 432"><g fill="#667ce9"><path d="M173.44 216a66.77 66.77 0 0 1 -66.81 66.82C42.51 282.84 0 214.6 0 214.6s35.09-62.53 106.63-65.4C142.17 147.78 173.44 179.12 173.44 216"/><path d="M216 258.56a66.77 66.77 0 0 1 66.82 66.81C282.84 389.49 214.6 432 214.6 432s-62.53-35.09-65.4-106.63C147.78 289.83 179.12 258.56 216 258.56"/><path d="M258.56 216a66.77 66.77 0 0 1 66.81 -66.82C389.49 149.16 432 217.4 432 217.4s-35.09 62.53-106.63 65.4C289.83 284.22 258.56 252.88 258.56 216"/><path d="M214.52,173.44a66.77,66.77,0,0,1-66.81-66.81C147.71,42.51,216,0,216,0s62.53,35.09,65.39,106.63C282.76,142.17,251.43,173.44,214.52,173.44Z"/></g></svg>