<svg enable-background="new 0 0 293.1 315.4" viewBox="0 0 293.1 315.4" xmlns="http://www.w3.org/2000/svg"><path d="m3.8 171.4c-.5 0-1-.1-1.5-.2-1.5-.5-2.4-2-2.4-3.6 0-13.8 2.1-57.6 35.2-96.1 41.8-48.5 100.3-50.8 112.3-50.9 1 0 2 .3 2.7 1 .6.6.9 1.3 1.1 2 .2 1.1-.1 2.2-.8 3-.7.9-1.9 1.4-3.1 1.4-11.4-.1-60.8 1.1-100.2 41-38.2 39-39.7 86.7-39.6 98.5 0 1.9-1.3 3.6-3.2 3.9-.1 0-.3 0-.5 0zm154.3-150.2c-1.5.3-2.7 1.5-3 3-.3 1.4.3 2.7 1.4 3.6 1.5.2 3.1.4 4.6.6 1.9.3 3.7-1 4-2.9s-.9-3.8-2.9-4.1c-1.3 0-2.7-.1-4.1-.2zm10.9 4.7c-.3 1.9 1.1 3.7 3 3.9 4.1.6 8.8 1.5 13.8 3 3.9 1.2 7.4 2.6 10.5 3.9 1.7.8 3.8.3 4.9-1.3.1-.1.2-.3.2-.4.3-.6.5-1.2.5-1.9 0-1.9-1.2-3.5-3-4.2-3.6-1.4-7.7-2.7-12.1-3.8-4.7-1.2-9.1-2.1-13.1-2.7-1.7-.2-3.4.4-4.2 1.9-.2.6-.4 1.1-.5 1.6zm117.3 189.2c-4.3 13.2-10.1 23.7-15.1 31.5 3.9 10.7 7.4 18.7 10 24.3 2.8 6.1 6.5 13.2 4 20.7-.3.9-.6 1.6-.9 2.1-.8.5-2.2 1.1-3.9 1.4-2 .3-3.7 0-5-.3-5.1-1.1-8.6-2.6-8.6-2.6-1.2-.5-6.8-2.5-17.8-6.5-2.1-.8-5.3-1.9-9.2-3.2-10.5 8.4-28.3 20.3-53 27.3-16 4.5-30.1 5.6-40.9 5.5-14.4.3-25.9-1.6-33.9-3.5-28.4-6.7-47.2-21.1-56.9-28.6-11.9-9.3-19.4-17.8-22-20.9-1.3-1.6-5.3-6.3-9.8-13-6.1-9.2-12.6-19.1-16-33-.9-3.6-1.4-8.7-2-15.4-.3-3.3-.8-12.5 4.8-21.9 5.9-10 14.9-14.3 19.3-15.9 1.3-.5 2.5-1.2 3.4-2.3 4-4.2 11.2-10.7 22-14.6 9.2-3.3 17.3-3.5 22.3-3.3 6.3.4 13.9 1.4 22.4 3.6 9 2.4 16.6 5.5 22.5 8.4 6.9 2.7 15.3 5.4 25.3 7.3 6.5 1.2 12.5 1.8 17.9 2 2.9-.2 45.3-3.7 58.5-33.9 1.9-4.3 3.6-10.3 3.8-18 0-3.3-.4-9-3-15.3-3-7.2-7.5-11.8-10.1-14.1-6.5 1.3-20.7 3.2-36.6-2.6-6.5-2.4-11.8-5.5-15.8-8.4-2.7-2-3.1-5.9-.8-8.4 3.4-3.7 8.3-8 14.9-11.6 13.3-7.1 25.9-6.8 31.3-6.4 1.4-5.6 4-12.9 8.8-20.5 8.5-13.1 19.8-20.6 28-24.7 3.6-1.8 7.9.4 8.5 4.4 1.1 7.7 1.4 17.9-1 29.4-2 9.2-5.2 16.7-8.1 22.2 11.6 10.3 33.1 32.6 43.6 67.7 4.9 16.3 6.1 30.9 6 42.2.3 11.8-.4 29.2-6.9 48.9zm-127.8-21c0 3.4 2.8 6.2 6.2 6.2s6.2-2.8 6.2-6.2-2.8-6.2-6.2-6.2-6.2 2.8-6.2 6.2zm72.7 85.1c-1.4-.4-2.9-1-4.4-1.7-1.9-.9-3.6-1.8-5-2.7-9.4 5.2-22.6 11.2-39.2 15.1-13.7 3.3-26 4.2-35.6 4.2-11.6.1-27.8-1.2-46.2-7-13.3-4.2-24.2-9.7-32.3-14.7-.7-1.1-.6-2.5.3-3.4.9-1 2.3-1.2 3.4-.6 8.2 5 19.9 10.9 34.8 15.1 16 4.5 30 5.3 40 5.1 9.1-.2 20.6-1.2 33.5-4.3 14.4-3.5 26.1-8.5 34.8-13-1.2-.6-2.5-1.3-3.8-2.2-1.4-.9-2.7-1.9-3.7-2.8-8.3 2.6-18.1 5.2-29.3 7-10.9 1.7-20.8 2.3-29.3 2.4-11.7.3-27.6-.6-45.6-5.7-27.3-7.7-46.5-21.3-57.4-30.3-1.1-1.5-.7-3.4.6-4.2 1-.6 2.4-.5 3.4.4 10.5 8.1 27.9 19.5 51.8 26.8 21 6.4 39.3 7.3 51.8 6.9 6.9 0 15-.4 23.8-1.7 9.7-1.4 18.1-3.6 25.2-5.8-1.6-1.6-3.2-3.3-4.8-5.3-1.8-2.2-3.4-4.3-4.7-6.3-4.9 1.7-11.1 3.4-18.3 4.4-5.5.7-10.6.9-14.9.8-12.6.6-32.1 0-54.5-7.2-24.1-7.7-42-20-53.3-29.7-.7-1.3-.5-2.8.4-3.9.9-1 2.3-1.4 3.6-1.1 9.8 8.5 27.4 21.5 52.7 29.5 20.8 6.6 38.9 7.2 50.9 6.8 3.9-.1 8.2-.4 12.7-1 6.5-.8 12.5-2 17.7-3.3-.6-.9-1.3-1.9-1.9-3-1-1.7-1.7-3.4-2.3-4.8-18.1 1.5-52.6 1.5-87.6-17.6-10.9-5.9-19.8-12.6-27-19-.8-1-1-2.4-.5-3.5.7-1.3 2.3-2.1 3.8-1.7 9.3 8 24.3 19 45.2 26.8 26.6 10 50.1 10 63.5 9-.5-1.4-1-2.9-1.5-4.4-.7-2.4-1.3-4.7-1.7-6.8-8.3-1.4-17.5-3.4-27.3-6.5-18-5.7-32.6-13.1-43.8-20-6.9-4.9-15.7-10.2-26.5-14.8-16.2-7-30.9-9.8-41.8-11-2.3.2-12.2 1.2-20 9.5-8.7 9.2-8.4 20.5-8.3 22.5.5 3.6 1.5 8.6 3.2 14.5 14.2 48.8 58.8 73 66.8 77.2 25.2 13.1 49.3 15.6 64.5 15.7 8.9.2 20-.4 32.5-3.3 24.2-6 41.6-17.5 51.6-25.4zm54.3-112.8c.1-8.4-.6-18.4-3-29.4-6.1-27.6-19.9-47-29-57.8 4.9 10.1 9.9 23.3 12.8 39.2 1.3 7.2 2.1 13.9 2.4 20.1.4 6.5.4 22.1-8.8 38.4-7.1 12.6-16.4 19.9-21.8 23.5 1.6 1.3 3.4 2.9 5.3 5 1.2 1.3 2.2 2.7 3 3.9 5.3-6.3 11.3-14.8 16.5-25.7 8.9-18.7 11.2-35.9 11.7-47.2 0-1 .6-2 1.6-2.3.2-.1.5-.1.7-.1.4 0 .8 0 1.1.2 1 .4 1.5 1.4 1.5 2.5-.1 10.2-1.6 25.9-8.6 43.5-6.2 15.4-14.3 26.6-20.5 33.7 1 1.1 2.1 2.3 3.1 3.5.6.7 1.2 1.3 1.7 2 4.3-7.2 8.8-15.5 13-24.8 3.1-6.8 5.6-13.3 7.7-19.4.4-1.3 1.6-2.2 3-2 .4 0 .8.2 1.2.4 1.1.6 1.6 1.9 1.3 3.2-1.4 4.2-3.1 8.6-5 13.1-5.6 13.3-12 24.8-18.3 34.5 0 0 1.3 1.4 1.3 1.4s1 1.1 1 1.1c1.5-1.6 3-3.5 4.6-5.7 2.1-2.9 3.7-5.7 4.9-8.3.7-1.4 2.4-1.9 3.6-1 .1.1.2.2.3.3.7.8.9 2 .4 3-1.6 3-3.5 6.3-5.9 9.7-1.9 2.7-3.8 5.1-5.6 7.1.9 1.1 1.8 2.4 2.6 3.9.4.7.8 1.5 1.1 2.2 5.2-8.8 11.6-21.9 15.5-38.6 3.1-12.9 3.8-24.3 3.6-33.1z" fill="#1e5f80"/></svg>