<svg xmlns="http://www.w3.org/2000/svg" viewBox="0 0 455 470.14"><path data-name="path0 fill" d="M65.45 336.92a40.66 40.66 0 1 1 0 57.6A40.62 40.62 0 0 1 65.45 336.92" fill="#fdba4d"/><g data-name="Ellipse"><path data-name="path0 fill" d="M343.54 72.91a40.66 40.66 0 1 1 0 57.5A40.62 40.62 0 0 1 343.54 72.91" fill="#fdba4d"/></g><path data-name="path1 fill" d="M117.59,305.64l42.9,42.9,39.3-39.3a77.4,77.4,0,0,1-43-43Z" fill="#fdba4d"/><g data-name="Subtract"><path data-name="path2 fill" d="m310.5 200.67l39.3-39.3-42.9-42.9-39.3 39.3a77.37 77.37 0 0 1 25.9 17.1 75.71 75.71 0 0 1 17 25.8" fill="#fdba4d"/></g><g data-name="Group" fill="#5da9dd"><path data-name="Ellipse" d="M342.17 392.39a40.66 40.66 0 1 1 57.5 0A40.62 40.62 0 0 1 342.17 392.39"/><path data-name="Ellipse" d="M69.53 126.79a40.66 40.66 0 1 1 57.5 0A40.62 40.62 0 0 1 69.53 126.79"/><path data-name="Subtract" d="m303.66 346.83l42.9-42.9-39.3-39.3a77.4 77.4 0 0 1 -43 43"/><path data-name="Subtract" d="m203.07 155.54l-39.3-39.3-42.9 42.9 39.3 39.3a77.37 77.37 0 0 1 17.1 -25.9 75.71 75.71 0 0 1 25.8 -17"/></g><g data-name="Group" fill="#18568c"><path data-name="Ellipse" d="M274.92 40.7A40.7 40.7 0 1 1 234.22 0 40.67 40.67 0 0 1 274.92 40.7"/><path data-name="Ellipse" d="M274.92,429.44a40.7,40.7,0,1,1-40.7-40.7A40.67,40.67,0,0,1,274.92,429.44Z"/><path data-name="Subtract" d="m249 102.7h-25.6v50.4a75 75 0 0 1 25.6 0"/><path data-name="Subtract" d="M249 319.26a75 75 0 0 1 -25.6 0v50.4H249"/></g><g data-name="Group" fill="#18578c"><path data-name="Ellipse" d="M414.3 264.63a40.7 40.7 0 1 1 40.7 -40.7A40.67 40.67 0 0 1 414.3 264.63"/><path data-name="Ellipse" d="M40.7 271.54a40.7 40.7 0 1 1 40.7 -40.71A40.68 40.68 0 0 1 40.7 271.54"/><path data-name="Subtract" d="M310.81,243.64h50.4V218h-50.4a75,75,0,0,1,0,25.6Z"/><path data-name="Subtract" d="M154.21 243.64a75 75 0 0 1 0 -25.6h-50.4v25.6"/></g><g data-name="Ellipse"><path data-name="path9 fill" d="M290.7,233.84a57.7,57.7,0,1,1-57.7-57.7A57.72,57.72,0,0,1,290.7,233.84Z" fill="#18568b"/></g></svg>