<svg xmlns="http://www.w3.org/2000/svg" viewBox="0 0 285.92 285.97"><defs><mask id="0" x="0" y="0" width="285.92" height="257.49" maskUnits="userSpaceOnUse"><path d="M0,257.49V0H285.92V257.49Z" fill="#fff"/></mask></defs><g data-name="logo eng"><g fill="#585afa"><path d="M210.83,286v-8.09C177,277.17,149,253.58,142.5,222.4c-.14-.42-.39-.8-.69,0C135,253,107,277,73.72,277.87V286Z"/><path d="M213.88,139.87a51.13,51.13,0,0,0,12.94-11.43,40.25,40.25,0,0,0-4.77-8.42c-4.62,15.21-19.53,21.65-34,27.9-11.21,4.84-21.8,9.42-27.66,17.85a2.65,2.65,0,0,1-3,.78,1.71,1.71,0,0,1-1.22-2.3c6.6-14.2,25.27-38.9,54-43.46a33.22,33.22,0,0,0-1.46-5.58c-13.75,3-24.73,7.85-33.37,14.81-1.1,1-2.24,2-3.42,3-16.86,14.14-24.3,29.29-26,54.87,15.91-27.7,53.57-40.14,76.23-41.43a2.22,2.22,0,0,1,2.49,1.7c.09,1-.87,1.89-2.15,2-23.2,1.32-58.34,14.55-72.71,40.05,7.61-6,18.05-9.81,30.48-11,18.54-1.73,37.87,2.94,48.24,11.45a39.55,39.55,0,0,0,10.15-16,43.21,43.21,0,0,1-17.85,5.56h-.27a2.21,2.21,0,0,1-2.31-1.62c-.14-1,.77-1.92,2.05-2,9.31-.84,16.88-4.76,19.82-8.34a26.1,26.1,0,0,0-.24-7.91c-15.52,16.5-43.78,17.72-64.3,13.42-1.24-.26-2-1.27-1.65-2.25a2.45,2.45,0,0,1,2.85-1.3c5.72,1.2,29.73,5.4,48.18-3.79a39.88,39.88,0,0,0,3.69-8.7c-6.95,4.65-19.46,7.69-37.79,9.2h-.24a2.18,2.18,0,0,1-2.31-1.65c-.14-1,.79-1.91,2.07-2,24.08-2,37.45-6.62,39.78-13.76a45.16,45.16,0,0,0-1.7-16.35,58.87,58.87,0,0,1-11.67,9.63,2.75,2.75,0,0,1-1.46.41,2.6,2.6,0,0,1-1.81-.69,1.59,1.59,0,0,1,.35-2.58"/><path d="M79.62,111.43a98.56,98.56,0,0,1,20.9,6.86c-4.42-5.56-7.32-11-8.65-16.19-.25-1,.56-1.94,1.8-2.13a2.34,2.34,0,0,1,2.71,1.42c2,8,8.16,16.6,18.19,25.6q1.77,1.41,3.41,2.94c11.35,9.48,18.58,19.35,22.73,32.24V136.34c0-14.35,0-38.37-11.14-52.08a1.6,1.6,0,0,1,.7-2.5,2.7,2.7,0,0,1,3.18.55A44,44,0,0,1,140.71,96V71a2.37,2.37,0,0,1,4.6,0V96a43.86,43.86,0,0,1,7.27-13.69,2.68,2.68,0,0,1,3.17-.55,1.6,1.6,0,0,1,.7,2.5C145.31,98,145.31,122,145.31,136.34v25.83c4.16-12.89,11.38-22.76,22.73-32.24,1.1-1,2.23-2,3.41-2.94,10-9,16.15-17.6,18.19-25.6a2.34,2.34,0,0,1,2.71-1.42c1.25.19,2.05,1.15,1.8,2.13q-2,7.83-8.64,16.19a98.37,98.37,0,0,1,20.9-6.86c-4.49-9.61-13.06-18-22.3-23.2,3,21.28-17.72,38.48-28.44,43.35a2.89,2.89,0,0,1-1.15.24,2.49,2.49,0,0,1-2-.91,1.62,1.62,0,0,1,.85-2.47c8.88-4,22.25-15.55,25.61-29.65a1.29,1.29,0,0,1-.19-.32c-1.66-3.87-4.71-7.25-8.47-10.73-7.22,4.27-12.19,14.39-12,24.25,4.38-3,8.06-10.5,9.18-14.48a2.38,2.38,0,0,1,2.75-1.38c1.24.22,2,1.18,1.74,2.16,0,.16-5.06,16.38-15.19,18.4a3.66,3.66,0,0,1-.57,0,2.69,2.69,0,0,1-1.32-.33,1.79,1.79,0,0,1-1-1.3c-1.46-11.89,4.29-24.53,13.34-30.09l-2.22-1.93C156.83,76,147.69,68,143,55.44,138.33,68,129.19,76,121,83.09c-.76.65-1.5,1.3-2.22,1.93,9.05,5.56,14.8,18.2,13.33,30.09a1.75,1.75,0,0,1-1,1.3,2.72,2.72,0,0,1-1.32.33,3.66,3.66,0,0,1-.57,0c-10.14-2-15.15-18.24-15.2-18.4-.27-1,.51-1.94,1.75-2.16a2.36,2.36,0,0,1,2.74,1.38c1.13,4,4.81,11.48,9.18,14.48.21-9.86-4.76-20-12-24.25-3.76,3.48-6.82,6.86-8.47,10.73a1.69,1.69,0,0,1-.19.32c3.36,14.1,16.73,25.62,25.61,29.65a1.61,1.61,0,0,1,.84,2.47,2.47,2.47,0,0,1-2,.91,2.86,2.86,0,0,1-1.15-.24c-10.72-4.87-31.48-22.07-28.44-43.35-9.25,5.25-17.81,13.59-22.3,23.2"/><path d="M105.72,179.18c12.44,1.16,22.87,5,30.49,11-14.38-25.5-49.51-38.73-72.71-40.05-1.28-.08-2.25-.95-2.15-2a2.22,2.22,0,0,1,2.48-1.7c22.67,1.29,60.32,13.73,76.23,41.42-1.7-25.57-9.15-40.72-26-54.86q-1.77-1.5-3.42-3c-8.64-7-19.62-11.83-33.37-14.81a34.21,34.21,0,0,0-1.46,5.58c28.77,4.56,47.45,29.26,54.05,43.46a1.71,1.71,0,0,1-1.22,2.3,2.65,2.65,0,0,1-3-.78c-5.87-8.43-16.46-13-27.67-17.85C83.5,141.67,68.6,135.23,64,120a39.78,39.78,0,0,0-4.76,8.42,51,51,0,0,0,12.94,11.43,1.58,1.58,0,0,1,.34,2.58,2.6,2.6,0,0,1-1.81.69,2.78,2.78,0,0,1-1.46-.41,59.16,59.16,0,0,1-11.67-9.63,44.93,44.93,0,0,0-1.69,16.35c2.32,7.14,15.69,11.77,39.78,13.76,1.27.1,2.2,1,2.07,2a2.2,2.2,0,0,1-2.31,1.65h-.25c-18.32-1.51-30.84-4.55-37.78-9.2a40.33,40.33,0,0,0,3.68,8.7c18.46,9.19,42.46,5,48.19,3.79a2.44,2.44,0,0,1,2.84,1.3c.33,1-.41,2-1.65,2.25-20.51,4.3-48.78,3.08-64.3-13.42a26.1,26.1,0,0,0-.23,7.91c2.94,3.58,10.5,7.5,19.81,8.34,1.28.12,2.2,1,2.05,2a2.2,2.2,0,0,1-2.31,1.62h-.26a43.3,43.3,0,0,1-17.86-5.56,39.55,39.55,0,0,0,10.15,16c10.37-8.51,29.71-13.18,48.24-11.45"/></g><g mask="url(#0)"><path d="M282.8,167.81C260.23,93,168.71,25,142.82,0,116.93,25,25.41,93,2.83,167.81A61.28,61.28,0,0,0,.72,195.3c3.66,34.93,34.2,62.19,71.34,62.19,34.32,0,63.39-24.34,70.43-55.45,0-.06,0-.12.07-.17h-.11l-.13,0h-.13l-.08,0-.09,0h0l-.07,0-.09,0-.1-.05-.1,0,0,0-.05,0-.09-.05-.08-.06-.08-.05-.09-.07-.06-.06a.3.3,0,0,1-.08-.08l-.06-.05-.07-.09,0,0c-1.64-2.15-9.5-4.93-18.09-4.44-7.32.42-17.29,3.27-23.19,14.41a2.39,2.39,0,0,1-2.14,1.12,2.72,2.72,0,0,1-.89-.14,1.71,1.71,0,0,1-1.24-2.38c7.17-13.53,20.07-16.24,27.12-16.65a42.06,42.06,0,0,1,12.84,1.22c-9.13-8.51-22.06-11-29.83-11.74-16.92-1.58-35.11,2.77-44.3,10.41a33.69,33.69,0,0,0,6.52,3.92,2.55,2.55,0,0,1,.49.3c13.22.33,28.38-2.25,36.09-7.49-7.19-1-15.44-.72-26.09,4.12A2.67,2.67,0,0,1,75,193a1.64,1.64,0,0,1,.85-2.49c14.09-6.4,24.81-5.53,33.44-3.83a2.21,2.21,0,0,1,1.62,1.15,1.53,1.53,0,0,1-.32,1.71c-9.87,10.43-40,13.71-57.56,9.32a38.81,38.81,0,0,0,8.67,8.32c6,3.15,18-.16,24.76-3.22a2.67,2.67,0,0,1,3.16.66,1.63,1.63,0,0,1-.84,2.49A57.58,57.58,0,0,1,70.31,212c7.52,3.31,17.22,5.49,29.39,5.13a2.17,2.17,0,0,1,2.4,1.76,2.07,2.07,0,0,1-2.23,1.89c-.94,0-1.86,0-2.77,0-17.19,0-29.66-4.82-38.11-10.71l-.45-.26a1.87,1.87,0,0,1-.52-.44c-6.14-4.51-10-9.55-11.87-13.51a1.59,1.59,0,0,1,.67-2,2.83,2.83,0,0,1,2.65-.19,36.42,36.42,0,0,0,9.63,2.59c-9.4-6.62-15.79-17.14-17.15-27.46a1.66,1.66,0,0,1-.07-.49,27.15,27.15,0,0,1,1.63-13.4,2.25,2.25,0,0,1,2-1.26,2.53,2.53,0,0,1,2.25.9,36.14,36.14,0,0,0,6.8,7,43.56,43.56,0,0,1-2.81-12.2c0-.11-.05-.21-.07-.32a1.35,1.35,0,0,1,0-.6C50.79,135,56.14,122.05,64,114.26a2.7,2.7,0,0,1,2.44-.62,2,2,0,0,1,1.67,1.54,26.85,26.85,0,0,0,3.17,9.29q0-1.09.18-2.19a1.11,1.11,0,0,1,0-.17,36.39,36.39,0,0,1,2.42-9.25,1.16,1.16,0,0,1,0-.18,1.46,1.46,0,0,1,.18-.38c5.32-12.74,17.26-23.61,29.48-29.16a2.8,2.8,0,0,1,2.52.11,1.65,1.65,0,0,1,.89,1.86,27.26,27.26,0,0,0-1,6.87c3-3.89,7.1-7.43,11.35-11.11,9.53-8.28,20.34-17.66,23.31-34.38h0l0-.13,0-.05s0-.08,0-.12l0-.06.06-.11,0,0,.1-.14h0a2.37,2.37,0,0,1,1.66-.87h.74l.17,0h0a2.4,2.4,0,0,1,1.26.67h0l.11.13,0,.05A.76.76,0,0,1,145,46l0,.06.06.1a.14.14,0,0,0,0,.06.56.56,0,0,1,0,.12s0,0,0,.05l0,.13h0c3,16.72,13.78,26.1,23.32,34.38,4.24,3.68,8.32,7.22,11.34,11.11a26.81,26.81,0,0,0-1-6.87,1.65,1.65,0,0,1,.89-1.86,2.82,2.82,0,0,1,2.53-.11c12.21,5.55,24.15,16.42,29.47,29.16a1.46,1.46,0,0,1,.18.38,1.21,1.21,0,0,1,.05.18,36.64,36.64,0,0,1,2.41,9.23h0a1.11,1.11,0,0,1,0,.19q.13,1.08.18,2.19a26.7,26.7,0,0,0,3.17-9.3,2,2,0,0,1,1.68-1.54,2.71,2.71,0,0,1,2.44.62c7.8,7.79,13.15,20.7,12.3,34.24a1.51,1.51,0,0,1,0,.6l-.08.32a43.56,43.56,0,0,1-2.81,12.2,36.19,36.19,0,0,0,6.81-7,2.5,2.5,0,0,1,2.25-.9,2.24,2.24,0,0,1,1.95,1.26,27.15,27.15,0,0,1,1.63,13.4,1.38,1.38,0,0,1-.06.49c-1.37,10.32-7.76,20.84-17.16,27.46a36.42,36.42,0,0,0,9.63-2.59,2.82,2.82,0,0,1,2.65.19,1.59,1.59,0,0,1,.68,2c-1.88,4-5.73,9-11.87,13.51a2.11,2.11,0,0,1-.53.44c-.15.09-.3.18-.46.26-8.44,5.89-20.91,10.71-38.1,10.71-.91,0-1.83,0-2.77,0a2.08,2.08,0,0,1-2.23-1.89,2.18,2.18,0,0,1,2.4-1.76c12.18.36,21.89-1.82,29.4-5.13a57.39,57.39,0,0,1-18.5-4.91,1.63,1.63,0,0,1-.84-2.49,2.67,2.67,0,0,1,3.16-.66C206,207,218,210.33,224,207.16a38.63,38.63,0,0,0,8.65-8.3c-17.53,4.39-47.69,1.11-57.55-9.32a1.53,1.53,0,0,1-.33-1.71,2.21,2.21,0,0,1,1.62-1.15c8.63-1.7,19.35-2.57,33.44,3.83a1.63,1.63,0,0,1,.85,2.49,2.67,2.67,0,0,1-3.16.67c-10.65-4.84-18.89-5.11-26.09-4.12,7.71,5.24,22.88,7.82,36.09,7.49a2.9,2.9,0,0,1,.49-.3,33.69,33.69,0,0,0,6.52-3.92c-9.19-7.64-27.38-12-44.29-10.41-7.78.72-20.71,3.23-29.84,11.74a42.06,42.06,0,0,1,12.84-1.22c7.05.41,19.95,3.12,27.12,16.65a1.7,1.7,0,0,1-1.24,2.38,2.72,2.72,0,0,1-.89.14,2.42,2.42,0,0,1-2.14-1.12c-5.9-11.14-15.87-14-23.19-14.41-8.58-.5-16.45,2.29-18.09,4.44l0,0-.08.09-.05.05-.09.09-.06,0-.09.07-.07.05-.09.06-.09.05-.09,0h0l-.09,0-.06,0h-.05l-.08,0-.07,0h-.05l-.08,0-.09,0h-.12l-.14,0h-.16l.05.14c6.62,31.65,35.57,55.47,70.28,55.47,31.75,0,58.67-19.93,68.1-47.54,6.1-13.75,5.11-29.32,1.24-42.14" fill="#585afa"/></g><g fill="#585afa"><path d="m99.89 144.9c6.21 2.63 12.54 5.31 18.06 8.73-8.72-11.76-23.37-25.24-42.72-28.46a27.62 27.62 0 0 0 .3 5.73 1.8 1.8 0 0 1 0 .4c6.21 5.9 15.13 9.69 24.35 13.6"/><path d="M209,130.9a27.62,27.62,0,0,0,.3-5.73c-19.35,3.22-34,16.7-42.72,28.46,5.52-3.42,11.85-6.1,18.06-8.73,9.23-3.91,18.14-7.7,24.35-13.6a1.8,1.8,0,0,1,0-.4"/></g></g></svg>