<svg enable-background="new 0 0 35 36" viewBox="0 0 35 36" xmlns="http://www.w3.org/2000/svg"><path clip-rule="evenodd" d="m8.7 32.4c4.2 0 7.7-3.1 8.5-7 .9 4 4.4 7 8.6 7 3.9 0 7.1-2.5 8.3-6 .7-1.7.6-3.7.2-5.3-2.7-9.4-13.9-18-17-21.1-3.2 3.1-14.2 11.7-17 21.1-.3 1.1-.4 2.3-.3 3.5.5 4.4 4.2 7.8 8.7 7.8z" fill="#5265f8" fill-rule="evenodd"/><path clip-rule="evenodd" d="m25.6 36v-1c-4.1-.1-7.5-3.1-8.3-7 0-.1 0-.1-.1 0-.8 3.8-4.2 6.9-8.3 7v1z" fill="#5265f8" fill-rule="evenodd"/><g fill="#fff"><path d="m17.3 9.3-8 3.7 8 4.6 7.9-4.6z" opacity=".36"/><path d="m9.3 13 8 4.6v-17.6z" opacity=".2025"/><path d="m17.3 0v17.6l7.9-4.6z" opacity=".64"/><path d="m9.3 14.5 8 10.9v-6.3z" opacity=".2025"/><path d="m17.3 19.1v6.3l7.9-10.9z" opacity=".64"/></g></svg>