<svg enable-background="new 0 0 32 32" viewBox="0 0 32 32" xmlns="http://www.w3.org/2000/svg"><circle cx="16" cy="16" fill="#fd7a3d" r="16"/><path d="m25.2 19.4c.8.4 1 1.4.5 2.1-.4.8-1.4 1-2.2.6-.5-.3-.8-.8-.8-1.3h-3.9l-1.9 3.2s0 .1-.1.1c.4.3.7.8.7 1.3 0 .8-.7 1.6-1.6 1.6s-1.6-.7-1.6-1.6c0-.5.3-1 .7-1.3 0 0 0-.1-.1-.1l-1.9-3.2h-3.8c0 .5-.3 1-.8 1.3-.8.4-1.8.2-2.2-.6s-.2-1.7.6-2.1c.5-.3 1.1-.3 1.5 0 0 0 0-.1.1-.2l1.9-3.2-1.9-3.2s-.1-.1-.1-.2c-.5.2-1.1.3-1.5 0-.8-.4-1-1.4-.6-2.1.4-.8 1.4-1 2.2-.6.5.3.8.8.8 1.3h4l1.9-3.2s0-.1.1-.1c-.5-.3-.7-.8-.7-1.3 0-.9.7-1.6 1.5-1.6.9 0 1.6.7 1.6 1.6 0 .5-.3 1-.7 1.3 0 0 0 .1.1.1l1.9 3.2h3.9c0-.5.3-1 .8-1.3.8-.4 1.8-.2 2.2.6.4.7.2 1.7-.6 2.1-.5.3-1.1.3-1.5 0 0 0 0 .1-.1.2l-1.9 3.2 1.9 3.2s.1.1.1.2c.4-.3 1-.3 1.5 0zm-7.1-4.5c0-.9-.7-1.6-1.6-1.6h-2.1c-.2 0-.4.2-.4.4v4.5c0 .2.2.4.4.4h2.1c.9 0 1.6-.7 1.6-1.6 0-.4-.1-.8-.4-1 .2-.3.4-.6.4-1.1z" fill="#fff"/></svg>