<svg enable-background="new 0 0 226.8 226.8" viewBox="0 0 226.8 226.8" xmlns="http://www.w3.org/2000/svg"><g fill="#b4d204"><path d="m80.3 117.3h-5.8v13.5h5.8c2.8 0 7-1.5 7-6.6s-2.4-6.9-7-6.9zm33.9-20.1h-4.8v14.8h4.2c3.2 0 8-1.1 8-7.4.1-6.2-4-7.4-7.4-7.4zm-28.9 6c0-4.5-2.1-6-5.9-6h-4.9v11.8h4.9c2.3 0 5.9-1.3 5.9-5.8z"/><path d="m113.5 36.9c-42 0-76 34-76 76s34 76 76 76 76-34 76-76-34-76-76-76zm-17.2 90.6c-1.3 9.6-9.9 12.7-15.6 12.7h-15.4v-52.2h15.6c10.2 0 13.7 6.3 13.5 14.3-.2 6.3-4.9 9.7-6.9 9.9 5.1 1.5 10.2 5.6 8.8 15.3zm26.1 12.6-8.1-18.9c-.2 0-3.8 0-4.9 0v18.9h-9.4v-52.1h16.2c7.2 0 14.5 4.1 14.5 16.2 0 7.6-2.8 12.4-7.4 14.8l9.4 21c.1.1-10.3.1-10.3.1zm46.2 0h-10.3l-7.4-18.9-6.7 18.9h-9.9l11.4-26.8-10.9-25.3h10.4l6.6 18.4 6-18.4h10.1l-10.7 26z"/><path d="m113.4 0c-62.6 0-113.4 50.8-113.4 113.4s50.8 113.4 113.4 113.4 113.4-50.8 113.4-113.4-50.8-113.4-113.4-113.4zm85.1 131.4s-7 7.4-15.2 21.6c-8.2 14.1-11.1 23.9-11.1 23.9l10.1 5.8c-11.5 11.3-25.7 19.8-41.6 24.4v-12s-9.9-2.4-26.3-2.4c-16.3 0-26.3 2.4-26.3 2.4v12.5c-16.3-4.4-30.9-12.8-42.7-24.2l11.2-6.5s-2.9-9.8-11.1-23.9-15.2-21.6-15.2-21.6l-11.6 6.7c-2.2-8.2-3.3-16.7-3.3-25.2 0-8.3 1-16.6 3.1-24.7l11.8 6.8s7-7.4 15.2-21.6c8.2-14.1 11.1-23.9 11.1-23.9l-11.6-6.7c11.9-11.6 26.6-20.2 43.1-24.6v13.1s9.9 2.3 26.3 2.3c16.3 0 26.3-2.4 26.3-2.4v-12.5c16.1 4.6 30.5 13.3 42 24.8l-10.5 6.1s2.9 9.8 11.1 23.9 15.2 21.6 15.2 21.6l10.2-5.9c1.9 7.8 2.9 15.7 2.9 23.7 0 8.2-1 16.3-3 24.3z"/></g></svg>