<svg enable-background="new 0 0 358.8 352.9" viewBox="0 0 358.8 352.9" xmlns="http://www.w3.org/2000/svg" xmlns:xlink="http://www.w3.org/1999/xlink"><linearGradient id="a" gradientUnits="userSpaceOnUse" x1="178.8944" x2="181.5611" y1="346.5193" y2="6.8526"><stop offset="0" stop-color="#924099"/><stop offset="1" stop-color="#348dcc"/></linearGradient><path d="m111.9 233.5c-17.8 0-32.2 14.4-32.2 32.2s14.4 32.2 32.2 32.2 32.2-14.4 32.2-32.2c-.1-17.8-14.5-32.2-32.2-32.2zm0 45.8c-7.5 0-13.7-6.1-13.7-13.7 0-7.5 6.1-13.7 13.7-13.7 7.5 0 13.7 6.1 13.7 13.7-.1 7.6-6.2 13.7-13.7 13.7zm157.1-79.6c-17.8 0-32.2 14.4-32.2 32.2s14.4 32.2 32.2 32.2 32.2-14.4 32.2-32.2-14.4-32.2-32.2-32.2zm0 45.8c-7.5 0-13.7-6.1-13.7-13.7 0-7.5 6.1-13.7 13.7-13.7 7.5 0 13.7 6.1 13.7 13.7s-6.1 13.7-13.7 13.7zm-5.2-45.4c1.1-18.7.9-57.2-19-99.8-18.2-39.2-44.4-63.1-58.8-74.7-16.1 6.1-44.9 19.4-71.3 47.4-21.2 22.4-32.4 45.4-38.3 60.3-5.6 4.3-11.8 9.6-18 16-7.7 7.8-13.7 15.5-18.5 22.3 4.2-20.9 15.6-62.6 49.1-103.4 30.4-37 65.2-56.6 87.4-66.4 6.6-2.9 14.2-2.1 20.1 2.1 17.8 13 42.6 35.2 62 69.5 31.9 56.3 29.7 110.6 27.7 131.3-2.1-1.4-5.5-3.1-9.8-4.1-5.3-1.3-9.8-1-12.6-.5zm-68.7 135.7c-8.6-2.2-16.3-4.9-22.9-7.6-15.9 2.4-41.4 4.1-71.4-3-37.4-8.9-63.3-27.2-76.6-38.2 2.7-18.3 10.4-52.9 35.2-88.3 27-38.4 60.2-57.9 76.9-66.3-1.6-2-3.8-5.3-5.4-9.9 4.3 12.7 16.3 21.8 30.4 21.8 17.8 0 32.2-14.4 32.2-32.2s-14.4-32.2-32.2-32.2c-17.2 0-31.2 13.5-32.1 30.5 0 0 0 0 0-.1-19 8.7-67.3 34.2-100.1 90-20 34-26.8 66.6-29.1 88.5-.8 7.2 2.3 14.2 8.2 18.5 19.6 14.2 54 34.7 101.2 42.5 52.1 8.6 94-2.4 114.2-9.2-8.2-.7-17.8-2.1-28.5-4.8zm-33.7-237.3c7.5 0 13.7 6.1 13.7 13.7 0 7.5-6.1 13.7-13.7 13.7s-13.7-6.1-13.7-13.7c.1-7.6 6.2-13.7 13.7-13.7zm-32.1 13.9v.9c0-.3 0-.6 0-.9zm1.3 8.9c0-.1-.1-.3-.1-.4.1.2.1.4.2.6-.1-.1-.1-.1-.1-.2zm-1.2-6.4v.3c0-.1 0-.2 0-.3zm.1 1.4v.3c.1 0 .1-.2 0-.3zm.3 1.5c0 .1 0 .2.1.4-.1-.1-.1-.2-.1-.4zm.3 1.6c0 .2.1.3.1.5 0-.2-.1-.4-.1-.5zm-.8-7.6c0-.4 0-.8 0-1.2zm12.6 165.5c15.6 10.3 49.2 29.4 96 33.5 43.1 3.8 76.9-6.8 94.1-13.6 2.8-17 5.7-48.6-5.3-85.4-8.8-29.5-23.1-50.8-33.1-63.4-.9-7-2.5-15-4.9-23.6-2.9-10.6-6.6-19.7-10.1-27.2 16 14.2 46.5 44.9 65.1 94.3 16.9 44.8 16.4 84.8 13.8 108.9-.8 7.2-5.3 13.4-11.9 16.3-20.1 8.9-51.8 19.3-91.2 19-64.7-.5-110.8-29.8-127.8-41.8 2.3-1.2 5.4-3.1 8.5-6.4 3.8-3.9 5.8-8 6.8-10.6z" fill="url(#a)"/></svg>