<svg enable-background="new 0 0 297.6 339" viewBox="0 0 297.6 339" xmlns="http://www.w3.org/2000/svg"><path d="m148.8 146.8c12.5 0 22.7 10.2 22.7 22.7s-10.2 22.7-22.7 22.7-22.7-10.2-22.7-22.7 10.2-22.7 22.7-22.7m0-13.5c-20 0-36.2 16.2-36.2 36.2s16.2 36.2 36.2 36.2 36.2-16.2 36.2-36.2-16.2-36.2-36.2-36.2z" fill="#00fff4"/><g fill="#00cec8"><path d="m148.8 239c12.5 0 22.7 10.2 22.7 22.7s-10.2 22.7-22.7 22.7-22.7-10.2-22.7-22.7 10.2-22.7 22.7-22.7m0-13.5c-20 0-36.2 16.2-36.2 36.2s16.2 36.2 36.2 36.2 36.2-16.2 36.2-36.2-16.2-36.2-36.2-36.2z"/><path d="m228.6 193.6c12.5 0 22.7 10.2 22.7 22.7s-10.2 22.7-22.7 22.7-22.6-10.2-22.6-22.7 10.1-22.7 22.6-22.7m0-13.5c-20 0-36.2 16.2-36.2 36.2s16.2 36.2 36.2 36.2 36.2-16.2 36.2-36.2-16.2-36.2-36.2-36.2z"/><path d="m228.6 101.1c12.5 0 22.7 10.2 22.7 22.7s-10.2 22.7-22.7 22.7-22.6-10.2-22.6-22.7 10.1-22.7 22.6-22.7m0-13.5c-20 0-36.2 16.2-36.2 36.2s16.2 36.2 36.2 36.2 36.2-16.2 36.2-36.2-16.2-36.2-36.2-36.2z"/><path d="m69 101.1c12.5 0 22.7 10.2 22.7 22.7s-10.2 22.7-22.7 22.7-22.7-10.2-22.7-22.7 10.2-22.7 22.7-22.7m0-13.5c-20 0-36.2 16.2-36.2 36.2s16.2 36.2 36.2 36.2 36.2-16.2 36.2-36.2-16.2-36.2-36.2-36.2z"/><path d="m69 193.6c12.5 0 22.7 10.2 22.7 22.7s-10.2 22.7-22.7 22.7-22.7-10.2-22.7-22.7 10.2-22.7 22.7-22.7m0-13.5c-20 0-36.2 16.2-36.2 36.2s16.2 36.2 36.2 36.2 36.2-16.2 36.2-36.2-16.2-36.2-36.2-36.2z"/><path d="m148.8 54.6c12.5 0 22.7 10.2 22.7 22.7s-10.2 22.7-22.7 22.7-22.7-10.2-22.7-22.7 10.2-22.7 22.7-22.7m0-13.5c-20 0-36.2 16.2-36.2 36.2s16.2 36.2 36.2 36.2 36.2-16.2 36.2-36.2-16.2-36.2-36.2-36.2z"/></g><circle cx="284.9" cy="247.3" fill="#007c82" r="12.7"/><circle cx="148.8" cy="326.3" fill="#007c82" r="12.7"/><circle cx="12.7" cy="247.3" fill="#007c82" r="12.7"/><circle cx="12.7" cy="91.7" fill="#007c82" r="12.7"/><circle cx="148.8" cy="12.7" fill="#007c82" r="12.7"/><circle cx="284.9" cy="91.7" fill="#007c82" r="12.7"/></svg>