<svg xmlns="http://www.w3.org/2000/svg" viewBox="0 0 1000 1000"><path d="M985,621C918.26,888.82,646.92,1051.82,379,985S-51.83,646.94,15,379.1,353.06-51.82,620.9,15,1051.82,353.09,985,621h0Z" fill="#f7931a"/><path d="m720.49 428.77c9.94-66.53-40.72-102.3-110-126.16l22.51-90.12-54.88-13.67-21.92 87.75c-14.41-3.59-29.22-7-43.94-10.34l22-88.33-54.83-13.67-22.43 90.09-110.66-27.41-14.6 58.59s40.71 9.33 39.85 9.91c22.22 5.55 26.25 20.25 25.57 31.91l-61.57 246.89c-2.72 6.75-9.61 16.87-25.14 13 .55.8-39.88-10-39.88-10l-27.24 62.89 110.51 27.9-22.71 91.17 54.8 13.67 22.5-90.19c15 4.06 29.49 7.81 43.71 11.34l-22.41 89.77 54.87 13.67 22.71-91c93.56 17.7 163.92 10.56 193.51-74 23.86-68.12-1.17-107.42-50.4-133.06 35.85-8.3 62.85-31.87 70.05-80.58m-125.35 175.75c-17 68.12-131.67 31.31-168.88 22.06l30.13-120.77c37.19 9.28 156.44 27.66 138.77 98.7m16.98-176.74c-15.47 62-110.95 30.48-141.94 22.77l27.27-109.56c30.99 7.74 130.75 22.15 114.62 86.79" fill="#fff"/></svg>