<svg xmlns="http://www.w3.org/2000/svg" viewBox="0 0 1235.99 2000"><path d="M430.77,1253.54L0,822.77v517.74H397A211.06,211.06,0,0,1,430.77,1253.54ZM397,1425.38H0a623.61,623.61,0,0,0,150.4,365.34l280.37-283.48A181,181,0,0,1,397,1425.38h0Zm626.16-510.53A598.72,598.72,0,0,0,657.93,764.34V1160.9a215.2,215.2,0,0,1,85,33.33ZM808.33,1503.14L1088.7,1783.5A613.6,613.6,0,0,0,1236,1423.27H837a241.16,241.16,0,0,1-28.66,79.86h0ZM837,1340.51h397a623.72,623.72,0,0,0-150.4-365.34L803.22,1256.54a196.39,196.39,0,0,1,33.78,84h0ZM210.27,1849.6A598.61,598.61,0,0,0,575.62,2000V1602.44a214.72,214.72,0,0,1-85-33.33Zm447.66-247.15v397a613.06,613.06,0,0,0,365.34-152.51l-278.4-278.4a237.49,237.49,0,0,1-87,33.88h0ZM0,694.4c106.4,106.4,440,443.1,496.3,498.3a254.15,254.15,0,0,1,77.76-31.77V512.63L1,0C0,0,0,675.37,0,694.4Z" fill="#35baeb"/></svg>