<svg xmlns="http://www.w3.org/2000/svg" viewBox="0 0 226.78 226.78" width="2500" height="2500"><defs><style>.cls-1{fill:#35baeb}</style></defs><title>bts</title><g id="Laag_2" data-name="Laag 2"><path class="cls-1" d="M98.85 131.34L60.07 92.56v46.61h35.74a19 19 0 0 1 3.04-7.83zM95.81 146.81H60.07a56.14 56.14 0 0 0 13.54 32.89l25.24-25.52a16.29 16.29 0 0 1-3.04-7.37zM152.18 100.85A53.9 53.9 0 0 0 119.3 87.3V123a19.37 19.37 0 0 1 7.65 3zM132.84 153.81l25.24 25.24a55.24 55.24 0 0 0 13.26-32.43h-35.92a21.71 21.71 0 0 1-2.58 7.19zM135.42 139.17h35.74a56.15 56.15 0 0 0-13.54-32.89l-25.24 25.33a17.68 17.68 0 0 1 3.04 7.56zM79 185a53.89 53.89 0 0 0 32.89 13.54v-35.79a19.33 19.33 0 0 1-7.65-3zM119.3 162.75v35.74a55.19 55.19 0 0 0 32.89-13.73l-25.06-25.06a21.38 21.38 0 0 1-7.83 3.05zM60.07 81c9.58 9.58 39.61 39.89 44.68 44.86a22.88 22.88 0 0 1 7-2.86V64.64L60.16 18.49c-.09 0-.09 60.8-.09 62.51z"/></g></svg>