<svg enable-background="new 0 0 36.6 39.3" viewBox="0 0 36.6 39.3" xmlns="http://www.w3.org/2000/svg" xmlns:xlink="http://www.w3.org/1999/xlink"><linearGradient id="a"><stop offset="0" stop-color="#00d080"/><stop offset="1" stop-color="#0bdd60"/></linearGradient><linearGradient id="b" gradientTransform="matrix(1 0 0 -1 0 -316.9171)" gradientUnits="userSpaceOnUse" x1="8" x2="8" xlink:href="#a" y1="-319.1958" y2="-352.0299"/><linearGradient id="c" gradientTransform="matrix(1 0 0 -1 0 -316.9171)" gradientUnits="userSpaceOnUse" x1="12.7625" x2="12.7625" xlink:href="#a" y1="-319.1958" y2="-352.0299"/><linearGradient id="d" gradientTransform="matrix(1 0 0 -1 0 -316.9171)" gradientUnits="userSpaceOnUse" x1="28.65" x2="28.65" xlink:href="#a" y1="-319.1958" y2="-352.0299"/><linearGradient id="e" gradientTransform="matrix(1 0 0 -1 0 -316.9171)" gradientUnits="userSpaceOnUse" x1="8.05" x2="8.05" xlink:href="#a" y1="-319.1958" y2="-352.0299"/><path d="m16 10.3v-10.2c0-.1-.1-.2-.2-.1l-15.7 9-.1.1v10.2c0 .2.2.2.3.2l15.6-9c0-.1.1-.1.1-.2z" fill="url(#b)"/><path d="m16 23.1v-7.1c0-.1-.1-.2-.2-.1l-6.2 3.6c-.1.1-.1.2 0 .3l6.1 3.5c.1 0 .3 0 .3-.2z" fill="url(#c)"/><path d="m31.6 6.4v20.5c0 .1 0 .1-.1.1l-4.4 2.6c-.1.1-.2 0-.2-.1v-25.9c0-.1 0-.1-.1-.1l-5.9-3.4c-.1-.1-.2 0-.2.1v7.6 23.7 7.6c0 .1.1.2.2.1l15.6-9 .1-.1v-20.9c0-.1 0-.1-.1-.1l-4.7-2.7c-.1-.1-.2-.1-.2 0z" fill="url(#d)"/><path d="m15.9 28.8-15.6-9c-.1-.1-.2 0-.2.1v10.2c0 .1 0 .1.1.1l15.6 9c.1.1.2 0 .2-.1v-10.2c0-.1-.1-.1-.1-.1z" fill="url(#e)"/></svg>