<svg xmlns="http://www.w3.org/2000/svg" width="2000" height="2000" viewBox="0 0 2000 2000"><g opacity=".8" fill="#040000"><path d="M692.58 308.22 1236.8 852.44 775.16 0 389.19 389.42 692.58 308.22z"/><path d="m1307.42 1691.78l-544.22-544.22 461.64 852.44 385.74-389.42-303.16 81.2"/><path d="m308.22 1307.42l348.94-739.74-534.1 534.33-123.06 122.83 389.42 385.74-81.2-303.16"/><path d="m1692.01 692.35l-544.45 544.45 852.44-461.64-389.42-385.97 81.43 303.16"/></g><g opacity=".8" fill="#323333"><path d="M1432.09 656.93 897.99 123.06 775.16 0 1236.8 852.44 1432.09 656.93z"/><path d="m567.91 1342.84l656.93 657.16-461.64-852.44-195.29 195.28"/><path d="m852.44 763.2l-195.28-195.52-348.94 739.74 544.22-544.22"/><path d="m1342.84 1432.09l657.16-656.93-852.44 461.64 195.28 195.29"/></g><g opacity=".8" fill="#555"><path d="M164 163.77 0 775.16 333.99 595.75 164 163.77z"/><path d="m1836.23 1836.23l163.77-611.39-333.98 179.19 170.21 432.2"/><path d="M164 1836 775.16 2000 595.98 1665.79 164 1836z"/><path d="M1836.23 163.77 1224.84 0 1404.03 333.99 1836.23 163.77z"/></g><g opacity=".8" fill="#323333"><path d="M389.19 389.42 775.16 0 164 163.77 333.99 595.75 389.19 389.42z"/><path d="m1610.58 1610.58l-385.74 389.42 611.39-163.77-170.21-432.2-55.44 206.55"/><path d="M389.42 1610.58 0 1224.84 164 1836 595.98 1665.79 389.42 1610.58z"/><path d="m1610.58 389.19l389.42 385.97-163.77-611.39-432.2 170.22 206.55 55.2"/></g><g opacity=".8" fill="#040000"><path d="M333.99 595.75 0 775.16 77.52 852.44 333.99 595.75z"/><path d="m1666.02 1404.03l333.98-179.19-77.52-77.28-256.46 256.47"/><path d="m775.16 2000l77.28-77.52-256.46-256.69 179.18 334.21"/><path d="M1224.84 0 1147.56 77.52 1404.03 333.99 1224.84 0z"/></g></svg>