<svg enable-background="new 0 0 32 32" viewBox="0 0 32 32" xmlns="http://www.w3.org/2000/svg"><circle clip-rule="evenodd" cx="16" cy="16" fill="#f70808" fill-rule="evenodd" r="16"/><path d="m16 6-1.7 3c-.2.3-.5.3-.9.1l-1.2-.6.9 4.6c.2.8-.4.8-.7.5l-2.1-2.3-.3 1.2c0 .2-.2.3-.5.3l-2.7-.5.7 2.5c.2.5.3.8-.2.9l-.9.4 4.6 3.6c.2.1.3.4.2.6l-.4 1.3c1.6-.2 3-.4 4.6-.6.1 0 .4.2.4.4l-.2 4.6h.8l-.1-4.7c0-.2.2-.4.3-.4 1.6.2 3 .4 4.6.6l-.4-1.3c-.1-.2 0-.5.2-.6l4.6-3.6-.9-.4c-.4-.1-.3-.4-.1-.9l.7-2.5-2.7.5c-.3 0-.4-.1-.5-.3l-.3-1.2-2.1 2.3c-.3.4-.9.4-.7-.5l.9-4.6-1.2.6c-.3.2-.7.2-.9-.1z" fill="#fff"/></svg>