<svg id="Layer_1" xmlns="http://www.w3.org/2000/svg" viewBox="0 0 419.4 422.2" width="2483" height="2500"><style>.st0{fill:#fff}.st1{fill:#1b4957}</style><path class="st0" d="M0 0h202.7C163 1.5 123.8 14.5 91.2 37.3c-35.1 24.2-62.6 59.3-77.6 99.2C5 158.9.6 182.8 0 206.7V0z"/><path class="st1" d="M202.7 0h12.7c34.8.9 69.3 10.6 99.4 28.1 31.6 18.3 58.4 45 76.7 76.6 15.9 27.2 25.5 58 27.9 89.4.7 5.8-4.5 11.4-10.4 11.1-33.3.1-66.7 0-100 0-1.6-.1-4.1-.1-4-2.3-.1-2.1 2.1-3.2 3.2-4.7 17.9-18.6 30.9-42.2 36.1-67.6-12.6 9.6-23.6 21.3-32.1 34.6-1 1.4-1.9 3.6-4 2.9-2.5-.4-1.9-3.4-1.8-5.1 3.2-28.9-1.4-58.6-13.2-85.2-12.7 28.1-16.9 59.9-12.7 90.4 0 1.6.9 3.8-.9 4.7-2.1 1.8-4-.7-4.9-2.5-23.8-41-63.2-72.7-108.5-86.8 12.3 40 38.3 75.5 72.3 99.9 1.7 1.2 3.6 2.4 5.1 3.9 1.4 1.4.3 4-1.7 4.2-1.7-.1-3.4-.4-5-.8-48.7-9.7-100.6-2.4-144.5 20.9 44 23.2 96 30.5 144.7 20.8 2-.4 4.8-1.1 5.7 1.4.5 2.3-1.8 3.4-3.3 4.6-34.6 24.1-61 59.8-73.4 100.2 41-12.7 77.3-39.6 101.5-75 3.2-4.4 5.7-9.2 8.8-13.6 1.2-1.7 3.8-.8 4.4 1 .2 1.9-.2 3.9-.4 5.8-3.8 29.7.6 60.4 12.8 87.7 11.7-25.7 16.2-54.5 13.4-82.6-.1-2-.4-4-.2-6 1-1.3 2.2-1.7 3.7-1.2 1.6 1.8 2.8 3.9 4.1 5.8 8.2 11.9 18.3 22.5 29.9 31.2-5-23.8-16.8-46-33.1-64-2.2-2.4-4.7-4.5-6.6-7.1-1-1.5.1-2.8 1.4-3.5 3.6-.4 7.3-.1 10.9-.2 30.7 0 61.4-.2 92.1-.1 5.4-.2 10.4 4.6 10.2 10-3.5 53.2-28.6 104.5-68 140.3-38.5 35.5-90.8 55.7-143.2 54.9-36.7-.3-73.3-10.4-104.9-29.3-26-15.4-48.5-36.5-65.7-61.4C13.9 297.5.8 256.6 0 215.3v-8.7c.6-23.9 5.1-47.8 13.6-70.2 15.1-39.9 42.5-74.9 77.6-99.2C123.8 14.5 163 1.5 202.7 0z"/></svg>