<svg enable-background="new 0 0 122.3 53.5" viewBox="0 0 122.3 53.5" xmlns="http://www.w3.org/2000/svg" xmlns:xlink="http://www.w3.org/1999/xlink"><linearGradient id="a"><stop offset="0" stop-color="#e50e10"/><stop offset="1" stop-color="#9a0b01"/></linearGradient><linearGradient id="b" gradientUnits="userSpaceOnUse" x1="31.3921" x2="9.8921" xlink:href="#a" y1="25.8662" y2="25.6162"/><linearGradient id="c" gradientUnits="userSpaceOnUse" x1="90.2917" x2="113.2917" xlink:href="#a" y1="25.75" y2="25.75"/><linearGradient id="d" gradientUnits="userSpaceOnUse" x1="0" x2="122.25" y1="26.75" y2="26.75"><stop offset="0" stop-color="#ca8a1d"/><stop offset="1" stop-color="#f8e381"/></linearGradient><g fill="#ff010b"><path d="m48.3 17.3.8-3.6h18.6c0 .5 0 1-.1 1.5-.1.8-.3 1.5-.5 2.1-6.3 0-12.6 0-18.8 0z"/><path d="m66.3 19.3c.2-.3.4-.6.4-.9-6.2 0-12.4 0-18.7 0l-2.2 7.8h16.4c.1 0 2.6-.5 3.4-2.8.6-1.7 0-3.1-.2-3.4.3-.1.6-.3.9-.7zm-5.7 4h-9.3l.3-1.9h9.3c.1 0 .5.3.6.8 0 .4-.3.9-.9 1.1z"/><path d="m59.9 28.6h15.1c0 .5-.1 1.4-.5 2.3-.2.5-.5.8-.7 1.1-5.5 0-11.1 0-16.6 0 .1-.4.3-1.4 1.1-2.3.6-.6 1.3-.9 1.6-1.1z"/><path d="m56.9 33.3h4.5c-.4 1.5-.8 3-1.2 4.5h12.6c0 .4.1 2.1-1.1 2.9-.1.1-.3.2-.4.2-4.4.1-8.9.1-13.3.2-.6 0-1-.1-1.2-.3-1.4-.9-1.3-3.9.1-7.5z"/></g><path d="m32 21.9h-23.1c.5 1.1 1.6 3.2 3.8 5 2 1.7 4.1 2.4 5.3 2.8 4.5-.1 9.1-.1 13.6-.2-.1-.9-.2-2-.2-3.3 0-1.7.3-3.2.6-4.3z" fill="url(#b)"/><path d="m90.3 21.9c.2 1.2.3 2.6.4 4.1 0 1.3 0 2.5-.1 3.6h13.8c1.1-.3 3-.9 4.9-2.3 2.5-1.9 3.6-4.2 4.1-5.3-7.8-.1-15.4-.1-23.1-.1z" fill="url(#c)"/><path d="m61.2 0c-14.8 0-26.8 12-26.8 26.8s12 26.8 26.8 26.8 26.8-12 26.8-26.8-12.1-26.8-26.8-26.8zm0 47.3c-11.2 0-20.3-9.1-20.3-20.3s9.1-20.4 20.3-20.4 20.3 9.1 20.3 20.3-9.1 20.4-20.3 20.4zm-25.3-35c-.8 1-1.7 2.5-2.5 4.3-.5 1.3-.8 2.5-1 3.5-7.9 0-15.8 0-23.7 0-1.1-.3-3.5-1.1-5.7-3.2-1.7-1.7-2.6-3.5-3-4.5 12-.1 23.9-.1 35.9-.1zm-15.9 18.7c.3 1 1.3 3.4 3.5 5.3 1.8 1.5 3.6 2.1 4.6 2.4h6.3c-.6-.7-1.3-1.9-1.8-3.4-.6-1.8-.6-3.4-.6-4.3-4 0-8 0-12 0zm66.3-18.7c.7 1.1 1.6 2.5 2.3 4.3.5 1.3.8 2.4 1 3.4h23.9c1.1-.2 2.8-.7 4.6-2 2.7-2 3.8-4.6 4.2-5.7-12 0-24 0-36 0zm4 18.7c-.2 1.3-.5 2.7-1.1 4.3-.4 1.3-1 2.4-1.5 3.4h5.4c1.1-.3 3.4-1 5.5-3 2-1.8 2.9-3.7 3.3-4.8-3.8.1-7.7.1-11.6.1z" fill="url(#d)"/></svg>