<svg enable-background="new 0 0 397.5 397.5" viewBox="0 0 397.5 397.5" xmlns="http://www.w3.org/2000/svg"><circle cx="198.8" cy="198.8" fill="#0187fa" r="198.8"/><path d="m295.8 205.3c.2-2.5-.6-4.1-1-4.8-2.3-4.1-8-5.8-11.8-4-1 .5-1.8 1.2-2.2 1.7l-39.2 34.7v40s-38.6-5.9-47.2-8.2c-11-2.9-18.8-5-26-11.7-2.5-2.3-9.6-8.9-10-18.2 0-.8 0-1.4 0-1.8v-2l-.2-102.3 50.7 7.7c4 .7 14.2 3 22.2 10.3 3.5 3.2 5.6 6.5 6.7 8.2 3.1 4.9 3.6 7.7 3.7 9.5v1.7 30.5c.1.9.4 3.2 2.2 5.3.5.6 2.3 2.7 5.2 3 2 .2 3.6-.6 5.2-1.3 1.2-.6 2.1-1.2 2.7-1.7l39.9-33.5v-31.8c0-.6 0-1.6 0-2.7-.4-10.1-5.6-17.4-9-22.2-1.9-2.6-11.7-15.7-29.5-21.8-1.6-.5-2.9-.9-3.8-1.2l-43.8-8c-2.5-.5-6-1.1-10.2-1.3-2-.1-10.2-.6-18 .8-14.6 2.7-34.2 13.2-37 28.7-.2 1.3-.3 2.3-.3 3h-4.7c-3.3 1.2-7.9 3.2-12.8 6.5-4 2.7-12 8.2-17.7 18.8-5.4 10.1-5.7 19.6-5.8 23v2.8 94.2c0 1.2 0 2.9.2 5 0 0 .6 8.2 2.8 15.2 2.5 7.7 10.2 20.4 23.8 28.5 4 2.4 13 4.5 31 8.7 8.1 1.9 19.4 4.3 33.5 5.7 7.1.7 10.5.7 13.5.5 5.8-.3 13.7-.8 22.5-5 15.1-7.3 22-20.4 23.7-23.8.5-1 .9-1.9 1.2-2.5h2c5-1.5 16.2-5.8 25.5-16.8 2.6-3 11.4-13.8 12.3-29.3.1-1.9.1-3.6 0-5.3-.3-11.1-.3-21.9-.3-32.8zm-127.1-97.6c3.8-3.3 7.4-5.3 9.8-6.5 3.3-1.6 11.8-5.6 21.5-3.3 1.2.3 2.2.6 2.8.8l45.2 8.5c3.1.4 13 2.1 21 10.7 1.7 1.8 8.4 9.2 9.2 20 .1 1.6.1 3 0 3.9v17.9l-18.3 14.2v-8.9c-.1-1.3-.3-3.3-.7-5.5-1.8-9.7-6.3-16.3-8.5-19.3-1.6-2.3-10.8-15-27.5-20.5-.9-.3-1.6-.5-2.2-.7l-53.2-9.3zm62.1 185.6c-4.6 7.1-15.1 8.2-20.3 8.7-1.7.2-4.2.3-7.2.2l-54.7-9.5-1.5-.7c-2.6-.5-6.6-1.7-10.7-4.5-4.8-3.3-7.3-7.1-8.5-9-2.8-4.4-3.9-8.4-4.3-10.2-.8-3.6-.9-6.6-.8-8.8l-.1-100.2c0-.5 0-1 0-1.5.4-10.4 8.2-18.4 14.3-23.2l2.5-1.3c.1 32.4.1 64.8.2 97.2 0 .9-.1 2.2 0 3.8.7 14.9 9.5 25.6 12.2 28.7 11.1 13 25.6 17 35 19.5 6 1.6 45.3 8.2 45.3 8.2-.3.6-.7 1.6-1.4 2.6zm47.4-52.1c-.3 3.1-1.5 10.5-7.1 17.3-3.6 4.4-7.6 6.8-10.2 8.2v-27c5.8-4.8 11.6-9.6 17.3-14.3.1 5.2.1 10.5 0 15.8z" fill="#fffdfc"/></svg>