<svg enable-background="new 0 0 32 32" viewBox="0 0 32 32" xmlns="http://www.w3.org/2000/svg"><circle cx="16" cy="16" fill="#fdde6c" r="16"/><path clip-rule="evenodd" d="m16 27c-6.1 0-11-4.9-11-11s4.9-11 11-11 11 4.9 11 11-4.9 11-11 11zm0-1.5c5.2 0 9.5-4.2 9.5-9.5 0-5.2-4.2-9.5-9.5-9.5-5.2 0-9.5 4.2-9.5 9.5 0 5.2 4.3 9.5 9.5 9.5zm.1-3c-3.6 0-6.5-2.8-6.5-6.5 0-3.7 2.8-6.5 6.6-6.5 2.6 0 4.2 1.1 5.3 2.6l-2.6 2c-.7-.9-1.5-1.5-2.8-1.5-1.8 0-3 1.5-3 3.3 0 1.9 1.2 3.4 3 3.4 1.3 0 2.1-.6 2.8-1.5l2.6 1.9c-1 1.6-2.6 2.8-5.4 2.8z" fill="#fff" fill-rule="evenodd"/></svg>