<svg xmlns="http://www.w3.org/2000/svg" viewBox="0 0 499.62 231"><path fill="#041429" d="M 0,0 H499.62 V231 H0 z"/><path d="M106.1,154l6.72-56a21.55,21.55,0,0,1,21.4-19h32.6a3.65,3.65,0,0,0,3.61-3.12l2.84-19.31A4.86,4.86,0,0,0,168.46,51h-52.3A32.25,32.25,0,0,0,84.22,78.8L73.15,158.11A19.23,19.23,0,0,0,92.2,180h59.43a4,4,0,0,0,4-3.43l2.72-18.43a3.62,3.62,0,0,0-3.58-4.14Z" fill="#00c7ff"/><g fill="#fff"><path d="M199.1,131h48.21a3.24,3.24,0,0,0,3.2-2.75l3.26-21.58a4.37,4.37,0,0,0-4.36-4.67H203.1V97.5A18.5,18.5,0,0,1,221.6,79h35.6a3.33,3.33,0,0,0,3.3-2.86L263.38,56A4.41,4.41,0,0,0,259,51h-51.9a32,32,0,0,0-31.72,27.56l-13.68,97.06a3.85,3.85,0,0,0,3.81,4.38h23.36a3.84,3.84,0,0,0,3.8-3.31Z"/><path d="M311.77,85.5,302,148.32a6.71,6.71,0,0,1-6.63,5.68H283.1l8-67.37A4.14,4.14,0,0,0,287,82h-23.2a4.14,4.14,0,0,0-4.11,3.64l-9.67,79A13.72,13.72,0,0,0,263.59,180h45.79A24.78,24.78,0,0,0,334,158.48l9.52-71.79a4.14,4.14,0,0,0-4.1-4.69H315.86A4.14,4.14,0,0,0,311.77,85.5Z"/><path d="M405.32,82H371.91a27.75,27.75,0,0,0-27.58,24.66l-8.85,69.91a3.09,3.09,0,0,0,3.07,3.43h23.87a3.09,3.09,0,0,0,3.06-2.69L374.1,111h10.51a10,10,0,0,1,9.86,11.37l-7.73,54.11a3.09,3.09,0,0,0,3.05,3.52h25.63a3.07,3.07,0,0,0,3.05-2.65l9.84-68.84A23.23,23.23,0,0,0,405.32,82Z"/></g></svg>