<svg enable-background="new 0 0 32 32" viewBox="0 0 32 32" xmlns="http://www.w3.org/2000/svg"><g clip-rule="evenodd" fill-rule="evenodd"><circle cx="16" cy="16" fill="#1c98f7" r="16"/><path d="m16.3 23.3c.7 0 1.4-.2 2.1-.3.8.3 1.7.3 2.6.2h.1c.3 0 .7.2 1.3.6v-.6c0-.2.1-.4.3-.5.3-.1.5-.3.7-.5.9-.7 1.4-1.7 1.4-2.7 0-.3-.1-.7-.2-1 .3-.5.5-1 .6-1.5.5.8.8 1.6.8 2.5 0 1.4-.7 2.7-1.8 3.7-.2.2-.4.3-.6.4v1.5c0 .5-.6.8-1 .5s-.8-.6-1.2-.8c-.1-.1-.2-.1-.4-.2-.3.1-.7.1-1 .1-1.4-.2-2.7-.7-3.7-1.4zm-7.5-2.9c-1.8-1.5-2.8-3.6-2.8-5.8 0-4.5 4.3-8.1 9.5-8.1s9.5 3.6 9.5 8.1-4.3 8.1-9.5 8.1c-.6 0-1.2 0-1.7-.1-.2.1-1.2.6-2.6 1.7-.5.4-1.2 0-1.2-.6v-2.5c-.5-.3-.9-.5-1.2-.8zm5 .7h.1c.5.1 1 .1 1.6.1 4.4 0 7.9-3 7.9-6.6s-3.5-6.6-7.9-6.6-7.9 3-7.9 6.6c0 1.7.8 3.4 2.3 4.6.4.3.8.6 1.2.8.2.1.4.4.4.7v1.4c1-.7 1.8-1 2.3-1zm-2.4-4.9c-.7 0-1.2-.6-1.2-1.2 0-.7.6-1.2 1.2-1.2.7 0 1.2.5 1.2 1.2s-.5 1.2-1.2 1.2zm4.1 0c-.7 0-1.2-.6-1.2-1.2 0-.7.6-1.2 1.2-1.2s1.2.5 1.2 1.2-.6 1.2-1.2 1.2zm4 0c-.7 0-1.2-.6-1.2-1.2 0-.7.6-1.2 1.2-1.2s1.2.5 1.2 1.2-.5 1.2-1.2 1.2z" fill="#fff"/></g></svg>