<svg enable-background="new 0 0 32 32" viewBox="0 0 32 32" xmlns="http://www.w3.org/2000/svg"><circle cx="16" cy="16" fill="#598182" r="16"/><path clip-rule="evenodd" d="m13.5 25.4c.8-1.1 1.7-2.2 2.5-3.3.9.1 1.9.1 2.8-.3.3-.1.6-.4.9-.5 0 0 .1-.1.1-.1l3.1 3c-.3.2-.5.4-.8.5-1 .6-2.2 1-3.4 1.2-.6.1-1.3.1-2 .1-1.1-.1-2.1-.3-3.2-.6zm-.9-.4c-.3-.2-.7-.3-1-.5-1.6-1-2.9-2.4-3.7-4.1-.4-.9-.7-1.9-.8-2.9-.1-.8-.1-1.5-.1-2.3.1-2 .7-3.8 1.9-5.4 1.1-1.5 2.6-2.5 4.3-3.1.8-.3 1.7-.5 2.6-.6.7-.1 1.4-.1 2-.1.4 0 .8.1 1.2.1-.9 1.2-1.7 2.5-2.6 3.7-.9.1-1.7.4-2.4.8-1.3.8-2.1 2.1-2.5 3.6-.2.6-.2 1.3-.2 1.9 0 .3 0 .7.1 1l-.3.4c-.2.4.1.8.5.8h.1c.3.7.6 1.4 1.2 2 .3.4.7.7 1.1 1l-1.4 3.5zm7.4-18.7c.9.2 1.7.6 2.5 1.1.1.1.3.2.4.3 0 0 .1 0 .1.1 0 0-.1.1-.1.1-.9.9-1.8 1.8-2.7 2.7-.1.1-.2.1-.3 0-.4-.3-.8-.5-1.2-.6l1.3-3.3v-.1c0-.1 0-.2 0-.3zm-3.7 11-4.8.6 7.9-11.5-3.1 8 5.6-.9-8.9 11.5z" fill="#fff" fill-rule="evenodd"/></svg>