<svg xmlns="http://www.w3.org/2000/svg" viewBox="0 0 395.3 506" enable-background="new 0 0 395.3 506"><g fill="#333"><path d="m230.7 499.4c-.3 0-.6-.1-.9-.3-.2-.2-.4-.5-.5-.8l-6.6-26.1c-.1-.3-.1-.6 0-.8.1-.3.2-.5.5-.7.2-.2.5-.3.7-.3.3 0 .5 0 .8.1l41.6 22.2c.3.1.5.3.6.6.1.3.2.6.1.9-.1.3-.2.6-.4.8-.2.2-.5.3-.8.4l-35 4h-.1m-4.4-25l5.6 21.9 29.2-3.4-34.8-18.5m17.2-61.3c-.3 0-.6-.1-.9-.3l-60.1-51c-.2-.2-.4-.5-.5-.8-.1-.3 0-.6.1-.9.1-.3.3-.5.6-.7.3-.2.6-.2.9-.1l78.5 12.8c.2 0 .4.1.6.3.2.1.3.3.4.5.1.2.2.4.2.6 0 .2-.1.5-.2.6l-18.4 38.2c-.1.2-.2.4-.4.5-.2.1-.4.2-.6.3h-.2m-55.2-50l54.8 46.5 16.8-34.8-71.6-11.7m-145.8-132.3c-.2 0-.5-.1-.7-.2s-.4-.3-.5-.5c-.1-.2-.2-.5-.2-.7s.1-.5.2-.7l28.1-53.4c.1-.3.3-.5.5-.6.2-.1.5-.2.8-.1.3 0 .5.1.7.3.2.2.4.4.5.6l18.3 50.1c.1.2.1.4.1.7 0 .2-.1.4-.2.6-.1.2-.3.3-.5.5-.2.1-.4.2-.6.2l-46.4 3.3h-.1zm27.9-51.4l-25.4 48.3 42.1-3-16.7-45.3"/><path d="m70.7 177.3h-.3l-47.3-9.3c-.3-.1-.5-.2-.7-.4-.2-.2-.3-.5-.3-.8 0-.3 0-.6.2-.9.2-.3.4-.5.6-.6l37.1-15.8 6.8-73.2c0-.4.2-.7.5-.9s.6-.4.9-.4c.3 0 .7.1.9.4.3.3.4.6.4.9l3.1 40.6c0 .2 0 .4 0 .5l-9.9 33 9.1 25c.1.2.1.5.1.7 0 .3-.1.5-.3.7-.1.2-.3.3-.5.3 0 .2-.2.2-.4.2m-42.4-11.2l40.2 7.9-8-21.7-32.2 13.8zm39.8-73.6l-4.2 44.2 6-19.9-1.8-24.3"/><path d="m42.5 230.9c-.3 0-.6-.1-.8-.3-.2-.2-.4-.4-.5-.7l-18.9-62.9c-.1-.3-.1-.6 0-.8.1-.3.2-.5.4-.7.2-.2.4-.3.7-.3.3 0 .5 0 .8.1l36.7 18.5c.3.2.6.4.7.8.1.3.1.7 0 1.1l-17.7 44.3c-.1.3-.3.5-.6.7-.2.1-.5.2-.8.2m-16.7-61.6l16.9 55.8 15.7-39.4-32.6-16.4zm35.4-17.5c-.3 0-.7-.1-.9-.4-.2-.2-.3-.4-.4-.7-.1-.3-.1-.6 0-.8l10.2-33.4c0-.2.1-.4.3-.5.1-.2.3-.3.5-.3l31.9-14.1c.3-.1.6-.2.9-.1.3.1.5.2.7.5.2.3.3.5.3.9 0 .3-.1.6-.2.9l-24.7 40.1c-.1.3-.3.4-.6.5l-17.2 7.6c-.3-.2-.5-.2-.8-.2m11.3-33.8l-8.9 29.9 14.2-6.2 22-35.7-27.3 12"/><path d="m60.2 186.5c-.2 0-.4 0-.6-.1l-36.7-18.5c-.3-.2-.5-.4-.7-.7-.1-.3-.2-.7 0-1 .1-.3.3-.6.6-.8.3-.2.6-.3.9-.2l47.3 9.3c.3 0 .5.2.7.4.2.2.3.4.4.7.1.3.1.5 0 .8-.1.3-.2.5-.4.7l-10.5 9.3c-.3 0-.7.2-1 .1m-26.8-16.5l26.6 13.4 7.6-6.7-34.2-6.7z"/><path d="m188.1 449.7c-.2 0-.3 0-.5 0l-51.4-20.2c-.2-.1-.4-.2-.5-.4-.2-.2-.3-.3-.3-.6-.1-.2-.1-.4 0-.7s.1-.4.3-.6l31.1-43.9c.2-.3.4-.4.7-.5.3-.1.6-.1.9 0l75.4 27.3c.2.1.5.2.6.4.2.2.3.5.3.7 0 .3 0 .6-.1.8-.1.2-.3.4-.5.6l-55.2 36.6c-.3.4-.5.5-.8.5m-49.1-22.3l49 19.3 52-34.6-71.6-25.9-29.4 41.2zm-11.6-80.9h-.4l-66.8-19.7c-.2-.1-.4-.2-.5-.4l-.2-.2c-.2-.3-.2-.6-.2-.9 0-.3.2-.6.3-.8l40.7-46.4c.1-.1.3-.2.4-.3.2-.1.3-.1.5-.1l30.1-1.7c.2 0 .4 0 .6.1.2.1.3.2.5.3.3.3.4.6.4 1v42.8c0 .1 0 .2 0 .3l-4 24.8c0 .2-.1.4-.2.6-.1.2-.2.3-.4.4-.2.1-.5.2-.8.2m-58.7-20.2l57.7 16.9 3.5-21.4-61.2 4.5zm33.3-45.9l-38 43.3 66.2-4.9v-40l-28.2 1.6m-59.5-49.6c-.2 0-.4 0-.6-.1-.3-.2-.6-.4-.7-.8-.1-.3-.1-.7 0-1.1l17.7-44.3c.1-.2.2-.3.3-.5l10.5-9.3c.3-.2.6-.3.9-.3.3 0 .6.1.9.3.3.2.4.5.5.8.1.3 0 .7-.1 1l-28.2 53.5c-.1.2-.3.5-.5.6-.2.1-.5.2-.7.2m18.9-44.7l-7.7 19.2 12.3-23.2-4.6 4z"/><path d="m159.6 488.3c-.4 0-.7-.2-1-.4l-42.6-44.3c-.1-.2-.2-.3-.3-.5-.1-.2-.1-.4-.1-.6s.1-.4.2-.6c.1-.2.2-.3.4-.5l18.6-13.9c0-.3 0-.6.2-.9.2-.3.4-.5.8-.6.3-.1.6-.1.9 0l51.8 20.9c.2.1.4.2.6.4.2.2.3.4.3.7 0 .3 0 .5 0 .7-.1.2-.2.5-.4.6l-12.8 12.8-15.3 25.5c-.1.2-.3.3-.4.5-.2.1-.4.2-.6.2h-.3m-40.3-45.5l40.2 41.8 13.9-23.2-36.4-31.7-17.7 13.1m24.4-11l31.5 27.4 10.5-10.4-42-17"/><path d="m208.6 506c-.2 0-.3 0-.5 0l-48.9-17.7c-.3-.1-.6-.3-.7-.6-.2-.3-.2-.6-.2-.9 0-.3.2-.6.4-.9.2-.2.5-.3.8-.4l39.2-3.7c.3 0 .6 0 .8.2.3.2.4.4.6.6l9.7 21.4c.1.3.2.6.1.8 0 .3-.2.5-.3.7-.1.1-.3.3-.5.3-.2.2-.3.2-.5.2m-42.4-18.3l39.7 14.4-7.9-17.2-31.8 2.8zm64.5 11.7c-.3 0-.5-.1-.7-.3l-55.6-36.9c-.2-.1-.3-.3-.4-.4-.1-.2-.2-.4-.2-.6 0-.2 0-.4.1-.6.1-.2.2-.4.3-.6l13-12.9c.2-.2.5-.4.8-.4.3 0 .6.1.9.2l35.9 23.7c.3.2.5.5.6.8l6.6 26.1c0 .2 0 .5 0 .7 0 .2-.1.4-.3.6-.1.2-.3.3-.5.4-.1.1-.4.2-.5.2m-53.2-38.5l51.1 33.8-5.6-22-34.6-22.7-10.9 10.9"/><path d="m159.6 488.3c-.2 0-.5-.1-.7-.2-.2-.1-.4-.3-.5-.6-.1-.2-.2-.5-.2-.7 0-.3.1-.5.2-.7l15.5-25.7c.1-.2.2-.3.4-.5.2-.1.3-.2.6-.2.2 0 .4 0 .6 0 .2.1.4.2.5.3l23.7 22.1c.2.2.3.4.4.7.1.3 0 .6 0 .8-.1.3-.2.5-.4.6-.2.2-.5.3-.7.3l-39.4 3.8m15.8-25l-13.1 21.8 33.3-3.1-20.2-18.7"/><path d="m230.7 499.4c-.2 0-.4 0-.6-.1l-31.8-14.8c-.1-.1-.3-.1-.3-.2l-23.7-22.2c-.3-.2-.4-.6-.4-.9 0-.4.1-.7.3-1 .2-.3.5-.5.8-.6.3-.1.7 0 1 .2l55.6 36.9c.3.2.4.4.6.7.1.3.1.6 0 .9-.1.3-.3.6-.5.8-.2.2-.5.3-.8.3h-.2m-31.1-17.5l14.6 6.8-25.4-16.7 10.8 9.9"/><path d="m208.6 506c-.3 0-.5-.1-.8-.2-.2-.2-.4-.4-.5-.6l-9.7-21.4c-.1-.3-.1-.6-.1-.8.1-.3.2-.6.4-.8.2-.2.4-.3.7-.4.3 0 .6 0 .8.1l31.9 14.8c.3.1.5.3.6.6.2.3.2.6.2.9 0 .3-.1.6-.3.8-.2.2-.4.4-.7.5l-22.1 6.5h-.4m-6.9-19.9l7.6 16.7 17.4-5.2-25-11.5m-169.8-142.5c-.1 0-.3 0-.4 0-.2 0-.3-.1-.5-.3-.1-.1-.3-.3-.3-.4l-4-8.1c-.1-.2-.1-.4-.1-.6 0-.2 0-.4.1-.6.1-.2.2-.4.4-.5.2-.1.3-.3.6-.3l32.7-8.6c.3-.1.7 0 1 .1.3.2.5.4.7.7.1.3.1.7 0 1-.1.3-.3.6-.6.8l-28.7 16.8c-.5 0-.7.1-.9 0m-2-8.5l2.5 5.1 18.3-10.7-20.8 5.6z"/><path d="m106.1 382.4c-.2 0-.4 0-.6-.1l-74.3-38.8c-.2-.1-.4-.3-.6-.5-.1-.2-.2-.5-.2-.7 0-.3.1-.5.2-.7.1-.2.3-.4.5-.5l28.8-16.7c.3-.2.7-.2 1-.2l66.9 19.5c.2.1.4.2.6.3.2.2.3.3.4.6.1.2.1.4.1.6 0 .2-.1.4-.2.6l-21.3 36.1c-.1.2-.3.4-.5.5s-.6 0-.8 0m-71.3-40.3l70.8 36.9 19.6-33.3-64.4-18.8-26 15.2z"/><path d="m59.8 423.2c-.1 0-.2 0-.3 0-.2 0-.4-.2-.6-.3-.2-.2-.3-.4-.4-.6l-28-79.7c-.1-.3-.1-.6 0-.9.1-.3.3-.5.5-.7.2-.2.5-.3.8-.3.3 0 .6.1.8.3l62 48.3c.2.1.3.3.4.5.1.2.2.4.2.6 0 .2 0 .4-.1.6-.1.2-.2.4-.3.5l-34.1 31.2c-.2.3-.6.5-.9.5m-25.1-77l25.7 73.1 31.2-28.7-56.9-44.4z"/><path d="m93.8 391.9c-.3 0-.6-.1-.8-.3l-62-48.3c-.3-.2-.5-.5-.5-.9-.1-.4 0-.7.2-1 .2-.3.5-.5.8-.6.3-.1.7 0 1 .1l74.3 38.8c.2.1.4.3.5.5.1.2.2.4.2.7 0 .3 0 .5-.1.7-.1.2-.3.4-.5.6l-12.4 9.5c-.2.1-.5.2-.7.2m-48.8-41.2l48.7 38 9.7-7.4-58.4-30.6z"/><path d="m117.1 444.2c-.3 0-.5-.1-.7-.2-.2-.1-.4-.4-.5-.6l-23.4-52.2c-.1-.3-.2-.6-.1-1 .1-.3.3-.6.5-.8l12.4-9.5c.2-.1.4-.2.6-.3.2 0 .5 0 .7.1.2.1.4.2.6.4.1.2.2.4.3.7l11 61.7c0 .3 0 .7-.2 1-.2.3-.4.5-.8.6-.1 0-.2.1-.4.1m-21.6-53.3l18.3 40.9-8.6-48.4-9.7 7.5z"/><path d="m223.9 473.6c-.4 0-.7-.2-1-.4-.2-.2-.3-.4-.4-.7-.1-.3 0-.5 0-.8l19.3-60.6c.1-.2.1-.3.3-.5.1-.1.3-.3.4-.3.2-.1.3-.1.5-.2.2 0 .4 0 .6.1l79.5 25.8c.3.1.5.3.7.5.2.2.3.5.3.9 0 .3-.1.6-.3.8-.2.3-.4.4-.7.5l-98.8 34.8c-.1 0-.2.1-.4.1m20.2-60.3l-18 56.6 92.1-32.4-74.1-24.2zm-126.9 30.7c-.1 0-.3 0-.4 0l-57.4-20.8c-.2-.1-.4-.2-.6-.4-.2-.2-.3-.4-.3-.7 0-.3 0-.5 0-.7.1-.2.2-.5.4-.6l33.9-31.3c.2-.2.4-.3.6-.3.2 0 .4 0 .6 0 .2 0 .4.1.6.3.2.1.3.3.4.5l23.3 52c.1.3.2.6.1.8 0 .3-.2.5-.4.8-.1.1-.3.3-.4.3-.1.1-.2.1-.4.1m-54.7-22.8l52 18.9-21.3-47.3-30.7 28.4z"/><path d="m317.2 480.1c-.3 0-.6-.1-.8-.3-.2-.1-.4-.3-.5-.6-.1-.2-.1-.5-.1-.8l5.3-40.1-78.4-25.4c-.3-.1-.6-.3-.7-.6-.2-.3-.3-.6-.2-.9 0-.3.2-.6.4-.9.2-.2.5-.4.8-.4l61.5-6.9c.3 0 .5 0 .8.1.2.1.4.3.6.6l17.6 32 70.3-2.9c.3 0 .6.1.8.3.3.2.4.5.5.8 0 .3 0 .6-.1.9-.1.3-.3.6-.6.7l-76.7 44.3c0 .1-.2.1-.5.1m6.8-41.4l-5 37.3 69.2-40-64.2 2.7zm-74-26.5l69.8 22.6-15.9-28.7-53.9 6.1"/><path d="m265.7 495.3c-.3 0-.5-.1-.7-.2-.2-.1-.4-.3-.5-.6-.1-.3-.2-.6-.1-.9.1-.3.2-.6.5-.8l25.9-21.8c.2-.2.3-.3.6-.3.2-.1.4 0 .6 0l25.7 6.5c.3.1.6.2.8.5.2.2.3.6.3.9 0 .3-.1.6-.3.9-.2.3-.4.4-.7.5l-51.6 15.2c-.3.1-.4.1-.5.1m26.2-21.6l-20.1 16.9 40-11.8-19.9-5.1zm-68 0c-.3 0-.5-.1-.7-.3l-35.9-24c-.2-.1-.4-.3-.5-.5-.1-.2-.2-.5-.2-.7 0-.3 0-.5.2-.7.1-.2.3-.4.5-.5l55.1-36.6c.2-.2.5-.3.8-.3.3 0 .6.1.8.3.2.2.4.4.5.7.1.3.1.6 0 .9l-19.3 60.5c-.1.2-.2.4-.3.6-.1.2-.3.3-.5.3-.2.1-.3.1-.5.1v.2m-33.2-25.5l32.5 21.8 17.5-54.9-50 33.1m132-9.4c-.3 0-.5-.1-.7-.2-.2-.1-.4-.3-.5-.5l-18.1-32.7c-.1-.3-.2-.6-.2-.8 0-.3.1-.6.3-.8.2-.2.4-.4.7-.5.3-.1.6-.1.8 0l89.3 29.5c.3.1.6.3.7.6.2.3.3.6.2 1 0 .3-.2.6-.4.9-.2.2-.6.4-.9.4l-71.2 3v.1m-15.1-31.7l15.9 28.7 62.5-2.6-78.4-26.1"/><path d="m317.2 480.1h-.3l-25.7-6.5c-.3 0-.5-.2-.7-.3-.2-.2-.3-.4-.4-.7-.1-.3-.1-.5 0-.8.1-.3.2-.5.4-.7l31.2-34.8c.2-.2.5-.4.8-.4.3-.1.6 0 .9.1.3.1.5.3.6.6.1.3.2.6.1.9l-5.5 41.3c0 .2-.1.4-.2.6-.1.2-.2.3-.4.4-.2.2-.5.3-.8.3m-23-8.8l21.9 5.6 4.7-35.2-26.6 29.6z"/><path d="m265.7 495.3c-.2 0-.4-.1-.6-.1l-42.1-21.8c-.3-.2-.5-.4-.6-.7-.1-.3-.2-.6-.1-1 .1-.3.2-.6.5-.8.3-.2.5-.3.9-.3h.2l98.6-34.7c.3-.1.6-.1.9 0 .3.1.6.3.7.6.2.3.3.6.2.9 0 .3-.2.6-.3.9l-31.2 34.8-.1.1-26.1 21.8c-.3.2-.6.3-.9.3m-36.2-21.7l36.1 18.6 22.2-18.6h-58.3zm2.9-2.9h58.6l27-30.2-85.6 30.2m11.2-57.5c-.2 0-.3 0-.5 0l-75.7-27.5c-.2-.1-.4-.2-.5-.4-.2-.2-.3-.3-.3-.6-.1-.2-.1-.4 0-.7 0-.2.1-.4.2-.6l15.5-23.6c.1-.2.3-.3.4-.4.2-.1.3-.2.5-.2.2 0 .4 0 .6 0 .2 0 .3.1.5.2l60.1 51c.2.2.3.4.4.7 0 .3 0 .5-.1.8-.1.3-.3.5-.5.6-.2.2-.5.3-.7.3l.1.4m-73.3-29.6l66.3 24.1-52.9-44.8-13.4 20.7"/><path d="m167.9 385.8c-.2 0-.3 0-.5-.1s-.3-.2-.4-.3l-40.6-39.4c-.2-.2-.4-.5-.4-.8 0-.3 0-.6.2-.9.1-.3.4-.5.7-.6.3-.1.6-.1.9-.1l56.1 15.9c.2.1.4.2.6.3.2.2.3.3.4.6.1.2.1.5.1.7 0 .2-.1.4-.2.6l-15.8 23.5c-.1.2-.3.3-.4.4-.2.1-.4.1-.6.2h-.1m-35.5-37.9l35.3 34.3 13.5-20.4-48.8-13.9"/><path d="m136.8 429.4h-.4c-.3-.1-.5-.2-.7-.5s-.3-.5-.3-.8l-9.4-83.1c0-.3 0-.6.1-.9.1-.3.3-.5.6-.6.3-.1.6-.2.8-.1.3 0 .6.2.8.4l40.6 39.5c.2.3.4.6.4.9s-.1.7-.3 1l-31.2 43.6c-.1.2-.3.3-.5.4-.1.2-.3.2-.5.2m-7.7-80.9l8.6 75.7 28.3-39.7-36.9-36z"/><path d="m136.8 429.4c-.2 0-.4 0-.6-.2-.2-.1-.4-.3-.5-.5l-30.7-47c-.1-.2-.2-.5-.2-.8 0-.3.1-.6.2-.8l21.3-36.1c.1-.3.4-.5.6-.6.3-.1.6-.1.8-.1.3.1.5.2.7.4.2.2.3.5.3.8l9.5 83.2c0 .3 0 .6-.2.9-.2.3-.4.5-.7.6-.1.2-.3.2-.5.2m-29-48.5l27 41.3-8.4-73.2-18.6 31.9z"/><path d="m117.1 444.1c-.2 0-.3 0-.5 0-.2-.1-.4-.2-.6-.4-.2-.2-.3-.4-.3-.6l-11.1-61.7v-.4c0-.3.1-.6.2-.8.2-.2.4-.4.6-.5.3-.1.6-.1.9 0 .3.1.6.3.7.6l30.8 47c.2.2.2.5.2.8 0 .2-.1.5-.2.7-.1.2-.2.4-.4.5l-19.4 14.7c-.3.1-.6.2-.9.1m-8.4-56.6l9.5 52.8 16.8-12.6-26.3-40.2zm-80.8-51.9c-.1 0-.2 0-.4 0-.2-.1-.4-.2-.5-.4-.1-.1-.1-.1-.2-.3v-.2l-26.7-77.4c-.1-.3-.1-.6 0-.9.1-.3.3-.6.5-.7l26.4-21.6c.3-.2.6-.3.9-.3.3 0 .6.1.9.3l39.5 37.8.1.2c.1.1.2.3.3.5 0 .2 0 .3 0 .5v.1l-6.7 52.4c0 .3-.2.6-.4.8-.2.2-.4.4-.7.5l-32.6 8.7h-.4m37.3-56.6l-34.1 52.7 28.4-7.4 5.7-45.3m-62.1-21.7l25.2 73.7 37.3-57.7-37.8-36.2-24.7 20.2"/><path d="m60.6 326.8c-.2 0-.4 0-.6-.1-.3-.1-.5-.3-.6-.6-.1-.3-.2-.6-.1-.9l6.7-52.4c0-.2.1-.4.2-.5.1-.2.2-.3.4-.4.3-.2.7-.3 1.1-.3l34 6.1c.2 0 .5.2.6.3.2.2.3.4.4.6.1.3.1.5 0 .8-.1.3-.2.5-.3.7l-40.8 46.4c-.1.1-.3.2-.4.3-.2 0-.4 0-.6 0m7.9-52.2l-6 46.4 36-41-30-5.4z"/><path d="m101.4 280.6h-.2l-34.1-6.1c-.3-.1-.5-.2-.7-.4l-39.5-37.9c-.2-.2-.4-.6-.4-.9s.1-.7.3-1c.2-.3.5-.5.8-.6.3-.1.7 0 1 .2l73.6 43.9c.3.2.5.4.6.7.1.3.1.6 0 1-.1.3-.3.5-.5.7-.3.3-.6.4-.9.4m-33.4-8.9l26 4.6-56.1-33.5 30.1 28.9z"/><path d="m101.4 280.6c-.2 0-.5-.1-.7-.2l-73.6-43.9c-.2-.1-.4-.3-.5-.6-.1-.2-.2-.5-.2-.8 0-.3.1-.5.3-.8.2-.2.4-.4.6-.5l14.5-5.9h.4l46.5-3.3c.2 0 .4 0 .6 0l40.6 14.9c.2.1.4.2.6.4.1.2.3.4.3.6 0 .2.1.4 0 .7 0 .2-.1.4-.3.6l-28 38.2c-.1.2-.3.3-.5.4-.2.1-.4.2-.6.2m-70.3-45.2l70 41.8 26.2-35.7-38.6-14.1-46.1 3.3-11.5 4.7z"/><path d="m243.5 413.2c-.2 0-.5-.1-.7-.2-.2-.1-.4-.3-.5-.5-.1-.2-.2-.4-.2-.7s0-.5.1-.7l18.5-38.2c.1-.2.2-.3.4-.5.2-.1.3-.2.5-.3l54.1-13.6c.3-.1.6 0 .9.1.3.1.5.4.6.7.1.3.2.6.1.9-.1.3-.3.6-.5.8l-72.6 51.7c-.1.4-.4.5-.7.5m19.4-38.4l-15.7 32.6 61.9-44.3-46.2 11.7zm-235-138.2c-.3 0-.5-.1-.7-.2-.2-.1-.3-.3-.5-.5-.1-.2-.2-.4-.2-.6l-4.4-68.4c0-.3.1-.7.3-1 .2-.3.5-.5.8-.5.3-.1.7 0 1 .2.3.2.5.5.6.8l19 62.6c.1.3.1.7-.1 1.1-.2.3-.4.6-.8.7l-14.5 5.8c-.1 0-.3.1-.5 0m-2.2-58l3.5 54.6 11.6-4.8-15.1-49.8z"/><path d="m243.2 412.9c-.3 0-.6-.1-.8-.3-.2-.2-.4-.4-.5-.7-.1-.3-.1-.6 0-.9.1-.3.3-.6.5-.7l72.8-51.5c.2-.2.5-.2.8-.2.3 0 .6.1.8.3.2.2.4.4.5.7.1.3.1.6 0 .8l-11.5 44.8c-.1.3-.2.5-.4.7-.2.2-.5.3-.8.4l-61.2 6.7h-.2zm70.5-49.6l-65.1 46.1 54.8-6 10.3-40.1m-155.8-31.2c-.3 0-.5-.1-.7-.2-.2-.1-.4-.3-.5-.6l-26.5-53.2c-.1-.3-.2-.6-.1-.9 0-.3.2-.6.4-.8.3-.2.5-.3.8-.3.3 0 .6.1.8.3l35.2 24c.3.2.4.4.6.7.1.3.1.6 0 .9l-8.8 29.3c-.1.3-.2.5-.5.7-.2.2-.5.3-.7.3v-.2m-22.8-50.6l22.5 45.4 7.5-24.9-30-20.5"/><path d="m166.7 302.8c-.3 0-.5-.1-.8-.2l-35.2-24c-.2-.1-.3-.3-.4-.4-.1-.2-.1-.4-.2-.6l-1.9-36.4c0-.3.1-.6.2-.9.2-.3.4-.5.7-.6.3-.1.6-.1.9 0 .3.1.5.3.7.6l37.2 60.4c.2.3.2.6.2.9 0 .3-.2.6-.4.9-.2.1-.3.2-.5.3-.1 0-.3.1-.5 0m-33.9-26.2l29.2 19.9-30.8-50.2 1.6 30.3z"/><path d="m101.4 280.5c-.3 0-.5-.1-.7-.2-.2-.1-.4-.3-.5-.6-.1-.3-.2-.5-.1-.8 0-.3.1-.5.3-.8l28.1-38.3c.2-.2.4-.4.7-.5.3-.1.6-.1.8 0 .3.1.5.3.7.5.2.2.3.5.3.8l1.9 36.5c0 .2 0 .4-.1.6-.1.2-.1.3-.3.5-.1.1-.3.3-.4.3-.2.1-.3.1-.5.1l-30.2 1.9m27-35.7l-24.1 32.8 25.7-1.5-1.6-31.3"/><path d="m129.6 242.4c-.2 0-.3 0-.5 0l-40.8-15c-.3-.1-.5-.3-.6-.5-.2-.2-.3-.5-.3-.8 0-.3.1-.6.2-.8.2-.3.4-.4.6-.6l48.1-22.5c.2-.1.4-.2.7-.2s.5.1.7.2c.2.1.3.3.5.5.1.2.2.4.2.7 0 .1 0 .2 0 .3l-7.3 37.4c0 .2-.1.4-.2.6-.1.2-.3.3-.4.4-.4.1-.7.3-.9.3m-37.1-16.5l36 13.2 6.4-33.2-42.4 20z"/><path d="m129.5 242.5c-.2 0-.4 0-.6-.1-.3-.1-.5-.4-.6-.7-.1-.3-.2-.6-.1-.9 0 0 1.3-6.5 2.6-12.8l4.7-24.6c0-.3.2-.6.4-.8.2-.2.5-.3.8-.4l24.1-1.7c.3 0 .5.1.7.2.2.1.4.3.5.6.1.3.2.5.2.8 0 .3-.1.6-.3.8l-31.4 39.4c-.4.1-.7.2-1 .2m8.5-37.6l-4.7 23.6-1.4 7.2 25.8-32.2-19.7 1.4z"/><path d="m136.9 205c-.2 0-.4 0-.6-.1-.2-.1-.3-.2-.5-.4-.1-.2-.3-.4-.3-.6s0-.5 0-.7l6.5-26.2c.1-.3.2-.5.4-.7.2-.2.4-.3.7-.4.3 0 .5 0 .8.1.2.1.4.3.6.5l17.5 24.4c.1.2.2.5.3.7 0 .3 0 .5-.1.7-.1.2-.3.4-.5.6-.2.1-.4.2-.7.3l-24.1 1.8m7.1-24.3l-5.3 21.3 19.6-1.4-14.3-19.9"/><path d="m89 227.4c-.2 0-.5 0-.7-.2-.2-.1-.4-.3-.5-.5-.2-.3-.3-.6-.2-1 .1-.3.2-.6.5-.9l54.4-48.7c.2-.2.5-.3.8-.3.3 0 .6 0 .8.2.3.2.4.4.6.7.1.3.1.6.1.9l-6.5 26.1c0 .2-.1.4-.3.6-.1.2-.3.3-.5.4l-47.9 22.5c-.2.1-.4.2-.6.2m52-45.9l-43.8 39.1 38.5-18.1 5.3-21z"/><path d="m89 227.4c-.2 0-.3 0-.5 0-.2-.1-.4-.2-.6-.4-.2-.2-.3-.4-.3-.7l-1.8-10.2c0-.2 0-.4 0-.6 0-.2.1-.4.3-.5l66.3-90.7c.2-.2.5-.3.7-.4.3 0 .6 0 .8.1.3.1.5.3.6.6.1.3.2.6.2.9l-10.2 52.2c0 .3-.2.6-.4.8l-54.1 48.6c-.1.1-.3.2-.5.3-.2 0-.3 0-.5 0m-.3-11.3l1.2 7.1 52.2-46.7 8.9-45.5-62.3 85.1z"/><path d="m157.9 332.1c-.2 0-.3 0-.5 0l-26.4-10.5c-.3-.1-.5-.3-.6-.5-.2-.2-.3-.5-.3-.8v-42.9c0-.3.1-.6.3-.9.2-.3.5-.4.8-.5.3-.1.6 0 .9.1.3.1.5.4.6.6l26.4 53.3c.1.3.2.6.1.8 0 .3-.2.6-.4.8-.1.2-.3.3-.4.4-.1.1-.3.1-.5.1m-25.1-12.9l22.2 8.8-22.1-44.7v35.9zm28-115.7c-.2 0-.4-.1-.6-.2-.2-.1-.4-.3-.5-.4l-17.4-24.8c-.1-.2-.2-.3-.3-.5 0-.2 0-.4 0-.6l9.9-51.4c0-.2.2-.5.3-.7.2-.2.4-.3.6-.4h.1l55.6-17.2c.3-.1.7-.1 1 .1.3.1.6.4.7.7.1.3.2.7 0 1-.1.3-.3.6-.6.8l-44.2 26.2-3.3 66.1c0 .3-.1.6-.3.8-.2.2-.4.4-.7.5 0 .1-.2.1-.3 0m-15.9-26.5l14.7 21 3.1-62.1-8.5-7.4-9.3 48.5m11.3-50.4l8 6.9 33.5-19.7-41.5 12.8"/><path d="m127.4 346.5c-.3 0-.6-.1-.9-.3-.2-.2-.3-.4-.4-.6-.1-.2-.1-.5-.1-.7l4.1-24.9c0-.2.1-.4.2-.6.1-.2.3-.3.4-.4.2-.1.4-.1.6-.1s.4 0 .6.1l26.3 10.4c.3.1.5.3.6.5.2.3.2.5.2.8 0 .3-.1.6-.2.8-.1.2-.4.4-.6.5l-30.5 14.2c.1.1-.1.2-.3.3m5.1-24.4l-3.3 20.4 25.1-11.7-21.8-8.7z"/><path d="m183.4 362.3c-.1 0-.3 0-.4 0l-55.9-15.9c-.3-.1-.5-.2-.7-.5-.2-.2-.3-.5-.3-.8 0-.3 0-.6.2-.9.2-.2.4-.5.6-.6l30.5-14.2c.3-.1.6-.2.9-.1.3.1.6.2.8.4l25.5 30.2c.2.2.3.5.3.8 0 .3 0 .6-.2.9-.1.2-.3.3-.5.5s-.6.2-.8.2m-51.9-17.7l47.8 13.6-21.8-25.8-26 12.2zm-44.3-127.3c-.2 0-.4 0-.6-.1-.2-.1-.3-.2-.5-.4-.1-.2-.2-.4-.3-.6 0-.2 0-.4 0-.6l17.3-73.1c.1-.2.2-.4.3-.6.2-.2.4-.3.6-.4l48.8-16.7c.3-.1.6-.1.9 0 .3.1.5.3.7.5s.3.6.3.9c0 .3-.1.6-.3.9l-66.2 89.7c-.1.2-.3.3-.4.4-.2 0-.4.1-.6.1m18.5-73.4l-15.5 65.6 59.4-80.5-43.9 14.9z"/><path d="m87.2 217.3c-.3 0-.6-.2-.9-.4-.2-.2-.4-.5-.4-.9l-8.6-73.1c0-.2 0-.4 0-.6 0-.2.2-.4.3-.5.1-.2.3-.3.5-.3.2-.1.4-.1.6-.1h25.9c.2 0 .4 0 .6.1.2.1.3.2.5.4.1.2.2.4.3.6 0 .2 0 .4 0 .6l-17.3 73c-.1.3-.2.6-.5.9-.3.1-.6.3-1 .3m-7.1-73.1l7.5 63.7 15.1-63.7h-22.6z"/><path d="m88.9 227.4c-.3 0-.6-.1-.8-.3-.2-.2-.4-.4-.5-.7l-27.6-75.5c-.1-.3-.1-.7 0-1.1s.4-.6.7-.8l17-7.4 22-35.6-27.8 12.3c-.3.1-.7.2-1 0-.3-.1-.6-.3-.8-.7-.2-.3-.2-.7-.2-1 .1-.3.3-.7.5-.9l62.3-48.6c.2-.1.4-.2.6-.3.2 0 .4 0 .6 0 .2.1.4.2.5.3.2.2.3.3.4.5l7.1 17.6c.1.2.1.4.1.6 0 .2 0 .4-.1.6-.1.2-.2.3-.3.5-.1.1-.3.2-.5.3l-36.6 16.3 1.2 38.9c0 .4-.1.8-.4 1.1-.3.3-.6.4-1 .4h-24.1l10.1 81.6c0 .3 0 .7-.2 1-.2.3-.5.5-.8.6l-.4.3m-25.9-76.3l23 62.8-8.5-69.2-14.5 6.4m18.2-9.9h21.9l-1.1-33.8-20.8 33.8m52-70.5l-51.8 40.3 57.6-25.6-5.8-14.7"/><path d="m104.5 144.2c-.3 0-.6-.1-.8-.3-.2-.1-.3-.3-.4-.5-.1-.2-.2-.4-.2-.6l-1.3-39.9c0-.2 0-.5.2-.7.1-.2.3-.4.5-.5.2-.1.4-.2.7-.2.3 0 .5.1.7.2l50.1 23.4c.3.1.5.3.6.6.1.3.2.5.2.8 0 .2-.1.4-.3.6-.1.2-.3.3-.5.4l-49 16.6c-.2.1-.3.1-.5.1m.2-39.2l1.2 35.8 43.7-14.8-44.9-21z"/><path d="m153.4 127.7c-.2 0-.4 0-.6-.1l-50.2-23.4c-.2-.1-.4-.3-.6-.5-.1-.2-.2-.5-.3-.7 0-.3.1-.6.2-.8.2-.2.4-.4.6-.5l36.2-16.3-6.3-16.2c-.1-.4-.1-.8 0-1.1l23.7-55.6c.1-.3.4-.6.7-.7.3-.1.7-.1 1 0 .3.1.6.3.8.7.2.3.2.7.1 1l-16.7 72.4 12.7 39.9c.1.3.1.6 0 .8-.1.3-.2.5-.4.7-.3.2-.6.4-.9.4m-46.9-24.8l44.5 20.7-11.3-35.7-33.2 15zm28.7-34.3l5.1 12.7 12.3-53.4-17.4 40.7"/><path d="m68.3 77.8c-.3 0-.6-.1-.8-.3-.2-.2-.4-.4-.5-.7-.1-.3-.1-.6 0-.9.1-.3.3-.6.6-.7l89.2-63.4c.2-.2.5-.2.8-.2.3 0 .6.1.8.3.2.2.4.5.5.8s0 .6-.1.9l-23.8 55.5c-.1.2-.2.4-.4.6-.2.1-.4.2-.7.3l-65.4 7.8h-.2m85.9-60.7l-80.5 57.2 59.1-7 21.4-50.2"/><path d="m71.4 118.4c-.4 0-.7-.1-1-.4-.2-.3-.3-.6-.3-.9 0-.3.1-.7.3-.9l17.6-23.5c.1-.2.3-.3.4-.4l44.6-25c.1-.1.3-.2.5-.2.2 0 .4 0 .5 0 .2 0 .3.1.5.2.1.1.3.3.4.4.1.2.2.3.2.5 0 .2 0 .4 0 .6 0 .2-.1.4-.2.5-.1.2-.2.3-.4.4l-62.3 48.5c-.2.2-.5.2-.8.2m18.6-23.7l-11.1 14.8 39-30.4-27.9 15.6z"/><path d="m89 95c-.3 0-.6-.1-.9-.3l-20.7-17.2c-.2-.2-.3-.4-.4-.7-.1-.3-.1-.5 0-.8.1-.3.2-.5.4-.7.2-.2.4-.3.7-.3l65.5-7.8c.3 0 .6.1.9.3.3.2.5.4.6.8.1.3.1.7 0 1-.1.3-.3.6-.6.7l-44.8 24.8c-.2.1-.5.2-.7.2m-17.3-17.6l17.4 14.4 37.5-20.9-54.9 6.5z"/><path d="m71.4 118.7c-.1 0-.3 0-.4 0-.3-.1-.5-.3-.7-.5s-.3-.5-.3-.8l-3.1-40.8c0-.3 0-.6.2-.8.1-.3.3-.5.6-.6.2-.1.5-.2.8-.2.3 0 .5.1.7.3l20.7 17.2c.3.2.5.6.5.9 0 .4-.1.8-.3 1.1l-17.6 23.7c-.1.2-.3.3-.5.3-.2.2-.4.2-.6.2m-1.5-39.1l2.6 33.8 14.5-19.7-17.1-14.1zm233.1 10.8c-.3 0-.5-.1-.8-.3l-57.7-39.9c-.2-.2-.4-.4-.5-.7-.1-.3-.1-.6-.1-.9.1-.3.3-.6.5-.7.2-.2.5-.3.8-.3l80.7-6.2c.3 0 .5 0 .7.1.2.1.4.3.5.5s.2.5.2.7-.1.5-.2.7l-22.9 46.2c-.1.2-.2.3-.4.5-.1.1-.3.2-.5.3h-.3m-53.6-40.2l53.1 36.7 21.1-42.5-74.2 5.8"/><path d="m245.3 50.5c-.4 0-.7-.1-1-.4l-22.9-24.2c-.2-.2-.3-.4-.4-.7-.1-.3 0-.5 0-.8.1-.3.3-.5.5-.6.2-.2.5-.3.7-.3l106.4-8.6c.2 0 .4 0 .6.1.2.1.4.2.5.4.1.2.2.3.3.5.1.2.1.4.1.6l-2.8 26.5c0 .3-.2.6-.4.9-.2.2-.5.4-.9.4l-80.7 6.2m-19.8-24.4l20.3 21.5 78.9-6.2 2.4-23.6-101.6 8.3"/><path d="m295.1 140.7c-.3 0-.6-.1-.8-.2-.2-.2-.4-.4-.5-.6-.1-.3-.1-.6-.1-.8s.2-.6.4-.7l50-54.1c.2-.2.4-.3.6-.4.2-.1.5-.1.7-.1.2 0 .4.2.6.3.2.2.3.3.4.6l15.5 38.7c.1.2.1.4.1.6 0 .2 0 .4-.1.6-.1.2-.2.3-.4.5-.2.1-.4.2-.6.3l-65.4 15.4-.4-.1m49.7-52.9l-45.5 49.1 59.3-14-13.8-35.1m-63.4 17.7h-.3l-41.7-7.7c-.3-.1-.6-.3-.9-.6-.2-.3-.3-.7-.2-1l5.6-47.4c0-.2.1-.5.3-.7.1-.2.3-.4.5-.5.2-.1.4-.2.7-.2.2 0 .5.1.7.2l57.6 39.9c.2.1.3.3.5.5.1.2.2.4.2.7 0 .2-.1.5-.2.7-.1.2-.3.4-.5.5l-21.7 15.4c-.2.1-.5.2-.8.1h.2zm-40.2-10.3l39.8 7.4 19.4-13.7-54-37.4-5.2 43.7m-18.8-68.9c-.3 0-.6-.1-.8-.3-.2-.2-.4-.5-.5-.8-.1-.3 0-.6.1-.9.1-.3.3-.5.6-.7l40.6-23.4c.1-.1.3-.1.5-.2.1 0 .3 0 .5 0l65.8 14.8c.3 0 .6.3.9.5.2.3.3.6.3 1 0 .3-.2.7-.4.9-.2.2-.6.4-.9.4l-106.7 8.7m40.9-23.3l-34.6 20 90.6-7.4-56-12.6"/><path d="m295.1 140.8c-.2 0-.5 0-.7-.2-.2-.1-.4-.3-.5-.5-.1-.2-.2-.4-.2-.7 0-.3 0-.5.1-.7l48.2-105.7c.1-.3.4-.5.6-.7.3-.1.6-.2.9-.1.3.1.6.2.8.5.2.2.3.6.3.9l1.9 51.8c0 .2 0 .4-.1.6 0 .2-.1.3-.3.5l-50.1 54.1c-.2.1-.5.2-.9.2m47-101.3l-42.1 92.5 43.8-47.3-1.7-45.2z"/><path d="m295.1 140.8c-.1 0-.3 0-.4 0-.3-.1-.6-.3-.8-.6-.2-.3-.3-.6-.2-1l7.9-50.4c0-.2.1-.3.1-.4l23-46.2c.1-.3.3-.5.6-.6l17.3-9.1c.2-.1.5-.2.8-.1.3 0 .6.2.7.4.2.2.3.5.4.8 0 .3 0 .6-.1.9l-48.1 105.5c-.1.3-.3.4-.5.6-.2.1-.5.2-.7.2m9.2-51.4l-6.2 40.2 42.3-92.8-13.4 7.1-22.7 45.5z"/><path d="m295.1 140.8c-.3 0-.6-.1-.8-.2-.2-.2-.4-.4-.5-.6l-13.8-35.4c-.1-.3-.1-.6-.1-1 .1-.3.3-.6.6-.8l21.7-15.2c.2-.2.5-.2.8-.2.3 0 .5.1.8.2.2.2.4.4.5.6.1.3.1.5.1.8l-7.9 50.5c0 .3-.2.6-.4.8-.2.2-.5.4-.8.4l-.2.1m-12.1-36.2l11.6 29.5 6.6-42.1-18.2 12.6"/><path d="m209.1 110.3c-.2 0-.5-.1-.7-.2l-32.7-19.8c-.3-.2-.5-.4-.6-.7-.1-.3-.1-.6 0-1 .1-.3.3-.6.5-.8.3-.2.6-.3.9-.2l63.3 7.4c.3 0 .6.2.8.4.2.2.3.5.4.8 0 .3 0 .6-.2.9-.2.3-.4.5-.7.6l-30.6 12.6c-.1 0-.3 0-.4 0m-26.4-19.1l26.5 16.1 24.8-10.2-51.3-5.9z"/><path d="m153.3 127.5h-.2c-.3 0-.5-.1-.7-.3-.2-.2-.3-.4-.4-.6l-12.8-40.4c-.1-.3-.1-.6 0-.8.1-.3.2-.5.4-.7l26.4-23.3c.2-.2.4-.3.6-.3.2-.1.4 0 .7 0 .2.1.4.2.6.3.2.1.3.3.4.6l9.3 26.1 32.3 19.7c.2.2.4.4.5.6.1.3.2.5.1.8 0 .3-.1.5-.3.7-.2.2-.4.4-.6.5l-55.3 17c-.4.2-.7.2-1 .1m23.5-36.6l-20.2 32.6 49-15-28.8-17.6zm-34.8-4.7l11.8 36.6 21-33.9-8.4-23.9-24.4 21.2"/><path d="m360.6 125.3h-.1c-.3 0-.5-.1-.7-.3-.2-.1-.4-.4-.5-.6l-15.5-38.7c-.1-.3-.1-.6 0-.9.1-.3.3-.6.5-.8.3-.2.6-.3.9-.3.3 0 .6.1.9.3l25.9 22.6c.2.2.4.6.5.9.1.3 0 .7-.2 1l-10.5 16.2c-.1.2-.3.4-.5.5s-.5.1-.7.1m-12-35.3l12.3 30.9 8.2-13-20.5-17.9z"/><path d="m371 109.1c-.3 0-.6-.1-.9-.3l-25.8-22.5c-.2-.2-.3-.4-.4-.7-.1-.3-.1-.5 0-.8s.2-.5.4-.6c.2-.2.4-.3.7-.3l40.7-4c.3 0 .5 0 .7.2.2.1.4.3.6.5.1.2.2.5.2.7 0 .3-.1.5-.2.8l-14.9 26.5c-.1.2-.2.3-.4.5-.2.1-.4.2-.6.2l-.1-.2m-22.4-22.8l22 19.2 12.7-22.6-34.7 3.4"/><path d="m345.2 86.6h-.2c-.3 0-.6-.2-.8-.5-.2-.3-.3-.6-.4-.9l-1.9-51.7c0-.2 0-.4.1-.6.1-.2.2-.4.4-.5.2-.1.4-.2.6-.3s.4 0 .7 0l17.6 5.4c.2.1.3.1.5.3.2.1.3.3.4.5.1.2.1.4.1.6 0 .2 0 .4-.1.6l-15.7 46.3c-.1.3-.3.5-.5.7-.2 0-.5.1-.8.1m-.4-51.1l1.5 42.2 12.8-37.7-14.3-4.5z"/><path d="m345.2 86.6c-.2 0-.4 0-.6-.1s-.3-.2-.5-.4c-.1-.2-.2-.4-.3-.7 0-.2 0-.5.1-.7l15.3-44.8-16.3-4.9c-.3-.1-.5-.2-.7-.4l-14.5-17.2c-.2-.3-.3-.6-.3-.9 0-.4.1-.7.3-.9.2-.3.5-.4.9-.5.3 0 .7 0 .9.2l32.2 22.7c.2.2.4.4.5.7l24.9 42c.1.2.2.5.2.7 0 .3 0 .5-.1.7-.1.2-.3.4-.5.5-.2.1-.4.2-.6.3l-40.8 4-.1-.3m16.1-44.3l-14.1 41.3 36.4-3.6-22.3-37.7m-17.2-10l8.8 2.7-16-11.3 7.2 8.6"/><path d="m326 44.2c-.3 0-.5-.1-.8-.3-.2-.1-.4-.3-.5-.6-.1-.2-.2-.5-.1-.8l2.8-26.5c0-.3.1-.6.3-.8.2-.2.4-.4.6-.5.3-.1.5-.1.8 0 .3.1.5.2.7.5l14.5 17.2c.1.2.3.4.3.6 0 .2 0 .4 0 .7 0 .2-.1.4-.2.6-.1.2-.3.3-.5.4l-17.2 9.3c-.2.1-.4.2-.7.2m3.8-24.6l-2.2 20.6 13.4-7.1-11.2-13.5z"/><path d="m239.7 98h-.1l-63.4-7.4c-.3 0-.5-.1-.7-.3s-.4-.4-.4-.6l-9.4-26.6c-.1-.2-.1-.4-.1-.6 0-.2 0-.4.1-.6.1-.2.2-.4.4-.5.2-.1.4-.2.6-.3l47.3-8.5c.3 0 .6 0 .8.1.3.1.5.3.6.6l25.6 42.3c.1.2.2.5.2.7 0 .3-.1.5-.2.7s-.3.4-.5.5c-.2.1-.4.2-.7.2l-.1.3m-62.4-10.3l59.6 7-23.5-38.9-44.7 8 8.6 23.9"/><path d="m239.7 98c-.2 0-.5-.1-.7-.2-.2-.1-.4-.3-.5-.5l-25.5-42.4c-.1-.2-.2-.4-.2-.6 0-.2 0-.4 0-.6l8.3-29.2c.1-.3.2-.5.4-.6.2-.2.4-.3.6-.4.3-.1.5-.1.7 0 .2.1.4.2.6.4l23 24.1c.2.2.3.3.3.6.1.2.1.4.1.6l-5.8 47.4c0 .3-.2.6-.3.8-.2.2-.4.4-.7.4l-.3.2m-24.1-44.1l23.1 38.3 5.2-42.7-20.8-21.9-7.5 26.3"/><path d="m166.8 64c-.2 0-.4 0-.6-.1-.2-.1-.4-.3-.5-.4-.1-.2-.2-.4-.2-.6s0-.4.1-.7l7.7-23.5c0-.2.2-.4.3-.6.2-.2.3-.3.6-.3l47.9-14.2c.3-.1.5-.1.7 0 .2 0 .5.2.6.4.2.2.3.4.3.6s0 .5 0 .7l-8.3 29.3c-.1.3-.2.5-.4.7-.2.2-.4.3-.7.3l-47.3 8.4h-.2m8.8-23.7l-6.7 20.5 44.1-7.9 7.4-25.9-44.8 13.3"/><path d="m174.5 40.6c-.2 0-.5-.1-.6-.2-.2-.1-.4-.3-.5-.5l-17-26.1c-.2-.2-.2-.5-.2-.8 0-.3.1-.6.2-.8.1-.2.3-.4.6-.5.3-.1.5-.2.8-.1l65 11.8c.3.1.6.2.8.5.2.3.3.6.4.9 0 .3-.1.6-.3.9-.2.3-.4.5-.8.5l-48 14.2c-.1.2-.3.2-.4.2m-14.1-25.5l14.7 22.4 41.2-12.3-55.9-10.1z"/><path d="m166.7 64.8c-.3 0-.6-.1-.8-.4-.2-.2-.4-.5-.5-.8l-9.2-50.3c0-.3 0-.6.2-.9.1-.3.4-.5.7-.6.3-.1.6-.1.9 0 .3.1.6.3.7.6l17.1 26.1c.1.2.2.4.2.6s0 .4-.1.7l-7.9 24c-.1.3-.3.6-.5.7-.2.2-.5.3-.8.3m-6.6-45.2l7.1 38.1 5.9-18.3-13-19.8z"/><path d="m140.6 87.2c-.3 0-.5-.1-.7-.2-.2-.2-.4-.4-.5-.7-.1-.3-.1-.6 0-.9l16.9-72.8c.1-.3.2-.6.5-.8.3-.2.6-.3.9-.3.3 0 .6.1.9.3.2.2.4.5.5.8l8.9 50.4c0 .3 0 .5-.1.8-.1.2-.2.5-.4.6l-26 22.5c-.2.2-.6.3-.9.3m16.7-67.3l-14.4 62.1 22.3-19.2-7.9-42.9z"/><path d="m393.9 435.8c-.3 0-.6-.1-.9-.3l-59.3-48.6c-.1-.1-.3-.3-.4-.5-.1-.2-.1-.4-.1-.6l-1.9-38.6c0-.2 0-.4.1-.6.1-.2.2-.4.3-.5.2-.1.3-.2.5-.3.2-.1.4-.1.6-.1l41.1 5.9c.3 0 .5.2.7.3.2.2.4.5.4.7l20.1 81.3c.1.3.1.6 0 .9-.1.3-.3.5-.5.7-.1.2-.4.3-.7.3m-57.9-50.8l55.5 45.6-18.8-76.3-38.5-5.6 1.8 36.3z"/><path d="m304.5 406.3c-.2 0-.4 0-.6-.2-.2-.1-.3-.2-.5-.4-.1-.2-.2-.4-.3-.6 0-.2 0-.4 0-.7l11.6-44.8c.1-.3.2-.6.5-.8l16.8-12.9c.2-.2.4-.3.7-.3.2 0 .5 0 .7.1.2.1.4.3.6.5.1.2.2.5.2.7l1.9 38.6c0 .3 0 .5-.1.7-.1.2-.3.4-.5.6l-30.2 19.1c-.3.3-.6.4-.8.4m12.7-45.4l-10.5 40.9 26.5-16.8-1.7-35.1-14.3 11z"/><path d="m393.9 435.8h-.4l-89.4-29.5c-.3-.1-.5-.2-.6-.4s-.3-.5-.3-.8c0-.3 0-.6.1-.8.1-.2.3-.4.5-.6l30.1-19c.2-.2.5-.2.8-.2.3 0 .6.1.8.2l59.2 48.6c.3.2.4.5.5.8.1.3 0 .7-.1 1-.1.2-.3.4-.5.5-.2.1-.4.2-.7.2m-86-31.5l79.2 26.3-52.5-43.1-26.7 16.8zm65.9-49.8h-.2l-41.1-5.9c-.2 0-.4-.1-.6-.2-.2-.1-.3-.2-.4-.4-.1-.2-.2-.4-.2-.6 0-.2 0-.4 0-.6l2.4-9.8c0-.2.1-.4.3-.6.1-.1.3-.3.4-.4.2-.1.4-.1.6-.1.2 0 .4 0 .6.1l38.6 15.7c.3.1.6.4.7.7.1.3.2.7.1 1-.1.3-.2.6-.5.7-.1.2-.4.3-.7.4m-39.3-8.6l27.9 4-26.2-10.6-1.7 6.6z"/><path d="m316 361.5c-.2 0-.4 0-.6-.1-.2-.1-.3-.2-.5-.4-.2-.3-.4-.6-.4-.9 0-.4.1-.7.4-1l19.2-22.7c.2-.2.5-.4.8-.5.3 0 .6 0 .9.1.3.2.5.4.6.7.1.3.1.6.1.9l-2.4 9.9c-.1.3-.3.6-.5.8l-16.9 12.9c-.1.2-.4.3-.7.3m16.4-18.7l-6.7 7.9 5.9-4.5.8-3.4z"/><path d="m208.6 505.9c-.2 0-.3 0-.5 0l-48.9-17.6c-.2-.1-.4-.2-.5-.4l-42.3-44.2-57.2-20.7c-.2-.1-.4-.2-.5-.3-.1-.1-.3-.3-.3-.5l-27.8-79.5-3.9-8-26.6-77.4c-.1-.3-.1-.6 0-.9.1-.3.3-.6.5-.7l25.8-21.1-4.2-67.9c0-.3.1-.6.2-.9.1-.3.4-.4.6-.6l37-15.8 7-73.2c0-.2.1-.4.2-.6.1-.2.2-.3.4-.5l89.2-63.3c.3-.2.7-.3 1-.2l64.5 11.8 40.2-23.2c.3-.2.6-.2 1-.2l65.8 14.8c.2 0 .3.1.5.2l32 22.7c.2.1.3.3.4.4l25 42.1c.1.2.2.5.2.7 0 .3-.1.5-.2.7l-25.4 42.9c-.2.3-.5.6-.9.7l-65.4 15.4c-.3.1-.7 0-1-.1-.3-.1-.5-.4-.6-.7l-13.5-34.4-40.6-7.5-30.4 12.5-43.9 25.8-3.3 65.7c0 .3-.1.6-.3.9l-30.8 38.2 36.9 59.5c.1.2.2.4.2.6s0 .4 0 .6l-8.6 28.7 24.6 29.1 77.9 12.6 53.2-13.3 18.9-22.2c.2-.2.5-.3.7-.4.3-.1.6 0 .8 0l38.6 15.6c.2.1.4.2.5.4.2.2.3.4.3.6l20.1 81.2c.1.3 0 .6-.1.9-.1.3-.3.5-.6.7l-76.6 44.4-51.7 15.3-35.3 4.2-21.9 6.5h-.4zm-48.2-20.3l48.2 17.2 21.7-6.3 35.3-4.2 51.2-15.1 75.5-43.7-19.6-79.5-37-15-18.7 21.9c-.2.2-.4.4-.7.5l-54 13.6c-.2 0-.4 0-.5 0l-78.7-12.8c-.3-.1-.6-.2-.8-.5l-25.4-30c-.2-.2-.3-.4-.3-.6 0-.3 0-.5 0-.7l8.6-28.8-36.8-59.9c-.2-.2-.3-.5-.3-.8 0-.3.1-.6.3-.9l31.1-38.6 3.3-66.1c0-.2.1-.5.2-.7.1-.2.3-.4.5-.5l44.8-26.5 30.8-12.6c.2-.1.5-.1.7 0l41.7 7.7c.2 0 .4.2.6.3.2.2.3.3.4.6l13.4 34.1 63.6-15 24.6-41.5-24.2-41.2-31.5-22.4-65.1-14.7-40.3 23.2c-.3.1-.6.2-.9.2l-64.3-11.7-88.2 62.6-6.9 73.3c0 .3-.1.5-.3.7-.2.2-.3.4-.6.5l-36.8 15.8 4.3 67.6c0 .2 0 .5-.1.7-.1.2-.2.4-.4.5l-25.6 21 26 76.3 4.1 8 27.8 79 56.8 20.6c.2.1.4.2.5.4l42 44"/></g></svg>