<svg height="386" viewBox="0 0 418 386" width="418" xmlns="http://www.w3.org/2000/svg" xmlns:xlink="http://www.w3.org/1999/xlink"><defs><linearGradient id="a" x1="87.862888%" x2="33.61062%" y1="66.78128%" y2="0%"><stop offset="0" stop-color="#fff" stop-opacity="0"/><stop offset="1" stop-color="#cecece"/></linearGradient><linearGradient id="b" x1="100.50947%" x2="24.544642%" y1="98.954624%" y2="49.641361%"><stop offset="0" stop-color="#a30193"/><stop offset="1" stop-color="#1a002a"/></linearGradient><path id="c" d="m330.991465 387.093363-82.73172-145.093363-101.259745 175h166.617389c11.045695 0 20-8.954305 20-20 0-3.474238-.905023-6.888553-2.625924-9.906637z"/><filter id="d" height="136%" width="134.4%" x="-17.2%" y="-16.3%"><feOffset dx="0" dy="3" in="SourceAlpha" result="shadowOffsetOuter1"/><feGaussianBlur in="shadowOffsetOuter1" result="shadowBlurOuter1" stdDeviation="10"/><feColorMatrix in="shadowBlurOuter1" type="matrix" values="0 0 0 0 0   0 0 0 0 0   0 0 0 0 0  0 0 0 0.277258832 0"/></filter><linearGradient id="e" x1="17.29811%" x2="67.047613%" y1="62.137253%" y2="24.460751%"><stop offset="0" stop-color="#28214b"/><stop offset="1" stop-color="#a30193"/></linearGradient><path id="f" d="m245.482775 66.7869071 123.461316 71.0784029c9.572627 5.511095 12.86515 17.738869 7.354054 27.311497-1.759943 3.056976-4.297079 5.594111-7.354054 7.354055l-316.944091 182.469138v-199.801914l153.567891-88.4111789c12.354394-7.1125973 27.56049-7.1125973 39.914884 0z"/><filter id="g" height="121.6%" width="119.3%" x="-9.6%" y="-9.8%"><feOffset dx="0" dy="3" in="SourceAlpha" result="shadowOffsetOuter1"/><feGaussianBlur in="shadowOffsetOuter1" result="shadowBlurOuter1" stdDeviation="10"/><feColorMatrix in="shadowBlurOuter1" type="matrix" values="0 0 0 0 0   0 0 0 0 0   0 0 0 0 0  0 0 0 0.276353034 0"/></filter></defs><g fill="none" fill-rule="evenodd" transform="translate(-30 -54)"><path d="m427.126606 98.3530624 1.873394 170.6672526-151.628617 88.979685-10.371383-182.605365z" fill="url(#a)" transform="matrix(-.8660254 .5 -.5 -.8660254 766.376841 262.649944)"/><use fill="#000" filter="url(#d)" xlink:href="#c"/><use fill="url(#b)" fill-rule="evenodd" xlink:href="#c"/><g transform="matrix(.8660254 -.5 .5 .8660254 -75.628475 135.750691)"><use fill="#000" filter="url(#g)" xlink:href="#f"/><use fill="url(#e)" fill-rule="evenodd" xlink:href="#f"/></g></g></svg>