<svg xmlns="http://www.w3.org/2000/svg" viewBox="0 0 226.78 226.78" width="2500" height="2500"><defs><style>.cls-1{fill:none;stroke:#003569;stroke-miterlimit:10;stroke-width:.25px}.cls-2{clip-path:url(#clip-path)}.cls-3{fill:url(#Naamloos_verloop_3)}</style><clipPath id="clip-path"><path class="cls-1" d="M126.31 104.46c3.12-28.75 3.37-57.27 3.37-65.32v-.82c1.6-.69 4.76-1.33 10.19.15 6.22 1.7 11 8 13.23 11.45v2.2c-.11 12.22-3.94 42.43-10.58 65.09-5.8 19.79-18.47 46.13-21 51.38a31.59 31.59 0 0 0-3.84-.61c1.01-6.68 5.68-36.42 8.63-63.52zm-2.2 64.83a29.18 29.18 0 0 1 3.82 1.52c3.28-4.29 18.35-24.32 27.77-42.43 11.11-21.36 21.45-49.7 22.85-55.2l.57-2.25c-1.23-3.82-4.18-10.93-9.91-14.66A24 24 0 0 0 155.77 52v.11c-.11 12.37-4 42.93-10.69 65.82-5.71 19.47-17.92 45.07-20.98 51.36zm6.21 2.83a28.54 28.54 0 0 1 4.39 3.29c4-4 20.86-20.7 32.05-34.8 12.92-16.28 25.77-39.14 27.87-44.09l1.09-2.58c-.3-3.28-1.21-8.49-4-12.35a23.33 23.33 0 0 0-10.59-7.64c-1.76 6.8-12.46 35.35-23 55.69-9.34 17.85-24.03 37.5-27.82 42.48zM82.58 115c7.49 24.53 18.63 49 21.13 54.4a31.07 31.07 0 0 1 4-1c-1-5.84-6.09-36.56-9.25-65.45-3.45-31.57-4.86-58.33-5-63.76v-.54C91 38 85.77 37.11 79 40.23a23 23 0 0 0-10.88 11.53c.1.74.2 1.57.32 2.5 1 8.01 5.79 33.4 14.14 60.74zm18.53-12.35c3.17 28.94 8.29 59.74 9.24 65.36a37.19 37.19 0 0 1 3.87-.2h.7c1-6.07 5.73-36.23 8.71-63.66 3.11-28.61 3.35-57 3.35-65v-1.3c-2.53-2.25-8.39-6.66-15.57-6.66S98.5 35.6 96 37.85v1.25c.26 5.41 1.66 32.07 5.11 63.56zm13.11 67.84c-14.65 0-21.34 8.74-23.32 12 12.39 9.09 20.27 13.11 23.43 13.11s12.14-4.87 23.17-12.72c-2.03-3.42-8.73-12.38-23.28-12.38zM197 97.72c-2.32 5.32-15.22 28.24-28.17 44.56-11.27 14.2-28.15 31-32.26 35a28.16 28.16 0 0 1 3.06 4 263.37 263.37 0 0 0 25.12-20.89c21.16-20 38-39.75 38.58-49.72A14.11 14.11 0 0 0 197 97.72zM58.15 138.91a306.62 306.62 0 0 0 35.19 36.5 28.07 28.07 0 0 1 2.87-2.29A251 251 0 0 1 66.66 128c-13.84-26.94-19.1-45.58-21.35-53.54L45 73.27v-.05c-3.1.83-10.91 3.42-14 9.09a18.12 18.12 0 0 0-2.08 8.48c.48 1.38 1.09 3.05 1.86 5 4.82 12.21 14.03 26.76 27.37 43.12zm-2.08 1.7c-13-16-22.18-30.28-27.24-42.49-1.9 1.67-5.84 6.12-5.4 14C24 122.46 38.85 138.81 66 162.33c8.72 7.56 16.32 13.7 22.79 18.54a26.55 26.55 0 0 1 2.7-3.55 310.2 310.2 0 0 1-35.43-36.71zM47.9 73.73c2.22 7.88 7.43 26.34 21.15 53a246.91 246.91 0 0 0 29.45 44.9 28.4 28.4 0 0 1 2.69-1.32c-2.7-5.83-13.73-30.17-21.18-54.56-8.4-27.51-13.22-53.11-14.24-61.2v-.31A19.31 19.31 0 0 0 53.32 58c-4.19 3.09-5.89 8.1-6.59 11.44.21.84.48 1.84.82 3.06z"/></clipPath><linearGradient id="Naamloos_verloop_3" x1="410.87" y1="-51.02" x2="569.81" y2="-51.02" gradientTransform="matrix(1.07 0 0 1 -411.14 172.71)" gradientUnits="userSpaceOnUse"><stop offset="0" stop-color="#fff"/><stop offset=".16" stop-color="#d5ac51"/><stop offset=".18" stop-color="#d2a644"/><stop offset=".26" stop-color="#cc9b2e"/><stop offset=".29" stop-color="#e6de5f"/><stop offset=".45" stop-color="#9d9a62"/><stop offset=".63" stop-color="#787864"/><stop offset=".7" stop-color="#517e69" stop-opacity=".96"/><stop offset=".89" stop-color="#4f99ca"/></linearGradient></defs><title>clam</title><g id="Laag_2" data-name="Laag 2"><g class="cls-2"><path class="cls-3" transform="rotate(45 115.047 121.684)" d="M29.77 14.05h170.56v215.28H29.77z"/></g><path class="cls-1" d="M126.31 104.46c3.12-28.75 3.37-57.27 3.37-65.32v-.82c1.6-.69 4.76-1.33 10.19.15 6.22 1.7 11 8 13.23 11.45v2.2c-.11 12.22-3.94 42.43-10.58 65.09-5.8 19.79-18.47 46.13-21 51.38a31.59 31.59 0 0 0-3.84-.61c1.01-6.68 5.68-36.42 8.63-63.52zm-2.2 64.83a29.18 29.18 0 0 1 3.82 1.52c3.28-4.29 18.35-24.32 27.77-42.43 11.11-21.36 21.45-49.7 22.85-55.2l.57-2.25c-1.23-3.82-4.18-10.93-9.91-14.66A24 24 0 0 0 155.77 52v.11c-.11 12.37-4 42.93-10.69 65.82-5.71 19.47-17.92 45.07-20.98 51.36zm6.21 2.83a28.54 28.54 0 0 1 4.39 3.29c4-4 20.86-20.7 32.05-34.8 12.92-16.28 25.77-39.14 27.87-44.09l1.09-2.58c-.3-3.28-1.21-8.49-4-12.35a23.33 23.33 0 0 0-10.59-7.64c-1.76 6.8-12.46 35.35-23 55.69-9.34 17.85-24.03 37.5-27.82 42.48zM82.58 115c7.49 24.53 18.63 49 21.13 54.4a31.07 31.07 0 0 1 4-1c-1-5.84-6.09-36.56-9.25-65.45-3.45-31.57-4.86-58.33-5-63.76v-.54C91 38 85.77 37.11 79 40.23a23 23 0 0 0-10.88 11.53c.1.74.2 1.57.32 2.5 1 8.01 5.79 33.4 14.14 60.74zm18.53-12.35c3.17 28.94 8.29 59.74 9.24 65.36a37.19 37.19 0 0 1 3.87-.2h.7c1-6.07 5.73-36.23 8.71-63.66 3.11-28.61 3.35-57 3.35-65v-1.3c-2.53-2.25-8.39-6.66-15.57-6.66S98.5 35.6 96 37.85v1.25c.26 5.41 1.66 32.07 5.11 63.56zm13.11 67.84c-14.65 0-21.34 8.74-23.32 12 12.39 9.09 20.27 13.11 23.43 13.11s12.14-4.87 23.17-12.72c-2.03-3.42-8.73-12.38-23.28-12.38zM197 97.72c-2.32 5.32-15.22 28.24-28.17 44.56-11.27 14.2-28.15 31-32.26 35a28.16 28.16 0 0 1 3.06 4 263.37 263.37 0 0 0 25.12-20.89c21.16-20 38-39.75 38.58-49.72A14.11 14.11 0 0 0 197 97.72zM58.15 138.91a306.62 306.62 0 0 0 35.19 36.5 28.07 28.07 0 0 1 2.87-2.29A251 251 0 0 1 66.66 128c-13.84-26.94-19.1-45.58-21.35-53.54L45 73.27v-.05c-3.1.83-10.91 3.42-14 9.09a18.12 18.12 0 0 0-2.08 8.48c.48 1.38 1.09 3.05 1.86 5 4.82 12.21 14.03 26.76 27.37 43.12zm-2.08 1.7c-13-16-22.18-30.28-27.24-42.49-1.9 1.67-5.84 6.12-5.4 14C24 122.46 38.85 138.81 66 162.33c8.72 7.56 16.32 13.7 22.79 18.54a26.55 26.55 0 0 1 2.7-3.55 310.2 310.2 0 0 1-35.43-36.71zM47.9 73.73c2.22 7.88 7.43 26.34 21.15 53a246.91 246.91 0 0 0 29.45 44.9 28.4 28.4 0 0 1 2.69-1.32c-2.7-5.83-13.73-30.17-21.18-54.56-8.4-27.51-13.22-53.11-14.24-61.2v-.31A19.31 19.31 0 0 0 53.32 58c-4.19 3.09-5.89 8.1-6.59 11.44.21.84.48 1.84.82 3.06z"/></g></svg>