<svg enable-background="new 0 0 357.8 369.2" viewBox="0 0 357.8 369.2" xmlns="http://www.w3.org/2000/svg"><path d="m252 350.5-19.2-47.5c46.5-20.6 75.2-68.3 72.5-118.2-2.6-47-33.8-87.4-78.3-104.9 8-21.9 18.1-46.8 26-68.7l-4.6 19.3c67.5 26.9 110.4 92.2 109.3 163.8-1 67.9-42.6 128.8-105.7 156.2z" fill="#e0dce0"/><path d="m223.8 78.9c-3.5-1.2-7.5-2.4-11.8-3.4-4.8-1.1-9.3-1.8-13.3-2.3 2.5-24.6 4.9-48.6 7.4-73.2l.4 20.4c5.8.6 12.2 1.7 19.3 3.5 5.6 1.4 11 2.6 15.5 4.3-5.7 16.4-11.8 34.3-17.5 50.7z" fill="#35447b"/><path d="m194.7 72.8c-3.9-.3-8.3-.5-13-.4-4.9.1-9.4.5-13.4 1.1-3.9-23.7-7.8-48.6-11.8-72.4l5.9 19.2c5.4-.7 11.5-1.3 18.1-1.4 6.7-.2 12.8.1 18.3.6-1.4 17.7-2.8 35.6-4.1 53.3z" fill="#6171a8"/><path d="m155.2 21.5c-5.6 1-11.7 2.4-18.3 4.3-5.9 1.7-11.3 3.6-16.1 5.6-3.6-5.8-7.2-11.6-10.8-17.5l29.8 67.1c3.2-1.3 6.8-2.6 10.6-3.7 4.8-1.4 9.3-2.4 13.4-3.2-2.9-17.5-5.8-35-8.6-52.6z" fill="#729ca8"/><path d="m136.4 82.5c-3 1.2-6.2 2.9-9.6 4.8-4.8 2.5-9.5 5.7-12.9 8.2-15.4-19.1-29.6-38.9-44.9-57.9l14.6 14.4c4-2.9 8-5.6 12.9-8.6 6-3.6 11.8-6.6 17.1-9 7.6 16.2 15.1 32 22.8 48.1z" fill="#3498bc"/><path d="m69 159.1-69-20.3 20.2 2.5c3.7-12.4 10.1-28.8 22.8-47.3 12.1-17.8 25.3-30 35.2-37.9 11 13.9 21.6 27.8 32.6 41.6-7.4 5.8-17.5 15.1-26.6 28.8-8.2 12.4-12.7 24.1-15.2 32.6z" fill="#215b57"/><path d="m90.2 267.2-56.1 42.1 13.6-13.8c-9.1-12-21.9-32.2-29.2-60-10.3-38.9-4.3-71.7-.2-87.7 16.6 4.8 33.3 9.5 49.9 14.3-2.7 10.3-6 28.7-2.2 51 4.7 26.9 17.3 45.4 24.2 54.1z" fill="#67b0af"/><path d="m254.5 369.2-9.7-15.8c-14.1 5.2-54.5 18-103.9 4.8-49.9-13.3-78.7-44.9-88.2-56.4 13.3-10.6 26.5-21.1 39.8-31.7 7.2 8.5 26.5 28.9 58.9 38.4 37.1 10.9 67.6 0 77.6-3.7 6.2 15.4 19.2 48.8 25.5 64.4z" fill="#80c0e3"/></svg>