<svg xmlns="http://www.w3.org/2000/svg" viewBox="0 0 578 516.2"><path fill="#13bf99" d="m223.57 402.72l-65.67 113.48h131.1l-65.43-113.48"/><path fill="#42ccad" d="m289.01 516.2l65.43-113.48h-130.86l65.43 113.48"/><path fill="#71d9c2" d="m354.43 402.72l-65.43 113.48h131.1l-65.67-113.48"/><path fill="#13bf99" d="M354.43 113.47 420.1 0 289 0 354.43 113.47z"/><path fill="#42ccad" d="m289.01 0l-65.43 113.47h130.86l-65.43-113.47"/><path fill="#71d9c2" d="M223.57 113.47 289 0 157.9 0 223.57 113.47z"/><path fill="#13bf99" d="m381.46 387.03l65.43 113.47 65.67-113.47h-131.1"/><path fill="#42ccad" d="m512.56 387.02l-65.67-113.48-65.43 113.48h131.1"/><path fill="#71d9c2" d="m446.9 273.54l65.67 113.48 65.43-113.48h-131.1"/><path fill="#13bf99" d="m196.52 128.93l-65.43-113.48-65.67 113.48h131.1"/><path fill="#42ccad" d="m65.42 128.93l65.67 113.47 65.43-113.47h-131.1"/><path fill="#71d9c2" d="m131.1 242.4l-65.67-113.47-65.43 113.47h131.1"/><path fill="#13bf99" d="m131.1 273.54h-131.1l65.43 113.48 65.67-113.48"/><path fill="#42ccad" d="m65.42 387.02h131.1l-65.43-113.48-65.67 113.48"/><path fill="#71d9c2" d="m196.52 387.03h-131.1l65.67 113.47 65.43-113.47"/><path fill="#13bf99" d="m446.9 242.4h131.1l-65.43-113.47-65.67 113.47"/><path fill="#42ccad" d="m512.56 128.93h-131.1l65.43 113.47 65.67-113.47"/><path fill="#71d9c2" d="m381.46 128.93h131.1l-65.67-113.48-65.43 113.48"/></svg>