<svg xmlns="http://www.w3.org/2000/svg" viewBox="0 0 176.69 176.69"><path fill="#0099e5" d="M 0,0 H176.69 V176.69 H0 z"/><g fill="#fff"><path d="M85.64,91.57l16.77,17.05a23.36,23.36,0,0,0,33.45,0,24.44,24.44,0,0,0,0-34.1,23.36,23.36,0,0,0-33.45,0Zm33.5,32.54a31.56,31.56,0,0,1-22.65-9.54l-22.61-23,22.61-23a31.65,31.65,0,0,1,45.29,0,33,33,0,0,1,0,46,31.55,31.55,0,0,1-22.64,9.54Z"/><path d="M57.55,124.11a31.54,31.54,0,0,1-22.64-9.54,33,33,0,0,1,0-46,31.65,31.65,0,0,1,45.29,0l1.07,1.09L75.35,75.6l-1.07-1.08a23.38,23.38,0,0,0-33.46,0,24.44,24.44,0,0,0,0,34.1,23.38,23.38,0,0,0,33.46,0l1.07-1.09,5.92,6-1.07,1.09a31.56,31.56,0,0,1-22.65,9.54"/></g></svg>