<svg viewBox="0 0 320 320" xmlns="http://www.w3.org/2000/svg"><circle fill="#2d598a" cx="160" cy="160" r="160"/><path fill="white" d="M169 227.05L169 227.05Q149.20 227.05 133.45 218.68L133.45 218.68L133.45 218.68Q117.70 210.31 108.70 195.37L108.70 195.37L108.70 195.37Q99.70 180.43 99.70 161.53L99.70 161.53L99.70 161.53Q99.70 142.63 108.70 127.69L108.70 127.69L108.70 127.69Q117.70 112.75 133.45 104.38L133.45 104.38L133.45 104.38Q149.20 96.01 169 96.01L169 96.01L169 96.01Q186.28 96.01 200.14 102.13L200.14 102.13L200.14 102.13Q214 108.25 223.18 119.77L223.18 119.77L200.50 140.29L200.50 140.29Q188.26 125.53 170.80 125.53L170.80 125.53L170.80 125.53Q160.54 125.53 152.53 130.03L152.53 130.03L152.53 130.03Q144.52 134.53 140.11 142.72L140.11 142.72L140.11 142.72Q135.70 150.91 135.70 161.53L135.70 161.53L135.70 161.53Q135.70 172.15 140.11 180.34L140.11 180.34L140.11 180.34Q144.52 188.53 152.53 193.03L152.53 193.03L152.53 193.03Q160.54 197.53 170.80 197.53L170.80 197.53L170.80 197.53Q188.26 197.53 200.50 182.77L200.50 182.77L223.18 203.29L223.18 203.29Q214 214.81 200.14 220.93L200.14 220.93L200.14 220.93Q186.28 227.05 169 227.05L169 227.05Z"/></svg>