<svg enable-background="new 0 0 196.6 170.4" viewBox="0 0 196.6 170.4" xmlns="http://www.w3.org/2000/svg"><path d="m147.3 0-98.3.2-49 85.2 49.3 85 98.3-.2 49-85.2zm-81.4 121.4c-2.1.6-4.4 1.2-6.7 1.9s-4.5 1.5-6.6 2.3c0-7.3 0-14.6 0-21.9 0-3 1.9-5.8 4.8-6.6.6-.2 1.3-.3 1.9-.2.4 0 .8.1 1.3.1 3.1.6 5.3 3.6 5.3 6.7zm20.8-4.1c-2.1.3-4.2.6-6.3 1-2.7.5-5.3 1-7.9 1.5 0-20.1 0-40.2 0-60.3 0-2.4 1.1-4.8 3-6.2 1.4-1 3.2-1.5 5-1.3 1.5.2 2.8.8 3.9 1.9 1.5 1.4 2.3 3.5 2.3 5.5zm19-2.1c-2.2.2-4.5.4-6.8.6-2.4.2-4.8.5-7.2.8 0-21.6 0-43.1 0-64.7 0-3.6 2.7-6.9 6.3-7.2h.7.7c3.6.3 6.3 3.6 6.3 7.2zm18.9-1c-2.1.1-4.2.2-6.3.3-2.5.1-5 .3-7.4.4 0-18.8 0-37.7 0-56.5 0-2.6 1.3-5.2 3.6-6.5 1.3-.7 2.8-1.1 4.3-.9 1.4.2 2.7.8 3.7 1.8 1.4 1.4 2.2 3.3 2.2 5.3v56.1zm19.3-.2c-1.9 0-3.8 0-5.8 0-2.9 0-5.8 0-8.6 0 0-13.5 0-27 0-40.6 0-2.9 1.6-5.7 4.4-6.9.8-.4 1.8-.6 2.7-.6 1.1 0 2.1.2 3 .6 2.7 1.2 4.3 3.9 4.3 6.8z" fill="#178574"/></svg>