<svg xmlns="http://www.w3.org/2000/svg" xmlns:xlink="http://www.w3.org/1999/xlink" viewBox="0 0 285.67 285.67"><defs><linearGradient id="0" x1="106.06" x2="229.83" gradientUnits="userSpaceOnUse"><stop stop-color="#7cccc1"/><stop offset="1" stop-color="#61995e"/></linearGradient><linearGradient id="1" x1="55.7" x2="179.97" xlink:href="#0"/></defs><path fill="#22201f" d="M 0,0 H285.67 V285.67 H0 z"/><path d="m229.26 127l-18.1-18.1a2.71 2.71 0 0 0 -1.78 -.71h-82.7a2.61 2.61 0 0 0 -2.13 .71l-18.1 18.1a2.71 2.71 0 0 0 -.71 1.77v3.91a2.43 2.43 0 0 0 2.49 2.48h14.55c.71 0 1.06-.35 1.77-.71l8.17-8.52h70.63l7.45 7.46v68.14l-7.45 7.47h-70.63l-8.17-8.17a2 2 0 0 0 -1.77 -.71h-14.55a2.43 2.43 0 0 0 -2.49 2.49v3.9a2.1 2.1 0 0 0 .36 1.42c0 .36.35.36.35.71l18.1 18.1a2.71 2.71 0 0 0 1.78 .71h83.05c.71 0 1.07-.35 1.78-.71l18.1-18.1a2.71 2.71 0 0 0 .71 -1.77v-78.06c.03-.71-.36-1.06-.71-1.81" fill="url(#0)"/><path d="m159.34 176.37c.71 0 1.06-.35 1.77-.71l18.1-18.1a2.66 2.66 0 0 0 .71 -1.77v-4.26a2.43 2.43 0 0 0 -2.48 -2.49h-14.55c-.71 0-1.07.36-1.78.71l-8.11 8.52h-70.68l-7.46-7.45.36-67.44 7.45-7.45h70.63l8.17 8.16a2.66 2.66 0 0 0 1.77 .71h14.55a2.43 2.43 0 0 0 2.49 -2.48v-3.55a2.1 2.1 0 0 0 -.36 -1.42c0-.36-.35-.36-.35-.71l-18.1-18.1c-.71 0-1.42-.36-2.13-.36h-82.7a2.76 2.76 0 0 0 -1.78 .71l-18.1 18.11a1.87 1.87 0 0 0 -.71 1.42l-.35 77.73c0 .71.35 1.07.71 1.78l18.1 18.07a2.71 2.71 0 0 0 1.77 .71h82.72c0-.34 0-.34.34-.34" fill="url(#1)"/></svg>