<svg enable-background="new 0 0 32 32" viewBox="0 0 32 32" xmlns="http://www.w3.org/2000/svg"><circle cx="16" cy="16" fill="#2fd2e5" r="16"/><path d="m16.6 4c-2.7-.1-5.4.7-7.5 2.4-.8.6-1 1.7-.4 2.5.1 0 .2.1.2.2.6.6 1.6.6 2.3.1 3.4-2.7 8.3-2.3 11.3.9.6.6.6 1.6 0 2.2s-1.6.7-2.2.1l-.1-.1c-1.9-2.1-5.2-2.3-7.4-.3s-2.3 5.3-.3 7.4 5.3 2.3 7.4.3c.1-.1.2-.2.3-.3.5-.5 1.2-.7 1.9-.4.8.4 1.1 1.3.7 2.1-.1.1-.1.2-.2.4-2.9 3.2-7.9 3.7-11.3 1-.8-.5-1.7-.5-2.4.1-.7.7-.8 1.8-.1 2.5.1.1.2.2.3.2 5.3 3.9 12.7 2.8 16.6-2.5s2.8-12.7-2.5-16.6c-1.9-1.3-4.2-2.1-6.6-2.2zm-.2 14.8c-1.6 0-2.9-1.3-2.9-2.9s1.3-2.9 2.9-2.9 2.9 1.3 2.9 2.9-1.3 2.9-2.9 2.9z" fill="#fff"/></svg>