<svg xmlns="http://www.w3.org/2000/svg" viewBox="0 0 344.38 365.37"><defs><linearGradient id="0" x1="-10.9" y1="177.44" x2="333.05" y2="161.25" gradientUnits="userSpaceOnUse"><stop offset=".03" stop-color="#7bc743"/><stop offset=".38" stop-color="#55a040"/><stop offset=".71" stop-color="#2e7435"/><stop offset="1" stop-color="#12683b"/></linearGradient></defs><path d="M344.34,209.36a32.89,32.89,0,0,0-5.07-19.12L307.65,140a11.51,11.51,0,0,0-15.87-3.49l-54.62,34.81a11.07,11.07,0,0,0-5.13,10.3,11.43,11.43,0,0,0,0,1.85,11.43,11.43,0,0,0,0,1.85,11.3,11.3,0,0,0,0,1.84,11.43,11.43,0,0,0,0,1.85,11.43,11.43,0,0,0,0,1.85,12,12,0,0,0,0,1.8L161.27,235.5a3.82,3.82,0,0,1-5.21-1.21l-37.2-59,65.49-39.62a3.83,3.83,0,0,1,5.21,1.2l5.46,7.53a11.52,11.52,0,0,0,15.88,3.49L265.52,113a11.08,11.08,0,0,0,5.12-10.3,11.43,11.43,0,0,0,0-1.85,11.3,11.3,0,0,0,0-1.84,11.43,11.43,0,0,0,0-1.85,11.43,11.43,0,0,0,0-1.85,11.43,11.43,0,0,0,0-1.85,11.43,11.43,0,0,0,0-1.85,11.3,11.3,0,0,0,0-1.84,11.43,11.43,0,0,0,0-1.85,11.43,11.43,0,0,0,0-1.85,11.43,11.43,0,0,0,0-1.85A10.9,10.9,0,0,0,269,77.51L234.5,23.88a35.86,35.86,0,0,0-48.77-11.31L14.71,116A30.18,30.18,0,0,0,0,142.36c0,.62,0,1.24,0,1.85s0,1.23,0,1.85,0,1.23,0,1.85,0,1.23,0,1.85S0,151,0,151.6s0,1.23,0,1.85,0,1.23,0,1.85,0,1.23,0,1.85,0,1.23,0,1.84,0,1.24,0,1.85a29.77,29.77,0,0,0,4.58,17.31L113.46,351a31.34,31.34,0,0,0,42.63,9.89l172-104.08a33.35,33.35,0,0,0,16.22-28.93c0-.61,0-1.23,0-1.84s0-1.24,0-1.85,0-1.23,0-1.85,0-1.23,0-1.85,0-1.23,0-1.84,0-1.24,0-1.85,0-1.23,0-1.85,0-1.23,0-1.85,0-1.23,0-1.85S344.35,210,344.34,209.36Z" fill="#0d532e"/><g fill="#fff"><path d="M339.27,188.39l-31.62-50.2a11.5,11.5,0,0,0-15.87-3.49l-54.62,34.81a11,11,0,0,0-3.48,15.19l.36.57a3.67,3.67,0,0,1-1.24,5.1l-71.53,43.28a3.82,3.82,0,0,1-5.21-1.21l-44.48-70.61a3.67,3.67,0,0,1,1.23-5.11l71.54-43.28a3.84,3.84,0,0,1,5.21,1.21l5.46,7.53a11.52,11.52,0,0,0,15.88,3.49l54.62-34.81A11,11,0,0,0,269,75.66L234.5,22a35.86,35.86,0,0,0-48.77-11.31l-171,103.47A30,30,0,0,0,4.62,156L113.46,328.78a31.35,31.35,0,0,0,42.63,9.89l172-104.08A33.19,33.19,0,0,0,339.27,188.39Z"/><path d="M339.27,186.54l-31.62-50.2a11.5,11.5,0,0,0-15.87-3.49l-54.62,34.81a11,11,0,0,0-3.48,15.2l.36.56a3.68,3.68,0,0,1-1.24,5.11l-71.53,43.28a3.84,3.84,0,0,1-5.21-1.21L111.58,160a3.67,3.67,0,0,1,1.23-5.11l71.54-43.27a3.83,3.83,0,0,1,5.21,1.2l5.46,7.53a11.52,11.52,0,0,0,15.88,3.49L265.52,89A11,11,0,0,0,269,73.81L234.5,20.19A35.85,35.85,0,0,0,185.73,8.88l-171,103.46A30,30,0,0,0,4.62,154.13l108.84,172.8a31.34,31.34,0,0,0,42.63,9.89l172-104.08A33.19,33.19,0,0,0,339.27,186.54Z"/></g><path d="M339.27,182.84l-31.62-50.2a11.51,11.51,0,0,0-15.87-3.49L237.16,164a11,11,0,0,0-3.48,15.2l.36.56a3.68,3.68,0,0,1-1.24,5.11l-71.53,43.28a3.82,3.82,0,0,1-5.21-1.21l-44.48-70.62a3.66,3.66,0,0,1,1.23-5.1l71.54-43.28a3.82,3.82,0,0,1,5.21,1.21l5.46,7.52a11.51,11.51,0,0,0,15.88,3.49l54.62-34.81A11,11,0,0,0,269,70.12L234.5,16.49A35.86,35.86,0,0,0,185.73,5.18l-171,103.47A30,30,0,0,0,4.62,150.43L113.46,323.24a31.35,31.35,0,0,0,42.63,9.88l172-104.07A33.2,33.2,0,0,0,339.27,182.84Z" fill="#12683b"/><path d="M328.21,227.1a5.8,5.8,0,0,1,8.23-5.15,33.34,33.34,0,0,0,5.67-9.56,5.8,5.8,0,1,1,1.76-6.33,32.7,32.7,0,0,0-.09-11.67,5.7,5.7,0,0,1-1.18.09,5.81,5.81,0,0,1-2.85-10.79c-.17-.28-.3-.57-.48-.85l-.75-1.18a5.8,5.8,0,1,1-6.18-9.82l-1.27-2a5.8,5.8,0,1,1-6.18-9.81l-1.27-2a5.8,5.8,0,1,1-6.18-9.81l-1.28-2a5.81,5.81,0,1,1-6.18-9.82l-1.27-2a5.8,5.8,0,0,1-9.1-4.93,6,6,0,0,1,.38-1.85,11.54,11.54,0,0,0-8.21,1.61L237.16,164a11.17,11.17,0,0,0-4.16,4.76,5.46,5.46,0,0,1,1.62-.21,5.82,5.82,0,0,1-.29,11.63l-.1,0a3.65,3.65,0,0,1-1.43,4.71l-71.53,43.28a3.85,3.85,0,0,1-4,0,5.81,5.81,0,1,1-5.45-7.35l.36.05-2.54-4a5.81,5.81,0,1,1-5.29-7.83,2.6,2.6,0,0,1,.39,0l-2.56-4.06a5.81,5.81,0,1,1-5.29-7.82l.4.05-2.57-4.07a5.81,5.81,0,1,1-5.3-7.8c.15,0,.28,0,.42.05l-2.58-4.1a5.8,5.8,0,1,1-5.3-7.78c.15,0,.29,0,.44.06l-2.59-4.12a5.81,5.81,0,1,1-5.31-7.76c.15,0,.3,0,.45.05l-2.6-4.13a5.82,5.82,0,1,1-.72-5.27,3.67,3.67,0,0,1,1.15-1.1l.75-.45a5.68,5.68,0,0,1-.63-2.72,5.8,5.8,0,0,1,10.5-3.26l2.07-1.25a5.8,5.8,0,0,1,9.92-6l2-1.22a5.75,5.75,0,0,1-.87-3.2,5.8,5.8,0,0,1,10.8-2.82l2-1.23a5.8,5.8,0,1,1,9.91-6l2.08-1.26a5.73,5.73,0,0,1-1.18-3.63,5.8,5.8,0,0,1,11.05-2.34l2.12-1.29a5.8,5.8,0,1,1,9.82-5.94l1.13-.68a3.92,3.92,0,0,1,1.2-.46,5.75,5.75,0,0,1-1.67-4.21,5.82,5.82,0,1,1,5.73,6L192,112.5a5.81,5.81,0,1,1,7.3,8.09,11.81,11.81,0,0,0,3,1.09,5.62,5.62,0,0,1,4.6,0,11.55,11.55,0,0,0,3.74-1.46,5.69,5.69,0,0,1-.06-.83,5.82,5.82,0,0,1,6-5.67,5.74,5.74,0,0,1,2.92.9l3-1.92a6.64,6.64,0,0,1,0-.77,5.81,5.81,0,0,1,6-5.67,5.67,5.67,0,0,1,2.85.86l3.06-2a5.65,5.65,0,0,1-.05-.71A5.77,5.77,0,0,1,243,99.64l3.11-2c0-.21-.05-.41,0-.63a5.81,5.81,0,0,1,6-5.67,5.64,5.64,0,0,1,2.73.79l3.17-2c0-.19,0-.37,0-.56a5.82,5.82,0,0,1,6-5.68,5.88,5.88,0,0,1,2.61.72,11,11,0,0,0,4.17-9,5.75,5.75,0,0,1-2.71.63,5.81,5.81,0,0,1-2.19-11.13L264.41,63a5.8,5.8,0,1,1-6.21-9.66l-1.35-2.09a5.79,5.79,0,0,1-9.49-4.62,5.82,5.82,0,0,1,3.27-5.06l-1.34-2.07a5.7,5.7,0,0,1-3.72,1.26,5.8,5.8,0,0,1-2.52-11l-1.32-2.05A5.79,5.79,0,1,1,235.48,18l-1-1.53c-.11-.17-.24-.32-.34-.49A5.79,5.79,0,0,1,225,11.14a5.74,5.74,0,0,1,1.39-3.58A36,36,0,0,0,223,5.26,5.77,5.77,0,0,1,218.75,3,36.07,36.07,0,0,0,206.92.13a5.86,5.86,0,0,1-3,.79,5.82,5.82,0,0,1-2.66-.75q-1.77.15-3.54.48A6.14,6.14,0,0,1,198,2.71a5.82,5.82,0,0,1-11.26,1.91c-.34.19-.7.36-1,.56l-1.23.75a5.8,5.8,0,1,1-9.64,5.83l-2.4,1.45A5.8,5.8,0,1,1,163,19l-2.53,1.53a5.8,5.8,0,1,1-9.37,5.67l-2.67,1.61a5.81,5.81,0,1,1-9.22,5.58l-2.84,1.72a5.81,5.81,0,1,1-9,5.45l-3.09,1.86a5.8,5.8,0,1,1-8.76,5.3l-3.33,2a5.8,5.8,0,1,1-8.52,5.15L100.07,57a5.82,5.82,0,1,1-8.28,5.12s0-.08,0-.13l-3.88,2.35a5.81,5.81,0,1,1-8,5.24,3.87,3.87,0,0,1,.06-.46L75.77,71.7a5.81,5.81,0,1,1-7.63,5.36,6.72,6.72,0,0,1,.1-.8l-4.62,2.8a5.81,5.81,0,1,1-7.3,5.46,6,6,0,0,1,.14-1.13l-5,3a5.9,5.9,0,1,1-6.66,4l-5.59,3.38a5.83,5.83,0,1,1-6.11,3.69l-6.14,3.72a5.81,5.81,0,1,1-6.08,5.65,5.72,5.72,0,0,1,.55-2.3l-6.68,4-.13.09a2.6,2.6,0,0,1,.4,0,5.82,5.82,0,1,1-6,5.67,5.66,5.66,0,0,1,.27-1.55,30.11,30.11,0,0,0-3.55,4,5.79,5.79,0,0,1-4.87,10.5A30.13,30.13,0,0,0,0,135.64a5.8,5.8,0,0,1,4.42,5.78,5.77,5.77,0,0,1-2.19,4.38c.31.75.64,1.5,1,2.24a5.8,5.8,0,0,1,6.06,9.89l1.27,2a5.81,5.81,0,0,1,6.19,9.82l1.26,2a5.72,5.72,0,0,1,3.12-.83,5.8,5.8,0,0,1,3.07,10.65l1.26,2a5.81,5.81,0,0,1,6.19,9.83l1.27,2a5.81,5.81,0,0,1,6.19,9.83l1.26,2a5.81,5.81,0,0,1,6.19,9.83l1.26,2a5.81,5.81,0,0,1,6.19,9.84l1.26,2a5.81,5.81,0,0,1,6.2,9.83l1.25,2a5.75,5.75,0,0,1,3.2-.87,5.82,5.82,0,0,1,3,10.71l1.25,2a5.82,5.82,0,0,1,6.2,9.84l1.26,2a5.81,5.81,0,0,1,6.19,9.84l1.26,2a5.73,5.73,0,0,1,3.23-.89,5.82,5.82,0,0,1,3,10.73l1.25,2a5.82,5.82,0,0,1,6.2,9.84l1.25,2a5.82,5.82,0,1,1,6.2,9.84l1.25,2a5.74,5.74,0,0,1,3.27-.91,5.82,5.82,0,0,1,3,10.74c.43.66.88,1.31,1.36,1.93a5.81,5.81,0,0,1,8.83,5.11,5.83,5.83,0,0,1-.56,2.33,31.06,31.06,0,0,0,8.51,3.64,6,6,0,0,1-.3-1.9,5.82,5.82,0,0,1,11.64.29,5.94,5.94,0,0,1-.67,2.53,31.17,31.17,0,0,0,10.36-2.71,5.77,5.77,0,0,1,2.37-1.22c.28-.16.57-.29.85-.46l7.52-4.55a5.83,5.83,0,0,1,4.3-2.6l7.26-4.39a5.77,5.77,0,0,1,5.15-3.11l6.45-3.91a5.81,5.81,0,0,1,5.5-3.57l.33,0,5.86-3.54a5.8,5.8,0,0,1,5.63-4,4.78,4.78,0,0,1,.76.09l5.31-3.21a5.82,5.82,0,0,1,5.76-4.35,6.57,6.57,0,0,1,1.18.15l4.81-2.91a5.71,5.71,0,0,1,7.34-4.44l4.44-2.68a5.78,5.78,0,0,1,5.88-5,5.52,5.52,0,0,1,1.83.37l4.07-2.46a5.77,5.77,0,0,1,8.09-4.89l3.7-2.25v0a5.82,5.82,0,0,1,6-5.67,5.72,5.72,0,0,1,2.44.62l3.45-2.08c0-.11,0-.22,0-.33a5.77,5.77,0,0,1,8.67-4.9l3.21-1.94a4.34,4.34,0,0,1,0-.63,5.78,5.78,0,0,1,8.93-4.74l3-1.8a7,7,0,0,1-.07-.92,5.83,5.83,0,0,1,9.2-4.6l2.73-1.65a6.09,6.09,0,0,1-.1-1.22,5.79,5.79,0,0,1,9.4-4.41l2.6-1.57a6.06,6.06,0,0,1-.18-1.48,5.8,5.8,0,0,1,9.62-4.23l2.12-1.28.33-.23A5.77,5.77,0,0,1,328.21,227.1Zm2.86-36.79a5.82,5.82,0,1,1-6,5.67A5.82,5.82,0,0,1,331.07,190.31Zm-7.47-11.82a5.82,5.82,0,1,1-6,5.67A5.81,5.81,0,0,1,323.6,178.49ZM37.37,144.18a5.82,5.82,0,1,1-6,5.67A5.82,5.82,0,0,1,37.37,144.18ZM29.62,144a5.82,5.82,0,1,1,6-5.67A5.81,5.81,0,0,1,29.62,144ZM229.38,67.51a5.82,5.82,0,1,1,6-5.68A5.83,5.83,0,0,1,229.38,67.51Zm7.76.19a5.82,5.82,0,1,1-6,5.67A5.82,5.82,0,0,1,237.14,67.7ZM206,70.8a5.82,5.82,0,1,1-6,5.67A5.82,5.82,0,0,1,206,70.8Zm-7.75-.19a5.82,5.82,0,1,1,6-5.67A5.82,5.82,0,0,1,198.27,70.61Zm6.15-13.43a5.82,5.82,0,1,1,5.68,6A5.82,5.82,0,0,1,204.42,57.18Zm9.07,25.45a5.82,5.82,0,1,1-6,5.67A5.82,5.82,0,0,1,213.49,82.63ZM217.56,75a5.82,5.82,0,1,1,6-5.67A5.82,5.82,0,0,1,217.56,75Zm7.75.19a5.82,5.82,0,1,1-6,5.67A5.81,5.81,0,0,1,225.31,75.16Zm-3.39-19.48a5.82,5.82,0,1,1,6-5.67A5.82,5.82,0,0,1,221.92,55.68Zm-7.46-11.83a5.82,5.82,0,1,1,6-5.67A5.81,5.81,0,0,1,214.46,43.85ZM207,32a5.82,5.82,0,1,1,6-5.67A5.82,5.82,0,0,1,207,32Zm-4.07,7.66a5.82,5.82,0,1,1-6,5.67A5.82,5.82,0,0,1,202.92,39.69Zm-7.75-.2a5.82,5.82,0,1,1,6-5.67A5.82,5.82,0,0,1,195.17,39.49Zm-4.07,7.66a5.82,5.82,0,1,1-6,5.67A5.82,5.82,0,0,1,191.1,47.15Zm1.31,25.25a5.82,5.82,0,1,1-5.67-6A5.82,5.82,0,0,1,192.41,72.4ZM183.34,47a5.82,5.82,0,1,1,6-5.67A5.82,5.82,0,0,1,183.34,47Zm-4.07,7.66a5.82,5.82,0,1,1-6,5.67A5.81,5.81,0,0,1,179.27,54.62Zm1.31,25.25a5.82,5.82,0,1,1-5.67-6A5.82,5.82,0,0,1,180.58,79.87Zm-9.06-25.45a5.82,5.82,0,1,1,6-5.67A5.82,5.82,0,0,1,171.52,54.42Zm-4.07,7.66a5.82,5.82,0,1,1-6,5.67A5.82,5.82,0,0,1,167.45,62.08Zm1.31,25.25a5.82,5.82,0,1,1-5.67-6A5.82,5.82,0,0,1,168.76,87.33Zm-9.07-25.44a5.82,5.82,0,1,1,6-5.67A5.82,5.82,0,0,1,159.69,61.89Zm-4.07,7.65a5.82,5.82,0,1,1-6,5.67A5.82,5.82,0,0,1,155.62,69.54Zm1.31,25.25a5.82,5.82,0,1,1-5.67-6A5.81,5.81,0,0,1,156.93,94.79Zm-9.06-25.44a5.82,5.82,0,1,1,6-5.67A5.82,5.82,0,0,1,147.87,69.35ZM143.8,77a5.82,5.82,0,1,1-6,5.67A5.82,5.82,0,0,1,143.8,77Zm1.31,25.25a5.82,5.82,0,1,1-5.67-6A5.82,5.82,0,0,1,145.11,102.26ZM136,76.81a5.82,5.82,0,1,1,6-5.67A5.82,5.82,0,0,1,136,76.81ZM132,84.47a5.82,5.82,0,1,1-6,5.67A5.82,5.82,0,0,1,132,84.47Zm1.31,25.25a5.82,5.82,0,1,1-5.67-6A5.82,5.82,0,0,1,133.28,109.72Zm-9.06-25.44a5.82,5.82,0,1,1,6-5.67A5.82,5.82,0,0,1,124.22,84.28Zm-4.07,7.66a5.82,5.82,0,1,1-6,5.67A5.81,5.81,0,0,1,120.15,91.94Zm1.31,25.25a5.82,5.82,0,1,1-5.67-6A5.82,5.82,0,0,1,121.46,117.19Zm-9.07-25.45a5.82,5.82,0,1,1,6-5.67A5.82,5.82,0,0,1,112.39,91.74Zm-4.07,7.66a5.82,5.82,0,1,1-6,5.67A5.82,5.82,0,0,1,108.32,99.4Zm1.31,25.25a5.82,5.82,0,1,1-5.67-6A5.82,5.82,0,0,1,109.63,124.65Zm-9.06-25.44a5.82,5.82,0,1,1,6-5.68A5.81,5.81,0,0,1,100.57,99.21Zm-4.07,7.65a5.82,5.82,0,1,1-6,5.67A5.82,5.82,0,0,1,96.5,106.86Zm200.06,67.07a5.82,5.82,0,1,1,6-5.67A5.82,5.82,0,0,1,296.56,173.93Zm7.75.19a5.82,5.82,0,1,1-6,5.67A5.82,5.82,0,0,1,304.31,174.12Zm-6.15,13.43a5.82,5.82,0,1,1-5.67-6A5.82,5.82,0,0,1,298.16,187.55Zm-9.06-25.44a5.82,5.82,0,1,1,6-5.67A5.81,5.81,0,0,1,289.1,162.11ZM285,169.76a5.82,5.82,0,1,1-6,5.67A5.82,5.82,0,0,1,285,169.76Zm1.3,25.25a5.82,5.82,0,1,1-5.67-6A5.81,5.81,0,0,1,286.33,195Zm-9.06-25.44a5.82,5.82,0,1,1,6-5.67A5.82,5.82,0,0,1,277.27,169.57Zm-4.07,7.66a5.82,5.82,0,1,1-6,5.67A5.82,5.82,0,0,1,273.2,177.23Zm1.31,25.25a5.82,5.82,0,1,1-5.67-6A5.82,5.82,0,0,1,274.51,202.48ZM265.45,177a5.82,5.82,0,1,1,6-5.67A5.81,5.81,0,0,1,265.45,177Zm-4.07,7.66a5.82,5.82,0,1,1-6,5.67A5.82,5.82,0,0,1,261.38,184.69Zm1.3,25.25a5.82,5.82,0,1,1-5.67-6A5.81,5.81,0,0,1,262.68,209.94Zm-9.06-25.44a5.82,5.82,0,1,1,6-5.67A5.82,5.82,0,0,1,253.62,184.5Zm-4.07,7.66a5.82,5.82,0,1,1-6,5.67A5.81,5.81,0,0,1,249.55,192.16Zm-4.36,19.28a5.82,5.82,0,1,1-6,5.67A5.82,5.82,0,0,1,245.19,211.44Zm-7.76-.19a5.82,5.82,0,1,1,6-5.67A5.82,5.82,0,0,1,237.43,211.25Zm-4.07,7.66a5.82,5.82,0,1,1-6,5.67A5.81,5.81,0,0,1,233.36,218.91Zm-7.75-.2a5.82,5.82,0,1,1,6-5.67A5.81,5.81,0,0,1,225.61,218.71Zm-4.07,7.66a5.82,5.82,0,1,1-6,5.67A5.82,5.82,0,0,1,221.54,226.37Zm-7.76-.19a5.82,5.82,0,1,1,6-5.67A5.82,5.82,0,0,1,213.78,226.18Zm-4.07,7.66a5.82,5.82,0,1,1-6,5.67A5.81,5.81,0,0,1,209.71,233.84Zm-7.75-.2a5.82,5.82,0,1,1,6-5.67A5.82,5.82,0,0,1,202,233.64Zm-4.07,7.66a5.82,5.82,0,1,1-6,5.67A5.82,5.82,0,0,1,197.89,241.3Zm-7.76-.19a5.82,5.82,0,1,1,6-5.67A5.82,5.82,0,0,1,190.13,241.11Zm-4.07,7.65a5.82,5.82,0,1,1-6,5.67A5.81,5.81,0,0,1,186.06,248.76Zm-7.75-.19a5.82,5.82,0,1,1,6-5.67A5.82,5.82,0,0,1,178.31,248.57Zm-4.07,7.66a5.82,5.82,0,1,1-6,5.67A5.82,5.82,0,0,1,174.24,256.23Zm-7.76-.2a5.82,5.82,0,1,1,6-5.67A5.81,5.81,0,0,1,166.48,256Zm-4.07,7.66a5.82,5.82,0,1,1-6,5.67A5.81,5.81,0,0,1,162.41,263.69Zm-7.75-.19a5.82,5.82,0,1,1,6-5.67A5.82,5.82,0,0,1,154.66,263.5Zm-4.07,7.66a5.82,5.82,0,1,1-6,5.67A5.82,5.82,0,0,1,150.59,271.16Zm-7.76-.2a5.82,5.82,0,1,1,6-5.67A5.82,5.82,0,0,1,142.83,271Zm-7.46-11.82a5.82,5.82,0,1,1,6-5.67A5.82,5.82,0,0,1,135.37,259.14ZM64.12,160.37a5.82,5.82,0,1,1-6,5.67A5.81,5.81,0,0,1,64.12,160.37Zm-7.75-.19a5.82,5.82,0,1,1,6-5.67A5.82,5.82,0,0,1,56.37,160.18ZM76,152.91a5.82,5.82,0,1,1-6,5.67A5.81,5.81,0,0,1,76,152.91Zm-1.6-13.62a5.82,5.82,0,1,1,5.67,6A5.81,5.81,0,0,1,74.35,139.29Zm9.06,25.44a5.82,5.82,0,1,1-6,5.67A5.82,5.82,0,0,1,83.41,164.73Zm-15.22-12a5.82,5.82,0,1,1,6-5.67A5.82,5.82,0,0,1,68.19,152.71Zm3.4,19.48a5.82,5.82,0,1,1-6,5.67A5.82,5.82,0,0,1,71.59,172.19ZM79.05,184a5.82,5.82,0,1,1-6,5.67A5.82,5.82,0,0,1,79.05,184Zm7.47,11.82a5.82,5.82,0,1,1-6,5.68A5.82,5.82,0,0,1,86.52,195.84ZM94,207.67a5.82,5.82,0,1,1-6,5.67A5.82,5.82,0,0,1,94,207.67Zm7.46,11.82a5.82,5.82,0,1,1-6,5.68A5.81,5.81,0,0,1,101.44,219.49Zm7.47,11.83a5.82,5.82,0,1,1-6,5.67A5.82,5.82,0,0,1,108.91,231.32Zm7.46,11.82a5.82,5.82,0,1,1-6,5.68A5.83,5.83,0,0,1,116.37,243.14ZM123.84,255a5.82,5.82,0,1,1-6,5.67A5.82,5.82,0,0,1,123.84,255Zm7.46,11.82a5.82,5.82,0,1,1-6,5.68A5.83,5.83,0,0,1,131.3,266.79Zm-3.39-19.48a5.82,5.82,0,1,1,6-5.67A5.81,5.81,0,0,1,127.91,247.31Zm-7.47-11.82a5.82,5.82,0,1,1,6-5.67A5.82,5.82,0,0,1,120.44,235.49ZM113,223.66a5.82,5.82,0,1,1,6-5.67A5.82,5.82,0,0,1,113,223.66Zm-7.47-11.82a5.82,5.82,0,1,1,6-5.67A5.82,5.82,0,0,1,105.51,211.84ZM98.05,200a5.82,5.82,0,1,1,6-5.67A5.82,5.82,0,0,1,98.05,200Zm-7.46-11.82a5.82,5.82,0,1,1,6-5.67A5.81,5.81,0,0,1,90.59,188.19ZM95,168.9a5.82,5.82,0,1,1,6-5.67A5.82,5.82,0,0,1,95,168.9Zm-7.47-11.83a5.82,5.82,0,1,1,6-5.67A5.82,5.82,0,0,1,87.48,157.07Zm4.36-19.29a5.82,5.82,0,1,1,6-5.67A5.82,5.82,0,0,1,91.84,137.78Zm-3.1-31.11a5.82,5.82,0,1,1,6-5.67A5.82,5.82,0,0,1,88.74,106.67Zm-4.07,7.66a5.82,5.82,0,1,1-6,5.67A5.82,5.82,0,0,1,84.67,114.33Zm-7.75-.2a5.82,5.82,0,1,1,6-5.67A5.81,5.81,0,0,1,76.92,114.13Zm-4.07,7.66a5.82,5.82,0,1,1-6,5.67A5.82,5.82,0,0,1,72.85,121.79Zm-7.76-.19a5.82,5.82,0,1,1,6-5.67A5.82,5.82,0,0,1,65.09,121.6ZM61,129.25a5.82,5.82,0,1,1-6,5.68A5.83,5.83,0,0,1,61,129.25Zm-7.75-.19a5.82,5.82,0,1,1,6-5.67A5.81,5.81,0,0,1,53.27,129.06Zm-4.07,7.66a5.82,5.82,0,1,1-6,5.67A5.82,5.82,0,0,1,49.2,136.72Zm-7.76-.19a5.82,5.82,0,1,1,6-5.68A5.82,5.82,0,0,1,41.44,136.53ZM44.83,156a5.82,5.82,0,1,1-6,5.67A5.82,5.82,0,0,1,44.83,156Zm7.47,11.82a5.82,5.82,0,1,1-6,5.67A5.82,5.82,0,0,1,52.3,167.83Zm7.46,11.83a5.82,5.82,0,1,1-6,5.67A5.82,5.82,0,0,1,59.76,179.66Zm7.47,11.82a5.82,5.82,0,1,1-6,5.67A5.82,5.82,0,0,1,67.23,191.48Zm7.46,11.83a5.82,5.82,0,1,1-6,5.67A5.82,5.82,0,0,1,74.69,203.31Zm7.46,11.82a5.82,5.82,0,1,1-6,5.67A5.82,5.82,0,0,1,82.15,215.13ZM89.62,227a5.82,5.82,0,1,1-6,5.67A5.82,5.82,0,0,1,89.62,227Zm7.46,11.82a5.82,5.82,0,1,1-6,5.67A5.82,5.82,0,0,1,97.08,238.78Zm7.47,11.83a5.82,5.82,0,1,1-6,5.67A5.82,5.82,0,0,1,104.55,250.61ZM112,262.43a5.82,5.82,0,1,1-6,5.67A5.82,5.82,0,0,1,112,262.43Zm7.46,11.83a5.82,5.82,0,1,1-6,5.67A5.81,5.81,0,0,1,119.47,274.26Zm7.47,11.82a5.82,5.82,0,1,1-6,5.67A5.82,5.82,0,0,1,126.94,286.08Zm7.46,11.83a5.82,5.82,0,1,1-6,5.67A5.82,5.82,0,0,1,134.4,297.91Zm4.07-7.66a5.82,5.82,0,1,1,6-5.67A5.82,5.82,0,0,1,138.47,290.25Zm7.76.2a5.82,5.82,0,1,1-6,5.67A5.81,5.81,0,0,1,146.23,290.45Zm7.46,11.82a5.82,5.82,0,1,1-6,5.67A5.82,5.82,0,0,1,153.69,302.27Zm4.07-7.66a5.82,5.82,0,1,1,6-5.67A5.82,5.82,0,0,1,157.76,294.61Zm7.76.2a5.82,5.82,0,1,1-6,5.67A5.82,5.82,0,0,1,165.52,294.81Zm4.07-7.66a5.82,5.82,0,1,1,6-5.67A5.82,5.82,0,0,1,169.59,287.15Zm7.75.19a5.82,5.82,0,1,1-6,5.67A5.82,5.82,0,0,1,177.34,287.34Zm4.07-7.66a5.82,5.82,0,1,1,6-5.67A5.81,5.81,0,0,1,181.41,279.68Zm7.76.2a5.82,5.82,0,1,1-6,5.67A5.82,5.82,0,0,1,189.17,279.88Zm4.07-7.66a5.82,5.82,0,1,1,6-5.67A5.82,5.82,0,0,1,193.24,272.22Zm7.75.19a5.82,5.82,0,1,1-6,5.67A5.82,5.82,0,0,1,201,272.41Zm4.07-7.65a5.82,5.82,0,1,1,6-5.67A5.82,5.82,0,0,1,205.06,264.76Zm7.76.19a5.82,5.82,0,1,1-6,5.67A5.82,5.82,0,0,1,212.82,265Zm4.07-7.66a5.82,5.82,0,1,1,6-5.67A5.82,5.82,0,0,1,216.89,257.29Zm7.75.2a5.82,5.82,0,1,1-6,5.67A5.82,5.82,0,0,1,224.64,257.49Zm4.07-7.66a5.82,5.82,0,1,1,6-5.67A5.82,5.82,0,0,1,228.71,249.83Zm7.76.19a5.82,5.82,0,1,1-6,5.67A5.82,5.82,0,0,1,236.47,250Zm4.07-7.66a5.82,5.82,0,1,1,6-5.67A5.81,5.81,0,0,1,240.54,242.36Zm7.75.2a5.82,5.82,0,1,1-6,5.67A5.82,5.82,0,0,1,248.29,242.56Zm4.07-7.66a5.82,5.82,0,1,1,6-5.67A5.82,5.82,0,0,1,252.36,234.9Zm7.76.19a5.82,5.82,0,1,1-6,5.68A5.82,5.82,0,0,1,260.12,235.09Zm4.07-7.65a5.82,5.82,0,1,1,6-5.67A5.82,5.82,0,0,1,264.19,227.44Zm7.75.19a5.82,5.82,0,1,1-6,5.67A5.82,5.82,0,0,1,271.94,227.63ZM276,220a5.82,5.82,0,1,1,6-5.67A5.82,5.82,0,0,1,276,220Zm7.76.2a5.82,5.82,0,1,1-6,5.67A5.82,5.82,0,0,1,283.77,220.17Zm4.07-7.66a5.82,5.82,0,1,1,6-5.67A5.82,5.82,0,0,1,287.84,212.51Zm7.75.19a5.82,5.82,0,1,1-6,5.67A5.82,5.82,0,0,1,295.59,212.7Zm4.07-7.65a5.82,5.82,0,1,1,6-5.68A5.83,5.83,0,0,1,299.66,205.05Zm7.76.19a5.82,5.82,0,1,1-6,5.67A5.82,5.82,0,0,1,307.42,205.24Zm4.07-7.66a5.82,5.82,0,1,1,6-5.67A5.82,5.82,0,0,1,311.49,197.58Zm7.75.19a5.82,5.82,0,1,1-6,5.68A5.82,5.82,0,0,1,319.24,197.77Zm-3.1-31.11a5.82,5.82,0,1,1-6,5.67A5.82,5.82,0,0,1,316.14,166.66Zm-7.46-11.82a5.82,5.82,0,1,1-6,5.67A5.81,5.81,0,0,1,308.68,154.84ZM301.21,143a5.82,5.82,0,1,1-6,5.67A5.82,5.82,0,0,1,301.21,143Zm-7.46-11.82a5.82,5.82,0,1,1-6,5.67A5.81,5.81,0,0,1,293.75,131.19Zm-11.83,7.46a5.82,5.82,0,1,1-6,5.67A5.82,5.82,0,0,1,281.92,138.65Zm-11.82,7.46a5.82,5.82,0,1,1-6,5.67A5.82,5.82,0,0,1,270.1,146.11Zm-11.83,7.47a5.82,5.82,0,1,1-6,5.67A5.82,5.82,0,0,1,258.27,153.58ZM246.45,161a5.82,5.82,0,1,1-6,5.67A5.82,5.82,0,0,1,246.45,161Zm-4.36,19.29a5.82,5.82,0,1,1-6,5.67A5.82,5.82,0,0,1,242.09,180.33Zm-11.83,7.46a5.82,5.82,0,1,1-6,5.67A5.82,5.82,0,0,1,230.26,187.79Zm-11.82,7.47a5.82,5.82,0,1,1-6,5.67A5.82,5.82,0,0,1,218.44,195.26Zm-11.83,7.46a5.82,5.82,0,1,1-6,5.67A5.82,5.82,0,0,1,206.61,202.72Zm-11.82,7.47a5.82,5.82,0,1,1-6,5.67A5.82,5.82,0,0,1,194.79,210.19ZM183,217.65a5.82,5.82,0,1,1-6,5.67A5.82,5.82,0,0,1,183,217.65Zm-11.82,7.46a5.82,5.82,0,1,1-6,5.67A5.82,5.82,0,0,1,171.14,225.11Zm-11.83,7.47a5.82,5.82,0,1,1-6,5.67A5.82,5.82,0,0,1,159.31,232.58ZM147.49,240a5.82,5.82,0,1,1-6,5.67A5.82,5.82,0,0,1,147.49,240ZM140,228.22a5.82,5.82,0,1,1-6,5.67A5.82,5.82,0,0,1,140,228.22Zm-7.46-11.83a5.82,5.82,0,1,1-6,5.67A5.82,5.82,0,0,1,132.56,216.39Zm-7.47-11.82a5.82,5.82,0,1,1-6,5.67A5.81,5.81,0,0,1,125.09,204.57Zm-7.46-11.83a5.82,5.82,0,1,1-6,5.67A5.82,5.82,0,0,1,117.63,192.74Zm-7.46-11.82a5.82,5.82,0,1,1-6,5.67A5.82,5.82,0,0,1,110.17,180.92Zm-7.47-11.83a5.82,5.82,0,1,1-6,5.67A5.82,5.82,0,0,1,102.7,169.09Zm-3.39-19.48a5.82,5.82,0,1,1,6-5.67A5.82,5.82,0,0,1,99.31,149.61Zm11.82-7.47a5.82,5.82,0,1,1,6-5.67A5.81,5.81,0,0,1,111.13,142.14ZM123,134.68a5.82,5.82,0,1,1,6-5.67A5.82,5.82,0,0,1,123,134.68Zm11.82-7.46a5.82,5.82,0,1,1,6-5.67A5.82,5.82,0,0,1,134.78,127.22Zm11.83-7.47a5.82,5.82,0,1,1,6-5.67A5.82,5.82,0,0,1,146.61,119.75Zm11.82-7.46a5.82,5.82,0,1,1,6-5.67A5.82,5.82,0,0,1,158.43,112.29Zm11.83-7.47a5.82,5.82,0,1,1,6-5.67A5.81,5.81,0,0,1,170.26,104.82Zm11.82-7.46a5.82,5.82,0,1,1,6-5.67A5.82,5.82,0,0,1,182.08,97.36Zm11.83-7.46a5.82,5.82,0,1,1,6-5.67A5.82,5.82,0,0,1,193.91,89.9Zm7.46,11.82a5.82,5.82,0,1,1,6-5.67A5.82,5.82,0,0,1,201.37,101.72Zm7.47,11.83a5.82,5.82,0,1,1,6-5.67A5.82,5.82,0,0,1,208.84,113.55Zm11.82-7.47a5.82,5.82,0,1,1,6-5.67A5.82,5.82,0,0,1,220.66,106.08Zm11.83-7.46a5.82,5.82,0,1,1,6-5.67A5.82,5.82,0,0,1,232.49,98.62Zm11.82-7.46a5.82,5.82,0,1,1,6-5.68A5.82,5.82,0,0,1,244.31,91.16Zm12.12-19.1a5.82,5.82,0,1,1-6,5.67A5.82,5.82,0,0,1,256.43,72.06ZM249,60.23a5.82,5.82,0,1,1-6,5.68A5.81,5.81,0,0,1,249,60.23ZM241.5,48.41a5.82,5.82,0,1,1-6,5.67A5.82,5.82,0,0,1,241.5,48.41ZM234,36.58a5.82,5.82,0,1,1-6,5.68A5.82,5.82,0,0,1,234,36.58Zm-7.47-11.82a5.82,5.82,0,1,1-6,5.67A5.82,5.82,0,0,1,226.57,24.76Zm-1.79-5.86a5.82,5.82,0,1,1-5.67-6A5.82,5.82,0,0,1,224.78,18.9ZM211.64,1.11a5.82,5.82,0,1,1-6,5.67A5.81,5.81,0,0,1,211.64,1.11ZM199.82,8.57a5.82,5.82,0,1,1-6,5.67A5.82,5.82,0,0,1,199.82,8.57ZM188,16a5.82,5.82,0,1,1-6,5.67A5.81,5.81,0,0,1,188,16ZM176.17,23.5a5.82,5.82,0,1,1-6,5.67A5.82,5.82,0,0,1,176.17,23.5ZM164.34,31a5.82,5.82,0,1,1-6,5.67A5.81,5.81,0,0,1,164.34,31Zm-11.82,7.46a5.82,5.82,0,1,1-6,5.67A5.82,5.82,0,0,1,152.52,38.43Zm-11.83,7.46a5.82,5.82,0,1,1-6,5.67A5.81,5.81,0,0,1,140.69,45.89Zm-11.82,7.47a5.82,5.82,0,1,1-6,5.67A5.82,5.82,0,0,1,128.87,53.36ZM117,60.82a5.82,5.82,0,1,1-6,5.67A5.81,5.81,0,0,1,117,60.82Zm-11.82,7.47a5.82,5.82,0,1,1-6,5.67A5.81,5.81,0,0,1,105.22,68.29ZM93.39,75.75a5.82,5.82,0,1,1-6,5.67A5.81,5.81,0,0,1,93.39,75.75ZM81.57,83.21a5.82,5.82,0,1,1-6,5.67A5.82,5.82,0,0,1,81.57,83.21ZM69.74,90.68a5.82,5.82,0,1,1-6,5.67A5.82,5.82,0,0,1,69.74,90.68ZM57.92,98.14a5.82,5.82,0,1,1-6,5.67A5.82,5.82,0,0,1,57.92,98.14ZM46.09,105.6a5.82,5.82,0,1,1-6,5.68A5.83,5.83,0,0,1,46.09,105.6Zm-11.82,7.47a5.82,5.82,0,1,1-6,5.67A5.82,5.82,0,0,1,34.27,113.07Zm-11.83,7.46a5.82,5.82,0,1,1-6,5.67A5.82,5.82,0,0,1,22.44,120.53Zm-12.11,19.1a5.82,5.82,0,1,1,6-5.67A5.82,5.82,0,0,1,10.33,139.63Zm7.46,11.82a5.82,5.82,0,1,1,6-5.67A5.82,5.82,0,0,1,17.79,151.45Zm7.47,11.83a5.82,5.82,0,1,1,6-5.67A5.82,5.82,0,0,1,25.26,163.28Zm7.46,11.82a5.82,5.82,0,1,1,6-5.67A5.82,5.82,0,0,1,32.72,175.1Zm7.46,11.83a5.82,5.82,0,1,1,6-5.67A5.82,5.82,0,0,1,40.18,186.93Zm7.47,11.82a5.82,5.82,0,1,1,6-5.67A5.82,5.82,0,0,1,47.65,198.75Zm7.46,11.83a5.82,5.82,0,1,1,6-5.67A5.82,5.82,0,0,1,55.11,210.58Zm7.47,11.82a5.82,5.82,0,1,1,6-5.67A5.82,5.82,0,0,1,62.58,222.4ZM70,234.23a5.82,5.82,0,1,1,6-5.67A5.82,5.82,0,0,1,70,234.23Zm7.46,11.82a5.82,5.82,0,1,1,6-5.67A5.81,5.81,0,0,1,77.5,246.05ZM85,257.88a5.82,5.82,0,1,1,6-5.67A5.82,5.82,0,0,1,85,257.88Zm7.46,11.82a5.82,5.82,0,1,1,6-5.67A5.81,5.81,0,0,1,92.43,269.7Zm7.46,11.83a5.82,5.82,0,1,1,6-5.67A5.82,5.82,0,0,1,99.89,281.53Zm7.47,11.82a5.82,5.82,0,1,1,6-5.67A5.81,5.81,0,0,1,107.36,293.35Zm7.46,11.83a5.82,5.82,0,1,1,6-5.67A5.82,5.82,0,0,1,114.82,305.18ZM122.29,317a5.82,5.82,0,1,1,6-5.67A5.81,5.81,0,0,1,122.29,317Zm7.46,11.83a5.82,5.82,0,1,1,6-5.67A5.82,5.82,0,0,1,129.75,328.83Zm11.83-7.46a5.82,5.82,0,1,1,6-5.67A5.81,5.81,0,0,1,141.58,321.37ZM149,333.19a5.82,5.82,0,1,1,6-5.67A5.82,5.82,0,0,1,149,333.19Zm11.82-7.46a5.82,5.82,0,1,1,6-5.67A5.82,5.82,0,0,1,160.86,325.73Zm11.83-7.47a5.82,5.82,0,1,1,6-5.67A5.82,5.82,0,0,1,172.69,318.26Zm11.83-7.46a5.82,5.82,0,1,1,6-5.67A5.82,5.82,0,0,1,184.52,310.8Zm11.82-7.47a5.82,5.82,0,1,1,6-5.67A5.81,5.81,0,0,1,196.34,303.33Zm11.83-7.46a5.82,5.82,0,1,1,6-5.67A5.82,5.82,0,0,1,208.17,295.87ZM220,288.41a5.82,5.82,0,1,1,6-5.67A5.82,5.82,0,0,1,220,288.41Zm11.83-7.47a5.82,5.82,0,1,1,6-5.67A5.82,5.82,0,0,1,231.82,280.94Zm11.82-7.46a5.82,5.82,0,1,1,6-5.67A5.82,5.82,0,0,1,243.64,273.48ZM255.47,266a5.82,5.82,0,1,1,6-5.68A5.81,5.81,0,0,1,255.47,266Zm11.82-7.47a5.82,5.82,0,1,1,6-5.67A5.82,5.82,0,0,1,267.29,258.55Zm11.83-7.46a5.82,5.82,0,1,1,6-5.67A5.81,5.81,0,0,1,279.12,251.09Zm11.82-7.47a5.82,5.82,0,1,1,6-5.67A5.82,5.82,0,0,1,290.94,243.62Zm11.83-7.46a5.82,5.82,0,1,1,6-5.67A5.81,5.81,0,0,1,302.77,236.16Zm11.82-7.46a5.82,5.82,0,1,1,6-5.68A5.82,5.82,0,0,1,314.59,228.7Zm11.83-7.47a5.82,5.82,0,1,1,6-5.67A5.81,5.81,0,0,1,326.42,221.23Z" fill="url(#0)"/></svg>