<svg id="Layer_1" xmlns="http://www.w3.org/2000/svg" viewBox="0 0 833.7 949.8" width="2194" height="2500"><style>.st0{fill:#222}.st1{fill:#a6a6a6}.st2{fill:#fff}</style><g id="Layer_3"><path class="st0" d="M0 474.9V0h833.8v949.8H0V474.9z" id="Capa_2"/></g><g id="Capa_1_1_"><path class="st1" d="M430.1 756.2l198.2-90.4.2 49-198.2 98.6-.2-57.2zM428.6 267.2s.1-57.2.2-57.2 137.5 62.8 137.5 62.8l-.2 53.1-137.5-58.7zM576.3 272.9l52.6-27.2.7 55.1-53.3 25.3v-53.2z"/><path class="st1" d="M212.2 233.4l211.1-97.1 205.6 100.1-57.6 28.9-148.2-68.8s-35.7 16.7-78.2 37.2-79.7 37.2-79.7 37.2l-53-37.5z"/><path class="st2" d="M204.6 713.9l-.5-471.6 54.1 35.7v405.9l156.7 72.5.7 57.1-211-99.6z"/><path class="st2" d="M271.2 680.1l66.6-26.5 84.9 39.2 148.8-64.9 48.2 29.3-197 89.8-151.5-66.9zM271.2 277.9s145.2-67.6 145.4-67.6-.2 57-.2 57l-80.9 37.3v339.6l-63.8 24.6-.5-390.9z"/></g></svg>