<svg enable-background="new 0 0 40.6 46" viewBox="0 0 40.6 46" xmlns="http://www.w3.org/2000/svg" xmlns:xlink="http://www.w3.org/1999/xlink"><linearGradient id="a" gradientUnits="userSpaceOnUse" x1="20.2902" x2="20.2902" y1="46.5089" y2=".1755"><stop offset="0" stop-color="#0b2b85"/><stop offset="1" stop-color="#5c25a7"/></linearGradient><path d="m20.3 0-20.3 11.5v23l20.3 11.5 19.6-11.1.3-.2.2-.1.2-.1v-23zm.2 1 18.3 10.4h-24.4zm-19.2 10.7 18-10.2-12 20.6zm26 .5h12.4v20.9zm-13.1 0h11.4l-11.4 6.4zm-13.4.3 12.3 21.3h-12.3zm20.3 3.2 5.5-3.1 5.6 9.4zm-13.3 7.1 5.6-9.6v12.8zm12.6-6.6 4.8 2.7h-6.4zm-6 3.2 4.9-2.7-3.3 5.6zm8.8.3h3.2v5.5zm-6.8 3.4 1.9-3.3h3.9l1.8 3.2-2 3.3h-3.9zm10.8-3.1 5.6 3.1-5.6 9.5zm-13 .8 3.2 5.5h-3.2zm10.4 2.9 1.6 2.8-4.9 2.7zm8.7.1 6.2 10.4-18.3 10.4zm-24.9.2 11.1 6.3-5.7 3.2zm6.9 3h6.4l-1.6 2.7zm11.1.4v6.5h-11.5zm-24.6 7.2h24.3l-6.1 10.4z" fill="url(#a)"/></svg>