<svg enable-background="new 0 0 182.1 68.8" viewBox="0 0 182.1 68.8" xmlns="http://www.w3.org/2000/svg"><g fill="#1c95f0"><path d="m91.1 0-27 65.3h9.8l17.2-42 17.1 42h10.4z"/><path d="m172.1 5v41.4l-43.9-45.2v64.1h10v-41.2l43.9 44.7v-63.8z"/><path d="m10 34.4c.1-4.5 1.7-8.6 4.3-12 3.8-4.8 9.8-7.5 16-7.5h23.5l4.5-9.2h-28.1c-4.7 0-9.3.9-13.5 3-9.4 4.9-16.1 14.5-16.7 25.3-.3 7.2 2 14 6.1 19.5 5.8 7.6 14.9 11.8 24.5 11.8h22.9l4.9-10.7h-28.2c-8.1 0-15.6-4.7-18.7-12.1-1-2.5-1.6-5.2-1.5-8.1z"/></g></svg>