<svg enable-background="new 0 0 32 32" viewBox="0 0 32 32" xmlns="http://www.w3.org/2000/svg"><circle cx="16" cy="16" r="16"/><g fill="#fff"><path d="m15.9 4.4c-.1-.3.4-.6.5-.3 3.4 5.9 6.9 11.8 10.3 17.7-.2 0-.4-.1-.5-.1l-9.2-1.7c-.3 0-.4-.5-.1-.6l3.6-1c.2 0 .3-.2.2-.4 0 0 0 0 0-.1z"/><path d="m15.4 4.4s.1.1.1.2c1.1 3.1 2.2 6.2 3.3 9.2.1.3-.3.5-.4.3-.9-1-1.8-2-2.7-2.9-.1-.1-.4 0-.5.1l-9.5 11.1c-.1.1-.2.3-.4.3-.1 0-.2-.1-.3-.2v-.2c3.5-6 6.9-11.9 10.4-17.9z"/><path d="m12.5 15c.2-.1.4.1.4.3-.4 1.3-.8 2.5-1.1 3.8-.1.2.1.3.2.3 4.9 1 9.9 2 14.8 3 .1 0 .2.1.2.1v.2l-.1.1h-21c2.2-2.5 4.4-5.2 6.6-7.8z"/></g></svg>