<svg xmlns="http://www.w3.org/2000/svg" viewBox="0 0 454.6 456"><path fill="#181a21" d="m0 0h454.6v456h-454.6z"/><g fill="#fff"><circle cx="150.5" cy="183.1" r="28"/><circle cx="148.6" cy="252.2" r="22.4" transform="matrix(.09845-.99514.99514.09845-117.02 375.23)"/><circle cx="161.7" cy="302.5" r="20.5"/><circle cx="187.8" cy="343.6" r="16.8"/><circle cx="219.5" cy="364.1" r="14.9"/><circle cx="292.3" cy="354.7" r="9.3"/><circle cx="310.9" cy="336.1" r="5.6"/><circle cx="320.2" cy="319.3" r="3.7"/><circle cx="260.5" cy="367.8" r="11.2"/></g><g fill="#0693a8"><circle cx="243.8" cy="308.9" r="28" transform="matrix(.16023-.98708.98708.16023-100.16 500.07)"/><circle cx="304.2" cy="275.5" r="22.4"/><circle cx="341" cy="238.7" r="20.5"/><circle cx="363.1" cy="195.4" r="16.8"/><circle cx="364.7" cy="157.6" r="14.9"/><circle cx="319.7" cy="99.7" r="9.3"/><circle cx="294.2" cy="93.1" r="5.6"/><circle cx="275" cy="93.6" r="3.7"/><circle cx="347" cy="120.4" r="11.2"/></g><g fill="#e31b29"><circle cx="307.1" cy="169.6" r="28"/><circle cx="250.2" cy="130.5" r="22.4" transform="matrix(.1891-.98196.98196.1891 74.74 351.51)"/><circle cx="200.8" cy="114.1" r="20.5"/><circle cx="152.2" cy="113.7" r="16.8"/><circle cx="117.7" cy="129.1" r="14.9"/><circle cx="86" cy="195.2" r="9.3"/><circle cx="91.5" cy="221" r="5.6"/><circle cx="100.5" cy="238" r="3.7"/><circle cx="92.3" cy="161.5" r="11.2"/></g></svg>