<svg enable-background="new 0 0 370.2 352.8" viewBox="0 0 370.2 352.8" xmlns="http://www.w3.org/2000/svg"><path clip-rule="evenodd" d="m354.3 166.8c-4.5-6.5-6.4-14.6-4.7-22.4 1.2-5.7 1.8-11.5 1.8-17.6 0-48.9-41.3-88.5-92.2-88.5-1.2 0-2.3-.6-3-1.6-15.7-22.2-41.4-36.7-70.4-36.7-27.1 0-51.3 12.7-67.2 32.6-2.7 3.3-6.7 5.3-11 5.3 0 0 0 0-.1 0-50.9 0-92.2 39.6-92.2 88.5 0 8.5 1.2 16.7 3.6 24.5 1.4 4.8.6 10.1-2.3 14.1-10.4 14.4-16.6 32.1-16.6 51.2 0 41 28.5 75.5 67.3 86 6.7 1.8 12.7 5.7 17.2 10.9 21 24.4 57.2 40.3 98.2 39.7 37.2-.6 70.2-14.7 91-36.1 5.6-5.8 12.8-9.7 20.6-11.2 43.3-8.4 75.9-44.9 75.9-88.7 0-18.5-5.9-35.7-15.9-50zm-118.6 96.4 21.3 39.8c.7 1.7.1 3.5-1.2 4.5-1.6 1.1-4 .8-5.3-1-7.3-13.6-14.5-27.1-21.8-40.7-5.3 1.8-10.9 3.1-16.6 4l24 44.7c.7 1.7.1 3.5-1.2 4.5-1.6 1.1-4 .8-5.3-1-7-13.1-17.7-33.2-25.3-47.4-2 .1-4 .2-6.1.2-51.4 0-93-40.9-93-91.5 0-21.3 7.4-40.9 19.9-56.5l-32.6-60.2c-.7-1.7-.1-3.5 1.2-4.5 1.6-1.1 4-.8 5.3 1 7 13.1 17.7 33.1 31.3 58 3.8-4 7.9-7.6 12.3-10.9l-29.5-54.9c-.7-1.7-.1-3.5 1.2-4.5 1.6-1.1 4-.8 5.3 1 7.2 13.4 14.3 26.8 29.2 54.3 14.4-8.9 31.4-14.1 49.6-14.1 8.8 0 17.2 1.2 25.3 3.4l-9.7 32.2c-5.4-1.7-11.2-2.6-17.1-2.6-32.2 0-58.4 26.1-58.4 58.4s26.1 58.4 58.4 58.4c27.5 0 50.5-19 56.7-44.5l34.4 11.2c-7.8 26.3-27.1 47.8-52.3 58.7z" fill="#194823" fill-rule="evenodd"/></svg>