<svg xmlns="http://www.w3.org/2000/svg" viewBox="0 0 1000 1000"><path d="M473.54,0h50.35c46.81,3.88,93.58,11.41,138,27.1C777.54,66.27,877.23,149.52,936.28,256c51.38,92,73.34,200.38,59.8,304.81-14.84,125.49-79.84,244.3-177.87,324.54-88.34,73.53-202.95,114.51-318,114.62-107.71-.08-215.15-35.76-300.94-100.74C99.25,824.52,29.65,711,8,588.37-8.42,499.78.71,407,32.6,322.85,75.28,209.17,161.1,112.31,269.37,56.55,332.36,23.18,402.67,5.61,473.54,0" fill="#2c3e50"/><path d="m254.05 198.07c60.63-50.7 140.86-70.59 218.38-75.17 91.53-4.74 183.62 5.14 272.71 26.2 0 36.59 0 73.17 0 109.72-80.63-24.47-164.64-44.08-249.52-38-51.77 3.76-104.68 23.56-138.62 64.18-49.45 60.27-67.4 140.47-65.43 217 .91 65.13 18 132.27 59.64 183.72 33.42 43.53 86.34 68.59 140.12 75.6 90.19 13 181.93-11.84 260.58-55.37q.12 54.82 0 109.68c-68.5 33.1-145.19 42.82-220.39 46.59-80.52 2.84-164.79-6.61-235.89-47.22-74.88-42.78-125-120.27-146.85-202.15-18.5-71.68-19.45-147.68-5.16-220.19 15.16-74.08 52.38-145.02 110.43-194.59" fill="#fff"/></svg>