<svg xmlns="http://www.w3.org/2000/svg" viewBox="0 0 2000 2000"><path d="M947.09,0h100.7c93.62,7.76,187.16,22.82,276,54.2C1555.09,132.54,1754.47,299,1872.57,512c102.76,184,146.68,400.77,119.6,609.64-29.68,251-159.68,488.61-355.74,649.1-176.68,147.06-405.9,229-636,229.25-215.42-.16-430.3-71.52-601.88-201.49C198.52,1649.09,59.32,1422,16,1176.78-16.82,999.59,1.44,814,65.22,645.72c85.36-227.37,257-421.09,473.54-532.62C664.73,46.36,805.35,11.22,947.09,0" fill="#2c3e50"/><path d="M508.12,396.15C629.38,294.75,789.83,255,944.87,245.81c183.06-9.48,367.24,10.28,545.42,52.4V517.66c-161.26-48.94-329.28-88.16-499-76C887.71,449.17,781.89,488.77,714,570,615.12,690.56,579.22,851,583.16,1004c1.82,130.26,36,264.55,119.28,367.45,66.84,87.06,172.68,137.18,280.24,151.2,180.38,26,363.86-23.68,521.16-110.74q0.24,109.64,0,219.37c-137,66.2-290.38,85.64-440.78,93.18-161,5.68-329.58-13.22-471.78-94.44-149.76-85.56-250-240.55-293.7-404.31-37-143.36-38.9-295.37-10.32-440.39,30.32-148.16,104.76-290,220.86-389.19" fill="#fff"/></svg>