<svg xmlns="http://www.w3.org/2000/svg" viewBox="0 0 570 570"><path data-name="path0 fill" d="M285 54.6A230.12 230.12 0 1 1 122 122 229.36 229.36 0 0 1 285 54.6M285 0C127.6 0 0 127.6 0 285S127.6 570 285 570 570 442.4 570 285 442.4 0 285 0" fill="#232323"/><g data-name="Vector"><path data-name="path1 fill" d="M391.37,187.75l17.2-29.8-56.8-32.7-17.1,29.6a143.1,143.1,0,0,0-146.5,39.5l49.4,28.5a88.42,88.42,0,1,1-33.1,68.9,78.44,78.44,0,0,1,.8-11.9l-49.6-28.6a143.3,143.3,0,0,0,39.6,145l-17.9,31,56.8,32.7,18.1-31.3a143.3,143.3,0,0,0,184-137.2A143.54,143.54,0,0,0,391.37,187.75Z" fill="#232323"/></g></svg>