<svg enable-background="new 0 0 32 32" viewBox="0 0 32 32" xmlns="http://www.w3.org/2000/svg"><g clip-rule="evenodd" fill-rule="evenodd"><circle cx="16" cy="16" fill="#262626" r="16"/><path d="m16.9 9.6c2.5.2 3.6 1.6 3.6 1.9v.8c0 .2.1.4.2.8 0 .3-.2.4-.5.4-.5 0-.3-.5-1-1.5-.7-1.1-1.4-1.3-2.3-1.4 0 2.3.1 8.6.1 10.8 2.3-.3 3.5-2 3.8-2 .2 0 .4.1.4.5 0 .7-1.8 2.3-4.3 2.6-.2 2-1.1 4.5-3.5 4.5-1.1 0-2.1-.9-2.1-1.9 0-.7.5-.9.9-.9s.9.3.9.9c0 .4-.1.7-.4.8.3.2.5.3.8.3.9 0 1.6-1.6 1.7-3.7-2.6-.4-5.1-2.9-5.1-6.6 0-4.1 2.6-5.9 5.1-6.3.1-1.8 1-4.7 3.5-4.7 1.5 0 2.1 1.2 2.1 1.9s-.5.9-.9.9c-.5 0-.9-.4-.9-.9 0-.4.1-.6.5-.8-.2-.2-.5-.3-.8-.3-1.3.1-1.7 2.7-1.8 3.9zm-1.6 11.8c0-2.4 0-8 0-10.6-2.3.6-3.1 3.3-3.1 5.2 0 2.9 1.4 4.9 3.1 5.4z" fill="#fff"/></g></svg>