<svg enable-background="new 0 0 300.8 296" viewBox="0 0 300.8 296" xmlns="http://www.w3.org/2000/svg"><g fill="#fff484"><circle cx="150" cy="50.3" r="50.3"/><circle cx="215.9" cy="73" r="50.3"/><circle cx="250.6" cy="133.2" r="50.3"/><circle cx="238.4" cy="200.7" r="50.3"/><circle cx="185.9" cy="245.7" r="50.3"/><circle cx="115.3" cy="245.7" r="50.3"/><circle cx="62.7" cy="200.7" r="50.3"/><circle cx="50.3" cy="133.2" r="50.3"/><circle cx="85.4" cy="73" r="50.3"/></g><path d="m150 72.8c5.3-10.9 15.1-26.7 32.8-38.9 4.2-2.9 8.3-5.2 12.2-7.1 1.9 3.7 3.8 7.9 5.3 12.6 6.7 20.7 3.7 39.4.9 50.5 8-3.5 21.2-8.1 38-8.3 10.5-.1 19.3 1.5 26 3.2-.6 3.8-1.8 9.2-4.4 15.2-3.7 8.2-8.3 13.4-14.9 20.7-4 4.4-9.5 10.1-16.8 16.1 8.4 2.5 15 5.6 19.6 8 7.6 4.1 19 10.3 27.7 22.9 1.6 2.3 2.8 4.4 3.5 5.7-2.7 2.2-7.1 5.5-13.1 8.4-9.8 4.8-18.4 6.1-28.6 7.6-4.8.7-11.5 1.4-19.7 1.6 5.4 7.7 12.7 20.5 15.9 37.7 1.6 8.3 1.8 15.7 1.6 21.9-2.2.1-5.7.2-10-.3-14.7-1.7-25.6-8.9-36.5-16.2-3.2-2.2-7.8-5.4-13-9.8-1 11-3.5 19.9-5.6 26-2 5.7-4.4 12.3-9.6 19.7-3.9 5.5-8 9.5-11.1 12.2-1.6-1.5-3.2-3-4.8-4.7-16.1-17.3-20.7-38.9-22-54.1-8.3 8.5-23.5 21.2-45.5 26-4.6 1-9.1 1.6-13.2 1.8-.3-3.5-.4-7.3-.2-11.3 1-21.9 9.8-39.2 17-50.1-13.7 1.2-35 .7-54.6-11.7-2.4-1.5-4.6-3.1-6.6-4.7 1-1.7 2.1-3.3 3.2-5 13.2-18.6 33-27.2 47.7-31.4-9.9-7.1-24.5-20.1-32.7-40.7-1.6-4.1-2.9-8.1-3.8-11.9 2.9-.8 6-1.5 9.3-2 23-3.5 42.8 3.3 55.4 9.3-3.9-15.4-6.4-37.4 2.9-58.9.8-2 1.8-3.9 2.7-5.7 1.4.5 3.7 1.4 6.4 2.8 15.1 7.6 23.8 19.7 29.7 28 2.3 3.4 5.6 8.4 8.9 14.9z" fill="#ffef32"/><path d="m150 72.8 11.1 20.9 13.8-10.8 2.3 16.5 24-9.6-5.8 24.8 16.6-.8-7.5 14.6 24.5 8.4-21.1 16.6 16.3 9.6-18.7 5.3 14.2 21.4-26.7-.7 3 18.2-16.4-7.1-2.7 24.2-18.9-16-8 15.5-8.1-16.1-19.1 16.6-3.5-23.6-15.5 5.9 3.6-17.8-26 1 13-21.3-14.8-5.3 14.3-11.3-22.8-15 24.8-8.6-7.9-14.2 15.8-.2-5.4-24.5 24.6 9.7 2.5-16.6 12.4 11.5z" fill="#fbe300"/><path d="m130.7 175.8c1-1.2.9-3-.3-4-1.5-1.4-3.2-2.9-4.8-4.7-2-2.2-3.7-4.3-5.2-6.3-.8-1-2.2-1.3-3.2-.6-.5.3-1.1 1.2-2 3.1-1.4 3.2-2.3 6.6-2.5 10.1-.3 4.5-.8 13.7 3.2 25.1.3.8.5 1.5.8 2.1.4 1.1 1.5 1.7 2.6 1.5 5.5-1 11.9-2.9 18.5-6.2 6.9-3.5 16.5-8.4 22.2-19.1 4-7.4 4.5-14.6 4.4-19.1.1-4.1-.2-9-1.2-14.5-.4-2.3-1-4.4-1.5-6.4-.3-1-.5-1.9-.8-2.9-.5-2.5-1-5.1-1.5-7.8-.6-3.5-1-6.9-1.3-10-.3-2.7.1-5.5 1.2-8 .7-1.6 1.8-3.2 3.4-4.7 4.6-4.3 10.2-4.1 11.1-4.1s7.2-.1 11.7 5c3.3 3.8 3.6 8.2 3.6 9.4 0 1-.8 6.1-.9 6.5-1.7 5.5-6.9 8.1-9.7 9.2-1.8.7-2.7 2.7-2 4.4v.1.1c.8 1.9 3.1 2.7 5 1.8 2.4-1.1 5.9-3.1 8.8-6.8.2-.3.5-.6.7-.9 4.2-5.7 5.2-13.2 3.3-20-.8-3-1.7-5.1-2.2-5.8-.7-1.1-1.5-2.2-2.4-3.1-8.3-9-22.4-9.7-31.3-1.3-.1.1-.1.1-.2.2-1.6 1.6-2.9 3.3-3.9 4.9-1.4 2.4-2.8 7.7-2.7 14.8 0 3.8.5 6.8.8 9 .4 2.7.9 5 1.4 6.7.8 3.4 1.5 7.1 2 11 .7 4.7 1.2 9.1 1.4 13.2.4 5.2-.4 9.3-1.4 12.2-6.3 18.5-29.5 23.9-34.5 24.9-.1 0-.2 0-.4 0-.4-.1-.6-.5-.6-.7-2.4-5.7-2.3-9.5-2.3-9.5 0-6.5-.3-5.7-.3-8.2.1-3.4.7-4.1 1.2-4.5.1-.1.9-.8 1.2-.3 1.1 1.4 2.1 2.5 2.9 3.2s1.6 1.3 2.4 1.9c.7.5 2 1 3.4.6 1.1-.7 1.7-1.2 1.9-1.5z" fill="#010100"/><path d="m200.4 136.2c-.7-.2-1.5-.4-2.2-.6-2.2-.5-4.5.9-4.8 3.2v.5.5c.2 1.4 1.3 2.4 2.7 2.7 1 .2 2 .5 2.9.7 13.3 4.1 22.8 16.8 21.9 31.7-.9 15.6-13.7 28.3-29.3 29.2-8.8.5-16.8-2.7-22.8-8.1-.9-.8-2.2-2.3-3-3.2-.9-1-1.9-.7-2-.7-1.6 0-3.2 1.5-3.4 3.1-.1.8.2 1.6.7 2.2.4.5.9 1 1.4 1.6.4.4.8.8 1.1 1.2 6.8 6.6 16 10.6 26.1 10.6 20.8 0 37.7-17.1 37.7-38.1.1-17.3-11.3-31.9-27-36.5z" fill="#010100"/><path d="m140.2 97.3c-7.4-8.6-18.7-13.9-31.1-13.2-19.6 1.1-35.4 17.3-35.9 36.9-.5 15.7 8.6 29.3 21.8 35.6 2.1 1 4.2 1.8 6.4 2.4 2.5.7 5.1-1.1 5.1-3.7 0 0 0 0 0-.1 0-1.3-1-2.5-2.3-2.8-2-.5-3.9-1.2-5.7-2-10.6-5-17.9-15.6-17.9-27.9 0-17.1 14.1-30.9 31.4-30.9 8.7 0 16.5 3.4 22.2 9 1.6 1.6 3 3.3 4.2 5.1 1.1 1.6 3.3 2.1 4.9 1 0 0 .1-.1.1-.1 1.2-.9 1.4-2.6.6-3.8-1.1-2-2.4-3.8-3.8-5.5z" fill="#010100"/></svg>