<svg enable-background="new 0 0 32 32" viewBox="0 0 32 32" xmlns="http://www.w3.org/2000/svg"><g clip-rule="evenodd" fill-rule="evenodd"><circle cx="16" cy="16" fill="#0f1529" r="16"/><path d="m24.8 15.3c-.2 0-.3.1-.5.1-.8.2-1.7.4-2.6.4-1.2 0-2.2-.5-3.1-1.3-.4-.3-.7-.6-1-1-.2-.2-.2-.3-.1-.5l.3-.5.4.5c.6.7 1.3 1.3 2.2 1.7.9.3 1.8.3 2.7.1 1.3-.2 2.4-.7 3.6-1.3 0 0 .1 0 .2-.1-.1.1-.1.2-.2.3-1.7 2.8-3.4 5.6-5 8.5-.2.3-.3.4-.6.2-2.4-1.2-4.8-1.4-7.4-.9-.4.1-.5 0-.7-.4s-.2-.4.3-.5c1.3-.3 2.7-.3 4-.2 1.2.1 2.5.3 3.6.9.2.1.3 0 .3-.1.7-1.2 1.5-2.4 2.2-3.6.4-.6.8-1.3 1.2-1.9.1-.2.2-.2.2-.4zm-17.6.2c.2.3.3.6.5.8l3.4 5.6c.2.3.2.3-.1.4-.6.3-.5.3-.9-.3-1.3-2.2-2.6-4.3-3.9-6.5l-1-1.8c-.1 0-.2-.1-.2-.2v-.1c.1.1.3.1.4.2.9.4 1.8.8 2.7 1 1.2.3 2.4.3 3.6-.2.7-.4 1.3-.9 1.8-1.5.9-1 1.5-2.1 2.2-3.2l.2-.3c.1.1.1.2.2.3.4.5.3.9 0 1.3-.7 1-1.4 2.1-2.3 2.9-.8.8-1.8 1.3-2.8 1.6-.9.2-1.7.2-2.6 0-.4.1-.8 0-1.2 0 0-.1 0 0 0 0z" fill="#fff"/></g></svg>