<svg id="Layer_1" xmlns="http://www.w3.org/2000/svg" viewBox="0 0 176 184.8" width="2381" height="2500"><style>.st0{fill:#0b58af}</style><path class="st0" d="M694.9 1985.5c-197-43-383-157-505-308-67-82-145-241-170-347-25-108-27-287-3-395 13-62 19-75 32-70 9 4 35 12 59 18l43 11-8 46c-15 86-8 290 11 355 61 201 199 366 381 455 179 89 361 101 549 39 197-66 382-253 446-451 6-21 14-38 18-38 3 0 48 12 99 27 76 22 93 30 93 46 0 10-17 56-39 102-124 264-335 438-613 505-98 24-298 26-393 5z" transform="matrix(.1 0 0 -.1 0 200)"/><path class="st0" d="M689.9 1724.5c-173-45-324-171-403-335-25-52-51-121-57-155-12-61-11-267 1-279 4-3 54 6 110 22l104 28 6 100c4 85 10 110 37 165 101 211 335 295 539 195 75-37 151-109 181-172 25-53 58-60 155-33 45 13 86 27 91 31 6 5-8 44-34 96-80 163-242 294-415 338-75 19-241 19-315-1z" transform="matrix(.1 0 0 -.1 0 200)"/><path class="st0" d="M1059.9 1345.5c0-24-33-85-46-85-7 0-14-4-16-9s-39-5-86-1c-79 7-85 6-109-16-14-13-41-29-60-36-20-7-33-18-31-28 3-26-13-84-30-103-16-18-49-18-159-1-27 4-33 2-33-13 0-16 12-18 108-20l108-3 14 53c18 72 41 101 101 126 45 20 62 22 133 16l81-6 24 51c13 27 28 50 33 50 4 0 8 9 8 20 0 13-7 20-20 20-11 0-20-7-20-15zM1644.9 1263.5c-44-14-82-27-83-28-2-2 1-20 8-40 14-42 56-95 76-95 18 0 18-32-2-128-53-260-235-476-484-575-95-37-172-50-285-49-282 2-532 157-665 412l-40 77-55-16c-30-9-55-20-55-24 0-5 18-43 40-85 83-160 209-281 375-362 94-46 198-80 243-80 12 0 40-20 63-45 56-60 107-78 203-73 96 4 148 37 187 115 22 46 38 61 118 114 175 115 308 277 367 447 13 39 32 117 41 174s23 109 31 117c22 23 32 59 32 117 0 64 2 63-115 27z" transform="matrix(.1 0 0 -.1 0 200)"/><path class="st0" d="M949.9 930.5c0-233-1-240-20-240s-20 7-20 185v185h-130v-185c0-158-2-185-15-185-12 0-15 18-15 105v105h-130v-144l-51 49c-27 28-62 75-77 106l-27 56-112-31-112-31 23-57c70-172 210-309 377-368 89-31 277-39 369-15 129 33 252 115 339 223 50 62 109 180 118 236 5 34 3 37-30 51-46 19-116 19-164 0-30-12-42-25-56-58-18-44-110-157-128-157-5 0-9 87-9 205v205h-130v-240z" transform="matrix(.1 0 0 -.1 0 200)"/></svg>