<svg xmlns="http://www.w3.org/2000/svg" xmlns:xlink="http://www.w3.org/1999/xlink" viewBox="0 0 2499.73 2477.18"><defs><linearGradient id="6" x1="2147.19" y1="1634.71" x2="1960.36" y2="-1420.44" xlink:href="#4"/><linearGradient id="5" x1="838.25" y1="2123.92" x2="3893.4" y2="1936.83" xlink:href="#4"/><linearGradient id="7" x1="1662.97" y1="353.9" x2="-1392.18" y2="540.72" xlink:href="#4"/><linearGradient id="4" x1="354.57" y1="842.57" x2="541.67" y2="3897.72" gradientUnits="userSpaceOnUse"><stop stop-color="#228cc1"/><stop offset="1" stop-color="#314477"/></linearGradient><linearGradient id="3" x1="1410.12" y1="238.37" x2="2333.47" y2="2155.34" xlink:href="#0"/><linearGradient id="0" x1="2351.7" y1="1330.32" x2="258.13" y2="2338.47" gradientUnits="userSpaceOnUse"><stop stop-color="#314477"/><stop offset="1" stop-color="#228cc1"/></linearGradient><linearGradient id="2" x1="268.78" y1="1090.16" x2="2208.37" y2="156.04" xlink:href="#0"/><linearGradient id="1" x1="1188.82" y1="2441.08" x2="78.37" y2="135.11" xlink:href="#0"/></defs><path d="m2346.91 1248.68c0 318.45-138.9 621.1-381.16 830.28s-563.83 303.47-881.63 258.87l154.05-1089.15" transform="translate(-.4-.21)" fill="url(#0)"/><path d="M1229.11,2352.15c-318.45,0-621.1-138.9-830.28-381.15S95.52,1407.16,140,1089.37l1089.15,154V2352.15Z" transform="translate(-.4-.21)" fill="url(#1)"/><path d="m153.62 1228.93c0-318.45 138.9-621.11 381.15-830.28s563.84-303.48 881.63-258.88l-154 1089.16" transform="translate(-.4-.21)" fill="url(#2)"/><path d="M1271.41,125.45c318.45,0,621.11,138.9,830.28,381.16s303.48,563.83,258.88,881.63l-1089.16-154V125.45Z" transform="translate(-.4-.21)" fill="url(#3)"/><circle cx="1249.12" cy="1250.61" r="627.2" fill="#fff"/><g transform="translate(-.4-.21)"><path d="m761.23 1242.59c-88.38-58.92-152.4-135.94-248.35-409.79-98.91 15.79-396.29 154-493.56 485.33l144.17-4.61 452.91-64.84 144.83-6.09"/><path d="m775.55 1287c-127.55-72.41-199.3-160-279.95-467.88-103.51 16.64-393.33 201.62-495.2 547.23l150.91-4.61 473.16-67.81" fill="url(#4)"/><path d="m1245.74 1706.69c-58.92 88.38-135.94 152.4-409.74 248.31 15.79 98.91 154 396.3 485.33 493.56l-4.61-144.16-64.84-452.92-6.09-144.82"/><path d="m1281.94 1702.25c-72.41 127.54-160 199.3-467.88 279.94 16.62 103.35 201.6 393.17 547.21 495.2l-4.61-150.91-68-473.32" fill="url(#5)"/><path d="M1734,1235c88.38,58.91,152.4,135.94,248.34,409.79,98.91-15.8,396.3-154,493.57-485.33l-144.17,4.6-452.91,64.85L1734,1235Z"/><path d="m1725 1190.42c127.54 72.41 199.3 160 279.94 467.88 103.35-16.62 393.17-201.6 495.21-547.21l-150.92 4.61-473.32 68" fill="url(#6)"/><path d="m1261.54 770.09c58.91-88.37 135.94-152.39 409.79-248.34-15.8-98.91-154-396.3-485.33-493.56l4.6 144.17 64.85 452.91 6.09 144.82"/><path d="m1218.58 775.36c72.42-127.55 160-199.3 467.89-279.94-16.62-103.36-201.61-393.17-547.21-495.21l4.6 150.92 68 473.31 6.75 150.92" fill="url(#7)"/></g></svg>