<svg enable-background="new 0 0 400 400" viewBox="0 0 400 400" xmlns="http://www.w3.org/2000/svg"><path d="m200 0c-110.5 0-200 89.5-200 200s89.5 200 200 200 200-89.5 200-200-89.5-200-200-200zm-40.7 165c-5 5.7-7.8 11.8-9.4 17.1-1.5 5.1-1.8 10.5-1.4 15.8.2 2.9.1 6-.6 9.1-2.8 12.9-13.8 22.7-26.9 23.9-19.2 1.8-35.2-14-33.6-33.1 1.2-14.5 12.7-26.4 27.2-27.9 2.2-.2 4.4-.2 6.6 0 7.5.8 15-.2 21.7-3.5 3.3-1.6 6.7-3.8 10-6.7 9.4-8.1 13.7-18.2 15.7-26.2 1-4.1 1.1-8.3.8-12.5-.2-2.2-.2-4.4.1-6.6 1.9-14.8 14.5-26.2 29.3-26.7 17.4-.6 31.7 13.4 31.7 30.6 0 16.9-13.7 30.7-30.7 30.7-.7 0-1.3 0-1.9-.1-4.9-.1-24.7.2-38.6 16.1zm38.7 4.7c16.9 0 30.7 13.7 30.7 30.7 0 16.9-13.7 30.7-30.7 30.7s-30.7-13.7-30.7-30.7 13.8-30.7 30.7-30.7zm114.5 34.1c-1.4 13.1-11.3 23.9-24.2 26.5-3.2.7-6.2.8-9.2.5-5.1-.5-10.3-.2-15.3 1.2-7.1 2.1-15 6.2-21.5 13.6-5.7 6.5-8.6 13.9-10.1 19.8-1.1 4.1-1.2 8.5-.7 12.7.3 2.6.2 5.2-.2 7.9-2.1 14-13.9 24.9-28.1 25.9-19.2 1.4-35-14.9-32.7-34.3 1.6-13.4 12-24.3 25.3-26.5 3.1-.5 6.1-.6 9-.2 5 .6 10 .3 14.7-1.3 5.1-1.7 10.9-4.5 16.5-9.3 11.4-9.8 15-21.5 15.8-28.7.3-2.2.1-4.5-.2-6.7-.6-4-.4-8.2.8-12.6 3.4-12.4 14.3-21.5 27.1-22.5 19.2-1.5 35.1 14.7 33 34z" fill="#0f6ab2"/></svg>