<svg xmlns="http://www.w3.org/2000/svg" xmlns:xlink="http://www.w3.org/1999/xlink" viewBox="0 0 2296.3 2296.3"><defs><linearGradient id="0" x1="430.08" y1="430.08" x2="2053.81" y2="2053.81" gradientUnits="userSpaceOnUse"><stop offset=".05" stop-color="#0c2f51"/><stop offset=".93" stop-color="#114b78"/></linearGradient><linearGradient id="1" x1="556.66" y1="348.13" x2="1589.55" y2="1738.5" xlink:href="#0"/></defs><path fill="url(#0)" d="M 0,0 H2296.3 V2296.3 H0 z"/><circle cx="1156.09" cy="1174.91" r="717.6" fill="#fff"/><path d="M496,1217.87l228.51-170.13,202,128.43v230.91l152.82,146.52-.07,68.73L932,1759.65H807.57Zm722.07,404.63-.3-69.17,152.3-146.22V1176.17l199.82-130L1798,1217.87l-310,540.21H1365.2Zm-216.62-446.33L927.12,982.39h442.06l-72.85,193.78,21.51,216.52-170.59.37-168.56.3Zm145.78-246.8-420.1-.2,78.1-347.3h682l82.3,347.75Zm0-780.71L285,648.28v999.89l862.23,499.44,1,.52,868.82-500V648.28L1148.3,148.17Z" fill="url(#1)" stroke="#fff" stroke-width="33" stroke-miterlimit="10"/></svg>