<svg enable-background="new 0 0 399.4 400" viewBox="0 0 399.4 400" xmlns="http://www.w3.org/2000/svg" xmlns:xlink="http://www.w3.org/1999/xlink"><linearGradient id="a" gradientUnits="userSpaceOnUse" x1="0" x2="399.3687" y1="200.0172" y2="200.0172"><stop offset="0" stop-color="#01cef8"/><stop offset="1" stop-color="#9e0dff"/></linearGradient><path d="m364.2 167h-61.3c-.6-3.6-1.5-7.8-3-12.3-2.9-8.4-6.9-14.9-10.3-19.5 24.9 10.6 49.8 21.2 74.6 31.8zm5.5-76.5c-.4.1-2.9.4-5-1.5-1.8-1.7-2-3.8-2-4.3-34.8 6.7-69.7 13.3-104.5 20 5.2 2.7 12.1 7.1 18.8 14 4.2 4.3 7.2 8.6 9.5 12.2l82.5 36h5.5c.3-.4.7-.9 1.4-1.3.8-.6 1.6-.8 2.1-.9-2.8-24.7-5.6-49.5-8.3-74.2zm17.5 31c-1.3-4-3-8.4-5-12.9-3.3-7.3-7-13.6-10.5-18.8 2.8 24 6.3 51.1 9.1 75.1zm11.1 39.7c-.5-4.6-1.4-9.7-2.8-15.3-1.8-7-4-13-6.2-18-2.1 12.2-4.2 24.4-6.4 36.6.7.2 1.7.6 2.8 1.5.7.5 1.1 1.1 1.5 1.6 3.7-2.1 7.4-4.2 11.1-6.4zm.6 2.1-6.6 4.3h6.2c.1-.6.2-1.2.3-1.9.1-.8.1-1.7.1-2.4zm-101.2-110.1c-1.1.7-3.4 2-6.5 2.3-2.1.2-3.9-.2-5-.5-14.3 14.4-28.7 28.8-43 43.3l11.3 4.8 107.5-20.3v-2.8zm19.2-15.1c-1.2.4-3.1.8-5.4.6-1.3-.1-2.5-.3-3.4-.6-3.4 2.1-6.9 4.1-10.3 6.2.3.8.8 1.9.9 3.4.2 1.6 0 2.9-.3 3.8l64.4 26.6c-15.2-13.3-30.5-26.7-45.9-40zm46 37.5c-4.8-5.8-15.6-18-23.3-24.5-6.4-5.5-15.5-11.6-21.1-15.1 12.3 10.7 32.2 28.8 44.4 39.6zm-56.6-39.6c-.4-.6-1.1-2.1-1.1-4.2 0-2 .8-3.5 1.1-4.1-3.9-2.6-8.5-5.4-13.9-8-6.5-3.2-12.6-5.3-17.9-6.9 4.3 9.3 8.6 18.5 12.9 27.8.8-.3 2.4-.9 4.5-.6 2.9.4 4.7 2.2 5.2 2.7 3.1-2.2 6.2-4.5 9.2-6.7zm-23.1 7.8c.7-1.2 1.6-1.7 2-1.9-4.8-10-9.6-20-14.4-30-6.8-2.6-14.5-5.1-23.1-7.1-16.6-3.9-31.6-4.9-43.6-4.8-2.3 6.5-4.5 13-6.8 19.4.7.4 2.3 1.3 3.4 3.1 1.4 2.2 1.5 4.3 1.4 5.2 26.8 6.2 53.6 12.5 80.4 18.7 0-.3 0-1.4.7-2.6zm1.2 10c-.5-.3-1.2-.9-1.8-1.9-.9-1.5-.8-3.1-.8-3.6-26.9-6.3-53-12.6-79.9-18.9-.3.6-.7 1.3-1.3 2.1-1 1.2-2 2-2.8 2.4 8.9 19.4 17.8 38.8 26.6 58.1 2.5.3 5.2.9 8.3 1.8 3.2.9 5.9 2 8.3 3 14.5-14.3 29-28.6 43.4-43zm-88.7-19c-.8.1-2 0-3.1-.1-.9 0-2.5-.2-2.3-.2-10.7 21.4-21.5 42.9-32.2 64.3 7.7-3.2 18.6-6.7 32-8.3 12.8-1.5 24-.1 32 1.1-8.8-18.7-17.7-37.9-26.4-56.8zm-10.6-6.1c-.7-1.8-.6-3.4-.5-4.3-13.3-5.5-26.5-10.9-39.8-16.4-2.9.5-6.1 1.3-9.6 2.4-4.7 1.5-8.6 3.4-11.8 5.2 6.9 30.1 13.8 60.3 20.8 90.4 1.7-1.2 3.7-2.5 6-3.7 1.6-.8 3.1-1.5 4.5-2.1 11.2-22.5 22.4-45.1 33.6-67.6-.8-.4-2.3-1.6-3.2-3.9zm-7.9-26.8c-4.3.5-8.9 1.2-13.6 2s-9.2 1.8-13.4 2.8c11.9 5.4 23.8 10.7 35.6 16.1.1-.3.3-1 .9-1.6s1.2-.8 1.5-.9c-3.7-6.2-7.3-12.3-11-18.4zm12.9 17.4c.7-.2 1.7-.4 2.8-.4.9 0 1.8 0 2.4.1 2.2-6.3 4.3-12.6 6.5-18.9-3.9-.1-8.1 0-12.7.3-3.1.2-6 .6-8.7 1 3.3 6 6.5 11.9 9.7 17.9zm-137.7 71.3 81.3 22.5c1.2-1 2.5-2 4.1-3.1 1.6-1 3.1-2.1 4.5-2.8-7.4-30.4-14.5-59.9-21.9-90.4-4 1.8-8.2 3.8-12.5 6-6.4 3.3-12.3 6.7-17.6 10-11.7 18-27.9 35.9-39.4 53.6.4.4.9 1.2 1.2 2.2.2.8.3 1.5.3 2zm32.3-54.3c-7.1 5.7-14.4 11.9-21.9 18.8-4.9 4.5-9.5 9-13.9 13.4v16.9zm-32.9 56.4c-.1.2-.3.4-.5.7-.3.3-.6.5-.9.6 16.6 23.3 33.2 46.6 49.8 70 1.7-6 4.3-13.3 8.5-21 7.1-13 15.7-22.1 22.1-27.7-26.3-7.6-52.6-15.1-79-22.6zm-8.6-5.6c.4-.4 1.2-1.2 2.5-1.5.5-.1.9-.2 1.3-.2 0-4.9 0-9.7 0-14.6-1.4 1.6-2.9 3.3-4.4 5.3-1.7 2.2-3.1 4.3-4.4 6.3 1.7 1.5 3.4 3.1 5 4.7zm-9.7 2.3c-2.4 3.6-5.2 7.5-7.2 10.9 5.2-2.8 11-5.8 16.2-8.6-.1-.3-.3-.7-.4-1.2-.2-.8-.1-1.5 0-2l-4.9-4.8c-1.3 1.8-2.4 3.8-3.7 5.7zm-19.3 38.7 19.8 19.7c.7-.4 1.6-.9 2.5-1.3s1.7-.7 2.4-.9c1.9-17.1 3.9-34.2 5.8-51.3-.2 0-.5-.1-.9-.3s-.7-.6-.8-.8c-5.9 3.2-11.8 6.4-17.7 9.6-1.5 2.9-3 6-4.4 9.2-2.4 5.5-4.7 10.9-6.7 16.1zm83.5 42.1c.1-.6.3-1.4.6-2.2.3-.7.6-1.3.9-1.8-16.9-23.9-33.9-47.7-50.8-71.6-.2 0-.5.1-.8.1-.4 0-.7 0-1 0-1.7 17.2-3.4 34-5.2 51.1.9.5 3.1 2 4.7 4.5 1.5 2.4 1.8 4.7 1.9 5.7 16.5 4.7 33.1 9.5 49.7 14.2zm-95.8 10.4c-1.2 6.2-2.1 14.1-1.9 23.3.2 9.5 1.6 17.5 3.2 23.8-.4-15.7-.8-31.4-1.3-47.1zm94.7-8.7-49.2-14.4c-.7.9-1.8 2.2-3.7 3.3-2.2 1.3-4.2 1.6-5.4 1.8-9.6 21.7-19.2 43.8-28.8 65.5.5.3 1.1.8 1.7 1.3.5.4.9.8 1.2 1.2 28.1-17.8 56.1-35.6 84.2-53.4zm0 8.2-83.7 52.7c.2.8.3 1.7.3 2.9 0 .9-.1 1.7-.3 2.3 21.8 14.2 43.7 28.4 65.5 42.6.5-.6 1.7-1.9 3.7-2.5 1.1-.4 2.2-.4 2.8-.3 3.4-19.9 6.9-39.7 10.3-59.6-.8-6.2-1.2-13.6-.7-21.9.3-6.1 1.1-11.5 2.1-16.2zm-93.4-16.1 2.8 62.5c.1 0 .7.2.7.3.2.1 1.3.4 1.5.5 8.8-21.9 17.6-43.8 26.4-65.8-.7-.6-2.7-2.7-3.3-6.2-.5-3.1.4-5.5.8-6.4-6.4-6.1-12.8-12.3-19.3-18.4-1.8 4.6-3.6 9.7-5.2 15.2-1.9 6.5-3.3 12.6-4.4 18.3zm72.8 122.6c0-2 .7-3.5 1.1-4.1-21.8-14.1-43.6-28.2-65.4-42.3-.5.6-1.5 1.6-3.1 2.3s-3.1.8-3.9.8c2.2 9.6 5.4 20.4 10 31.9 7.5 18.7 16.5 33.8 24.6 45.3 12.6-10.1 25.2-20.2 37.7-30.3-.3-.7-.9-1.9-1-3.6zm28.9-35.9c-4.4-9.5-6.9-18.3-8.4-25.3-3 17.5-6.1 35-9.1 52.5.8.5 1.8 1.2 2.8 2.2.6.6 1.1 1.3 1.5 1.8l25.2-11c-3.8-5.2-8.1-11.9-12-20.2zm24.9 34.2c-4.4-3.6-8.3-7.3-11.6-10.7l-25.8 10.3v2l51.5 8.8c-4.4-2.9-9.2-6.3-14.1-10.4zm-48.6 8.8-2.6-1.8-37.7 30c3 4.5 6.9 9.7 11.8 15 5.3 5.7 10.6 10.3 15.2 13.8 4.5-19.2 8.9-37.7 13.3-57zm91.2 95c.3-.6.7-1.1 1-1.5-28.1-31.3-56.2-62.7-84.3-94-.5.4-1.4 1.1-2.8 1.4-1.5.3-2.7.1-3.3-.1-4.4 19.2-8.8 38.5-13.1 57.7 5.8 5.1 12.6 10.4 20.5 15.8 6.6 4.4 12.9 8.1 18.8 11.3 20.9 3.6 41.8 7.3 62.6 10.9.2-.5.4-1 .6-1.5zm-.6 6.9c-.6-1.6-.7-3-.6-3.9-18.4-3-36.9-6-55.3-9 9 3.2 18.8 6.3 29.3 9.2 9.9 2.7 19.4 4.8 28.3 6.5-.6-.5-1.2-1.5-1.7-2.8zm15.8-85.4c-16.9-2.3-30.4-7.6-39.4-12.1l-55.8-9.1-1 2c28 31.4 56.1 62.8 84.1 94.1.9-.4 2.2-.8 3.9-.9 2.3-.1 4 .5 5 .9 19.9-21.3 39.7-42.7 59.6-64-.4-.5-.9-1.4-1.2-2.7-.3-1.4-.2-2.5-.1-3.2l-24.4-4.5c-8.2.9-18.7 1.2-30.7-.5zm66.2 12.7c-.6.3-1.9.9-3.6.8-2-.1-3.5-1-4-1.4-19.9 21.6-39.8 43.3-59.8 64.9.4.8 1 2.1 1.3 3.6s.2 2.8.1 3.8c5 1.8 10 3.6 15 5.4 8.8-.2 18.5-.9 28.9-2.4 21.7-3.2 40.1-8.9 54.7-14.8-10.8-20-21.7-40-32.6-59.9zm-66.6 73.9c-.1.5-.2 1-.5 1.6-.3.7-.6 1.2-.9 1.7h10.8c-3.2-1.2-6.3-2.2-9.4-3.3zm58.9-88.5c-.7-1.8-1.3-3.6-2-5.5-2.6 1-5.5 2-8.5 2.8-4.5 1.3-8.7 2.3-12.6 2.9 6.6 1.3 13.2 2.6 19.8 3.9.2-.6.6-1.6 1.4-2.6.7-.6 1.4-1.1 1.9-1.5zm9.1-11.1-9.1 4c.8 2 1.7 3.9 2.5 5.9.4-.2 1.1-.6 2.2-.7 1 0 1.8.3 2.1.4.8-3.2 1.5-6.4 2.3-9.6zm98.1 8.1-51.4-65.8c-2.5 7.8-7.4 19.8-17.1 32.1-9.3 11.7-19.4 19-26.3 23.3-1.1 4.3-2.3 8.5-3.4 12.8.5.4 1.2 1 1.9 1.9 1.1 1.5 1.4 2.9 1.5 3.8l93.3-3c-.1-.6-.1-1.8.4-3.1.3-.9.8-1.5 1.1-2zm-.1 10.6c-.7-1-1.1-1.9-1.4-2.6-31.1 1-62.2 1.9-93.3 2.9.1.6.2 2.2-.8 3.9-.4.8-1 1.3-1.4 1.6 11.1 20 22.3 39.9 33.4 59.9 11.6-5.6 25.5-13.7 39.9-25.4 9.5-7.7 17.3-15.4 23.6-22.5l3.2-15.2c-.6-.3-2-1.1-3.2-2.6zm17.6-84.4-66.3-1.1-.8 7c17.3 22.2 34.7 44.4 52 66.5.3-.3 1-.9 2.1-1.1 1.2-.3 2.1 0 2.5.2zm-6.4 89.5c-.5-.7-1-1.3-1.5-2-.6.2-1.4.3-2.4.3-.9 0-1.7-.2-2.3-.3l-1.9 11.1zm23.3-42.7c4.7-11.8 7.6-22.7 9.4-31.8l-9.8-15h-13c-3.8 24-7.7 48.1-11.5 72.1.7.3 2 .9 3.2 2.4 1.2 1.4 1.6 2.9 1.8 3.6 1.2 0 2.4.1 3.6.1 5.4-8.2 11.2-18.7 16.3-31.4zm11.5-41.1c.2-2.4.2-4.5.1-6.3h-10l8.7 12.8c.5-1.8.9-3.9 1.2-6.5zm-34.8 80.7 1.3 1.1c.9-.9 1.8-2.1 2.8-3.5.7-1.1 1.3-2.2 1.8-3.2-.4-.3-.8-.5-1.1-.8-.3.9-.8 2-1.6 3.2-1.1 1.5-2.3 2.5-3.2 3.2z" fill="url(#a)"/></svg>