<svg enable-background="new 0 0 304.9 308.7" viewBox="0 0 304.9 308.7" xmlns="http://www.w3.org/2000/svg" xmlns:xlink="http://www.w3.org/1999/xlink"><linearGradient id="a" gradientUnits="userSpaceOnUse" x1="68.5057" x2="304.9472" y1="182.0161" y2="182.0161"><stop offset="0" stop-color="#006b93"/><stop offset=".3" stop-color="#64ceff"/><stop offset=".5764" stop-color="#1d70bb"/><stop offset=".7691" stop-color="#6674f4"/><stop offset="1" stop-color="#9645bb"/></linearGradient><linearGradient id="b" gradientUnits="userSpaceOnUse" x1="157.0087" x2="294.7466" y1="230.9801" y2="230.9801"><stop offset="0" stop-color="#3e85cd"/><stop offset=".5" stop-color="#6e8dff"/><stop offset="1" stop-color="#c384ff"/></linearGradient><linearGradient id="c" gradientUnits="userSpaceOnUse" x1="28.842" x2="214.5238" y1="276.6309" y2="276.6309"><stop offset="0" stop-color="#18adbe"/><stop offset=".5" stop-color="#64c7fd"/><stop offset="1" stop-color="#003881"/></linearGradient><linearGradient id="d" gradientUnits="userSpaceOnUse" x1="58.5087" x2="273.6272" y1="149.7286" y2="149.7286"><stop offset="0" stop-color="#96eaf8"/><stop offset=".1414" stop-color="#88dcf3"/><stop offset=".4089" stop-color="#62b9e5"/><stop offset=".6236" stop-color="#4098d9"/><stop offset="1" stop-color="#3b2fc0"/></linearGradient><linearGradient id="e" gradientUnits="userSpaceOnUse" x1="0" x2="289.0469" y1="143.4782" y2="143.4782"><stop offset="0" stop-color="#97f4ff"/><stop offset=".1675" stop-color="#8ae6fb"/><stop offset=".4844" stop-color="#67c0f0"/><stop offset=".66" stop-color="#51a9e9"/><stop offset="1" stop-color="#b681fe"/></linearGradient><path d="m257.2 179.9c2.3-3.7 6.3-9.1 12.8-13.8 3.8-2.8 7.5-4.6 10.5-5.8 2.3-.3 5.4-.4 8.7.8 13.7 5 15.5 26.8 15.7 29.3 1.1 15.9-6.9 27.9-9.8 33.1-27.9 49.7-101.1 47.7-105 47.5-5.6-.2-84.8-4.4-112.5-61.2-9-18.5-9-37-9-37 0-4.1.2-16.3 5.5-30.7 1.2-3.1 4.9-12.7 13-23.3 13.4-17.6 29.7-26.6 30.2-25.9.6.7-17.7 10.1-27.8 31.8-5.9 12.6-6.9 24.1-7 31 1 11.7 4.2 27.5 13.9 42.9 30.9 49.1 97.8 47.8 102.9 47.6 5.2.1 51.7.5 73-32.8 3.3-5.1 6.9-12.4 8.8-22.3.1-.9.3-7.5-4.5-11.7-5-4.2-13.2-4.3-19.4.5z" fill="url(#a)"/><path d="m157 308.6c8.7-.4 31.4-2.8 53.2-19.4 18.3-14 26.7-31 30.1-39.1 4.5-12.7 6.2-23.2 6.9-30.5.9-8.9.8-17.7 5.1-29.4 1.7-4.5 3.5-8.1 4.8-10.3 8.9-13.2 21.1-20.7 31.2-18.3 1.9.4 4.1 1.3 6.4 3.1-2-2.2-5.1-5.1-9.6-7.4-7.5-3.9-14.6-4-18-3.8-3.9 0-14.3.5-24.4 7.8-13.8 9.9-16.4 24.9-16.9 27.9-1.7 11.3-3.4 22.6-5 33.8-.7 4.5-1.8 11.2-4.2 19.1-4.5 15.3-12.7 43.6-37.3 58.4-4.5 2.6-11.9 6.2-22.3 8.1z" fill="url(#b)"/><path d="m28.8 244.5c8 12.2 30.6 42.9 72 57 17.1 5.8 32.6 7.2 44.4 7.1h4.8c6.8.1 15.6-.9 24.9-4.8 31.7-13.6 38.9-50.5 39.7-54.7-5.5 8.2-16.8 22.5-35.9 30.4-2.9 1.2-10.7 4.2-27.6 5.6-1 .1-2 .2-3 .3-17.7 1.5-41.1 2.9-68.2-7.3-25.6-9.5-42.4-24.6-51.1-33.6z" fill="url(#c)"/><path d="m102.6 240.8c-8.8-7-24.6-21.6-34.8-45.4-6.9-16.1-8.8-30.7-9.3-40.5.1-8.1 1.5-37.9 24.5-63.8 28.5-32 67.8-32.5 74-32.5 9 .1 26.8 1.5 45.5 12 9.9 5.5 17.2 12.1 22.4 17.6 2 2.1 3.8 4.4 5.5 6.8s4.4 5.4 8.4 7.9c.2.1.4.3.7.4 6.2 3.6 14 3.3 19.6-1.2.2-.2.5-.4.8-.7 3.5-3.2 4.6-7.3 5-9.9.1-1.5 0-3.2-.3-5-1.2-7.6-6.3-12.5-6.2-12.5.1-.1 11 7.5 14.2 21.5.7 2.9 3.8 16.5-4.5 26.1-3.9 4.5-8.7 6.3-10.3 6.9-5.1 1.8-10.6 2-16 1.1-1.7-.3-3.6-.7-5.5-1.2-4.1-1.1-10.1-2.8-15.7-7.3-1.4-1.1-2.2-1.9-9.3-10.5-.6-.7-1.2-1.4-1.7-2.1-8.6-10.5-20-18.4-33-22.3-.7-.2-1.3-.4-2-.6-27.8-7.5-51.1 4-57.3 7.3-2.5 1.3-43.9 23.3-48 71-4.1 46.4 30.7 74.8 33.3 76.9z" fill="url(#d)"/><path d="m46.3 227.9c6.2 9.5 18.3 25.6 39 38.5 25.9 16.2 51 18.7 62.8 19.1-12.1 1.8-36.6 3.7-65-6.1-27.9-9.7-45.8-26-54.2-34.8-6.4-8.9-14-21.4-19.8-37.7-7.8-21.7-9.1-40.9-9-53.6.3-10 3.7-77 60-121.2 9.9-7.7 20-13.7 29.8-18.2 31.9-14.8 68-17.6 102.2-9.3 15.3 3.7 33 9.9 49.3 20.3 15.4 9.8 25.3 20.8 31.7 28 6.1 6.8 10.9 13.2 13.8 22.2 1.6 5.2 2.1 9.8 2.3 13 .2 3.8 0 12.2-5 21-7.3 12.9-19.7 17.1-22.8 18 2.2-1.6 6.7-5.2 9.5-11.5.1-.3.3-.7.4-1 2.1-5.1 2.3-10.7.9-16-.5-2-1.2-4.2-2.1-6.5-3.7-9.6-9.5-16.6-19-25.5-12.1-11.4-21.8-20.4-38-28.7-2.6-1.3-5.1-2.5-7.6-3.6-29.8-13.1-63.7-14.3-94.2-3.1-12.5 4.6-26 11.6-38.9 22.5-44.4 37-47.5 89.4-47.9 98.2-.3 11 .6 27.6 7 46.3 4.3 12.4 9.9 22.4 14.8 29.7z" fill="url(#e)"/></svg>