<svg viewBox="0 0 172.5 154.6" xmlns="http://www.w3.org/2000/svg" xmlns:xlink="http://www.w3.org/1999/xlink"><linearGradient id="a" gradientTransform="matrix(1 0 0 -1 0 244)" gradientUnits="userSpaceOnUse" x1="29.9439" x2="44.5539" y1="150.7681" y2="125.7682"><stop offset=".21" stop-color="#1e90ff"/><stop offset="1" stop-color="#4b0082"/></linearGradient><linearGradient id="b"><stop offset="0" stop-color="#8b008b"/><stop offset="1" stop-color="#4b0082"/></linearGradient><linearGradient id="c" gradientTransform="matrix(-.8 .47 -.56 -.96 218.008 269.9728)" gradientUnits="userSpaceOnUse" x1="17.5029" x2="17.5229" xlink:href="#b" y1="192.6999" y2="168.2399"/><linearGradient id="d" gradientTransform="matrix(.8 .47 .56 -.96 -168.218 269.9728)" gradientUnits="userSpaceOnUse" x1="195.4783" x2="193.1383" xlink:href="#b" y1="277.5446" y2="253.3346"/><path d="m41.3 51.2c5.8-9.9 15.1-15.7 23.3-15.6l3.3-5.6c5.7-9.7 3.7-21.5-4.4-26.3s-19.4-.7-25.1 8.9l-3.3 5.6c4.1 7.1 3.5 18-2.3 27.9s-15.2 15.8-23.3 15.7l-3.3 5.6c-5.7 9.6-3.8 21.5 4.4 26.2s19.4.8 25.1-8.9l3.3-5.6c-4.1-7-3.5-18 2.3-27.9z" fill="#1e90ff"/><path d="m32.8 107.9c-5.8-9.8-15.1-15.7-23.3-15.6l-3.3-5.6c-5.7-9.7-3.7-21.5 4.4-26.3s19.4-.8 25.1 8.9l3.3 5.6c-4.1 7.1-3.5 18 2.3 27.9s15.1 15.7 23.3 15.6l3.3 5.6c5.7 9.7 3.7 21.5-4.4 26.3s-19.4.8-25.1-8.9l-3.3-5.6c4.1-7 3.5-18-2.3-27.9z" fill="url(#a)"/><path d="m98.9 107.9c-5.8-9.9-15.1-15.7-23.3-15.6l-3.3-5.6c-5.7-9.7-3.7-21.5 4.4-26.3s19.4-.8 25.1 8.9l3.3 5.6c-4.1 7.1-3.5 18 2.4 27.9s15.1 15.7 23.3 15.6l3.3 5.6c5.7 9.7 3.7 21.5-4.4 26.3s-19.4.8-25.1-8.9l-3.3-5.6c4-7 3.5-18-2.4-27.9z" fill="url(#c)"/><path d="m140.2 108.9c5.8-9.9 15.1-15.7 23.3-15.6l3.3-5.6c5.7-9.7 3.7-21.5-4.4-26.3s-19.4-.8-25.1 8.9l-3.3 5.6c4.1 7.1 3.5 18-2.4 27.9-5.8 9.9-15.1 15.7-23.3 15.6l-3.3 5.6c-5.7 9.7-3.7 21.5 4.4 26.3s19.4.8 25.1-8.9l3.3-5.6c-4-7-3.4-18 2.4-27.9z" fill="url(#d)"/><path d="m53.8 0c-10.9 0-19.7 8.8-19.7 19.6 0 10.9 8.8 19.7 19.6 19.7s19.7-8.8 19.7-19.6c0-10.9-8.8-19.7-19.6-19.7z" fill="#1e90ff"/><path d="m53.8 115.3c-10.9 0-19.6 8.8-19.6 19.7s8.8 19.6 19.7 19.6c10.8 0 19.6-8.8 19.6-19.6-.1-10.9-8.9-19.7-19.7-19.7z" fill="#4b0082"/><path d="m119.6 0c-10.8 0-19.6 8.8-19.6 19.6s8.8 19.7 19.6 19.7 19.7-8.8 19.7-19.6c0-10.9-8.8-19.7-19.7-19.7z" fill="#1e90ff"/><path d="m119.6 115.3c-10.9 0-19.6 8.8-19.6 19.7s8.8 19.6 19.7 19.6c10.8 0 19.6-8.8 19.6-19.6 0-10.9-8.8-19.7-19.7-19.7z" fill="#4b0082"/><path d="m86.2 57.7c-10.9 0-19.7 8.8-19.7 19.6s8.9 19.7 19.7 19.7c10.9 0 19.7-8.8 19.7-19.6 0-10.9-8.8-19.7-19.7-19.7z" fill="#8b008b"/><path d="m152.8 57.7c-10.9 0-19.7 8.8-19.7 19.6s8.8 19.7 19.7 19.7 19.7-8.8 19.7-19.6c-.1-10.9-8.8-19.7-19.7-19.7z" fill="#8b008b"/><path d="m19.7 57.7c-10.9 0-19.7 8.8-19.7 19.6s8.8 19.7 19.7 19.7 19.7-8.8 19.7-19.7c-.1-10.8-8.9-19.6-19.7-19.6z" fill="#1e90ff"/></svg>