<svg viewBox="0 0 141.1 52.2" xmlns="http://www.w3.org/2000/svg"><path d="m0 0v52.2h141.1v-52.2zm109.4 23.8h-39.5c1.2-10.5 9.8-18.6 20.4-19.1zm-12.6-19.1h36.4l-18.2 18.1zm-26.9 23.7h39.5l-19.1 19.1c-10.6-.4-19.2-8.5-20.4-19.1zm45.1 1 18.2 18.2h-36.4zm3.3-3.3 18.2-18.2v36.4zm-41.9-21.4c-6.4 4.4-10.5 11.4-11.2 19.1h-.1l-11-19.1zm-16.6 19.1h-19.5l9.7-16.8zm-13.8-19.1-11 19.1h-.1c-.7-7.7-4.8-14.8-11.2-19.1zm-41.3 42.9v-42.9h4.2c11.9.3 21.3 10.1 21 21.9-.2 11.5-9.5 20.8-21 21zm18.9 0c3.3-2.3 6.1-5.4 8-8.9l5.9-10.3h24.9l5.9 10.3c2 3.5 4.7 6.6 8 8.9z" fill="#7854f2"/></svg>