<svg enable-background="new 0 0 383.5 383.5" viewBox="0 0 383.5 383.5" xmlns="http://www.w3.org/2000/svg"><g fill="#5e1c5a"><path d="m191.8 0c-106 0-191.8 85.8-191.8 191.8s85.8 191.8 191.8 191.8 191.8-85.8 191.8-191.8-85.9-191.8-191.8-191.8zm55.8 240.1h-24.1c.2 3.8.1 9.1-1 15.4-.4 2.3-.9 5.1-1.7 8.2h8.8v16.1h-15.5c-1.3 2.1-2.8 4.1-4.6 6.2-2.6 2.9-11.9 13-27.5 16.7-5.5 1.3-10.3 1.4-13.6 1.3-14.9 0-29.8 0-44.8 0-1.9 0-4.6-.1-7.9-.3-7.3-.6-17-1.5-27.4-6.6-2.8-1.4-17.9-8.7-25.5-24.7-.7-1.6-1.8-4-3-7-3.9-10.3-4.9-19.1-5.6-25.2-.4-3.6-.8-8.5-.8-14.4-.2-7.6.5-18.1 3.9-30.1 2.6-9 6-16.3 9.1-21.8-.1 0-.2-.1-.3-.1 5.6-8 11.6-12.8 15.6-15.5 11.9-8 24.1-9.7 31-10.7 4-.6 7.4-.7 9.7-.8h68.4v-68.5h32.8v68.4h23.1v31.6h-23.1v22.3h24.1v39.5zm2.8-67.1h25.4v26h-25.4zm33.1 102.4h-20.4v-20.4h20.4zm14.4-42.4h-25.3v-25.3h18.9v-23.8h25.9v25.9h-19.6v23.2zm19.6 49.8h-10.1v-9.3h10.1zm-7.9-26.1v-20h20v20z"/><path d="m190.8 238.7v-38.1-22.3h-68.4c-3.8-.1-6.9.3-9.1.8-2.3.5-5.5 1.1-9.1 3h-.1c-3 1.6-5.6 3.8-7.6 6.6-.5.6-.9 1.3-1.4 2.1-4.9 7.6-6.2 15-7.2 20.8-.6 3.5-1.1 8.2-1.1 14h-.1c0 1.1.1 2.7.1 4.7.2 6 .3 9 .5 11.2.3 2.8.9 6.6 2.3 11.2 3 9.5 11 14.1 12 14.8 6.4 4.1 12.9 4.6 18.1 5.1 1.6.1 3 .2 3.9.2h39.4c6.2 0 12.3-2 17.1-6 .3-.3.7-.6 1-.9 9.5-8.8 9.8-21.1 9.7-25 0-.7 0-1.4 0-2.2z"/></g></svg>