<svg enable-background="new 0 0 186.9 200.1" viewBox="0 0 186.9 200.1" xmlns="http://www.w3.org/2000/svg"><g fill="#0090d0"><path d="m48.5 39.8-.1 108.8c-7.4-1.8-25.5-7.2-36.1-23.4-7-10.6-9.2-23.3-10.5-31.3-1.2-6.9-1.5-12.7-1.5-16.9-.3-4-.4-10 .3-17.1 1.1-11.2 2.4-25 12-38 2.4-3.4 9.3-12.5 21.6-17.6 8.2-3.4 15.7-3.8 24.8-4.2 7.6-.3 14 .1 18.6.7-3.4 1-12.7 4.1-20.1 13.3-2.9 3.6-4.9 7.2-6.2 10.6-1.9 4.7-2.8 9.9-2.8 15.1z"/><path d="m56.2 41.8c9-.2 21.6.3 36.3 3.8 6.8 1.6 19.4 4.6 32 11.8 7.9 4.5 34.1 19.4 42.2 50.3 9.2 34.9-11.6 63.6-14.5 67.5 6.7-5.3 20.4-17.7 28.5-38.5 6.3-16.3 6.5-30.8 5.9-39 0-9.6-1.4-30.7-15.2-51.5-23.8-36.4-65.2-41.5-71.4-42.2-4.3-.3-12.2-.4-21 3.3-4.5 1.8-12.3 5.1-17.8 13.5-5.6 8.6-5.3 17.6-5 21z"/><path d="m1.7 122.8c2 3.7 4.4 7.4 7.5 11 18.7 21.9 47.6 24.4 57.8 24.8 3.1 0 7.4 0 12.5-.5 2.9-.2 12.2-1 19.3-2.9 18.1-4.9 28.6-19.1 28.6-19.1 10.9-14.7 10.1-30.9 9.7-35.5.1-3.7-.1-8.2-1-13.3-1.2-7-3.3-12.7-5.3-17 5.3 3.7 18.8 14 25.3 32.8 3.6 10.4 3.7 19.6 3.3 25.5 0 7.8-1.2 31.6-18.5 48.8-7.9 7.9-16.9 12-20.8 13.8-12.7 5.8-24.6 7-35.8 8.1-7.1.7-13 .9-17.1.9-4.1.2-10 .2-17-1-9.3-1.6-24.9-4.2-36.3-16.5-10-10.9-11.7-24-13-33.8-1.3-10.9-.3-20 .8-26.1z"/></g></svg>