<?xml version="1.0" encoding="utf-8"?>
<!-- Generator: Adobe Illustrator 19.2.1, SVG Export Plug-In . SVG Version: 6.00 Build 0)  -->
<svg version="1.1" id="Layer_1" xmlns="http://www.w3.org/2000/svg" xmlns:xlink="http://www.w3.org/1999/xlink" x="0px" y="0px"
	 viewBox="0 0 1000 1000" style="enable-background:new 0 0 1000 1000;" xml:space="preserve">
<style type="text/css">
	.st0{fill:#2573C2;}
	.st1{fill:#FFFFFF;}
</style>
<circle class="st0" cx="500" cy="500" r="500"/>
<title>logo</title>
<desc>Created with Sketch.</desc>
<g>
	<path id="D" class="st1" d="M826.3,368.4c-0.7-11.1-3.9-22.1-9.6-31.8c-5-10-13.9-17.8-24.3-21.8c-10.7-5.4-22.5-7.8-34.2-7.5
		H314.4l-31.8,95.3h402.1l-63.5,194.8h-402l-31.8,95.3h445.9c13.3-0.4,26.4-2.9,38.9-7.5c12.5-7.1,26.8-14.3,38.9-24.3
		c11.8-9.3,22.5-20,31.8-31.8c7.8-11.8,14.3-23.9,19.6-36.7l58.9-185.2C826.7,395.1,828.5,381.6,826.3,368.4L826.3,368.4z"/>
	<path id="_-" class="st1" d="M441.1,455.8H204.5l-31.8,88.1h239L441.1,455.8z"/>
</g>
</svg>
