<svg xmlns="http://www.w3.org/2000/svg" width="1826" height="2000" viewBox="0 0 1826 2000"><g transform="translate(-87)"><path d="M1649.66,301.11q-22.22-23.66-46.16-45.61Q1486.39,148.34,1325.52,81,1131.67.15,877,0H215.2A128.16,128.16,0,0,0,87,128.15s0,.05,0,.08v848.4c83.6-69.49,179.93-106.75,282.44-107.4h3.7c193.39,0,297,99.12,388.49,186.58q18.24,17.56,36.06,34.06c66.52,61.33,132.55,109,239,109,145.55,0,254.88-152,381.48-328,99.11-137.68,211.42-293.56,360.74-392.38A902.43,902.43,0,0,0,1649.66,301.11Z" fill="#75e036"/><path d="M1846.44,571.23c-4.42-12.43-9.3-24.6-14.14-36.73C1708.37,621.5,1611,755.86,1517,886.45,1377,1081.15,1244.66,1265,1036.75,1265c-135.6,0-225.14-56.87-299-121.09q-30.79-27.11-60.23-55.68c-85.7-82-159.84-152.86-304.4-152.86h-2.9c-113,.72-195.26,63.16-244.43,115.41L87,1092v779.79A128.19,128.19,0,0,0,215.16,2000H877q234.27,0,425.43-73.8,190.93-73.8,327-208.43t209.78-324.3Q1913,1203.83,1913,969.33,1913.06,758,1846.44,571.23Z" fill="#006d39"/></g></svg>