<svg xmlns="http://www.w3.org/2000/svg" viewBox="0 0 281.79 325.28"><path d="m96.52 325.28l185.27-106.06-.29-80.79-13.38.47 1.58 25.46-173 99.8-37.99-22.16 131.91-76.16-7.23-5.84-136.16 80.75-.63 57m54.78-27.75l172.73-99.53-.51 45.85-173 99.8" fill="#ced4e0"/><path d="M280.83,106.74,96,0,26.81,41.91l27.81-3.86,173.3,99.28,0,44L95.22,105.12l-1.39,9.18,140.76,79.09,46.91-25.47Zm-50.27,23.65L57.64,31.19,97.52,8.56l173.29,99.28Z" fill="#70d463"/><path fill="#2470d4" d="m50.94 27.17l-50.94 29.49v211.8l46.92 29.49v-12.07l-38.88-22.79v-199.73l38.88 22.79v155.68l6.7-3.92v-151.76l38.87-22.79v151.44l6.71-3.99.59-155.23-48.85-28.41"/></svg>