<svg enable-background="new 0 0 32 32" viewBox="0 0 32 32" xmlns="http://www.w3.org/2000/svg"><circle clip-rule="evenodd" cx="16" cy="16" fill="#2d9cdb" fill-rule="evenodd" r="16"/><path d="m20.1 5.6c.4 0 .7.1.9.4s.4.6.4.9v11.7c0 1.3-.3 2.5-.9 3.6s-1.5 1.9-2.5 2.6c-1.1.6-2.2.9-3.6.9-1.3 0-2.5-.3-3.6-.9s-1.9-1.5-2.5-2.6-.9-2.3-.9-3.6.3-2.5.8-3.6c.6-1.1 1.4-1.9 2.4-2.6 1-.6 2.1-.9 3.4-.9 1.9 0 3.7.8 4.9 2.3v-6.9c0-.4.1-.7.4-.9.1-.3.4-.4.8-.4zm-5.8 17.8c.9 0 1.6-.2 2.3-.6s1.3-1 1.6-1.7c.4-.7.6-1.6.6-2.5s-.2-1.7-.6-2.4-.9-1.3-1.6-1.7-1.4-.6-2.3-.6-1.6.2-2.3.6-1.3 1-1.6 1.7c-.4.7-.6 1.5-.6 2.4s.2 1.7.6 2.5c.4.7 1 1.3 1.6 1.7.7.4 1.5.6 2.3.6z" fill="#fff"/></svg>