<svg xmlns="http://www.w3.org/2000/svg" width="1544.21" height="2000" viewBox="0 0 1544.21 2000"><g fill="#231f20" transform="translate(-227.9)"><path d="M801,366.1C883.64,244.16,965.68,121.76,1048.59,0c141,208.33,600,885.22,611.24,903.1,64.84,101.71,103.51,220,110.8,340.41,6.24,97.75-7.25,196.78-40.33,289-46.57,131-132.24,247.65-242.88,331.75a723.12,723.12,0,0,1-195.61,106.16c-36.37,12.61-73.55,23.59-111.63,29.47,66.82-22.71,127.84-62.43,175-115a411,411,0,0,0,95.75-368.78c-8.92-39.53-24.51-77.39-44.49-112.57-13.33-23.92-253.55-376.33-357.84-530.24C1006.8,934,787.76,1259.27,719,1360.51c-63.51,83.71-93.51,192.22-80.67,296.61,8.25,72.94,37,143.35,81.63,201.59A414.58,414.58,0,0,0,917.59,2000c-19.59-2.33-38.63-7.82-57.75-12.49a723,723,0,0,1-288.53-154.63c-100.2-87.59-175.65-203.29-214.55-330.63a722,722,0,0,1-26.69-125.69,52.09,52.09,0,0,1,4.16-28.2c8.14-18.63,27.73-31.39,48.06-31.39,30.71-.18,61.41.29,92.12-.39,16.12-.51,33.41,2.45,48.25-5.53,17.94-8.67,29.31-28.25,29.18-48q0-64.76,0-129.55c-.49-20.37,12.78-39.94,31.29-48.06,9.57-4.33,20.24-5,30.57-4.94,40.55.08,81.12,0,121.67.08a52.17,52.17,0,0,0,43.51-22.94c6.37-9.25,9.16-20.61,9.24-31.75,0-43.22-.1-86.45,0-129.67.18-20,13.18-38.9,31.43-46.8,9.16-4.31,19.45-5.08,29.43-4.78,41.2.1,82.39,0,123.59.06,27,.27,50.92-23.41,51.67-50.24.25-43.8,0-87.63.12-131.43.25-19.8-11.37-39.33-29.27-48a55.81,55.81,0,0,0-26.51-5.57c-39.22.08-78.45,0-117.67.06-10.76.16-21.92-.27-31.84-4.9-18.29-8.14-31-27.29-31-47.37q-.15-68.68.18-137.37c.25-12-1.24-24.51,2.92-36.08C793.33,377.33,797.19,371.67,801,366.1Z"/><path d="m408.68 430.94c5.51-1.06 11.18-.78 16.76-.82 37.27.22 74.55-.22 111.8.18 13.86.06 25.69 12.94 25.16 26.71q.12 59.94 0 119.88c.69 14.59-12.51 27.55-27 27q-60 .06-119.92 0c-14.49.45-27.55-12.57-26.88-27.12q-.12-59.85 0-119.73c-.37-11.96 8.4-23.45 20.08-26.1"/><path d="m591 609.45c57.9-.94 115.86-.14 173.8-.41 17.73-.8 34.14 14.59 34.14 32.39q.24 85.29 0 170.61c.27 17.14-14.86 33.24-32.22 32.86-55.61.14-111.24-.06-166.86.1-6.14 0-12.57 0-18.16-2.9-12.2-5.47-19.78-18.71-19.33-31.94q0-83.41 0-166.84c-.57-16.4 12.22-31.91 28.63-33.87"/><path d="m243.92 615.31c26.43-1.49 53-.14 79.55-.65 8.24.31 17.67-1.51 24.65 4.06 6.61 4.63 9.45 12.84 9.08 20.67-.06 26.86 0 53.75 0 80.61.14 7.24-2.55 14.78-8.53 19.2-6.53 5.16-15.37 4.49-23.22 4.61-25.51-.31-51 .31-76.55-.27-11.39 0-21.33-10.2-20.88-21.63-.12-28.18 0-56.35 0-84.53-.73-9.93 6.15-19.77 15.9-22.07"/><path d="m338.19 846.78c6-1.92 12.37-2 18.63-2 54.27.24 108.55-.18 162.82.2 16.82.16 32.06 14.75 32.25 31.69.24 54.92 0 109.86.14 164.78.2 8.08-.18 16.65-4.82 23.61-5.94 10.27-17.8 16.31-29.57 16.1q-84.38-.06-168.76 0c-18 .35-33.86-15.73-33.24-33.69-.24-55.65-.08-111.29-.06-166.94-.8-14.65 8.5-29.26 22.61-33.75"/><path d="m1200.27 1610.55c76.33-25.47 147.22-66.53 208.12-119 34 101.06 20.37 216.65-34.92 307.71a376.61 376.61 0 0 1 -160.37 145.54c-86.2 41.49-188.41 47.8-279.18 17.65a376.2 376.2 0 0 1 -241.43 -246.76c-16.33-53.12-20.12-109.88-12.1-164.8 33 19.27 66.88 37.08 102.67 50.55 132.39 51.32 282.7 54.56 417.21 9.11"/></g></svg>