<svg xmlns="http://www.w3.org/2000/svg" viewBox="0 0 2000 1545"><defs><linearGradient id="0" x1="901.01" x2="2019.35" gradientUnits="userSpaceOnUse"><stop stop-color="#62d0c9"/><stop offset="1" stop-color="#7de2ac"/></linearGradient><linearGradient id="1" x1="24.741" x2="1143.08" gradientUnits="userSpaceOnUse"><stop stop-color="#3268fb"/><stop offset="1" stop-color="#4795fa"/></linearGradient></defs><path d="M880,1186.83h493.65c183.41,0,333.65-148.26,333.65-333.58S1559,521.62,1375.6,521.62h-158L880,229h493.65C1719,227.06,2000,506,2000,851.3c2,255.55-154.14,485.74-392.19,581.32L1998,1770.1H1553.16Z" transform="translate(0-229)" fill="url(#0)"/><g transform="translate(0-229)"><path d="M1121.95,814.23H628.3c-183.41,0-333.65,148.26-333.65,333.58s148.29,333.58,333.65,333.58h158L1121.95,1774H628.3C282.94,1774,2,1495,0,1151.71c-2-257.5,154.14-487.69,392.19-583.27L2,229H448.79Z" fill="#4971fa"/><path d="M1121.95,814.23H628.3c-183.41,0-333.65,148.26-333.65,333.58s148.29,333.58,333.65,333.58h158L1121.95,1774H628.3C282.94,1774,2,1495,0,1151.71c-2-257.5,154.14-487.69,392.19-583.27L2,229H448.79Z" fill="url(#1)"/></g></svg>