<svg xmlns="http://www.w3.org/2000/svg" width="2000" height="2000" viewBox="0 0 2000 2000"><path d="M1955,1099c3-33,5-65,5-99,0-530-430-960-960-960S40,470,40,1000c0,4,1900,49,1915,99" fill="#d7d1c7"/><path d="m36 1002c0 530 430 960 960 960s905.46-326 960-840c.42-4-1920-153-1920-120" fill="#bfb5af"/><path d="m628 290c106 0 192 86 192 192s-86 192-192 192-192-86-192-192 86-192 192-192" fill="#f47e33"/><path d="M628 330A152 152 0 1 0 780 482c0-84-69-152-152-152m0 384c-128 0-232-104-232-232S500 250 628 250 860 354 860 482 755 714 628 714" fill="#35312e"/><path d="m1252 281c166.24 0 301 134.76 301 301s-134.76 301-301 301-301-134.76-301-301 134.76-301 301-301" fill="#f47e33"/><g fill="#bfb5af"><path d="m713 1226l244-308 52 30 100 37 71-37 227-242 79 106 38-31h50l126 176 90-15 162 184"/><path d="m873 1073l-132-73-192 50-88-291h-158l-152 267-111 4"/></g><g fill="#f47e33"><path d="m436 1129s-72 210-72 214c0 20 32 36 72 36s72-16 72-36c-1-3-72-214-72-214"/><path d="m270 1048s-71 209-71 213c0 20 32 36 71 36s71-16 71-36c0-4-71-213-71-213"/></g><g fill="#d8a780"><path d="m1573 1070c0 81-385 81-385 0s86-147 192-147 193 65 193 147"/><path d="m1765 1270c0 81-385 81-385 0s86-147 192-147c107-1 193 65 193 147"/><path d="m1380 1508c0 81-385 81-385 0s86-147 192-147 193 66 193 147"/></g><path d="m1011 1921c-397 0-737-249-872-599 27 0 55 1 84 1 14 4 30 6 47 6 14 0 26-1 38-4 6 0 13 0 19 1-2 6-2 8-2 10 0 45 48 77 113 77 64 0 100-40 103-83 10 1 31 11 41 12 270 29 288 78 288 80 1 4-6 25-60 62-116 80-156 127-145 177 13 60 91 75 209 97 33 6 71 14 110 22 43 10 88 19 131 27 80 16 161 32 225 52-101 41-213 62-329 62" fill="#d7d1c7"/><path d="M1805,899l-86,15L1595,742h-40a343,343,0,0,0,39-159c0-188-153-341-341-341S911,394,911,582c0,156,106,288,249,329l-5,5-49,25-80-29-79-46L836,1006l-89-49-171,44L490,719H280L127,987l-47,1C86,486,497,80,1000,80c507,0,920,413,920,920v29Zm-465,604c-14,10-66,26-152,26s-138-16-152-26c4-56,72-102,152-102s148,46,152,102Zm233-341c80,0,148,46,152,102-14,10-67,26-152,26s-138-16-152-26c4-56,72-102,152-102Zm-41-98c-14,10-67,26-152,26s-138-16-152-26c4-56,72-102,152-102s148,46,152,102Zm-61-339-60-81L1225,843c-131-14-233-125-233-260,0-144,117-261,261-261s261,117,261,261a258.17,258.17,0,0,1-43,142Zm-43,1089c-75-37-189-59-309-83-42-8-86-17-128-26-39-9-77-16-111-22-54-10-119-23-140-35,7-11,29-37,107-90,28-19,113-77,90-151-21-69-130-111-352-135q-30-3-63-6c-11-33-27-80-50-148l-38-111-38,111c-13,37-23,67-32,93-10-32-28-84-59-174L270,924l-38,111c-52,152-67,197-71,214H115a979,979,0,0,1-32-181l92-3L327,799H432l91,299,214-55,49,27L682,1201l63,50L967,970l26,15,120,44,52-27c-10,21-16,44-16,68s15,75,129,94a75.18,75.18,0,0,1,63,74v130c-16-11-34-21-54-28h1c-44-14-85-35-98-78-10,35-38,55-74,69-93,25-160,95-160,178,0,30,23,101,232,101,210,0,232-71,232-101V1352c14,5,30,9,49,12a75.18,75.18,0,0,1,63,74v90c0,21,15,40,36,42,24,2,44-17,44-40v-92a75.18,75.18,0,0,1,63-74c114-19,129-69,129-94,0-67-44-125-109-158h1c-1,0-2-1-4-1-11-6-24-10-36-14-18-9-34-21-45-36-5-71-58-131-134-160h-1c-5-2-10-3-15-5-38-14-71-35-82-72-12,41-47,62-92,76-3,1-7,2-10,4l125-133,75,101,60-48h15l130,179,92-16,135,153c-44,292-227,540-481,674ZM409,1336l27-81,27,81a93.12,93.12,0,0,1-54,0Zm-165-85c6-18,15-47,26-78,11,32,21,61,26,79-18,0-35-1-52-1Zm756,669c-391,0-726-245-859-590,26,0,54,1,82,1a165.3,165.3,0,0,0,46,6c13,0,26-1,37-4a127.52,127.52,0,0,1,19,1c-2,6-2,8-2,10,0,44,47,76,112,76,63,0,109-30,111-72,10,1,21,2,31,3,266,29,284,77,284,79,1,4-5,25-59,61-113,78-152,125-142,174,12,59,89,74,206,96,33,6,70,13,108,22,42,9,87,18,130,27,78,16,158,32,222,51a924.51,924.51,0,0,1-326,59ZM1000,0C449,0,0,449,0,1000S449,2000,1000,2000s1000-449,1000-1000S1551,0,1000,0Z" fill="#35312e"/></svg>