<svg xmlns="http://www.w3.org/2000/svg" viewBox="0 0 475 475"><defs><linearGradient id="0" x1="183.73" y1="150.34" x2="316.66" y2="359.11" gradientUnits="userSpaceOnUse"><stop stop-color="#464645"/><stop offset="1"/></linearGradient></defs><circle cx="237.5" cy="237.5" r="237.5" fill="#010100"/><circle cx="239.23" cy="237.5" r="137.32" fill="url(#0)"/><g fill="#fff"><path d="m177.91 200.36h36.27v-13.81h34.55c6.67 0 19 1.72 27.63 12.09h43.19c-8.64-24.19-42.34-46.64-66.86-46.64h-74.78"/><path d="m177.91 267.73h36.27v13.82h34.55c6.67 0 19-1.73 27.63-12.1h43.19c-8.64 24.19-42.34 46.64-66.86 46.64h-74.78"/></g><g fill="#e7b86a"><path d="m149.9 41.21l25.94 55.34s19-10.38 32.86-10.38l-12.11-60.53s-25.94 1.73-46.69 15.57"/><path d="m269.63 24.78l-9.11 60.44s21.58 1.92 33.1 9.59l23.5-57.08s-22.55-12.95-47.49-12.95"/><path d="m378.87 74.52l-39.56 46.58s17.34 13 23.09 25.58l50-36.16s-12.32-22.88-33.53-36"/><path d="m443.64 176.72l-58.53 17.61s7.5 20.33 5.49 34l61.65-3.17s2.06-25.9-8.61-48.44"/><path d="m443.74 296.33l-58.52-17.62s-5 21.09-14.21 31.39l53.16 31.39s16.02-20.49 19.57-45.16"/><path d="m381 398.38l-41-45.38s-15.16 15.49-28.39 19.53l29.28 54.35s24.29-9.2 40.11-28.5"/><path d="m270.89 450.07l-8.89-60.47s-21.21 4.44-34.46.45l-5.87 61.45s25.33 5.83 49.22-1.43"/><path d="m150.34 433.61l25.34-55.61s-20.23-7.76-29.19-18.3l-38.26 48.44s18.13 18.63 42.11 25.47"/><path d="m60 354.14l51.14-33.46s-13-17.38-14.89-31.08l-58.25 20.5s5.36 25.44 22 44.04"/><path d="m27 237.36l61-1.42s-1.82-21.57 3.75-34.21l-60.2-13.31s-8.86 24.4-4.55 48.94"/><path d="m59.56 120.92l51.66 32.52s10.39-19 22-26.45l-42.81-44.35s-20.87 15.45-30.85 38.28"/><text transform="matrix(.99 0 0 1 173.21 256.63)" font-family="Arial-BoldMT, Arial" font-weight="700" letter-spacing="0" font-size="61.61">BET</text></g></svg>