<svg xmlns="http://www.w3.org/2000/svg" viewBox="0 0 533.6 533.1"><path fill="#86cad9" d="m0 .1h533v533h-533z"/><g transform="translate(.6)"><path d="m0 266.5v266.5h533v-533h-533m283 43.8c3.8 3.1 2.1 6-7.3 12.2-4.5 3.1-30.8 21.2-58.4 40.3s-50.9 35-51.7 35.3c-3.9 1.5-3.4.2 30.7-75.5 2.6-5.7 5-9.7 6.2-10.2s18-1.4 37.5-2.2 36.7-1.5 38.1-1.6a8.79 8.79 0 0 1 4.9 1.7m42.2 8.6c5.7 2.9 26.2 13.3 45.6 23.1 25.7 13 35.2 18.3 35.2 19.6 0 2 1.3 1.7-29.9 7.4l-25.3 4.6-2.7-2.5c-2.8-2.7-8.9-5.6-11.9-5.6-2.6 0-24.8-48.6-23.1-50.6a4.15 4.15 0 0 1 1.5 -1.4c.2 0 5 2.4 10.6 5.4m-10.7 24.3l11.7 25.6-2.2 4.1a46.13 46.13 0 0 1 -3.4 5.3c-1.2 1.3-143.8 27.6-146.9 27.1-1.3-.2.2-1.7 5.6-5.3 4.1-2.8 17.7-12.2 30.3-20.9 42.7-29.8 79.5-55.2 86.2-59.6 2.4-1.6 5-2.6 5.7-2.4s6.6 12.1 13 26.1m-137-13.2a7.94 7.94 0 0 1 2.5 4.5c0 2-24.8 54.9-28.9 61.7a8.37 8.37 0 0 1 -4.8 3.6c-4.3.9-7.8 4.1-10.5 9.9l-2.5 5.3-16.4 5.9c-9 3.2-21.1 7.6-26.8 9.7-12.6 4.7-16.1 4.9-19.1 1.2-1.4-1.8-2-3.6-1.6-5.3.2-1.4 7.9-15.3 16.9-31l16.5-28.5 33.8-19.8c18.5-10.8 34.8-19.7 36.1-19.7a8 8 0 0 1 4.8 2.5m277.2 100.2c1.3 2 3.1 5.9 1.2 9.6-.7 1.2-4.4 6.4-8.2 11.7-12.7 17.2-17.6 23.9-23.2 31.5-4.7 6.2-6.1 7.5-9.2 8.1a9 9 0 0 1 -6.2 -.7c-3.4-1.9-59-94.2-59.1-98.1s1.6-7.5 4.2-9.2c2.3-1.5 52.2-11.3 58.5-11.5a8.24 8.24 0 0 1 5.7 2.1m-101.4 18.5c0 1.9-2.3 4.4-37 41.4-46.8 49.8-48.3 51.3-50.8 50-1.1-.6-8.3-7.1-15.9-14.4s-21.6-20.7-31-29.8c-14.3-13.5-17.3-16.9-17.3-19.2 0-3.6 1.2-4 19.5-7.2 8.3-1.5 40.9-7.3 72.5-12.9s58.1-10.1 58.8-9.8a2.18 2.18 0 0 1 1.2 1.9m-73.85 105.82c-1.42-.85-5.45-5-5.05-6.42a79.19 79.19 0 0 1 6.4 -7.3c3.2-3.5 8.8-9.5 12.4-13.3s10.1-10.8 14.6-15.5 14.3-15.3 22-23.5c25.1-26.8 30.8-32.5 32.2-32.5.8 0 1.3 1.2 1.3 3.3 0 1.9-1.3 15-2.9 29.3s-5.5 48.4-8.6 75.9c-3.6 31.5-6.1 50.2-6.8 50.7-1.3.8-1.7.4-23.2-20.4-14-13.4-30.2-28.9-37.5-35.7m99-95.5c2.1 3.2 14.9 24.6 28.5 47.4 24.2 40.5 24.7 41.5 23.5 44.5a39.31 39.31 0 0 0 -1.9 8c-.7 5.8 4.5 1.9-43.7 33-29.3 19-32.4 20.5-33.8 17-.3-.8 1-12.5 2.9-26.2s6.6-48.1 10.5-76.7 7.3-52.3 7.6-52.8c1.1-1.7 2.7-.2 6.4 5.8m-211.6 21.3c.5.8-48.1 80.9-51 84-1 1.1-1.9 1.2-3.5.5s-4.1-6.6-12-28.9c-5.4-15.4-9.8-28.9-9.9-30.1 0-2.7-.2-2.6 30-12.3 14-4.5 29.3-9.5 34-11.1 9.2-3.1 11.6-3.5 12.4-2.1m33 9.9c5.6 5.4 15.5 15 22.1 21.3s16.6 16 22.3 21.4 10.2 10.5 10.2 11.3c0 2-2 4.4-19.2 22.5-8.4 8.9-18.9 20-23.3 24.7-14.1 14.9-15.2 16-16.7 16-2.8 0-4.6-3.5-5.7-11.5-.8-5.5-1.7-8.5-3-9.5s-10.9-2.7-31.7-5.4c-16.4-2.1-30.5-4.3-31.1-4.8-2.3-1.9-1.4-4.9 4.9-15.2 10.4-17.1 36.9-60 38.7-62.6.9-1.4 3.1-5 4.9-8.1 4.1-7.1 5.8-8.7 10.7-9.2 2.2-.2 4.6-.4 5.4-.5s5.9 4.2 11.5 9.6m294.5 16.9c1.7 1.5 2.7 5.7 6 25.3 2.3 12.9 4.5 25.7 5 28.4a20.28 20.28 0 0 1 -.4 9.5c-.8 2.5-2.3 8.3-3.5 12.9-3.9 14.5-5.8 14.6-21.2 1.6-6.2-5.3-12.4-10.7-13.8-11.9s-3.7-3.5-5.2-4.8c-2.4-2.2-2.7-3.3-2.7-8 .1-3-.4-6.4-1-7.6-1.5-2.8-1.5-2.8 14.7-25.1 13.6-18.7 16.4-22 18.7-22a8.17 8.17 0 0 1 3.4 1.7m-228.3 47.6c1.2.7 16.7 16 34.5 34.1 34.4 34.9 35.4 36.2 31.2 40.8-1 1.1-7 4.5-13.3 7.5s-15.1 7.3-19.4 9.5l-8.72 4-28.78 1.3c-21 1-30.1 1.1-31.5.3-1.2-.6-7.7-6.5-14.5-13.2s-13.2-12.9-14.2-13.9a6.05 6.05 0 0 1 -1.9 -4.1c0-2.2 5.6-10.6 8.3-12.3.6-.4 6.4-6.4 12.7-13.3s15.3-16.5 20-21.5c21.2-22.3 20.8-22 25.6-19.2m180.4 19.1l7.5.1 6.6 5.5c27.4 22.9 28.9 24.8 25.3 29.7-1.7 2.3-20.7 15.1-72.4 48.8-10.7 7-20.3 13.7-21.2 14.7-1.5 1.6-1.8 3.9-1.8 11.9 0 8.6-.3 10.2-2 11.9-2.6 2.6-6.3 2.5-9.4-.3-2.9-2.6-28.2-32.2-30.3-35.4-1.3-1.9-1.4-4.9-.8-17.8.4-8.9 1.2-16 1.9-16.9 1.1-1.3 23.6-16.5 26.6-17.9.8-.4 13.4-8.6 28-18.2 25.8-17 26.6-17.5 30.5-16.8a105.13 105.13 0 0 0 11.5 .7m-132.4 166.1c1.5 2.3 1.5 2.7 0 5-1.9 2.9-4.7 3.2-7 .9a4.93 4.93 0 0 1 3.4 -8.4c1.1 0 2.7 1.1 3.6 2.5m188.4-1a2.61 2.61 0 0 1 -2 4.5c-2.3 0-3.5-2.2-2.6-4.5.7-1.9 3-1.9 4.6 0m-98.7.6a20.23 20.23 0 0 1 7.2 4.1c2.9 2.4 3.3 3.3 2.4 4.5s-1.6 1-3.8-1.1c-3.6-3.4-7.2-4.6-14-4.6a19 19 0 0 0 -15.8 29.8c6.1 9.3 23.1 11.2 30.1 3.3 1.5-1.6 2.2-1.8 3.3-1 1.8 1.5-.6 4.3-6.2 7.2-5.3 2.7-16.4 2.9-21.5.3a23.63 23.63 0 0 1 -12 -27.5c1.4-5.3 9.2-13.5 14.1-15a34.13 34.13 0 0 1 16.2 0m21.7 8.1v9.1l2.3-2c3.4-3.1 6.2-4.3 10.4-4.3 8.6 0 11.3 5.1 11.3 21.5 0 9.6-.3 11.5-1.5 11.5s-1.5-1.7-1.5-9.3c-.1-11.2-1.2-16.6-4.1-19-4.3-3.5-12.5-1.2-15.4 4.3-1.1 2-1.5 6-1.5 13.5 0 9.8-.1 10.5-2 10.5s-2-.7-2-22.5.1-22.5 2-22.5 2 .7 2 9.2m-344.3-5.9c6.6 3.5 10.5 11 10.5 20.2 0 7-1.3 10.9-5 14.8-4.3 4.6-7.5 5.7-18.7 6.4h-10.5v-43.37l10.3-.13c6.8.3 11.3 1 13.4 2.1m150.7-.9a13.9 13.9 0 0 1 5 3.7c2.2 3.2 2 9.1-.4 12.1l-1.9 2.5 2.9 2.1a14 14 0 0 1 4.25 6.08c.48 3.52 1.1 4.83-.5 8.13-3.1 6.1-6.25 7.2-16.65 7.8l-9.1-.13v-43.68h6.5c3.6 0 8.1.6 9.9 1.4m-104.6 37.4c-.5 2.6-6.9 5.2-12.6 5.2-10.3 0-16.2-5.1-17-14.7-.6-7.1 1.7-12.1 7.1-15.6s12.9-3.7 17.8-.4 7.9 8.3 7.9 12.8v3.9h-13c-8.6 0-12.81-.13-13 .4s1.3 3.1 2.9 4.7c3.3 3.3 7.8 3.8 12.4 1.4m40.7-23.4c4.5 2.6 8 8.3 8 13.3v3.6h-13c-8.6 0-13 .4-13 1.1s1.3 2.4 2.9 4c3.4 3.3 7.5 3.8 12.1 1.4 2.3-1.2 3.4-1.3 5.5-.3 3.1 1.4 3.1 2.1.3 4.7-2.6 2.5-7.3 3.5-13.7 2.9-9.4-.9-14.7-7.6-13.9-17.5 1.1-12.5 13.9-19.3 24.8-13.2m39.8-.1c4.8 3 7.2 7.5 7.2 14 0 6.7-2.3 11.7-6.9 14.7s-11.8 3.1-15.4.3l-2.6-2.1-.3 7.8-.13 8.4h-7.67v-44.1h4c2.9 0 4 .4 4 1.5s.6 1.1 3.3-.5a14.45 14.45 0 0 1 14.5 0m63.6.2c-1 3.5-1.7 4.3-3.9 4.3-3.3 0-4.5 4.2-4.5 15.7v10.8h-7v-32h3c2.2 0 3 .5 3 1.7 0 1.5.3 1.4 2.2-.5a8.65 8.65 0 0 1 5.1 -2.2c2.5 0 2.7.3 2.1 2.2m24.4-.2c2.6 1.6 3.2 1.7 3.2.5 0-1 1.1-1.5 3.5-1.5h3.5v32h-3.5c-2.8 0-3.5-.4-3.5-2 0-1.9-.1-1.9-3.5.2a13.92 13.92 0 0 1 -17.1 -2.5c-5.7-6.2-6.6-14.6-2.3-21.6 4.1-6.7 13.1-9.1 19.7-5.1m58.3.9l.42.42a8.46 8.46 0 0 1 2.48 6v23.68h-7v-10.5c0-13.1-1-15.5-6.1-15.5-5.8 0-7.1 2.8-7.7 15.6l-.5 10.4h-6.7v-32h3.4c2.2 0 3.6.6 4 1.6.5 1.3.9 1.3 3.2-.5a11.34 11.34 0 0 1 14.5 .8m133.6-1.2c1.9.9 3.7 2.2 4 3 .9 2.2 2.3 1.5 2.3-1.2 0-1.6.6-2.5 1.5-2.5 1.3 0 1.5 2.4 1.5 16s-.2 16-1.5 16c-1 0-1.5-1-1.5-3.2v-3.1l-2.2 2.1c-4.7 4.3-13.3 5.5-18.8 2.7-7.5-3.9-11.1-14.4-7.4-22 2.5-5.4 8.6-9.5 14.1-9.5a20.4 20.4 0 0 1 8 1.7m53.2-.1c3.9 2.8 5.1 7.3 5.1 19.9 0 9.6-.3 11.5-1.5 11.5s-1.5-1.8-1.5-9.8c0-15.6-2.3-20.2-10-20.2-3.9.1-6.5 1.6-9.2 5.7-1.4 2.3-1.8 4.8-1.8 13.5 0 10.1-.1 10.8-2 10.8s-2-.7-2-16 .1-16 2-16c1.5 0 2 .7 2 2.7v2.6l2.3-2a26.48 26.48 0 0 1 4.2 -3.1c3-1.7 9.7-1.4 12.4.4m-219.9 15.5v16l-3.2-.3-3.3-.3-.3-15.8-.3-15.7h7.1m188.7 15.7c-.2 14.1-.4 15.8-1.9 16.1-1.7.3-1.8-1-1.8-15.7 0-15.3.1-16.1 1.9-16.1s2 .8 1.8 15.7"/><path d="M34,442.4V457h5c7.1,0,10.5-2,12.5-7.5,2.9-7.3.8-15.3-4.8-18.9a23.38,23.38,0,0,0-7.4-2.2l-5.3-.07Z"/><path d="m191 433c0 5 0 5 3.3 5 3.9 0 5.7-1.5 5.7-4.6 0-2.7-3.4-5.4-6.7-5.4-2.1 0-2.3.5-2.3 5"/><path d="m191 450.9v6.1h4.4c10.5 0 10.2-10.3-.3-11.7l-4.1-.18"/><path d="M77.2 439.6a10.54 10.54 0 0 0 -3.2 3.5c-1 1.8-.7 1.9 8.5 1.9 5.2 0 9.5-.4 9.5-.9s-1.2-2-2.6-3.5A10.08 10.08 0 0 0 77.2 439.6"/><path d="m114.6 440.1c-4.9 3.8-3.5 4.9 6.4 4.9 5 0 9-.4 9-.9s-1.2-2-2.6-3.5a9.84 9.84 0 0 0 -12.8 -.5"/><path d="m153.3 441.4c-5.5 4.7-2.7 15.3 4.4 17.1 9.6 2.4 15.4-12 7.4-18.2-2.8-2.1-8.7-1.5-11.8 1.1"/><path d="m244.5 441.5c-3.4 3.4-3.5 10.3-.1 14.2 1.9 2.2 3.2 2.8 6.6 2.8 5.7 0 9-3.7 9-10.1 0-6.1-3.2-9.4-9-9.4-3 0-4.7.6-6.5 2.5"/><path d="m435.3 437c-4.4 2.7-6.5 6.2-6.5 11.3-.2 8.2 5.3 13.7 13.6 13.7 12.9 0 17.5-18.2 6.3-25a12.91 12.91 0 0 0 -13.4 0"/></g></svg>