<svg enable-background="new 0 0 32 32" viewBox="0 0 32 32" xmlns="http://www.w3.org/2000/svg"><circle cx="16" cy="16" fill="#b8b8b8" r="16"/><path d="m4 22.7c0 .1 0 .2.1.3.1.2.2.3.3.4.1 0 .3-.2.5-.2.1 0 .1.1.1.2-.1.1-.3.2-.4.3s-.3.2-.4.1l-.1-.1s-.1-.1-.1-.1c-.1-.1-.1-.2-.1-.2 0-.1-.1-.2-.1-.2l-.1-.2c-.1-.1-.1-.2-.1-.3s.2-.2.4-.3.4-.1.5-.3c.1-.1 0-.2-.1-.4 0-.1-.1-.1-.1-.2s-.1-.1-.1-.2c-.1 0-.4.2-.5.2 0 0-.1-.2-.1-.2.1 0 .5-.3.7-.3.1 0 .1.1.2.2s.1.2.1.3c0 0 .1.1.1.2v.1s0 .1.1.1c0 0 .1.1 0 .2 0 .1-.1.1-.2.2-.1.2-.3.3-.6.4zm19-18.3c0-.1-.1-.2-.2-.2-.1-.1-.3-.2-.5-.2-.1 0-.2.4-.3.5h-.1-.1c.1-.1.1-.3.2-.5.1-.1.2-.3.3-.2.1 0 .3.1.5.2 0 0 .1 0 .1.1 0 0 .1 0 .1.1.1 0 .2.1.2.1.1 0 .2.1.2.2s-.1.3-.2.4c-.1-.1-.2.1-.2.2s.1.2.2.3c.1 0 .1.1.2.1s.1.1.2.1c.1-.1.2-.4.4-.4 0 0 .2.1.2.1-.2.2-.4.6-.5.7-.1 0-.2 0-.3-.1 0 0-.1-.1-.1-.1s-.1-.1-.1-.1c-.1-.1-.3-.1-.4-.2 0 0-.1-.1-.1-.1 0-.1 0-.1.1-.2 0-.4.1-.6.2-.8zm-4.3-1.1c-.1 0-.2 0-.2 0 0-.1 0-.3.1-.5 0-.1.1-.3.2-.3h.2c.1 0 .2 0 .3.1.1 0 .2 0 .3.1h.1.1c.1 0 .2.1.3.1 0 .1 0 .3-.1.5s-.1.4-.1.5.1.2.2.2.3 0 .4.1c.1-.1.1-.2.1-.3s0-.2.1-.2c0 0 .2 0 .2.1 0 .2-.1.6-.3.7h-.1c-.1 0-.1 0-.2 0s-.2-.1-.3-.1-.2 0-.2 0l-.2-.1c-.1 0-.1-.1-.2-.1 0 0 0-.1 0-.2 0-.3.1-.5.2-.7s0-.1-.1-.1-.1-.1-.2-.1c-.2 0-.3-.1-.5-.1-.1-.1 0 .2-.1.4zm-2-.3c0-.1 0-.3-.1-.5 0-.1 0-.2 0-.2 0-.1.1-.1.1-.1h.7c.2 0 .6 0 .6.1v.2.3c0 .2-.1.4 0 .5 0 .1.2.1.3.2h.2.2c.3 0 .3-.3.4-.4h.2c0 .2 0 .7-.2.8-.1 0-.2 0-.3 0h-.1s0 0-.1 0h-.1c-.1 0-.2 0-.3 0h-.1s0 0-.1 0h-.1c-.1-.1 0-.3 0-.5s.1-.4 0-.5c0-.1-.2-.1-.4-.1s-.3 0-.4 0c-.1.1 0 .4-.1.5h-.1c-.1-.3-.1-.3-.2-.3zm3.7.7c-.1 0-.2 0-.2-.1s0-.3.1-.5c0-.2.1-.3.3-.3.1 0 .2 0 .3.1h.1s.1 0 .2.1c.2.1.5.1.6.3 0 .1 0 .3-.1.5s-.2.4-.2.5.1.2.3.2h.1.1s.1 0 .2.1c.1-.1.2-.4.3-.4 0 0 .1 0 .2.1 0 .2-.2.7-.4.7-.1 0-.4-.2-.6-.3-.1 0-.5-.2-.5-.3s0-.3.1-.5.2-.4.2-.5-.2-.1-.3-.2c-.1 0-.3-.1-.4-.1-.3.2-.3.5-.4.6zm4.5 2.5c-.1 0-.2-.1-.2-.2.1-.1.2-.3.3-.4s.2-.2.3-.1c.1 0 .1.1.2.1l.1.1s.1 0 .1.1c.1.1.2.3.4.4.1 0 .2.2.2.2 0 .1-.1.2-.3.4-.1.1-.3.2-.4.4v.2.1c.1.1.2.2.3.3.1 0 .3-.3.5-.3 0 0 .1.1.1.2-.1.1-.4.5-.6.5h-.1s-.1-.1-.1-.1c-.1-.1-.1-.2-.2-.3l-.1-.1s-.1 0-.1-.1c-.1 0-.1-.1-.2-.2 0-.1-.1-.1-.1-.2s0-.1.1-.2l.5-.5.4-.2-.2.2c.1-.1 0-.2-.1-.3s-.1-.1-.2-.2c0 0-.1 0-.1-.1l-.1-.1c-.1.1-.3.4-.4.4zm-1.4-1c-.1 0-.2-.1-.2-.2s.1-.3.2-.4.2-.3.3-.2c.2 0 .4.2.6.4 0 0 .1.1.1.1s.1.1.1.1c.1.1.1.1.2.2 0 .1-.1.3-.3.4-.1.1-.3.3-.3.4v.2c0 .1.1.1.1.1.1.1.3.2.3.2.1 0 .3-.3.4-.3 0 0 .1.1.1.1-.1.2-.4.6-.6.6h-.1s0 0-.1 0l-.2-.2s-.1-.1-.1-.1-.1-.1-.1-.1c.1-.2.1-.3 0-.3 0-.1.1-.3.3-.5.1-.2.3-.3.3-.5 0 0 0-.1-.1-.1 0 0-.1-.1-.2-.1-.1-.1-.3-.1-.4-.2-.1 0-.2.3-.3.4zm3.6 3.4c.1-.1.3-.2.4-.3s.3-.2.4-.1l.1.1s0 0 .1.1c0 .1.1.1.1.2s.1.2.1.2l.1.2c.1.1.1.2.1.3s-.2.2-.4.3-.4.1-.5.3c-.1.1 0 .2 0 .4 0 .1.1.1.1.2s.1.1.1.2c.1 0 .4-.2.5-.2 0 0 .1.2.1.2s-.4.3-.6.3c-.1 0-.1-.1-.2-.2 0-.1-.1-.2-.1-.3 0 0-.1-.1-.1-.2 0 0 0 0 0-.1v-.1s-.1-.1 0-.2c0-.1.1-.1.2-.2.2-.1.4-.2.6-.3.1-.1 0-.2 0-.4-.1-.2-.2-.3-.3-.4-.1 0-.3.2-.5.2-.3-.1-.3-.2-.3-.2zm-1.1-1.3c.1-.1.2-.2.4-.4.1-.1.2-.2.4-.1 0 0 .1.1.2.2l.2.3c0 .1.1.2.2.3s.1.2.1.2c0 .1-.2.2-.4.3s-.4.2-.4.3 0 .2.1.4c0 0 0 .1.1.1 0 0 0 .1.1.1 0 0 .1.1.1.1.2 0 .4-.3.5-.2 0 0 .1.1.1.2s-.2.2-.3.3c-.1 0-.1.1-.2.1s-.1 0-.2 0c-.1-.1-.2-.1-.2-.2s-.1-.2-.1-.3c0 0-.1-.1-.2-.2 0 0-.1-.1-.1-.1v-.1c0-.1.2-.3.4-.4s.4-.2.4-.4c0-.1-.1-.2-.2-.3 0-.1-.1-.1-.2-.2 0 0-.1-.1-.1-.1-.1 0-.3.3-.5.3-.1-.1-.2-.2-.2-.2zm2.7 4.3c.1 0 .3-.1.4-.1.1-.1.3-.1.4 0s.1.3.2.5c0 .2.1.4.1.5 0 0 0 0-.1 0h.1c.1.1 0 .2 0 .3-.1.1-.3.1-.5.2-.2 0-.4 0-.5.1s-.1.2 0 .4l.1.2v.2c.1 0 .4-.1.6 0v.2c-.1 0-.3.1-.4.1-.2 0-.3 0-.4 0s-.1-.1-.1-.3c0-.1 0-.1 0-.2v-.2c-.1-.1-.1-.3-.1-.4v-.1-.1c.1-.1.1-.1.2-.1.3 0 .5-.1.7-.2h.1-.1c.1 0 .1-.2 0-.4v-.1-.1l-.1-.2c-.1 0-.4.1-.5.1-.1-.1-.1-.3-.1-.3zm-.7-1.6c.1 0 .3-.2.4-.3s.3-.1.4 0c0 0 .1.1.1.1l.1.1c0 .1.1.2.1.3 0 0 0 .1.1.1v.1.1c0 .1.1.2 0 .3 0 .1-.2.2-.4.2-.2.1-.4.1-.5.2v.2.1.1c0 .1.1.3.2.4.1 0 .4-.2.5-.1v.2c-.1.1-.7.3-.8.2 0 0-.1-.1-.1-.1 0-.1 0-.1 0-.2s0-.2-.1-.3v-.1s0-.1-.1-.2c0-.1-.1-.2-.1-.3s.2-.2.5-.3c.2-.1.4-.1.5-.2 0 0 0 0 0-.1s0-.1 0-.1 0-.1-.1-.2c0 0-.1-.1-.1-.2v-.1s0 0 0-.1c-.1 0-.4.2-.5.2-.1.2-.1.1-.1 0zm2 4.8c.2 0 .3 0 .3.1v.2.3.5c0 .1 0 .3-.1.3-.1.1-.3 0-.5 0s-.4 0-.5 0-.1.2-.1.3v.4c.1.1.4 0 .5.1v.1.1c-.2 0-.7 0-.8-.1 0 0 0-.2 0-.3s0-.3 0-.4v-.5c0-.1 0-.1.1-.2.1 0 .2-.1.2 0h.7c.1 0 .1-.2.1-.3 0-.2 0-.4 0-.5-.1-.1-.4 0-.6 0v-.2c.3.2.5.2.7.1zm-.3-1.7h.4v.1.2.4.1.1.2.3c-.1.1-.3.1-.5.1s-.4 0-.5.1v.1.1.2.2.1.1c.1 0 .5-.1.6 0v.2c-.2.1-.8.1-.9 0 0-.1 0-.2 0-.3v-.3c0-.1 0-.2 0-.3s0-.3 0-.3c.1-.1.3-.1.5-.1s.5 0 .5-.1 0-.1 0-.2v-.1-.1c0-.1-.1-.3-.1-.4-.1 0-.4.1-.6 0 0 0-.1-.1 0-.2.2-.1.4-.2.6-.2zm.1 5.3c.2 0 .3.1.2.3v.2c0 .1 0 .2-.1.3 0 .1 0 .2-.1.3v.1.1c0 .1-.1.2-.1.3-.1 0-.3 0-.5-.1s-.4-.1-.5-.1-.2.1-.2.3c0 .1 0 .3-.1.4.1.1.2.1.3.1s.2 0 .2.1c0 0 0 .2-.1.2-.2 0-.6-.1-.7-.3v-.1c0-.1 0-.1 0-.2s.1-.2.1-.3 0-.1 0-.2l.1-.2c0-.1.1-.1.1-.2h.2c.3 0 .5.1.7.2s.1 0 .1-.1c0 0 .1-.1.1-.2 0-.2.1-.4.1-.5-.1-.1-.4-.1-.5-.2 0-.1 0-.2 0-.2.3-.1.5-.1.7 0zm-.1 1.1c-.1 0 0 0 0 0zm.5-2.9c.1.1.1.1 0 0 .1.3.1.5 0 .8 0 .2 0 .5-.1.6 0 0-.1 0-.2 0s-.2 0-.3 0c-.2 0-.4-.1-.5 0-.1 0-.1.2-.2.3v.2.2c.1.1.4.1.5.2v.2c-.2 0-.7 0-.8-.2 0-.1 0-.2 0-.3v-.1s0 0 0-.1v-.1c0-.1 0-.2 0-.3v-.1s0 0 0-.1v-.1c.1-.1.3 0 .5 0s.4.1.5 0c.1 0 .1-.2.1-.4s0-.3 0-.4c-.1-.1-.4 0-.5-.1v-.1s0 0 0-.1h.5zm-1.5 5.1c.2.1.3.2.2.3 0 .1-.1.3-.2.5 0 0 0 .1-.1.1 0 0 0 .1-.1.1 0 .1-.1.2-.1.2s-.1 0-.1-.1c0 0 .1 0 .1.1s-.1.2-.2.2-.3-.1-.4-.2-.3-.3-.5-.3c-.1 0-.2.1-.3.2 0 .2-.1.2-.1.3s-.1.1-.1.2c.1.1.4.2.4.4 0 0-.1.2-.1.2-.1-.1-.6-.3-.6-.5 0-.1 0-.2.1-.3 0 0 .1-.1.1-.1s.1-.1.1-.1c.1-.1.1-.3.2-.4 0 0 .1-.1.1-.1.1 0 .1 0 .2.1.2.1.4.2.6.3.1 0 .2-.1.3-.2s.2-.3.2-.5c0-.1-.4-.2-.5-.3v-.1s.1-.1.1-.1c.4 0 .6 0 .7.1zm.6-1.6c.2 0 .3.1.3.2s0 .2-.1.3c0 0 0 .1-.1.2 0 0 0 .1-.1.2-.1.2-.1.5-.3.6-.1 0-.3 0-.5-.1s-.4-.2-.5-.2-.2.1-.2.3v.1.1s0 .1-.1.2c.1.1.4.2.4.3 0 0 0 .1-.1.2-.2 0-.7-.2-.7-.4 0-.1.2-.4.3-.5 0-.1.2-.5.3-.5s.3 0 .5.1.4.2.5.2.1-.2.2-.3c0-.1.1-.3.1-.4-.1-.1-.4-.1-.5-.2 0-.1 0-.2.1-.2.2-.3.4-.3.5-.2zm-2.5 4.6c.1.1.2.2.2.3s-.1.1-.1.2l-.1.1s0 .1-.1.1c-.1.1-.3.2-.4.4 0 .1-.2.2-.2.2-.1 0-.2-.1-.4-.3-.1-.1-.2-.3-.4-.4 0 0-.1 0-.2 0 0 0 0 0-.1 0-.1.1-.2.2-.3.3 0 .1.3.3.3.5 0 0-.1.1-.2.1-.1-.1-.5-.4-.5-.6v-.1s.1-.1.1-.1c.1-.1.2-.1.3-.2l.1-.1s0-.1.1-.1c0-.1.1-.1.2-.2.1 0 .1-.1.2-.1s.1 0 .2.1l.5.5.2.2-.2-.2c.1.1.2 0 .3-.1l.2-.2s0-.1.1-.1l.1-.1c0-.1-.3-.3-.4-.4 0-.1.1-.2.2-.2 0 .3.1.4.3.5zm1-1.5c.2.1.3.2.3.3 0 .2-.2.4-.4.5 0 0-.1.1-.1.1s-.1.1-.1.1c-.1.1-.1.1-.2.2-.1 0-.3-.1-.4-.3-.1-.1-.3-.3-.4-.3s-.1 0-.2 0-.1.1-.1.1c-.1.1-.2.3-.2.3 0 .1.3.3.3.4 0 0-.1.1-.1.1-.2-.1-.6-.4-.6-.6v-.1s0 0 0-.1l.2-.2s.1-.1.1-.1.1-.1.1-.1c.1-.1.1-.2.2-.2s.3.1.5.3.3.3.5.3c0 0 .1 0 .1-.1 0 0 .1-.1.1-.2.1-.1.1-.3.2-.4 0-.1-.3-.2-.4-.4 0-.1 0-.2.1-.2.1.5.3.6.5.6zm-4 3.5c.1.1.2.3.3.4s.2.3.1.4h-.2s-.1.1-.1.1c-.1.1-.2.1-.2.1-.1 0-.2.1-.2.1l-.3.2c-.1.1-.2.1-.3.1s-.2-.2-.3-.4-.1-.4-.3-.5c-.1-.1-.2 0-.4 0-.1 0-.1.1-.2.1s-.1.1-.2.1c0 .1.2.4.2.5 0 0-.2.1-.2.1-.1-.2-.4-.5-.3-.7 0-.1.1-.1.2-.2.1 0 .2-.1.3-.1 0 0 .1-.1.2-.1h.1.1s.1-.1.2 0c.1 0 .1.1.2.2.1.2.2.4.3.6.1.1.2 0 .4 0 .2-.1.3-.2.4-.3 0-.1-.2-.3-.2-.5.2-.2.3-.2.4-.2zm1.3-1.1.4.4c.1.1.2.2.1.4-.1.1-.2.1-.2.2l-.3.2c-.1 0-.2.1-.3.2s-.2.1-.2.1c-.1 0-.2-.2-.3-.4s-.2-.4-.3-.4-.2 0-.4.1c0 0-.1 0-.1.1 0 0-.1 0-.1.1 0 0-.1.1-.1.1 0 .2.3.4.2.5 0 0-.1.1-.2.1s-.2-.2-.3-.3-.1-.1-.1-.2 0-.1 0-.2c.1-.1.1-.2.2-.2s.2-.1.3-.1c0 0 .1-.1.2-.2 0 0 .1-.1.1-.1h.1c.1 0 .3.2.4.4s.2.4.4.4c.1 0 .2-.1.3-.2.1 0 .1-.1.2-.2 0 0 .1-.1.1-.1 0-.1-.3-.3-.3-.5.1-.1.1-.1.2-.2zm-4.5 2.6c0 .1.1.3.2.4s.1.3 0 .4-.3.1-.5.2c-.2 0-.4.1-.5.1 0 0 0 0 0-.1v.1c-.1.1-.2 0-.3 0-.1-.1-.1-.3-.2-.5 0-.2 0-.4-.1-.5s-.2-.1-.4 0l-.2.1c-.1 0-.1 0-.2 0 0 .1.1.4 0 .5h-.2c0-.1-.1-.3-.1-.4 0-.2 0-.3 0-.4s.1-.1.3-.1h.2.2c.1 0 .3-.1.4-.1h.1.1c.1.1.1.1.1.2 0 .3.1.5.2.7 0 .1.2.1.4 0h.1.1l.2-.1c0-.1-.1-.4-.1-.5zm1.6-.7c0 .1.2.3.3.4s.1.3 0 .4c0 0-.1.1-.1.1l-.1.1c-.1 0-.2.1-.3.1 0 0-.1 0-.1.1h-.1-.1c-.1 0-.2.1-.3 0-.1 0-.2-.2-.2-.4-.1-.2-.1-.4-.2-.5 0 0-.1 0-.2 0 0 0 0 0-.1 0h-.1c-.1 0-.3.1-.4.2 0 .1.2.4.1.5-.1 0-.1 0-.2 0-.1-.1-.3-.6-.2-.8 0 0 .1 0 .1-.1h.2c.1 0 .2 0 .3-.1h.1s.1 0 .2-.1c.1 0 .2-.1.3-.1s.2.2.3.5c.1.2.1.4.2.5h.1.1s.1 0 .2-.1c0 0 .1-.1.2-.1h.1.1c0-.1-.2-.4-.2-.5-.2 0-.1 0 0-.1zm-5 1.5c0 .1 0 .3.1.5s0 .3-.1.3-.1 0-.2 0h-.3c-.2 0-.4 0-.6 0-.1 0-.3 0-.3-.1-.1-.1 0-.3 0-.5s.1-.4 0-.5c0-.1-.2-.1-.3-.1s-.3 0-.4 0c-.1.1 0 .4-.1.5h-.1-.1c0-.2 0-.6.1-.8h.3s.3 0 .4 0h.5c.1 0 .1 0 .2.1v.2.7c0 .1.2.1.3.1h.5c.1-.1 0-.4 0-.5-.1 0 0 0 .1.1zm1.7-.3c0 .1.1.3.2.4 0 .2 0 .3-.1.4h-.1s-.1 0-.2 0-.2 0-.4 0c0 0 0 0-.1 0h-.1c-.1 0-.1 0-.2 0s-.2 0-.3 0c-.1-.1-.1-.3-.1-.5s0-.4-.1-.5c0 0 0 0-.1 0h-.1c-.1 0-.1 0-.2 0s-.2 0-.2 0h-.1-.1c0 .1.1.5 0 .5s-.1 0-.2 0c-.1-.2-.1-.7 0-.8h.3.3.3.3c.1.1.1.3.1.5s0 .5.1.5h.2.1.1c.1 0 .3-.1.4-.1 0-.1-.1-.4 0-.5.1.1.2.1.3.1zm-5.5 0h.2c-.1.1-.1.3-.1.5 0 .1-.1.3-.2.3s-.1 0-.2 0-.2-.1-.3-.1-.2-.1-.3-.1h-.1c-.1 0-.1 0-.1 0-.1 0-.2-.1-.3-.1-.1-.1 0-.3.1-.5s.1-.4.1-.5-.1-.2-.3-.2c-.1 0-.3 0-.4-.1-.1.1-.1.2-.1.3s-.1.2-.1.2c-.1 0-.2 0-.2-.1.1-.2.1-.6.3-.7h.1.2c.1 0 .2.1.3.1h.2l.2.1c.1 0 .1.1.2.1v.2c-.1.3-.1.5-.2.7v.1s0 .1.1.1.1.1.2.1c.2 0 .4.1.5.1.2 0 .1-.3.2-.5zm2 .3c0 .1 0 .3.1.5v.2c0 .1-.1.1-.1.1-.2 0-.4 0-.7 0-.2 0-.6 0-.6-.1-.1 0-.1-.1-.1-.2s0-.2.1-.3c0-.2.1-.4.1-.5-.1-.1-.2-.1-.3-.2-.1 0-.2 0-.2 0-.1 0-.1 0-.2 0-.1.1-.1.4-.2.5-.1 0-.1 0-.2 0 0-.2 0-.7.2-.8h.3.1.1.1.3.1.1.1c.1.1 0 .3 0 .5-.1.2-.1.4-.1.5.1.1.2.1.4.1h.4c.1-.1 0-.4.1-.5h.1c-.1.2-.1.2 0 .2zm-5.2-1.3c.1 0 .1 0 0 0 0 .2 0 .4-.1.5s-.2.3-.3.2c-.1 0-.3-.1-.5-.2-.1 0-.1 0-.1-.1-.1 0-.1 0-.1-.1-.1 0-.2 0-.2-.1-.1 0-.2-.1-.2-.2s.1-.3.2-.4.2-.3.2-.4-.1-.2-.2-.3c-.1 0-.1-.1-.2-.1s-.1-.1-.2-.1c-.1.1-.2.4-.4.4 0 0-.2-.1-.2-.1.1-.1.3-.6.5-.6.1 0 .2 0 .3.1.1 0 .1.1.1.1.1 0 .1.1.1.1.1.1.3.1.4.2.1 0 .1.1.1.1 0 .1 0 .1-.1.2-.1.2-.2.4-.3.6-.1.1.1.2.2.3s.3.2.5.2c.1 0 .2-.4.3-.5.1.1.2.2.2.2zm1.5.6c.1 0 .2 0 .3.1 0 .1 0 .3-.1.5 0 .2-.1.3-.3.3-.1 0-.2-.1-.3-.1s-.1 0-.2-.1h-.1c-.2-.1-.5-.1-.6-.3-.1-.1.1-.3.1-.5s.2-.4.2-.5-.1-.2-.3-.2h-.1c-.1 0-.1 0-.1 0-.1 0-.1 0-.2-.1-.1.1-.2.4-.3.4s-.1 0-.2-.1c0-.2.2-.7.4-.7.1 0 .4.2.6.3.1 0 .5.2.5.3s-.1.3-.1.5c-.1.2-.2.4-.2.5s.2.1.3.2c.1 0 .3.1.4.1.2-.2.2-.5.3-.6zm-4.5-2.5c.1 0 .2.1.2.2-.1.1-.2.3-.3.4s-.2.2-.3.1c-.1 0-.1-.1-.2-.1l-.1-.1s-.1 0-.1-.1c-.1-.1-.2-.3-.4-.4-.1 0-.2-.2-.2-.2 0-.1.1-.2.3-.4.1-.1.3-.2.4-.4 0 0 0-.1 0-.2 0 0 0 0 0-.1h-.1c-.2-.1-.4-.2-.4-.3-.1 0-.3.3-.5.3-.1 0-.1-.1-.1-.2.1-.1.4-.5.6-.5h.1c.1 0 .1.1.1.1.1.1.1.2.2.3l.1.1c.1 0 .1 0 .1.1.1 0 .1.1.2.2s.1.1.1.2 0 .1-.1.2l-.5.5c-.1.1 0 .2.1.3 0 .1.1.1.2.2 0 0 .1 0 .1.1l.1.1c.1-.1.2-.4.4-.4zm1.4 1c.1 0 .2 0 .2.2-.1.1-.1.3-.2.4s-.2.3-.3.2c-.2 0-.4-.2-.6-.4-.1 0-.1-.1-.1-.1-.1 0-.1-.1-.1-.1-.1-.1-.1-.1-.2-.2 0-.1.1-.3.3-.4.1-.1.3-.3.3-.4s0-.1-.1-.2c0-.1-.1-.1-.1-.1-.1-.1-.3-.2-.3-.2-.1 0-.3.3-.4.3 0 0-.1-.1-.1-.1.1-.2.4-.6.6-.6h.1.1l.2.2s.1.1.1.1c.1 0 .1.1.1.1.1.1.2.1.2.2s-.1.3-.3.5c-.1.2-.3.3-.3.5 0 0 0 .1.1.1 0 0 .1.1.2.1.1.1.3.1.4.2-.1.1 0-.2.2-.3zm-2.5-2.1c-.1.1-.2.3-.4.4-.1.1-.2.2-.4.1-.1-.1-.2-.2-.2-.2l-.2-.3c-.1-.1-.1-.2-.2-.3s-.1-.2-.1-.2c0-.1.2-.2.4-.3s.4-.2.4-.3c.1-.1 0-.2-.1-.4 0 0 0-.1-.1-.1 0 0 0-.1-.1-.1 0 0-.1-.1-.1-.1-.2 0-.4.3-.5.2 0 0-.1-.1-.1-.2.1-.1.2-.2.3-.3.1 0 .1-.1.2-.1h.2c.1.1.2.1.2.2s.1.3.1.3.1.1.2.2c0 0 .1.1.1.1s.1.1.1.1c0 .1-.2.3-.4.4-.2.2-.4.3-.4.4s.1.2.2.3.1.1.2.2c0 0 .1.1.1.1.1 0 .3-.3.5-.3 0 .1 0 .2.1.2zm-2.7-4.3c-.1 0-.3.1-.5.2-.1.1-.3.1-.4 0s-.1-.3-.2-.5c0-.2-.1-.4-.1-.5h.1s0 0-.1 0c-.1-.1 0-.2 0-.3.1-.1.3-.1.5-.2.2 0 .4 0 .5-.1s.1-.2 0-.4l-.1-.2c0-.1 0-.1 0-.2-.1 0-.4.1-.6 0v-.2c.1 0 .3-.1.4-.1h.4c.1 0 .1.1.1.3v.2.2c0 .1.1.3.1.4v.1.1s-.1.1-.2.1c-.3 0-.5.1-.7.2-.1 0-.1.2 0 .4v.1.1l.1.2c.1 0 .4-.1.5-.1.2 0 .2.1.2.2zm.7 1.6c-.1 0-.3.2-.4.3s-.3.1-.4 0c0 0-.1-.1-.1-.1l-.1-.2c0-.1-.1-.2-.1-.3 0 0 0-.1-.1-.1v-.1-.1c0-.1-.1-.2 0-.3 0-.1.2-.2.4-.2.2-.1.4-.1.5-.2 0 0 0-.1 0-.2 0 0 0 0 0-.1v-.1c0-.1-.1-.3-.2-.4-.2 0-.5.1-.6.1 0-.1 0-.1 0-.2.1-.1.7-.3.8-.2 0 0 .1.1.1.1v.2c0 .1 0 .2.1.3v.1s0 .1.1.2.1.2.1.3c-.1.1-.2.2-.5.3-.2.1-.4.1-.5.2v.1.1s0 .1.1.2c0 0 .1.1.1.2v.1.1c.1 0 .4-.2.5-.2.1-.1.2 0 .2.1zm-2-4.8c-.2 0-.3 0-.3-.1s0-.2 0-.2v-.3c0-.2 0-.4 0-.5s0-.3.1-.3c.1-.1.3 0 .5 0h.5c.1 0 .1-.2.1-.3s0-.3 0-.4c-.1-.1-.4 0-.5-.1v-.1-.1c.2 0 .7 0 .8.1v.3.4.5c0 .1 0 .1-.1.2-.1-.3-.2-.3-.3-.3h-.7c-.1 0-.2.1-.2.3v.5c.1.1.4 0 .6 0v.2c-.1.1-.3.1-.5.2zm.3 1.7c-.2 0-.3 0-.4-.1v-.1s0-.1 0-.2 0-.2 0-.4c0 0 0 0 0-.1v-.1c0-.1 0-.1 0-.2s0-.2 0-.3c.1-.1.3-.1.5-.1s.4 0 .5-.1c0 0 0 0 0-.1v-.1c0-.1 0-.2 0-.2v-.1-.1c-.1 0-.5.1-.6 0 0-.1 0-.1 0-.2.2-.1.8-.1.9 0v.3.3.3.3c-.1.1-.3.1-.5.1s-.5 0-.5.1v.2.1.1c0 .1.1.3.1.4.1 0 .4-.1.6 0 0 0 .1.1 0 .2-.2 0-.4.1-.6.1zm-.1-5.3c-.2 0-.3-.1-.2-.3 0-.1 0-.1 0-.2s0-.2.1-.3c0-.1 0-.2.1-.3v-.1-.1c0-.1.1-.2.1-.3.1 0 .3 0 .5.1s.4.1.5.1.2-.1.2-.3c0-.1 0-.3.1-.4-.1-.1-.2-.1-.3-.1s-.2 0-.2-.1c0 0 0-.2.1-.2.2 0 .6.1.7.3v.1c0 .1 0 .1-.1.2 0 .1-.1.2-.1.3v.2l-.1.2c0 .1-.1.1-.1.2 0 0-.1 0-.2 0-.3 0-.5-.1-.7-.2 0 0 0 0-.1 0s-.1 0-.1.1c0 0-.1.1-.1.2 0 .2-.1.4-.1.5.1.1.4.1.5.2v.2c-.2.1-.4.1-.5 0zm-.4 1.8c-.1-.1-.2-.1 0 0-.1-.3-.1-.5 0-.8 0-.2 0-.5.1-.6h.2.3c.2 0 .4.1.5 0 .1 0 .1-.2.2-.3 0-.1 0-.2 0-.2s0-.1 0-.2c-.1-.1-.4-.1-.5-.2 0-.1 0-.1 0-.2.2 0 .7 0 .8.2v.3.1s0 0 0 .1v.1.3.1s0 0 0 .1v.1c-.1.1-.3 0-.5 0s-.4-.1-.5 0c-.1 0-.1.2-.1.4v.4c.1.1.4 0 .5.1v.1.1c-.1 0-.3 0-.5 0-.4 0-.5 0-.5 0zm1.5-5.1c-.1-.1-.3-.1-.2-.3 0-.1.1-.3.2-.5 0 0 0-.1.1-.1 0 0 0-.1.1-.1 0-.1.1-.2.1-.2 0-.1.1-.2.2-.2s.3.1.4.2.3.3.5.3c.1 0 .2-.1.3-.2 0-.2.1-.2.1-.3s.1-.1.1-.2c-.1-.1-.4-.2-.4-.4 0 0 .1-.2.1-.2.1.1.6.3.6.5 0 .1 0 .2-.1.3 0 .1 0 .1-.1.2 0 0-.1.1-.1.1 0 .1-.1.3-.2.4 0 0-.1.1-.1.1-.1 0-.1 0-.2-.1-.3-.1-.5-.2-.7-.3-.1 0-.2.1-.3.2-.2.2-.2.3-.3.5 0 .1.4.2.5.3v.1s-.1.1-.1.1c-.2-.1-.4-.1-.5-.2zm-.7 1.6c-.2 0-.3-.1-.3-.2s0-.2.1-.3c0 0 0-.1.1-.2 0 0 0-.1.1-.2.1-.2.1-.5.3-.6.1 0 .3 0 .5.1s.4.2.5.2.2-.1.2-.3v-.1s0-.1.1-.1c0 0 0-.1.1-.2-.1 0-.5 0-.5-.2 0 0 0-.1.1-.2.2 0 .7.2.7.4 0 .1-.2.4-.3.5s-.2.5-.3.5-.3 0-.5-.1-.4-.2-.5-.2c-.1.2-.1.3-.2.5 0 .1-.1.3-.1.4.1.1.4.1.5.2 0 .1 0 .2-.1.2s-.3 0-.5-.1zm2.6-4.6c-.1-.1-.2-.2-.1-.3 0-.1.1-.1.1-.2l.1-.1s.1-.1.1-.1c.1-.1.3-.2.4-.4.1-.1.2-.1.3-.1s.2.1.4.3c.1.1.2.3.4.4h.2.1.1c.1-.1.2-.2.3-.3 0-.1-.3-.3-.3-.5.1 0 .1-.1.2-.1 0 0 .4.2.4.4v.1s-.1.1-.1.1c-.2.1-.3.2-.4.3h-.1s-.1.1-.1.1c0 .1-.1.2-.1.2-.1.1-.2.1-.2.1-.1 0-.1 0-.2-.1l-.5-.5-.1-.1-.1-.1.1.1.1.1c-.1-.1-.3 0-.4.1s-.1.1-.2.2c0 0 0 .1-.1.1v.1c0 .1.3.3.4.4 0 .1-.1.2-.2.2-.2-.2-.3-.3-.5-.4zm-1 1.5c-.2-.1-.3-.2-.3-.4.1-.2.2-.4.4-.5 0 0 .1-.1.1-.1.1 0 .1-.1.1-.1l.2-.2c.1 0 .3.1.4.3s.4.1.5.2h.2c0-.1.1-.2.1-.2.1-.1.2-.3.2-.3 0-.2-.3-.3-.3-.5 0 0 .1-.1.1-.1.2.1.7.4.6.6v.1s0 0-.1.1l-.2.2s-.1.1-.1.1c-.1 0-.1.1-.1.1-.1.2-.2.2-.2.2-.1 0-.3-.1-.5-.3-.2-.1-.4-.2-.5-.2s-.1 0-.1.1-.1.1-.1.2c-.1.1-.2.2-.3.3.1.1.3.2.4.4 0 .1-.1.2-.1.2-.1-.1-.3-.2-.4-.2zm4-3.5c-.1-.1-.2-.2-.3-.4-.1-.1-.1-.3 0-.4s.1-.1.1-.1c.1 0 .1-.1.2-.1s.2-.1.2-.1l.4-.2c.1-.1.2-.1.3-.1s.2.2.3.4.1.4.3.5c.1.1.2 0 .4 0 .1 0 .1-.1.2-.1s.1-.1.2-.1c0-.1-.2-.4-.2-.5.1 0 .2-.1.2-.1.1.2.4.5.3.7 0 .1-.1.1-.2.2-.1 0-.2.1-.3.1-.2 0-.3 0-.4.1h-.1-.1c-.1 0-.1.1-.2 0 0 .1-.1 0-.1-.1-.1-.2-.3-.4-.4-.6-.1-.1-.2 0-.4 0-.1.1-.3.3-.4.3 0 .1.2.3.2.5 0 .1-.1.1-.2.1zm-1.3 1.1c-.1-.1-.3-.2-.4-.4-.2-.1-.3-.2-.2-.3s.1-.1.2-.2l.4-.2c.1 0 .2-.1.3-.2s.1-.2.2-.2.2.2.3.4c.2.1.3.3.4.4.1 0 .2 0 .4-.1 0 0 .1 0 .1-.1 0 0 .1 0 .1-.1.1 0 .1-.1.1-.1 0-.2-.3-.4-.2-.5.1 0 .1-.1.2-.1s.2.2.3.3c0 .1.1.1.1.2s.1.1 0 .2-.1.2-.2.2c-.1.1-.3.1-.3.2-.1 0-.2.1-.3.2 0 0-.1.1-.1.1-.1 0-.1 0-.1 0-.2 0-.3-.2-.4-.4s-.3-.3-.4-.4c-.1 0-.2.1-.3.2s-.2.1-.2.2c0 0-.1.1-.1.1 0 .1.3.3.3.5-.1 0-.1.1-.2.1zm4.4-2.6c0-.1-.1-.3-.2-.5-.1-.1-.1-.3 0-.4s.3-.1.5-.2c.2 0 .4-.1.5-.1.1-.1.2 0 .3 0 .1.1.1.3.2.5s.1.4.1.5c.1.1.2.1.4 0l.2-.1h.2c0-.1-.1-.4 0-.5h.2c.1 0 .2.2.2.3 0 .2.1.3 0 .4s-.1.1-.3.1c-.1 0-.1 0-.2 0h-.2c-.1.1-.3.1-.4.1h-.1c-.1 0-.1 0-.1 0-.1-.1-.1-.1-.1-.2-.1-.3-.1-.5-.2-.7v-.1.1s-.2 0-.4 0h-.1-.1l-.2.1c0 .1.1.4.1.5-.1.2-.2.2-.3.2zm-1.5.6c-.1-.1-.2-.2-.3-.3s-.1-.3 0-.4c0 0 .1-.1.1-.1l.1-.1c.1 0 .2-.1.3-.1 0 0 .1 0 .1-.1h.1.1c.1 0 .2-.1.3 0 .1 0 .2.2.2.4.1.2.1.4.2.5h.2.1.1c.1 0 .3-.1.4-.2 0-.1-.2-.4-.1-.5h.2c.1.1.3.6.2.8 0 0-.1.1-.1.1-.1 0-.1 0-.2 0s-.2 0-.3.1h-.1s-.1 0-.2.1c-.1 0-.2.1-.3.1 0-.3 0-.4-.1-.7-.1-.2-.1-.4-.2-.5h-.1-.1s-.1 0-.2.1c-.1 0-.1.1-.2.1s-.1 0-.1 0h-.1c0 .1.2.4.2.5-.1.2-.2.2-.2.2zm5-1.4c0-.1 0-.3-.1-.5 0-.2 0-.3.1-.3h.2.3.6c.1 0 .3 0 .3.1.1.1 0 .3 0 .5v.5c0 .1.2.1.3.1h.4c.1-.1 0-.4.1-.5h.1.1c0 .2 0 .6-.1.8 0 0-.2 0-.3 0s-.3 0-.4 0h-.5c-.1 0-.1 0-.2-.1 0-.1-.1-.2 0-.2v-.8c0-.1-.2-.1-.3-.1s-.4 0-.5 0c-.1.1 0 .4-.1.5.2.1 0 .1 0 0zm-1.7.3c0-.2-.1-.3-.2-.5s-.1-.3.1-.4h.1.2.4.1.1.2.3c.1.1.1.3.1.5s0 .4.1.6h.1.1.2.2.1.1c0-.1-.1-.5 0-.5h.2c.1.2.1.7 0 .8-.1 0-.2 0-.3 0h-.3c-.1 0-.2 0-.3 0s-.3 0-.3 0c-.1-.1-.1-.3-.1-.5s0-.5-.1-.5-.1 0-.2 0h-.1-.1c-.1 0-.3.1-.4.1-.1.1.1.4 0 .5-.2-.1-.3-.1-.3-.1zm3.8 2.6c-.1 0-.1 0-.1 0s0 0 0-.1c.1-.2.2-.3.3-.5.1-.1.2-.3.3-.4s.1-.1.1-.1h.2c.1 0 .1 0 .1.1v.1s0 .1-.1.1c0 0 0 .1-.1.1v.1s-.1.1-.1.1c-.1.1-.2.3-.3.5s-.1.1-.1.1c0-.2-.1-.1-.2-.1zm-.6-.1c-.1 0-.1 0-.1 0s0 0 0-.1c.1-.2.2-.3.3-.5l.1-.2s0-.1.1-.1c0 0 0-.1.1-.1 0 0 .1-.1.1-.1s.1-.1.2-.1.1 0 .2.1v.1l-.4.5c-.1.2-.2.3-.3.5 0 .1-.1.1-.1.1-.1-.1-.2-.1-.2-.1zm1.9.3c-.1 0-.2-.1-.2-.1s0 0 0-.1c.1-.1.2-.3.4-.4.1-.1.2-.2.3-.4.2-.1.2-.1.3-.1h.2c.1 0 .1 0 .1.1 0 0 0 .1-.1.1-.1.1-.3.3-.4.4s-.1.1-.2.2-.1.1-.2.2c-.1 0-.1 0-.1.1.1 0 0 0-.1 0zm-.6-.1c-.1 0-.2 0-.2-.1s0 0 0-.1c0 0 .1-.1.1-.2v-.1s.1-.1.1-.1 0 0 0-.1l.4-.4s.1-.1.1-.1h.2c.1 0 .1 0 .1.1v.1c-.1.1-.2.3-.3.4l-.2.4c0 .1-.1.1-.1.1-.1.1-.1.1-.2.1zm1.9.4h-.1c-.1 0-.1-.1-.1-.1s0 0 0-.1c.1-.1.2-.2.4-.4.1-.1.2-.2.4-.3s.1 0 .1-.1h.1.1c.1 0 .1 0 .1.1 0 0 0 .1-.1.1l-.2.2c-.1 0-.1.1-.2.2-.2.1-.3.3-.4.4-.1 0-.1 0-.1 0zm-.6-.1c-.1 0-.2-.1-.2-.1s0 0 0-.1c.1-.1.3-.3.4-.4s.1-.1.2-.2c0 0 .1-.1.1-.1l.1-.1s.1-.1.1-.1h.1.2.1v.1s0 .1-.1.1c-.1.1-.2.2-.4.3-.1.1-.3.3-.4.4-.1 0-.1 0-.1.1s-.1.1-.1.1zm1.9.6s-.1 0-.2 0l-.1-.1s0 0 0-.1c.2-.1.3-.2.5-.3l.4-.3h.1.1c.1 0 .1.1.1.1s0 .1-.1.1c-.2.1-.3.2-.5.3l-.2.2c-.1.1-.1.1-.1.1zm-.6-.2h-.1c-.1 0-.1-.1-.1-.1s0 0 0-.1c0 0 .1-.1.1-.1s.1-.1.1-.1c.1 0 .1-.1.2-.2.3-.1.4-.3.5-.3h.1.1.1c.1 0 .1 0 .1.1 0 0 0 .1-.1.1l-.3.2c-.1 0-.1.1-.2.1-.1.1-.2.1-.2.2-.1 0-.1 0-.1 0-.2.2-.2.2-.2.2zm1.7.9c-.1 0-.1 0-.2-.1 0 0-.1-.1-.1-.1s0 0 .1-.1c.2-.1.3-.2.5-.3.1-.1.3-.1.5-.2h.1.2c.1 0 .1.1.1.1s-.1.1-.1.1h-.1c-.1 0-.3.1-.4.2-.2.1-.3.2-.5.3 0 .1 0 .1-.1.1zm-.5-.3s-.1 0-.2 0-.1-.1-.1-.1 0 0 .1-.1c.2-.1.3-.2.5-.3 0 0 .1 0 .1-.1.1 0 .1-.1.1-.1.1 0 .2-.1.2-.1h.1.2c.1 0 .1.1.1.1s0 .1-.1.1-.1.1-.2.1c0 0-.1 0-.1.1 0 0-.1 0-.1.1-.1 0-.3.1-.5.2 0 .1-.1.1-.1.1zm1.6 1.1c-.1 0-.2 0-.2-.1v-.1h.1c0-.2.2-.2.4-.3.2 0 .3-.1.5-.2h.1c.1 0 .2 0 .2.1 0 0 .1.1.1.1s0 0-.1.1c-.1 0-.3.1-.5.1s-.3.1-.5.2c-.1.1-.1.1-.1.1zm-.5-.4c-.1 0-.2 0-.2-.1v-.1h.1c.2-.1.3-.2.5-.2.2-.1.3-.1.5-.2h.1c.1 0 .1 0 .2.1 0 0 .1.1.1.1s-.1.1-.1.1c-.2.1-.3.1-.5.2-.1 0-.2.1-.3.1s-.2.1-.3.1c-.1-.1-.1-.1-.1-.1zm1 .8c-.1 0-.2 0-.3-.1v-.1h.1c.2-.1.4-.1.5-.2h.1.1c.1 0 .2 0 .3-.1h.1c.1 0 .2 0 .2.1 0 0 .1.1.1.2 0 0-.1.1-.1.1-.1 0-.1 0-.2 0h-.1-.1c-.2 0-.4 0-.7.1zm.4.5c-.1 0-.1 0-.1 0s-.1 0-.1-.1v-.1h.1c.2 0 .4-.1.6-.1s.3-.1.5-.1h.2.1s.1 0 .1.1.1.1.1.2c0 0-.1 0-.1.1-.2 0-.3.1-.5.1h-.1-.1c-.1 0-.2 0-.3.1-.3-.2-.3-.2-.4-.2zm.5.4c-.2 0-.2-.1-.3-.1v-.1h.1c.2 0 .4-.1.6-.1h.2l.4-.1h.1c.1 0 .1.1.2.1v.2s0 0-.1 0c-.2 0-.4 0-.5 0-.2.1-.4.1-.7.1zm.4.6c-.1 0-.1 0-.1 0s-.1-.1-.2-.1c0-.1 0-.1 0-.1h.1l.6-.1h.5.1.1s.1.1.2.1v.1.1s-.1.1-.1 0c-.1 0-.3 0-.5 0-.3-.1-.5-.1-.7 0zm.4.5c-.1 0-.1 0-.1 0s0 0-.1 0c0 0-.1 0-.1-.1s0-.1 0-.1 0 0 .1 0h.6.6.1.1v.2h-.1-.5c-.2 0-.4 0-.6 0zm1.4.6c-.2 0-.4 0-.5 0s-.2 0-.3 0h-.3c-.1 0-.1 0-.1 0s-.1-.1-.1-.1c0-.1 0-.1 0-.1h.1.5.5.1s.1.1.1.1v.2c.1-.1.1-.1 0-.1zm.3.7-.5-.1c-.2 0-.4 0-.6 0-.1 0-.1 0-.1 0s-.1-.1-.1-.2 0-.1 0-.1 0 0 .1 0h.6.6.1c.1 0 .1.1.1.1-.1.1-.1.2-.2.3.1 0 .1 0 0 0zm.3.6c-.2 0-.2 0-.3 0h-.3c-.2 0-.4-.1-.6-.1-.1 0-.1 0-.1 0s-.1-.1-.1-.2v-.1h.1.5.1.1.1.1.1s.1.1.1.2l.2.2c.1-.1.1 0 0 0zm.2.7h-.2c-.1 0-.3-.1-.4-.1-.2-.1-.4-.1-.6-.1-.1 0-.1 0-.1 0s0 0 0-.1 0 0 0 0c0-.1 0-.1 0-.1h.1.1.1.2c.1 0 .2 0 .3.1h.2.1s.1.1.1.2c.2 0 .2 0 .1.1zm.1.7c-.3-.1-.4-.1-.6-.2l-.2-.1c-.1 0-.2 0-.3-.1-.1 0-.1 0-.1 0s-.1-.1-.1-.2 0-.1 0-.1h.1c.1 0 .2 0 .3.1.1 0 .2 0 .3.1.2 0 .3.1.5.1h.1s.1 0 .1.1c0 0 .1.1.1.2 0 0-.1 0-.2.1zm.1.7c-.3-.1-.4-.2-.6-.2h-.1c-.1 0-.3-.1-.5-.2 0 0-.1 0-.1-.1s-.1-.1-.1-.2 0-.1 0-.1h.1c.2 0 .4.1.5.2.2.1.4.1.5.2 0 0 .1 0 .1.1s.1.1.1.2c.2 0 .2 0 .1.1.1 0 .1 0 0 0zm.1.7c-.1 0-.1 0 0 0-.2-.1-.4-.2-.5-.2h-.1c-.2-.1-.4-.2-.5-.2-.1 0-.1 0-.1-.1 0-.1-.1-.1-.1-.2s0-.1 0-.1h.1c.2.1.4.1.5.2.1 0 .1 0 .2.1.1 0 .1.1.2.1s.1 0 .1.1c0 0 .1.1.1.2l.1.1c.1-.1 0 0 0 0zm0 .7h-.1l-.3-.2s-.1-.1-.2-.1c-.2-.1-.3-.2-.5-.3-.1 0-.1-.1-.1-.1s0 0 0-.1v-.1c0-.1 0-.1 0-.1h.1c.2.1.4.1.5.2.2.1.4.2.5.3 0 0 .1.1.1.1s.1.1.1.2 0 .1-.1.2zm0 .7h-.1c-.2-.1-.3-.2-.4-.3-.1 0-.2-.1-.2-.1l-.2-.1c-.1 0-.1-.1-.1-.1 0-.1-.1-.1 0-.2 0-.1 0-.1 0-.1h.1.1l.4.2c.1.1.3.2.4.3s.1 0 .1.1v.1.1s0 0-.1.1zm-.1.7h-.1c-.1-.1-.3-.2-.4-.3-.2-.1-.3-.2-.5-.3-.1 0-.1-.1-.1-.1s0-.1 0-.2v-.1h.1c.1 0 .2.1.2.1.1 0 .1.1.2.1.2.1.3.2.5.3 0 0 .1.1.1.1s.1.1 0 .2c.1.1.1.1 0 .2zm-.1.7c-.1 0-.1 0 0 0-.2-.2-.4-.3-.5-.4s-.3-.2-.4-.3c-.1 0-.1-.1-.1-.1s0-.1 0-.2 0-.1.1-.1h.1c.2.1.3.2.5.3.1.1.3.2.4.3s.1.1.1.1v.2c-.1.1-.1.1-.2.2zm-.2.7s-.1 0-.1-.1c-.1-.1-.1-.1-.2-.2-.1 0-.1-.1-.2-.2s-.3-.3-.4-.4-.1-.1-.1-.1 0-.1 0-.2 0-.1.1-.1h.1c.1.1.3.2.4.3l.4.4s.1.1.1.1v.2c0 .2 0 .2-.1.3zm-.2.6s0 0-.1-.1-.2-.3-.4-.4l-.4-.4s0-.1-.1-.1 0-.1 0-.2.1-.1.1-.1h.1c.1.1.3.2.4.4l.4.4s0 .1.1.1v.2c0 .1 0 .2-.1.2zm-.2.7s-.1 0-.1-.1l-.3-.4c-.1-.1-.1-.1-.2-.2s-.1-.1-.2-.2c0-.1-.1-.1-.1-.1s0-.1 0-.2v-.1h.1l.4.4c.1.1.2.3.4.4 0 0 0 .1.1.1v.2c0 .1 0 .2-.1.2zm-.3.6c-.2-.2-.3-.3-.4-.5l-.4-.4c0-.1 0-.1 0-.1s0-.1 0-.2.1-.1.1-.1h.1l.4.4.3.4v.1.2c0 .2 0 .2-.1.2zm-.4.7-.4-.6c-.1-.1-.2-.3-.3-.5 0-.1 0-.1 0-.1s0-.1 0-.2c0 0 .1-.1.1-.1h.1c.1.2.2.3.3.5.1.1.2.3.3.4v.1.2c0 .2 0 .2-.1.3zm-.3.6c-.2-.2-.2-.4-.3-.5 0-.1-.1-.1-.1-.1s0-.1-.1-.1c0-.1-.1-.2-.1-.2 0-.1 0-.1 0-.1v-.1s.1-.1.1-.1h.1v.1s.1.1.1.2v.1s.1.1.1.1c.1.1.2.3.3.4v.1.1.1c0-.1-.1-.1-.1 0zm-.4.5c-.2-.2-.2-.4-.3-.5 0-.1-.1-.2-.1-.3l-.1-.1-.1-.1c0-.1 0-.1 0-.1s0-.1.1-.2c0 0 .1-.1.1-.1s0 0 .1.1c0 .1.1.2.1.2 0 .1.1.2.1.2.1.2.2.3.3.5v.1.1.2c-.1 0-.1 0-.2 0zm-.5.6s-.1-.1 0 0l-.1-.2v-.1-.1-.1c-.1-.2-.2-.4-.2-.5s0-.1 0-.1c0-.1 0-.1.1-.2h.1s0 0 0 .1c.1.2.2.3.3.5 0 .1.1.1.1.2v.1.1.1c0 .1 0 .2-.1.2-.1-.1-.1 0-.2 0zm-.5.5s0 0-.1-.1c-.1-.2-.1-.3-.2-.5s-.1-.4-.2-.5c0-.1 0-.1 0-.1s0 0 0-.1c0 0 0-.1.1-.1h.1s0 0 0 .1c.1.2.1.3.2.5s.1.4.2.5v.1.1.1s0 0-.1 0zm-.5.5s-.1-.1-.1-.1c0-.2-.1-.4-.1-.5s0-.2-.1-.3c0 0-.1-.2-.1-.3s0-.1 0-.1 0-.1.1-.2h.1s0 0 0 .1v.1.1c0 .1.1.2.1.3s.1.3.2.5v.1c0 .1 0 .1-.1.2.1.1.1.1 0 .1zm-.5.5s-.1-.1-.1-.1c0-.2-.1-.3-.1-.5s-.1-.4-.1-.5 0-.1 0-.1 0-.1.1-.2h.1v.1c0 .2.1.4.2.5 0 .2.1.4.1.5v.1s0 .1-.1.2c0 0 0 0-.1 0zm-.6.4v-.1c0-.1 0-.2 0-.3s0-.2 0-.3c0-.2-.1-.4-.1-.5v-.1s0-.1.1-.2h.1v.1c0 .2.1.4.1.5v.2.2.3s0 .1-.1.2c0 0 0 0-.1 0zm-1.2.8c-.1 0-.1-.1-.1-.1v-.5c0-.2 0-.4 0-.6 0-.1 0-.1 0-.1s.1-.1.1-.1h.1v.1.5.5.1s-.1.1-.1.2c.1 0 .1 0 0 0zm.6-.4v-.1c0-.2 0-.4 0-.5 0-.1 0-.2 0-.3s0-.2 0-.3v-.2s0 0 0-.1h.1v.1.3.3c0 .2 0 .4.1.5v.1.1s0 .1-.1.1c0 0 0 0-.1 0zm-1.8 1c-.1 0-.1-.1-.1-.1 0-.1 0-.2 0-.3v-.1-.1c0-.2 0-.4 0-.6 0-.1 0-.1 0-.1s0 0 0-.1c0 0 .1 0 .1-.1h.1v.1.6.3.3.1.1c.1-.2 0-.1-.1 0zm.6-.3c-.1 0-.1-.1-.1-.1 0-.1 0-.2 0-.3v-.8c0-.1 0-.1 0-.1s.1-.1.1-.1h.1v.1.5.5.1c0 .1-.1.1-.1.2zm-2 .8c-.1 0-.1-.1-.1-.2 0-.2.1-.3.1-.5 0-.1 0-.2 0-.3s0-.2 0-.3c0-.1 0-.1 0-.1 0-.1.1-.1.2-.1h.1v.1.3.2c0 .1 0 .3-.1.5v.1c0 .2-.1.2-.2.3 0-.1 0 0 0 0zm.7-.3c-.1 0-.1 0 0 0-.1 0-.1-.1-.1-.2 0-.2.1-.3.1-.5s0-.3.1-.5c0-.1 0-.1 0-.1s.1-.1.2-.1h.1.1v.1.5l-.1.6v.1c0 .1-.1.1-.2.1-.2 0-.2 0-.2 0zm-2.1.5h-.1v-.1c0-.1.1-.3.2-.4.1-.2.1-.4.2-.5 0-.1 0-.1.1-.1h.1.1.1v.1c0 .2-.1.4-.1.5v.2.1.1s0 .1-.1.1c-.3 0-.4.1-.5 0zm.7-.1c-.1 0-.1 0 0 0-.1 0-.1-.1-.1-.2l.1-.2c0-.1 0-.1 0-.2.1-.2.1-.4.1-.5s0-.1 0-.1.1-.1.2-.1h.1v.1c0 .2-.1.4-.1.5s0 .2-.1.3c0 .1 0 .2-.1.3 0 0 0 .1-.1.1.2 0 .1 0 0 0zm-2.1.3c-.1 0-.1 0-.2 0v-.1c.1-.1.1-.3.2-.5.1-.1.2-.3.2-.5 0-.1 0-.1.1-.1.1 0 .1-.1.2-.1v.1l.1.2v.1c0 .1-.1.1-.1.2-.1.1-.1.3-.2.5s-.1.1-.1.1-.1.1-.2.1zm.7-.1h-.1v-.1-.1c0-.1.1-.3.2-.4v-.1-.1c0-.1.1-.2.1-.3s0-.1.1-.1c.1 0 .1-.1.2-.1h.1v.1c-.1.2-.1.4-.2.5-.1.2-.1.4-.2.5 0 0 0 .1-.1.1 0 0 0 0-.1 0 .1.1.1.1 0 .1zm-2.2 0c-.1 0-.1 0-.2-.1 0 0 0-.1.1-.1.1-.1.2-.3.3-.4s.2-.3.3-.5c.1-.1.1-.1.1-.1h.2.1s0 0 0 .1c-.1.1-.2.3-.3.5-.1.1-.1.1-.1.2l-.1.3s-.1.1-.1.1c-.1 0-.2 0-.3 0zm.8.1c-.1 0-.1 0-.2 0v-.1c.1-.1.2-.3.3-.5s.2-.4.3-.5c0 0 .1-.1.1-.1.1 0 .1-.1.2-.1h.1v.1c-.1.2-.2.3-.2.5v.1s0 .1-.1.2c0 .1-.1.2-.1.2s-.1.1-.1.1c-.2 0-.3.1-.3.1zm-2.2-.3c-.1 0-.1 0-.2-.1v-.1c.1-.1.2-.3.3-.4s.2-.3.3-.4.1-.1.1-.1h.1.1c.1 0 .1 0 .1.1v.1s-.1.1-.1.2l-.1.1c0 .1-.1.1-.2.2s-.2.3-.3.4h-.1s-.1.1-.1.1c.3-.1.2-.1.1-.1.1 0 .1 0 0 0zm.7.1c-.1 0-.1 0-.2-.1 0 0 0-.1.1-.1l.1-.1c.1-.1.2-.2.2-.3.1-.1.2-.3.3-.5 0-.1.1-.1.1-.1h.1.1.1v.1c-.1.2-.2.3-.3.5s-.2.3-.3.5c0 0-.1.1-.1.1s-.1 0-.2 0zm-2-.5c-.1 0-.2 0-.2-.1 0 0 0-.1.1-.1l.1-.1.1-.1c.1-.1.1-.1.2-.2s.2-.2.4-.4h.1.1.1s.1 0 .1.1c0 0 0 0-.1.1-.1.2-.3.3-.4.4l-.2.2-.2.2c-.1 0-.1 0-.2 0zm.6.2c-.1 0-.2-.1-.2-.1s0-.1.1-.1l.4-.4.2-.2c.1-.1.1-.1.2-.2s.1-.1.1-.1h.1.1.1v.1c-.1.1-.2.2-.2.3-.1 0-.1.1-.1.1-.1.1-.3.3-.4.4 0 0-.1.1-.1.1-.2.1-.2.1-.3.1zm-1.9-.7h-.1c-.1 0-.1 0-.1-.1 0 0 .1-.1.1-.1l.4-.3c.2-.1.3-.2.5-.3h.1.1.2c.1 0 .1.1.1.1s0 0-.1.1-.3.2-.4.4c-.1.1-.3.2-.4.3h-.1-.1c-.2-.1-.2-.1-.2-.1zm.6.3c-.1 0-.1 0 0 0-.2 0-.2-.1-.2-.1s0-.1.1-.1c.1-.1.3-.2.4-.3.2-.1.3-.3.4-.4.1 0 .1 0 .1-.1h.1.1c.1 0 .1.1.1.1s0 0-.1.1-.3.3-.4.4-.3.3-.4.4c-.1-.1-.1-.1-.2 0zm-1.8-1s-.1 0-.2 0-.1-.1-.1-.1.1-.1.1-.1h.1.1c.1 0 .1 0 .1-.1.1 0 .1 0 .1-.1.1-.1.3-.2.5-.3h.1.1.2c.1 0 .1.1.1.1s0 0-.1.1c-.2.1-.3.2-.5.3l-.2.1s-.1.1-.1.1-.1 0-.1.1c-.1-.1-.2-.1-.2-.1zm.5.3c-.1 0-.1 0-.1 0-.1 0-.1-.1-.1-.1s.1-.1.1-.1c.1-.1.3-.2.5-.3s.3-.2.5-.3h.1.2l.1.1s0 0-.1.1-.3.2-.4.3c-.2.1-.3.2-.5.3-.1.1-.1.1-.3 0 .1 0 .1 0 0 0zm-1.7-1.1c-.1 0-.2 0-.2-.1 0 0-.1-.1-.1-.1s.1-.1.1-.1c.2 0 .3-.1.5-.2.1 0 .2-.1.3-.1s.2-.1.3-.1h.1c.1 0 .1 0 .2.1.1 0 .1.1.1.1s0 0-.1 0c-.1.1-.2.1-.3.1l-.3.1c-.1 0-.2.1-.3.1h-.1l-.2.2c.1-.1.1 0 0 0zm.6.4c-.1 0-.2 0-.2 0-.1 0-.1-.1-.1-.1s.1-.1.1-.1c.2-.1.3-.1.5-.2.1-.1.3-.2.5-.2h.1c.1 0 .1 0 .2.1.1 0 .1.1.1.1s0 0-.1.1c-.2.1-.3.2-.5.3s-.4.2-.5.3c0-.3-.1-.3-.1-.3zm-1.6-1.4c-.1 0-.2 0-.2-.1-.1 0-.1-.1-.1-.2 0 0 .1-.1.1-.1.2 0 .3-.1.5-.1s.4-.1.6-.1h.2c.1 0 .1 0 .2.1 0 0 .1.1.1.1s0 0-.1 0c-.2.1-.4.1-.5.2-.2.1-.3.1-.5.1h-.1-.2zm.5.5c-.1 0-.2 0-.2-.1l-.1-.1s0 0 0-.1c0 0 0 0 .1-.1.2 0 .3-.1.5-.1.2-.1.4-.1.5-.2h.1.1s.1 0 .2.1c0 0 .1.1.1.1s0 0-.1 0c-.2.2-.4.2-.6.3-.1 0-.2.1-.3.1h-.1zm-1-1c-.1 0-.1 0-.2 0 0 0-.1 0-.1-.1-.1-.1-.1-.1-.1-.2 0 0 .1 0 .1-.1.2 0 .3 0 .5-.1.2 0 .4-.1.6-.1h.2.1s.1 0 .1.1c.1 0 .1.1 0 .1 0 0 0 0-.1 0-.2 0-.4.1-.6.1 0 .2-.2.2-.5.3zm-.4-.6c-.2 0-.2-.1-.3-.1-.1-.1-.1-.1-.1-.2h.1.5.3.2.2c.1 0 .1.1.2.1.1.1.1.1.1.2 0 0 0 0-.1 0s-.1 0-.2 0h-.1c-.1 0-.2 0-.2 0zm-.4-.5h-.1s-.1-.1-.2-.1c-.1-.1-.1-.1-.1-.2h.1.5.6.1s.1.1.2.1v.1s0 0-.1 0c-.2 0-.4 0-.6.1h-.3c.1-.1 0 0-.1 0zm-.3-.6c-.1 0-.1 0-.1 0h-.1s-.1 0-.1-.1-.1-.1 0-.2h.1.5.6.1.1s.1.1.1.1v.1s0 0-.1 0c-.2 0-.4 0-.6 0-.1 0-.2.1-.5.1zm.2-.6c-.2 0-.4 0-.6 0-.1 0-.1 0-.1 0s-.1-.1-.1-.1c0-.1-.1-.1 0-.2h.1.5.6.1s.1.1.1.1v.1h-.1l-.5.1c0-.1 0 0 0 0zm.3-.6c-.2 0-.3 0-.6 0-.2 0-.3 0-.5 0h-.1c-.1 0-.1-.1-.1-.1-.2-.2-.2-.3-.2-.3h.1.6.6.1s.1.1.1.2c.1.1.1.2 0 .2zm-.2-.6c-.2 0-.4 0-.6 0-.2 0-.4 0-.6-.1h-.1c-.1 0-.1-.1-.1-.2 0 0 0 0 0-.1 0 0 0 0 0-.1h.1.1.2.3c.2 0 .4.1.6.1h.1zm-.2-.6c-.2 0-.4 0-.6-.1-.2 0-.3-.1-.5-.1h-.1c-.1 0-.1-.1-.1-.2s0-.1 0-.2h.1.1l.5.1c.2 0 .3.1.6.1h.1c-.1.2-.1.2-.1.3.1.1 0 .1 0 .1zm-.2-.6c-.2 0-.4-.1-.6-.1s-.4-.1-.6-.2c-.1 0-.1 0-.1-.1s-.1-.1-.1-.2 0-.1 0-.2h.1.1c.1.2.3.2.4.3l.2.1c.1 0 .2 0 .3.1.1 0 .1 0 .1.1.1 0 .2 0 .2.2 0 .1 0 .1 0 0zm-.2-.6c-.2 0-.4-.1-.6-.2-.1 0-.3-.1-.5-.2s-.1 0-.1-.1c-.1-.1-.1-.1-.1-.2s0-.1 0-.2h.1.1.1c.1 0 .2.1.3.1.2.1.3.1.5.2 0 0 .1 0 .1.1.2.3.2.4.1.5.1 0 .1 0 0 0zm-.1-.6c-.3-.1-.4-.2-.6-.2l-.2-.2c-.1 0-.2-.1-.3-.1 0 0-.1 0-.1-.1 0 0-.1-.1-.1-.2v-.1s0 0 .1-.1h.1c.2.1.3.2.5.2.1.3.3.3.5.4.1 0 .1 0 .1.1.1 0 .1.1 0 .3.1-.1.1 0 0 0 .1 0 .1 0 0 0zm0-.6c-.3-.1-.4-.2-.6-.2-.2-.1-.3-.1-.5-.2h-.1s-.1-.1-.1-.1-.1-.1-.1-.2 0-.1 0-.2h.1l.4.1h.1l.1.1c.2.1.4.2.5.3.1 0 .1 0 .1.1s0 0 .1.1v.2c0-.1 0 0 0 0zm0-.7c-.1 0-.1 0 0 0-.2-.1-.3-.1-.4-.1h-.1c-.1 0-.1 0-.2-.1s-.3-.2-.5-.3c0 0-.1-.1-.1-.1s0 0-.1-.1v-.1c0-.1 0-.1.1-.2h.1c.2.1.3.2.4.3l.3.1.1.1.2.1c.1 0 .1.1.1.1.1.1.1.2.1.3zm0-.6-.2-.1-.1-.1c-.1 0-.1 0-.1-.1-.1 0-.1 0-.1-.1-.2-.1-.3-.2-.4-.3h-.1s-.1-.1-.1-.1-.1-.1-.1-.2 0-.1.1-.2h.1c.1.1.3.2.4.3s.3.2.5.3c.1 0 .1.1.1.1v.2c.1.2.1.2 0 .3zm0-.6c-.2-.1-.4-.2-.5-.3h-.1c-.1 0-.1-.1-.2-.1s-.1-.1-.2-.2l-.1-.1c0-.1 0-.2 0-.2 0-.1 0-.1.1-.1h.1c.1 0 .3.1.4.2.2.1.3.2.5.3.1 0 .1.1.1.1 0 .1 0 .2-.1.4.1-.1 0 0 0 0zm.1-.6c-.2-.2-.4-.3-.5-.4-.1 0-.1-.1-.2-.2-.1 0-.1-.1-.2-.2h-.1s-.1-.1-.1-.1-.1-.1 0-.2 0 0 .1-.1c0 0 .1 0 .1.1l.2.2.1.1s.1 0 .1.1c.2.1.3.3.4.4 0 0 .1.1.1.1.1-.1.2 0 0 .2.1-.1.1-.1 0 0zm.2-.7c-.1 0-.1 0 0 0-.1-.1-.2-.2-.3-.2l-.1-.1s-.1-.1-.1-.1c-.1-.1-.3-.3-.4-.4 0 0-.1-.1-.1-.1 0-.1 0-.2 0-.2 0-.1.1-.1.1-.1s.1 0 .1.1c.1.1.2.3.4.4l.4.4c.1.1.1.1.1.1v.1zm.1-.6c-.1-.1-.2-.2-.3-.2l-.1-.1-.1-.1c-.1-.1-.2-.2-.3-.4h-.1s-.1-.1-.1-.1 0-.1 0-.2 0-.1.1-.1c0 0 .1 0 .1.1.1.1.2.3.3.4 0 0 .1.1.1.1l.1.1.2.2v.1.2zm.2-.6c-.2-.2-.3-.3-.4-.5-.1-.1-.1-.1-.2-.2l-.1-.1c-.1 0-.1-.1-.1-.1s0-.1-.1-.1c0 0 0-.1 0-.2s.1-.1.1-.1.1 0 .1.1c.1.1.2.3.3.4.2.1.3.3.5.4 0 .1 0 .1.1.1-.1.1 0 .2-.2.3.1 0 .1 0 0 0zm.3-.5c-.1 0-.1-.1 0 0-.2-.2-.3-.3-.4-.5-.1-.1-.2-.3-.3-.4s0-.1-.1-.1c0 0 0-.1 0-.2s.1-.1.1-.1.1 0 .1.1l.2.1.1.2c.1.1.2.3.3.5.1.1.1.1.1.1 0 .1 0 .2-.1.3 0-.1 0 0 0 0zm.3-.6c-.1 0-.1 0 0 0-.1-.1-.2-.2-.2-.3l-.1-.1-.1-.1c-.1-.2-.2-.3-.3-.5v-.1-.1-.1c0-.1 0-.1.1-.1 0 0 0 0 .1.1s.1.3.2.5l.1.1.1.1c.1.1.1.2.1.2s0 .1 0 .1v.1c.1.1.1.1 0 .2 0-.1 0-.1 0 0zm.3-.6-.1-.2-.1-.1c-.1-.1-.1-.2-.1-.2-.1-.1-.2-.3-.2-.5v-.1c0-.1 0-.1.1-.2 0-.1.1-.1.1-.1s.1 0 .1.1c.1.2.1.3.2.5-.1.1 0 .2.1.4v.1c0 .1 0 .2-.1.3zm.3-.5-.1-.1-.2-.5c-.1-.1-.2-.3-.3-.5v-.1c0-.1 0-.2.1-.2l.1-.1h.1v.1c0 .1.1.3.2.5s.1.3.2.5v.1c0 .1 0 .1-.1.2.1.1.1.1 0 .1zm.4-.5c-.1-.2-.2-.4-.3-.6 0-.1-.1-.3-.2-.4v-.1c0-.1 0-.1.1-.2 0 0 .1-.1.1-.1s.1 0 .1.1c.1.2.1.3.2.5s.1.4.2.5v.1.1s-.1 0-.2.1zm.4-.5c0-.1-.1-.2-.1-.3 0 0 0-.1-.1-.1v-.1l-.2-.6v-.1s0-.1.1-.2c.1 0 .1-.1.1-.1.1 0 .1 0 .1.1.1.2.1.4.2.5l.1.2s0 .1.1.1v.1.1c0 .1 0 .1-.1.2-.1.2-.2.2-.2.2zm.5-.4c-.1-.3-.2-.5-.3-.6 0-.2-.1-.3-.1-.5v-.2c0-.1 0-.1.1-.2 0 0 .1-.1.2-.1 0 0 .1.1.1.1 0 .2.1.3.1.5s0 .4.1.6v.1c0 .1-.1.2-.2.3zm.5-.5c-.1-.2-.2-.4-.2-.6s-.1-.4-.1-.5v-.2s0-.1.1-.2h.2s.1.1.1.1v.3.2.1c0 .2.1.4.1.5v.2s-.1.1-.2.1zm.5-.4-.1-.1c0-.1 0-.3-.1-.5v-.5-.1s0 0 .1-.1c0 0 0-.1.1-.1h.1v.1c0 .2 0 .3.1.5 0 .2 0 .4.1.5v.2s-.1.1-.1.2c-.1-.1-.2-.1-.2-.1zm1.1-.6c-.1 0-.1-.1 0 0-.1-.3-.1-.5-.1-.6v-.7-.1c.1-.1.1-.1.1-.2h.1.1v.1.5.7.1s0 .1-.2.2c0-.1 0 0 0 0zm-.6.3-.1-.4v-.1s0-.1 0-.2c0-.2 0-.4 0-.6v-.1s.1-.1.1-.2h.1v.1.5.6.1c.1.1.1.2-.1.3.1-.1.1 0 0 0zm1.7-.9c-.1 0-.1 0-.1-.1 0-.2 0-.4.1-.5 0-.1 0-.3 0-.5v-.1s0 0 .1-.1c0 0 .1 0 .1-.1h.1.1v.1c0 .2-.1.3-.1.5v.1.1.3c0 .1 0 .1-.1.1s0 0-.1.1c0 .1 0 .1-.1.1zm-.5.2c-.1 0-.1 0 0 0-.1 0-.1-.1-.1-.1v-.5c0-.2 0-.3 0-.5v-.1c0-.1.1-.1.1-.2h.1.1v.1.3s0 .2 0 .3v.6.1s0 0-.1.1c0-.1-.1-.1-.1-.1zm1.8-.6c-.1 0-.1-.1 0 0-.1-.1-.1-.1-.1-.2 0-.2.1-.4.1-.5s0-.2 0-.2l.1-.2s0-.1.1-.1c0 0 .1-.1.2-.1h.1.1v.1c0 .1-.1.1-.1.2v.1l-.1.2c-.1.2-.1.3-.1.5v.1c-.1.1-.2.1-.3.1zm-.6.1c-.1 0-.1 0 0 0v-.5c0-.2.1-.4.1-.5v-.1c0-.1.1-.1.2-.1h.1.1v.1c-.1.2-.1.3-.1.5 0 .1-.1.2-.1.3v.1.2c0 .1 0 .1-.1.1 0-.1-.1-.1-.2-.1zm1.9-.4c-.1 0-.1-.1 0 0l-.1-.1c.1-.1.1-.3.2-.5s.1-.3.2-.5 0-.1.1-.1l.1-.1h.1.1v.1c-.1.1-.1.3-.2.5 0 .1-.1.2-.1.3l-.1.3c0 .1 0 .1-.1.1-.1-.1-.1-.1-.2 0zm-.6.1c-.1 0-.1 0 0 0l-.1-.1c0-.2.1-.4.1-.5.1-.2.1-.4.2-.5 0 0 0-.1.1-.1.1-.1.1-.1.2-.1h.1.1v.1s0 .1-.1.1v.1.1l-.1.1c-.1.2-.1.4-.2.5s-.1.1-.1.2 0 0-.1 0c-.1.1-.1.1-.1.1zm1.9-.2c-.1 0-.1 0-.1 0s0 0 0-.1c.1-.2.2-.3.2-.5.1-.1.1-.3.2-.5s.1-.1.1-.1.1-.1.2-.1h.2v.1c-.1.1-.2.3-.3.5s-.2.3-.3.5c.1.1.1.1.1.1-.1 0-.2.1-.3.1zm-.7 0c-.1 0-.1 0-.1 0s0 0 0-.1c.1-.1.1-.2.1-.3 0-.1.1-.1.1-.2.1-.2.2-.4.2-.5 0 0 0-.1.1-.1 0 0 .1-.1.2-.1h.2v.1c-.1.1-.2.3-.2.5-.1.2-.2.3-.2.5-.1.1-.1.1-.1.1-.1.1-.2.1-.3.1zm-5.1 16.4v-.3h.5c.5 0 .9-.2 1.2-.5.1-.2.2-.7.2-1.4v-8.1c0-.8-.1-1.3-.3-1.5-.2-.3-.6-.4-1.1-.4h-.6v-.3h5.3c1.9 0 3.4.2 4.4.6s1.8 1.1 2.4 2.1.9 2.1.9 3.4c0 1.7-.5 3.2-1.6 4.3-1.2 1.3-3.1 1.9-5.6 1.9 0 .1-5.7.1-5.7.2zm3.7-1c.8.2 1.5.3 2 .3 1.5 0 2.7-.5 3.7-1.5s1.5-2.4 1.5-4.1-.5-3.1-1.5-4.1-2.2-1.5-3.7-1.5c-.6 0-1.2.1-1.9.3v10.6z" fill="#fff"/></svg>