<svg xmlns="http://www.w3.org/2000/svg" width="1785" height="2000" viewBox="0 0 1785 2000"><g fill="#666" transform="translate(-108)"><path d="M1000.5,0c110,0,199.15,89.19,199.15,199.2V1800.8c0,110-89.16,199.2-199.15,199.2s-199.15-89.19-199.15-199.2V199.2C801.35,89.19,890.51,0,1000.5,0Zm0,63.75A135.44,135.44,0,0,0,865.08,199.2V1800.8a135.42,135.42,0,1,0,270.84,0V199.2A135.44,135.44,0,0,0,1000.5,63.75Z"/><path d="m1866.29 1500c-55 95.28-176.79 127.92-272 72.91l-1386.68-800.79c-95.25-55-127.89-176.84-72.89-272.12s176.79-127.92 272-72.91l1386.64 800.8c95.28 55 127.92 176.83 72.93 272.11m-55.19-31.87a135.48 135.48 0 0 0 -49.57 -185l-1386.64-800.84a135.45 135.45 0 0 0 -135.42 234.62l1386.64 800.8a135.4 135.4 0 0 0 184.99 -49.58"/><path d="m1866.29 500c55 95.28 22.36 217.11-72.89 272.12l-1386.64 800.79c-95.25 55-217 22.36-272-72.91s-22.36-217.11 72.89-272.12l1386.64-800.8c95.21-55 217-22.36 272 72.92m-55.19 31.87a135.4 135.4 0 0 0 -185 -49.58l-1386.63 800.8a135.45 135.45 0 0 0 135.42 234.62l1386.64-800.8a135.48 135.48 0 0 0 49.57 -185.04"/></g></svg>