<svg enable-background="new 0 0 32 32" viewBox="0 0 32 32" xmlns="http://www.w3.org/2000/svg"><circle cx="16" cy="16" fill="#3c80f1" r="16"/><g fill="#fff"><path d="m16.1 4c-5.5 0-9.9 4.4-9.9 9.9 0 .5.1 1.1.2 1.6 0 .1.1.1.2.1h.1c.4-.3.8-.4 1.3-.4 0 0 0-.1 0-.2-.1-.4-.1-.7-.1-1.1 0-4.5 3.6-8.1 8.1-8.1s8.1 3.6 8.1 8.1-5.7 10.2-7.8 12.3c-.2.2-.5.2-.7 0-.9-.8-1.7-1.7-2.5-2.6-.8-.1-1.6-.3-2.3-.5l-.1-.1c-.1 0-.2 0-.2.1v.2c1.3 1.5 2.6 3 4 4.4.8.8 2.1.8 2.9 0 3.8-3.7 8.6-9 8.6-13.8 0-5.5-4.4-9.9-9.9-9.9"/><path d="m20.2 14.9v.4c0 .5-.2 1-.4 1.5s-.5.9-.9 1.3c-.7.8-1.5 1.4-2.5 1.8-.9.4-2 .6-3 .5s-1.9-.5-2.7-1c.3 0 .5 0 .8-.1l.6-.3c.4-.3.8-.6 1-1.1.1-.2.1-.4.2-.7 0-.2 0-.4 0-.6v-6.5c0-.2.2-.3.3-.3h2.1c.5 0 1 .2 1.5.4 1 .5 1.8 1.2 2.3 2.1.1.2.2.5.3.7s.2.5.2.7.1.5.1.8zm1.8-.5c0-.4-.1-.7-.1-1.1-.1-.7-.4-1.4-.8-2-.7-1.2-1.8-2.2-3.1-2.8-.7-.3-1.4-.5-2.1-.6-.1 0-.2 0-.3 0h-2c-.1 0-.1 0-.2 0-.3 0-.5.1-.7.2-.7.3-1.1 1-1.1 1.7v6.6.3c0 .1 0 .2-.1.2 0 .1-.1.1-.1.2-.1.1-.2.2-.3.2-.2 0-.4.1-.6 0-.7-.1-1.4-.4-1.9-.9-.4-.3-.9-.3-1.2 0s-.3.7-.1 1c.4 1.6 1.3 2.6 2.3 3.4.5.4 1.1.7 1.7 1 .6.2 1.3.4 1.9.5 1.3.1 2.6-.1 3.9-.6 1.2-.5 2.3-1.3 3.1-2.3.5-.5.9-1.1 1.1-1.8.3-.7.4-1.4.5-2.1 0-.2 0-.3 0-.5v-.3c.2-.1.2-.2.2-.3z"/></g></svg>