<svg xmlns="http://www.w3.org/2000/svg" viewBox="0 0 280.6 280.7" enable-background="new 0 0 280.6 280.7"><path d="m118.2 1.7c19.3-2.9 39.3-2.1 58.1 3 22.8 6 43.9 17.8 61 34 22.9 22.3 38.9 52.3 41.9 84.3-16.5-1.9-33.2-3.4-49.8-3.3-25.8-.5-51.5 4-76.4 10.6-38.7 10.4-74.9 28.5-108 50.9-.2-39 .2-78.1-.2-117.1-4.3 4.5-7.4 9.9-10.6 15.2-20.1 33.9-21.6 77.8-4.6 113.2-4.7 3.8-9.5 7.3-14.4 10.9-11-20.2-15.6-43.7-15.2-66.8.6-31.5 12.4-62.6 32.8-86.6 21.4-25.7 52.4-43.2 85.4-48.3m-28.5 58.3c-.2 1.8-.4 3.7-.4 5.6.1 23.6 0 47.2 0 70.8 25.6-8.8 52.1-15.2 79.1-17.5 4.9-.7 9.9-.8 14.9-1.7-.6-12.7-3-25.8-10-36.6-5.6-8.9-15-14.9-25.1-17.6-8.3-2.6-17.1-3.1-25.8-3.1-10.8.1-21.7.1-32.7.1z" fill="#051826"/><path d="m200.8 126.5c9.5-1.9 19.4-1.9 29-3.4 2.1 4.5.6 9.6.4 14.4-.9 27.9-10.3 56.6-30 76.9-14.7 15.4-35.6 24-56.6 25.7-24.1.4-48.2-.3-72.3.3 3.5 3.7 8.4 5.7 12.7 8.2 10.3 5.3 21.2 9.4 32.5 11.6 11.7 1.5 23.5 3 35.2 1.6 5.5-1 11.1-1 16.4-2.6 18.2-4.4 35.4-13.1 49.9-25 17.1-14.1 30.1-33.1 37.6-54 2.5-8 5-16.1 5.4-24.5 1-5.1 1.2-10.2 1.2-15.4 6.1-.1 12.3-.3 18.4.1.3 28.3-8.7 56.5-24.7 79.8-19.1 27.9-48.7 48.2-81.5 56.3-41.6 10.8-88.1 1.1-121.6-26.1-10.2-7.4-18.4-17.1-26.2-26.9 13.1-11.8 26.4-23.5 40.5-34.1 7.4-5.4 14.5-11.3 22.5-15.7.5 8.7-1.2 17.4-.5 26.1.2 1.2.5 3.6 2.3 3.3 12.3 0 24.6.1 37 0 12.9-.1 26.3-3.5 36-12.3 9.5-8.8 14.8-21.3 16.9-33.9 2.2-8.6 1.8-17.6 1.9-26.4 5.7-2.3 11.7-2.9 17.6-4" fill="#fc0102"/></svg>