<svg viewBox="0 0 320 320" xmlns="http://www.w3.org/2000/svg"><circle fill="#7FFFD4" cx="160" cy="160" r="160"/><path fill="white" d="M98.26 224.53L98.26 98.53L157.84 98.53L157.84 98.53Q178.54 98.53 194.56 106.27L194.56 106.27L194.56 106.27Q210.58 114.01 219.40 128.23L219.40 128.23L219.40 128.23Q228.22 142.45 228.22 161.53L228.22 161.53L228.22 161.53Q228.22 180.61 219.40 194.83L219.40 194.83L219.40 194.83Q210.58 209.05 194.56 216.79L194.56 216.79L194.56 216.79Q178.54 224.53 157.84 224.53L157.84 224.53L98.26 224.53ZM133.90 196.09L156.40 196.09L156.40 196.09Q172.60 196.09 182.41 186.91L182.41 186.91L182.41 186.91Q192.22 177.73 192.22 161.53L192.22 161.53L192.22 161.53Q192.22 145.33 182.41 136.15L182.41 136.15L182.41 136.15Q172.60 126.97 156.40 126.97L156.40 126.97L133.90 126.97L133.90 196.09Z"/></svg>