<svg xmlns="http://www.w3.org/2000/svg" viewBox="0 0 226.78 226.78" width="2500" height="2500"><defs><style>.cls-1,.cls-2{fill:#006ad2}.cls-1{stroke:#003569;stroke-width:7px}.cls-1,.cls-4{stroke-miterlimit:10}.cls-3{fill:#fff}.cls-4{fill:none;stroke:#fff;stroke-width:2px}</style></defs><title>dgb</title><g id="Laag_2" data-name="Laag 2"><circle class="cls-1" cx="113.64" cy="113.39" r="90"/><path class="cls-2" d="M55.28 56.11h116.74v116.74H55.28z"/><path class="cls-3" d="M132.22 81.26l2.38-22.09-8.53-.92-2.31 21.39-6.86-1.27L119.2 57l-8.53-.92-2.23 20.71c-14.53-2.64-27.55-4.94-27.55-4.94L69.3 85s46.82 7.38 56.16 9.33 16 14 9 25.74-19.31 22.72-41.85 21.23l21.53-42.61-20.3-3.77-27.4 51.79s10.69 3.2 28.1 3.54l-2.11 19.54 8.53.92 2.21-20.54c2.27-.08 4.62-.22 7-.41l-2.39 22.16 8.53.92 2.6-24.13c27-4.94 40.71-29.47 41.57-41 .94-11.85-9.13-22.53-28.26-26.45z"/><circle class="cls-4" cx="114.08" cy="113.39" r="85.5"/></g></svg>