<svg xmlns="http://www.w3.org/2000/svg" viewBox="0 0 2000 2000" width="2000" height="2000"><circle cx="1000" cy="1000" r="950" fill="#006ad2" stroke="#003569" stroke-miterlimit="10" stroke-width="100"/><path d="m1196.12 660.85l25.12-233.17-90-9.71-24.38 225.78-72.41-13.41 24.28-225.57-90-9.71-23.62 218.61c-153.37-27.87-290.81-52.14-290.81-52.14l-122.3 138.8s494.21 77.9 592.8 98.48 168.89 147.78 95 271.7-203.86 239.82-441.8 224.1l227.26-449.77-214.26-39.84-289.22 546.71s112.84 33.78 296.61 37.37l-22.27 206.26 90 9.71 23.33-216.81c24-.84 48.77-2.32 73.89-4.33l-25.23 233.91 90 9.71 27.44-254.71c285-52.14 429.72-311.07 438.79-432.78 9.92-125.08-96.37-237.82-298.3-279.19" fill="#fff"/><circle cx="1004.64" cy="1000" r="902.5" fill="none" stroke="#fff" stroke-miterlimit="10" stroke-width="40"/></svg>