<svg xmlns="http://www.w3.org/2000/svg" viewBox="0 0 2000 2000"><g fill="#014655"><path d="m573.7 737h273.61v88.26h-273.61v-88.26m685.79 406h-641.66v326.57h640.77c89.14 0 166.81-74.14 166.81-164.17-1.76-90.93-75.01-163.3-165.92-162.4"/><path d="M1000,0C447.48,0,0,447.48,0,1000S447.48,2000,1000,2000s1000-447.48,1000-1000C2000.88,447.48,1552.51,0,1000,0Zm32.66,445.72h476.61v97.09h-370.7V825.24h273.61V737H1218V639.89h300.09V922.33H1032.66V445.72Zm-547.22,8.83H785.52V569.28H485.44V454.55Zm-8.83,185.35H856.13V445.72H962V922.33H476.61V639.89Zm804.94,953.22H485.44v-573.7h796.12c154.46,0,280.67,129.74,280.67,286.85S1436,1593.11,1281.55,1593.11Z"/></g><path d="M485.44,454.55H785.52V569.28H485.44V454.55Z" fill="#c39145"/></svg>