<svg enable-background="new 0 0 226.8 226.8" viewBox="0 0 226.8 226.8" xmlns="http://www.w3.org/2000/svg"><path d="m43.6 85.4-41.9 8.1c-1.1 6.6-1.7 13.2-1.7 19.9 0 7.1.7 14 1.9 20.7l41.7 7.3zm69.8 18.6 26.2-52h-52.4zm-61.3-16.8v52.4l52-26.2zm119.7-8-24.3-24.3-24.7 48.9zm-99-29.8-39.1-15.6 15.6 39.1zm120.2-15.7-39.1 15.6 23.5 23.5zm-18.3 105.9v-52.4l-52 26.2zm18.3 53.4-15.6-39.1-23.5 23.5zm-43.4-151 37.3-14.9c-12.8-10.9-28-19-44.7-23.4zm77.2 71.4c0-7.1-.7-14-1.9-20.7l-41.7-7.3v56l41.9-8.1c1.1-6.6 1.7-13.3 1.7-19.9zm-42-36.3 38.1 6.7c-4.4-16.4-12.5-31.3-23.2-43.9zm-111.9 100.4-23.5-23.5-15.6 39zm111.9-27.9 14.9 37.3c10.9-12.8 19-28 23.4-44.7zm2.2 50.1-37.3-14.9-6.7 38.1c16.5-4.5 31.4-12.5 44-23.2zm-15.2-52.1-48.9-24.7 24.7 48.9zm-86.5-104h56l-8.1-41.9c-6.5-1.1-13.2-1.7-19.8-1.7-7.1 0-14 .7-20.7 1.9-.1 0-7.4 41.7-7.4 41.7zm56.1 139.5h-56l8.1 41.9c6.6 1.2 13.2 1.7 19.8 1.7 7.1 0 14-.7 20.7-1.9zm-28-60.4-26.2 52h52.4zm-73.6-95.6 37.3 14.9 6.7-38.1c-16.5 4.5-31.4 12.5-44 23.2zm15.1 52.1 48.9 24.7-24.6-49zm-12.9-2-14.9-37.4c-10.9 12.8-19 28-23.4 44.7zm12.9 70.4 24.2 24.3 24.7-48.9zm22.3 37.2-37.3 14.9c12.8 10.9 28 19 44.7 23.4zm-35.2-35.1-38.1-6.7c4.4 16.4 12.5 31.3 23.2 43.9z" fill="#c5f9fc"/></svg>