<svg xmlns="http://www.w3.org/2000/svg" viewBox="0 0 630.36 720.12"><defs><linearGradient id="0" y1="582.51" x2="0" y2="66.1" gradientUnits="userSpaceOnUse"><stop stop-color="#006c87"/><stop offset=".57" stop-color="#0084a6"/><stop offset=".97" stop-color="#006c87"/></linearGradient><linearGradient id="1" y1="561.03" x2="0" y2="223.79" gradientUnits="userSpaceOnUse"><stop stop-color="#006c87"/><stop offset=".5" stop-color="#0084a6"/><stop offset=".97" stop-color="#006c87"/></linearGradient><linearGradient id="2" y1="526.82" x2="0" y2="141.94" gradientUnits="userSpaceOnUse"><stop stop-color="#006c87"/><stop offset=".49" stop-color="#0084a6"/><stop offset=".97" stop-color="#006c87"/></linearGradient></defs><path d="M546.11,85.49h-15V614.06H100.93V189h266V85.49H84.25A84.25,84.25,0,0,0,0,169.74V635.87a84.25,84.25,0,0,0,84.25,84.25H546.11a84.25,84.25,0,0,0,84.25-84.25V169.74A84.25,84.25,0,0,0,546.11,85.49Z" fill="#ccae66"/><path fill="url(#0)" d="m518.4 74.71l-35.43-37.36-35.42-37.35-35.86 36.93-35.86 36.94 18.25.11v510.57h102.21v-509.97l22.11.13"/><path fill="url(#1)" d="m133.85 376.72h102.21v207.84h-102.21z"/><path fill="url(#2)" d="m264.07 263.82h102.21v320.74h-102.21z"/></svg>