<svg enable-background="new 0 0 226.8 226.8" viewBox="0 0 226.8 226.8" xmlns="http://www.w3.org/2000/svg"><g fill="#e3c88e"><path d="m65.2 83.4h31.3v10.2h-31.3z"/><path d="m113.4 0c-62.6 0-113.4 50.8-113.4 113.4s50.8 113.4 113.4 113.4 113.4-50.8 113.4-113.4-50.8-113.4-113.4-113.4zm3.5 50.7h54.6v10.9h-42.9v32h31.3v-10.2h-21.9v-10.9h33.5v32h-54.6zm-62.1.5h34.2v13.1h-34.2zm-1.2 21.3h42.9v-21.8h12.4v53.9h-55.3zm119.4 108.3h-24.8l-34.8-23.9-34.8 23.9h-24.7l47.2-32.4-47.2-32.4h24.8l34.8 23.9 34.8-23.9h24.7l-47.2 32.4z"/></g></svg>