<svg xmlns="http://www.w3.org/2000/svg" viewBox="0 0 1490.15 1490.15"><circle cx="745.07" cy="745.07" r="745.07" fill="#102144"/><circle cx="745.07" cy="745.07" r="666" fill="#c8c9cb" stroke="#d8d9da" stroke-width="23" stroke-miterlimit="10"/><g fill="#d5d6d7"><path d="M745.24,537.33c-113.4,0-205.33,91.93-205.33,205.33S631.84,948,745.24,948s205.33-91.93,205.33-205.34S858.64,537.33,745.24,537.33Zm0,374.67A169.34,169.34,0,1,1,914.57,742.66,169.33,169.33,0,0,1,745.24,912Z"/><circle cx="745.24" cy="742.66" r="147.67"/><path d="M887.19,1167.77a445.92,445.92,0,0,0,95.74-45.21l-86.69-118.31a300.47,300.47,0,0,1-57.09,25.51Z"/><path d="M755.74 1190.61A448.31 448.31 0 0 0 865.5 1174.4L817.32 1036a302.31 302.31 0 0 1 -61.58 8.47"/><path d="m745.24 294.6c-247.46 0-448.07 200.6-448.07 448.06 0 243.62 194.42 441.83 436.57 447.93v-146.16c-161.46-6-290.5-138.83-290.5-301.77 0-166.79 135.21-302 302-302s302 135.21 302 302c0 103.65-52.22 195.09-131.78 249.48l86.38 117.86c115.76-81 191.47-215.34 191.47-367.36 0-247.44-200.61-448.04-448.07-448.04m147.67 120.73s-176.34-96.67-357.67 34.67c0 0-132 87.33-144.67 262.66l-37.33 22.67s-.67-206.67 170.67-318c0 0 222-167.33 462 14 0 0 151.33 108.67 150.66 281.33l-36.66 6.67s9.33-195.33-207-304"/><path d="M750.69,1248.16a10.25,10.25,0,0,0-5.42-1.5h0c-278.9,0-505-226.09-505-505s226.1-505,505-505,505,219.1,505,498c0,.4,0,2.53,0,4.67a11.69,11.69,0,0,0,4,8.87c4.64,4,8.81,4.48,12.27,3.36a11.67,11.67,0,0,0,7.85-11.17v-4.73c0-292.19-236.87-522.06-529.06-522.06-292,0-529.06,237.1-529.06,529.07,0,292.19,236.87,529.06,529.06,529.06h.62a10.29,10.29,0,0,0,8.67-4.77C760.53,1257.46,756.15,1251.58,750.69,1248.16Z"/></g><path fill="#d8a24a" d="m248.35 505.77h364.48v160.49h-364.48z"/><g fill="#091a3c"><path d="m849.75 881.75v-279.59h388.49v-96.39h-484.89v468.98h480.39v-271.37-8.82h-288.2v93.77h194.43v93.42h-290.22"/><path d="M636.24,505.77V696.26H248.35V974.75H729.24v-469Zm0,376H344.57v-92.5H636.24Z"/></g></svg>