<svg xmlns="http://www.w3.org/2000/svg" viewBox="0 0 316 316"><g fill="#507ca5"><path d="m0 158v158h316v-316h-316m61 128v10h-20v-20h20m30 10v10h-20v-20h20m29 10v10h-19v-20h19m54.2 2.9c15.2 6 23.9 21.7 22.5 40.4-1.1 14-7.6 24.7-18.4 30.5-7.9 4.1-14.8 5.2-34 5.2h-16.3v-79.2l20.3.4c18.1.4 20.8.6 25.9 2.7m65.9 31.6l27.4 34.5.3-34.5.2-34.5h5.5l-.2 39.3-.1 39.2h-2.5c-2.1 0-7-5.6-29.6-33.9l-27.1-33.9v68.3h-6v-79h2.3c1.9 0 7.8 6.9 29.8 34.5m-158.4-5.5h9.3v20h-20v-20m49.1 0v20h-19.1v-20.1m18.75 29.6v20.5l-9.5.1h-9.25v-20.6"/><path d="m146 157.6v23.6l9.5-.4c8.5-.3 9.9-.7 13.7-3.3 6-4.3 8.9-10.7 9-19.8.1-16.2-7.4-23.6-23.9-23.7h-8.3"/></g></svg>