<svg xmlns="http://www.w3.org/2000/svg" viewBox="0 0 406.21 401.4"><ellipse cx="203.11" cy="200.7" rx="195.41" ry="193" fill="#fff" stroke="#034da2" stroke-width="15.401" stroke-miterlimit="10"/><g fill="#034da2"><path d="M296.64 217.2a93.39 93.39 0 0 1 -29.71 53h.18v71.51c49.64-22 85.55-68.85 91.53-124.51"/><path d="M140.11,270.92a93.37,93.37,0,0,1-30.54-53.72h-62c6,56,42.38,103.12,92.54,125Z"/><path d="M235.33,149.55l-2.22-100.5a159.32,159.32,0,0,0-60,0l2.17,98a59.89,59.89,0,0,0-2.17,106.06v99.2a159.32,159.32,0,0,0,60,0v-99.2a59.86,59.86,0,0,0,2.22-103.6Z"/><path d="M140.11,59.25C90,81.08,53.59,128.16,47.57,184.2h62a93.43,93.43,0,0,1,30.54-53.71Z"/><path d="m267.11 59.69v71.69a93.31 93.31 0 0 1 29.53 52.82h62c-5.98-55.66-41.89-102.5-91.53-124.51"/></g></svg>