<svg xmlns="http://www.w3.org/2000/svg" viewBox="0 0 91.95 95.29"><g transform="translate(-.01-.03)"><path d="M91.4 38.7A29.45 29.45 0 0 0 88 29.8C84.7 24.3 77.5 16.3 68.5 10c0 0-6.8-4.4-10-5.9-11.7-5.4-24.8-6.5-36 3.4C3.7 24.2-5.7 47.5 3.7 70.7c.2.5 5.4 14.7 36.6 24.2 13.7.4 21.7-.4 30.5-5.5C82.3 82.8 89 70.8 91.4 58.6 92.1 54.9 92.2 42.4 91.4 38.7" fill="#04ffcc"/><path d="m55 5.8v22.3l-25.8-1.6-10.6 13.4-1.3 25.3 8.8 9.4 13.2 6.6 17.3 1.9 18.8-4.8v-46.5l-3.6-19.3s-10.1-7.9-16.7-9.8" fill="#7df8fb"/><g fill="#2c398f"><path d="M85.2,61.1c-3.6-.2-1.6-5.9-3.2-12.4-1.9-7.2.9-12.2,4.6-12a10.93,10.93,0,0,1,4.8,2A29.45,29.45,0,0,0,88,29.8C84.7,24.3,77.5,16.3,68.5,10V70.3a6.09,6.09,0,0,1-11.6,2.6,23.73,23.73,0,1,1-.6-40.7V8.8a5.89,5.89,0,0,1,2.2-4.7c-11.7-5.4-24.8-6.5-36,3.4C3.7,24.2-5.7,47.5,3.7,70.7c.2.5.4,1,.6,1.4a5.27,5.27,0,0,1,1.1-1.5c4.9-5,10.3,5.2,21.8,11.1,7.3,3.7,11.5,8.6,13.1,13.2C51,96.2,62,94.5,70.8,89.4,82.3,82.8,89,70.8,91.4,58.6A10.2,10.2,0,0,1,85.2,61.1ZM46,13.7c2.7-.1,5.2,3.1,5.3,4.6s-2.3.9-4.9,1.8c-2.9,1-5,.1-5.1-1.4S43.2,13.8,46,13.7Z"/><path d="m40.1 61.5c5.8 3.3 12.8 2 14.1-5.4.7-4.3.3-11-3.5-13.1-12.6-7.2-23.2 11.3-10.6 18.5"/></g></g></svg>