<svg enable-background="new 0 0 377.5 370.1" viewBox="0 0 377.5 370.1" xmlns="http://www.w3.org/2000/svg" xmlns:xlink="http://www.w3.org/1999/xlink"><linearGradient id="a" gradientUnits="userSpaceOnUse" x1="92.7831" x2="90.7831" y1="13.8483" y2="356.8483"><stop offset="0" stop-color="#050b3a"/><stop offset="1" stop-color="#0840b0"/></linearGradient><linearGradient id="b" gradientUnits="userSpaceOnUse" x1="287.0641" x2="287.0641" y1="15.1178" y2="361.6177"><stop offset="0" stop-color="#ff9805"/><stop offset="1" stop-color="#fde200"/></linearGradient><path d="m183.5 0c-103 1.9-185.4 88-183.5 188.7 1.9 97.7 82.6 179.1 182.5 181.4.3-123.4.7-246.7 1-370.1z" fill="url(#a)"/><path d="m377.3 176.3c4.7 99.7-75.6 188.8-180 193.7 0-8.3 0-16.5 0-24.8 89.6-2.5 160.4-78 157.7-165-2.6-83.6-72.2-153.1-158.3-155v-25c97.9 4 176.2 82.3 180.6 176.1z" fill="url(#b)"/><path d="m251.8 225.2c0 11.6-9.4 21.1-21.1 21.1s-21.1-9.4-21.1-21.1c0-11.6 9.4-21.1 21.1-21.1s21.1 9.5 21.1 21.1zm-7.1 0c0-7.7-6.2-13.9-13.9-13.9s-13.9 6.2-13.9 13.9 6.2 13.9 13.9 13.9 13.9-6.2 13.9-13.9zm7.1 27.3h-42.2v7h42.2zm0-129.4h-42.2v7h42.2zm0 146h-42.2v6.3h28.5l-28.5 18.3v6.3h42.2v-6.3h-28.5l28.5-18.3zm0-87.1c0-11.6-9.4-21.1-21.1-21.1s-21.1 9.4-21.1 21.1c0 6.6 3 12.4 7.7 16.3 1.9-1.6 3.8-3.2 5.6-4.7-3.7-2.5-6.1-6.7-6.1-11.5 0-7.7 6.2-13.9 13.9-13.9s13.9 6.2 13.9 13.9c0 4.9-2.6 9.2-6.4 11.7l5.1 5.1c5.2-3.9 8.5-10 8.5-16.9zm-9.2-46.5v6.6h-33v7h33v9h9.2v-9-7-6.6zm9.2-50.2v7 2.7c0 7.3-3.5 14.3-9.6 18.3-3.6 2.4-8 3.7-12.5 3.4-4.5-.2-8.7-1.9-12.1-4.6-5.2-4.1-7.9-10.5-7.9-17v-2.8-7zm-8.7 7h-25.5v4.6c.2 6.9 5.9 12.4 12.8 12.4s12.5-5.5 12.8-12.4v-4.6z" fill="#ff9805"/></svg>