<svg xmlns="http://www.w3.org/2000/svg" width="2000" height="1948" viewBox="0 0 2000 1948"><defs><linearGradient id="3" x2="794.88" gradientUnits="userSpaceOnUse" x1="0"><stop stop-color="#00ba96"/><stop offset=".52" stop-color="#00d9af"/><stop offset="1" stop-color="#00faaf"/></linearGradient><linearGradient id="2" x1="250.91" x2="1904.02" gradientUnits="userSpaceOnUse"><stop stop-color="#008d94"/><stop offset="1" stop-color="#00ffe0"/></linearGradient><linearGradient id="0" x1="83.62" x2="878.54" gradientUnits="userSpaceOnUse"><stop stop-color="#00ba96"/><stop offset=".52" stop-color="#00d9af"/><stop offset="1" stop-color="#00d9af"/></linearGradient><linearGradient id="1" x1="1144.49" x2="2001.39" gradientUnits="userSpaceOnUse"><stop stop-color="#008d85"/><stop offset="1" stop-color="#00ffe0"/></linearGradient></defs><path d="M857,915.24,625.08,513.95,389.28,108.76a168.47,168.47,0,0,0-54.57-56.49h-1.95a148.42,148.42,0,0,0-56.52,58.44L100.85,414.6a138.91,138.91,0,0,0,0,140.26L311.32,919.13c15.59,25.32,21.44,54.54,21.44,83.76h0a178.37,178.37,0,0,1-21.44,83.76L102.8,1447a138.91,138.91,0,0,0,0,140.26l175.39,303.89c13.64,23.38,33.13,44.8,56.52,58.44h1.95c23.39-13.64,40.93-33.12,54.57-56.49l233.86-405.18L857,1082.76A171,171,0,0,0,857,915.24Z" transform="translate(0-25)" opacity=".25" fill="url(#0)" isolation="isolate"/><path d="m1975.62 903.55l-233.86-403.24-239.7-414.92a171.64 171.64 0 0 0 -42.87 -48.7c-9.75-7.79-19.5-11.69-31.19-11.69-122.78 0-206.58 3.9-268.94 3.9-9.74 0-15.59 11.69-13.64 21.43l60.41 339c0 3.9 0 7.79-1.95 11.69-23.39 42.86-21.44 95.45 3.9 138.31l214.37 374c15.59 27.27 23.39 56.49 23.39 85.71 0 29.22-7.8 58.44-23.39 85.71l-216.32 374c-25.33 42.86-25.33 95.45-3.9 138.31 1.95 3.9 1.95 7.79 1.95 11.69l-60.41 337c-1.95 9.74 3.9 21.43 13.64 21.43 56.52 0-23.39 5.84 276.73 5.84 5.85 0 13.64-1.95 19.49-3.9 21.44-7.79 35.08-33.12 46.77-54.54l239.71-416.87 231.91-403.24c37.03-58.47 37.03-130.53 3.9-190.92" transform="translate(0-25)" opacity=".25" fill="url(#1)" isolation="isolate"/><path d="m1880.13 915.24l-465.77-806.48c-29.23-50.64-83.8-83.76-144.21-83.76h-931.54c-31.18 0-60.41 9.74-87.7 25.32v1.95a168.47 168.47 0 0 1 54.57 56.49l233.86 405.19c21.44-9.74 46.77-15.58 70.16-15.58h385.86c60.41 0 115 31.17 144.21 83.76l192.93 333.11c29.23 50.65 29.23 114.93 0 167.53l-192.93 333.11c-29.23 50.65-85.75 83.76-144.21 83.76h-383.92a168.18 168.18 0 0 1 -70.16 -15.58l-233.85 405.18a168.47 168.47 0 0 1 -54.57 56.49v1.95c25.33 15.58 56.52 25.32 87.7 25.32h933.44c60.41 0 115-31.17 144.21-83.76l465.79-806.48c27.31-52.59 27.31-114.93-3.87-167.52" transform="translate(0-25)" fill="url(#2)"/><path d="M771.25,915.24,539.34,513.95,305.48,108.76a168.47,168.47,0,0,0-54.57-56.49H249a148.42,148.42,0,0,0-56.52,58.44L19,412.65a138.91,138.91,0,0,0,0,140.26L229.47,917.18c15.59,25.32,21.44,54.54,21.44,83.76h0a178.37,178.37,0,0,1-21.44,83.76L19,1447a138.91,138.91,0,0,0,0,140.26L194.4,1891.18c13.64,23.38,33.13,44.8,56.52,58.44h1.95c23.39-13.64,40.93-33.12,54.57-56.49l233.86-405.18L773.2,1086.66C802.43,1030.17,802.43,967.83,771.25,915.24Z" transform="translate(0-25)" fill="url(#3)"/></svg>