<svg enable-background="new 0 0 227 227" viewBox="0 0 227 227" xmlns="http://www.w3.org/2000/svg"><path d="m113.5 0c-62.7 0-113.5 50.8-113.5 113.5s50.8 113.5 113.5 113.5 113.5-50.8 113.5-113.5-50.8-113.5-113.5-113.5zm-.5 89.5h-7.1v33.3c0 3.5-2.8 6.4-6.3 6.4-3.5 0-6.4-2.8-6.4-6.4v-46h19.8c14 0 34.6 12.1 34.6 38 0 24.7-22 37.6-33.8 37.6h-14.3c-3.5 0-6.4-2.8-6.4-6.4 0-3.5 2.8-6.4 6.4-6.4h14.3c4.3 0 21.1-6.5 21.1-24.9 0-18.8-15.1-25.2-21.9-25.2zm5.1 83h-17.9c-3.5 0-6.3-2.9-6.3-6.4 0-3.4 2.8-6.2 6.3-6.3h17.9c10.1 0 39.2-11.3 39.2-46s-29.8-46-40-46h-32.8v98.3c0 3.5-2.8 6.4-6.4 6.4-3.5 0-6.4-2.8-6.4-6.4v-111h45.4c17.8 0 52.7 17.7 52.7 58.7.2 41.5-33.6 58.7-51.7 58.7z" fill="#29aae1"/></svg>