<svg xmlns="http://www.w3.org/2000/svg" width="2000" height="413" viewBox="0 0 2000 413"><path d="M904.24,999.35c-.78,104.34-107.81,170.1-200.56,127.42-37.86-17.45-66.23,40.22-27.14,58.2,174.35,80.37,353.79-98,272.94-271.43a32.27,32.27,0,0,0-23.42-18c-25.07-4.51-46.15,21.35-35.12,45a143.51,143.51,0,0,1,13.3,58.81ZM615.73,853c-62.61,62.27-76,155.12-40.54,231.14a32.14,32.14,0,0,0,23.42,18c25,4.52,46.18-21.27,35.12-45C578.56,938.61,701.87,816.17,821,871c23.68,10.86,49.85-9.83,45.28-34.92a32,32,0,0,0-18.13-23.29c-76.45-35.26-169.8-22-232.39,40.27ZM2000,1044c0,89.56-72.34,162-161.77,162s-162.4-72.45-162.4-162V793h64.73v251c0,86.21,104,129.57,166.52,68.94a97.26,97.26,0,0,0,28.22-68.94V793H2000ZM1204.93,793l108.83,249.78L1422.62,793h70.6l-179.45,412.41L1134.37,793ZM163,793c113.54,0,205.9,92.47,205.9,206.22S276.5,1205.41,163,1205.41H0V793Zm0,347.59c124.56,0,189.1-151.64,99.45-241.54-50.56-50.63-101-41.25-197.7-41.25v282.79Z" transform="translate(0-793)" fill="#099"/></svg>