<svg enable-background="new 0 0 97.5 115.9" viewBox="0 0 97.5 115.9" xmlns="http://www.w3.org/2000/svg"><path d="m97.5 10.4-11.7-9.1-7.3 9c-.7-.6-1.5-1.2-2.3-1.8-9.9-7-20.6-8.3-26.8-8.5h-49.4v115.9h49.4c5.7 0 17.5-.9 28.1-8.9 17.4-13 18.4-35 18.9-44.9.3-5.9 1.1-24.8-8.1-40.4zm-83.1 78.1c-.4-.1-.7-.4-.7-.9v-75.8h28.3c4.4 0 8.1.4 10.8.9 4.8.8 8.7 1.5 12.9 4.1 2.1 1.3 3.7 2.8 4.6 3.8l-55.3 68zm68.1-19.5c0 2.3-.3 17.3-12.6 27.8-9.5 8.1-20.3 8.5-23.4 8.5h-22.4c-.6 0-1.1-.5-1.1-1.1v-2.4c18.7-22.8 37.3-45.6 56-68.4.7 2.4 1.6 5.9 2.3 10 .9 5.3 1.1 9.5 1.3 13.1 0 3.3.1 7.5-.1 12.5z" fill="#04afed"/></svg>