<svg enable-background="new 0 0 32 32" viewBox="0 0 32 32" xmlns="http://www.w3.org/2000/svg"><circle cx="16" cy="16" fill="#242d3d" r="16"/><g fill="#fff"><path d="m23.1 17.5c-.6-2.4-2.3-5.1-2.3-5.1 2 5.4 1.2 9.5.7 11.8 0 0-.7 2.6.8.4 1.9-2.7.8-7.1.8-7.1z"/><path d="m18.3 7.9c1 3.7 1.5 6.8 1.6 9.4.3 4.4-.4 7.3-.8 8.8-.1.5.4.9.7.5.8-.9 1.2-3.1 1.4-5l.1-.6c.2-2.3.1-4.6-.5-6.8-1-4.2-2.5-6.3-2.5-6.3zm-1.9 6.5c-.2-6.1-.7-11.4-.7-11.4s-.4 5.1-.7 11c0 1-.1 1.9-.1 2.9 0 1.4-.1 2.8-.1 4.2 0 2.4.1 4.7.3 6.6.1.7 1 .7 1.1 0 .2-1.2.2-2.8.3-4.5 0-1.8 0-3.6 0-5.5 0-1.1 0-2.2-.1-3.3zm-7 7.2c-.1-1.1-.2-2.3-.1-3.4.1-.9.2-1.9.4-2.9.2-.9.5-1.9.9-2.9 0 0-1.2 1.9-1.9 3.9-.1.4-.3.8-.3 1.2 0 0-.2 1-.3 2.4 0 .9.1 2.1.4 3.1.2.6.4 1.1.7 1.6 0 0 1.5 2.2.8-.4-.3-.9-.5-1.8-.6-2.6z"/><path d="m11.5 20.4c0-1.2 0-2.4.1-3.6.1-.9.2-1.8.3-2.6.3-1.9.7-4 1.3-6.3 0 0-1.5 2.1-2.5 6.2-.1.2-.1.4-.1.7-.2.9-.3 1.8-.4 2.7-.1 1.1-.1 2.3 0 3.5l.1.6c.2 1.9.6 4.1 1.4 5 .3.4.9 0 .8-.5-.4-1.1-.9-3-1-5.7z"/><path d="m14.1 20.6c0-1.3 0-2.7 0-4 0-.9 0-1.8.1-2.8.1-2.5.6-6.1.9-9.2 0 0-1.6 3.3-2.3 9.3-.1.8-.2 1.7-.3 2.7l-.1.7s-.1 1.3-.1 3c0 2.2.3 5.1 1.2 7 0 .1.1.1.1.1.3.3.9 0 .8-.5-.2-2-.3-4.1-.3-6.3zm3.3 0c0-1.2 0-2.5 0-4 0-.9 0-1.8-.1-2.8-.1-2.5-.6-6.1-.9-9.2 0 0 1.6 3.3 2.3 9.3.1.8.2 1.7.3 2.7l.1.7s.1 1.3.1 3c0 2.2-.3 5.1-1.2 7 0 .1-.1.1-.1.1-.3.3-.9 0-.8-.5 0-1 .2-3.2.3-6.3z"/></g></svg>