<svg enable-background="new 0 0 303 250.1" viewBox="0 0 303 250.1" xmlns="http://www.w3.org/2000/svg"><g fill="#c81627"><circle cx="126.2" cy="126.1" r="18.3"/><path d="m196.1 125c0 2.8-.9 5.5-2.7 7.6-1.6 1.8-3.8 3.1-6.1 3.5-3.5.6-7.1-.7-9.7-3.3-2-2-3-4.8-3.1-7.6-.2-6.1-1.7-18.7-10.9-30.3-13.5-16.9-33.3-18.8-38.6-19.1-1.1 0-2.2-.2-3.3-.6-4.2-1.6-7.1-5.6-7.2-10.1-.1-3 1.1-5.9 3.1-8 2.2-2.3 5.4-3.4 8.6-3.3 8.2.2 33.3 2.6 52.1 23.7 16.1 18.3 17.7 39.3 17.8 47.5z"/><path d="m227.4 125c0-9.6-1.4-37.4-21.3-62.9-28.5-36.5-72-39.1-80.7-39.4-.5 0-1.1 0-1.6-.1-5.3-1-9.2-5.7-9.3-11.1 0-4.6 2.8-8.8 6.8-10.6 1.5-.7 3.2-.9 4.9-.9 11.6.2 58.6 3.3 93.1 42.6 29.4 33.5 30.8 72.1 30.9 82.4-.4 6.1-5.5 10.8-11.5 10.7s-10.9-4.8-11.3-10.7z"/></g><path d="m100.9 70.3c2.6 4.6 1.2 10.4-2.8 13.7-6.7 5.5-22.4 20.9-21 43.4 1 16.9 11.1 27.9 14 30.9 2.3 2.3 16.4 16.4 38.1 15 20.4-1.3 32.8-15.3 37.2-21.3 2.9-3.9 8-5.7 12.5-4 1.3.5 2.6 1.3 3.7 2.3 3.2 3 4.4 7.7 3 11.9-.3 1-.8 1.9-1.4 2.7-4.1 5.9-20 26.2-48.9 30.3-33.9 4.8-57.1-17.1-59.6-19.6-3-2.9-22.4-22.5-21.4-53.3 1-31.9 23.3-51 29.2-55.4.8-.6 1.7-1.1 2.6-1.5 5.2-1.9 10.8-.4 13.9 3.6.4.4.7.9.9 1.3z" fill="#d2d4d3"/><path d="m95.3 21.2c-.8 3.9-3.7 7.1-7.4 8.7-10.8 4.5-42.8 20.5-57.3 57.9-13.1 33.9-6.6 72 15 99.7 25.5 32.6 69.8 47.6 110 35.3 45.1-13.8 62.6-55.2 65-61 2.9-5.7 9.8-8 15.3-5.3 5.2 2.5 7.8 8.8 5.7 14.4-1.8 4.5-27 63.9-92 76.9-46.3 9.2-93-9.1-121.3-43.7-4.6-5.6-36.7-46.2-26.3-101.7 12-64.2 70.2-90.3 75-92.3 7-4 15.2-1.1 17.7 4.6.9 2 1.1 4.3.6 6.5z" fill="#d2d4d3"/><path d="m301.4 23.1c-1.1-1.2-2.6-1.8-4.2-1.8h-14.1v-14.1c0-2.5-1.4-4.8-3.7-5.7-.6-.2-1.2-.4-1.8-.4-.8 0-1.6.1-2.3.3-2.4.8-4 3.3-4 5.8v14.1h-14.6c-2.5 0-4.9 1.6-5.6 4.1-.1.4-.2.7-.2 1.1 0 .7.1 1.5.3 2.1.8 2.3 3 3.8 5.5 3.8h14.6v14.5c0 1.5.5 2.9 1.5 4 .9 1 2.2 1.7 3.6 1.9 1.8.2 3.6-.4 4.9-1.7 1.2-1.1 1.8-2.7 1.8-4.3v-14.3h14.3c1.3 0 2.6-.4 3.6-1.2s1.7-1.9 1.9-3.1c.4-1.8-.2-3.7-1.5-5.1z" fill="#c81627"/></svg>