<svg xmlns="http://www.w3.org/2000/svg" xmlns:xlink="http://www.w3.org/1999/xlink" viewBox="0 0 270.2 776.56"><defs><linearGradient id="3" y1="228.08" x2="0" y2="456.06" gradientUnits="userSpaceOnUse"><stop stop-color="#f29d26"/><stop offset="1" stop-color="#a06928"/></linearGradient><linearGradient id="4" y1="279.32" x2="0" y2="-10.56" xlink:href="#3"/><linearGradient id="2" y1="426.3" x2="0" y2="425.94" xlink:href="#0"/><linearGradient id="0" y1="776.56" x2="0" y2="548.48" gradientUnits="userSpaceOnUse"><stop stop-color="#1c304a"/><stop offset="1" stop-color="#111d2d"/></linearGradient><linearGradient id="1" y1="599.88" x2="0" y2="377.72" xlink:href="#0"/></defs><g data-name="Layer 4"><path d="m261.2 644.48l-142.8-96-86.8 58.4a20.11 20.11 0 0 1 -22.3 .2l1.7 1.4 226.8 164.2a20.38 20.38 0 0 0 32.3 -16.5v-94.7a20.26 20.26 0 0 0 -8.9 -17" fill="url(#0)"/><path d="M237.9,452.18l-88.4-63.9L8.4,490.48A20.19,20.19,0,0,0,0,507v83.1C0,606.38,18.2,616,31.7,607l227.7-153.2A20.3,20.3,0,0,1,237.9,452.18Z" fill="url(#1)"/><path d="M261.2,324.08l-142.8-96-86.7,58.3a20.37,20.37,0,0,1-25.2-1.9,16.38,16.38,0,0,0,2.5,2.1l228.8,165.6a20.38,20.38,0,0,0,32.3-16.5V341A20.09,20.09,0,0,0,261.2,324.08Z" fill="url(#3)"/><path d="M8.4,170,237.9,3.88a20.38,20.38,0,0,1,32.3,16.5v94.7a20.43,20.43,0,0,1-9,16.9L31.7,286.38A20.35,20.35,0,0,1,0,269.48v-83A20.33,20.33,0,0,1,8.4,170Z" fill="url(#4)"/></g></svg>