<svg xmlns="http://www.w3.org/2000/svg" xmlns:xlink="http://www.w3.org/1999/xlink" viewBox="0 0 400.03 400.09"><defs><linearGradient id="0" x1="148.59" y1="373.86" x2="262.15" y2="-9.79" gradientUnits="userSpaceOnUse"><stop stop-color="#f75814"/><stop offset=".25" stop-color="#f96b17"/><stop offset=".42" stop-color="#fc8b21"/><stop offset=".58" stop-color="#fda430"/><stop offset=".79" stop-color="#feb83e"/><stop offset="1" stop-color="#fad35e"/></linearGradient><linearGradient id="1" x1="210.5" y1="273.43" x2="175.33" y2="261.32" gradientUnits="userSpaceOnUse"><stop stop-color="#fff"/><stop offset=".1" stop-color="#fafafa"/><stop offset=".23" stop-color="#ebebeb"/><stop offset=".36" stop-color="#d3d3d3"/><stop offset=".5" stop-color="#b1b1b1"/><stop offset=".65" stop-color="#868686"/><stop offset=".8" stop-color="#505050"/><stop offset=".96" stop-color="#121212"/><stop offset="1"/></linearGradient><linearGradient id="2" x1="244.58" y1="148.45" x2="209.13" y2="139.45" xlink:href="#1"/></defs><circle cx="200.03" cy="200.09" r="200" fill="url(#0)"/><g fill="none" stroke="#fad35e" stroke-width=".5" stroke-miterlimit="10"><path d="m3.8 238.93s90.76 106.71 258 151.44"/><path d="M3.8,161.24S105,312.19,328,353.79"/><path d="m24.79 103.63s105.54 178.46 345.64 201.21"/><path d="M62.66,54.73S119.73,230,392.93,253.06"/><path d="M103.12,25.11S156.44,185.87,400,204.23"/><path d="m150.49 6.28s23.84 131.31 242.44 144.81"/><path d="m205 .15s28 79.19 167.34 98.36"/><path d="m138.25 390.37s117.73-15.09 258-151.44"/><path d="m67.1 349.51s223.61-23.95 329.15-188.26"/><path d="M29.63,304.84S233.07,297.93,376.55,106"/><path d="M7.77,255.38S215,253.45,343.75,61"/><path d="m0 204.23s174.53 19 309-171.83"/><path d="m6.08 151.09s150.45 14.5 249.45-143.5"/><path d="m27.73 98.51s95.85-4.8 167.32-98.36"/></g><path fill="#fff" d="m115.03 177.09l71 69 95-24-120 118-46-163"/><path fill="url(#1)" d="m190.03 245.09l91-23-114 112 23-89"/><path fill="#fff" d="m117.03 164.09l72 68 97-24-46-161-123 117"/><path fill="url(#2)" d="m197.03 230.09l89-22-44-154-45 176"/></svg>