<svg enable-background="new 0 0 32 32" viewBox="0 0 32 32" xmlns="http://www.w3.org/2000/svg"><circle cx="16" cy="16" fill="#1693d4" r="16"/><path clip-rule="evenodd" d="m9.9 16.6c0-.4 0-.7 0-1.1h-2.8l-3.1-2.5h6.5c1.2-3 4.2-5 7.5-5 4.4 0 8 3.6 8 8s-3.6 8-8 8c-3.2 0-6.2-1.9-7.4-4.9h-6.6l3.1-2.5zm12.6-.5c0-.8-.1-1.6-.3-2.2s-.5-1.1-.9-1.6c-.4-.4-.9-.7-1.4-.9s-1.1-.3-1.8-.3-1.3.1-1.9.4-1.1.6-1.6 1c-.4.4-.8.9-1 1.6s-.4 1.3-.4 2c0 .8.1 1.4.4 2s.6 1.1 1 1.5 1 .7 1.6.9 1.3.3 2 .3c1.7 0 3.1-.6 4-1.8l-1.5-1.2c-.3.4-.6.7-1 .9s-.9.3-1.5.3c-.3 0-.7-.1-1-.2s-.6-.3-.8-.5c-.5-.4-.8-1-.8-1.6h7c0-.1 0-.2 0-.3zm-2.3-1h-4.7c.1-.6.3-1.2.8-1.6s1.1-.6 1.8-.6c.4 0 .7.1 1 .2s.5.3.7.5.3.4.4.7z" fill="#fff" fill-rule="evenodd"/></svg>