<svg enable-background="new 0 0 648.8 648.7" viewBox="0 0 648.8 648.7" xmlns="http://www.w3.org/2000/svg" xmlns:xlink="http://www.w3.org/1999/xlink"><linearGradient id="a"><stop offset="0" stop-color="#5bbbd1"/><stop offset="1" stop-color="#086d8a"/></linearGradient><linearGradient id="b" gradientUnits="userSpaceOnUse" x1="238.8856" x2="33.8856" xlink:href="#a" y1="-52.3249" y2="110.6751"/><linearGradient id="c"><stop offset="0" stop-color="#1793af"/><stop offset="1" stop-color="#dfe6e7"/></linearGradient><linearGradient id="d" gradientUnits="userSpaceOnUse" x1="-12.3006" x2="63.6994" xlink:href="#c" y1="220.36" y2="114.36"/><linearGradient id="e" gradientUnits="userSpaceOnUse" x1="73.5466" x2="1.5466" xlink:href="#a" y1="175.0375" y2="278.0374"/><linearGradient id="f" gradientUnits="userSpaceOnUse" x1="9.7948" x2="161.7948" xlink:href="#c" y1="487.1555" y2="292.1555"/><linearGradient id="g" gradientUnits="userSpaceOnUse" x1="142.7732" x2="9.7732" xlink:href="#a" y1="412.4431" y2="573.4431"/><linearGradient id="h" gradientUnits="userSpaceOnUse" x1="-25.5742" x2="60.4258" xlink:href="#c" y1="657.3477" y2="556.3477"/><linearGradient id="i" gradientUnits="userSpaceOnUse" x1="120.1786" x2="297.7249" xlink:href="#c" y1="713.4869" y2="496.6183"/><linearGradient id="j" gradientUnits="userSpaceOnUse" x1="338.575" x2="250.5749" xlink:href="#a" y1="405.9012" y2="561.9012"/><linearGradient id="k" gradientUnits="userSpaceOnUse" x1="372.9685" x2="551.9686" xlink:href="#c" y1="728.2722" y2="497.2722"/><linearGradient id="l" gradientUnits="userSpaceOnUse" x1="613.2454" x2="533.2454" xlink:href="#a" y1="450.5133" y2="572.5134"/><linearGradient id="m" gradientUnits="userSpaceOnUse" x1="539.4758" x2="683.4758" xlink:href="#c" y1="722.4698" y2="540.4698"/><linearGradient id="n" gradientUnits="userSpaceOnUse" x1="230.2737" x2="448.0948" xlink:href="#c" y1="476.5821" y2="287.2852"/><linearGradient id="o" gradientUnits="userSpaceOnUse" x1="504.1631" x2="409.1631" xlink:href="#a" y1="212.6403" y2="351.6403"/><linearGradient id="p" gradientUnits="userSpaceOnUse" x1="432.8079" x2="586.8079" xlink:href="#c" y1="474.3974" y2="322.3974"/><linearGradient id="q" gradientUnits="userSpaceOnUse" x1="284.4269" x2="140.4269" xlink:href="#a" y1="174.5238" y2="320.5238"/><linearGradient id="r" gradientUnits="userSpaceOnUse" x1="134.1554" x2="293.9288" xlink:href="#c" y1="252.9487" y2="71.1774"/><linearGradient id="s" gradientUnits="userSpaceOnUse" x1="425.8036" x2="272.8036" xlink:href="#a" y1="-24.037" y2="98.963"/><linearGradient id="t" gradientUnits="userSpaceOnUse" x1="388.1787" x2="530.1787" xlink:href="#c" y1="245.8472" y2="97.8472"/><linearGradient id="u" gradientUnits="userSpaceOnUse" x1="613.3881" x2="534.3881" xlink:href="#a" y1="59.8429" y2="128.843"/><path d="m74.5 216 124.3-216h-198.8v86.5z" fill="url(#b)"/><path d="m0 216h74.5l-74.5-129.5z" fill="url(#d)"/><path d="m0 344.5 74.5-128.5h-74.5z" fill="url(#e)"/><path d="m0 432.3v-87.8l74.5-128.5 124.8 216.3z" fill="url(#f)"/><path d="m0 519 74 129.7 125.3-216.4h-199.3z" fill="url(#g)"/><path d="m0 648.7v-129.7l74 129.7z" fill="url(#h)"/><path d="m199.3 432.3-125.3 216.4h250.4z" fill="url(#i)"/><path d="m257 432.3h-57.7l125.1 216.4 84.9-147.4h-152z" fill="url(#j)"/><path d="m489 501.3h-79.7l-84.9 147.4h249.9z" fill="url(#k)"/><path d="m648.8 501.3v18.7l-74.5 128.7-85.3-147.4z" fill="url(#l)"/><path d="m648.8 648.7v-128.7l-74.5 128.7z" fill="url(#m)"/><path d="m199.3 432.3 87.2-150.5h75.3l87.5 150.5z" fill="url(#n)"/><path d="m535.8 281.8-86.5 150.5-87.5-150.5z" fill="url(#o)"/><path d="m567.8 281.8h-32l-86.5 150.5h118.5z" fill="url(#p)"/><path d="m285 216h-210.5l124.8 216.3 87.2-150.5h-1.5z" fill="url(#q)"/><path d="m324.4 216-125.6-216-124.3 216z" fill="url(#r)"/><path d="m267 0h-68.2l125.6 216 86.6-151.2h-144z" fill="url(#s)"/><path d="m487.5 64.8h-76.5l-86.6 151.2h243.4v-11.2z" fill="url(#t)"/><path d="m567.8 64.8v140l-80.3-140z" fill="url(#u)"/></svg>