<svg xmlns="http://www.w3.org/2000/svg" viewBox="0 0 2000 2000" enable-background="new 0 0 2000 2000" width="2000" height="2000"><g fill="#2b1544"><path d="m1911 1315.5c0-222.3 0-444.2 0-666 0-39.8-9.5-79.5-26.1-115.5-26.1-57.2-66.3-110.6-121.2-142.7-205.6-119.3-411.6-237.5-617.2-356.7-23.5-13.6-50-21.2-76.1-28.4 0 1.5.4 4.9.4 6.4-.4-1.5-1.5-4.5-2.3-6.1-57.6-11-117.8-8.3-173.8 9.5-33.7 11.4-63.2 32.2-94.3 49.2-189 109.1-377.9 218.1-566.9 326.8-24.6 14.8-46.6 34.1-64.7 56.4-44.7 53-76.1 119.3-79.9 189.3 0 239.7 0 479.4 0 719 0 48.1 16.3 94.3 38.6 136.3 27.3 48.5 64.4 93.5 114 120.8 203.3 117 406.7 234.4 610 351.4 29.9 17 63.2 26.9 97.3 31.4 65.5 8 135.2 2.7 194.2-28.4 193.1-111.3 385.8-222.6 579-333.6 28.4-16.7 58.3-31.4 82.2-54.1 50.4-46.6 86.3-109.1 101.5-176.1 6.8-29.1 5.3-59.3 5.3-88.9"/><path d="m1136.2 1158.4c26.1-25.7 63.2-40.9 100.3-37.9 40.1 1.1 78.8 22.3 100.3 56.4 33.3 50 23.5 121.9-19.3 163.2-43.9 42-119.3 47-166.6 7.6-35.2-29.5-64.7-64.7-98.4-95.8-.4-1.9-.8-6.1-1.1-8.3 27.7-28.4 56.4-56.4 84.8-85.2"/></g><g fill="#fefefd"><path d="m843.2 577.9c57.2-52.6 106.4-112.8 150.7-176.1 6.8 2.3 11.4 6.8 14.4 13.3 36.7 67.4 88.2 125.7 142 180.2 34.8 33.7 60.6 77.6 69.3 125.7 11.4 53.4-20.4 112.5-71.6 131.8-37.5 14.4-81 11.7-117-5.7-6.8-2.3-18.2-10.2-22.3-.8 6.8 46.2 30.7 86.7 52.3 126.8 5.3 8.7-4.9 14.8-9.8 20.4-22.3 20.4-41.3 44.7-65.5 63.2-7.2-2.3-12.1-9.1-17.4-14-20.8-21.6-42.8-42.4-63.6-64.4-.4-1.5-.8-5.3-1.1-6.8 23.1-40.9 52.3-81 59.8-128.4-7.6-1.1-15.1 0-22 3-38.2 14.8-81.8 18.2-120.4 3-37.9-14.4-67-50-71.6-90.5-3.8-29.9 5.3-59.8 18.9-86 16.9-37.1 45.3-67 74.9-94.7"/><path d="m625.8 1053.1c57.6-34.5 131-39 192.4-12.9 4.9 1.9 6.1 3 9.8 5.3 19.7 7.6 36.7 20.1 52.6 34.1 36 30.7 65.1 68.5 101.9 98.4 35.6-33.3 68.5-69.7 104.5-102.2 50.7-46.2 125-59.8 190.8-46.6 103 20.1 179.5 125.3 172.3 229.5-3.4 65.9-36.7 131-91.3 168.5-37.1 25.4-81 43.5-126.5 42.4-59.8 2.3-118.5-24.2-160.9-65.5-79.9-79.1-157.1-160.9-237.4-239.7-23.5-25-55.3-43.2-90.1-45.4-24.6-1.1-49.6 4.9-71.9 15.9-34.5 18.2-57.6 54.5-63.2 92.8-7.2 40.5 7.6 84.4 38.2 112.1 47.3 45.1 130.3 44.7 176.4-1.5 11.7-9.8 22.7-29.5 40.9-21.6 11.4 6.8 19.3 18.2 29.2 26.9 7.6 8.7 19.3 15.9 20.4 28.8 0 12.9-11.7 20.4-19.7 28.8-21.2 22-45.8 40.5-74.6 51.9-55.7 21.6-120 22-175.3-1.5-87.5-39-143.9-138.6-129.9-234 9.9-67.9 50.5-131.9 111.4-164.5m510.4 105.3c-28 28.8-56.8 56.4-84.8 85.2.4 1.9.8 6.1 1.1 8.3 33.7 31 63.2 66.3 98.4 95.8 47.3 39.8 122.7 34.5 166.6-7.6 42.8-41.3 52.6-113.2 19.3-163.2-21.2-34.1-60.2-55.3-100.3-56.4-37-3-74.1 12.1-100.3 37.9z"/></g></svg>