<svg xmlns="http://www.w3.org/2000/svg" width="2000" height="2000" viewBox="0 0 2000 2000"><path d="m705.93 1787.42l170.94 172.14a137.68 137.68 0 0 0 194.93 0l171.86-172.14-269.32-269.77"/><path d="m1670.3 593.48l-269.23 269.68-269.23-269.68 269.23-269.68 269.23 269.68"/><path d="m1334.15 1699.52l625.48-626.52a138.24 138.24 0 0 0 0 -195.26l-171.85-172.15-723 724.16"/><path d="m1315.65 948.66l-721.82 723.03-269.23-269.69 721.82-723.02 269.23 269.68"/><g><path d="M39.76,1119.53l171.85,172.14L482.15,1021.9,212.83,752.12,41,924.27A138.25,138.25,0,0,0,39.76,1119.53Z"/><path d="M1288.3,212.88,1116.44,40.43a137.69,137.69,0,0,0-194.93,0L296,667,565.35,936.74Z"/></g></svg>