<svg xmlns="http://www.w3.org/2000/svg" width="2000" height="1362" viewBox="0 0 2000 1362"><g fill="#0175b0"><path d="m189.37 988.52l-189.37 373.48h439.78l189.37-373.48h-439.78"/><path d="m439.95 494.34l-188.86 372.47h439.78l188.86-372.47h-439.78"/><path d="m690.53.16l-188.86 372.47h439.78l188.86-372.47h-439.78"/></g><g fill="#00a2d0"><path d="m627.68 988.37l-189.37 373.47h439.77l189.38-373.47h-439.78"/><path d="m878.26 494.18l-188.86 372.47h439.77l188.87-372.47h-439.78"/><path d="m1128.84 0l-188.86 372.46h439.77l188.87-372.46h-439.78"/></g><g fill="#0cf"><path d="m1059.06 988.37l-189.37 373.47h439.78l189.37-373.47h-439.78"/><path d="m1309.64 494.18l-188.86 372.47h439.78l188.86-372.47h-439.78"/><path d="m1560.22 0l-188.86 372.46h439.78l188.86-372.46h-439.78"/></g></svg>