<svg xmlns="http://www.w3.org/2000/svg" viewBox="0 0 558 558"><circle cx="279" cy="279" r="279" fill="#385629"/><path d="m381 355l10 14c-39 43-107.84 83.1-154.31 83.1q-44.19 0-71.74-29t-27.54-75q0-82.14 67.22-154.54t143.48-72.39q27.69 0 44.81 17.47t17.08 45.41q0 55.9-61 96.08c-40.67 26.79-94.22 41.18-150.65 41.18l-.31 13.12c.04 56.76 30.56 80.57 74.96 80.57 38.38 0 59-18 108-60m-180-62c49.7.71 79.44-14.84 108-31s48-36 52.11-64.17c4.35-29.75-6.77-46.1-30.1-48.64q-37.85-4.12-78.24 38.76c-26.94 28.59-43.06 66.05-51.77 105.05" fill="#fff"/></svg>