<svg enable-background="new 0 0 32 32" viewBox="0 0 32 32" xmlns="http://www.w3.org/2000/svg"><circle clip-rule="evenodd" cx="16" cy="16" fill="#3fbadf" fill-rule="evenodd" r="16"/><g fill="#fff"><path d="m11 22.1 5-2.8v5.6zm0-9 5-2.8v5.6z" fill-opacity=".4"/><path d="m26 19.2-5 2.9v-5.7zm0-9-5 2.9v-5.7z" fill-opacity=".7"/><path d="m11 22.1v-5.7l5 2.9s-5 2.8-5 2.8zm0-9v-5.7l5 2.9z" fill-opacity=".8"/><path d="m21 22.1-5-2.8 5-2.9zm0-9-5-2.8 5-2.9z"/><path d="m21 22.1-5 2.8v-5.6s5 2.8 5 2.8zm0-9-5 2.8v-5.6z" fill-opacity=".6"/><path d="m11 16.4v5.7l-5-2.9zm0-9v5.7l-5-2.9z" fill-opacity=".5"/></g></svg>