<svg xmlns="http://www.w3.org/2000/svg" width="2000" height="2000" viewBox="0 0 2000 2000"><g fill="#091b26"><path d="M1352.61,770.28,1518.68,896l104.84,79.33-117.07,59.81L1271,1155.4l80.77,55.84,113,78.11-122.07,63L593.78,1738.55A838.93,838.93,0,0,0,1000,1842.79c465.46,0,842.79-377.33,842.79-842.79a839.33,839.33,0,0,0-195.72-540Z"/><path d="M647.39,1273.68,481.32,1148l-104.84-79.33,117.07-59.81L729,888.57l-80.77-55.84-113-78.11,122.07-63L1446,284.87A838.77,838.77,0,0,0,1000,157.21c-465.46,0-842.79,377.33-842.79,842.79,0,216.39,81.58,413.7,215.63,562.94Z"/><path d="M321.48,1617.05C173,1454,82.43,1237.37,82.43,1000,82.43,494.05,494.05,82.43,1000,82.43a912.36,912.36,0,0,1,521.89,163.32l82-42.28C1436,75.86,1226.68,0,1000,0,448.6,0,0,448.6,0,1000c0,260.87,100.45,498.69,264.65,676.92Z"/><path d="M1698.57,405.79c136.48,160.21,219,367.74,219,594.21,0,505.95-411.62,917.57-917.57,917.57A912,912,0,0,1,515.55,1778.9l-84,43.33A994.32,994.32,0,0,0,1000,2000c551.4,0,1000-448.6,1000-1000,0-250-92.2-478.82-244.38-654.32Z"/></g><path fill="#23bee2" d="m531.06 1082.27l239.58 181.3-541.12 570.11 1075.35-554.64-194.25-134.29 358.32-183.06-239.58-181.3 541.12-570.11-1075.35 554.64 194.25 134.29-358.32 183.06"/></svg>