<svg enable-background="new 0 0 105.6 105.6" viewBox="0 0 105.6 105.6" xmlns="http://www.w3.org/2000/svg" xmlns:xlink="http://www.w3.org/1999/xlink"><linearGradient id="a" gradientUnits="userSpaceOnUse" x1="45.5144" x2="56.7966" y1="68.2046" y2="50.4174"><stop offset="0" stop-color="#f89923"/><stop offset=".5098" stop-color="#f49822"/><stop offset=".6935" stop-color="#ee9022"/><stop offset=".8244" stop-color="#e38725"/><stop offset=".9295" stop-color="#d57b28"/><stop offset="1" stop-color="#c86f29"/></linearGradient><linearGradient id="b" gradientUnits="userSpaceOnUse" x1="60.8581" x2="46.9368" y1="27.0322" y2="51.2746"><stop offset="0" stop-color="#fbd702"/><stop offset=".5336" stop-color="#fbd503"/><stop offset=".7258" stop-color="#fbd10d"/><stop offset=".8628" stop-color="#fac917"/><stop offset=".9729" stop-color="#f6bc17"/><stop offset="1" stop-color="#f6b918"/></linearGradient><circle cx="52.8" cy="52.8" fill="#ddd2e8" r="52.3" stroke="#6f2c91" stroke-miterlimit="10"/><circle cx="52.8" cy="52.8" fill="#6f2c91" r="43.5"/><g fill="none" stroke="#fff" stroke-miterlimit="10" stroke-width=".2368"><path d="m58.1 49.8 7.2.6-5.3-7.2z"/><path d="m46.2 50.4 11.9-.6-3.9-3.4z"/><path d="m65.3 50.4 8.3-5.8-13.6-1.4z"/><path d="m54.2 46.4 3.9 3.4 1.9-6.6z"/><path d="m60 43.2-12.9-6.6 7.1 9.8z"/><path d="m54.2 46.4-7.1-9.8-.9 8z"/><path d="m73.6 44.6-8.6-6.9-5 5.5z"/><path d="m65 37.7-17.9-1.1 12.9 6.6z"/><path d="m54.2 29.8-7.1 6.8 17.9 1.1z"/><path d="m61.5 31.5-7.3-1.7 10.8 7.9z"/><path d="m70.1 38.8-5.1-1.1 8.6 6.9z"/><path d="m79.2 47.9-5.6-3.3 5.8 12.6z"/><path d="m56.2 55.1 1.9-5.3-11.9.6z"/><path d="m79.4 57.2-5.8-12.6-8.3 5.8z"/><path d="m46.2 44.6v5.8l8-4z"/><path d="m44.1 36.2-6.2 2.7 9.2-2.3z"/><path d="m46.2 50.4 11.8 11.2-1.8-6.5z"/><path d="m47.3 64.2 10.7-2.6-23.1-4.1z"/><path d="m49.2 53.3-3-2.9-11.3 7.1 23.1 4.1z"/><path d="m58 61.6 13.4-.4-15.2-6.1z"/><path d="m65.3 50.4 6.1 10.8 8-4z"/><path d="m58.1 49.8 13.3 11.4-6.1-10.8z"/><path d="m56.2 55.1 15.2 6.1-13.3-11.4z"/><path d="m25.7 58.5 9.1 4.2.1-5.2z"/><path d="m43.4 52.2 2.8-1.8-10.1-3.3-1.2 10.4z"/><path d="m46.2 44.6-10.1 2.5 10.1 3.3z"/><path d="m37.9 38.9-1.8 8.2 10.1-2.5z"/><path d="m26.7 49.8-1 8.7 9.2-1z"/><path d="m47.1 36.6-9.2 2.3 8.3 5.7z"/><path d="m36.1 47.1-9.4 2.7 8.2 7.7z"/><path d="m34.8 62.7 12.5 1.5-12.4-6.7z"/></g><path d="m44.8 68.2 22.6-23.7h-13.7z" fill="url(#a)"/><path d="m39.9 51.6h13.7l13.8-7.1h-13.7z" fill="#f4eb21"/><path d="m60.4 26.1-20.5 25.5h13.7z" fill="url(#b)"/><path d="m26.6 70.4h3.3v.4h-2.8v1.4h2.5v.4h-2.5v1.4h2.8v.4h-3.3z" fill="#f89923"/><path d="m31 70.4h.5v3.7h2.6v.4h-3.1z" fill="#f89923"/><path d="m35 70.4h3.3v.4h-2.8v1.4h2.5v.4h-2.5v1.4h2.8v.4h-3.3z" fill="#f89923"/><path d="m39.1 72.5c0-1.2 1-2.1 2.3-2.1.8 0 1.3.3 1.8.7l-.4.3c-.4-.3-.8-.6-1.4-.6-1 0-1.8.7-1.8 1.7 0 1 .8 1.7 1.8 1.7.6 0 1-.2 1.5-.6l.3.3c-.5.4-1 .7-1.8.7-1.3 0-2.3-.9-2.3-2.1z" fill="#f89923"/><path d="m45.3 70.9h-1.5v-.4h3.6v.4h-1.5v3.7h-.5v-3.7z" fill="#f89923"/><path d="m48.3 70.4h2c.6 0 1 .2 1.3.4.2.2.4.5.4.8 0 .7-.5 1.1-1.2 1.2l1.4 1.7h-.6l-1.3-1.6h-1.3v1.6h-.5v-4.1zm1.9 2.1c.7 0 1.2-.3 1.2-.9 0-.5-.4-.8-1.2-.8h-1.4v1.7z" fill="#f89923"/><path d="m53.1 70.4h.5v4.1h-.5z" fill="#f89923"/><path d="m54.9 70.4h3.3v.4h-2.8v1.5h2.5v.4h-2.5v1.8h-.5z" fill="#f89923"/><path d="m60.6 72.9-1.9-2.5h.6l1.5 2.1 1.5-2.1h.6l-1.9 2.5v1.6h-.4z" fill="#f89923"/><path d="m62.8 73.9h.6v.6h-.6z" fill="#fff"/><path d="m66.3 70.4h.5l2.1 4.2h-.6l-.5-1.1h-2.5l-.5 1.1h-.5zm1.2 2.7-1-2.1-1 2.1z" fill="#fff"/><path d="m69.3 74 .3-.3c.5.4.9.6 1.6.6.6 0 1-.3 1-.7 0-.4-.2-.6-1.2-.8s-1.5-.5-1.5-1.2c0-.6.6-1.1 1.5-1.1.7 0 1.1.2 1.6.5l-.3.4c-.4-.3-.8-.4-1.3-.4-.6 0-1 .3-1 .7 0 .4.2.6 1.2.8s1.5.5 1.5 1.2c0 .7-.6 1.2-1.6 1.2-.6-.3-1.2-.5-1.8-.9z" fill="#fff"/><path d="m73.8 70.4h.5v4.1h-.5z" fill="#fff"/><path d="m77.3 70.4h.5l2.1 4.2h-.6l-.5-1.1h-2.5l-.5 1.1h-.5zm1.3 2.7-1-2.1-1 2.1z" fill="#fff"/></svg>