<svg xmlns="http://www.w3.org/2000/svg" viewBox="0 0 2220 2220"><defs><radialGradient id="0" cx="888.03" cy="472.08" r="2368.64" gradientTransform="matrix(.98514-.17176.14771.84722-56.29 226.24)" gradientUnits="userSpaceOnUse"><stop stop-color="#f2ec05"/><stop offset=".06" stop-color="#edeb07"/><stop offset=".13" stop-color="#dfe70c"/><stop offset=".2" stop-color="#c8e114"/><stop offset=".28" stop-color="#a8d820"/><stop offset=".35" stop-color="#7ecd2f"/><stop offset=".43" stop-color="#4cbf41"/><stop offset=".47" stop-color="#2fb74b"/><stop offset=".55" stop-color="#33b765"/><stop offset=".62" stop-color="#37b77a"/><stop offset=".67" stop-color="#38b782"/><stop offset=".84" stop-color="#0aaea4"/></radialGradient></defs><circle cx="1110" cy="1110" r="1110" fill="url(#0)"/><path d="M939,1342l626-627S1279,368,830,562c0,0-387,164-343.35,597.66,15.78,156.76,81.55,304.62,198.05,410.68C790.87,1667,955.32,1754.57,1191,1724c0,0,172-20,302-148l146,144s-379,396-952,99c0,0-310-155-398-579,0,0-90-554,414-838,0,0,536-314,970,134l74-64S1380,64,823,250c0,0-500,152-602,626,0,0-146,545,242,889,0,0,411,418,977,188,0,0,158-46,329-231l-274-276s-183,269-536,168c0,0-462-100-369-630,0,0,70-357,486-393,0,0,198-15,351,120L873,1273Z" fill="#fff"/></svg>