<svg enable-background="new 0 0 32 32" viewBox="0 0 32 32" xmlns="http://www.w3.org/2000/svg"><circle cx="16" cy="16" fill="#624dbf" r="16"/><path d="m22.3 9c.5.1 1 .1 1.5.2 1 .2 1.3.6 1.1 1.6-.1.4-.3.6-.7.7-.2 0-.5 0-.7.1-3.2 0-6.4 0-9.5 0-.5 0-1 0-1.4.1-1.6.2-2.2.9-2.3 2.4-.1.7-.1.7.7.7h13c.2 0 .4 0 .6.1.6.4.4.9.4 1.4 0 .4-.3.6-.7.7-.2 0-.4 0-.6 0h-13c-.5 0-.5 0-.4.5 0 .4.1.8.2 1.2.2.8.7 1.2 1.5 1.4.9.2 1.8.3 2.6.3h9.3c.4 0 .8 0 1 .4.4.7.1 1.6-.7 1.8-.8.3-1.5.4-2.2.4-2.9 0-5.8.1-8.7 0-.9 0-1.8-.1-2.7-.3-2.1-.4-3.1-1.4-3.5-3.4-.1-.5-.1-.9-.2-1.4v-3.6c0-.4.1-.7.1-1.1.3-2.3 1.3-3.4 3.6-3.9.8-.2 1.7-.2 2.5-.3z" fill="#fff"/></svg>