<svg enable-background="new 0 0 32 32" viewBox="0 0 32 32" xmlns="http://www.w3.org/2000/svg"><circle cx="16" cy="16" fill="#fa5836" r="16"/><path d="m14.7 4.5c-.1 0-.5.1-.9.2-2.2.4-4.3 1.5-6 3.2s-2.8 3.6-3.2 6c-.2 1.1-.2 3.2 0 4.2.4 2.4 1.5 4.3 3.2 6.1 1.7 1.7 3.7 2.8 6.1 3.2 1.1.2 3.2.2 4.2 0 2.4-.4 4.3-1.5 6.1-3.2 1.7-1.7 2.8-3.7 3.2-6.1.2-1.1.2-3.2 0-4.2-.4-2.4-1.5-4.3-3.2-6.1-1.7-1.7-3.6-2.7-5.9-3.2-.7-.1-3.1-.2-3.6-.1zm4.2 4.1c.1 0 .1.2.1.5v.4h-.5c-.6 0-1.1.2-1.3.6-.1.2-.1.5-.1 4.2 0 2.2 0 4-.1 4-.2.2-1.4.3-1.9.1l-.2-.1v-4c0-3.7 0-4-.1-4.3-.2-.4-.7-.6-1.3-.6h-.5v-.3c0-.3 0-.4.1-.5s5.6-.1 5.8 0zm-4.5 3.2v.9l-.2.1c-.3.2-.9.8-1.1 1.1-.1.2-.2.5-.3.8l-.1.4h-.9c-1 0-1 0-.8-.8.3-1 .9-2.1 1.7-2.7.4-.4 1.4-.9 1.6-.9.1.2.1.4.1 1.1zm3.9-.7c1.3.7 2.3 1.9 2.7 3.3.2.8.2.8-.8.8h-.9l-.1-.4c-.1-.3-.2-.5-.3-.8-.2-.4-.8-1-1.1-1.1l-.2-.1v-.9c0-.7 0-.9.1-.9 0-.1.3 0 .6.1zm-5.6 4.9c0 .4.2 1.1.5 1.5 1.3 2.1 4.3 2.1 5.7 0 .2-.4.5-1.1.5-1.5v-.3h1.8v.4c-.2 1.9-1.2 3.4-2.8 4.2-.7.4-1.4.5-2.3.5-2.7 0-4.8-2-5.1-4.7v-.4h1.8c-.1 0-.1.3-.1.3zm4.4 5.6c.1.5.7.9 1.5.9h.4v.8h-6v-.8h.6c.4 0 .7-.1.8-.2.2-.1.5-.6.5-.8 0-.1.2-.1 1.1-.1h1c0-.1.1.2.1.2z" fill="#feffff"/></svg>