<svg xmlns="http://www.w3.org/2000/svg" width="2000" height="1995" viewBox="0 0 2000 1995"><ellipse cx="1219.4" cy="997.5" rx="318.71" ry="318.65" fill="#3483c5"/><g fill="#6dc9f0"><ellipse cx="318.71" cy="997.5" rx="318.71" ry="318.65"/><path d="M2000,318.65h0C2000,143.16,1856.81,0,1681.29,0c-97,0-184.76,46.18-244.8,115.45-55.43,55.42-129.33,87.74-217.09,87.74-83.14,0-157-32.33-217.09-87.74C942.26,46.18,854.5,0,757.51,0,582,0,438.8,143.16,438.8,318.65h0c0,175.49,143.19,318.65,318.71,318.65,97,0,189.38-46.18,244.8-115.45,55.43-55.42,129.33-87.74,217.09-87.74,83.14,0,157,32.33,217.09,87.74,60,69.27,147.81,115.45,244.8,115.45,175.52,0,318.71-143.16,318.71-318.65Z"/><path d="m2000 1676.35c0-175.49-143.19-318.65-318.71-318.65-97 0-184.76 46.18-244.8 115.45-55.43 55.42-129.33 87.74-217.09 87.74-83.14 0-157-32.33-217.09-87.74-60-69.27-147.81-115.45-244.8-115.45-175.52 0-318.71 143.16-318.71 318.65 0 175.49 143.2 318.65 318.71 318.65 97 0 189.38-46.18 244.8-115.45 55.43-55.42 129.33-87.74 217.09-87.74 83.14 0 157 32.33 217.09 87.74 60 69.27 147.81 115.45 244.8 115.45 175.52 0 318.71-143.16 318.71-318.65"/></g></svg>