<svg enable-background="new 0 0 478.7 478.7" viewBox="0 0 478.7 478.7" xmlns="http://www.w3.org/2000/svg" xmlns:xlink="http://www.w3.org/1999/xlink"><linearGradient id="a" gradientUnits="userSpaceOnUse" x1="73.0804" x2="409.0804" y1="406.0811" y2="69.0811"><stop offset="0" stop-color="#5a5c6e"/><stop offset=".2789" stop-color="#37404f"/><stop offset=".568" stop-color="#1a2835"/><stop offset=".8185" stop-color="#081a26"/><stop offset="1" stop-color="#021520"/></linearGradient><linearGradient id="b" gradientUnits="userSpaceOnUse" x1="71.3148" x2="373.3148" y1="99.5175" y2="352.5175"><stop offset="0" stop-color="#fff"/><stop offset=".1662" stop-color="#d0d2d6"/><stop offset=".3718" stop-color="#9ca0a8"/><stop offset=".565" stop-color="#737985"/><stop offset=".7401" stop-color="#565d6b"/><stop offset=".8908" stop-color="#444c5c"/><stop offset="1" stop-color="#3e4656"/></linearGradient><circle cx="239.3" cy="239.3" fill="url(#a)" r="239.3"/><path d="m460 216.3c-4.4-18.9-21.3-81-81-129-57.9-46.5-119.9-50.7-139.7-51.3-12.8-.1-87.5.3-146.3 60.7-56.5 58-57.1 129-57 142.7-.1 19.1 2.2 51.1 17.7 86.3 29.8 68.1 86.6 98.6 103 106.7 64.1 31.5 123.6 21.5 142 17.7-18.9 5.2-88.7 21.9-160-14.7-71.6-36.8-117.3-113.2-120.4-198.7.1-13.9 2-97.1 70.3-160 61.7-56.7 134.6-57.6 150.7-57.4 17.2.6 97.2 5.1 159.7 70.3 47.2 49.3 58 105.7 61 126.7z" fill="url(#b)"/><g fill="#fff"><path d="m123.7 247.6c1.2-1.2 9.2-9.1 8.3-20.3-.6-6.8-4.3-13.1-10-17.5-5-3.9-11.3-5.8-17.6-5.8h-32.4l.2 89.9h36.7c1.7.1 10.7.4 18-6.3 6.4-5.8 7.4-13.1 7.7-15 1.8-14.3-10-24.3-10.9-25zm-40.8-32.9h23.1c5.8 0 11.3 3.2 13.7 8.6.8 1.8 1.3 3.8 1.3 5.9s-.4 4.1-1.2 6c-2.3 5.3-7.8 8.6-13.7 8.6h-23.2zm39.3 61c-2.5 5.1-7.9 8.2-13.6 8.2h-26.1v-29h26.3c4.9 0 9.6 2.2 12.4 6.3 1.4 2 2.3 4.4 2.5 6.9.2 2.7-.3 5.3-1.5 7.6z"/><path d="m152.5 283.9v-79.9h-10.9v79.9 10.1h10.9 32.6v-10.1z"/><path d="m234.3 202.6h-8.7l-32.9 91.4h13.1l24-71.5 26.3 71.5h10.6z"/><path d="m426.1 203.2h-15.1l-38.3 37.6h-2.5v-37.6h-11.2v90.8h11.2v-42.8h2.2l38.6 42.8h15.1l-43.5-47.9z"/><path d="m310.2 285c-19.7 0-35.6-16-35.6-35.6 0-19.7 16-35.6 35.6-35.6 14.6 0 27.1 8.7 32.6 21.2l9.4-5.8c-7.5-15.6-23.5-26.4-42-26.4-25.7 0-46.6 20.9-46.6 46.6s20.9 46.6 46.6 46.6c18.7 0 34.9-11.1 42.3-27l-9.5-5.6c-5.4 12.6-18.1 21.6-32.8 21.6z"/></g></svg>