<svg enable-background="new 0 0 271 275.2" viewBox="0 0 271 275.2" xmlns="http://www.w3.org/2000/svg" xmlns:xlink="http://www.w3.org/1999/xlink"><filter id="a" filterUnits="userSpaceOnUse" height="249.5" width="245.7" x="12.7" y="12.9"><feFlood flood-color="#fff" result="back"/><feBlend in="SourceGraphic" in2="back" mode="normal"/></filter><mask id="b" height="249.5" maskUnits="userSpaceOnUse" width="245.7" x="12.7" y="12.9"><g filter="url(#a)"><image height="254" overflow="visible" transform="translate(10 10.7983)" width="251" xlink:href="DC77CCA2.jpg"/></g></mask><filter id="c" filterUnits="userSpaceOnUse" height="249.5" width="245.7" x="12.7" y="12.9"><feFlood flood-color="#fff" result="back"/><feBlend in="SourceGraphic" in2="back" mode="normal"/></filter><mask id="d" height="249.5" maskUnits="userSpaceOnUse" width="245.7" x="12.7" y="12.9"><g filter="url(#c)"><image height="254" overflow="visible" transform="translate(10 10.7983)" width="251" xlink:href="DC77CCA1.jpg"/></g></mask><ellipse cx="135.5" cy="137.6" fill="#500e89" rx="135.5" ry="137.6"/><g mask="url(#b)"><ellipse cx="135.5" cy="137.6" fill="#500e89" rx="122.8" ry="124.7"/></g><g mask="url(#d)" opacity=".5"><ellipse cx="135.5" cy="137.6" rx="122.8" ry="124.7"/></g><path d="m125.1 69.1h20.8v136.9h-20.8z" fill="#fcfffa"/><image height="229" opacity=".95" overflow="visible" transform="translate(40 22.7983)" width="185" xlink:href="DC77CCA2.png"/><path d="m166.9 143.4v-16.9h-31c-7.1 0-14.3-1.5-20.7-4.6-8.4-4.1-13.5-9.6-13.5-15 0-4.2 3.1-7.6 5.1-9.9 8.1-9.1 19.6-10 23-10.2 4.4-.2 9.4-.2 15 .6 12 1.6 21.6 5.6 28.2 9.1 1.1.6 2.3 1 3.6 1 .4 0 .8 0 1.2-.1h.1c1.8-.2 3.4-1.2 4.4-2.6l6.8-8.9c.6-.8.4-1.9-.4-2.4-4.5-3.1-10.7-6.7-18.6-9.6-9.6-3.5-18.2-4.5-24.2-4.8v-15.7h-14.6l-6.3 6.3v9.5c-25.1 1-45 11.9-49.7 27.3-2.6 8.6.1 16.8.2 17.3 5.3 15.6 22.7 20.3 24.5 20.8-1 .2-24.7 6.1-29.3 24.9-2.2 8.8.9 16.2 2 18.9 10.7 25.5 49.8 28 52 28.1 0 5 .1 10 .1 15h7c1.5-.2 5.5-1 9.1-4.2 3.1-2.8 4.4-6 4.9-7.5v-3.8c5.2-.1 11.9-.8 19.3-3 14.1-4.2 23.7-11.8 29-16.8-2.6-2.8-5.2-5.5-7.9-8.3-1.6-1.6-3.7-2.7-5.9-2.7 0 0 0 0-.1 0 0 0 0 0-.1 0-2.2 0-4.4.8-6.1 2.1-3.9 2.9-10 6.7-18 9.1-7.7 2.3-14.4 2.7-19.1 2.5-.7 0-1.4 0-2.1 0-4.9.1-24.7-.4-32.8-14.4 0 0 0 0 0-.1-3.5-6-3.2-13.7.7-19.4 0 0 .1-.1.1-.1 8.6-12.4 25.9-11.8 27.7-11.7 12.2.2 24.3.2 36.4.2z" fill="#f9fbf4"/></svg>