<svg enable-background="new 0 0 1575.6 804.8" viewBox="0 0 1575.6 804.8" xmlns="http://www.w3.org/2000/svg" xmlns:xlink="http://www.w3.org/1999/xlink"><linearGradient id="a"><stop offset=".1411" stop-color="#fdbe10"/><stop offset=".4876" stop-color="#fdf06d"/><stop offset=".8738" stop-color="#e6c11f"/></linearGradient><linearGradient id="b" gradientUnits="userSpaceOnUse" x1="409.2933" x2="847.4551" xlink:href="#a" y1="115.7975" y2="553.9593"/><linearGradient id="c" gradientUnits="userSpaceOnUse" x1="956.8765" x2="1395.0393" xlink:href="#a" y1="180.5336" y2="618.6965"/><g fill="#a57d2d"><path d="m114 552.8c3.9 0 7.4-2.4 8.8-5.9h78.7c9.4 0 18.2 3.7 24.8 10.3l56.9 56.9c8 8 18.6 12.4 29.9 12.4h127c11.3 0 21.9-4.4 29.9-12.4l27.2-27.2c6.6-6.6 15.5-10.3 24.8-10.3h200v-7.1h-200c-11.3 0-21.9 4.4-29.9 12.4l-27.2 27.1c-6.6 6.6-15.5 10.3-24.8 10.3h-127c-9.4 0-18.2-3.7-24.8-10.3l-56.9-56.9c-8-8-18.6-12.4-29.9-12.4h-78.7c-1.4-3.5-4.8-5.9-8.8-5.9-5.2 0-9.5 4.3-9.5 9.5 0 5.3 4.2 9.5 9.5 9.5zm0-16.6c3.5 0 6.4 2.6 7 5.9h80.5c10.7 0 20.7 4.2 28.2 11.7l56.9 56.9c7.1 7.1 16.5 11 26.5 11h127c10 0 19.4-3.9 26.5-11l27.2-27.2c7.6-7.5 17.5-11.7 28.2-11.7h197.7v2.4h-197.7c-10 0-19.4 3.9-26.5 11l-27.2 27.2c-7.6 7.6-17.5 11.7-28.2 11.7h-127c-10.7 0-20.7-4.1-28.2-11.7l-56.9-56.9c-7.1-7.1-16.5-11-26.5-11h-80.5c-.6 3.4-3.5 5.9-7 5.9-3.9 0-7.1-3.2-7.1-7.1-.1-3.9 3.1-7.1 7.1-7.1z"/><path d="m569.5 216.5h-268.3c-9.4 0-18.2-3.7-24.8-10.3l-10-10c-8-8-18.6-12.4-29.9-12.4h-42.3c-1.2-3.8-4.8-6.5-9-6.5-5.2 0-9.5 4.3-9.5 9.5s4.3 9.5 9.5 9.5c3.7 0 7-2.1 8.5-5.3h42.8c9.4 0 18.2 3.7 24.8 10.3l10 10c8 8 18.6 12.4 29.9 12.4h248.1m0-2.5h-248.1c-10.7 0-20.7-4.1-28.2-11.7l-10-10c-7.1-7.1-16.5-11-26.5-11h-44.4c-.8 3.1-3.5 5.3-6.9 5.3-3.9 0-7.1-3.2-7.1-7.1s3.2-7.1 7.1-7.1c3.7 0 6.8 2.9 7.1 6.5h44.3c10.7 0 20.7 4.2 28.2 11.7l10 10c7.1 7.1 16.5 11 26.5 11h268.3"/><path d="m472 421.1h-261c-9.4 0-18.2-3.7-24.8-10.3l-10-10c-8-8-18.6-12.4-29.9-12.4h-42.3c-1.2-3.8-4.8-6.5-9-6.5-5.2 0-9.5 4.3-9.5 9.5s4.3 9.5 9.5 9.5c3.7 0 7-2.1 8.5-5.3h42.8c9.4 0 18.2 3.7 24.8 10.3l10 10c8 8 18.6 12.4 29.9 12.4h261m0-2.5h-261c-10.7 0-20.7-4.1-28.2-11.7l-10-10c-7.1-7.1-16.5-11-26.5-11h-44.4c-.8 3.1-3.5 5.3-6.9 5.3-3.9 0-7.1-3.2-7.1-7.1s3.2-7.1 7.1-7.1c3.7 0 6.8 2.9 7.1 6.5h44.3c10.7 0 20.7 4.2 28.2 11.7l10 10c7.1 7.1 16.5 11 26.5 11h261"/><path d="m454.2 434.6-71.2 71.2c-6.6 6.6-15.5 10.3-24.8 10.3h-109.2c-9.4 0-18.2-3.7-24.8-10.3l-90.7-90.7c-8-8-18.6-12.4-29.9-12.4h-85c-1.2-3.8-4.8-6.5-9-6.5-5.2 0-9.5 4.3-9.5 9.5s4.3 9.5 9.5 9.5c3.7 0 7-2.1 8.5-5.3h85.5c9.4 0 18.2 3.7 24.8 10.3l90.7 90.7c8 8 18.6 12.4 29.9 12.4h109.2c11.3 0 21.9-4.4 29.9-12.4l71.1-71.1m-1.7-1.8-71.1 71.1c-7.6 7.6-17.5 11.7-28.2 11.7h-109.2c-10.7 0-20.7-4.1-28.2-11.7l-90.7-90.7c-7.1-7.1-16.5-11-26.5-11h-87.2c-.8 3.1-3.5 5.3-6.9 5.3-3.9 0-7.1-3.2-7.1-7.1s3.2-7.1 7.1-7.1c3.7 0 6.8 2.9 7.1 6.5h87c10.7 0 20.7 4.2 28.2 11.7l90.7 90.7c7.1 7.1 16.5 11 26.5 11h109.2c10 0 19.4-3.9 26.5-11l71.1-71.1"/><path d="m702.3 414.6-73.9-77.3c-8-8-18.6-12.4-29.9-12.4h-85c-1.2-3.8-4.8-6.5-9-6.5-5.2 0-9.5 4.3-9.5 9.5s4.3 9.5 9.5 9.5c3.7 0 7-2.1 8.5-5.3h85.5c9.4 0 18.2 3.7 24.8 10.3l73.9 77.3m1.8-1.7-73.9-77.3c-7.1-7.1-16.5-11-26.5-11h-87.2c-.8 3.1-3.5 5.3-6.9 5.3-3.9 0-7.1-3.2-7.1-7.1s3.2-7.1 7.1-7.1c3.7 0 6.8 2.9 7.1 6.5h87c10.7 0 20.7 4.2 28.2 11.7l73.9 77.4"/><path d="m437 356.6-133.8 133.7c-6.6 6.6-15.5 10.3-24.8 10.3h-115.2c-9.4 0-18.2-3.7-24.8-10.3l-20.1-20.1c-8-8-18.6-12.4-29.9-12.4h-54.4c-1.7-2.9-4.8-4.7-8.2-4.7-5.2 0-9.5 4.3-9.5 9.5s4.3 9.5 9.5 9.5c4.4 0 8.1-3 9.2-7.1h53.4c9.4 0 18.2 3.7 24.8 10.3l20.1 20.1c8 8 18.6 12.4 29.9 12.4h115.2c11.3 0 21.9-4.4 29.9-12.4l133.7-133.7m-1.7-1.7-133.7 133.7c-7.6 7.6-17.5 11.7-28.2 11.7h-115.2c-10.7 0-20.7-4.1-28.2-11.7l-20-20.1c-7.1-7.1-16.5-11-26.5-11h-55.5c0 3.9-3.2 7.1-7.1 7.1s-7.1-3.2-7.1-7.1 3.2-7.1 7.1-7.1c3.1 0 5.7 2 6.7 4.7h55.9c10.7 0 20.7 4.2 28.2 11.7l20.1 20.1c7.1 7.1 16.5 11 26.5 11h115.2c10 0 19.4-3.9 26.5-11l133.7-133.7"/><path d="m877.4 405.3c-9.4 0-18.2-3.6-24.8-10.3l-9.4-9.4c-8-8-18.6-12.4-29.9-12.4h-166.2c-11.3 0-21.9 4.4-29.9 12.4l-8.8 8.8c-6.6 6.6-15.5 10.3-24.8 10.3h-79.1c-1.2-3.8-4.8-6.5-9-6.5-5.2 0-9.5 4.3-9.5 9.5s4.3 9.5 9.5 9.5c3.7 0 7-2.1 8.5-5.3h79.6c11.3 0 21.9-4.4 29.9-12.4l8.8-8.8c6.6-6.6 15.5-10.3 24.8-10.3h166.2c9.4 0 18.2 3.7 24.8 10.3l9.4 9.4c8 8 18.6 12.4 29.9 12.4m0-2.5c-10.7 0-20.7-4.1-28.2-11.7l-9.4-9.4c-7.1-7.1-16.5-11-26.5-11h-166.2c-10 0-19.4 3.9-26.5 11l-8.8 8.8c-7.6 7.6-17.5 11.7-28.2 11.7h-81.3c-.8 3.1-3.5 5.3-6.9 5.3-3.9 0-7.1-3.2-7.1-7.1s3.2-7.1 7.1-7.1c3.7 0 6.8 2.9 7.1 6.5h81.1c10 0 19.4-3.9 26.5-11l8.8-8.8c7.6-7.5 17.5-11.7 28.2-11.7h166.2c10.7 0 20.7 4.2 28.2 11.7l9.4 9.4c7.1 7.1 16.5 11 26.5 11"/><path d="m890.1 326.5c-8-8-15.9-9.9-27.2-9.9h-119.9c-11.3 0-21.9 4.4-29.9 12.4l-26 26c-6.6 6.6-15.5 10.3-24.8 10.3h-81.1c-1.4-3.5-4.8-5.9-8.8-5.9-5.2 0-9.5 4.3-9.5 9.5s4.3 9.5 9.5 9.5c3.9 0 7.4-2.4 8.8-5.9h81.1c11.3 0 21.9-4.4 29.9-12.4l26-26c6.6-6.6 15.5-10.3 24.8-10.3h119.9c9.4 0 18.2 3.7 24.8 10.3m1.7-1.8c-7.1-7.1-16.5-11-26.5-11h-119.9c-10 0-19.4 3.9-26.5 11l-26 26c-7.6 7.6-17.5 11.7-28.2 11.7h-82.9c-.6 3.4-3.5 5.9-7 5.9-3.9 0-7.1-3.2-7.1-7.1s3.2-7.1 7.1-7.1c3.5 0 6.4 2.6 7 5.9h82.9c10 0 19.4-3.9 26.5-11l26-26c7.6-7.5 17.5-11.7 28.2-11.7h119.9c10.7 0 17.2 2.7 24.8 10.3"/><path d="m137.7 237.1c3.7 0 7-2.1 8.5-5.3h42.8c9.4 0 18.2 3.7 24.8 10.3l62.2 62.2c8 8 18.6 12.4 29.9 12.4 9.4 0 18.2 3.7 24.8 10.3l204.2 204c8 8 18.6 12.4 29.9 12.4h181v-7.1h-181c-9.4 0-18.2-3.7-24.8-10.3l-204.2-204.1c-8-8-18.6-12.4-29.9-12.4-9.4 0-18.2-3.6-24.8-10.3l-62.2-62.2c-8-8-18.6-12.4-29.9-12.4h-42.3c-1.2-3.8-4.8-6.5-9-6.5-5.2 0-9.5 4.3-9.5 9.5s4.3 9.5 9.5 9.5zm0-16.7c3.7 0 6.8 2.9 7.1 6.5h44.2c10.7 0 20.7 4.2 28.2 11.7l62.2 62.2c7.1 7.1 16.5 11 26.5 11 10.7 0 20.7 4.2 28.2 11.7l204.1 204.1c7.1 7.1 16.5 11 26.5 11h178.7v2.4h-178.6c-10.7 0-20.7-4.1-28.2-11.7l-204.1-204.1c-7.1-7.1-16.5-11-26.5-11-10.7 0-20.7-4.1-28.2-11.7l-62.2-62.2c-7.1-7.1-16.5-11-26.5-11h-44.4c-.8 3.1-3.5 5.3-6.9 5.3-3.9 0-7.1-3.2-7.1-7.1-.1-3.9 3.1-7.1 7-7.1z"/><path d="m858.4 407.6c-8-8-18.6-12.4-29.9-12.4h-163.8c-11.3 0-21.9 4.4-29.9 12.4l-27.8 27.8c-6.6 6.6-15.5 10.3-24.8 10.3h-34c-1.2-3.8-4.8-6.5-9-6.5-5.2 0-9.5 4.3-9.5 9.5s4.3 9.5 9.5 9.5c3.7 0 7-2.1 8.5-5.3h34.5c11.3 0 21.9-4.4 29.9-12.4l27.8-27.8c6.6-6.6 15.5-10.3 24.8-10.3h163.8c9.4 0 18.2 3.7 24.8 10.3m1.7-1.8c-7.1-7.1-16.5-11-26.5-11h-163.8c-10 0-19.4 3.9-26.5 11l-27.8 27.8c-7.6 7.6-17.5 11.7-28.2 11.7h-36.2c-.8 3.1-3.5 5.3-6.9 5.3-3.9 0-7.1-3.2-7.1-7.1s3.2-7.1 7.1-7.1c3.7 0 6.8 2.9 7.1 6.5h35.9c10 0 19.4-3.9 26.5-11l27.8-27.8c7.6-7.5 17.5-11.7 28.2-11.7h163.8c10.7 0 20.7 4.2 28.2 11.7"/><path d="m348.4 322.5c-9.4 0-18.2-3.6-24.8-10.3l-88.9-88.9c-8-8-18.6-12.4-29.9-12.4h-113.8c-1.7-2.9-4.8-4.7-8.2-4.7-5.2 0-9.5 4.3-9.5 9.5s4.3 9.5 9.5 9.5c4.4 0 8.1-3 9.2-7.1h112.8c9.4 0 18.2 3.7 24.8 10.3l88.9 88.9c8 8 18.6 12.4 29.9 12.4m0-2.4c-10.7 0-20.7-4.1-28.2-11.7l-88.9-88.9c-7.1-7.1-16.5-11-26.5-11h-114.8c0 3.9-3.2 7.1-7.1 7.1s-7.1-3.2-7.1-7.1 3.2-7.1 7.1-7.1c3.1 0 5.7 2 6.7 4.7h115.3c10.7 0 20.7 4.2 28.2 11.7l88.9 88.9c7.1 7.1 16.5 11 26.5 11"/><path d="m403.3 306.7c-9.4 0-18.2-3.7-24.8-10.3l-38.5-38.4c-8-8-18.6-12.4-29.9-12.4h-120.7c-1.2-3.8-4.8-6.5-9-6.5-5.2 0-9.5 4.3-9.5 9.5s4.3 9.5 9.5 9.5c3.7 0 7-2.1 8.5-5.3h121.1c9.4 0 18.2 3.7 24.8 10.3l38.5 38.5c8 8 18.6 12.4 29.9 12.4m.1-2.5c-10.7 0-20.7-4.1-28.2-11.7l-38.5-38.5c-7.1-7.1-16.5-11-26.5-11h-122.8c-.8 3.1-3.5 5.3-6.9 5.3-3.9 0-7.1-3.2-7.1-7.1s3.2-7.1 7.1-7.1c3.7 0 6.8 2.9 7.1 6.5h122.6c10.7 0 20.7 4.2 28.2 11.7l38.5 38.5c7.1 7.1 16.5 11 26.5 11"/><path d="m239.8 144.1c3.7 0 7-2.1 8.5-5.3h121.1c9.4 0 18.2 3.7 24.8 10.3l38.5 38.5c8 8 18.6 12.4 29.9 12.4h163.8c11.3 0 21.9-4.4 29.9-12.4l4.7-4.6c6.6-6.6 15.5-10.3 24.8-10.3h86.1v-7.1h-86.1c-11.3 0-21.9 4.4-29.9 12.4l-4.7 4.6c-6.6 6.6-15.5 10.3-24.8 10.3h-163.7c-9.4 0-18.2-3.7-24.8-10.3l-38.6-38.6c-8-8-18.6-12.4-29.9-12.4h-120.6c-1.2-3.8-4.8-6.5-9-6.5-5.2 0-9.5 4.3-9.5 9.5s4.3 9.5 9.5 9.5zm0-16.7c3.7 0 6.8 2.9 7.1 6.5h122.6c10.7 0 20.7 4.2 28.2 11.7l38.5 38.5c7.1 7.1 16.5 11 26.5 11h163.8c10 0 19.4-3.9 26.5-11l4.6-4.7c7.6-7.5 17.5-11.7 28.2-11.7h83.7v2.4h-83.7c-10 0-19.4 3.9-26.5 11l-4.6 4.6c-7.6 7.6-17.5 11.7-28.2 11.7h-163.8c-10.7 0-20.7-4.1-28.2-11.7l-38.5-38.4c-7.1-7.1-16.5-11-26.5-11h-122.8c-.8 3.1-3.5 5.3-6.9 5.3-3.9 0-7.1-3.2-7.1-7.1 0-3.8 3.2-7.1 7.1-7.1z"/><path d="m1510.4 195.3h-128.9c-11.4 0-22.2 4.5-30.3 12.6l-57.7 57.7c-6.7 6.7-15.7 10.5-25.2 10.5h-79.9c-1.4-3.6-4.9-6-8.9-6-5.3 0-9.6 4.3-9.6 9.6s4.3 9.6 9.6 9.6c4 0 7.5-2.5 8.9-6h79.9c11.4 0 22.2-4.5 30.3-12.6l57.7-57.7c6.7-6.7 15.7-10.4 25.2-10.4h128.9c9.5 0 18.5 3.7 25.2 10.4m1.7-1.8c-7.2-7.2-16.7-11.1-26.9-11.1h-128.9c-10.2 0-19.7 4-26.9 11.1l-57.7 57.7c-7.7 7.6-17.8 11.9-28.6 11.9h-81.7c-.6 3.4-3.5 6-7.1 6-4 0-7.2-3.3-7.2-7.2 0-4 3.2-7.2 7.2-7.2 3.6 0 6.5 2.6 7.1 6h81.7c10.2 0 19.7-4 26.9-11.2l57.7-57.7c7.7-7.7 17.8-11.9 28.6-11.9h128.9"/><path d="m1425.8 252.5c-11.4 0-22.2 4.5-30.3 12.6l-10.1 10.1c-6.7 6.7-15.7 10.5-25.2 10.5h-43.4c-1.6-3.3-4.9-5.4-8.7-5.4-5.3 0-9.6 4.3-9.6 9.6s4.3 9.6 9.6 9.6c4.3 0 7.9-2.7 9.1-6.6h42.9c11.4 0 22.2-4.5 30.3-12.6l10.1-10.1c6.7-6.7 15.7-10.4 25.2-10.4m.1-2.5c-10.2 0-19.7 4-26.9 11.1l-10.1 10.1c-7.7 7.6-17.8 11.9-28.6 11.9h-44.9c-.3 3.7-3.4 6.6-7.2 6.6-4 0-7.2-3.3-7.2-7.2 0-4 3.2-7.2 7.2-7.2 3.4 0 6.2 2.3 7 5.4h45.1c10.2 0 19.7-4 26.9-11.2l10.1-10.1c7.7-7.7 17.8-11.9 28.6-11.9"/><path d="m786.8 122.1c-11.9 0-17.7 4.4-26.1 12.9l-7.4 7.5c-7 7.1-16.3 11-26.1 11h-282.3c-11.9 0-23 4.7-31.4 13.2l-10.5 10.7c-7 7.1-16.3 11-26.1 11h-45c-1.6-3.5-5.1-5.7-9-5.7-5.5 0-10 4.5-10 10.2 0 5.6 4.5 10.2 10 10.2 4.4 0 8.2-2.9 9.5-7h44.5c11.9 0 23-4.7 31.4-13.3l10.5-10.7c7-7.1 16.3-11 26.1-11h282.3c11.9 0 23-4.7 31.4-13.3l7.4-7.5c7-7.1 16.3-11 26.1-11m0-2.4c-10.5 0-20.5 4.2-27.9 11.7l-7.4 7.5c-7.9 8.1-18.5 12.5-29.7 12.5h-282.2c-10.5 0-20.5 4.2-27.9 11.7l-10.5 10.7c-7.9 8.1-18.5 12.5-29.7 12.5h-46.6c-.3 3.9-3.5 7-7.4 7-4.1 0-7.5-3.4-7.5-7.6s3.3-7.6 7.5-7.6c3.5 0 6.4 2.4 7.2 5.7h46.8c10.5 0 20.5-4.2 27.9-11.8l10.5-10.7c7.9-8.1 18.5-12.5 29.7-12.5h282.3c10.5 0 20.5-4.2 27.9-11.8l7.4-7.5c7.9-8.1 18.5-12.5 29.7-12.5"/><path d="m1563.6 252.9c-8.1-8.1-18.9-12.6-30.3-12.6h-110.9c-11.4 0-22.2 4.5-30.3 12.6l-92.1 92.1c-6.7 6.7-15.7 10.5-25.2 10.5h-86.8c-1.6-3.3-4.9-5.4-8.7-5.4-5.3 0-9.6 4.3-9.6 9.6s4.3 9.6 9.6 9.6c4.3 0 7.9-2.7 9.1-6.6h86.3c11.4 0 22.2-4.5 30.3-12.6l92.1-92.1c6.7-6.7 15.7-10.4 25.2-10.4h110.9c9.5 0 18.5 3.7 25.2 10.4m1.8-1.7c-7.2-7.2-16.7-11.1-26.9-11.1h-110.9c-10.2 0-19.7 4-26.9 11.1l-92.1 92.1c-7.7 7.6-17.8 11.9-28.6 11.9h-88.3c-.3 3.7-3.4 6.6-7.2 6.6-4 0-7.2-3.3-7.2-7.2 0-4 3.2-7.2 7.2-7.2 3.4 0 6.2 2.3 7 5.4h88.5c10.2 0 19.7-4 26.9-11.2l92.1-92.1c7.7-7.7 17.8-11.9 28.6-11.9h110.9c10.8 0 21 4.2 28.6 11.9"/><path d="m1513.9 380.3c-6.7 6.7-15.7 10.5-25.2 10.5h-86.8c-1.6-3.3-4.9-5.4-8.7-5.4-5.3 0-9.6 4.3-9.6 9.6s4.3 9.6 9.6 9.6c4.3 0 7.9-2.7 9.1-6.6h86.3c11.4 0 22.2-4.5 30.3-12.6m-1.6-1.7c-7.7 7.6-17.8 11.9-28.6 11.9h-88.3c-.3 3.7-3.4 6.6-7.2 6.6-4 0-7.2-3.3-7.2-7.2 0-4 3.2-7.2 7.2-7.2 3.4 0 6.2 2.3 7 5.4h88.5c10.2 0 19.7-4 26.9-11.2"/><path d="m446.4 350.6h-139.5c-9.5 0-18.5-3.7-25.2-10.5l-8.9-8.9c-8.1-8.1-18.9-12.6-30.3-12.6h-80.8c-1.6-3.3-4.9-5.4-8.7-5.4-5.3 0-9.6 4.3-9.6 9.6s4.3 9.6 9.6 9.6c4.3 0 7.9-2.7 9.1-6.6h80.3c9.5 0 18.5 3.7 25.2 10.4l8.9 8.9c8.1 8.1 18.9 12.6 30.3 12.6h139.5m.1-2.3h-139.5c-10.8 0-21-4.2-28.6-11.9l-8.9-8.9c-7.2-7.2-16.7-11.1-26.9-11.1h-82.3c-.3 3.7-3.4 6.6-7.2 6.6-4 0-7.2-3.3-7.2-7.2 0-4 3.2-7.2 7.2-7.2 3.4 0 6.2 2.3 7 5.4h82.5c10.8 0 21 4.2 28.6 11.9l8.9 8.9c7.2 7.2 16.7 11.2 26.9 11.2h139.5"/><path d="m1549.7 362.5h-121.7c-9.5 0-18.5-3.7-25.2-10.5l-26.4-26.4c-8.1-8.1-18.9-12.6-30.3-12.6h-82.3c-1.4-3.6-4.9-6-8.9-6-5.3 0-9.6 4.3-9.6 9.6s4.3 9.6 9.6 9.6c4 0 7.5-2.5 8.9-6h82.3c9.5 0 18.5 3.7 25.2 10.4l26.4 26.4c8.1 8.1 18.9 12.6 30.3 12.6h121.7m0-2.2h-121.7c-10.8 0-21-4.2-28.6-11.9l-26.4-26.4c-7.2-7.2-16.7-11.1-26.9-11.1h-84.1c-.6 3.4-3.5 6-7.1 6-4 0-7.2-3.3-7.2-7.2 0-4 3.2-7.2 7.2-7.2 3.6 0 6.5 2.6 7.1 6h84.1c10.8 0 21 4.2 28.6 11.9l26.4 26.4c7.2 7.2 16.7 11.2 26.9 11.2h121.7"/><path d="m383.3 381.7c-6.7 6.7-15.7 10.5-25.2 10.5h-121.8c-9.5 0-18.5-3.7-25.2-10.5l-26.4-26.4c-8.1-8.1-18.9-12.6-30.3-12.6h-82.3c-1.4-3.6-4.9-6-8.9-6-5.3 0-9.6 4.3-9.6 9.6s4.3 9.6 9.6 9.6c4 0 7.5-2.5 8.9-6h82.3c9.5 0 18.5 3.7 25.2 10.4l26.4 26.4c8.1 8.1 18.9 12.6 30.3 12.6h121.7c11.4 0 22.2-4.5 30.3-12.6m-1.6-1.6c-7.7 7.6-17.8 11.9-28.6 11.9h-121.8c-10.8 0-21-4.2-28.6-11.9l-26.4-26.4c-7.2-7.2-16.7-11.1-26.9-11.1h-84.1c-.6 3.4-3.5 6-7.1 6-4 0-7.2-3.3-7.2-7.2 0-4 3.2-7.2 7.2-7.2 3.6 0 6.5 2.6 7.1 6h84.1c10.8 0 21 4.2 28.6 11.9l26.4 26.4c7.2 7.2 16.7 11.2 26.9 11.2h121.7c10.2 0 19.7-4 26.9-11.2"/><path d="m1483.8 275.7c-6.7 6.7-15.7 10.5-25.2 10.5-11.4 0-22.2 4.5-30.3 12.6l-63.2 63.1c-6.7 6.7-15.7 10.5-25.2 10.5h-43.4c-1.6-3.3-4.9-5.4-8.7-5.4-5.3 0-9.6 4.3-9.6 9.6s4.3 9.6 9.6 9.6c4.3 0 7.9-2.7 9.1-6.6h42.9c11.4 0 22.2-4.5 30.3-12.6l63.2-63.1c6.7-6.7 15.7-10.4 25.2-10.4 11.4 0 22.2-4.5 30.3-12.6m-1.6-1.8c-7.7 7.6-17.8 11.9-28.6 11.9-10.2 0-19.7 4-26.9 11.1l-63.1 63.2c-7.7 7.6-17.8 11.9-28.6 11.9h-44.9c-.3 3.7-3.4 6.6-7.2 6.6-4 0-7.2-3.3-7.2-7.2 0-4 3.2-7.2 7.2-7.2 3.4 0 6.2 2.3 7 5.4h45.1c10.2 0 19.7-4 26.9-11.2l63.1-63.1c7.7-7.7 17.8-11.9 28.6-11.9 10.2 0 19.7-4 26.9-11.2"/><path d="m900.8 338.9c-6.7 6.7-15.7 10.4-25.2 10.4l-166.3-.5c-9.5 0-18.5-3.8-25.2-10.5l-28.1-28.3c-8.1-8.1-18.8-12.6-30.3-12.6l-35-.1c-1.6-3.3-4.9-5.4-8.6-5.4-5.3 0-9.7 4.3-9.7 9.6s4.3 9.7 9.6 9.7c4.3 0 7.9-2.7 9.2-6.6l34.5.1c9.5 0 18.5 3.7 25.2 10.5l28.1 28.3c8.1 8.1 18.8 12.6 30.3 12.7l166.3.5c11.4 0 22.2-4.4 30.4-12.5m-1.8-1.8c-7.7 7.6-17.8 11.8-28.7 11.8l-166.3-.5c-10.8 0-21-4.3-28.6-11.9l-28.1-28.3c-7.2-7.2-16.7-11.2-26.9-11.2l-36.5-.1c-.3 3.7-3.4 6.6-7.2 6.6-4 0-7.2-3.3-7.2-7.2 0-4 3.2-7.2 7.2-7.2 3.4 0 6.2 2.3 7 5.4l36.7.1c10.8 0 21 4.3 28.6 11.9l28.1 28.3c7.2 7.2 16.7 11.2 26.9 11.2l166.3.5c10.2 0 19.7-3.9 26.9-11.1"/><path d="m1501.7 272.9c-11.4 0-22.2 4.5-30.3 12.6l-90.3 90.3c-6.7 6.7-15.7 10.5-25.2 10.5h-114.4c-1.1-4.2-4.8-7.2-9.3-7.2-5.3 0-9.6 4.3-9.6 9.6s4.3 9.6 9.6 9.6c3.5 0 6.6-1.9 8.3-4.8h115.5c11.4 0 22.2-4.5 30.3-12.6l90.3-90.3c6.7-6.7 15.7-10.4 25.2-10.4m-.1-2.5c-10.2 0-19.7 4-26.9 11.1l-90.3 90.3c-7.7 7.6-17.8 11.9-28.6 11.9h-117c-1 2.8-3.7 4.8-6.8 4.8-4 0-7.2-3.3-7.2-7.2 0-4 3.2-7.2 7.2-7.2s7.2 3.2 7.2 7.2h116.5c10.2 0 19.7-4 26.9-11.2l90.3-90.3c7.7-7.7 17.8-11.9 28.6-11.9"/><path d="m1547.4 358.8c-11.4 0-22.2 4.5-30.3 12.6l-39.1 39c-6.7 6.7-15.7 10.5-25.2 10.5h-123c-1.6-3.3-4.9-5.4-8.7-5.4-5.3 0-9.6 4.3-9.6 9.6s4.3 9.6 9.6 9.6c4.3 0 7.9-2.7 9.1-6.6h122.5c11.4 0 22.2-4.5 30.3-12.6l39.1-39c6.7-6.7 15.7-10.4 25.2-10.4m.1-2.5c-10.2 0-19.7 4-26.9 11.1l-39 39.1c-7.7 7.6-17.8 11.9-28.6 11.9h-124.5c-.3 3.7-3.4 6.6-7.2 6.6-4 0-7.2-3.3-7.2-7.2 0-4 3.2-7.2 7.2-7.2 3.4 0 6.2 2.3 7 5.4h124.6c10.2 0 19.7-4 26.9-11.2l39-39c7.7-7.7 17.8-11.9 28.6-11.9"/><path d="m274.4 575.6c3.1 0 5.8-1.8 7.1-4.5h28.7c9.4 0 18.2-3.7 24.9-10.3l23.2-23.2c5.5-5.5 12.9-8.6 20.7-8.6h136.6c7.8 0 15.2 3 20.7 8.6l69.2 69.2c6.7 6.7 15.5 10.3 24.9 10.3h29.2v-5.9h-29.2c-7.8 0-15.2-3-20.7-8.6l-69.2-69.2c-6.7-6.7-15.5-10.3-24.9-10.3h-136.6c-9.4 0-18.2 3.7-24.9 10.3l-23.2 23.2c-5.5 5.5-12.9 8.6-20.7 8.6h-28.3c-1-3.2-4-5.4-7.5-5.4-4.4 0-7.9 3.6-7.9 7.9 0 4.4 3.5 7.9 7.9 7.9zm0-13.8c3.1 0 5.6 2.4 5.9 5.4h30c8.4 0 16.2-3.2 22.1-9.1l23.2-23.2c6.3-6.3 14.6-9.7 23.5-9.7h136.6c8.9 0 17.2 3.5 23.5 9.7l69.2 69.2c5.9 5.9 13.8 9.1 22.1 9.1h135.1l-81.4 2h-53.7c-8.9 0-17.2-3.4-23.5-9.7l-69.2-69.2c-5.9-5.9-13.8-9.2-22.1-9.2h-136.7c-8.4 0-16.2 3.3-22.1 9.2l-23.2 23.2c-6.3 6.3-14.6 9.7-23.5 9.7h-30.1c-.7 2.6-2.9 4.5-5.7 4.5-3.3 0-5.9-2.7-5.9-5.9 0-3.4 2.6-6 5.9-6z"/><path d="m791.6 298.8c-7.4-30.4-22.8-57.4-46.3-80.9-34.6-34.6-76.3-51.8-125.1-51.8s-90.5 17.3-125.1 51.8c-34.6 34.6-51.8 76.3-51.8 125.1s17.3 90.5 51.8 125.1c34.6 34.6 76.2 51.8 125.1 51.8 48.8 0 90.3-17 124.4-51.1l94 94c-59.9 59.9-132.7 89.8-218.4 89.8s-158.7-30.2-219.1-90.5c-60.4-60.4-90.5-133.4-90.5-219.1s30.2-158.7 90.5-219.1c60.4-60.4 133.4-90.5 219.1-90.5s158.7 30.2 219.1 90.5c60.4 60.4 90.5 133.4 90.5 219.1 0 31.3-3.9 60.8-11.7 88.5h-297.9v-132.7z"/></g><path d="m799.8 290.6c-7.4-30.4-22.8-57.4-46.3-80.9-34.6-34.6-76.3-51.8-125.1-51.8s-90.5 17.3-125.1 51.8c-34.6 34.6-51.8 76.3-51.8 125.1s17.3 90.5 51.8 125.1c34.6 34.6 76.2 51.8 125.1 51.8 48.8 0 90.3-17 124.4-51.1l94 94c-59.9 59.9-132.7 89.8-218.4 89.8s-158.8-30.1-219.1-90.4c-60.4-60.4-90.5-133.4-90.5-219.1s30.2-158.7 90.5-219.1c60.4-60.4 133.4-90.5 219.1-90.5s158.7 30.2 219.1 90.5c60.4 60.4 90.5 133.4 90.5 219.1 0 31.3-3.9 60.8-11.7 88.5h-297.9v-132.8z" fill="url(#b)" stroke="#fff" stroke-miterlimit="10"/><path d="m1169.5 472.4c26.3 15.2 55.5 22.8 87.8 22.8 48.8 0 90.5-17.3 125.1-51.8 34.6-34.6 51.8-76.2 51.8-125.1 0-48.8-17.3-90.5-51.8-125.1-34.6-34.6-76.3-51.8-125.1-51.8s-90.5 17.3-125.1 51.8c-33.6 33.6-50.9 73.7-51.8 120.3v491.4h-132.7v-486.6c0-85.7 30.2-158.7 90.5-219.1 60.4-60.4 133.4-90.5 219.1-90.5s158.7 30.2 219.1 90.5c60.4 60.4 90.5 133.4 90.5 219.1s-30.2 158.7-90.5 219.1c-60.4 60.4-133.4 90.5-219.1 90.5-30.9 0-60.1-3.9-87.8-11.7z" fill="#a57d2d"/><path d="m1177.7 464.2c26.3 15.2 55.5 22.8 87.8 22.8 48.8 0 90.5-17.3 125.1-51.8 34.6-34.6 51.8-76.2 51.8-125.1 0-48.8-17.3-90.5-51.8-125.1-34.6-34.6-76.3-51.8-125.1-51.8s-90.5 17.3-125.1 51.8c-33.6 33.6-50.9 73.7-51.8 120.3v491.4h-132.8v-486.6c0-85.7 30.2-158.7 90.5-219.1 60.4-60.4 133.4-90.5 219.1-90.5s158.7 30.2 219.1 90.5c60.4 60.4 90.5 133.4 90.5 219.1s-30.2 158.7-90.5 219.1c-60.4 60.4-133.4 90.5-219.1 90.5-30.9 0-60.1-3.9-87.8-11.7v-143.8z" fill="url(#c)" stroke="#fff" stroke-miterlimit="10"/></svg>