<svg enable-background="new 0 0 319 319" viewBox="0 0 319 319" xmlns="http://www.w3.org/2000/svg" xmlns:xlink="http://www.w3.org/1999/xlink"><linearGradient id="a" gradientUnits="userSpaceOnUse" x1="160.6942" x2="158.3608" y1="319.0326" y2="2.3659"><stop offset="0" stop-color="#666"/><stop offset="1" stop-color="#a7a7a7"/></linearGradient><linearGradient id="b" gradientUnits="userSpaceOnUse" x1="159.6845" x2="159.3512" y1="20.4639" y2="300.1305"><stop offset="0" stop-color="#555"/><stop offset="1"/></linearGradient><path d="m272.7 272-112.7 47-112.9-46.3-47.1-112.7 46.4-112.9 112.6-47.1 113 46.4 47 112.6z" fill="url(#a)"/><path d="m259.8 259.2-99.8 41.7-100.1-41.1-41.8-99.8 41.1-100.1 99.9-41.8 100.1 41.1 41.7 99.9z" fill="url(#b)"/><path d="m102.2 221.1 4.7 21.3 82.1-88.3-79.1-78-5.7 22.2 57.1 56.2z" fill="#d2d2d2"/><image height="86" opacity=".75" overflow="visible" transform="translate(82.6682 33.713)" width="151" xlink:href="255B357C.png"/><path d="m212.2 96-51.9-21.5-56.1 23.8v-19.8l56.1-23 51.9 21.1z" fill="#e6e6e6"/><image height="85" opacity=".75" overflow="visible" transform="translate(80.6682 199.713)" width="155" xlink:href="255B357D.png"/><path d="m214.2 241.8-54.7 21.8-57.3-23.1v-19.4l57.3 24 54.7-24z" fill="#e6e6e6"/></svg>