<svg xmlns="http://www.w3.org/2000/svg" viewBox="0 0 270.28 432"><defs><linearGradient id="0" y1="-.12" x2="0" y2="431.88" gradientUnits="userSpaceOnUse"><stop stop-color="#a7d387"/><stop offset="1" stop-color="#10773e"/></linearGradient></defs><path data-name="path0 fill" d="M135.09,432a6.59,6.59,0,0,1-5.3-2.8L1.19,245a6.53,6.53,0,0,1,1.6-9,6.53,6.53,0,0,1,9,1.6l123.3,176.6,110.7-162.4-108,48.1a6.18,6.18,0,0,1-5.9-.3L3.09,222.2a6.14,6.14,0,0,1-2.9-4,6.57,6.57,0,0,1,.8-4.9L128.39,3.1a6.46,6.46,0,0,1,5.5-3.1,6.63,6.63,0,0,1,5.5,3l129.9,206.6a6.31,6.31,0,0,1-.5,7.5,6.52,6.52,0,0,1-7.3,1.9l-127.3-49.9-93.4,45.4a6.44,6.44,0,1,1-5.6-11.6l96.1-46.7a6.29,6.29,0,0,1,5.2-.2L248,199.8,134,18.7,15.29,214.4l120.3,72.2,125.6-55.9a6.38,6.38,0,0,1,7.9,9.4l-128.6,189A6.6,6.6,0,0,1,135.09,432Z" transform="translate(-.01)" fill="url(#0)"/></svg>