<svg xmlns="http://www.w3.org/2000/svg" viewBox="0 0 632.01 564.34"><path fill="#2f3030" d="m416.52 431.47l206.42-13.48-270.9 140.96 64.48-127.48"/><path fill="#828384" d="m309.13 259.38l107.37 172.09-64.47 127.48-42.9-299.57"/><path fill="#39f" d="m429.26 409.4l180.19-350.56-288.79 178.47 108.6 172.09"/><path fill="#343535" d="m320.66 237.3l191.95 9.8-83.35 162.29-108.6-172.09"/><path fill="#06c" d="m429.27 409.4l202.74-12.26-22.56-338.3-180.18 350.56"/><path fill="#131313" d="m632.01 397.14l-119.39-150.03-83.35 162.29 202.74-12.26"/><path fill="#828384" d="m222.11 279.96l59.33 56.63 57.12 215.73-116.45-272.36"/><path fill="#39f" d="m272.6 295.66l-45.59-43.15 228.72-243.68-14.95 66.92-178.72 186.07 10.54 33.84"/><path fill="#343535" d="m272.6 295.66l-45.59-43.15 56.38-12.75-21.33 22.07 10.54 33.83"/><path fill="#828384" d="m142.44 322.87l72.07 38.98 111.3 193.43-183.37-232.41"/><path fill="#39f" d="m195.39 324.83l-55.4-29.91 157.88-294.92 2.69 68.4-124.04 226.27 18.87 30.16"/><path fill="#343535" d="m195.39 324.83l-55.4-29.91 51.23-27.21-14.7 26.97 18.87 30.15"/><path fill="#828384" d="m75.5 379.99l79.68 19.37 156.9 158.61-236.58-177.98"/><path fill="#39f" d="m127.23 368.46l-61.29-14.7 77.23-325.32 20.34 65.46-62.26 250.29 25.98 24.27"/><path fill="#343535" d="m127.23 368.45l-61.29-14.71 42.66-39.22-7.35 29.66 25.98 24.27"/><path fill="#828384" d="m25.26 453.29l81.88-1.96 192.2 113.01-274.08-111.05"/><path fill="#39f" d="M72.08 428.77 9.07 430.24 0 96.1 36.53 153.96 40.7 411.86 72.08 428.77z"/><path fill="#343535" d="m72.07 428.77l-63.01 1.47 31.14-48.79.49 30.4 31.38 16.92"/></svg>