<svg viewBox="0 0 245.17 335.25" xmlns="http://www.w3.org/2000/svg" xmlns:xlink="http://www.w3.org/1999/xlink"><linearGradient id="a" gradientUnits="userSpaceOnUse" x1="67.69" x2="307.13" y1="241.38" y2="79.41"><stop offset="0" stop-color="#562cdd"/><stop offset=".57" stop-color="#567ded"/><stop offset=".6" stop-color="#6187ef"/><stop offset=".66" stop-color="#6c91f1"/><stop offset=".75" stop-color="#7397f2"/><stop offset="1" stop-color="#7599f2"/></linearGradient><linearGradient id="b" x1="136.34" x2="375.78" xlink:href="#a" y1="342.87" y2="180.89"/><linearGradient id="c" x1="38.45" x2="277.89" xlink:href="#a" y1="198.16" y2="36.19"/><linearGradient id="d" x1="106.79" x2="346.23" xlink:href="#a" y1="299.18" y2="137.21"/><path d="m155.35 253.14 12.65-7.22 24.61-14a9.88 9.88 0 0 0 5-8.52l.19-35.15a9.87 9.87 0 1 0 -19.74-.11l-.13 23.75a9.85 9.85 0 0 1 -5 8.52l-20.24 11.54-5.83 3.33-4.5 2.56a9.86 9.86 0 0 1 -9.87-.05l-25.43-14.87 12.65-7.21 20.58-11.71 13.88-8c2.35-1.34 3.59-4.21 3.25-7.54a12.3 12.3 0 0 0 -4.92-8.63c-2.69-2-5.79-2.38-8.14-1l-15.81 9-21.82 12.43-9.47 5.4.12-21.77v-7.68a9.88 9.88 0 0 1 5-8.52l8.71-5 21.91-12.41a9.86 9.86 0 0 1 9.87.06l20.51 12a9.87 9.87 0 1 0 10-17l-30.38-17.81a9.86 9.86 0 0 0 -9.87 0l-31.65 18-13.57 7.74-5.16 2.94a9.88 9.88 0 0 0 -5 8.52l-.13 24.52-.17 27.75v5.73a9.86 9.86 0 0 0 4.89 8.58l5 2.89 15.04 8.8 30 17.54a9.86 9.86 0 0 0 9.87.05z" fill="url(#a)" transform="translate(-77.42 -32.38)"/><path d="m255.22 262.22-26-15-24.23-14a9.9 9.9 0 0 0 -9.88 0l-19.43 11.22-4.87 2.81-25.92 15a9.87 9.87 0 0 0 -4.93 8.55v58a9.89 9.89 0 0 0 4.93 8.55l41.68 24.06 8.54 4.93a9.9 9.9 0 0 0 9.88 0l39.32-22.7 10.9-6.29a9.89 9.89 0 0 0 4.93-8.55v-58a9.87 9.87 0 0 0 -4.92-8.58zm-14.81 55.14a9.88 9.88 0 0 1 -4.94 8.55l-30.47 17.59a9.9 9.9 0 0 1 -9.88 0l-3.05-1.76-27.42-15.83a9.88 9.88 0 0 1 -4.94-8.55v-35.19a9.86 9.86 0 0 1 4.94-8.55l19-11 8.72-5 2.73-1.58a9.9 9.9 0 0 1 9.88 0l30.47 17.6a9.86 9.86 0 0 1 4.94 8.55v35.19z" fill="url(#b)" transform="translate(-77.42 -32.38)"/><path d="m144.9 126.38 29.67 17.13 13.58 7.84 2 1.16 5 2.87a9.9 9.9 0 0 0 9.88 0l5-2.87 13.28-7.67 32-18.46a9.87 9.87 0 0 0 4.93-8.55v-58a9.87 9.87 0 0 0 -4.93-8.55l-21.46-12.28-9.08-5.24a9.87 9.87 0 0 0 -14.77 8.5 9.86 9.86 0 0 0 4.94 8.55l3.06 1.78 17.5 10.1a9.89 9.89 0 0 1 4.94 8.55v35.19a9.88 9.88 0 0 1 -4.94 8.55l-12.88 7.44-12.62 7.29-5 2.87a9.9 9.9 0 0 1 -9.88 0l-5-2.87-14.53-8.39-11-6.34a9.76 9.76 0 0 1 -3.18-2.94c-.6-1.46-1.15-2.91-1.67-4.35a8.69 8.69 0 0 1 -.09-1.26v-35.19a9.89 9.89 0 0 1 4.94-8.55l20.57-11.88a9.88 9.88 0 0 0 4.94-8.55 9.88 9.88 0 0 0 -14.81-8.55l-18.22 10.56-12.17 7a9.87 9.87 0 0 0 -4.9 8.57v58a9.87 9.87 0 0 0 4.9 8.54z" fill="url(#c)" transform="translate(-77.42 -32.38)"/><path d="m317.65 156.27-26-15-15.65-9.09a2.37 2.37 0 0 0 -3.55 2v17.36a2.38 2.38 0 0 0 1.18 2l24.3 14a9.91 9.91 0 0 1 4.94 8.56v35.23a9.91 9.91 0 0 1 -4.97 8.67l-5.11 3a2.36 2.36 0 0 1 -3.24-.89l-11.06-19.85-27.08-48.62-8.41-15.2a2.37 2.37 0 0 0 -3.25-.89l-1.6.92-13.52 7.82-17.27 10a9.91 9.91 0 0 0 -4.69 6.39 10.45 10.45 0 0 0 -.24 2.17v58a9.9 9.9 0 0 0 4.93 8.56l41.64 24.11a2.36 2.36 0 0 0 3.55-2v-17.4a2.37 2.37 0 0 0 -1.19-2.05l-24.29-14a9.89 9.89 0 0 1 -4.94-8.56v-35.27a10.14 10.14 0 0 1 .27-2.27 9.87 9.87 0 0 1 4.67-6.29l5-2.92a2.36 2.36 0 0 1 3.25.9l11 19.81 27.1 48.66 8.58 15.16a2.35 2.35 0 0 0 3.24.9l15.12-8.74 6.43-3.72 10.45-6 .45-.26a9.9 9.9 0 0 0 4.93-8.56v-58a9.9 9.9 0 0 0 -4.97-8.64z" fill="url(#d)" transform="translate(-77.42 -32.38)"/></svg>