<svg viewBox="0 0 964.5 967.06" xmlns="http://www.w3.org/2000/svg"><path d="m203.05 602.75c32.85-128.41 165.73-179.17 165.73-179.17-61.21-100-61.21-194.1-31.35-274.72s83.57-119.44 104.51-135.86a145.49 145.49 0 0 1 21.06-13c-257.48 10.5-463 222.51-463 482.56 0 207.63 131 384.65 314.9 452.92-144.67-79.24-144.46-205.25-111.85-332.73" fill="#5baad7"/><path d="m716.61 62.08v.19s31.36 40.31 41.81 97-1.42 113.52-28.33 150.85-46.28 37.32-61.21 35.88-62.71-28.37-37.33-53.75 31.81-46.63 40.45-93.64c9-49-13.58-113.89-68.82-119.87s-126.9 49.26-131.38 186.59 95.55 203.05 97 204.54 0 3-1.49 4.48c-56.73 14.93-80.62 37.33-101.53 55.24s-61.17 68.68-80.58 131.41-26.88 204.53 104.51 212 179.17-71.66 186.63-74.65 14.93-6 16.43 9-39.68 61.41-62.71 82.12c-19.06 17.14-89.55 69.85-189 75.93 13.35 1.11 26.85 1.71 40.49 1.71 266.75 0 483-216.25 483-483 0-181.4-100-339.41-247.89-422" fill="#878787"/></svg>