<svg xmlns="http://www.w3.org/2000/svg" width="2000" height="2000" viewBox="0 0 2000 2000"><g fill="#25aae3"><path d="M371.89,1687.33a56.47,56.47,0,0,0,1.76-8.34L705,1650.21a47.11,47.11,0,0,0,70.13,39l184,226.36Zm942.34-39.48,313.11,14.26a48.15,48.15,0,0,0,.88,25.55l-590.41,236.06a49.22,49.22,0,0,0-10.2-10l212.49-226.63a47,47,0,0,0,26.6,8.17,47.57,47.57,0,0,0,47.54-47.38m-527.57,32.74a47.2,47.2,0,0,0,13.27-33,18,18,0,0,0-.22-2.41h419.6c-.06.82-.27,1.59-.27,2.41a47.18,47.18,0,0,0,10.64,29.61l-215.5,229.92a45.33,45.33,0,0,0-39.43,5ZM1045.1,1498l185.23,119.1a47.12,47.12,0,0,0-8.06,13.82H796.81a24.54,24.54,0,0,0-1.1-2.8l179.75-128.42a47,47,0,0,0,34.11,14.59A47.52,47.52,0,0,0,1045.1,1498M403.42,1272.17l559.26,186.39a50.79,50.79,0,0,0-.77,8.11,47.34,47.34,0,0,0,5.32,21.44L787.87,1616.21A47.45,47.45,0,0,0,752.39,1600a48,48,0,0,0-27.53,8.88Zm908.45,361.25a47.05,47.05,0,0,0-15.68-22.87l360.32-344.64a47.12,47.12,0,0,0,29.17,10.31L1671.16,1626a47.64,47.64,0,0,0-31.37,13.71,48.69,48.69,0,0,0-6.52,8.28ZM368.38,1260.49l6.09,2,340.2,356.43a47.78,47.78,0,0,0-8.23,16.83l-333.12,29a46.76,46.76,0,0,0-42.39-38.49V1275.9a20,20,0,0,0,2.41.33,47.32,47.32,0,0,0,35-15.74M1052.89,1486a45.36,45.36,0,0,0,4.17-19.3,47,47,0,0,0-.93-9.71l583.55-216.76a44.69,44.69,0,0,0,7,15.41l-363.34,347.55a45.93,45.93,0,0,0-16.61-3.18,46.83,46.83,0,0,0-25.17,7.4Zm-5.1-47.38,400.13-400.35a46.71,46.71,0,0,0,54.45,1.43l146.68,158.86a47.29,47.29,0,0,0-10.69,26.87L1051,1443.64c-1-1.75-2.08-3.45-3.18-5M571.93,1037.43l408.3,392A48.93,48.93,0,0,0,967.29,1445L382.42,1250.08l-4.66-4.83a46.71,46.71,0,0,0,3.18-16.67,47.25,47.25,0,0,0-10.91-30l146.63-158.86a46.36,46.36,0,0,0,55.27-2.25M1685.3,1627.56l14.75-353.79a47,47,0,0,0,26.27-69.7l194.61-168.62a46.41,46.41,0,0,0,17.82,9.92l-250,583.17a31.52,31.52,0,0,0-3.45-1M61.25,1045.37a47.48,47.48,0,0,0,21-12.94l217.09,162.86a47.34,47.34,0,0,0,17.38,77.7v354a50.33,50.33,0,0,0-5.59,1.59Zm520.6-18.2a47.45,47.45,0,0,0,8.61-27.2c0-.77-.16-1.59-.22-2.36H959.12a47.32,47.32,0,0,0,43.21,37.73v384.39a46.78,46.78,0,0,0-9,2.36Zm434.84,392.56V1034.35a47.78,47.78,0,0,0,35.7-36.74h376.44a17.25,17.25,0,0,0-.27,2.36,47.6,47.6,0,0,0,9.38,28.13l-400.3,400.3a47.73,47.73,0,0,0-20.95-8.66M354.07,756.94,510.35,965.42a47,47,0,0,0-4.17,64.6L359.5,1188.88a47.76,47.76,0,0,0-26.16-8c-.77,0-1.59.22-2.41.22V761.6a19.81,19.81,0,0,0,2.41.38,47.54,47.54,0,0,0,20.73-5M90.31,1020.7a46.73,46.73,0,0,0-4.44-48.8L305.21,752.5a47.59,47.59,0,0,0,11.51,6.25v425.36a47,47,0,0,0-5.32,2.47Zm1623.5-268.2,209.8,209.86a46.71,46.71,0,0,0-11.84,62.13l-194.56,168.67a46.86,46.86,0,0,0-31.42-12.23c-.93,0-1.7.22-2.47.22V761.6a15.47,15.47,0,0,0,2.47.38,47.36,47.36,0,0,0,28-9.49m-201,277.52a46.6,46.6,0,0,0-6-66.24L1654,749.59a48.67,48.67,0,0,0,15,9.16v425.36a47,47,0,0,0-9.54,4.77ZM1016.7,941.85V580.21a47,47,0,0,0,20.95-8.61l400.3,400.3a44,44,0,0,0-6.14,11.4H1052.89a47.64,47.64,0,0,0-36.19-41.45M580.37,971,972.61,563a47,47,0,0,0,29.72,17.22V940.8a47.31,47.31,0,0,0-43.7,42.5H587.28A48.58,48.58,0,0,0,580.37,971m-214.57-222a47.49,47.49,0,0,0,15.13-34.65c0-.17-.06-.22-.06-.44L962.19,536.23a48.83,48.83,0,0,0,2.91,13.93L570.07,961a46.59,46.59,0,0,0-47.93-3.73Zm682-187.48a46.37,46.37,0,0,0,9.1-26.21l583,166.59a51.65,51.65,0,0,0-1.76,12.45,46.73,46.73,0,0,0,6.53,23.74l-150,218.08a47.48,47.48,0,0,0-46.77,5.65ZM1683.33,373c1.7-.38,3.35-1,5-1.43l239.47,574.62L1723.91,742.41a47.36,47.36,0,0,0-38.11-75.73c-.93,0-1.7.16-2.47.22ZM61.25,954.62,311.13,371.4a40.72,40.72,0,0,0,5.59,1.65V669.81a47.22,47.22,0,0,0-21.66,72.6L75.73,961.75a46.81,46.81,0,0,0-14.48-7.13m721-622.6,188,174.54a45.52,45.52,0,0,0-6.36,14.2L378.42,699.69a45.38,45.38,0,0,0-6-12.5L735.72,339.7A47.94,47.94,0,0,0,752.39,343a47,47,0,0,0,29.83-11m272.7,187.86a48.16,48.16,0,0,0-7.13-14.7L1229,324a46.62,46.62,0,0,0,65.8,9.43l352.7,352.7c-.55.82-1.21,1.64-1.76,2.47ZM1304.8,323.36a45.7,45.7,0,0,0,5.43-9L1626,328.63a46.83,46.83,0,0,0,43,45.13V669.81a48.51,48.51,0,0,0-11.46,6.25ZM330.93,373.75a46.61,46.61,0,0,0,43-45.13l334.49-15.13a47.2,47.2,0,0,0,14.42,18.75L362.52,676.94a47.28,47.28,0,0,0-29.17-10.25c-.77,0-1.59.16-2.41.22ZM792,321.61a47,47,0,0,0,4.77-9.71H1220.9l-183.26,183.2a47.36,47.36,0,0,0-28.08-9.43,46.83,46.83,0,0,0-29.45,10.53Zm7.9-26.38a47.16,47.16,0,0,0-17.33-36.46L970.86,85a46.67,46.67,0,0,0,57.25.88L1221.95,279.6a45.17,45.17,0,0,0-2.91,15.63c0,.82.22,1.59.27,2.41H799.72a18,18,0,0,0,.22-2.41m-428.32,16.4L957,67.72a46.22,46.22,0,0,0,3.95,7L769.89,251a47.38,47.38,0,0,0-65.14,44.2c0,1.43.33,2.74.44,4.11L372.39,314.48c-.22-.93-.49-1.92-.77-2.85m666.63-235.9a43.18,43.18,0,0,0,4.72-8l585.47,243.91c-.27.93-.6,1.92-.82,2.85l-313.82-14.31c.11-1.65.44-3.24.44-4.94A47.39,47.39,0,0,0,1229,266.5ZM1000,0a47.49,47.49,0,0,0-47.49,47.6c0,2.19.27,4.22.44,6.31l-587.78,245a52.68,52.68,0,0,0-4.88-6,47.63,47.63,0,0,0-67.39,67.34,62.14,62.14,0,0,0,5.65,4.55L46.61,952.49a47.5,47.5,0,0,0,0,95l251.91,587.78a47.07,47.07,0,0,0-5.65,4.49,47.63,47.63,0,1,0,67.39,67.34,44.34,44.34,0,0,0,5.59-6.85l592.06,230.25a46,46,0,0,0-5.43,21.88,47.57,47.57,0,1,0,95.14,0,46.41,46.41,0,0,0-3-15.79l589.81-236a42.34,42.34,0,0,0,5.32,6.47,47.58,47.58,0,0,0,67.23-67.34,35.62,35.62,0,0,0-5.48-4.49l251.86-587.78a47.55,47.55,0,0,0-1-95.08,39.37,39.37,0,0,0-6.25.66l-245-587.89a38.94,38.94,0,0,0,5.92-4.88,47.58,47.58,0,0,0-67.23-67.34,39.81,39.81,0,0,0-4.93,6L1047,53.9a47.21,47.21,0,0,0,.66-6.31A47.63,47.63,0,0,0,1000,0Z" opacity=".4"/><path d="M1458.25,995.07c0,252.46-204.65,457.11-457.11,457.11S544,1247.54,544,995.07,748.68,538,1001.14,538s457.11,204.65,457.11,457.11"/></g><path d="m1301.6 1009.47c.27-5.21 0 0 0-5.26 0-149.92-110.77-283.06-254.43-305.43v-87.25l-93.06 29v58.29c-143.61 22.33-253.61 146.25-253.61 296.06 0 153.37 115.15 279.66 263.65 297.75v85.93l93.11-29v-60.1c105.28-20.18 190.94-95.3 226.09-194.5h-96.51c-35.7 66.41-105.5 111.59-186.17 111.59-111.75 0-203.05-86.64-211-196.36m14.09-92.79c30.93-78.52 107.37-134.18 196.91-134.18s165.93 55.66 196.91 134.18" fill="#fff"/></svg>