<svg id="Layer_1" xmlns="http://www.w3.org/2000/svg" viewBox="0 0 1368.5 1051.4" width="2500" height="1921"><style>.st0{fill:#1f2250}.st1{fill:#249bd6}</style><path class="st0" d="M220 1050.9c-62.7-.4-138.1-.8-167.5-.9-30.3 0-53-.5-52.5-1 .6-.4 5.3-1.9 10.5-3.1 53-12.6 99.4-51 144.5-119.5 21-32 38.9-64.1 73-131 23-45.2 33.6-65.5 45.8-87.5 41.8-75.4 78.4-121.3 119-148.8 17.8-12.1 32.4-19 52.2-24.8 6.8-1.9 23.7-5.4 26.6-5.4.5 0 .9-.4.9-1 0-.5-1.3-1-2.8-1-1.6 0-7.1-.9-12.3-2-56.5-12-103.2-52.1-149.4-128-16.3-26.8-39-71.4-69.1-135.5-48.7-104-75.6-150.8-109.2-189.7C99.4 36.6 62.1 12.4 27 5c-3.3-.7-6.9-1.7-8-2.2-1.2-.5 54.6-.7 140-.4C337.3 3 406.5 3.7 413.5 5c57.6 10.4 104.8 48.3 150.3 120.9 21.1 33.7 40.4 71.4 82 160.5 5.9 12.7 18.9 39.1 30.1 61.3 4.3 8.6 8.2 15.2 8.8 15 .7-.3 6.4-10.7 12.8-23.4 10.6-20.9 16.6-33.3 30.8-63.4 2.7-5.8 10.9-23.1 18.2-38.5 39.5-83.6 67-130 99.1-167.1C876.4 34.8 913.3 11.8 952.1 4c9.7-2 15.4-2.1 201.5-3.2 105.2-.6 192.8-.9 194.4-.7 2.2.2-.4 1.2-9.1 3.5-59.3 15.5-106.8 61.3-156.6 151.3-7.2 13-36.8 71.2-36.8 72.4 0 .2-2.9 6.4-6.4 13.7-3.5 7.4-11.4 24.2-17.6 37.4-28.8 62-58.1 115.9-79.2 146-41.3 58.9-86.7 91.9-137 99.6-4.9.7-8.8 1.6-8.8 2 0 .3 3.5 1.2 7.8 1.8 59.8 9.3 110.1 48.9 160.4 126.1 19.8 30.3 39.4 65.9 76.3 138.5 35.1 69 53.3 101.6 74.8 133.9 44.4 67 91.9 106 143 117.6 5.3 1.2 9.7 2.6 9.7 3 0 .6-295.3 2.6-364.5 2.4-21.8 0-26.3-.3-34.7-2.2-69.5-15.3-122-65.6-183-175.2-9.1-16.3-25.5-47.6-44.8-85.5-7.8-15.4-16.7-32.7-19.8-38.5-5-9.5-7.2-13.7-16.5-31-9.1-17-19.1-33.9-19.7-33.5-1 .6-17.3 29.3-27.2 48-8.4 15.6-19.6 37.3-40.8 79-50.3 98.6-80.5 145.2-118.4 183-29.8 29.7-61 47.7-96.1 55.7-11.4 2.6-27.2 2.8-183 1.8z" id="layer101"/><path class="st1" d="M977 1048.5c-52.7-8.8-96.8-39.2-139.5-96.1-28.2-37.7-48.5-72.9-96-166-7.8-15.4-16.7-32.7-19.8-38.5-5-9.5-7.2-13.7-16.5-31-9.6-17.9-19.1-33.9-19.9-33.4-.5.3-.7.1-.6-.3.7-2.2-21.5-36.5-36-55.8-44.5-59.3-88.4-89.4-142.2-97.5l-11.5-1.7 6-.7c57.7-7.2 105.9-41.9 149.9-108.1 14.5-21.8 26-40.9 30.8-51 1.2-2.7 2.8-5.4 3.5-6 .7-.5 6.3-11.1 12.5-23.5 10.4-20.6 16.6-33.3 30.6-63 2.7-5.8 10.9-23.1 18.2-38.5 39.5-83.6 67-130 99.1-167.1C876.4 34.8 913.3 11.8 952.1 4c9.7-2 15.4-2.1 201.5-3.2 105.2-.6 192.8-.9 194.4-.7 2.2.2-.4 1.2-9.1 3.5-59.3 15.5-106.8 61.3-156.6 151.3-7.2 13-36.8 71.2-36.8 72.4 0 .2-2.9 6.4-6.4 13.7-3.5 7.4-11.4 24.2-17.6 37.4-28.8 62-58.1 115.9-79.2 146-41.3 58.9-86.7 91.9-137 99.6-4.9.7-8.8 1.6-8.8 2 0 .3 3.5 1.2 7.8 1.8 59.8 9.3 110.1 48.9 160.4 126.1 19.8 30.3 39.4 65.9 76.3 138.5 35.1 69 53.3 101.6 74.8 133.9 44.4 67 91.9 106 143 117.6 5.3 1.2 9.7 2.6 9.7 3s-70.5 1-156.7 1.3c-86.3.4-172.5.9-191.8 1.2-26.4.3-37 .1-43-.9z" id="layer102"/></svg>