<svg xmlns="http://www.w3.org/2000/svg" width="2000" height="1264" viewBox="0 0 2000 1264"><g fill="#008200" transform="translate(0-377.75)"><path d="M1039,892.68l319.69-166L1386,590.44l208.57,1.74a162.27,162.27,0,0,1,18.91,2.3L1868,462.35Q1766.29,383,1607.51,378.61l-466-.87H940.07L769.23,649.43h318.17Z"/><path d="M1710.11 696.42a207.25 207.25 0 0 1 3.17 30.32q3 118.07-55.89 188t-165.66 71.62l-184.62-1.74 17.62-88.09-319.49 165.86L890 1641.75h286.41l88.82-444.48 209.57.87q219.53 0 361.26-111.55t161.67-297.33q12.09-127.47-39.47-221.63"/></g><g fill="#161922"><path d="m71.43 1169.37l-1.71-3.3-69.72 97.93h342.3l213.4-346.03-484.27 251.4"/><path d="m236.78 931.4l605.4-314.29 245.23-345.43h-318.17l-95.62 160.65-111.77-432.33h-316.35l215.56 616.37-224.28 315.03"/><path d="m628.21 880.33l98.3 383.67h321.34l-179.17-508.51-240.47 124.84"/></g></svg>