<svg enable-background="new 0 0 101.6 116.2" viewBox="0 0 101.6 116.2" xmlns="http://www.w3.org/2000/svg" xmlns:xlink="http://www.w3.org/1999/xlink"><linearGradient id="a" gradientUnits="userSpaceOnUse" x1="50.1075" x2="51.4326" y1="109.2479" y2="9.2045"><stop offset="0" stop-color="#5593f2"/><stop offset="1" stop-color="#38ddd1"/></linearGradient><path d="m69.4 69.8-17.8 10.4c-.5.3-1.1.3-1.7 0l-17.7-10.5c-.5-.3-.8-.8-.8-1.4v-20.9c0-.6.3-1.1.8-1.4l17.8-10.4c.5-.3 1.1-.3 1.7 0l17.8 10.4c.5.3.8.8.8 1.4v20.9c-.1.6-.4 1.2-.9 1.5zm-7.1 39.1v-11.2c0-.6-.3-1.1-.8-1.4l-9.9-5.6c-.5-.3-1.1-.3-1.6 0l-9.9 5.6c-.5.3-.8.8-.8 1.4v11.2c0 .6.3 1.1.8 1.4l9.9 5.6c.5.3 1.1.3 1.6 0l9.9-5.6c.5-.3.8-.8.8-1.4zm39.3-22.3v-11.2c0-.6-.3-1.1-.8-1.4l-9.9-5.6c-.5-.3-1.1-.3-1.6 0l-9.9 5.6c-.5.3-.8.8-.8 1.4v11.2c0 .6.3 1.1.8 1.4l9.9 5.6c.5.3 1.1.3 1.6 0l9.9-5.6c.4-.3.7-.8.8-1.4zm0-45.8v-11.2c0-.6-.3-1.1-.8-1.4l-9.9-5.6c-.5-.3-1.1-.3-1.6 0l-9.9 5.6c-.5.3-.8.8-.8 1.4v11.2c0 .6.3 1.1.8 1.4l9.9 5.6c.5.3 1.1.3 1.6 0l9.9-5.6c.4-.2.7-.8.8-1.4zm-39.2-22.3v-11.2c0-.6-.3-1.1-.8-1.4l-9.9-5.6c-.5-.3-1.1-.3-1.6 0l-9.9 5.6c-.5.3-.8.8-.8 1.4v11.2c0 .6.3 1.1.8 1.4l9.9 5.6c.5.3 1.1.3 1.6 0l9.9-5.6c.4-.3.8-.8.8-1.4zm-39.3 22.6v-11.2c0-.6-.3-1.1-.8-1.4l-9.9-5.6c-.5-.3-1.1-.3-1.6 0l-9.9 5.6c-.6.2-.9.8-.9 1.4v11.2c0 .6.3 1.1.8 1.4l9.9 5.6c.5.3 1.1.3 1.6 0l9.9-5.6c.5-.3.8-.8.9-1.4zm0 45.1v-11.2c0-.6-.3-1.1-.8-1.4l-9.9-5.6c-.5-.3-1.1-.3-1.6 0l-9.9 5.6c-.6.2-.9.8-.9 1.4v11.2c0 .6.3 1.1.8 1.4l9.9 5.6c.5.3 1.1.3 1.6 0l9.9-5.6c.5-.3.9-.8.9-1.4zm29.6-4.9c-.2.1-.9.6-2 .6-1 0-1.6-.5-1.8-.6v8.3c.2-.1.9-.6 2-.6 1 0 1.6.5 1.8.6 0-2.8 0-5.6 0-8.3zm17.3-36.6c.2.1 1 .5 1.5 1.4s.4 1.7.4 1.9c2.4-1.4 4.8-2.8 7.2-4.2-.2-.1-1-.5-1.5-1.4s-.4-1.7-.4-1.9c-2.4 1.4-4.8 2.8-7.2 4.2zm-40.1 3.3c0-.2-.1-1.1.4-2 .5-.8 1.2-1.2 1.5-1.3-2.4-1.4-4.8-2.8-7.2-4.2 0 .2.1 1.1-.4 2-.5.8-1.2 1.2-1.5 1.3 2.4 1.4 4.8 2.8 7.2 4.2zm-16.6 1.3c-.3.2-.9.4-1.7.4s-1.5-.3-1.8-.4v17.8c.3-.2.9-.5 1.8-.5.8 0 1.4.3 1.7.5 0-6 0-11.9 0-17.8zm78.5-.1c-.3.2-.9.4-1.7.4s-1.5-.3-1.8-.4v17.8c.3-.2.9-.5 1.8-.5.8 0 1.4.3 1.7.5 0-5.9 0-11.9 0-17.8zm-69.1-22.1c.3.2.8.6 1.2 1.3s.5 1.4.5 1.7c5.1-3 10.2-5.9 15.4-8.9-.3-.2-.9-.5-1.3-1.3-.4-.7-.4-1.4-.4-1.7-5.2 3-10.3 6-15.4 8.9zm39.2 67.8c.3.2.8.6 1.2 1.3s.5 1.4.5 1.7c5.1-2.9 10.1-5.8 15.2-8.8-.3-.2-.9-.5-1.3-1.3-.4-.7-.4-1.4-.4-1.7-5.1 3-10.2 5.9-15.2 8.8zm-23.9 3.1c0-.3.1-1 .5-1.7s1-1.1 1.2-1.3c-5.1-3-10.2-5.9-15.4-8.9 0 .3 0 1-.5 1.8-.4.7-1 1.1-1.3 1.2 5.2 3 10.4 6 15.5 8.9zm39.1-68.1c0-.3.1-1 .5-1.7s1-1.1 1.2-1.3c-5-2.9-10-5.8-15.1-8.7 0 .3 0 1-.5 1.8-.4.7-1 1.1-1.3 1.2 5.2 2.9 10.2 5.8 15.2 8.7z" fill="url(#a)"/></svg>