<svg enable-background="new 0 0 95.8 54.8" viewBox="0 0 95.8 54.8" xmlns="http://www.w3.org/2000/svg"><g fill="#e0c661"><path d="m0 54.8h11.2l7.4-19.4c.6-1.5 2-2.4 3.5-2.4h17.9c.8-1.3 1.7-2.8 2.5-4.6.9-2 1.5-3.9 2-5.5-7.1.1-14.1.1-21.2.2.7-2.1 1.2-3.8 1.5-5 .8-3.2 1-4.7 2.3-5.8.9-.8 1.9-1.1 2.7-1.2h57.2c1.6 0 3.1-.6 4.1-1.8.6-.6 1.1-1.4 1.7-2.2 1.8-2.7 2.6-5.3 3-7h-73c-1.2 0-2.2.7-2.7 1.8z"/><path d="m77.5 22.8h-21.4c-.9 1.4-1.9 3.1-2.7 5.2-.8 1.9-1.3 3.6-1.6 5.1 3.6 0 7.3.1 10.9.1-.4 1.8-1.1 3.9-2 6.1-.7 1.6-1.4 2.9-2.1 4.1-.2.4-.7.6-1.1.6h-26.3c-.8 0-1.6.2-2.3.5-1.1.5-2.4 1.4-3.6 2.8-2.6 3.1-2.6 6.7-2.6 7.6h39.2c.8 0 1.7-.2 2.4-.7 2.4-1.6 3.3-4.1 3.7-5.2 1-3.4 4.8-13 9.5-26.2z"/></g></svg>