<svg xmlns="http://www.w3.org/2000/svg" viewBox="0 0 678 678" enable-background="new 0 0 678 678"><g fill="#27323a"><path d="m0 0h678v678h-678z"/><circle cx="339" cy="339" r="288.5" stroke="#fff" stroke-width="20.887" stroke-miterlimit="10"/></g><path d="m501 149c-109.7 57.4-151.5 105.7-151.5 105.7l-6.5 45.7c-6.5 7.8-11.8-1.3-11.8-1.3l-3.9-23.5-31.3 30c0 57.4-11.8 77-11.8 77-5.2 7.8-10.4 1.3-10.4 1.3l-2.6-60-19.6 17 1.3 95.3c-18.3-3.9-22.2-49.6-22.2-49.6-14.4 13-11.7 60-11.7 60l-32.6-41.8 19.6 48.3-45.7-24.8 35.3 35.3c-18.3 17-2.6 30-2.6 30-3.9-11.8 6.5-15.7 6.5-15.7 15.7-7.8 13.1 14.4 13.1 14.4l-26.1 31.3c-3.9 6.5 2.6 5.2 2.6 5.2l31.3-33.9c18.3 23.5 40.5 18.3 40.5 18.3-27.4-11.7-27.4-39.2-27.4-39.2 23.5 37.9 62.7 24.8 62.7 24.8-44.4-7.8-45.7-35.3-45.7-35.3 97.9 19.6 122.7-7.8 122.7-7.8l-116.2-5.2c27.4-28.7 97.9-17 97.9-17l61.4-80.9 76.5-90.6c7.2-8.5 13-18.2 17.2-28.6 22-56.6-9-84.4-9-84.4m-208.9 265c0 0 112.2-160.6 165.7-198.4.1 0-57.4 97.9-165.7 198.4" fill="#fff"/></svg>