<svg enable-background="new 0 0 32 32" viewBox="0 0 32 32" xmlns="http://www.w3.org/2000/svg"><circle cx="16" cy="16" fill="#42c1ca" r="16"/><path d="m15.9 12.9c.4-1.6.8-3 1.3-3.9.2-.4.9-1.5 1.7-2.2 1.3-1.2 2.8-1.4 4.3-.5l-.2.3.1-.2c.8.5 1.1 1 .9 1.5-.1.4-.5.6-.7.6-.3 0-.6 0-.9-.2-.1-.3-.3-.6-.4-.9-.2-.5-.5-.7-.8-.6-.2 0-.5.2-.6.3l-.2.3c-.3.2-.4.4-.6.6-.5.8-.9 2.2-1.5 5.3l4 .6-.2 1.6-4.1-.6-.2 1.1v.3c0 .1 0 .3-.1.4l4.1.6-.2 1.6-4.2-.6c-.5 2.1-1.1 4.3-1.6 5.2-.2.4-.9 1.5-1.7 2.2-1.3 1.2-2.8 1.4-4.3.5-.8-.5-1.1-1-.9-1.5.1-.4.5-.7.7-.7.3 0 .6 0 .9.2.2.2.4.4.5.7.2.5.5.7.8.6.2 0 .5-.2.6-.3.9-1 1.6-3 2.5-7.5l-4-.6.2-1.6 4.1.6.2-1.1c0-.2.1-.5.1-.7l-4.1-.6.2-1.6c.1.2 4.3.8 4.3.8z" fill="#fff"/></svg>