<svg enable-background="new 0 0 32 32" viewBox="0 0 32 32" xmlns="http://www.w3.org/2000/svg"><g clip-rule="evenodd" fill-rule="evenodd"><circle cx="16" cy="16" fill="#2080a2" r="16"/><path d="m16 20.3c-1.1 1.3-1.2 3.1 0 4.3 1.1-1.1 1.1-3.1 0-4.3m0-12.2c-2.7 3.1-2.6 6.8 0 9.9 2.6-3.1 2.6-6.8 0-9.9m1.9 9c2.3-2.3 5-2.8 8.1-2.3-1 2.3-2.4 4.1-4.9 5.1.6-.4 1.1-.8 1.5-1.2.8-.7 1.3-1.5 1.6-2.5.1-.3 0-.4-.3-.4-1-.2-2 .1-3 .5-1.6.7-2.9 1.8-4.1 3 0 0 0 .1-.1.1 2.4.1 4.2 1 5.2 3.2-1.4.3-2.7.2-3.8-.5.9.3 1.8.5 2.7 0-.1-.2-.2-.4-.4-.6-.4-.4-.9-.7-1.4-1-.8-.4-1.6-.6-2.6-.8 1.3 2.2 1 4.3-.6 6.2-.7-.9-1.2-1.9-1.4-3-.1-1.1.2-2.2.7-3.1-1.2-.2-3.8 1.2-4.2 2.3.9.5 1.9.3 2.8-.1-.7.7-2.6 1-3.9.6 1.1-2.1 2.8-3.1 5.3-3.2-.2-.2-.3-.3-.4-.5-1-1-2.1-1.9-3.3-2.5-1-.5-2.1-.9-3.3-.7-.1 0-.3.1-.5.1.4 1.9 1.6 3 3.1 4-1.6-.2-4.3-3-4.9-5 3.1-.5 5.9 0 8.1 2.4-1.6-4.1-.7-7.8 2.1-11.2 2.7 3.4 3.7 7 1.9 11.1" fill="#fff"/></g></svg>