<svg enable-background="new 0 0 371.9 436.8" viewBox="0 0 371.9 436.8" xmlns="http://www.w3.org/2000/svg" xmlns:xlink="http://www.w3.org/1999/xlink"><linearGradient id="a" gradientUnits="userSpaceOnUse" x1="0" x2="371.946" y1="218.3853" y2="218.3853"><stop offset="0" stop-color="#2d4398"/><stop offset="1" stop-color="#0c7cc5"/></linearGradient><path d="m371.9 209.8c0 8.4-1.2 16.8-4.4 24.6-2.6 6.4-6.7 13.4-13.3 19.9-15.7 15.4-34.5 16.8-39 17-85 0-170 0-255 0-8.1.4-23.2 2.1-39 11.3-9.9 5.8-16.8 12.6-21.3 17.7v-76.1c0-14.4 4.2-28.7 13.1-39.9 1-1.2 2-2.5 3.2-3.7 6.9-7.4 14.5-12.3 21.5-15.4 9.3-4.2 19.4-5.8 29.6-5.8h252.1c7.1-.1 20.6-1.2 34.7-9.2 8.1-4.6 13.9-9.9 17.7-14.2v73.8zm0-209.8c-3.8 4.2-9.6 9.6-17.7 14.2-14.1 8-27.6 9.1-34.7 9.2h-252.1c-10.1 0-20.3 1.7-29.6 5.8-7 3.1-14.7 8-21.5 15.4-1.1 1.2-2.2 2.4-3.2 3.7-8.9 11.3-13.1 25.6-13.1 39.9v76.1c4.4-5.2 11.4-11.9 21.3-17.7 15.8-9.2 30.8-11 39-11.3h255c4.5-.2 23.3-1.6 39-17 6.6-6.5 10.7-13.6 13.3-19.9 3.2-7.8 4.4-16.2 4.4-24.6v-73.8zm-238.5 407.7c-.3 0-49 0-73.1 0-8.1.4-23.2 2.1-39 11.3-9.9 5.8-16.8 12.6-21.3 17.7v-76.1c0-14.4 4.2-28.7 13.1-39.9 1-1.2 2-2.5 3.2-3.7 6.9-7.4 14.5-12.3 21.5-15.4 9.3-4.2 19.4-5.8 29.6-5.8h66.1s.1 111.9-.1 111.9z" fill="url(#a)"/></svg>