<svg enable-background="new 0 0 32 32" viewBox="0 0 32 32" xmlns="http://www.w3.org/2000/svg"><g clip-rule="evenodd" fill-rule="evenodd"><circle cx="16" cy="16" fill="#c40e09" r="16"/><path d="m22.2 7.1c.1.1.2.1.2.2.2.2.4.3.6.5.2.1.3.3.4.5v.1c-.1.3-.2.7-.4 1s-.3.5-.6.7c-.3.3-.6.6-1 .8-.2.1-.3.2-.5.3-.5.3-1 .4-1.6.5-.4.1-.8.1-1.1.2-.5.1-1 .1-1.5.2-.7.1-1.4.3-2.1.6s-1.4.9-1.8 1.6c-.3.5-.4 1-.4 1.6 0 1.1.4 2.1 1 2.9.4.5.9 1 1.3 1.4.3.3.7.6 1 .9l1.2 1.2c.2.2.4.5.5.7.3.4.5.9.6 1.4.1.3.1.6.1.9 0 .4 0 .9-.1 1.3 0 .2 0 .2-.2.2s-.5.1-.7.1-.4 0-.5.1c-.1 0-.1 0-.2 0 .1-.1.1-.3.2-.4.1-.3.2-.6.2-1 .1-.6 0-1.2-.3-1.7-.2-.3-.4-.7-.7-.9-.4-.4-.8-.7-1.2-1.1-.7-.6-1.4-1.2-2-1.9-.4-.4-.7-.8-1-1.3s-.6-1-.8-1.6c-.3-.9-.3-1.8 0-2.7.1-.5.3-1 .6-1.4.4-.6.9-1 1.5-1.3s1.2-.6 1.9-.7c.5-.1 1.1-.2 1.6-.3.6-.1 1.2-.1 1.8-.2.5-.1 1-.1 1.5-.3.4-.1.8-.4 1.2-.7.3-.3.5-.6.7-1 .1-.3.2-.7.3-1.1.3-.1.3-.2.3-.3zm-7.1 12.9c.2 0 .4-.1.6-.1.5-.1 1.1-.3 1.6-.5s.9-.6 1.3-1 .7-.9.8-1.5c.1-.4.1-.7.1-1.1-.1-.7-.3-1.5-.7-2.1-.3-.5-.7-.9-1.1-1.3-.1-.1-.1-.1-.2-.2l.4-.1.8-.1c.1 0 .3 0 .4-.1h.1c.3.3.5.6.8.9.3.4.6.8.8 1.3.2.4.3.9.4 1.3 0 .3.1.6 0 1-.1.9-.4 1.8-.9 2.5-.3.5-.7.8-1.2 1.1-.5.4-1.1.6-1.7.8-.3.1-.5.2-.8.2h-.1c-.5-.2-.9-.6-1.4-1 .1 0 .1 0 0 0zm2.2-9.7-.6.1-.7.1c-.1 0-.2 0-.3 0h-.1c-.3-.3-.5-.5-.8-.8-.1-.2-.3-.3-.4-.5-.4-.6-.7-1.2-.8-2-.1-.6-.1-1.3.1-1.9 0 0 0-.1.1-.1.3 0 .5-.1.8-.2.1.1.4 0 .6 0h.2v.1c-.2.4-.3.8-.4 1.2-.1.6 0 1.2.3 1.7.2.4.5.8.9 1.2.2.4.6.7 1.1 1.1-.1-.1-.1-.1 0 0zm-3.2 11.3h-.4c-.2 0-.4 0-.5.1-.3 0-.6.1-.8.1-1 .2-1.8.8-2.2 1.8-.2.4-.3.8-.3 1.2v.1c-.1 0-.1-.1-.2-.1-.2-.2-.4-.4-.6-.5-.1-.1-.3-.3-.4-.4 0 0-.1-.1 0-.2.2-.7.6-1.3 1.1-1.8.3-.3.7-.6 1.1-.8.6-.3 1.2-.5 1.8-.6h.2.1l.6.5.5.6c-.1-.1 0-.1 0 0zm4.3-4.4h-.1l-3.5-1.1c-.4-.1-.9-.3-1.3-.4-.2-.1-.3-.2-.2-.3 0-.2.1-.4.3-.4h.2c.4.1.7.2 1.1.4l2.6.8 1.1.3c.2 0 .3.2.2.4-.1.1-.2.3-.4.3zm-7.3 6.5h.1l4.8 1.5c.2.1.3.2.2.4 0 .2-.1.4-.3.4-.1 0-.1 0-.2 0-1.3-.4-2.6-.8-4-1.2-.3-.1-.6-.2-.8-.3-.2 0-.3-.2-.2-.3.1-.3.2-.5.4-.5zm10.1-15.8s0 .1-.1.2-.2.2-.4.1l-2.3-.7c-.7-.2-1.6-.5-2.4-.7-.1 0-.2-.1-.3-.3 0-.2.1-.4.3-.4h.1l4.9 1.4c.2.1.2.2.2.4zm-6.9 6.5c0-.2.1-.4.3-.4h.2c.5.1 1 .3 1.5.5l1.8.6c.2 0 .3.2.2.4 0 .2-.2.4-.4.4-.1 0-.2-.1-.3-.1l-2.4-.7-.7-.2c-.1-.2-.2-.4-.2-.5zm-.3 1.9h.2l3 .9c.1 0 .2 0 .3.1.2.1.3.2.2.4 0 .2-.1.3-.3.3-.1 0-.1 0-.2 0-.4-.1-.8-.2-1.1-.4-.7-.2-1.4-.4-2.1-.7-.1 0-.2-.1-.3-.3 0-.2 0-.3.1-.4.1.1.2.1.2.1zm-2.8 9.1c0-.2.1-.4.3-.4h.1c1.1.3 2.2.7 3.3 1 .2.1.3.2.2.4 0 .2-.1.3-.3.3h-.1l-3.1-1c-.1 0-.2-.1-.3-.1 0 .1-.1 0-.1-.2zm1-2.7h.1l3.3 1c.2 0 .3.2.2.3 0 .2-.1.4-.3.4-.1 0-.1 0-.2 0-.9-.3-1.8-.6-2.7-.8-.2-.1-.4-.1-.6-.2-.2 0-.2-.2-.2-.3.1-.2.2-.3.4-.4zm7.6-13.5c-.1 0-.2-.1-.3-.1-1-.3-2.1-.6-3.1-1-.2-.1-.3-.2-.2-.4 0-.1.1-.2.2-.3h.2c.9.3 1.8.6 2.7.9.2.1.4.1.6.2.2 0 .2.2.2.4 0 .1-.1.3-.2.3 0-.1 0-.1-.1 0zm1-2.7c0 .1-.1.3-.2.4-.1 0-.2 0-.2 0l-2.4-.8-.9-.3c-.2-.1-.3-.2-.2-.4 0-.1.1-.3.2-.3h.2c.6.2 1.2.4 1.9.6l1.4.4c.1.1.2.2.2.4z" fill="#fff"/></g></svg>