<svg enable-background="new 0 0 221.4 219" viewBox="0 0 221.4 219" xmlns="http://www.w3.org/2000/svg" xmlns:xlink="http://www.w3.org/1999/xlink"><radialGradient id="a" cx="54.4371" cy="62.1071" gradientUnits="userSpaceOnUse" r="141.3832"><stop offset="0" stop-color="#424242"/><stop offset=".3437" stop-color="#3f3f3f"/><stop offset=".5829" stop-color="#363636"/><stop offset=".7905" stop-color="#272727"/><stop offset=".9789" stop-color="#111"/><stop offset="1" stop-color="#0e0e0e"/></radialGradient><radialGradient id="b" cx="29.4158" cy="33.5114" gradientUnits="userSpaceOnUse" r="192.6941"><stop offset="0" stop-color="#fff"/><stop offset=".2066" stop-color="#fbfbfb"/><stop offset=".3917" stop-color="#f1f1f1"/><stop offset=".5687" stop-color="#dedede"/><stop offset=".7406" stop-color="#c5c5c5"/><stop offset=".9073" stop-color="#a4a4a4"/><stop offset="1" stop-color="#8e8e8e"/><stop offset="1" stop-color="#787878"/></radialGradient><radialGradient id="c" cx="83.5435" cy="185.6816" gradientUnits="userSpaceOnUse" r="49.574"><stop offset="0" stop-color="#b9b9b9"/><stop offset=".2716" stop-color="#b5b5b5"/><stop offset=".5149" stop-color="#ababab"/><stop offset=".7474" stop-color="#989898"/><stop offset=".972" stop-color="#7f7f7f"/><stop offset="1" stop-color="#7b7b7b"/></radialGradient><linearGradient id="d" gradientUnits="userSpaceOnUse" x1="66.4371" x2="190.3039" y1="183.7084" y2="183.7084"><stop offset="0" stop-color="#f3f3f3"/><stop offset="0" stop-color="#f8f8f8"/><stop offset=".0005025145" stop-color="#b9b9b9"/><stop offset=".1977" stop-color="#b5b5b5"/><stop offset=".3744" stop-color="#ababab"/><stop offset=".5433" stop-color="#989898"/><stop offset=".7075" stop-color="#7f7f7f"/><stop offset=".8666" stop-color="#5e5e5e"/><stop offset="1" stop-color="#3c3c3c"/></linearGradient><radialGradient id="e" cx="5.8565" cy="109.5965" gradientUnits="userSpaceOnUse" r="182.8951"><stop offset="0" stop-color="#f3f3f3"/><stop offset="0" stop-color="#f8f8f8"/><stop offset="1" stop-color="#8e8e8e"/><stop offset="1" stop-color="#787878"/></radialGradient><ellipse cx="110.4" cy="107.6" fill="url(#a)" rx="104.2" ry="102.9"/><path d="m13.3 70c-.6-4-1-9.9.2-16.9 4.1-24.4 24-38 28.2-40.9 22.2-14.9 46-12.3 51.7-11.6 6.7.7 13.2 2.4 18.1 3.7 9.3 2.4 18.9 4.8 29.4 10.3 24.2 12.6 37.9 33.1 41.4 40.6.8 1.7 2.1 4.2 4.6 9.3 4.6 9.2 5.2 10.2 6.5 11.5 1.4 1.4 6 6.3 13.1 6.4 5.6 0 9.5-3 10.9-4.1 1.2 6 2.2 10.3 2.4 12 1.8 11.4 1.9 21.8 1.3 30.6-.1 1.1-.8 2.1-1.9 2.4-1.8.6-4 1.1-6.6 1.2-6.1.2-10.4-2.1-16.6-5.1-3.7-1.8-8.7-4.1-14.9-6.9-3.2-1.4-6.2-3.1-9-5-11.6-8.1-20.8-15.2-27.4-20.4-28.3-22.5-41.7-37.3-69.2-49.6-4.9-2.2-9-3.7-11.7-4.7-5.4.7-38.9 5.7-48.4 29.1-.9 2.4-1.7 5.1-2.1 8.1z" fill="url(#b)"/><path d="m13.3 70c1.3-3.2 3.5-7.6 7.4-12 13.9-15.6 35.7-15.8 42.1-15.3 15.3 1.2 26.6 5.5 32.2 8.2 10.1 4.8 17.5 11.1 32.4 23.7 9.5 8 10.2 9.4 16.9 14.8 12.6 10.3 24.8 16.9 32.7 20.9-10.1-7-21.6-15.6-33-26-9.5-8.8-17.6-17.4-24.5-25.5-4.7-4.9-12.3-11.6-23.1-17.1-13.6-6.8-26.1-8.5-33.6-9-15.6.4-26.5 5.3-32.2 8.4-6.5 3.7-13.6 7.9-16.5 16.4-1.7 5-1.3 9.6-.8 12.5z" fill="#9e9e9e"/><path d="m186.9 64.4c1 1.2 11.8 14 17.4 14 .8 0 2.5 0 3.6-1.1 1.2-1.3.9-3.1.8-3.6.8-.1 2.4-.3 4.3.5 2.8 1.1 4 3.5 4.3 4.1-3.9 3.8-7.6 4.4-9.2 4.6-8.2.7-17.3-6.6-21.2-18.5z" fill="#9e9e9e"/><path d="m66.4 203.9v-10.8c0-2.9 1.5-5.6 3.9-7.2.6-.4 1.3-.8 2-1.1 11.1-5.7 21.1.9 39.3 4.8 6 1.3 18.7 1.5 44.2 2 6.4.1 16.6 2.5 23.7-3.1 2.8-2.2 6.1-6.4 6.3-6.7 3.3-4.1 5.3-8.1 6.6-10.8-.1 2.2-.4 5.5-1.8 9.2-.6 1.4-1.7 4.1-4.7 7.9-4.2 5.3-8.8 8.8-11.2 10.5-28.3 19.3-63.9 20.3-63.9 20.3-5 .1-10.8.5-22-1.8-6.5-1.3-12.2-3.3-16.9-5.2-3.3-1.4-5.5-4.5-5.5-8z" fill="url(#c)"/><path d="m192.4 171c-.8.9-2 2.4-3.5 4.2 0 0-1.8 2.1-3.4 3.9-5.3 5.7-22.2 7.8-22.2 7.8-18.2 3.6-32.9 2-40.1 1.2-4.9-.6-8.6-1-13.5-2.3-7.4-1.9-11-4-19.7-6.1-3.8-.9-7-1.5-8.9-1.8-.8-.1-5.5-.7-9.7 2.6-4.2 3.2-4.8 10.3-4.9 11.1 1.8-1.9 4.7-6.8 8.7-7.5 5.5-1 10.1 1.8 12 2.8 14.1 7.9 33.7 9.2 40.9 9.7.2 0 10.8-.9 32.2-2.8h.4c7.2-.7 12.8-1.2 18-3.8 6.9-3.5 10.3-9.3 11-10.6 1.6-3.4 2.3-6.4 2.7-8.4z" fill="url(#d)"/><path d="m4.8 85.7c-1.3 2.5-2.9 6.2-4 11-.9 4-1.2 8.3-.3 17.9 1.1 11.4 1.7 17 4.1 24.6 1.7 5.3 4.7 12.9 10.3 21.3 0-1.1.3-8.2 6.3-13.2 5.5-4.6 11.9-4.1 13-4 1.2 0 3 .1 5.2.5 8.4 1.4 14 5.7 15.8 6.9 11.7 8.3 30.6 14.3 36.8 16.2 13.1 4.2 24.8 5.4 36.4 6.6 7.3.8 13.4 1.1 17.7 1.3 8.4.4 19.9 0 33-3.1 10.5-2.5 19.2-6 25.8-9.3 1.8-1.7 4-4.3 5.7-7.9 3.6-7.3 3.2-14.2 2.8-17.4-2.3 1.7-6 3.8-10.7 4.4-5.2.7-8.1-1.1-20-6.1-15.5-6.4-23.2-9.6-28.1-12.1-13.9-7.2-23.1-13.8-39.8-26.4-8-6.1-20.2-15-34-23.6-4.2-2.7-9.7-6-17.6-8-6.1-1.6-11.3-1.8-14.9-1.8-4.9.2-12.1 1-20 4.3-12.5 5.2-20 13.5-23.5 17.9z" fill="url(#e)"/><path d="m23.4 164.2c-1-1.1-3.3-3.7-3.5-7.5-.4-5.4 3.5-10.8 9.6-13.4-3.4.9-5.9 2.3-7.4 3.3-1.8 1.2-7 4.6-7.8 9.6 0 .3-.5 3 .7 4.3.4.5 1 .9 1.6 1.4 0 0 .3.2.7.4 1.7.8 5.8 1.8 6.1 1.9z" fill="#8f8f8f"/><path d="m211.1 133.9c-.3 1.1-1 3.5-3.1 4.9-1.7 1.2-3.5 1.2-5.8 1.1-3.1-.1-7.3-.5-12.5-1.6.9.5 2.2 1.2 3.8 1.7.4.2 3.5 1.3 6.7 1.5 5.7.5 13.1-1.7 13.4-4.5 0-.6-.4-1.7-2.5-3.1z" fill="#3a3a3a"/></svg>