<svg enable-background="new 0 0 226.5 226.5" viewBox="0 0 226.5 226.5" xmlns="http://www.w3.org/2000/svg"><path d="m70.1 161.9h9.3l15.6-108.4h-9.3zm74.7-18.3h-17.2c-.7 0-1.3.6-1.3 1.3v13c0 .7.6 1.3 1.3 1.3h17.2c.7 0 1.3-.6 1.3-1.3v-13c-.1-.8-.6-1.3-1.3-1.3z" fill="#f2de2a"/><path d="m113.2 0c-62.5 0-113.2 50.7-113.2 113.2s50.7 113.2 113.2 113.2 113.2-50.7 113.2-113.2-50.6-113.2-113.2-113.2zm-3.6 122.4-6.9 46.8h-39.9l17.3-120.4h74.9l-4.1 30h-34.9l-1.8 12.4h29.6l-4.3 31.2zm48.9 53.1c-1.5 0-2.9-.5-3.9-1.5-.8-.8-1.8-2.2-1.8-4.5v-18.3c0-.7-.4-2.5-2.5-2.5v37h1.5c.7 0 1.3.6 1.3 1.3v2.2c0 .7-.6 1.3-1.3 1.3h-31.3c-.7 0-1.3-.6-1.3-1.3v-2.2c0-.7.6-1.3 1.3-1.3h1.5v-44.4c0-1 .8-1.8 1.8-1.8h24.5c1 0 1.8.8 1.8 1.8v3.7c3.9 0 6.2 3.2 6.2 6.2v18.3c0 .8.2 1.4.6 1.8.3.3.8.5 1.4.5.8 0 2.3-.5 2.3-2.3s-.4-2.9-.8-4.3c-.6-1.8-1.3-3.9-1.3-7.6v-9.9c-.9-1.5-6.1-7-10.7-11.5-.7-.7-.7-1.9 0-2.6s1.9-.7 2.6 0c11.8 11.5 11.8 13 11.8 13.8v10.2c0 3.1.6 4.8 1.1 6.4.5 1.5 1 3.1 1 5.5.2 3.9-2.9 6-5.8 6z" fill="#f10f10"/></svg>