<svg enable-background="new 0 0 32 32" viewBox="0 0 32 32" xmlns="http://www.w3.org/2000/svg"><circle cx="16" cy="16" fill="#00afec" r="16"/><g fill="#fff"><path d="m20.3 11.8c0-.1.1-.2.1-.3 1-1.8 1.6-3.8 1.6-5.9-1.4-.8-3-1.3-4.6-1.5.6 2.7 1.5 5.2 2.7 7.7zm-8.2-.4-.4-.1.3-1.4c.2.1.5.1.7.2.8-1.9 1.5-3.9 2-6-2.1.2-4.2 1.1-5.9 2.4-3 2.2-4.7 5.6-4.8 9.3v.2c1.3.7 2.7 1.2 4.1 1.5 1.6-1.9 2.9-3.9 4-6.1zm7.5 2c.3.1.4.3.5.7.2.6.1 1.2-.1 1.8l1.5.3.4-1.6c1.5 2.3 3.1 4.6 5.1 6.4-.4.8-.6 1.1-1.1 1.8-3.2-1-6.7-1.5-10.1-1.5l.3-1.2-1-.2c-.1 0-.3-.1-.4-.2s-.1-.3-.1-.5l.6-2.6c.3.1.6.1.9.3.3.1.5.3.6.6.1.4-.1.8-.2 1.2l1.3.3 1.1-4.7h-.1-.1c.3-.3.6-.6.9-.9zm-11.4 4.4h.7c.9.1 1.8.1 2.7 0h.2l-.2.8c0 .2-.1.3-.2.4s-.3.1-.5.1c-.3-.1-.7-.2-1-.2-.1.5-.2.9-.3 1.4l2.2.5c-.1.4-.1.5-.2.9-1.8.3-3.6.7-5.4 1.2-.5-.7-.8-.9-1.1-1.7 1.1-1 2.1-2.2 3.1-3.4zm5.1 3.3.9.2v.2l-.9.1zm-1.6-3.6h.2l1.1-4.9c0-.2.1-.4.1-.7-.1-.2-.2-.3-.3-.3-.2-.1 0 0-.2-.1h-.1c-1.1 2.2-2.4 4.2-3.9 6 .3.1.2 0 .5.1.7.1 1.7.1 2.6-.1z"/><path d="m14.2 10.4c.2-.7.3-1.5.5-2.2l1.5.3-.5 2.2.9.2c.1-.4.2-.7.3-1.1l.1-.5.1-.6 1.5.3c0 .1 0 .2-.1.3-.1.6-.3 1.3-.4 1.9l1.7.4c-1.2-2.4-2.1-5-2.7-7.6-.4 0-.5 0-.9 0h-.2c-.4 0-.6 0-1 0-.5 2-1 4.2-1.9 6.1 0 .1 1.1.3 1.1.3z"/><path d="m16.2 12.3-.7 3c.4.1.9.3 1.3.1.3-.1.5-.3.6-.6s.1-.5.2-.8l.7.2c.3-.3.6-.7.9-1-.4-.2-.9-.4-1.4-.5.1 0-1.6-.4-1.6-.4zm10.8-1.1c-1-2.3-2.5-4.1-4.7-5.3 0 2.1-.5 3.9-1.5 5.7-.1.1-.1.2-.2.3.7.1 1.1.2 1.8.4l-.4 2c1.5 2.3 3.1 4.7 5.1 6.6.6-1.4 1-3 1-4.5v-.6c-.1-1.6-.5-3.2-1.1-4.6zm-23 5.1v.2c0 1.6.4 2.9 1 4.4 1.1-1 2-2 3-3.2-1.5-.2-2.7-.7-4-1.4zm11.7 5.4-.5 2.2-1.5-.3.4-1.8-.9.1-.4 1.5-1.5-.4c.1-.3.1-.7.2-1-1.8.2-3.5.6-5.2 1.2 2.2 3 5.7 4.8 9.5 4.9h.5c3.7-.1 7.2-1.9 9.4-4.9-3.3-1-6.6-1.5-10-1.5z"/></g></svg>