<svg enable-background="new 0 0 606.6 633.1" viewBox="0 0 606.6 633.1" xmlns="http://www.w3.org/2000/svg" xmlns:xlink="http://www.w3.org/1999/xlink"><linearGradient id="a" gradientTransform="matrix(3.6525 0 0 -3.6525 -1503.9456 2377.7485)" gradientUnits="userSpaceOnUse" x1="461.837" x2="542.847" y1="640.073" y2="474.533"><stop offset="0" stop-color="#5600db"/><stop offset="1" stop-color="#21a9d5"/></linearGradient><path d="m290.8 205.6c-97.6 149.4-157.6 356.9-180.8 427.5-13.1-132.9 56.3-314.1 107.2-421-23.6 1-148.2 9.8-217.1 80.9 0 0 37.4-114.1 252.5-149.1l.7-1.3c168.3-245.9 294.7-99.1 294.7-99.1-76.7-12.6-143.7 25.6-200.6 87.9 27.6-1.2 207.4-3.1 259.3 138.8-.1.1-104.3-74.5-315.9-64.6zm121.6 171.1c-43.1 0-78 34.9-78 78s34.9 78 78 78 78-34.9 78-78c0-43-34.9-77.9-78-78z" fill="url(#a)"/></svg>