<svg height="1290" preserveAspectRatio="xMidYMid meet" viewBox="0 0 12900 12900" width="1290" xmlns="http://www.w3.org/2000/svg"><g fill="#795548"><path d="m6328 12890c-72-13-145-39-223-78-65-33-138-103-953-916l-882-881 580-580 580-580 182 181c184 182 249 234 368 294 253 128 568 146 833 50 179-66 286-142 502-359 82-83 154-151 160-151 5 0 268 258 583 573l572 572-882 881c-812 810-889 883-953 916-109 56-196 79-315 83-58 2-126 0-152-5z"/><path d="m3567 10312-287-287 580-580 580-580 287 288 288 287-580 580-580 580z"/><path d="m8467 10022-577-577 283-283c155-155 287-282 292-282 6 0 268 258 583 573l572 572-288 288-287 287z"/><path d="m6360 9957c-25-7-63-21-85-32-28-13-519-497-1661-1639-1272-1271-1626-1631-1643-1668-50-107-50-229 0-336 17-37 372-397 1643-1668 1745-1745 1647-1652 1778-1677 69-13 148-1 224 33 41 19 326 299 1670 1644 1271 1271 1626 1631 1643 1668 50 107 50 229 0 336-17 37-370 396-1623 1650-880 882-1619 1616-1641 1631-88 60-214 84-305 58zm1757-1839 243-243v-947-948h-1190-1190v470 470h715 715v245 245h-960-960v-960-960h1435 1435v-232-233l-242-242-243-243h-1425-1425l-242 242-243 243v1425 1425l242 242 243 243h1425 1425z"/><path d="m2580 9325-285-285 575-575c316-316 579-575 585-575s136 126 290 280l280 280-580 580-580 580z"/><path d="m9457 9032-577-577 285-285 285-285 578 578 577 577-285 285-285 285z"/><path d="m1034 7788c-463-464-860-868-883-897-54-69-93-146-122-241-34-107-34-292 0-400 56-183 7-127 975-1098l881-882 580 580 579 579-170 173c-189 192-242 260-309 399-138 288-136 627 7 918 61 124 112 188 302 379l171 172-580 580c-319 319-582 580-585 580s-384-379-846-842z"/><path d="m10442 8057c-314-314-572-576-572-581s78-89 173-185c97-99 193-207 220-247 175-266 227-586 141-880-60-207-139-329-368-562l-170-173 577-577 577-577 878 880c966 968 917 912 973 1095 34 108 34 293 0 400-29 95-68 172-122 241-41 52-1717 1739-1728 1739-4 0-264-258-579-573z"/><path d="m2877 4432-577-577 288-288 287-287 580 580 580 580-285 285c-157 157-287 285-290 285s-265-260-583-578z"/><path d="m9160 4725-285-285 578-577 577-578 290 290 290 290-572 572c-315 315-577 573-583 573s-138-128-295-285z"/><path d="m3867 3442-577-577 285-285 285-285 575 575c316 316 575 579 575 585 0 10-550 565-560 565-3 0-265-260-583-578z"/><path d="m8175 3740-280-280 578-577 577-578 285 285 285 285-572 572c-315 315-577 573-583 573s-136-126-290-280z"/><path d="m4848 2463-578-578 863-862c474-475 878-875 897-889 53-39 138-80 220-105 107-34 292-34 400 0 183 56 127 6 1100 978l885 883-577 577-577 577-178-175c-239-234-368-317-588-376-89-24-118-27-265-26-136 0-178 3-240 20-243 67-360 141-601 379-96 96-177 174-180 174-2 0-264-260-581-577z"/></g></svg>