<svg enable-background="new 0 0 352 352" viewBox="0 0 352 352" xmlns="http://www.w3.org/2000/svg"><circle cx="176" cy="176" fill="#babcbe" r="176"/><path d="m319.2 107.4c0-8.7-4.7-16.7-12.2-21.1l-116.8-67.3c-7.5-4.3-16.8-4.3-24.4 0l-120.6 69.4c-7.5 4.3-12.2 12.3-12.2 21l-.6 135c0 8.9 4.7 17 12.5 21.4l119.7 67.3c7.5 4.2 16.6 4.2 24-.1l118.6-67.3c7.7-4.3 12.4-12.5 12.4-21.3zm-33.1-12.8 13.3 81-35.6-97.6 13.3 5.5c4.8 1.9 8.2 6.1 9 11.1zm-24.6 54.1-7.4 44.1v-56.8l5.2 5.3c1.8 1.9 2.6 4.7 2.2 7.4zm6.9-.5 5.7 7c2 2.5 2.6 5.8 1.5 8.6l-18.2 46.9zm18.3 34-31.7 53.9 27-74.3 4.9 9.7c1.8 3.3 1.7 7.4-.2 10.7zm8.4-2.3 3.6 11.6c1.3 4.1.3 8.6-2.5 11.9l-45.5 53.3zm-55.8-104.2 11.9 2.7c4.2 1 7.6 4 9.1 8.1l23.4 66zm28.6 62.8-50.8-60.6 10.8.6c3.8.2 7.3 2.4 9.2 5.7zm-153.2 23.9 17.3-22.3-18 31.2-.6-4.2c-.3-1.6.3-3.3 1.3-4.7zm-6.1-2.2-.5-5.6c-.2-2 .7-4 2.2-5.3l25.5-21.6zm24.9 19v13.6l-1.3-1.3c-.4-.4-.6-1.1-.5-1.8zm-14.2-4.9 11.5-21.5-10.7 29.2-1.3-3.6c-.4-1.2-.3-2.8.5-4.1zm11.5-6.5-3.6 20.6-1.2-2.2c-.4-.8-.5-1.8-.2-2.8zm10.1 59.5-4-1.6c-1.4-.6-2.7-1.9-3.3-3.5l-10.7-26.1zm-7.6-23.8 20 23.9-3.7-.7c-1.3-.2-2.6-1.2-3.4-2.4zm112.1-11.3.5 5.6c.2 2-.7 4-2.2 5.3l-25.5 21.6zm-26.6-20.3v-13.6l1.3 1.3c.4.4.6 1.1.5 1.8zm20.5 18.1-17.3 22.3 18-31.2.6 4.2c.3 1.6-.3 3.3-1.3 4.7zm-4.6-11.9-11.5 21.5 10.7-29.3 1.3 3.6c.4 1.3.3 2.9-.5 4.2zm-11.5 6.6 3.6-20.6 1.2 2.2c.4.8.5 1.8.2 2.8zm-10.2-60.9 4 1.6c1.4.6 2.7 1.9 3.3 3.5l10.7 26.1zm7.7 23.9-20-23.9 3.7.7c1.3.2 2.6 1.2 3.4 2.4zm-13.1-7.5-16-13.4 2.5.1c.9 0 1.8.5 2.5 1.2zm4.9 64-.5 1.7c-.2.6-.6 1.1-1.3 1.3l-10 3.7zm-18.5-66-11.8-6.8 1.7-.4c.6-.2 1.3 0 1.8.4zm-44.3-19.5 3.4-2.6c1.2-.9 3-1.4 4.7-1.1l28 3.8h-36.1zm0 6.1 24.4-.8-30.7 5.4 2.4-2.9c1-1 2.4-1.6 3.9-1.7zm-4.5 10.3 16-3.5-19.6 7.1 1.3-2.1c.4-.7 1.3-1.3 2.3-1.5zm-2.9 11 10-3.7-11.8 6.8.5-1.7c.2-.7.7-1.2 1.3-1.4zm4 64.9 16 13.4-2.5-.1c-.9 0-1.8-.5-2.5-1.2zm13.1 4.4 11.8 6.8-1.7.4c-.6.2-1.3 0-1.8-.4zm43 18.2-3.4 2.6c-1.2.9-3 1.4-4.7 1.1l-28-3.8h36.1zm0-6.1-24.4.8 30.7-5.4-2.4 2.9c-1 1-2.4 1.6-3.9 1.7zm4.5-10.3-16 3.5 19.6-7.1-1.3 2.1c-.4.7-1.3 1.3-2.3 1.5zm41.5-10.5-.6 6.6c-.2 2.3-1.6 4.5-3.7 5.7l-34.1 19.8zm-9-77.4 5.5 3.8c1.9 1.3 3.1 3.6 3.1 6.1l.1 39.4zm.4 35.2-14.5-39.8 5.1 2.4c1.8.8 3.1 2.6 3.5 4.6zm-59-75.2 7.2-1.9c2.6-.7 5.4 0 7.5 1.8l34.5 28.5zm33.8 26.5-47-17.1 6-2.8c2.1-1 4.7-.9 6.8.3zm-16.3.1-41.7-7.4 4.6-3.2c1.6-1.1 3.8-1.4 5.7-.7zm-91-4.8 3.2-8.5c1.1-3 3.7-5.1 6.8-5.6l49.7-7.7zm4 5.8 42-15.6-49.3 28.4 2-7.2c.7-2.6 2.7-4.7 5.3-5.6zm-5.2 22.2c.2-2.3 1.6-4.5 3.7-5.7l34.1-19.8-38.3 32.1zm8.5 82.7-5.5-3.8c-1.9-1.3-3.1-3.6-3.1-6.1l-.1-39.4zm-.4-35.2 14.5 39.8-5.1-2.4c-1.8-.8-3.1-2.6-3.5-4.6zm57.1 76.4-7.2 1.9c-2.6.7-5.4 0-7.5-1.8l-34.5-28.5zm-33.8-26.5 47 17.1-6 2.8c-2.1 1-4.7.9-6.8-.3zm16.3-.1 41.7 7.4-4.6 3.2c-1.6 1.1-3.8 1.4-5.7.7zm92.9 4.9-3.2 8.5c-1.1 3-3.7 5.1-6.8 5.6l-49.7 7.7zm-4-5.7-42 15.6 49.2-28.4-2 7.2c-.6 2.5-2.6 4.6-5.2 5.6zm4.5-111.8-48.7-40.9 9-1.4c3.2-.5 6.3.6 8.2 3.1zm-125.7-51.6 8.3-8.9c2.9-3.2 7.3-4.6 11.5-3.8l68.9 12.7zm6.2 6.1 62.4.5-77.9 13.7 5.9-9.1c2.2-3.2 5.8-5.1 9.6-5.1zm-79.1 70.6-1.9-14.3c-.7-5.1 1.3-10.1 5.2-13.3l63.5-52zm9.1-1.2 45.5-53.3-44.3 76.8-3.6-11.6c-1.3-4.1-.4-8.6 2.4-11.9zm34.8 54.7 7.4-44.1v56.9l-5.2-5.3c-1.9-2-2.7-4.8-2.2-7.5zm-7 .6-5.7-7c-2-2.5-2.6-5.8-1.5-8.6l18.2-46.9zm-18.2-34.1 31.6-53.8-27 74.3-4.9-9.7c-1.8-3.4-1.7-7.5.3-10.8zm45.5 107.7-11.9-2.7c-4.2-1-7.6-4-9.1-8.1l-23.4-66zm-28.6-62.8 50.8 60.6-10.8-.6c-3.8-.2-7.3-2.4-9.2-5.7zm20.7 14.7 48.7 40.9-9 1.4c-3.2.5-6.3-.6-8.2-3.1zm127.6 51.7-8.3 8.9c-2.9 3.2-7.3 4.6-11.5 3.8l-68.9-12.7zm-6.2-6.1-62.4-.5 77.9-13.7-5.9 9.1c-2.2 3.2-5.8 5.1-9.6 5.1zm79.1-71.8 1.9 14.3c.7 5.1-1.3 10.1-5.2 13.3l-63.5 52zm-135.6-177.4c5.4-2.8 11.7-2.7 16.8.3l83.2 49.6-115.1-41.9zm-22.7 18.4c4-3.1 9.4-3.9 14.1-2.1l76.8 29-102.3-18zm-105 62.5c.2-6.1 3.5-11.5 8.7-14.4l84.6-47.3-93.9 78.8zm5.6 152.6c-5.1-3.2-8.2-8.8-8.1-14.7l1.3-96.9 21.3 120.7zm18.3-.7-13.3-81 35.5 97.6-13.3-5.5c-4.7-1.9-8.1-6.1-8.9-11.1zm118.2 69.8c-5.4 2.8-11.7 2.7-16.8-.3l-83.2-49.6 115.2 41.9zm22.7-18.3c-4 3.1-9.4 3.9-14.1 2.1l-76.8-29 102.3 18zm105-63.9c-.2 6.1-3.5 11.5-8.7 14.4l-84.6 47.3 93.9-78.8zm-.7-39.8-21.3-120.7 14.5 9.1c5.1 3.2 8.2 8.8 8.1 14.7z" fill="#ee5a25"/></svg>