<svg enable-background="new 0 0 226.7 226.7" viewBox="0 0 226.7 226.7" xmlns="http://www.w3.org/2000/svg"><path d="m113.4 0c-62.6 0-113.4 50.8-113.4 113.4s50.8 113.3 113.4 113.3 113.4-50.8 113.4-113.4c-.1-62.5-50.8-113.3-113.4-113.3zm27.5 71.8v.2l3.7 41-28-41.2zm-26.8 3.6 29.4 43.2h-59.2zm-27.1-3.6h24.7l-28.5 41.3 3.8-41.1s0-.1 0-.2zm-6.6 0h2.5l-4.3 46.3-29.6-6.4zm-30.2 44.2 28.9 6.3 29.6 52.8c0 .1-58.5-59.1-58.5-59.1zm33.6 6.6h60l-29.8 53.8s-30.2-53.8-30.2-53.8zm35.5 52.6 29.3-52.8 29.4-6.3s-58.7 59.1-58.7 59.1zm29.8-57.1-4.2-46.3h2.4l31.9 39.8c0 .1-30.1 6.5-30.1 6.5z" fill="#c24040"/></svg>