<svg xmlns="http://www.w3.org/2000/svg" viewBox="0 0 600 600"><defs><linearGradient id="0" y1="565.98" x2="0" y2="-34.02" gradientUnits="userSpaceOnUse"><stop stop-color="#33acc1"/><stop offset=".79" stop-color="#16b9ad"/></linearGradient></defs><path fill="url(#0)" d="m0 0h600v600h-600z"/><path d="M507.05,246.38c0,114.17-92.88,207.05-207,207.05s-207-92.88-207-207a205.28,205.28,0,0,1,1.53-25.19h37.2a170.12,170.12,0,0,0-1.87,25.19c0,93.84,76.35,170.19,170.19,170.19,89.53,0,163.15-69.5,169.72-157.39H206.49a94.37,94.37,0,0,0,178,29.28h39.85A131.47,131.47,0,0,1,300,377.63c-72.36,0-131.25-58.89-131.25-131.25a131.52,131.52,0,0,1,2.43-25.19H505.52A205.28,205.28,0,0,1,507.05,246.38Z" fill="#fff"/></svg>