<svg enable-background="new 0 0 32 32" viewBox="0 0 32 32" xmlns="http://www.w3.org/2000/svg"><circle cx="16" cy="16" fill="#372d2c" r="16"/><path d="m22.9 23.6c.5-.6.9-1.2 1.3-1.9-.4.7-.8 1.3-1.3 1.9zm-15.9-3.9c-.4-1.5-.5-3-.2-4.5-.4 2-.1 4.1.8 5.9.4.9.9 1.7 1.5 2.5-.6-.7-1.1-1.6-1.5-2.5-.3-.4-.4-.9-.6-1.4zm2.4-1.2.1-.1.1-.1c0 .1-.1.2-.2.2z" fill="none"/><path d="m10 18.5.1-.1-.1.1-.4.4c.1-.2.2-.3.4-.4z"/><path d="m27 13.4c0-.1-.1-.1-.2-.2-.3-.1-.7-.2-1-.2l.1-.5.1-.3v-.1-.2c0-.2 0-.5-.1-.7-.2-.5-.6-.8-1.1-.9-.1-.5-.2-1-.3-1.5v-.1l-2.5-3h-.1c-.1 0-2.3-.7-5.4-.7v-.6c.6-.2 1-.9.8-1.6-.3-.4-.8-.8-1.3-.7-.7 0-1.2.5-1.2 1.2 0 .5.3 1 .8 1.2v.6c-3.1 0-5.3.7-5.4.7h-.1l-2.5 3v.1c-.1.5-.3 1-.3 1.5h-.2c-.7.2-1.1.9-1 1.6v.2.1l.1.3.1.4c-.3.1-.7.2-1 .2-.1 0-.2.1-.2.2-.1.2 0 .4.1.5.1 0 .2.1.3 0 .3-.1.7-.2 1-.2v.1c-.8 2.5-.6 5.2.5 7.6 1.5 3.2 5 6.7 9 6.7 4.1 0 7.5-3.5 9-6.7 1.1-2.4 1.3-5.1.5-7.6v-.1c.3.1.7.2 1 .2.2 0 .4-.1.4-.2.1-.1.1-.2.1-.3-.1 0 0 0 0 0zm-11.9-10.1c0-.5.4-1 1-1 .5 0 .5 2 0 2-.6 0-1-.5-1-1zm.7 1.2h.2l.1 2.1c.1.1.1.3 0 .4s-.2.1-.2.1c-.5 0-.9-.2-.9-.3 0-.2.3-.3.8-.3h.1zm-7.6 4.8.3-.1.5-.2.6-.2c.2-.1.5-.1.8-.2l.9-.2c.3-.1.6-.1.9-.2s.6-.1 1-.2c.3-.1.7-.1 1-.1s.6-.1 1-.1h.5l.4 3.4.4-3.5h.4.7.5.5-.5l-.5-.1c-.2 0-.4 0-.7 0s-.5 0-.8 0c-.3 0-.6 0-.9 0s-.6 0-1 0l-1 .1c-.3 0-.7.1-1 .1s-.7.1-1 .1-.6.1-.9.1h-.5l1-1.3 4.9-1.1v.5c-.7.1-1.2.3-1.2.5 0 .3.6.5 1.5.5.8 0 1.5-.2 1.5-.5s-.5-.5-1.2-.5v-.5l4.9 1.1 1 1.3-1.4.1 2.6 1.3s1.1 3.6-.4 6.7c-.2.3-.4.7-.6 1 0 0-2.4 1.1-6.1 1.3l-.2-1c.3 0 .6 0 .9-.2l.8-.3c1.6-.5 3.1-1 4.7-1.4h.2v-.1-.1-.1l.1-.3c.1-.5.2-1.1.3-1.6v-.6-.3-.3-.3-.3-.3c0-.1 0-.2-.1-.3v-.1-.2-.2h-.2c-1.6-.2-3.3-.3-4.9-.3h-.2l-.1.1-.9 1.8h-.5-.5l-1-1.7-.1-.1h-.1c-.8 0-1.6.1-2.4.2s-1.6.2-2.4.3v.1.1c0-.1 0-.1.1-.2 0 .1-.1.2-.1.3s0 .1-.1.2l-.1.3v.3.3.6.6c0 .6.1 1.1.2 1.6l.1.3.1.3v.1h.1l3.1 1c.9.3 1.8.6 2.7.9h.2.1.1l-.3 1c-.9 0-1.8 0-2.7-.1-2.2-.3-3.7-.8-4.1-1-1.4-2.4-1.7-5.3-.9-8.1zm11.8 1.6-3 5.5-.2.4h-.1c-.2.1-.4.1-.5.1-.3 0-.6 0-.8-.1h-.1l.1-.2 3.1-5.8.1-.3c.5 0 1 .1 1.5.1 0 0-.1.3-.1.3zm.9.1.1-.3h.4.4l-.1.3-2.4 4.6-.2.4-1.1.4.2-.4s2.7-5 2.7-5zm-14.4 1.2v-.1-.1c0-.5.3-.9.7-1-.2 1.6 0 3.3.4 4.9-.3-.1-.6-.4-.7-.7 0-.1-.1-.3-.1-.4l-.2-2.1c-.1-.2-.1-.5-.1-.5zm2.8 11.5c-.1 0-.1 0-.2-.1-.6-.8-1.1-1.6-1.6-2.5-.9-1.8-1.1-3.9-.8-5.9.2.3.5.6.8.6.2.7.5 1.4.8 2l.2.2h.1c.4.1.7.3 1.1.4-.1 0-.2.1-.2.1-.1 0-.1.1-.2.1l-.4.2-.1.1v.1c-.1 1 0 2.1.3 3.1.2.5.4 1 .6 1.4 0 .2-.3.2-.4.2zm3.7 2.2c-.8-.3-1.5-.7-2.1-1.3-.3-.3-.6-.7-.9-1.1-.2-.4-.4-.9-.5-1.3-.1-.5-.2-.9-.2-1.4 0-.4 0-.8 0-1.3l.3-.1c.3-.1.5-.2.8-.2l.4-.1c.4-.1.7-.1 1.1-.1-.3.8-.5 1.7-.5 2.6.1 1.8.7 3.3 1.6 4.3zm4.3-1.1c-.4.2-.9.4-1.4.4s-1-.1-1.4-.4c-.2-.2-.4-.5-.5-.7.9 1.1 2.5 1.2 3.6.3.1-.1.1-.1.2-.2-.1.1-.3.3-.5.6zm-1.3-.5c-1.1 0-2-.9-2-2 0-1.1.9-2 2-2s2 .9 2 2c-.1 1.2-.9 2-2 2zm2.5-2.3c-.2-1.4-1.5-2.3-2.9-2.1-1.1.2-1.9 1.1-2.1 2.2 0-.2 0-.5-.1-.7.4-1.1 1.4-1.7 2.6-1.7 1.1 0 2.1.7 2.5 1.7zm.4 3.9c.9-1 1.5-2.5 1.5-4.3 0-.9-.2-1.8-.5-2.6 1.4.2 2.2.9 2.2.9s.2 4.1-3.2 6zm6.5-8.9v.2.1.3.1.2.2.2c-.2 1-.5 2-1 3v.1c0 .1-.1.1-.1.2-.4.7-.8 1.3-1.3 1.9 0 0-.1.1-.1.1-.2 0-.4 0-.4-.1.3-.4.5-.9.6-1.4.3-1 .4-2.1.3-3.1v-.1l-.1-.1c-.1-.1-.3-.1-.4-.2l-.4-.2c.4-.1.7-.2 1.1-.4h.1v-.1c.3-.7.6-1.3.8-2 .4-.1.7-.3.9-.7-.1.6 0 1.1 0 1.8 0-.1 0 0 0 0z" fill="#fff"/><path d="m9.6 11.1.2-.3h.2-.2c-.1.2-.3.3-.4.5.1 0 .2-.1.2-.2z"/><path d="m17 6.2c.5.1.8.4.8.6 0 .3-.3.5-.8.6.7-.1 1.2-.3 1.2-.6s-.6-.5-1.2-.6zm-1.6 2.5c.1 0 .3-.1.3-.3 0-.1 0-.1-.1-.2 0 0-.1-.1-.2-.1s-.2.1-.2.3c-.1.2 0 .3.2.3zm-6.7.8c-.1 0-.3.1-.2.3 0 .1 0 .1.1.2 0 0 .1.1.2.1.1-.1.2-.2.2-.3s0-.1-.1-.2-.1-.1-.2-.1zm.7 8.1c.1 0 .3-.1.2-.3 0-.1 0-.1-.1-.2 0 0-.1-.1-.2-.1s-.2.1-.3.3c.2.2.3.3.4.3zm6.1 1c.1 0 .3-.1.2-.3 0-.1 0-.1-.1-.2 0 0-.1-.1-.2-.1s-.3.1-.3.3c.1.1.2.2.4.3zm1.3-9.9c.1 0 .3-.1.3-.3 0-.1 0-.1-.1-.2 0 0-.1-.1-.2-.1s-.2.1-.2.3.1.3.2.3zm-.1 9.4c-.1 0-.2.1-.3.3 0 .1.1.2.3.3.1 0 .3-.1.2-.3 0-.1 0-.1-.1-.2.1-.1 0-.1-.1-.1zm-6.8 1.6c-.1 0-.2 0-.2.1v.3c0 .1.1.1.2.1.1 0 .2-.1.2-.3 0-.1 0-.1-.1-.2.1.1 0 0-.1 0zm1.6-.4c-.1 0-.2.1-.2.2 0 .1.1.3.2.3s.3-.1.3-.3c0-.1 0-.1-.1-.2-.1 0-.2 0-.2 0zm9.3 0c-.1 0-.2.1-.2.3 0 .1.1.2.3.2.1 0 .2-.1.2-.3s-.2-.2-.3-.2z" fill="#fff"/></svg>