<?xml version="1.0" encoding="utf-8"?>
<!-- Generator: Adobe Illustrator 23.0.1, SVG Export Plug-In . SVG Version: 6.00 Build 0)  -->
<svg version="1.1" id="Layer_1" xmlns="http://www.w3.org/2000/svg" xmlns:xlink="http://www.w3.org/1999/xlink" x="0px" y="0px"
	 viewBox="0 0 32 32" style="enable-background:new 0 0 32 32;" xml:space="preserve">
<style type="text/css">
	.st0{fill:#FF0060;}
	.st1{fill:#FFFFFF;}
</style>
<g>
	<circle class="st0" cx="16" cy="16" r="16"/>
	<path class="st1" d="M25.1,12h-9.1c-2.1,0-3.9,1.7-3.9,3.9c0,2.1,1.7,3.9,3.9,3.9c1.6,0,3.1-1,3.6-2.5h-3.6c-0.6,0-1-0.5-1-1
		c0,0,0,0,0,0v-0.1c0-0.6,0.5-1,1-1c0,0,0,0,0,0h6c0,0.3,0.1,0.6,0.1,0.9c0,3.4-2.8,6.1-6.1,6.1c-3.4,0-6.1-2.8-6.1-6.1
		c0-3.4,2.7-6.1,6.1-6.1l0.2,0c0,0,0.1,0,0.1,0h5.4c3,0,4.2-1.6,4.2-3.8h-9.9C10.4,6,6,10.4,6,15.9c0,5.5,4.4,9.9,9.9,9.9
		c5.5,0,9.9-4.4,10-9.9v-3.1C25.9,12.4,25.5,12.1,25.1,12C25.1,12,25.1,12,25.1,12z"/>
</g>
</svg>
