<?xml version="1.0" encoding="utf-8"?>
<!-- Generator: Adobe Illustrator 19.2.1, SVG Export Plug-In . SVG Version: 6.00 Build 0)  -->
<svg version="1.1" id="Layer_1" xmlns="http://www.w3.org/2000/svg" xmlns:xlink="http://www.w3.org/1999/xlink" x="0px" y="0px"
	 viewBox="0 0 1000 1000" style="enable-background:new 0 0 1000 1000;" xml:space="preserve">
<style type="text/css">
	.st0{fill:#002D64;}
	.st1{fill:#FFFFFF;}
</style>
<circle class="st0" cx="500" cy="500" r="500"/>
<path class="st1" d="M593.4,425c24.7-24.7,38.1-57.2,38.1-92.2c0-30.7-10.8-60.2-30.3-83.6l75.8-75.8L660.1,157l-75.8,75.8
	c-23.4-19.5-52.4-30.3-83.1-30.3c-34.6,0-67.5,13.4-92.2,38.1c-24.7,24.7-38.1,57.6-38.1,92.2s13.4,67.5,38.1,92.2
	c21.6,21.6,49.8,35.1,80.1,37.7v96.1c-30.3,2.6-58.4,15.6-80.1,37.7c-24.7,24.7-38.1,57.6-38.1,92.2c0,34.6,13.4,67.5,38.1,92.2
	c24.7,24.7,57.2,38.1,92.2,38.1c34.6,0,67.5-13.4,92.2-38.1c24.7-24.7,38.1-57.2,38.1-92.2s-13.4-67.5-38.1-92.2
	c-21.6-21.6-49.8-35.1-80.1-37.7v-96.1C543.6,460.1,571.8,447.1,593.4,425z M576.5,613.3L576.5,613.3c19.9,20.3,31.2,46.8,31.2,75.3
	c0,28.6-11.3,55.4-31.2,75.3c-19.9,20.3-46.8,31.2-75.3,31.2c-28.6,0-55.4-11.3-75.3-31.2c-19.9-20.3-31.2-46.8-31.2-75.3
	c0-28.6,11.3-55.4,31.2-75.3c19.9-20.3,46.8-31.2,75.3-31.2C529.8,582.2,556.6,593,576.5,613.3z M501.2,439.7
	c-28.6,0-55.4-11.3-75.3-31.2c-19.9-20.3-31.2-46.8-31.2-75.3s11.3-55.4,31.2-75.3c19.9-20.3,46.8-31.2,75.3-31.2
	c28.6,0,55.4,11.3,75.3,31.2c20.3,19.9,31.2,46.8,31.2,75.3c0,28.6-11.3,55.4-31.2,75.3C556.6,428.9,529.8,439.7,501.2,439.7z"/>
</svg>
