<svg xmlns="http://www.w3.org/2000/svg" viewBox="0 0 2168 2168"><circle cx="1084" cy="1084" r="1084" fill="#1666ae"/><g fill="#7290c9"><path d="M653,1871.2a30.85,30.85,0,1,0-13.9-11.34l-76.76,76.76h-147q11.79,9.27,23.85,18.23H569.35Z"/><path d="M185.46 1473.17a30.84 30.84 0 1 0 -17.84 1.81l-1.41 77.7-38.75 39.48q4.48 8.44 9.11 16.79l47.49-48.34"/><path d="M600.66 276.9a30.86 30.86 0 1 0 13.9 -11.34l-62.82-60.84-100-.72q-12.29 8.87-24.32 18.06l117.33.89"/><path d="M622.07 421.71A30.88 30.88 0 0 0 610.35 424l-62.82-60.84-249.52-1v18.23l242.51 1 55.93 53.95a30.86 30.86 0 1 0 25.62 -13.65"/><path d="M606.64,1592a30.85,30.85,0,0,0-25.61,48l-55.93,54-242.52,1v18.23l249.53-1,62.82-60.83a30.85,30.85,0,1,0,11.71-59.4Z"/><path d="m1548.04 732.74l12.89-12.89-13.1-13.1.05 25.83.16.16"/><path d="m1455.3 614.22l-171.58-1.4a30.83 30.83 0 1 0 1.81 17.85l161.84 1.4 79.77 79.77v-25.79"/><path d="M1051.29,683.28a31,31,0,0,0,11.78-2.32l54.21,53.62h206.21V716.26H1124.33l-47.3-46.7a31,31,0,1,0-25.74,13.72Z"/><path d="M1452.81,232.6l1.4,191.21,72.93,74V917.12h21l-.3-184.54,0-25.83-.34-215.44-75.43-75.43-1.4-181.47a30.83,30.83,0,1,0-17.85-1.81Z"/><path d="M1763.81 636a30.86 30.86 0 1 0 -13.9 11.34L1843.58 725l262.61 1q-3.21-9.16-6.57-18.25l-249-.93"/><path d="M2091.14,779.26l-284-1-99.4-82a30.86,30.86,0,1,0-13.9,11.34l106.29,88.88,290.36,1a32.31,32.31,0,0,1,.67-18.23Z"/><path d="M1772.92 477.16a30.84 30.84 0 1 0 -13.9 11.35l85 76.63 191.46 1.34q-5-9.21-10.2-18.31l-174.25-1.26"/><path d="M191.9 615.17A30.86 30.86 0 1 0 209.74 617l-6-114.32-20.31-20.57q-5.17 7.76-10.24 15.61L186 510.59"/><path d="M1297.15,1779.55a30.86,30.86,0,0,0-25.61,48.06l-31.88,37.49H973.22l-65.42,72.42a30.85,30.85,0,1,0,13.9,11.34l58.53-65.53h266.44l38.77-44.38a30.86,30.86,0,1,0,11.71-59.4Z"/><path d="M1243.87,199.13l58.52,65.54a30.86,30.86,0,1,0,13.9-11.34l-65.41-72.43H984.43l-31.88-37.49a30.86,30.86,0,1,0-13.9,11.34l38.77,44.38h266.45Z"/><path d="M1977.73,1225.05a30.86,30.86,0,0,0,15.86,52.09l1.16,112.16-90.24,76.21-3.45,103.08a30.83,30.83,0,1,0,17.85-1.81l3.45-93.33,90.24-76.22-1.16-121.9a30.85,30.85,0,1,0-33.71-50.28Z"/><path d="M601.1 1812.3A30.82 30.82 0 1 0 587.2 1801l-76.75 76.76H346.63q9.93 9.24 20.07 18.23H517.46"/><path d="M1061.83,1787.23a30.83,30.83,0,1,0,1.81-17.85H900.48l-75.91,75.91V1651.94l64.21-63.43-1.24-199.59a30.89,30.89,0,1,0-17.84,1.8l1.23,189.86-66.86,64.05-.28,221.44-.11.11.11.1-.26,192.34h21V1871.07l83.84-83.84Z"/><path d="M824.72,210.86l.1.11.29,221.44,66.85,64-1.23,189.86a30.84,30.84,0,1,0,17.85,1.8l1.23-199.59L845.6,425.1V231.75l75.91,75.91h163.17a30.85,30.85,0,1,0-1.81-17.85H929.44L845.6,206V26.39q-10.54,2.37-21,4.94l.23,179.43Z"/><path d="M1527 1800.39a30.86 30.86 0 1 0 2.37 17.78l174.48.08 86.52 87.25q6.9-6 13.69-12l-92.85-93.33"/><path d="M1700.94 1912.69a30.85 30.85 0 1 0 9.33 27.49h37.76q11.33-8.82 22.43-17.93l-62.56.12A30.91 30.91 0 0 0 1700.94 1912.69"/><path d="M1222.71,1696.31a30.85,30.85,0,0,0-17.51-51.56l.07-182.89-18.09-.35.24,185.61a30.85,30.85,0,1,0,35.29,49.19Z"/><path d="M274.18 1612.75a30.84 30.84 0 1 0 -27.48 9.33l-3.27 145.12q8.65 10.66 17.58 21.1l3.47-168.59A30.68 30.68 0 0 0 274.18 1612.75"/><path d="M1888.85 410.8a30.86 30.86 0 1 0 9.33 27.48h55.52q-6.71-9-13.59-17.92l-44.3.1A30.91 30.91 0 0 0 1888.85 410.8"/><path d="M1759.83 300a30.82 30.82 0 1 0 9.34 27.48l90.29.06q-8.87-9.1-17.94-18l-74.72.17A30.67 30.67 0 0 0 1759.83 300"/><path d="M654.46 240.22a30.86 30.86 0 1 0 12.84 -26l-88.89-89q-8.31 4.39-16.54 9l94.53 94.25A30.78 30.78 0 0 0 654.46 240.22"/><path d="M252.88 465.61a30.86 30.86 0 1 0 27.48 -9.33l.07-98.71q-9.14 10.13-18 20.49l.17 80.59A30.75 30.75 0 0 0 252.88 465.61"/><path d="m1680.36 1551.94l-184.21.24a30.86 30.86 0 1 0 2.37 17.78l174.48.04 89.29 90-187.61.1a30.86 30.86 0 1 0 2.37 17.78l412.71.07q5.88-9 11.58-18.07l-213.41.11"/><path d="M534.6 727.86A30.86 30.86 0 1 0 529 694l-187.61-.1 89.29-90 174.48-.07A30.84 30.84 0 1 0 607.55 586l-184.21-.24L315.77 693.85l-242.1-.12q-3.48 9-6.8 18.08l459.78-.07A30.67 30.67 0 0 0 534.6 727.86"/><path d="M372.91,1615.54a30.7,30.7,0,0,0,7.95-16.13l76.31.07a30.85,30.85,0,1,0-.12-18.08l-78.56.23a30.85,30.85,0,1,0-5.58,33.91Z"/><path d="M510.45,457.16a30.85,30.85,0,0,0-29.56,22l-78.56.23a30.86,30.86,0,1,0,2.37,17.78l76.31.07a30.85,30.85,0,1,0,29.44-40.09Z"/><path d="M1484.87 1230.36a30.85 30.85 0 1 0 13.9 11.34l82.58-80.59 509-1v-18.23l-516 1m-101.9 140.25a23.84 23.84 0 1 1 23.83 -23.84A23.84 23.84 0 0 1 1472.45 1283.13"/><path d="m407.48 1498.5l186.82 1.4a30.83 30.83 0 1 0 -1.81 -17.85l-171.49-1.4-101.14-115.18h-281.63q2.88 10.76 6 21.43h268.49m293.97 84.47a23.84 23.84 0 1 1 0 33.72 23.83 23.83 0 0 1 0 -33.72"/><path d="m1437.07 1182.8l82.58-80.59 242.51-1v-18.21l-249.53 1-89.46 87.48a30.85 30.85 0 1 0 13.9 11.34m-24.93 41.41a23.84 23.84 0 1 1 23.84 -23.84 23.83 23.83 0 0 1 -23.84 23.84"/><path d="m806 1209.45l47.52-44.14 241.11.42 84.71-81.73-7-16.83-85.55 81.34h-241.67l-53 49.61a30.87 30.87 0 1 0 13.9 11.35m-24.94 41.41a23.84 23.84 0 1 1 23.86 -23.88 23.84 23.84 0 0 1 -23.84 23.88"/><path d="M617.26 814a38.63 38.63 0 1 0 17.4 14.2l34.25-25.8-10.53-21.07m-54.92 95.08a26.19 26.19 0 1 1 26.19 -26.19A26.2 26.2 0 0 1 603.46 876.45"/><path d="M176.69,1242.46h70.12v-21h-57.5L86.94,1119.06h46.28v-25.24H1.42q.12,13.35.56,26.64H58.9Z"/><path d="m221.57 1006.87l2.8-21-129-129h-70.18q-1.78 8.4-3.44 16.83h66.6"/><path d="M2091.14 779.26a32.27 32.27 0 0 0 43 40q-7.82-31.2-17.41-61.65A32.3 32.3 0 0 0 2091.14 779.26"/><path d="m1016.69 1246.67h152.85v19.63h-152.85z"/></g><path d="M1284.06,673.12V834.39H1149.91v660.49H1903V673.12Zm444.13,631.05H1324.68V863.83h403.51Z" fill="#fffffa"/><g fill="#fff"><path d="M800.73,1335v159.86h-209s-211.07,2.78-334.6-187.23a427.71,427.71,0,0,1-54.87-341.58c30.15-114.58,113.87-250.17,336.18-293h489.42V826H596s-227.73,78.22-224.77,267.11c1.31,83.09,48,158.39,120,199.89A320.69,320.69,0,0,0,596,1330.81Z"/><path d="m595.99 1006.87v150.05h272.05v337.96h159.87v-488.01h-431.92"/></g></svg>