<svg enable-background="new 0 0 400 400" viewBox="0 0 400 400" xmlns="http://www.w3.org/2000/svg"><g fill="#241d3a"><path d="m200 0c-110.5 0-200 89.5-200 200s89.5 200 200 200 200-89.5 200-200-89.5-200-200-200zm-37.7 310.9c-4.7.5-9.1.7-13.1.8-8.6-.2-44.8-1.9-75-30.8-34.3-32.6-34.7-75-34.6-82.3.2-7.7 2-47.9 35.1-79.4 30.4-28.9 66.6-30.8 75.3-31 9.8-.1 40.8 1 69.8 23.4 34.2 26.4 41 63.5 42.4 71.9h-94.3l42.3 71c-10.9 18-21.8 36-32.8 54-4.7 1-9.7 1.8-15.1 2.4zm28.3 1.4 34.8-57.6-34.8-57.6h34.6l34.9 57.4-34.8 57.1zm50.2 0 34.8-57.6-34.8-57.6h34.6l34.9 57.4-34.8 57.1zm84.8-.7-34.8.6 34.8-57.6-34.8-57.6h34.6l34.9 57.4z"/><path d="m126 153c-2.8-1.5-6.2-1-8.3 1-2.4 2.4-1.9 5.8-1.9 6.1 8.9 18.7 17.8 37.4 26.7 56.1 4.3 4.9 11.5 5.5 15.9 2 3.6-2.9 5-8.1 3.3-12.9-11.9-17.4-23.8-34.8-35.7-52.3z"/></g></svg>