<svg viewBox="0 0 320 320" xmlns="http://www.w3.org/2000/svg"><circle fill="#2d598a" cx="160" cy="160" r="160"/><path fill="white" d="M187.72 193.39L187.72 158.83L219.22 158.83L219.22 211.03L219.22 211.03Q208.42 218.77 194.38 222.91L194.38 222.91L194.38 222.91Q180.34 227.05 166.30 227.05L166.30 227.05L166.30 227.05Q146.50 227.05 130.66 218.68L130.66 218.68L130.66 218.68Q114.82 210.31 105.82 195.37L105.82 195.37L105.82 195.37Q96.82 180.43 96.82 161.53L96.82 161.53L96.82 161.53Q96.82 142.63 105.82 127.69L105.82 127.69L105.82 127.69Q114.82 112.75 130.84 104.38L130.84 104.38L130.84 104.38Q146.86 96.01 167.02 96.01L167.02 96.01L167.02 96.01Q184.66 96.01 198.70 101.95L198.70 101.95L198.70 101.95Q212.74 107.89 222.10 119.05L222.10 119.05L199.42 139.57L199.42 139.57Q186.64 125.53 168.82 125.53L168.82 125.53L168.82 125.53Q152.62 125.53 142.72 135.34L142.72 135.34L142.72 135.34Q132.82 145.15 132.82 161.53L132.82 161.53L132.82 161.53Q132.82 171.97 137.32 180.16L137.32 180.16L137.32 180.16Q141.82 188.35 149.92 192.94L149.92 192.94L149.92 192.94Q158.02 197.53 168.46 197.53L168.46 197.53L168.46 197.53Q178.72 197.53 187.72 193.39L187.72 193.39Z"/></svg>