<svg enable-background="new 0 0 226.8 226.8" viewBox="0 0 226.8 226.8" xmlns="http://www.w3.org/2000/svg"><g fill="#fab802"><path d="m98.6 87.3c-5.3 0-9.6 4.3-9.6 9.6s4.3 9.6 9.6 9.6 9.6-4.3 9.6-9.6-4.3-9.6-9.6-9.6zm29.6-10.1c5.3 0 9.6-4.3 9.6-9.6s-4.3-9.6-9.6-9.6-9.6 4.3-9.6 9.6c-.1 5.3 4.3 9.6 9.6 9.6zm0 62.3c5.3 0 9.6-4.3 9.6-9.6s-4.3-9.6-9.6-9.6-9.6 4.3-9.6 9.6c-.1 5.2 4.3 9.6 9.6 9.6z"/><path d="m113.4 0c-62.6 0-113.4 50.8-113.4 113.4s50.8 113.4 113.4 113.4 113.4-50.8 113.4-113.4-50.8-113.4-113.4-113.4zm-50.9 63.4h48.2c1.9-7.9 9-13.8 17.5-13.8 9.9 0 18 8.1 18 18s-8.1 18-18 18c-8.5 0-15.6-5.9-17.5-13.8h-39.9v53.9h39.8c1.9-7.9 9-13.8 17.5-13.8 9.9 0 18 8.1 18 18s-8.1 18-18 18c-8.5 0-15.6-5.9-17.5-13.8h-48.1c0-.1 0-70.7 0-70.7zm101.8 100h-48.2c-1.9 7.9-9 13.8-17.5 13.8-9.9 0-18-8.1-18-18s8.1-18 18-18c8.5 0 15.6 5.9 17.5 13.8h39.8v-53.9h-39.8c-1.9 7.9-9 13.8-17.5 13.8-9.9 0-18-8.1-18-18s8.1-18 18-18c8.5 0 15.6 5.9 17.5 13.8h48.2z"/><path d="m98.6 149.6c-5.3 0-9.6 4.3-9.6 9.6s4.3 9.6 9.6 9.6 9.6-4.3 9.6-9.6-4.3-9.6-9.6-9.6z"/></g></svg>