<svg xmlns="http://www.w3.org/2000/svg" viewBox="0 0 2000 2000"><circle cx="1000" cy="1000" r="1000" fill="#c8d908"/><g isolation="isolate"><path d="M1139.08,1351.81q-62.53,24.68-126.09,24.69-80.72,0-144.27-29.73t-107.94-80.14q-44.39-50.39-67.58-115.92A404.73,404.73,0,0,1,670,1014.61q0-78.61,21.7-149.69T756.3,740.44q42.89-53.44,107-85.19t149.89-31.75q58.52,0,110.5,13.67t92.86,43q40.88,29.34,68.63,74.2T1323,862.73h-95.86q-7.08-41.3-26.23-71a168.75,168.75,0,0,0-47.44-48.87q-28.27-19.15-64.08-28.73a294.2,294.2,0,0,0-76.17-9.58q-65.6,0-112.52,26.19t-76.69,69q-29.77,42.8-43.89,97.66A448.22,448.22,0,0,0,766,1009.56a362.32,362.32,0,0,0,16.13,108.23q16.13,51.84,47.41,91.63a232,232,0,0,0,77.14,63.42q45.89,23.67,106.39,23.66,56.48,0,99.84-18.08t73.11-49.7a209.15,209.15,0,0,0,44.88-74.33q15.12-42.68,13.11-91.89H1014.2v-81H1330v378.88h-60.7L1244,1270.7Q1201.63,1327.14,1139.08,1351.81Z" fill="#fff"/></g></svg>