<svg xmlns="http://www.w3.org/2000/svg" xmlns:xlink="http://www.w3.org/1999/xlink" viewBox="0 0 10.51 12.19"><defs><linearGradient id="0" y1="11.77" x2="0" y2="-.41" gradientUnits="userSpaceOnUse"><stop stop-color="#41007f"/><stop offset=".44" stop-color="#5d179e"/><stop offset=".69" stop-color="#6200be"/><stop offset="1" stop-color="#7d02f2"/></linearGradient><linearGradient id="1" y1="11.85" x2="0" y2=".19" xlink:href="#0"/></defs><path fill="url(#0)" d="m10.51 9.14v-6.09l-5.26-3.05-5.25 3.05v6.09l5.25 3.05 5.26-3.05"/><path fill="#fff" d="m10.16 8.94v-5.69l-4.91-2.84-4.9 2.84v5.69l4.9 2.84 4.91-2.84"/><path fill="url(#1)" d="m9.79 8.73v-5.27l-4.54-2.63-4.54 2.63v5.27l4.54 2.63 4.54-2.63"/><g fill="#fff"><path d="M6.58,1.39,3.65,3A4,4,0,0,0,1.58,6.09,3.72,3.72,0,0,0,3.67,9.27l1.27-.7S.59,5.88,5.25,3.48L7.84,2Z"/><path d="m2.93 2.02l.72.61 1.11-.61-.82-.63-1.01.63"/><path d="m5.59 3.66s1.86.8 1.8 1.91h1.41s0-1.34-2-2.54"/><path d="m6.78 9.73l-1.19.66.87.6 1.2-.71-.88-.55"/><path d="m5.11 6.36l-.64 1.16h2.39s.79.13-4.4 2.53l1.59.76s5.49-2.08 4.79-4.45"/></g></svg>