<svg id="Layer_1" xmlns="http://www.w3.org/2000/svg" viewBox="0 0 466 466" width="2500" height="2500"><style>.st0{fill:#fef102}</style><g transform="translate(-19.174 -16.06) scale(1.03804)"><circle cx="242.9" cy="239.9" r="224.4" id="Layer1"/></g><g transform="translate(-29.735 -25.25) scale(1.06897)"><circle class="st0" cx="245.3" cy="241.6" r="194.6" id="Layer2"/></g><path d="M330.9 156.9c-5-11.1-9.6-33.1-22.3-38-16.4-6.3-26.5 34.9-28.9 45.4h-2.4c-4.1-17.9-9.7-43.2-29.3-48.8-9.1 38.1 9.5 79.2 26.8 112.2 18.5-8.9 27.6-36.6 29.3-56.1h2.4l19.5 58.6c15.7-4.5 21.2-20.1 26.8-34.2 12.2-30.3 22.4-67.5 14.6-100-23.4 6.6-30.5 40.1-36.5 60.9M96.7 235c21-10 30.9-41.7 34.2-63.4h2.4c2.5 10.5 9.1 37.5 22.2 39.2 16.7 2.2 25.4-34.8 26.6-46.5h2.4c5.3 18.4 10.9 42.3 29.3 51.2 6.8-28.4-1.3-58.8-11.7-85.4-2.7-6.8-8.2-25.3-17.6-25.3-15.5 0-24.1 40.7-26.8 52.1h-2.4l-19.5-58.6C101.4 114.8 82.7 201.9 96.7 235m-36.6 29.3c25.5 111.1 143 174.1 248.8 127.2 38.5-17.1 69.1-47.5 86.7-85.7 4.6-9.9 13.5-27.7 8.3-40.7-5.2-12.9-55.5 8.2-68.1 13.7-1.8.8-3 2.4-3.3 4.3-.4 2.7.3 5.5 2 7.6 1.7 2.1 4.2 3.5 7 3.7 9.2.7 21.1 1.6 21.1 1.6-38.3 74.1-141.7 106.8-214.7 47.7-16.3-13.2-30.9-29-40.7-47.7-4.7-9-9.1-20.6-17.2-26.8-7.7-5.9-19.5-8-29.9-4.9z" transform="translate(.209 -2)"/></svg>