<svg xmlns="http://www.w3.org/2000/svg" width="2000" height="2000" viewBox="0 0 2000 2000"><circle cx="1000" cy="1000" r="1000" fill="#5991a3"/><circle cx="1000" cy="1000" r="932.62" fill="#387e97"/><path d="m1534.69 662.53h-5q-22.81 0-73.81 1.8t-76.21 1.8a491.68 491.68 0 0 1 -88.89 -8.48q142.13-147.19 187.14-207.65 48.72-65.46 48.72-136.08 0-66.32-45-112.18t-117.91-45.84q-59.07 0-110.55 38.55t-73.06 137.61l18.54 3.87q18.53-49.08 38.79-72.76 36.63-43.05 95.68-43.06 47.84 0 82.32 33.38t34.48 97.09q0 72.76-56.46 149.41-39.9 54.16-130.43 151.83a641 641 0 0 1 -86.2 -27.1q-105.64-41.4-193.24-41.4-204.06 0-315.65 126t-111.62 266.46q0 115.22 60.61 207.63t169.83 128.42q-135.64 120-177 173.43t-41.41 97.82q0 48 47.65 85.21 27.4 20.43 82.2 42l-14.35 14.4-78.9 70.81c-35.17 32-63.31 59.25-84.83 82a995.22 995.22 0 0 0 111 52.24c2-41.2 20.7-85.92 56.5-134.22q55.69-75.61 70.14-75.61 28.85 6 87.78 14.4t85.39 9.6q40.87 2.39 90.18 4.2t93.82 3q174.35 2.39 236.91 18 101 26.38 101 106.82a156.7 156.7 0 0 1 -.95 16.32q35.17-17.85 68.69-38.33c.36-6.22.66-12.45.66-18.8q0-186-181.49-242.44-110.6-34.79-419.5-34.81-67.31 0-122.59-12-84.16-18-84.14-56.41 0-37.18 57.61-96t92.42-58.81q78 10.8 108 10.8 192 0 305.45-114.62t113.42-251.44q0-62.39-20.4-132-12-37.18-33.61-87.61h207.63v-61l27.41-68.78-11.19-5.17c-9.15 16.59-17.66 29.1-25.58 37.7m-409.46 589.3q-44.42 36-110.42 36-112.83 0-183.63-116.42t-70.82-262.84q0-86.41 22.8-145.22 44.39-111.62 162-111.62 135.61 0 193.83 142.82t58.21 256.84q.03 142.85-71.98 200.44" fill="#fff"/></svg>