<svg enable-background="new 0 0 312.1 334.3" viewBox="0 0 312.1 334.3" xmlns="http://www.w3.org/2000/svg" xmlns:xlink="http://www.w3.org/1999/xlink"><linearGradient id="a" gradientUnits="userSpaceOnUse" x1="246.3903" x2="76.3903" y1="253.3017" y2="73.3017"><stop offset="0" stop-color="#f55a58"/><stop offset="1" stop-color="#fa8254"/></linearGradient><path d="m180.3 188.3-73.7.2-71.9-71.5 37-37.2zm120.6 6.2c6.4-6.4 10.5-14.9 11.1-23.9.2-3.2.1-6.7-.7-10.3-.9-4.1-2.4-8-4.5-11.5-7.1-11.9-20.2-19-34-19h-134.9l58.3 58.7h37.5l-72 72.3-135.6-135.5c-6.4 6.6-12.7 13.2-19.1 19.8-4.4 4.5-7 10.5-7.1 16.8v1.1c0 .4 0 .8.1 1.1.5 6 3.3 11.6 7.5 15.8l154.3 154.3c46.4-46.5 92.8-93.1 139.1-139.7zm-184.2-159.4-36.5 36.4 47.4 46.6h72.1zm99.4 82.9h41.5v-15.4c0-6.8-1.6-13.5-4.8-19.4 0 0-.1-.1-.1-.1-3-5.6-6.6-9.5-9.3-12.1l-64.3-63.8c-4.4-4.3-10.2-7-16.4-7.2-.4 0-.8 0-1.1 0-.4 0-.8 0-1.2.1-5.7.4-11 3-15.1 7.1l-19.6 19.6z" fill="url(#a)"/></svg>