<svg enable-background="new 0 0 382.3 382.3" viewBox="0 0 382.3 382.3" xmlns="http://www.w3.org/2000/svg"><g fill="none"><path d="m31.1 199h-16.7c3.9 89.1 73.7 161 161.8 168.4v-16.7c-78.9-7.3-141.3-71.8-145.1-151.7z"/><path d="m176.3 31.6v-16.7c-88.1 7.3-157.8 79.1-161.9 168.1h16.6c4.1-79.8 66.4-144.2 145.3-151.4z"/><path d="m191.3 336.4c77.5-.1 140.8-60.9 144.9-137.4h-12.2v.4c-.5 11-2.7 28.7-11.9 48.3-12.1 25.6-29.9 40.7-39.4 47.7 0-21.2 0-42.4 0-63.7-.1-2.8-.4-17.2 10.1-26.3 1.2-1 2.4-1.9 3.6-2.7 2-1.2 4.3-1.9 6.6-2.2 1.4-.2 3.3-.8 4.8-2.4 1.6-1.8 1.9-3.9 2-4.7l-77.9-.2c-.2 3.7-1.1 7.2-2.4 10.4 2 1.3 3.9 2.8 5.7 4.6 3.2 3.2 5.5 6.6 7.2 9.8 2.9 5.6 4.2 11.9 4.1 18.2-.2 22.3-.4 44.6-.6 66.9-4.8 3.4-11.8 7.4-20.7 10.5-11.2 3.8-21 4.5-27.7 4.5-5.9-.1-14.7-.7-24.7-4-24.6-8-38.4-25.8-44.5-33.8-14.5-19.3-18.6-38.6-22.3-55.8-3.2-15.2-4.1-28.2-4.2-37.4-.6-28.8 6.3-50.1 11.4-62.3 4.1-9.8 8.9-21.2 20-32.8 4.5-4.7 16.3-16.6 36-22.5 10.7-3.2 20-3.4 26.1-3.2 17.1.4 29.3 5.5 35.9 8.9 25.9 13.4 36.7 37.3 40.5 45.8 3.5 7.8 5.5 14.7 6.6 19.6h6.7l-3.8-54.9c11.7 9.1 33.2 28.6 45 60.7 4.9 13.3 7 25.5 7.8 35.3v1.3h12.1c-4.2-76.4-67.5-137.1-145-137.1v13.1h-14.9v-12.4c-70.5 7.2-126.2 64.9-130.1 136.4h19.1v16h-19.1c3.8 71.6 59.5 129.4 130.2 136.6v-12.1h15z"/><path d="m351.2 199c-4.1 84.8-74.1 152.3-159.9 152.4v16.6c95-.1 172.4-75 176.6-169z"/><path d="m351.2 183h16.6c-4.2-93.9-81.7-168.8-176.7-168.8v16.6c85.8.1 155.8 67.5 160.1 152.2z"/></g><path d="m191.1 0c-105.5 0-191.1 85.6-191.1 191.1s85.6 191.1 191.1 191.1 191.1-85.6 191.1-191.1-85.5-191.1-191.1-191.1zm0 14.3c95 0 172.4 74.8 176.7 168.8h-16.6c-4.2-84.7-74.3-152.1-160-152.1v-16.7zm-14.8.6v16.7c-78.9 7.2-141.2 71.6-145.2 151.4h-16.7c4.1-89 73.8-160.8 161.9-168.1zm0 352.5c-88.2-7.4-158-79.3-161.9-168.4h16.6c3.9 79.9 66.2 144.4 145.2 151.7v16.7zm0-43.9v12.1c-70.7-7.2-126.3-65-130.2-136.6h19.2v-16h-19.2c3.9-71.5 59.6-129.2 130.2-136.4v12.4h14.9v-13.1c77.5 0 140.8 60.7 145 137.1h-12.2c0-.4 0-.9 0-1.3-.8-9.9-2.9-22.1-7.8-35.3-11.8-32-33.3-51.5-45-60.7l3.8 54.9h-6.7c-1.1-4.9-3.1-11.8-6.6-19.6-3.8-8.5-14.6-32.4-40.5-45.8-6.6-3.4-18.8-8.5-35.9-8.9-6.1-.3-15.4 0-26.1 3.2-19.7 5.9-31.5 17.8-36 22.5-11.1 11.6-16 23-20 32.8-5 12.2-12 33.5-11.4 62.3.1 9.2.9 22.2 4.2 37.4 3.7 17.2 7.8 36.5 22.4 55.8 6.1 8.1 19.9 25.8 44.5 33.8 10 3.3 18.8 3.9 24.7 4 6.7 0 16.5-.7 27.7-4.5 8.9-3.1 15.8-7.1 20.7-10.5.2-22.3.4-44.6.6-66.9.1-6.3-1.3-12.6-4.1-18.2-1.6-3.2-4-6.6-7.2-9.8-1.9-1.8-3.8-3.4-5.7-4.6-4.7 11.1-15.7 18.8-28.5 18.8-17.1 0-31-13.9-31-31s13.9-31 31-31 31 13.9 31 31c0 .6 0 1.2-.1 1.8l77.9.2c-.1.8-.4 2.9-2 4.7-1.5 1.6-3.3 2.2-4.8 2.4-2.3.3-4.6 1-6.6 2.2-1.2.7-2.4 1.6-3.6 2.7-10.5 9.2-10.2 23.5-10.1 26.3v63.7c9.5-7 27.3-22.1 39.4-47.7 9.2-19.5 11.4-37.3 11.9-48.3 0-.1 0-.3 0-.4h12.2c-4.1 76.5-67.4 137.3-144.9 137.4v-12.9zm15 44.5v-16.6c85.8-.1 155.8-67.6 159.9-152.4h16.6c-4.1 94-81.6 168.9-176.5 169z"/><path d="m196.5 197.2c-1.8 0-2.9-1.4-2.8-2.4.1-.8 1-1.5 2.1-1.7l26 .1c0-.6.1-1.2.1-1.8 0-17.1-13.9-31-31-31s-31 13.9-31 31 13.9 31 31 31c12.8 0 23.8-7.7 28.5-18.8-10.2-6.7-20.8-6.5-22.9-6.4z" fill="#f00"/></svg>