<svg enable-background="new 0 0 263.9 249" viewBox="0 0 263.9 249" xmlns="http://www.w3.org/2000/svg"><path d="m256.3 114.5c2.5-3.9 8.6-14.6 7.4-29-.4-4.9-1.4-15.5-9.8-24.7-8.5-9.2-19.2-11.2-22.6-11.7-22.7-29.8-58.7-49.1-99.1-49.1-68.8 0-124.6 55.7-124.6 124.5 0 2.9.1 5.7.3 8.5-11.1 18.8-10.4 40.7 1.2 54.1 8 9.3 18.9 11.9 23.8 12.7 22.7 30 58.7 49.3 99.2 49.3 68.8 0 124.5-55.7 124.5-124.5.1-3.5-.1-6.8-.3-10.1z" fill="#f47f16"/><path d="m29.1 185.3c-5.2-5.6-6-10.9-6.1-12.8-.9-12.1 10.9-20.9 13-22.4s4.2-2.7 7.4-4.5c5-2.8 9.3-4.7 12.3-5.9l12 14.4 16.4-56.8-60.1 2 11.3 14.1c-3.1 4-7.6 10-12.2 17.7-5.6 9.2-8.6 14.3-10.2 21.8-1.4 6.4-3.2 14.9 1.6 22.5 4.3 6.9 11.8 9.2 14.6 9.9z" fill="#fff"/><path d="m235.2 63.3c1.9 1.8 6.3 6.4 6.6 13.1.3 7.4-4.6 12.8-8.1 16.7-3.1 3.4-6.3 5.5-12.8 9.7-4.9 3.2-9.2 5.6-12.3 7.3-4.3-5.4-8.7-10.8-13-16.2l-16.1 57.9 60.7-2.4-12.6-14.3c7.1-8.2 12-15.7 15.3-21.3 6.3-10.6 7.7-16 8.1-17.8 1.4-6.1 3-13.1-.5-20.3-4-8.5-12.7-11.6-15.3-12.4z" fill="#fff"/><path d="m129.8 129.9-8.3 33.7-6.3 7.3 10.5-41z" fill="#2e2119"/><path d="m179.2 81.7c-5.8-11-19.9-12.6-21.5-12.8-15.2 0-30.3 0-45.5 0l-25.8 102h28.8l10.5-41h17.3c4.1-.6 19.5-3.3 29.5-16.8 2.6-3.4 13.7-18.3 6.7-31.4zm-32.7 27.6c-3.5 4.2-7.7 6.2-10.1 7.1-.6.2-1.2.3-1.8.3h-6.3l9.5-35.9c5-.7 9.9 1.1 12.4 4.9 2 2.9 1.9 6 1.8 7.3.1 2 .1 9.6-5.5 16.3z" fill="#35497b"/><path d="m140.7 86.4-8.4 30.3h-4l9.5-35.9c.7-.1 6-1.2 10.3 2.5 3 2.5 3.7 5.8 3.8 6.9-.8-.8-2.7-2.8-5.8-3.6-2.3-.6-4.3-.4-5.4-.2z" fill="#2e2119"/></svg>