<svg xmlns="http://www.w3.org/2000/svg" viewBox="0 0 399 398"><path fill="#003567" d="m0 0h399v398h-399z"/><g fill="#fff"><circle cx="263.5" cy="176.5" r="5.5"/><circle cx="227.5" cy="139.5" r="4.5"/><circle cx="211.5" cy="187.5" r="4.5"/><circle cx="245.5" cy="220.5" r="4.5"/><circle cx="288.5" cy="215.5" r="4.5"/><circle cx="308.5" cy="168.5" r="4.5"/><circle cx="300.5" cy="168.5" r="4.5"/><circle cx="255.5" cy="249.5" r="4.5"/><circle cx="257.5" cy="255.5" r="4.5"/><circle cx="291.5" cy="238.5" r="3.5"/><circle cx="310.5" cy="202.5" r="3.5"/><circle cx="207.5" cy="234.5" r="4.5"/><circle cx="271.5" cy="138.5" r="4.5"/><circle cx="289.5" cy="134.5" r="4.5"/><circle cx="247.5" cy="116.5" r="4.5"/><path transform="matrix(.94921.31466-.31466.94921 62.56-60.77)" d="m218.59 140.79h1.88v45.17h-1.88z"/><path transform="matrix(.19954.97989-.97989.19954 367.99-86.18)" d="m235.8 158.31h1.88v47.64h-1.88z"/><path transform="matrix(-.71982.69416-.69416-.71982 531.07 100.85)" d="m244.24 134.42h1.88v46.36h-1.88z"/><path transform="matrix(-.82324.5677-.5677-.82324 464.19 199.96)" d="m200.02 153.67h1.88v37.17h-1.88z"/><path transform="matrix(.26.96561-.96561.26 331.61-50.89)" d="m198.06 177.53h1.88v26.73h-1.88z"/><path transform="matrix(.99885.04798-.04798.99885 10.38-9.84)" d="m209.06 190h1.88v42.26h-1.88z"/><path transform="matrix(.68949-.72429.72429.68949-76.74 229.24)" d="m228.06 183h1.88v42.26h-1.88z"/><path transform="matrix(-.34775-.93759.93759-.34775 93.38 519.4)" d="m226.4 208.6h1.88v37.24h-1.88z"/><path transform="matrix(.95-.3.3.95-58.82 85.59)" d="m249.56 222.51h1.88v25.31h-1.88z"/><path transform="matrix(-.04554-.99896.99896-.04554 2.62 504.83)" d="m241.56 238.51h1.88v25.31h-1.88z"/><path transform="matrix(-.70711-.70711.70711-.70711 299.96 589.31)" d="m271.09 211.67h1.88v41.72h-1.88z"/><path transform="matrix(-.99771.06767-.06767-.99771 594.66 434.56)" d="m289.02 217.67h1.88v19.38h-1.88z"/><path transform="matrix(-.47055-.88237.88237-.47055 186.49 605.47)" d="m273.94 229.79h1.88v33.99h-1.88z"/><path transform="matrix(-.29871-.95434.95434-.29871 123.06 578)" d="m272.94 226.79h1.88v33.99h-1.88z"/><path transform="matrix(-.88539-.46484.46484-.88539 464.54 555.04)" d="m299.75 201.53h1.88v37.45h-1.88z"/><path transform="matrix(-.55-.83.83-.55 291.35 573.97)" d="m298.76 198.68h1.88v20.25h-1.88z"/><path transform="matrix(-1 0 0-1 619.4 373.68)" d="m308.76 170.68h1.88v32.32h-1.88z"/><path transform="matrix(-.96088.27698-.27698-.96088 650.91 279.74)" d="m304.76 169.68h1.88v32.32h-1.88z"/><path transform="matrix(.19954.97989-.97989.19954 394.69-139.46)" d="m281.76 155.68h1.88v32.32h-1.88z"/><path transform="matrix(.98.19-.19.98 35.39-48.82)" d="m266.76 140.68h1.88v32.32h-1.88z"/><path transform="matrix(.71982-.69416.69416.71982-26.35 241.75)" d="m285.38 135.02h1.88v37h-1.88z"/><path transform="matrix(.86603-.5.5.86603-35.66 169.96)" d="m298.38 133.02h1.88v37h-1.88z"/><path transform="matrix(.95057-.31051.31051.95057-32.3 98.98)" d="m293.87 134.1h1.88v33.72h-1.88z"/><path transform="matrix(.18378.98297-.98297.18378 362.83-164.63)" d="m279.61 129.48h1.88v13.37h-1.88z"/><path transform="matrix(-.69177.72212-.72212-.69177 530.81 28.93)" d="m258.29 114.31h1.88v26.89h-1.88z"/><path transform="matrix(.76.65-.65.76 140.38-123.82)" d="m236.85 115.52h1.88v25.17h-1.88z"/><path transform="matrix(-.53036.84777-.84777-.53036 450.57 21.17)" d="m218.48 126.76h1.88v17.23h-1.88z"/><path transform="matrix(-.02-1 1-.02 113.38 390.63)" d="m247.97 120.43h1.88v38.18h-1.88z"/><path transform="matrix(.37736-.92607.92607.37736 50.35 327.31)" d="m267.66 105.3h1.88v41.82h-1.88z"/><path transform="matrix(.93251.36114-.36114.93251 88.83-78.72)" d="m254.04 177.36h1.88v41.83h-1.88z"/><path transform="matrix(.08889.99604-.99604.08889 461.73-68.11)" d="m267.16 198.32h1.88v40.06h-1.88z"/><path transform="matrix(-.84273.53833-.53833-.84273 615.53 214.18)" d="m275.54 176.49h1.88v41.01h-1.88z"/><path transform="matrix(-.97109-.2387.2387-.97109 535.7 448.11)" d="m294.05 169.65h1.88v43.93h-1.88z"/><path transform="matrix(.31366-.94954.94954.31366-70.68 385.7)" d="m230.51 219h1.88v45.48h-1.88z"/><path transform="matrix(.43146.90213-.90213.43146 252.55-104.23)" d="m208.02 129.67h1.88v37.17h-1.88z"/><path d="m143 124s-26 57 2 128h-11s-13-35-12-63h-17s-1 40 11 63h-19s-21-62-4-114c0 0 6-16 23-14 0 0-10 19-11 62l17 1s2-68 21-63"/><path d="m164 124s-28 57 11 125h13v3h-31s-23-43-16-86c0 0 6-44 23-42"/><path d="m189 185.5c0-35.7 27.3-65.18 62.7-69.84a74 74 0 0 0 -9.7 -.66c-39.76 0-72 31.79-72 71s32.24 71 72 71c4.61 0 9.63-1.18 14-2-37 0-67-32.54-67-69.5"/><path d="m99 274.52v-4.29-1.9a2.47 2.47 0 0 1 .14 -1 .58 .58 0 0 1 .56 -.26c.43 0 .65.31.65.93v1 3.38l-.06 5.44.06 5.66v4a1.5 1.5 0 0 1 -.13 .75 .54 .54 0 0 1 -.49 .19 .59 .59 0 0 1 -.53 -.21 1.45 1.45 0 0 1 -.14 -.78v-1.29-7.63-2.83h-.63l-3.23-.07-7.12.09v4.2l.08 8.25h-10.24l.1-13.2v-3.49-3.21-.88h10.07v.79l-.09 6.36c1.13.06 2.93.09 5.39.09 2.26 0 4.12-.03 5.61-.09"/><path d="m116.1 268.16l10 15.51c1.3 2 2 3.2 2.27 3.56a1.93 1.93 0 0 1 .32 .74q0 .45-.57.45a.59 .59 0 0 1 -.47 -.2 6.73 6.73 0 0 1 -.68 -1l-1.09-1.86h-.82-4.9-5.55l-1.6 2.78h-11.47l13.26-22m.47 18.13l5 .06 5-.06-2.32-3.69-2.95-4.48"/><path d="m140.44 267.35l-.07 3.18-.06 5.07v3.7l.07 7.84h1.19l7.09-.11h1.34c.65 0 1 .18 1 .54s-.18.49-.53.52h-.76-19.47v-5.78-3.55-4l-.06-6.12v-1.31"/><path d="M165.58,266.1l13.26,22h-11.5l-1.61-2.78h-5.55l-4.89,0h-.83l-1.09,1.86a7.94,7.94,0,0,1-.67,1,.62.62,0,0,1-.48.2q-.57,0-.57-.45a1.85,1.85,0,0,1,.33-.74c.21-.36,1-1.55,2.26-3.56l10-15.51Zm-5.16,10-2.9,4.48-2.32,3.69,5,.06,5-.06Z"/><path d="m190.55 267.35l-.07 3.18-.06 5.07v3.7l.07 7.84h1.19l7.09-.11h1.29c.65 0 1 .18 1 .54s-.18.49-.53.52h-.77-19.4l.05-5.78v-3.55-4l-.06-6.12v-1.31"/><path d="M221.28,267.76l-.1,10.8.1,9.16a12.46,12.46,0,0,0,1.43.11,11.33,11.33,0,0,0,3.33-.53,11.06,11.06,0,0,0,3-1.45,10.71,10.71,0,0,0,1.75-1.58,11.76,11.76,0,0,0,1.45-1.94c.21-.36.44-.55.68-.55s.54.15.54.43a3.39,3.39,0,0,1-.82,1.55,12.85,12.85,0,0,1-1.8,1.95,11.85,11.85,0,0,1-5,2.61,13.54,13.54,0,0,1-3.32.44,12.75,12.75,0,0,1-4.66-.92,11.22,11.22,0,0,1-5.7-4.58,10.21,10.21,0,0,1-1.63-5.53,10.35,10.35,0,0,1,1.69-5.63,11.54,11.54,0,0,1,5.11-4.31,12.72,12.72,0,0,1,5.19-1.07,12.31,12.31,0,0,1,8.26,3c1.11.95,1.66,1.63,1.66,2a.38.38,0,0,1-.16.31.56.56,0,0,1-.37.13c-.22,0-.48-.19-.79-.59a9.85,9.85,0,0,0-3.76-2.87,11.76,11.76,0,0,0-4.94-1.06A6.17,6.17,0,0,0,221.28,267.76Z"/><path d="m256.66 274.52l-.05-4.29-.05-1.9a2.47 2.47 0 0 1 .14 -1 .58 .58 0 0 1 .56 -.26c.43 0 .65.31.65.93v1 3.38l-.06 5.44.06 5.66v4a1.5 1.5 0 0 1 -.13 .75c-.08.13-.24.19-.49.19a.59 .59 0 0 1 -.53 -.21 1.45 1.45 0 0 1 -.14 -.78v-1.29l.05-7.63v-2.83h-.63l-3.23-.07-7.12.09v4.2l.08 8.25h-10.16l.1-13.2v-3.49-3.21-.88h10.17v.79l-.09 6.38c1.13.06 2.93.09 5.39.09 2.16-.02 4.02-.05 5.48-.11"/><path d="m273.16 266.1l13.26 22h-11.5l-1.61-2.78h-5.55-4.89-.87l-1 1.86a7 7 0 0 1 -.67 1 .62 .62 0 0 1 -.48 .2q-.57 0-.57-.45a1.85 1.85 0 0 1 .33 -.74c.21-.36 1-1.55 2.26-3.56l10-15.51m-3.87 7.98l-2.9 4.48-2.32 3.69 5 .06 5-.06"/><path d="m298.06 267.35v1.06l-.1 8.35.1 11.37h-10.15l.1-12.44-.11-7.6v-.74"/><path d="m322.26 277.47v-2.55-4-1.84-1.16c0-.55.2-.82.61-.82a.6 .6 0 0 1 .51 .19 1.35 1.35 0 0 1 .14 .72v.22c0 .21 0 .56 0 1.05l-.06 5.13-.05 4.7v4.95l.05 5q-3.41-2-10-5.43t-10.66-5.45v.75l.17 7.86v1c0 .44-.22.65-.67.65s-.68-.27-.68-.8v-1.07-1.72l.06-7.81-.13-10.52q6.75 3.81 20.71 10.95"/></g></svg>