<svg xmlns="http://www.w3.org/2000/svg" xmlns:xlink="http://www.w3.org/1999/xlink" viewBox="0 0 2000 2000" width="2000" height="2000"><defs><linearGradient id="3" y1="1641.79" x2="0" y2="1013.14" gradientUnits="userSpaceOnUse"><stop stop-color="#ff7d27"/><stop offset="1" stop-color="#ff401f"/></linearGradient><linearGradient id="2" y1="1376.53" x2="0" y2="534.67" xlink:href="#0"/><linearGradient id="0" y1="1376.53" x2="0" y2="534.66" gradientUnits="userSpaceOnUse"><stop stop-color="#ff5c22"/><stop offset="1" stop-color="#ff121d"/></linearGradient><linearGradient id="1" y1="814.22" x2="0" y2="358.21" gradientUnits="userSpaceOnUse"><stop stop-color="#ff251d"/><stop offset="1" stop-color="#fc1321"/></linearGradient></defs><circle cx="1000" cy="1000" r="1000" fill="#303d51"/><path d="m462 747.23l-49.51 370.41c-18.19 136.14 86.84 257.19 223.74 258.9l58.93-841.88c-118.48 4.92-217.29 94.03-233.16 212.57" fill="url(#0)"/><path fill="url(#1)" d="m1113.24 358.21h-226.48l-11.21 456.01h248.9l-11.21-456.01"/><path d="m1587.48 1117.65l-49.48-370.41c-15.85-118.55-114.66-207.65-233.17-212.58l58.93 841.87c136.87-1.71 241.91-122.76 223.72-258.88" fill="url(#2)"/><path fill="url(#3)" d="m870.65 1013.14l-15.46 628.65h289.61l-15.46-628.65h-258.69"/></svg>