<svg xmlns="http://www.w3.org/2000/svg" width="1262" height="2000" viewBox="0 0 1262 2000"><g transform="translate(-369)"><path d="m1293.65 1644.08l336.14.41.07-366.88c0-93.25-16-178.54-47.55-254.13-53.88 92.73-130.66 165.32-228.38 215.89a628.66 628.66 0 0 1 -60.54 27.21c.15 3.7.26 7.33.26 11" fill="#151d30"/><path d="M1294.79,182.05V779c0,95.8-26.79,173.39-79.59,230.58-53.25,57.64-123.59,86.84-209.07,86.84-86.66,0-159.26-29.47-215.84-87.51S705.21,873.65,705.21,779l-.52-402.86H701L369,431.7V779c0,120.16,26.31,226.7,78.19,316.68,51.73,89.77,126.11,159.84,221.1,208.3,95.69,48.83,208.66,73.59,335.81,73.59s239.34-24.76,333.66-73.55c93.58-48.42,166.59-118.49,217-208.15C1605.36,1005.73,1631,899.12,1631,779V179.31L1463.67,0Z" fill="#a5c852"/><path d="M996.51,816.85c-127.07,0-239.34,24.73-333.66,73.55-93.58,48.42-166.59,118.46-217,208.15-50.58,90.1-76.26,196.71-76.26,316.87V2000l336.25-6.07V1415.42c0-95.84,26.75-173.39,79.59-230.58C838.61,1127.2,909,1098,994.47,1098c3.63,0,7.07.37,10.66.48v-.07c85.48,0,155.82-29.21,209.07-86.81,35.49-38.46,58.95-86.32,70.68-142.52C1200,834.54,1103.3,816.85,996.51,816.85Z" fill="#151d30"/></g></svg>