<svg enable-background="new 0 0 35.1 40.3" viewBox="0 0 35.1 40.3" xmlns="http://www.w3.org/2000/svg" xmlns:xlink="http://www.w3.org/1999/xlink"><linearGradient id="a"><stop offset="0" stop-color="#0090c3"/><stop offset="1" stop-color="#0a4e95"/></linearGradient><radialGradient id="b" cx="10.871" cy="20.1406" gradientUnits="userSpaceOnUse" r="11.6667" xlink:href="#a"/><radialGradient id="c" cx="26.2695" cy="20.1406" gradientUnits="userSpaceOnUse" r="15.5498" xlink:href="#a"/><path d="m17.4 36.3-14-8.1v-16.1l14-8.1v-4l-17.4 10.1v20.1l17.4 10.1z" fill="#00abe6"/><path d="m17.4 18.2h-3.3v-7l-6.2 3.6v.4 10.4l6.2 3.6v-6.2-1.1h3.3z" fill="#0d4e96"/><path d="m17.4 33.5v.1l-11.6-6.7v-13.5l11.6-6.7v-1.7l-13.1 7.6v15.1l13.1 7.6z" fill="url(#b)"/><path d="m17.4 36.3 14.2-8.1v-16.1l-14.2-8.1v-4l17.7 10.1v20.1l-17.7 10.1z" fill="url(#c)"/><path d="m17.4 18.2h3.5v-7l6.2 3.6v.4 10.4l-6.2 3.6v-6.2-1.1h-3.5z" fill="#0d4e96"/><path d="m17.4 33.5.1.1 11.8-6.7v-13.5l-11.8-6.7h-.1v-1.7h.1l13.2 7.6v15.1l-13.2 7.6h-.1z" fill="#649dd4"/></svg>