<svg xmlns="http://www.w3.org/2000/svg" xmlns:xlink="http://www.w3.org/1999/xlink" viewBox="0 0 391.64 378.03"><defs><linearGradient id="4" x1="210.6" y1="252.08" x2="1.28" y2="250.84" xlink:href="#0"/><linearGradient id="5" x1="230.41" y1="100.9" x2="23.55" y2="116.78" xlink:href="#3"/><linearGradient id="3" x1="275.65" y1="321.71" x2="75.7" y2="258.21" gradientUnits="userSpaceOnUse"><stop offset=".01" stop-color="#a8dae3"/><stop offset=".21" stop-color="#b2dee6"/><stop offset=".45" stop-color="#bee3ea"/><stop offset=".56" stop-color="#c4e6ec"/><stop offset="1" stop-color="#f0f9fa"/></linearGradient><linearGradient id="1" x1="410.36" y1="110.97" x2="206.42" y2="139.19" gradientUnits="userSpaceOnUse"><stop offset=".01" stop-color="#a8dae3"/><stop offset=".56" stop-color="#c4e6ec"/><stop offset="1" stop-color="#f0f9fa"/></linearGradient><linearGradient id="0" x1="410.93" y1="112.11" x2="133.08" y2="83.21" gradientUnits="userSpaceOnUse"><stop offset=".01" stop-color="#2ae4e8"/><stop offset=".4" stop-color="#22c4d9"/><stop offset=".56" stop-color="#1eb7d2"/><stop offset="1" stop-color="#0b65c1"/></linearGradient><linearGradient id="2" x1="382.53" y1="272.81" x2="181.7" y2="251.92" xlink:href="#0"/></defs><path d="m207.22 174.44s26-59-25-116c0 0-29-38-89-35l12-4.8a25.81 25.81 0 0 1 6.21 -1.64l11.79-1.57 83-13s29.33-5.87 51.57.6a38.06 38.06 0 0 1 16.68 10.13c12.26 12.68 36.9 46.22 20.75 99.27 0 0-16 59-76 73 0 .01-15 4.01-12-10.99" fill="url(#0)"/><path d="m217.68 192.18s63.91-8.49 86.06-81.7c0 0 17.36-44.54-16.42-94.22l10.34 7.74a26.42 26.42 0 0 1 4.63 4.46l7.47 9.25 54.29 64.12s20.26 22 26.31 44.36a38.06 38.06 0 0 1 0 19.51c-4.45 17.06-20.28 55.56-74 69.37 0 0-58.71 17-101.88-26.93.05.01-11.17-10.72 3.2-15.96" fill="url(#1)"/><path d="m203.51 207.32s37.49 52.45 112.54 37.68c0 0 47.48-5.58 75.48-58.73l-2 12.76a26.09 26.09 0 0 1 -1.77 6.19l-4.66 10.94-31.12 78s-9.91 28.22-26.82 44.06a38 38 0 0 1 -17.16 9.17c-17.15 4.08-58.57 8.18-96-32.75 0 0-42.6-43.85-24.06-102.6-.01-.04 4.2-14.94 15.57-4.72" fill="url(#2)"/><path d="m185.57 204.25s-27.46 58.33 22.1 116.59c0 0 28 38.71 88.1 37.21l-12.11 4.49a26 26 0 0 1 -6.26 1.46l-11.82 1.28-83.3 10.92s-29.46 5.13-51.54-1.89a38.16 38.16 0 0 1 -16.42 -10.54c-11.94-13-35.73-47.12-18.27-99.75 0 0 17.47-58.59 77.8-71.08 0 .06 15.15-3.61 11.72 11.31" fill="url(#3)"/><path d="m176.36 188.39s-64.1 6.86-88.11 79.48c0 0-18.5 44.08 14 94.61l-10.13-8a25.73 25.73 0 0 1 -4.51 -4.58l-7.24-9.44-52.63-65.46s-19.74-22.53-25.17-45a38.07 38.07 0 0 1 .43 -19.55c4.88-16.95 21.68-55 75.72-67.46 0 0 59.12-15.53 101.16 29.52.04 0 10.98 11.01-3.52 15.88" fill="url(#4)"/><path d="m187.7 173.52s-38.25-51.91-113.06-36c0 0-47.39 6.25-74.64 59.79l1.8-12.81a26.59 26.59 0 0 1 1.68 -6.2l4.5-11 30.02-78.48s9.5-28.36 26.18-44.43a38 38 0 0 1 17.08 -9.39c17.1-4.33 58.45-9 96.44 31.38 0 0 43.22 43.23 25.51 102.24 0-.04-3.99 14.96-15.51 4.9" fill="url(#5)"/></svg>