<svg enable-background="new 0 0 32 32" viewBox="0 0 32 32" xmlns="http://www.w3.org/2000/svg"><circle cx="16" cy="16" fill="#d59143" r="16"/><path d="m8 16.5c-.5.4-1 1.1-1 2.3 0 .8.4 1.3 1 1.7v1.4c0 .9.4 1.7 1.1 2.2l4.9 3.3v-17l-6 1.6zm1.3-.5c1 .7 1 5.1 1 5.1s-1.1-.1-2.1-.6c.8.3 1.4.2 1.7.2s.2-3.8-1-4.5c-.2-.1-.5 0-.9.1.6-.2 1-.4 1.3-.3zm5.1 6.9h3.3v4.3h-3.3zm-.8-12.9-5.6 1.6v-6.1c0-.3.2-.5.5-.5.1 0 .3.1.4.1l5.1 5.1zm.8 6h3.3v6.5h-3.3zm4-6-.2.2 5-5c.2-.2.5-.2.7 0 .1.1.1.2.1.3v6.1zm-4 .3h3.3v5.3h-3.3zm9.6 6.2v-4.5l-6-1.7v17l4.8-3.3c.7-.5 1.1-1.3 1.1-2.2v-1.4c.5-.4.9-.9 1-1.7.1-1.1-.4-1.8-.9-2.2zm-1.9 4.3h.2c.3 0 .7 0 1.3-.2h.1c-.9.5-2.1.6-2.1.6s0-4.4 1-5.1c.2-.1.7 0 1.2.3-.4-.1-.7-.2-.9-.1-1 .6-.8 4.5-.8 4.5z" fill="#fff"/></svg>