<svg enable-background="new 0 0 1175.5 847.8" viewBox="0 0 1175.5 847.8" xmlns="http://www.w3.org/2000/svg"><path d="m307.3 11800.7c-178-14-315-42-307-63 71-169 510-1164 516-1170 5-5 108-13 228-18 532-20 953-124 1408-349 327-161 569-334 821-585 371-370 613-781 755-1284 16-58 29-110 29-118 0-11-81-13-439-13-242 0-450-4-463-9-19-7-69-115-277-592-140-321-256-591-258-600-7-26 77-49 287-80 43-7 301-14 606-18l531-6-32-110c-358-1214-1469-2063-2830-2165-77-5-178-10-225-10h-85l-262-603c-225-515-260-603-245-608 68-25 220-34 572-34 450 0 669 20 1040 96 1515 311 2774 1275 3344 2563 110 248 239 656 262 827l7 49h568 569l4-22c82-402 171-673 325-993 463-964 1331-1751 2406-2183 652-261 1356-388 2055-369 294 9 528 42 516 73-10 26-508 1169-511 1172-2 2-106 7-231 12-351 14-615 55-913 140-459 132-913 371-1261 663-438 369-755 828-923 1337-19 58-38 119-41 137l-7 32 428 3c235 2 435 7 443 11 13 7 525 1168 525 1191 0 15-129 53-246 72-86 14-195 18-630 21l-527 5 20 71c292 1034 1188 1855 2343 2146 255 64 503 97 825 110 192 8 216 11 228 27 8 11 126 276 262 589 167 383 244 572 237 577-22 12-162 37-272 48-160 17-627 14-833-4-1178-105-2240-580-3036-1356-486-474-827-1006-1037-1620-54-155-119-399-139-517l-12-73h-559-559l-4 23c-3 12-14 69-26 127-165 820-631 1617-1289 2204-749 669-1683 1088-2711 1215-309 38-707 51-970 31z" fill="#007f88" transform="matrix(.1 0 0 -.1 0 1181)"/></svg>