<svg enable-background="new 0 0 278.7 221.5" viewBox="0 0 278.7 221.5" xmlns="http://www.w3.org/2000/svg"><g fill="#2e88d1"><path d="m142.1 172.7c0 1.5-1.2 2.9-2.7 2.9-1.5 0-2.7-1.2-2.7-2.7v-55.3c0-1.5 1.2-2.8 2.7-2.9h.1.2c1.5.1 2.6 1.4 2.6 2.8v55.2z"/><path d="m135.5 213.7c0 1.3-.9 2.6-2.2 2.8-.3.1-.6.1-.9 0-1.4-.2-2.5-1.5-2.5-2.9v-23.3c0-1.4 1-2.7 2.5-2.9h.4c1.5 0 2.7 1.4 2.7 2.9z"/><path d="m129 176c-6.7-.4-14.8-1.4-23.8-3.7-8.3-2.1-15.4-4.8-21.2-7.4 0-.3 0-.5 0-.8 0-3.7-3-6.7-6.7-6.7s-6.7 3-6.7 6.7 3 6.7 6.7 6.7c1.8 0 3.4-.7 4.6-1.9v.1.1c7 3.1 15.5 6.2 25.3 8.5 4.8 1.1 9.4 1.9 13.7 2.5v.1l-6.9 7.7v30.4c0 1.7 1.4 3.2 3.1 3.1h.1c1.5-.1 2.6-1.4 2.6-2.9v-29.2l9.9-11c.7-.8.3-2-.7-2.3zm-51.7-8.6c-1.8 0-3.2-1.4-3.2-3.2s1.4-3.2 3.2-3.2 3.2 1.4 3.2 3.2-1.5 3.2-3.2 3.2z"/><path d="m164.2 88.3-5.6-9.9c-.4-.8-1.2-1.2-2.1-1.3l-22.6-.1c-1.5 0-2.8.7-3.7 1.8l-4.2 5.6c-1.5 2-2.3 4.5-2.3 7l.3 21.6c-6.1-1.1-13.4-3.1-21.4-6.5-11.1-4.7-19.6-10.6-25.7-15.7-1.1-.9-2.7-1.2-4.1-.8-1.3.4-2.8.8-4.3 1.1-2.5.5-4.8.8-6.9 1-1.1.1-2.1-.3-2.8-1.1-1-1.1-2.3-2.4-3.6-4-4.3-5.3-8.1-11.5-11.8-21.3-2.3-6-6.7-19.1-8.4-37.4-.7-7.2-1.1-16.9-.2-28.4-5.6 5.4-11.2 10.8-16.8 16.2-.1 5.2 0 10.9.6 17 .6 6.8 1.6 13 2.8 18.5-2 1.2-3.4 3.3-3.4 5.8 0 3.7 3 6.7 6.7 6.7s6.7-3 6.7-6.7c0-3.4-2.6-6.3-5.9-6.7-1.3-5.5-2.4-12.1-2.6-19.5-.2-4.9 0-9.4.3-13.4 1.9-1.6 3.9-3.2 5.8-4.8-.4 9.1.3 16.7 1.1 22.3 2.2 15.6 6.8 26.6 10.3 35.2 3.7 9 6.6 13.6 8.5 16.5 2.9 4.3 5.8 7.7 8.2 10.2.7.7 1.6 1.1 2.6 1.1 2.7-.1 6-.5 9.5-1.5.9-.3 1.8-.5 2.6-.9 1.5-.5 3.2-.2 4.5.8 5.6 4.7 13.4 10.1 23.4 14.6 9.3 4.2 17.8 6.4 24.4 7.6v10.1c-5.9-.7-13.4-2.1-21.6-5.2-10.6-3.9-18.6-9.1-24.1-13.3.4-.8.6-1.7.6-2.7 0-3.7-3-6.7-6.7-6.7s-6.7 3-6.7 6.7 3 6.7 6.7 6.7c.9 0 1.8-.2 2.6-.5 6 4.4 14.3 9.5 24.9 13.7 11.5 4.6 21.9 6.5 29.6 7.4v-43.7c0-1 .3-1.9.8-2.8l2.5-4c.8-1.3 2.2-2.1 3.8-2.1l17.3.1c1 0 2 .6 2.5 1.5l3 5.4c.6 1.1.5 2.4-.2 3.4l-.9 1.2c-.6.8-.6 2 0 2.8.7 1 2.2 1 2.9.1l2.9-3.5c1-1.3 1.2-3.5.2-5.2zm-136.4-30.9c0 1.8-1.4 3.2-3.2 3.2s-3.2-1.4-3.2-3.2 1.4-3.2 3.2-3.2 3.2 1.5 3.2 3.2zm41.1 50.5c0-1.8 1.4-3.2 3.2-3.2s3.2 1.4 3.2 3.2-1.4 3.2-3.2 3.2-3.2-1.4-3.2-3.2z"/><path d="m129.2 162.3c0-.1 0-.3-.1-.4-.3-1.3-1.4-2.2-2.7-2.3-6.1-.5-13.2-1.6-21-3.7-13.2-3.6-23.8-9-31.4-13.8-.9-.6-2-.8-3.1-.5-6.2 1.4-12.3 2.7-18.5 4.1-.5.1-1.1 0-1.5-.3-6.4-4.8-14.3-11.7-21.8-21.1-9.2-11.4-14.9-22.6-18.3-31.1 1.5-1.2 2.5-3.1 2.5-5.2 0-3.7-3-6.7-6.7-6.7s-6.6 2.9-6.6 6.6 2.9 6.6 6.6 6.7c4 10.1 10.6 23.6 22.1 37.1 7.1 8.5 14.5 14.9 20.8 19.7.6.5 1.5.7 2.3.5 6.2-1.4 12.4-2.8 18.6-4.2 1.4-.3 2.8-.1 4 .5 7.4 4 16.8 8.3 27.9 11.7 8.7 2.7 16.8 4.3 23.8 5.2 1.6.3 3.2-1 3.1-2.8zm-125.7-74.4c0-1.8 1.4-3.2 3.2-3.2s3.2 1.4 3.2 3.2-1.4 3.2-3.2 3.2-3.2-1.5-3.2-3.2z"/><path d="m126.3 151.4c2 .1 3.4-1.4 3.4-2.9 0-1-.9-2.1-2.1-2.5-11-1.3-34.4-5.5-57.2-22.8-16-12.1-25.4-25.9-30.6-34.9-.4-.7-1.1-1.3-2-1.5-.7-.1-1.4 0-2 .5-.3.2-.6.5-.8.9-.5.8-.4 1.9.1 2.7 3.3 5.6 7.7 12.1 13.7 18.9 5.7 6.4 11.4 11.3 16.3 15.1l-9.2 2.8c-.7.2-1.5.1-2.1-.4-8.2-6.6-22.1-19.9-31.5-41.2-7.9-17.9-9.3-34-9.5-43.6-.2-1.3-1.3-2.2-2.6-2.2s-2.4.9-2.6 2.2c.3 10.3 1.9 26.2 9.4 43.8 10.4 24.5 26.5 39.5 35.7 46.8.5.4 1.2.6 1.9.4l16.6-4.2c6.7 4.9 16.1 10.6 28.2 15.3 10.2 3.7 19.5 5.7 26.9 6.8z"/><path d="m143.3 213.7c0 1.3.9 2.6 2.2 2.8.3.1.6.1.9 0 1.4-.2 2.5-1.5 2.5-2.9v-23.3c0-1.4-1-2.7-2.5-2.9-.1 0-.3 0-.4 0-1.5 0-2.7 1.4-2.7 2.9z"/><path d="m149.1 178.3 9.9 11v29.2c0 1.5 1.1 2.8 2.6 2.9h.1c1.7.1 3.1-1.4 3.1-3.1v-30.3l-6.9-7.7s0 0 0-.1c4.3-.6 8.8-1.4 13.7-2.5 9.8-2.3 18.2-5.4 25.3-8.5 0 0 .1-.1 0-.1v-.1c1.2 1.1 2.8 1.9 4.6 1.9 3.7 0 6.7-3 6.7-6.7s-3-6.7-6.7-6.7-6.7 3-6.7 6.7v.8c-5.8 2.6-12.9 5.3-21.2 7.4-9 2.3-17.1 3.3-23.8 3.7-1.1.2-1.4 1.4-.7 2.2zm49.2-14.2c0-1.8 1.4-3.2 3.2-3.2s3.2 1.4 3.2 3.2-1.4 3.2-3.2 3.2-3.2-1.4-3.2-3.2z"/><path d="m149.5 162.4c-.1 1.7 1.5 3 3.2 2.8 7-1 15.1-2.6 23.8-5.2 11.1-3.4 20.4-7.7 27.9-11.7 1.2-.7 2.6-.8 4-.5 6.2 1.4 12.4 2.8 18.6 4.2.8.2 1.6 0 2.3-.5 6.4-4.8 13.7-11.3 20.8-19.7 11.4-13.5 18.1-27 22.1-37.1 3.6-.1 6.6-3 6.6-6.7s-3-6.7-6.7-6.7-6.7 3-6.7 6.7c0 2.1 1 4 2.5 5.2-3.4 8.5-9.1 19.7-18.3 31.1-7.6 9.4-15.4 16.3-21.8 21.1-.4.3-1 .4-1.5.3-6.2-1.4-12.3-2.7-18.5-4.1-1-.2-2.1 0-3.1.5-7.6 4.8-18.1 10.2-31.4 13.8-7.7 2.1-14.8 3.2-21 3.7-1.3.1-2.5 1-2.7 2.3-.1.2-.1.3-.1.5 0-.1 0 0 0 0zm122.5-71.3c-1.8 0-3.2-1.4-3.2-3.2s1.4-3.2 3.2-3.2 3.2 1.4 3.2 3.2-1.4 3.2-3.2 3.2z"/><path d="m152.5 151.4c-2 .1-3.4-1.4-3.4-2.9 0-1 .9-2.1 2.1-2.5 11-1.3 34.4-5.5 57.2-22.8 16-12.1 25.4-25.9 30.6-34.9.4-.7 1.1-1.3 2-1.5.7-.1 1.4 0 2 .5.3.2.6.5.8.9.5.8.4 1.9-.1 2.7-3.3 5.6-7.7 12.1-13.7 18.9-5.7 6.4-11.4 11.3-16.3 15.1l9.2 2.8c.7.2 1.5.1 2.1-.4 8.2-6.6 22.1-19.9 31.5-41.2 7.9-17.9 9.3-34 9.5-43.6.2-1.3 1.3-2.2 2.6-2.2s2.4.9 2.6 2.2c-.2 10.2-1.9 26.1-9.3 43.7-10.4 24.5-26.5 39.5-35.7 46.8-.5.4-1.2.6-1.9.4l-16.6-4.2c-6.7 4.9-16.1 10.6-28.2 15.3-10.3 3.8-19.6 5.8-27 6.9z"/><path d="m257.7 52.1c1-4.5 1.8-9.4 2.4-14.9.8-7.8.9-14.9.6-21-5.6-5.4-11.2-10.8-16.8-16.3 1.2 11.4 1.7 30-4.5 51.6-5 17.3-12.5 30.6-18.6 39.4-.8 1.2-2.3 1.8-3.7 1.5-3.9-.8-7.7-1.6-11.6-2.3-1.1-.2-2.3.1-3.1.8-5.2 4.3-12.3 9.3-21.3 13.6-10.1 4.9-19.4 7.5-26.4 8.8l.1-19.6c0-.5-.1-.9-.4-1.3-.6-.7-1.5-1.2-2.4-1.2-.4 0-.8.1-1.1.2-1.1.5-1.8 1.6-1.8 2.8v40.9c7.7-.7 18.7-2.6 30.8-7.7 9.8-4.1 17.6-9.1 23.2-13.4.9.4 1.9.6 3 .5 3.7-.2 6.6-3.5 6.4-7.1-.2-3.8-3.6-6.7-7.5-6.3-2.8.3-5.2 2.5-5.7 5.2-.3 1.6-.1 3 .5 4.3-5.7 4.2-13.6 9-23.6 12.7-8.1 3-15.4 4.6-21.4 5.4v-10.5c7.6-1.1 18.8-3.6 30.8-10.2 7.2-3.9 12.9-8.3 17.2-12.2.8-.8 2-1.1 3.1-.8 4.5.9 8.9 1.8 13.4 2.7 1.2.2 2.4-.2 3.2-1.2 7-9 16.6-23.6 22.4-43.6 4.7-16 5.4-30 5.2-39.9 1.9 1.6 3.7 3.2 5.6 4.8.4 5.7.4 12.3-.1 19.4-.4 4.8-.9 9.2-1.6 13.3-.1 0-.1 0-.2 0-3.7 0-6.8 3.1-6.7 6.8 0 3.6 3.1 6.6 6.6 6.6 3.8.1 6.8-3 6.8-6.7-.2-2-1.2-3.9-2.8-5.1zm-52 52.6c1.8 0 3.2 1.4 3.2 3.2s-1.4 3.2-3.2 3.2-3.2-1.4-3.2-3.2 1.4-3.2 3.2-3.2zm47.9-44.1c-1.8 0-3.2-1.4-3.2-3.2s1.4-3.2 3.2-3.2 3.2 1.4 3.2 3.2-1.5 3.2-3.2 3.2z"/></g></svg>