<svg enable-background="new 0 0 32 32" viewBox="0 0 32 32" xmlns="http://www.w3.org/2000/svg"><g clip-rule="evenodd" fill-rule="evenodd"><circle cx="16" cy="16" fill="#292929" r="16"/><path d="m15 18.7c0-.5 0-.9 0-1.4 0-.1 0-.2.2-.3.1 0 .2 0 .3.1.3.3.6.7.9 1 .1.1.2.2.3.4v.1 1.5c0 .4-.3.8-.8.9-.4 0-.8-.3-.9-.7 0-.1 0-.1 0-.2s0-1.4 0-1.4zm0-9.1v-2.8c0-.4.3-.8.7-.8.5-.1.9.2 1 .7v.2 2.8c-.2-.3-.5-.5-.8-.5-.4 0-.7.1-.9.4zm0 12.7c.2.3.5.5.8.5.4 0 .6-.2.8-.5v2.3.7c0 .4-.4.8-.9.8-.4 0-.8-.4-.8-.8 0-.9 0-1.8 0-2.7.1-.1.1-.3.1-.3zm1.7-8.9v1.7c0 .2 0 .2-.2.3-.1.1-.3 0-.4-.1l-.7-.8c-.1-.1-.3-.3-.4-.4v-.1c0-.7 0-1.4 0-2.1 0-.4.3-.8.8-.8.4 0 .8.3.9.7v.2zm1.7-3.3v-2.3c0-.4.2-.7.6-.8.5-.2 1.1.2 1.1.8v1.7 2.8c0 .4-.2.7-.6.9-.5.1-1-.2-1-.7 0-.1 0-.1 0-.2zm-5 10.7v2.6c0 .4-.3.8-.7.8-.5.1-1-.3-1-.8 0-.1 0-.3 0-.4v-4.8c0-.4.3-.7.6-.8.4-.1.9.2 1 .6v.2c.1.8.1 1.7.1 2.6zm0-9.5v3.5c0 .4-.3.8-.7.8-.5.1-.9-.2-1-.6 0-.1 0-.1 0-.2 0-.5 0-1 0-1.5v-5.5c0-.4.3-.8.7-.8.5-.1.9.2 1 .6v.2 2.7zm5 8.2v-3.8c0-.4.2-.7.5-.8.5-.3 1.1.1 1.2.8v7.6c0 .4-.2.8-.6.9-.5.1-1-.2-1-.7 0-.1 0-.1 0-.2zm5.1-3.9v5.9c0 .4-.3.8-.7.9-.5.1-1-.3-1-.8v-11.9c0-.4.2-.7.5-.8.5-.2 1.1.2 1.1.8zm-13.3 0v5.9c0 .4-.3.8-.7.9-.5.1-1-.3-1-.8v-11.9c0-.4.2-.7.6-.8s.9.1 1 .6v.2 2z" fill="#fff"/></g></svg>