<svg height="240" viewBox="0 0 240 240" width="240" xmlns="http://www.w3.org/2000/svg"><g fill="none"><path d="m120 240c-66.2741686 0-120-53.72583-120-120 0-66.2741698 53.7258314-120 120-120 66.274169 0 120 53.7258302 120 120 0 66.27417-53.725831 120-120 120z" fill="#378ffb"/><path d="m120 205c33.137085 0 60-26.889102 60-60.058491 0-21.370097-18.678867-56.3659457-56.036601-104.9875478v-.0000002c-1.683469-2.1910587-4.822665-2.6012107-7.01159-.9160998-.343433.2643863-.651079.5723324-.915208.9160998-37.357734 48.6216021-56.036601 83.617451-56.036601 104.987548 0 33.169389 26.862915 60.058491 60 60.058491z" fill="#fff"/></g></svg>