<svg viewBox="0 0 400 400" xmlns="http://www.w3.org/2000/svg"><path d="m200 0c-110.5 0-200 89.5-200 200s89.5 200 200 200 200-89.5 200-200-89.5-200-200-200zm-34.2 281c-6.2 0-11.3-5-11.3-11.3s5-11.3 11.3-11.3 11.3 5 11.3 11.3-5.1 11.3-11.3 11.3zm98.9 11.4c-39.9.5-74.5-30-79-70.4v-13.8c-1.8-24.9-20-45.7-44.3-50.9-23.9-5.1-48.6 6-60.7 27.4v90.8c-.6 5.7-5.3 10-10.8 10.3-5.8.3-11.1-4.2-11.8-10.3 0-52.4 0-104.8 0-157.3 2-5.5 7.4-8.9 12.8-8.3 4.4.6 8.2 3.8 9.8 8.3v33.3c4.1-3.6 10-8 17.9-11.5 13.9-6.2 26.7-6.4 33.6-6 6.4.4 32 3 52.8 24.3 17.1 17.6 21 37.8 22 45v12.5c.4 5 2.4 21.6 16 35.8 16.8 17.5 38.6 17.8 42.5 17.8 31.5-1.4 56-28.6 54.3-59.5-1.7-30.2-27.7-54.2-58.5-53.3-5.9-1.3-10-6.5-9.8-12 .2-6.3 6.2-11.8 13.3-11.3 5.3.4 45.1 4.4 66 38 9.2 14.8 11.1 29.6 11.5 38.3v8c-2.3 41.4-36.6 74.3-77.6 74.8z" fill="#2c343f"/></svg>