<svg xmlns="http://www.w3.org/2000/svg" viewBox="0 0 78.6 80" enable-background="new 0 0 78.6 80"><g fill="#1fc5c9"><path d="m34.6 8.2c8.3-1.4 16.8 1.2 23.6 5.9-2.8 2.9-5.7 5.8-8.6 8.7-6.7-4-15.5-3.9-21.8.9-8.3 5.9-10.4 18.1-5.3 26.8-2.8 3-5.7 5.9-8.5 8.8-5.5-8-7.6-18.2-5-27.6 2.9-12 13.3-21.7 25.6-23.5"/><path d="m64.5 20.7c6.2 8.6 8 20.1 4.4 30.1-3.2 9.2-10.8 16.9-20.2 19.8-9.6 3.3-20.2 1-28.4-4.7 2.8-3 5.7-5.9 8.6-8.8 4.6 2.5 10.2 3.9 15.3 2.2 8.9-2.2 15.3-11.3 14.6-20.4 0-3.4-1.4-6.5-2.8-9.5 2.9-2.9 5.7-5.8 8.5-8.7"/><circle cx="7.9" cy="72.1" r="7.9"/><circle cx="70.7" cy="7.9" r="7.9"/></g></svg>