<svg xmlns="http://www.w3.org/2000/svg" xmlns:xlink="http://www.w3.org/1999/xlink" viewBox="0 0 110 110"><defs><clipPath id="5"><circle cx="34.74" cy="24.69" r="11.91" fill="none"/></clipPath><clipPath id="3"><path d="M59,28A12.15,12.15,0,0,0,48.19,40.79,4.52,4.52,0,0,1,46,45a4.43,4.43,0,0,1-2.42.66A3.75,3.75,0,0,1,41.35,45,13.3,13.3,0,0,0,35,43.22H33.63A11.86,11.86,0,0,0,23.27,54.91,12.05,12.05,0,0,0,35.18,67h1.1A12,12,0,0,0,47.09,56.23v-2a4.53,4.53,0,0,1,2.2-4.19,4.39,4.39,0,0,1,2.43-.67,3.66,3.66,0,0,1,2.2.67,13.33,13.33,0,0,0,6.4,1.76h1.32a12.07,12.07,0,0,0-1.32-24A2.38,2.38,0,0,0,59,28"/></clipPath><clipPath id="1"><path d="M84.36,43.22A12.15,12.15,0,0,0,73.55,56a4.54,4.54,0,0,1-2.2,4.19h0a4.47,4.47,0,0,1-2.43.66,5,5,0,0,1-2.42-.66,13.33,13.33,0,0,0-6.4-1.76H58.78A12,12,0,0,0,48.19,71.23,4.53,4.53,0,0,1,46,75.42a4.43,4.43,0,0,1-2.42.66,3.75,3.75,0,0,1-2.21-.66A13.3,13.3,0,0,0,35,73.66H33.63A12.07,12.07,0,0,0,35,97.7h1.1A12,12,0,0,0,46.87,86.89v-2a4.55,4.55,0,0,1,2.2-4.19h0a4.47,4.47,0,0,1,2.43-.66,5,5,0,0,1,2.42.66,13.23,13.23,0,0,0,6.4,1.77h1.32A12,12,0,0,0,72.23,71.67v-2a4.55,4.55,0,0,1,2.21-4.2,4.43,4.43,0,0,1,2.42-.66,3.75,3.75,0,0,1,2.21.66,13.2,13.2,0,0,0,6.39,1.77h1.33c5.95-1.1,10.58-6,10.58-12.13A12,12,0,0,0,85.46,43a1.65,1.65,0,0,0-1.1.22"/></clipPath><clipPath id="0"><path fill="none" d="m22.83 97.48v-84.92"/></clipPath><linearGradient id="4" x1="5.97" x2="46.38" xlink:href="#2"/><linearGradient id="6" x1="-5.869" x2="31.3" xlink:href="#2"/><linearGradient id="2" x1="22.46" x2="65.05" gradientUnits="userSpaceOnUse"><stop stop-color="#f4c503"/><stop offset="1" stop-color="#ffe800"/></linearGradient></defs><path d="m0 0h110v110h-110z"/><g clip-path="url(#1)"><path d="M79,42.77,27.5,73.87a13.75,13.75,0,0,0-4.72,18.78h0a13.75,13.75,0,0,0,19,4.75L93.41,66A13.69,13.69,0,0,0,98,47.49h0A13.69,13.69,0,0,0,79,42.77Z" fill="url(#2)"/></g><g clip-path="url(#3)"><path d="M69.79,30.55h0a12.89,12.89,0,0,0-15.66-2L28.63,43.91A13,13,0,0,0,26,64.24h0a13,13,0,0,0,15.78,2L67.3,50.69A12.88,12.88,0,0,0,69.79,30.55Z" fill="url(#4)"/></g><g clip-path="url(#5)"><rect x="22.08" y="12.04" width="25.3" height="25.3" rx="12.38" transform="matrix(.70711-.70711.70711.70711-7.29 31.79)" fill="url(#6)"/></g><g data-name="logo-icon-small white"><g clip-path="url(#0)"><g fill="#f5f5f5"><path d="M89.1,60.2a.65.65,0,0,1-.6-.6V57.2a.65.65,0,0,1,.6-.6"/><path d="M89.2,69.2a.65.65,0,0,1-.6-.6V66.2a.65.65,0,0,1,.6-.6"/></g></g></g></svg>