<svg xmlns="http://www.w3.org/2000/svg" width="1174" height="2000" viewBox="0 0 1174 2000"><g transform="translate(-413)"><path d="M883.74,0C1032.3,88.75,1172,191.44,1319.19,282.46Q1048.1,765.89,776.73,1249.61c-72-129.14-139.46-260.84-210.61-390.56C668.58,571.47,785.55,289,883.74,0Z" fill="#f9c011"/><path d="m413 2000c307.09-570.9 626.13-1135.54 929.81-1707.87q121.67 218.47 244.19 436.93c-235.37 423.27-472.45 845.4-706.11 1269.52-155.96 0-311.89-1.99-467.89 1.42" fill="#db712a"/><path d="m910.21 1997.72c130.06-227.56 252.73-459.11 384.5-685.54 78.55 102.69 158.24 204.81 236.22 308.06-206.05 127.45-413.25 252.61-620.72 377.48" fill="#b7230f"/></g></svg>