<svg enable-background="new 0 0 227.4 106.8" viewBox="0 0 227.4 106.8" xmlns="http://www.w3.org/2000/svg"><path d="m174.3 106.8c-26.8 0-46.1-15.9-61.7-32.4-16.2 16.9-34.9 32.4-60.3 32.4-34 0-52.3-27.8-52.3-53.9 0-26.3 17.9-52.9 52.2-52.9 26 0 44.5 15.8 60.5 32.8 16.4-17.1 35.4-32.8 61.6-32.8 34.5 0 53.1 27.8 53.1 53.9-.1 26.3-18.3 52.9-53.1 52.9zm-42.6-53.1c14.5 15.4 26.6 25 42.6 25 18.4 0 24.9-13.3 24.9-24.7 0-9.6-5.2-25.8-24.9-25.8-16 0-29.3 11.4-42.6 25.5zm-79.5-25.5c-22.9 0-24 20.6-24 24.7 0 9.6 5.1 25.8 24 25.8 15.3 0 28.2-11.3 41.3-25.1-13.2-14.4-25.6-25.4-41.3-25.4z" fill="#fdda48"/></svg>