<svg enable-background="new 0 0 235.7 234.4" viewBox="0 0 235.7 234.4" xmlns="http://www.w3.org/2000/svg"><g fill="#0172a4"><circle cx="121.2" cy="1.7" r="1.7"/><circle cx="77.5" cy="163.9" r="1.7"/><circle cx="139.1" cy="10.4" r="2.9"/><circle cx="155.6" cy="23.3" r="3.7"/><circle cx="168.6" cy="39.2" r="4.9"/><circle cx="177.6" cy="58.4" r="5.5"/><circle cx="181.9" cy="78.9" r="5.9"/><circle cx="181.4" cy="99.1" r="5.9"/><circle cx="176.2" cy="118.5" r="5.9"/><circle cx="166.3" cy="136.1" r="5.9"/><circle cx="152.8" cy="151.1" r="5.9"/><circle cx="136.1" cy="161.5" r="5.4"/><circle cx="117.3" cy="167.2" r="4.4"/><circle cx="97.4" cy="168.1" r="3.4"/></g><circle cx="48.9" cy="159.4" fill="#00a8f2" r="1.7"/><circle cx="169.1" cy="16.3" fill="#00a8f2" r="1.7"/><circle cx="182.9" cy="34.9" fill="#00a8f2" r="2.9"/><circle cx="193.3" cy="55" fill="#00a8f2" r="5.1"/><circle cx="198.5" cy="77.5" fill="#00a8f2" r="5.9"/><circle cx="198.5" cy="100.8" fill="#00a8f2" r="5.9"/><circle cx="193.7" cy="122.4" fill="#00a8f2" r="6.8"/><circle cx="183.8" cy="143.2" fill="#00a8f2" r="7"/><circle cx="169.5" cy="160.6" fill="#00a8f2" r="6.9"/><circle cx="151.1" cy="173.6" fill="#00a8f2" r="6.9"/><circle cx="130.6" cy="182.1" fill="#00a8f2" r="6.6"/><circle cx="109" cy="184.2" fill="#00a8f2" r="6"/><circle cx="87.3" cy="181.7" fill="#00a8f2" r="5.2"/><circle cx="66.6" cy="173.3" fill="#00a8f2" r="3.9"/><circle cx="21.6" cy="141.7" fill="#03b4fc" r="2.9"/><circle cx="210.1" cy="53.9" fill="#03b4fc" r="1.7"/><circle cx="215.9" cy="78.5" fill="#03b4fc" r="3.7"/><circle cx="216.4" cy="104" fill="#03b4fc" r="5.4"/><circle cx="211.4" cy="129.5" fill="#03b4fc" r="5.9"/><circle cx="200.6" cy="152.5" fill="#03b4fc" r="6.8"/><circle cx="184.9" cy="172.9" fill="#03b4fc" r="7.2"/><circle cx="165.1" cy="188.8" fill="#03b4fc" r="7.8"/><circle cx="142.5" cy="199.2" fill="#03b4fc" r="8"/><circle cx="118.2" cy="203.9" fill="#03b4fc" r="7.7"/><circle cx="93.8" cy="202.7" fill="#03b4fc" r="7.5"/><circle cx="70.7" cy="195" fill="#03b4fc" r="6.9"/><circle cx="49.7" cy="181.8" fill="#03b4fc" r="5.9"/><circle cx="33.4" cy="163.8" fill="#03b4fc" r="4.1"/><circle cx="3.4" cy="110.9" fill="#65d1f6" r="2.9"/><circle cx="234" cy="111.1" fill="#65d1f6" r="1.7"/><circle cx="228.1" cy="138.7" fill="#65d1f6" r="3.7"/><circle cx="217.3" cy="164.8" fill="#65d1f6" r="5.9"/><circle cx="199.6" cy="187.6" fill="#65d1f6" r="6.9"/><circle cx="178.1" cy="206.1" fill="#65d1f6" r="7.8"/><circle cx="152.7" cy="219.1" fill="#65d1f6" r="8.5"/><circle cx="125.5" cy="225.7" fill="#65d1f6" r="8.7"/><circle cx="97.9" cy="225.9" fill="#65d1f6" r="8.5"/><circle cx="71.2" cy="219.1" fill="#65d1f6" r="8.4"/><circle cx="47" cy="205.9" fill="#65d1f6" r="7.9"/><circle cx="26.9" cy="187.8" fill="#65d1f6" r="6.9"/><circle cx="12.5" cy="165" fill="#65d1f6" r="6.3"/><circle cx="4.3" cy="138.8" fill="#65d1f6" r="4.3"/></svg>