<svg xmlns="http://www.w3.org/2000/svg" viewBox="0 0 188.9 83.4" enable-background="new 0 0 188.9 83.4"><g fill="#df1a14"><path d="m83.7.2c2.9-.9 6.2.7 7.4 3.5 2.9 6.5 5.5 13.2 8.5 19.7 1.8 3.9 7.9 4.4 10.3.8 4-6.5 7.2-13.4 11.1-20 3.2-4.1 9-2.1 13.4-2.5 4.6-.3 8 5.4 5.4 9.3-12.6 23.1-25.3 46.1-37.9 69.2-2.1 4.2-9 4.2-10.9-.2-2.8-6.7-5-13.7-7.7-20.4-1.6-4.4-8.5-5.1-10.8-.9-3.9 6.9-7.3 14.1-11.2 20.9-1.9 3.1-5.9 2.6-9 2.6-3-.2-6.6.7-8.9-1.8-2.1-2-2.4-5.4-.9-7.8 11.8-21.9 23.8-43.9 35.6-66 1.4-2.5 2.6-5.6 5.6-6.4"/><path d="m42.5 1.9c3.5-.2 7-.2 10.5 0 3.9.4 6.4 5.3 4.5 8.8-11.7 21.7-23.5 43.3-35.2 64.9-1.4 2.4-2.5 5.6-5.5 6.4-3.5.5-7.1.2-10.6.2-4.3.2-7.9-5.3-5.3-9 12.2-22.4 24.4-44.9 36.6-67.4 1-1.9 2.7-3.8 5-3.9"/><path d="m166.6 2.1c3.8-1.1 7.8-.3 11.7-.6 3 .1 6.8-.5 9 2.1 2.7 2.7 1.9 7.8-1.5 9.5-6.9 4.3-13.7 8.9-20.7 13.1-4.4 3-10.9-2.1-9-7.1 1.7-4 4.1-7.7 6-11.6 1.1-2 2.1-4.6 4.5-5.4"/><path d="m133.5 61.9c2-1.2 4.5-.8 6.4.2 5.3 2.6 10.6 5.4 16 7.9 2.3 1 4.7 2.9 4.8 5.6.4 3.6-2.7 7.1-6.3 6.8-7.7 0-15.4.1-23 0-3.8 0-6.8-4.4-5.4-8 1-2.6 2.5-4.9 3.7-7.4.9-1.9 1.8-4.2 3.8-5.1"/></g></svg>