<svg viewBox="0 0 320 320" xmlns="http://www.w3.org/2000/svg"><circle fill="#2d598a" cx="160" cy="160" r="160"/><path fill="white" d="M222.64 148.57L197.08 148.57L194.02 174.49L216.52 174.49L216.52 197.71L191.14 197.71L187.72 224.53L163.24 224.53L166.66 197.71L144.52 197.71L141.10 224.53L116.62 224.53L120.04 197.71L97.36 197.71L97.36 174.49L122.92 174.49L125.98 148.57L103.30 148.57L103.30 125.35L128.86 125.35L132.28 98.53L156.76 98.53L153.34 125.35L175.48 125.35L178.90 98.53L203.38 98.53L199.96 125.35L222.64 125.35L222.64 148.57ZM169.54 174.49L172.60 148.57L150.46 148.57L147.40 174.49L169.54 174.49Z"/></svg>