<svg enable-background="new 0 0 50.2 39.1" viewBox="0 0 50.2 39.1" xmlns="http://www.w3.org/2000/svg"><path d="m0 35.1c0 .9.2 1.7.7 2.4.7 1 1.9 1.6 3.1 1.6 1.3 0 2.5-.6 3.2-1.5.5-.7.8-1.6.8-2.5v-31.1c0-1.9-1.3-3.6-3.3-3.9-.2 0-.3 0-.5 0s-.4 0-.5 0c-2 .2-3.5 2-3.5 4z" fill="#353c46"/><path d="m37.7 10c1.5.6 3.2.2 4.3-1 .4-.5.7-1.1.8-1.8.3-1.2-.3-2.4-1.1-3.2-.7-.7-1.6-1.4-2.7-2.1-3.5-2-7-1.9-8.5-1.8-1.9 0-7.3.3-12.3 4.2-7.2 5.6-7.7 14-7.8 15.3 0 1.4 0 8.1 5.3 13.6 5.9 6.1 13.5 5.9 14.7 5.9 1.8.1 5.9-.1 10.2-2.6 1.9-1.1 3.3-2.4 4.3-3.6 1.2-1.3 1.6-3.3.7-4.9-.1-.1-.2-.3-.3-.4s-.2-.3-.3-.4c-1.5-1.6-4.1-1.4-5.7.1-.9.8-2 1.7-3.6 2.5 0 0-.1 0-.1.1-4 1.9-8.8 1.4-12.4-1.3-.2-.2-.4-.3-.6-.5-1.3-1.1-2.2-2.4-2.8-3.6-1.6-3.2-1.7-7.1-.1-10.3.4-.8.9-1.6 1.6-2.4 3.5-4 8.5-4 9.2-4 1 0 2.6.1 4.4.7 1.2.4 2.1 1 2.8 1.5z" fill="#353c46"/><circle cx="45.9" cy="17.5" fill="#2c96df" r="4.2"/></svg>