<svg enable-background="new 0 0 242.4 251.3" viewBox="0 0 242.4 251.3" xmlns="http://www.w3.org/2000/svg"><path d="m31.7 209.6c13.9 38.2 54.9 39.1 59 39.7-35.4 8.5-62.3-11.2-74.4-34.4z" fill="#f68f1e"/><path d="m108.1 4.7c-14.2 3.3-28.4 10.9-30.3 12.4-24.2 16.7-42.6 41.4-51.9 81.3-8.3 35.7-7.1 71.9 2.4 99.4l-18 5.2c-15-34.3-12.3-77.5-.4-112.9 26.9-80 98.2-85.4 98.2-85.4z" fill="#f68f1e"/><g fill="#29357c"><path d="m155.2 172.1c-7.4 12.8-18.2 21.4-32.5 25.6-13.9 4.1-25.4 1.3-34.6-8.4-9.1-9.7-13.8-27-14-51.9s3.9-45.4 12.3-61.5 20.1-26.3 34.9-30.7c14.5-4.3 25.6-2.7 33.1 4.7 4.2 4.2 7.7 11.2 10.4 21l41.6-12.3 36-11.6-4.7-15.5-34.2 11.3v.1c-2.3-7.6-6.1-14.7-11.2-21.5-15.5-19.9-39.9-25-73-15.2-24.8 7.3-45.1 22.4-60.9 45.4-18.3 26.4-27.2 58.9-26.9 97.6.3 35.8 8.7 61.6 25.1 77.3s38.7 19.3 67.1 11c22.9-6.8 41.6-19.9 56.1-39.3 14.5-19.5 23.4-41.8 26.8-67l-41.3 12.2c-2.7 12.2-6 21.7-10.1 28.7z"/><path d="m236.4 0 4.3 15.8-33.2 9.8c-1.2-2.2-2.9-4.7-5.2-7.3-2.2-2.6-4.4-4.6-6.3-6.2 13.5-4 27-8 40.4-12.1z"/></g></svg>