<svg height="1058" viewBox="0 0 706 1058" width="706" xmlns="http://www.w3.org/2000/svg"><g fill="none"><g><g fill="#457cf2"><path d="m4.16237088 1057.47587.10168426-162.46569 194.83675686-88.95685 148.975078 96.025286z" transform="matrix(-1 0 0 1 352.23826 0)"/><path d="m2.39245378 252.607091 2.84229827-162.6603943 196.43811295-86.28807842 148.604226 96.15819352z" transform="matrix(-.9998477 .01745241 -.01745241 -.9998477 354.878914 253.168729)"/><path d="m.92056576 265.755576 148.50854924-96.574401v724.692672l-148.50854924-93.229146z" transform="matrix(-1 0 0 -1 150.34968 1063.055022)"/></g><g fill="#000" fill-opacity=".115036"><path d="m4.16237088 1057.47587.10168426-162.46569 194.83675686-88.95685 148.975078 96.025286z" transform="matrix(-1 0 0 1 352.23826 0)"/><path d="m2.39245378 252.607091 2.84229827-162.6603943 196.43811295-86.28807842 148.604226 96.15819352z" transform="matrix(-.9998477 .01745241 -.01745241 -.9998477 354.878914 253.168729)"/><path d="m.92056576 265.755576 148.50854924-96.574401v724.692672l-148.50854924-93.229146z" transform="matrix(-1 0 0 -1 150.34968 1063.055022)"/></g></g><g fill="#457cf2" transform="translate(352.136576)"><path d="m4.68029223 1057.89166v-162.685173l200.52459177-87.928072 145.682981 94.384411z"/><path d="m209.367255 261.964714 144.43427-92.924497v723.059431l-144.43427-93.552831z"/><path d="m2.37089643 253.352295 2.96576006-163.9058033 202.05394251-85.77430494 144.427961 96.91708224z" transform="matrix(.9998477 .01745241 .01745241 -.9998477 -2.215875 253.91418)"/></g><g transform="translate(207 231)"><path d="m291 70.2125604v80.5990336l-93.12-41.961352v390.115942l93.12-42.376812v79.768116l-145.5 65.642512-145.08428571-65.642512v-79.768116l98.10857141 42.376812v-390.115942l-98.10857141 41.961352-.41571429-80.5990336 145.5-70.2125604z" fill="#457cf2"/><path d="m145.5 70.2125604-.415714 80.5990336-98.1085717-41.961352v390.115942l98.5242857-42.376812v79.768116l-145.5 65.642512v-602z" fill="#000" fill-opacity=".131256" transform="matrix(-1 0 0 1 145.5 0)"/></g></g></svg>