<svg enable-background="new 0 0 32 32" viewBox="0 0 32 32" xmlns="http://www.w3.org/2000/svg"><circle cx="16" cy="16" fill="#4cb8d1" r="16"/><path clip-rule="evenodd" d="m10.1 8.3.4-.7c.2-.3.6-.6 1-.6h9c.4 0 .7.2.9.5h4.1v7.1l.4.8c.2.3.2.8 0 1.1l-.4.8v3.1l-3.4 3-.6 1c-.2.3-.6.6-.9.6h-9c-.4 0-.8-.2-1-.6h-4v-7.2l-.4-.6c-.2-.3-.2-.8 0-1.1l.4-.6v-3.2zm1.4-.2-4.4 7.9 4.4 7.9h9l4.5-7.9-4.5-7.9zm.4.7h8.1l4.1 7.2-4.1 7.2h-8.1l-4-7.2zm1.9 3.1-2.2 4.1 2.2 4.1h4.7l2.2-4.1-2.2-4.1z" fill="#fff" fill-rule="evenodd"/></svg>