<svg xmlns="http://www.w3.org/2000/svg" viewBox="0 0 556 556"><defs><linearGradient id="0" x1="129.27" y1="129.27" x2="522.42" y2="522.42" gradientUnits="userSpaceOnUse"><stop stop-color="#01a5f1"/><stop offset=".52" stop-color="#01c6da"/><stop offset="1" stop-color="#02e1c9"/></linearGradient></defs><circle cx="278" cy="278" r="278" fill="url(#0)"/><path d="M83.32,252c18.48,12.4,133.83,94.43,222.31,216.51a7.46,7.46,0,0,0,7.85,2.88h0a7.48,7.48,0,0,0,5.63-7.95L306.27,348.89A5.84,5.84,0,0,1,309.6,343l37.68-19a7.4,7.4,0,0,0,3.84-4.76L373,234.15a4.84,4.84,0,0,0-6.37-5.74l-120.82,46a10.63,10.63,0,0,1-13.49-5.78h0a10.63,10.63,0,0,1,5.94-14.11L381.56,198.2a5.11,5.11,0,0,0,2.9-2.9L419.71,106c2-5.11-3.49-10.52-8.22-7.73C361.4,127.88,154.09,218.58,84.88,240.55a6.11,6.11,0,0,0-4.26,5.84v.51A6.1,6.1,0,0,0,83.32,252Z" fill="#fff"/></svg>