<svg xmlns="http://www.w3.org/2000/svg" width="2000" height="2000" viewBox="0 0 2000 2000"><g><g fill="#81c8ee"><path d="m772 42.61c144.87-52.51 309.88-60.92 453.69-.1-1.11 75.13 1.36 150.16-.2 225.3 2.73 41.72-2.07 83.49 1.26 125.21-142.19-69.48-310.44-55.73-454.55.42-.2-116.97.25-233.93-.2-350.83"/><path d="m772.1 677.36c136-51.58 289.33-56.35 427.23-9.55 9 4 20.5 4.72 27 12.87-2.32 185.86 1.36 371.73-.86 557.54 1.26 43.07 2 86.19.15 129.25.2 198.58.56 397.15-.15 595.78-145.17 55.16-306.65 42.44-453.23-.1q-.11-642.89-.14-1285.79"/></g><g fill="#2ea3dd"><path d="M429.46,187C512.63,132.06,602.2,87,696.33,55.63q.08,181.35-.05,362.7c-142,61.38-262.16,179.12-321.44,326.07C328,860.68,317,991.65,343.47,1114.52,374.68,1274.85,461,1424.71,589,1523.09a712.21,712.21,0,0,0,107.3,69q.08,178.55,0,357.2c-178-53.65-341.64-159.3-464.65-302.2-115.78-134.24-189.3-304.27-216.42-481-28.63-185.24-20.2-381.17,53-555.1C140.59,434.47,273.69,289.49,429.46,187Z"/><path d="m1303.82 55.58c184.76 56.2 354.37 167.55 478.63 319.22 109.37 133.2 178 299.19 203.44 470.94 22.82 156.5 20.6 319.48-26.36 471.25-43.73 144.35-127.35 274.33-234.44 377.44-120.07 115.14-265.5 201.95-421.27 254.93q-.3-181.35 0-362.7c141.94-61.49 262.06-179.12 321.34-326.07 45.14-112.44 57.61-238.63 33.73-357.93-28.38-158.88-110-308.79-233.94-409.55-37.42-31.08-78.37-57.49-121.14-80.17q-.14-178.63.01-357.36"/></g></g></svg>