<svg xmlns="http://www.w3.org/2000/svg" viewBox="0 0 564 564"><path fill="#102044" d="m0 0h564v564h-564z"/><path d="M470.3,357.7V207.3A26,26,0,0,0,461,157a25.66,25.66,0,0,0-17.4,6.7L313.4,88.5A25.05,25.05,0,0,0,314,83a26,26,0,0,0-52,0,29.66,29.66,0,0,0,.3,4.2l-133.4,77A26,26,0,1,0,103.8,208V357a26,26,0,0,0,7.2,51,25.64,25.64,0,0,0,14.7-4.6l69.2,39.9v.8h1.5L262.1,482a26,26,0,0,0,52-1.1,12.75,12.75,0,0,0-.1-2l134.7-74.1A25.92,25.92,0,0,0,487.1,382,26.25,26.25,0,0,0,470.3,357.7Zm-92-58.7h-.1l-.1-.6L378,297l-3.1-1.5h0l-19.5-11.7,20.4-12.3h0L379,270l.2-7.8h.1v-119l56.6,32.7a27.05,27.05,0,0,0-1,7.1,26.06,26.06,0,0,0,20.9,25.5v148A26.07,26.07,0,0,0,435,382a26.52,26.52,0,0,0,3,12.2L378.3,427ZM288,109a25.74,25.74,0,0,0,18.5-7.8l58.4,33.7V261.2l-23.5,14.2-31.7-19a19.83,19.83,0,0,0,.3-3.5,23,23,0,1,0-46,0,31.28,31.28,0,0,0,.4,4.4l-30.7,18.2-24.3-14.6V134.5l59.2-34.2A26,26,0,0,0,288,109Zm15.2,189.7a23,23,0,0,0-31.9-.5l-23.8-14.3,23.9-14a23,23,0,0,0,31.7-.5L327.4,284ZM135,392.1a26,26,0,0,0-16.7-35V207.9a25.82,25.82,0,0,0,17.9-31.2l58.7-33.9V265.2h.1V270l7.8,4,16.8,10L201,295h0l-5,3-1,1-.1,4h0V426.7ZM288,455a25.91,25.91,0,0,0-22.3,12.6L209.3,435V306.3l24-14.1,31.1,18.6a27.13,27.13,0,0,0-.4,4.1,23,23,0,0,0,46,0,18.7,18.7,0,0,0-.3-3.4l31.7-19.2,22.5,13.5V435l-55.2,30.4A25.75,25.75,0,0,0,288,455Z" fill="#fff"/></svg>