<svg enable-background="new 0 0 32 32" viewBox="0 0 32 32" xmlns="http://www.w3.org/2000/svg"><circle cx="16" cy="16" fill="#00d4d5" r="16"/><g fill="#fff"><path d="m16.5 5v5.5l4.7-2.7z"/><path d="m21.3 7.7v5.5l4.7-2.7z" opacity=".9"/><path d="m16.5 10.5v5.5l4.7-2.7zm4.8 2.7v5.5l4.7-2.7z" opacity=".8"/><path d="m16.5 15.9v5.5l4.7-2.7z" opacity=".8"/><path d="m21.3 18.6v5.5l4.7-2.7z"/><path d="m4.3 10.3v5.5l4.7-2.8z" opacity=".4"/><path d="m10.3 12.3v5.5l4.7-2.8z" opacity=".2"/><path d="m6.7 15.8v5.5l4.7-2.7z" opacity=".3"/><path d="m9.9 19.9v5.5l4.7-2.7z" opacity=".9"/><path d="m16.5 22.2v5.5l4.7-2.7z" opacity=".7"/><path d="m11 9.6v5.5l4.7-2.7z" opacity=".9"/><path d="m16.5 5v5.5l-4.7-2.7z" opacity=".8"/><path d="m11 7.3v5.5l-4.7-2.8z" opacity=".6"/><path d="m15.8 10v5.5l-4.8-2.8z" opacity=".6"/><path d="m10.2 12.3v5.5l-4.7-2.8z" opacity=".95"/><path d="m16.5 15.9v5.5l-4.7-2.7z" opacity=".6"/><path d="m6.7 17.2v5.5l-4.7-2.8z" opacity=".55"/><path d="m26 10.5v5.5l-4.7-2.7z"/><path d="m21.3 13.2v5.5l-4.7-2.7z" opacity=".95"/><path d="m26 15.9v5.5l-4.7-2.7z" opacity=".9"/><path d="m21.3 18.6v5.5l-4.7-2.7z" opacity=".7"/><path d="m15.5 20.9v5.5l-4.7-2.7z" opacity=".4"/><path d="m21.3 7.7v5.5l-4.7-2.7z"/></g></svg>