<svg enable-background="new 0 0 88.4 98" viewBox="0 0 88.4 98" xmlns="http://www.w3.org/2000/svg" xmlns:xlink="http://www.w3.org/1999/xlink"><linearGradient id="a" gradientTransform="matrix(1 0 0 -1 0 100.1)" gradientUnits="userSpaceOnUse" x1="4.9387" x2="24.4873" y1="29.3294" y2="63.1885"><stop offset="0" stop-color="#00dad9"/><stop offset="1" stop-color="#095fa7"/></linearGradient><linearGradient id="b" gradientTransform="matrix(1 0 0 -1 0 100.1)" gradientUnits="userSpaceOnUse" x1="30.6989" x2="53.2383" y1="94.1375" y2="55.0981"><stop offset="0" stop-color="#0bf7df"/><stop offset="1" stop-color="#0095ff"/></linearGradient><linearGradient id="c" gradientTransform="matrix(1 0 0 -1 0 100.1)" gradientUnits="userSpaceOnUse" x1="94.8406" x2="14.3942" y1="64.6598" y2="8.3307"><stop offset="0" stop-color="#00fcc6"/><stop offset="1" stop-color="#0095ff"/></linearGradient><path d="m.1 30.5c2.6-2.7 6.8-3.4 10.3-1.5l35.2 20-35.3 20c-3.4 2-7.7 1.3-10.3-1.4.1 0 .1-39.5.1-37.1z" fill="url(#a)"/><path d="m83.9 20.3c.9 3.5-.5 7.3-3.9 9.2l-34.4 19.5-35.3-20c-3.4-1.9-7.7-1.2-10.3 1.5 0-4.3 2.4-8.3 6.3-10.5l32.4-18.3c3.9-2.2 8.6-2.2 12.5 0z" fill="url(#b)"/><path d="m10.3 69.1 69.7-39.6c3.3-1.9 4.1-5.7 3.2-9.2 3.7 2.2 5.2 6.2 5.2 10.4v36.7c0 4.4-1.7 8.4-5.5 10.6l-32 18.3c-3.9 2.2-8.5 2.2-12.3 0l-32.4-18.2c-3.8-2.2-6.1-6.2-6.2-10.5 2.6 2.7 6.9 3.4 10.3 1.5z" fill="url(#c)"/></svg>