<svg enable-background="new 0 0 179.5 188.3" viewBox="0 0 179.5 188.3" xmlns="http://www.w3.org/2000/svg"><path d="m160.5 4.1c-.4.2-.8.4-1.1.7-4.9 3.1-8.6 7.6-10.9 12.9-1 2.1-1.9 4.5-2.7 7-2.5 8.1-3 15.4-2.9 20.5.2 3.9.1 9.5-1.3 16-1.5 6.9-4.8 22.3-18.3 31.1-8 5.3-16.5 6.2-22 6.1v-74.2c0-4.6 2-8.9 5.5-11.8 1.8-1.5 3.8-2.6 5.6-3.3 2.4-.9 5-1.3 7.6-1.3h3.8v-4.4h-67.8v4.4h3.9c2.2 0 4.4.2 6.5.8 3.4.9 7.1 2.7 9.9 6 1.9 2.3 3 5.2 3 8.2v75.6c-5.5.2-14.6-.5-23.1-6.1-13.5-8.8-16.8-24.2-18.3-31.1-1.4-6.5-1.5-12.1-1.3-16 .1-5.1-.3-12.4-2.9-20.5-.8-2.6-1.7-4.9-2.7-7-2.3-5.3-6-9.9-10.8-12.9-.4-.2-.7-.5-1.1-.7-8.1-4.6-16-4.2-19.1-3.9v5.4c.9-.1 5.2-.2 8.8 2.9 3.9 3.4 4.1 8.3 4 10.4-.1 1.4-.2 2.7-.2 4.1-.2 5.8-.2 13.3.2 22.2.4 7.9.6 11.9 1.2 15.7 3.6 20.7 20.4 34.2 21.6 35.1 17.2 13.5 36.5 12.9 43.6 12.2v59.2c0 4.8-1.9 9.4-5.5 12.6-.2.2-.5.4-.7.6h-.1c-2.5 1.9-5.5 3-8.6 3h-8.2v4.8h23.1 22.1 22.3v-4.8h-4.6c-3.4 0-6.8-1-9.7-2.8l-.1-.1c-.1 0-.1-.1-.2-.1-4.9-3.2-7.7-8.7-7.7-14.6v-57.7c7.9.7 26.2.5 42.5-12.3 1.3-1 18-14.5 21.6-35.3.7-3.8.9-7.8 1.2-15.7.4-8.8.4-16.4.2-22.2 0-1.4-.1-2.7-.2-4.1-.1-2.1.1-7 4-10.4 3.6-3.1 7.8-2.9 8.8-2.9v-5.2c-3-.3-10.9-.7-18.9 3.9z" fill="#4c4c4c"/></svg>