<svg viewBox="0 0 320 320" xmlns="http://www.w3.org/2000/svg"><circle fill="#2d598a" cx="160" cy="160" r="160"/><path fill="white" d="M150.01 227.05L150.01 227.05Q136.15 227.05 124.81 222.28L124.81 222.28L124.81 222.28Q113.47 217.51 106.27 208.51L106.27 208.51L125.71 185.47L125.71 185.47Q135.79 198.61 147.49 198.61L147.49 198.61L147.49 198.61Q155.23 198.61 159.28 193.93L159.28 193.93L159.28 193.93Q163.33 189.25 163.33 180.25L163.33 180.25L163.33 126.07L119.77 126.07L119.77 98.53L198.61 98.53L198.61 178.09L198.61 178.09Q198.61 202.57 186.28 214.81L186.28 214.81L186.28 214.81Q173.95 227.05 150.01 227.05L150.01 227.05Z"/></svg>