<svg enable-background="new 0 0 115.2 115.2" viewBox="0 0 115.2 115.2" xmlns="http://www.w3.org/2000/svg"><g fill="#013b7c"><path d="m78.8 31.7h-42.4c-2.6 0-4.7 2.1-4.7 4.7v7.6h7c.5-.1 1.8-.3 2.9-1.2 1-.9 1.5-2.2 1.5-3.5v-3.9h5.3v4.1c0 1.6-.3 3.1-1 4.5-.4.9-1.1 1.8-2 2.6-2.8 2.5-6.1 2.4-6.7 2.3h-7v17.5h7c.6 0 3.9-.2 6.7 2.3.9.8 1.6 1.7 2 2.6.7 1.4 1 2.9 1 4.5v4.1h-5.3v-3.9c0-1.3-.5-2.6-1.5-3.5-1.2-1-2.4-1.2-2.9-1.2h-7v7.6c0 2.6 2.1 4.7 4.7 4.7h42.4c2.6 0 4.7-2.1 4.7-4.7v-7.6h-7.4c-.5 0-1.6.2-2.8 1.2-1 .9-1.6 2.2-1.6 3.5v4h-5.2v-5.2c.1-.7.7-4.4 4.1-6.7 2.2-1.5 4.5-1.7 5.4-1.7h7.4v-17.6h-7.4c-.9 0-3.2-.1-5.4-1.7-3.4-2.3-4-6-4.1-6.7v-5.2h5.2v4c0 1.3.5 2.7 1.6 3.5 1.1.9 2.3 1.1 2.8 1.2h7.4v-7.6c-.1-2.6-2.1-4.6-4.7-4.6z"/><path d="m57.6 0c-31.8 0-57.6 25.8-57.6 57.6s25.8 57.6 57.6 57.6 57.6-25.8 57.6-57.6-25.8-57.6-57.6-57.6zm-32.9 71.3h-10.9v-5.1h10.8v5.1zm0-22.5h-10.9v-4.8h10.8v4.8zm63.6 30.7c0 5-4.1 9.1-9.1 9.1h-7.4v11h-4.8v-11h-18.7v11h-5.2v-11h-7.4c-5 0-9.1-4.1-9.1-9.1v-43.9c0-5 4.1-9.1 9.1-9.1h7.5v-11.2h5.3v11.2h18.2v-11.2h5.2v11.2h7.5c5 0 9.1 4.1 9.1 9.1v43.9zm13-8.2h-10.5v-5.1h10.5zm-10.5-22.5v-4.8h10.5v4.8z"/></g></svg>