<svg enable-background="new 0 0 32 32" viewBox="0 0 32 32" xmlns="http://www.w3.org/2000/svg"><circle clip-rule="evenodd" cx="16" cy="16" fill="#0050db" fill-rule="evenodd" r="16"/><path d="m16 26c-.6 0-1.3-.2-1.8-.5l-5.3-3.1c-1.2-.7-1.9-1.9-1.9-3.3v-6.2c0-1.3.7-2.6 1.9-3.3l5.3-3.1c.5-.3 1.2-.5 1.8-.5s1.3.2 1.8.5l5.3 3.1c1.1.7 1.9 1.9 1.9 3.3v6.2c0 1.3-.7 2.6-1.9 3.3l-5.3 3.1c-.5.3-1.2.5-1.8.5zm-3.1-6.4-1 1c.5.5 1.2.8 2 .8 1.5 0 2.8-1.3 2.8-2.8v-.9c.4.2.9.4 1.4.4.7 0 1.5-.3 2-.8l-1-1c-.3.3-.6.4-1 .4-.8 0-1.4-.6-1.4-1.4v-4.7h-1.4v8c0 .8-.6 1.4-1.4 1.4-.3 0-.7-.2-1-.4z" fill="#fff"/></svg>