<svg id="Layer_1" xmlns="http://www.w3.org/2000/svg" viewBox="0 0 2392 2392" width="2500" height="2500"><style>.st0{fill:#f8b333}</style><path class="st0" d="M1196 0C537.5 0 0 537.5 0 1196s537.5 1196 1196 1196 1196-537.5 1196-1196S1856.5 0 1196 0zm0 2222c-564.7 0-1026-459.4-1026-1026S629.4 170 1196 170c564.7 0 1026 459.4 1026 1026s-461.3 1026-1026 1026z"/><path class="st0" d="M1196 267.6c-513 0-930.3 417.3-930.3 930.3S683 2128.2 1196 2128.2s930.3-417.3 930.3-930.3S1709 267.6 1196 267.6zm405.8 1167.7c0 68.9 0 419.2-396.2 446-455.6 32.5-474.8-254.6-501.6-365.6l246.9-36.4s34.5 216.3 195.3 197.2c160.8-19.1 191.4-88.1 191.4-245V725.1h-268V535.6h532.2v899.7z"/></svg>