<svg enable-background="new 0 0 217.8 227.2" viewBox="0 0 217.8 227.2" xmlns="http://www.w3.org/2000/svg"><path d="m109.8 227.2s-.9-7.7 3.2-15 7.4-8.3 13.2-14.6 10.2-10.7 13.2-11.7 8.7.4 12.2.4c3.6 0 8.1-2.2 13.2-.8s3.7 7 6.9 11.1 10.5 8.4 14.2 8.2 4.6-4.9 6.9-5.8c2.4-.8 7.9.7 11.8-1.4s5.2-6.9 6.9-10.6 6.1-7.5 6.1-11.3-5.9-19.5-14.8-35.3-19.5-28-22.7-33.4c-3.3-5.5-7-17.9-11.4-22.5-4.4-4.5-8.6-2.9-11.1-6.5s2.7-30.9-21.1-55.3-67.5-32.6-100-7.7-40.6 56-34.8 82.6c5.9 26.6 27.3 60.8 70.3 64.3 43 3.4 54.3-32.6 54.7-39.3s-4.1-11.1-4.1-11.1-1.2 22.5-23.6 27.3c-22.3 4.8-40.1-10.6-46.3-27.3s-4.5-34 4.8-44.5 30.4-19 41.2-.7c-4-.3-22.1 1.6-23.6 5.9s8.2 25.3 15.3 31c7.1 5.6 18.9 4.5 23.6 2.5-4.7-1.9-12.3-6-16.2-11.6-3.8-5.6-5.2-10.5-3.3-13.2 1.9-2.6 27.1 2.2 27.1 2.2s8.1-18.4-10.1-35.9-52.9-12.7-68.1 7.8c-15.2 20.6-17.3 55.2 7.3 80.6-31.3-10.9-49.1-57-18.3-94.8 33-39.7 75.6-20.7 89.2-7.8s29.5 34.3 16.7 63.3c11.8 2.2 11.6 14.9 11.6 14.9s8.8-5.6 13.6-1.8 3.8 9.7 4.5 11c.7 1.2 10.7 16.4 9.7 17.4s-9.5-9.2-17.4-14.8-19.2-7.7-19.2-7.7 12.6 7.5 12.9 16.9c.3 9.3-13.2 24.7-13.2 24.7s11.1-.1 17.1-3.1 8.4-6.4 12.1-6.4 11.9 8.5 17.1 15.6 10.3 17.3 10.3 17.3l7.9-7s3 9.3-2.1 13.8-17.5 4-17.5 4-2.1-5.6-9.7-11.9c-7.7-6.3-13.6-10.3-13.6-10.3s-6.6 7.9-21 7.9-19.3-8.4-19.3-8.4-14.5 3.3-22.2 19.9-4.5 26.2-1.9 29.9c2.8 3.5 6.6 7.7 11.8 9z" fill="#0e85c9"/></svg>