<svg enable-background="new 0 0 234.3 232.8" viewBox="0 0 234.3 232.8" xmlns="http://www.w3.org/2000/svg"><path d="m106.8 165.5v-41.3l74.5 89c8.9-5.9 25.3-18.6 37.8-40.8 13.3-23.6 15.1-45.8 15.3-56.5 0-8.5-.8-46.5-30.6-78.8-31-33.5-70.7-36.6-78.8-37.1v25c7.5.8 39.3 5.1 61.8 32.5 12.7 15.4 17 31.6 18.7 40.5 1.5 7.7 2.8 19.4.3 33.3-3.8 21.5-14.6 36.1-20.3 42.9-14.8-18.1-29.7-36.3-44.5-54.4l31.5-41-37.5.2-28.3 36v-115c-8.3.8-50 5.6-80.1 42.2-24.9 30.3-26.5 63.7-26.6 73.8.2 11.9 2.2 41.4 22.8 69.3 2.6 3.5 35.7 46.8 91.3 47.5 21.5.3 38.5-5.9 48.5-10.5-5.3-6.8-10.7-13.7-16-20.5-2.6.8-53.7 14.9-91.3-20-27.2-25.3-28.8-59-29-65.8-.1-8.1.8-30.1 15.8-51.7 11.8-16.9 26.6-25.3 34-28.8l.1 130z" fill="#3c5c9a"/></svg>