<svg xmlns="http://www.w3.org/2000/svg" width="2000" height="2000" viewBox="0 0 2000 2000"><g fill="#005fff"><path d="M1432.26,727.3H1303.1V598.12a83,83,0,0,1,83-83h46.2a83,83,0,0,1,83,83v46.2a83,83,0,0,1-83,83"/><path d="M697,727.3H567.8a83,83,0,0,1-83-83v-46.2a82.94,82.94,0,0,1,83-83H614a83,83,0,0,1,83,83V727.3"/><path d="M614.06,1515.28h-46.2a83,83,0,0,1-83-83v-46.2a83,83,0,0,1,83-83H697V1432.3a83,83,0,0,1-83,83"/><path d="M1432.26,1515.28h-46.2a83,83,0,0,1-83-83V1303.15h129.16a83,83,0,0,1,83,83v46.2a83,83,0,0,1-83,83"/></g><g fill="#0ce"><path d="M1038.2,515.17H992a83,83,0,0,1-83-83V386a83,83,0,0,1,83-83h46.2a83,83,0,0,1,83,83v46.2a83,83,0,0,1-83,83"/><path d="M1038.2,1727.29H992a83,83,0,0,1-83-83v-46.2a83,83,0,0,1,83-83h46.2a83,83,0,0,1,83,83v46.2a83,83,0,0,1-83,83"/><path d="M1644.33,1121.3h-46.2a83,83,0,0,1-83-83v-46.2a83,83,0,0,1,83-83h46.2a83,83,0,0,1,83,83v46.2a83,83,0,0,1-83,83"/><path d="M432.19,1121.3H386a83,83,0,0,1-83-83v-46.2a83,83,0,0,1,83-83h46.2a83,83,0,0,1,83,83v46.2a83,83,0,0,1-83,83"/></g><g fill="#005fff"><path d="M1247.13,1811.11a60.59,60.59,0,1,1,79.17,32.79,60.62,60.62,0,0,1-79.17-32.79"/><path d="M610.69,265.61a60.59,60.59,0,1,1,79.17,32.79,60.62,60.62,0,0,1-79.17-32.79"/><path d="M1780.82,753a60.59,60.59,0,1,1,32.79-79.17A60.61,60.61,0,0,1,1780.82,753"/><path d="M265.62,1389.33a60.59,60.59,0,1,1,32.79-79.17,60.61,60.61,0,0,1-32.79,79.17"/></g><g fill="#002dae"><path d="M1734.43,1389.33a60.59,60.59,0,1,1,79.17-32.78,60.59,60.59,0,0,1-79.17,32.78"/><path d="M219.24,753a60.59,60.59,0,1,1,79.17-32.78A60.59,60.59,0,0,1,219.24,753"/><path d="M1359.08,265.61a60.59,60.59,0,1,1-32.79-79.19,60.58,60.58,0,0,1,32.79,79.19"/><path d="M722.71,1811.11a60.59,60.59,0,1,1-32.79-79.19,60.58,60.58,0,0,1,32.79,79.19"/></g><g fill="#0099c0"><path d="M1645.23,1718.47a30.3,30.3,0,1,1,42.85,0,30.29,30.29,0,0,1-42.85,0"/><path d="M281.6,354.77a30.3,30.3,0,1,1,42.85,0,30.29,30.29,0,0,1-42.85,0"/><path d="M1688.18,354.77a30.3,30.3,0,1,1,0-42.85,30.3,30.3,0,0,1,0,42.85"/><path d="M324.47,1718.47a30.3,30.3,0,1,1,0-42.85,30.3,30.3,0,0,1,0,42.85"/></g><g fill="#0029c0"><path d="M1969.69,1030.34A30.3,30.3,0,1,1,2000,1000a30.31,30.31,0,0,1-30.31,30.3"/><path d="M30.31,1030.34A30.3,30.3,0,1,1,60.61,1000a30.31,30.31,0,0,1-30.31,30.3"/><path d="M1030.31 30.3A30.31 30.31 0 1 1 1000 0a30.31 30.31 0 0 1 30.31 30.3"/><path d="M1030.31,1969.7a30.31,30.31,0,1,1-30.31-30.3,30.31,30.31,0,0,1,30.31,30.3"/></g><path d="M1202.23,899h45.2A55.58,55.58,0,0,0,1303,843.41V697H1156.55A55.59,55.59,0,0,0,1101,752.55V798a101,101,0,1,1-202,0V750.54A53.6,53.6,0,0,0,845.38,697H696.93V1303H844.25a54.69,54.69,0,0,0,54.7-54.7V1202a101,101,0,0,1,101-101v.21a101,101,0,0,1,101,101v45.67a55.14,55.14,0,0,0,55.15,55.15H1303V1156.17a55.14,55.14,0,0,0-55.15-55.15H1202a101,101,0,0,1-101-101h.21a101,101,0,0,1,101-101" fill="#003ec5"/></svg>