<svg xmlns="http://www.w3.org/2000/svg" viewBox="0 0 2000 2000"><g><path d="M277.69,1668.5l50.69,50.66c223.69,93.61,447.38,188.33,672.18,280.84V1592.51L581.82,1419.6l-173-418.5,173-418.5L277.69,331.5,0,1000Z" fill="#598282"/><path d="M1000.55,0C776.86,92.51,552.07,187.22,328.37,280.84L277.69,331.5l304.13,250,418.73-172.91V0Z" fill="#fbbb31"/><path d="M1000.55,581.5L704.13,704.85,581.82,1000l122.31,296.26,296.42,122.25v-837Z" fill="#598282"/><path d="M1000.55,2000c223.69-92.51,447.38-187.22,671.07-280.84l50.69-50.66L2000,1000,1722.31,331.5l-304.13,250,173,418.5-173,418.5L999.45,1591.41V2000h1.1Z" fill="#326464"/><path d="M1723.42,331.5l-50.69-51.76Q1335.54,141,1000.55,0V407.49L1419.28,580.4l304.13-248.9h0Z" fill="#faaa00"/><path d="M1000.55,1418.5L1297,1296.26,1419.28,1000,1297,704.85,1000.55,581.5v837Z" fill="#326464"/></g></svg>