<svg enable-background="new 0 0 226.8 226.8" viewBox="0 0 226.8 226.8" xmlns="http://www.w3.org/2000/svg"><path d="m113.4 0c-62.6 0-113.4 50.8-113.4 113.4s50.8 113.4 113.4 113.4 113.4-50.8 113.4-113.4-50.8-113.4-113.4-113.4zm64.8 113.4c0 20.8-9.8 39.2-25 51.1l-7.4-11.8c11.3-9.3 18.6-23.5 18.6-39.3 0-17-8.3-32-21.1-41.2l9.5-10.2c15.4 11.8 25.4 30.4 25.4 51.4zm-45.7-29.7c9.8 6.3 16.3 17.2 16.3 29.7 0 10.3-4.4 19.5-11.4 26l-22.9-36.3c-.1 0 18-19.4 18-19.4zm17-57.3-54.8 57.9 7.8-57.5h-26.3c11.4-4.9 24-7.6 37.2-7.6 12.8 0 24.9 2.6 36.1 7.2zm-93.5 117c-4.9-9.3-7.4-19.6-7.4-30 0-17.1 6.6-32.6 17.4-44.1zm-36.8-30c0-36.9 21.3-68.9 52.2-84.3l-1.8 13.5c-23.7 14.7-39.4 40.9-39.4 70.8 0 21.8 8.4 41.7 22.2 56.5l-1.8 13.6c-19.3-17.2-31.4-42.2-31.4-70.1zm42.2 78.5h18.8l9.8-72.8.8.1 45.8 72.7h28.9c-14.9 9.9-32.8 15.7-52 15.7-19.3 0-37.2-5.8-52.1-15.7zm107.5-2.4-5.9-9.3c20.4-15.2 33.6-39.4 33.6-66.8 0-26.3-12.2-49.7-31.3-65l7.5-8c21.2 17.3 34.7 43.6 34.7 73 .1 31.2-15.2 58.9-38.6 76.1z" fill="#e62d00"/></svg>