<svg xmlns="http://www.w3.org/2000/svg" viewBox="0 0 2286.76 2500.03"><g fill="#0097e8"><path d="M1924.38,1522.22,1455.91,1988.5,708.07,1248.69l746.41-738.61,469.9,467.7c83.34,82.63,217.92,82.63,300.54-.72s82.26-217.92-.72-300.54L1606.52,61.73c-83.34-82.62-217.92-82.26-300.54.72-.34.34-15.07,12.57-21.65,19.12L424.92,931.74V423.6c0-117.25-95.25-212.5-212.51-212.5S.26,306.35-.1,423.6V2075c0,117.26,95.25,212.51,212.51,212.51S424.92,2192.22,424.92,2075V1565.74l859.41,850.17c3.71,3.69,18.08,18.05,21.65,21.65,82.62,83,217.2,83.34,300.54.72l617.68-614.8c83-82.62,83.34-217.19.72-300.54C2141.94,1440,2007.36,1439.6,1924.38,1522.22Z" transform="translate(.1.01)"/><circle cx="1457.97" cy="1250.2" r="214.31"/></g></svg>