<svg enable-background="new 0 0 71.5 68.8" viewBox="0 0 71.5 68.8" xmlns="http://www.w3.org/2000/svg" xmlns:xlink="http://www.w3.org/1999/xlink"><clipPath id="a"><path d="m68.5 35.9c0 18-14.6 32.6-32.6 32.6s-32.6-14.6-32.6-32.6 14.6-32.6 32.6-32.6c18-.1 32.6 14.5 32.6 32.6z"/></clipPath><clipPath id="b"><circle cx="35.9" cy="35.9" r="32.6"/></clipPath><linearGradient id="c"><stop offset="0" stop-color="#0c8d45"/><stop offset="1" stop-color="#1a351a"/></linearGradient><linearGradient id="d" gradientUnits="userSpaceOnUse" x1="44.3015" x2="35.3652" xlink:href="#c" y1="49.0858" y2="36.1029"/><linearGradient id="e" gradientTransform="matrix(1 0 0 -1 0 287.0435)" gradientUnits="userSpaceOnUse" x1="44.3015" x2="35.3652" xlink:href="#c" y1="264.8137" y2="251.8307"/><g clip-path="url(#a)"><path d="m69.5 35.9c0 18.6-15.1 33.7-33.7 33.7-9.3 0-17.7-3.8-23.8-9.9s-9.8-14.5-9.8-23.8 3.8-17.8 9.8-23.9 14.5-9.9 23.8-9.9 17.7 3.8 23.8 9.9 9.9 14.6 9.9 23.9z" fill="#de851a"/><path d="m12 12c6.1-6.1 14.5-9.9 23.8-9.9s17.7 3.8 23.8 9.9c1 1 1.9 2.1 2.8 3.2 3.2 4.2 5.3 9.1 6.1 14.5.3 1.9.4 3.8.4 5.7-.2 9.6-4.5 18.3-11.2 24.4-6 5.4-13.9 8.8-22.5 8.9-2.4 0-4.7-.2-6.9-.6-5.3-1.1-10.2-3.4-14.3-6.8-.7-.6-1.4-1.2-2.1-1.8 0 0-.1-.1-.1-.1-2.9-3-5.3-6.5-6.9-10.4-1.8-4.1-2.7-8.7-2.7-13.5.1-9.1 3.8-17.4 9.8-23.5z" fill="#df861b"/><path d="m12 12c6.1-6.1 14.5-9.9 23.8-9.9s17.7 3.8 23.8 9.8c1 1 1.9 2.1 2.8 3.2 3.2 4.1 5 8.9 5.7 14.2.2 1.8.3 3.7.3 5.6-.3 9.4-4.7 17.9-11.4 23.9-6 5.3-13.8 8.7-22.2 8.9-2.4.1-4.6-.1-6.8-.5-5.3-.9-10.1-3-14.1-6.2-.7-.5-1.4-1.1-2.1-1.8 0 0-.1-.1-.1-.1-2.9-3-5.2-6.5-6.8-10.4-1.7-4.2-2.6-8.7-2.5-13.4 0-9.1 3.7-17.3 9.6-23.3z" fill="#df871b"/><path d="m12 12c6.1-6.1 14.5-9.9 23.8-9.9s17.7 3.8 23.8 9.8c1 1 1.9 2 2.8 3.1 3.1 4.1 4.8 8.8 5.3 13.9.2 1.8.3 3.6.2 5.4-.5 9.1-4.9 17.4-11.6 23.3-6 5.3-13.7 8.6-22 9-2.3.1-4.6-.1-6.7-.4-5.3-.8-10-2.6-13.9-5.8-.7-.5-1.4-1.1-2-1.8 0 0-.1-.1-.1-.1-2.8-3-5.1-6.6-6.7-10.5-1.7-4.2-2.5-8.7-2.4-13.4.1-8.6 3.7-16.7 9.5-22.6z" fill="#e0881c"/><path d="m12 12c6.1-6.1 14.5-9.9 23.8-9.9s17.7 3.8 23.8 9.8c1 1 1.9 2 2.8 3.1 3.1 4 4.5 8.6 4.9 13.6.1 1.7.2 3.5 0 5.3-.7 8.9-5.1 17-11.8 22.8-6 5.2-13.6 8.6-21.8 9-2.3.1-4.5 0-6.6-.2-5.2-.6-9.8-2.3-13.6-5.3-.7-.5-1.4-1-2-1.7 0 0-.1-.1-.1-.1-2.8-3-5-6.6-6.6-10.5-1.6-4.2-2.4-8.7-2.2-13.4.1-8.7 3.7-16.7 9.4-22.5z" fill="#e1891d"/><path d="m12 12c6.1-6.1 14.5-9.9 23.8-9.9s17.7 3.7 23.8 9.8c1 1 1.9 2 2.7 3.1 3 4 4.3 8.4 4.4 13.3.1 1.7.1 3.4-.1 5.2-.8 8.7-5.4 16.6-12.1 22.3-6 5.1-13.5 8.5-21.6 9.1-2.3.2-4.4.1-6.5-.1-5.2-.5-9.7-2-13.4-4.9-.7-.4-1.4-1-2-1.7 0 0-.1-.1-.1-.1-2.8-3.1-5-6.6-6.4-10.6-1.6-4.2-2.3-8.7-2.1-13.4.4-8.5 3.9-16.4 9.6-22.1z" fill="#e18a1e"/><path d="m12 12c6.1-6.1 14.5-9.9 23.8-9.9s17.7 3.7 23.7 9.8c1 1 1.9 2 2.7 3.1 3 3.9 4 8.2 4 13 0 1.6 0 3.3-.2 5-1 8.4-5.6 16.1-12.3 21.8-6 5.1-13.5 8.4-21.3 9.1-2.2.2-4.4.2-6.4 0-5.1-.4-9.5-1.6-13.1-4.4-.7-.4-1.4-.9-2-1.6 0 0-.1-.1-.1-.1-2.7-3-4.8-6.6-6.2-10.5-1.6-4.3-2.2-8.8-2-13.5.4-8.4 3.8-16.1 9.4-21.8z" fill="#e28b1e"/><path d="m12 12c6.1-6.1 14.5-9.9 23.8-9.9s17.6 3.7 23.7 9.8c1 1 1.9 2 2.7 3 2.9 3.9 3.8 8.1 3.6 12.7-.1 1.6-.1 3.2-.3 4.9-1.2 8.2-5.8 15.7-12.5 21.3-6 5-13.4 8.4-21.1 9.2-2.2.2-4.3.2-6.3.1-5.1-.2-9.4-1.3-12.9-4-.7-.4-1.4-.9-2-1.6 0 0-.1-.1-.1-.1-2.6-2.9-4.7-6.5-6.1-10.5-1.5-4.2-2.1-8.7-1.8-13.4.4-8.3 3.8-15.9 9.3-21.5z" fill="#e38c1f"/><path d="m12 12c6.1-6.1 14.5-9.9 23.8-9.9s17.6 3.7 23.7 9.8c1 1 1.9 2 2.7 3 2.9 3.8 3.5 7.9 3.2 12.4-.1 1.5-.2 3.1-.4 4.7-1.3 8-6 15.3-12.7 20.8-6 5-13.3 8.3-20.9 9.2-2.2.3-4.2.3-6.2.3-5-.1-9.2-1-12.7-3.5-.7-.4-1.4-.8-2-1.5 0 0-.1-.1-.1-.1-2.6-3.1-4.7-6.7-6.1-10.7-1.4-4.2-2-8.8-1.7-13.4.6-8.1 4-15.6 9.4-21.1z" fill="#e48d20"/><path d="m12 12c6.1-6.1 14.5-9.9 23.8-9.9 9.2 0 17.6 3.7 23.7 9.8 1 1 1.9 2 2.7 3 2.8 3.8 3.2 7.7 2.8 12.1-.2 1.5-.3 3-.6 4.6-1.5 7.7-6.3 14.9-12.9 20.3-6 4.9-13.2 8.3-20.7 9.3-2.1.3-4.2.4-6.1.4-5 .1-9.1-.6-12.4-3.1-.7-.3-1.4-.8-2-1.5 0 0-.1-.1-.1-.1-2.6-3.1-4.6-6.8-5.9-10.7-1.3-4.2-1.8-8.7-1.5-13.4.5-8 3.9-15.4 9.2-20.8z" fill="#e48e21"/><path d="m12 12c6.1-6.1 14.5-9.9 23.8-9.9 9.2 0 17.6 3.7 23.7 9.7 1 1 1.9 1.9 2.6 2.9 2.8 3.7 3 7.5 2.3 11.8-.2 1.4-.3 2.9-.7 4.5-1.7 7.5-6.5 14.4-13.1 19.8-6 4.9-13.1 8.2-20.4 9.3-2.1.3-4.1.4-6 .5-4.9.2-8.9-.3-12.2-2.6-.7-.3-1.4-.7-2-1.4 0 0-.1-.1-.1-.1-2.6-3.2-4.6-6.8-5.8-10.8-1.3-4.3-1.7-8.8-1.4-13.4.8-7.7 4-14.9 9.3-20.3z" fill="#e58f22"/><path d="m12 12c6.1-6.1 14.5-9.9 23.8-9.9 9.2 0 17.6 3.7 23.7 9.7 1 1 1.9 1.9 2.6 2.9 2.7 3.7 2.7 7.3 1.9 11.5-.3 1.4-.4 2.8-.8 4.3-1.8 7.2-6.7 14-13.3 19.3-6 4.8-13.1 8.2-20.2 9.4-2.1.4-4 .5-5.9.6-4.9.3-8.8 0-11.9-2.2-.7-.3-1.4-.7-2-1.4 0 0-.1-.1-.1-.1-2.5-3.2-4.5-6.8-5.7-10.8-1.3-4.3-1.6-8.8-1.3-13.4.8-7.5 4-14.6 9.2-19.9z" fill="#e69023"/><path d="m12 12c6.1-6.1 14.5-9.9 23.8-9.9 9.2 0 17.6 3.7 23.7 9.7 1 .9 1.9 1.9 2.6 2.9 2.7 3.6 2.5 7.1 1.5 11.2-.3 1.3-.5 2.7-.9 4.2-2 7-6.9 13.6-13.6 18.7-6 4.7-13 8.1-20 9.5-2 .4-4 .6-5.8.8-4.8.5-8.6.4-11.7-1.7-.7-.2-1.4-.6-1.9-1.3 0 0-.1-.1-.1-.1-2.5-3.2-4.4-6.9-5.6-10.9-1.1-4.2-1.4-8.7-1-13.3.7-7.6 3.9-14.6 9-19.8z" fill="#e69124"/><path d="m12 12c6.1-6.1 14.5-9.9 23.8-9.9 9.2 0 17.6 3.7 23.7 9.7 1 .9 1.9 1.9 2.6 2.9 2.7 3.6 2.2 6.9 1.1 10.9-.4 1.3-.6 2.7-1 4.1-2.2 6.8-7.2 13.2-13.8 18.3-6.1 4.7-12.9 8.1-19.8 9.5-2 .4-3.9.6-5.7.9-4.8.6-8.5.7-11.4-1.3-.6-.2-1.3-.6-1.9-1.3 0 0-.1-.1-.1-.1-2.4-3.2-4.3-6.9-5.4-10.9-1.2-4.3-1.4-8.8-1-13.3.7-7.5 3.9-14.4 8.9-19.5z" fill="#e79225"/><path d="m12 12c6.1-6.1 14.5-9.9 23.8-9.9 9.2 0 17.6 3.7 23.6 9.7 1 .9 1.9 1.9 2.6 2.8 2.6 3.6 2 6.7.7 10.6-.4 1.2-.7 2.6-1.2 3.9-2.3 6.5-7.4 12.7-14 17.7-6.1 4.6-12.8 8-19.5 9.6-2 .5-3.8.7-5.6 1-4.7.8-8.3 1-11.2-.8-.6-.2-1.3-.5-1.9-1.2 0 0-.1-.1-.1-.1-2.3-3.1-4.1-6.8-5.2-10.8-1.2-4.3-1.3-8.8-.8-13.3.7-7.4 3.8-14.2 8.8-19.2z" fill="#e89325"/><path d="m12 12c6.1-6.1 14.5-9.9 23.8-9.9 9.2 0 17.6 3.7 23.6 9.7 1 .9 1.9 1.9 2.5 2.8 2.6 3.5 1.8 6.5.2 10.3-.5 1.2-.8 2.5-1.3 3.8-2.5 6.3-7.6 12.3-14.2 17.2-6.1 4.5-12.7 7.9-19.3 9.6-1.9.5-3.8.8-5.5 1.1-4.7.9-8.2 1.4-11-.4-.6-.1-1.3-.5-1.9-1.2 0 0-.1-.1-.1-.1-2.4-3.3-4.2-7-5.2-11-1.1-4.3-1.2-8.8-.7-13.3 1.2-7 4.2-13.6 9.1-18.6z" fill="#e89426"/><path d="m12 12c6.1-6.1 14.5-9.9 23.8-9.9 9.2 0 17.5 3.7 23.6 9.7 1 .9 1.9 1.9 2.5 2.8 2.5 3.5 1.5 6.3-.2 10.1-.5 1.1-.8 2.4-1.4 3.6-2.7 6-7.9 11.9-14.4 16.7-5.9 4.5-12.5 7.9-18.9 9.7-1.9.5-3.7.9-5.4 1.3-4.6 1.1-8 1.7-10.7.1-.6-.1-1.3-.4-1.9-1.2 0 0-.1-.1-.1-.1-2.3-3.3-4.1-7-5.1-11-1-4.3-1.1-8.8-.5-13.3.9-7.1 3.9-13.6 8.7-18.5z" fill="#e99527"/><path d="m12 12c6.1-6.1 14.5-9.9 23.8-9.9 9.2 0 17.5 3.7 23.6 9.7 1 .9 1.8 1.9 2.5 2.8 2.5 3.4 1.3 6.1-.6 9.8-.5 1.1-.9 2.3-1.5 3.5-2.8 5.8-8.1 11.4-14.6 16.2-6.1 4.4-12.6 7.8-18.9 9.7-1.9.6-3.6.9-5.3 1.4-4.6 1.2-7.9 2.1-10.5.5-.6-.1-1.3-.4-1.9-1.1 0 0 0-.1-.1-.1-2.3-3.3-4-7-4.9-11.1-1-4.4-1-8.8-.4-13.3 1.1-6.9 4.1-13.3 8.8-18.1z" fill="#e99628"/><path d="m12 12c6.1-6.1 14.5-9.9 23.8-9.9 9.2 0 17.5 3.7 23.6 9.7 1 .9 1.8 1.8 2.5 2.7 2.4 3.4 1.1 5.9-1 9.5-.6 1-1 2.2-1.6 3.4-3 5.5-8.3 11-14.8 15.7-6.1 4.4-12.5 7.8-18.6 9.8-1.8.6-3.6 1-5.2 1.5-4.6 1.4-7.7 2.4-10.2 1-.6 0-1.3-.3-1.9-1.1 0 0 0-.1-.1-.1-2.2-3.3-3.9-7.1-4.8-11.1-1-4.4-.9-8.8-.3-13.3 1-6.8 4-13.1 8.6-17.8z" fill="#ea9729"/><path d="m12 12c6.1-6.1 14.5-9.9 23.8-9.9 9.2 0 17.5 3.7 23.6 9.6 1 .9 1.8 1.8 2.5 2.7 2.4 3.3.9 5.7-1.4 9.2-.6 1-1.1 2.1-1.8 3.2-3.1 5.3-8.5 10.6-15 15.2-6.1 4.3-12.4 7.8-18.4 9.8-1.8.6-3.5 1.1-5 1.6-4.5 1.5-7.6 2.7-10 1.4-.6 0-1.3-.3-1.9-1 0 0 0-.1-.1-.1-2.2-3.3-3.8-7.1-4.7-11.1-.9-4.4-.8-8.9-.1-13.3 1-6.5 3.9-12.6 8.5-17.3z" fill="#eb982a"/><path d="m12 12c6.1-6.1 14.5-9.9 23.8-9.9 9.2 0 17.5 3.7 23.6 9.6 1 .9 1.8 1.8 2.5 2.7 2.3 3.3.6 5.4-1.8 8.9-.7.9-1.2 2-1.9 3.1-3.3 5.1-8.8 10.1-15.3 14.6-6.1 4.2-12.3 7.7-18.2 9.9-1.8.7-3.4 1.2-4.9 1.7-4.5 1.7-7.4 3.1-9.8 1.9-.6 0-1.3-.2-1.9-1 0 0 0-.1-.1-.1-2-3.1-3.6-6.9-4.5-11-.9-4.4-.7-8.9 0-13.3 1.1-6.5 4-12.5 8.5-17.1z" fill="#eb992b"/><path d="m12 12c6.1-6.1 14.5-9.9 23.8-9.9 9.2 0 17.5 3.7 23.6 9.6 1 .9 1.8 1.8 2.4 2.7 2.3 3.2.4 5.2-2.3 8.6-.7.9-1.3 1.9-2 2.9-3.4 4.8-9 9.7-15.5 14.1-6.1 4.2-12.3 7.7-18 9.9-1.7.7-3.4 1.3-4.8 1.9-4.4 1.9-7.2 3.4-9.5 2.3-.6.1-1.3-.2-1.8-.9 0 0 0-.1-.1-.1-2.1-3.4-3.7-7.2-4.4-11.2-.8-4.4-.6-8.9.1-13.3 1.2-6.2 4.1-12.1 8.5-16.6z" fill="#ec9a2d"/><path d="m12 12c6.1-6.1 14.5-9.9 23.8-9.9 9.2 0 17.5 3.7 23.5 9.6 1 .9 1.8 1.8 2.4 2.6 2.2 3.2.2 5-2.7 8.3-.7.8-1.3 1.8-2.1 2.8-3.6 4.6-9.2 9.3-15.7 13.6-6.1 4.1-12.2 7.6-17.7 10-1.7.7-3.3 1.3-4.7 2-4.4 2-7.1 3.7-9.3 2.8-.5.2-1.2 0-1.7-.8-2.1-3.4-3.6-7.2-4.3-11.3-.8-4.4-.5-8.9.3-13.3 1-6.2 3.9-12 8.2-16.4z" fill="#ed9b2e"/><path d="m12 12c6.1-6.1 14.5-9.9 23.8-9.9 9.2 0 17.5 3.7 23.5 9.6 1 .9 1.8 1.8 2.4 2.6 2.2 3.1 0 4.9-3.1 8-.8.8-1.4 1.7-2.2 2.7-3.7 4.3-9.5 8.8-15.9 13.1-6.1 4-12.1 7.6-17.5 10.1-1.7.8-3.3 1.4-4.6 2.1-4.3 2.2-6.9 4.1-9 3.2-.6.1-1.3-.1-1.8-.8-2.1-3.4-3.6-7.2-4.3-11.3-.7-4.4-.4-8.9.4-13.3 1.3-6.1 4.1-11.8 8.3-16.1z" fill="#ee9c2f"/><path d="m12 12c6.1-6.1 14.5-9.9 23.8-9.9 9.2 0 17.5 3.7 23.5 9.6 1 .9 1.8 1.8 2.4 2.6 2.1 3.1-.1 4.7-3.5 7.7-.8.7-1.5 1.6-2.4 2.5-3.8 4.2-9.6 8.5-16 12.7-6.1 4-12 7.5-17.3 10.1-1.6.8-3.2 1.5-4.5 2.2-4.3 2.4-6.8 4.4-8.8 3.7-.6.1-1.3 0-1.8-.8-2.1-3.4-3.5-7.3-4.1-11.4-.7-4.4-.4-8.9.6-13.2 1.2-6 3.9-11.5 8.1-15.8z" fill="#ee9d30"/><path d="m12 12c6.1-6.1 14.5-9.9 23.8-9.9 9.1 0 17.4 3.6 23.5 9.6 1 .9 1.8 1.7 2.4 2.6 2.1 3-.3 4.5-3.9 7.4-.8.7-1.6 1.5-2.5 2.4-4 3.8-9.9 8-16.3 12.1-6.1 3.9-11.9 7.5-17 10.2-1.6.8-3.1 1.6-4.4 2.4-4.2 2.5-6.6 4.7-8.5 4.1-.6.2-1.3 0-1.8-.7-2-3.4-3.3-7.3-3.9-11.4-.6-4.5-.3-8.9.7-13.2 1.1-6 3.8-11.4 7.9-15.6z" fill="#ef9f31"/><path d="m12 12c6.1-6.1 14.5-9.9 23.8-9.9 9.1 0 17.4 3.6 23.5 9.6 1 .9 1.8 1.7 2.3 2.5 2 3-.5 4.3-4.4 7.1-.8.6-1.7 1.4-2.6 2.2-4.2 3.6-10.1 7.6-16.5 11.6-6.1 3.8-11.9 7.4-16.8 10.2-1.6.9-3.1 1.7-4.3 2.5-4.2 2.7-6.5 5.1-8.3 4.6-.6.2-1.3.1-1.8-.7-1.9-3.4-3.2-7.2-3.8-11.4-.6-4.4-.1-8.9.8-13.2 1.4-5.7 4.1-11 8.1-15.1z" fill="#f0a031"/><path d="m12 12c6.1-6.1 14.5-9.9 23.8-9.9 9.1 0 17.4 3.6 23.5 9.5 1 .9 1.8 1.7 2.3 2.5 2 2.9-.7 4.2-4.8 6.8-.9.6-1.7 1.3-2.7 2.1-4.3 3.4-10.4 7.1-16.8 11.1-6.1 3.8-11.8 7.4-16.6 10.3-1.6.9-3 1.8-4.2 2.6-4.1 2.9-6.3 5.4-8.1 5-.6.2-1.3.1-1.8-.6-1.7-3.4-3-7.3-3.6-11.4-.5-4.5 0-8.9 1-13.2 1.4-5.6 4.1-10.8 8-14.8z" fill="#f0a132"/><path d="m12 12c6.1-6.1 14.5-9.9 23.8-9.9 9.1 0 17.4 3.6 23.5 9.5 1 .9 1.8 1.7 2.3 2.5 1.9 2.9-.9 4-5.2 6.5-.9.5-1.8 1.2-2.8 2-4.4 3.1-10.6 6.7-17 10.6-6.1 3.8-11.6 7.4-16.3 10.4-1.5 1-2.9 1.8-4.1 2.7-4.1 3.1-6.2 5.8-7.8 5.5-.6.3-1.3.1-1.8-.6-1.9-3.5-3.1-7.4-3.6-11.5-.5-4.5 0-8.9 1.1-13.2 1.4-5.5 4-10.6 7.9-14.5z" fill="#f1a233"/><path d="m12 12c6.1-6.1 14.5-9.9 23.8-9.9 9.1 0 17.4 3.6 23.5 9.5 1 .9 1.8 1.7 2.3 2.5 1.9 2.8-1.1 3.9-5.6 6.2-.9.5-1.9 1.2-2.9 1.8-4.6 2.9-10.8 6.3-17.2 10-6.2 3.7-11.6 7.3-16.1 10.4-1.5 1-2.8 1.9-4 2.9-4 3.3-6 6.1-7.6 5.9-.6.3-1.3.2-1.7-.6-1.8-3.5-3-7.4-3.5-11.6-.6-4.3 0-8.7 1.2-13 1.4-5.3 4-10.2 7.8-14.1z" fill="#f2a335"/><path d="m12 12c6.1-6.1 14.5-9.9 23.8-9.9 9.1 0 17.4 3.6 23.4 9.5 1 .9 1.8 1.7 2.3 2.4 1.8 2.8-1.2 3.7-6 5.9-1 .4-2 1.1-3.1 1.7-4.7 2.7-11.1 5.8-17.4 9.5-6.2 3.6-11.5 7.3-15.9 10.4-1.5 1-2.8 2-3.9 3-3.9 3.4-5.9 6.4-7.3 6.4-.5.3-1.3.2-1.7-.5-1.8-3.4-3-7.3-3.4-11.4-.4-4.6.2-9 1.4-13.2 1.5-5.2 4.1-10 7.8-13.8z" fill="#f2a436"/><path d="m12 12c6.1-6.1 14.5-9.9 23.8-9.9 9.1 0 17.4 3.6 23.4 9.5 1 .8 1.8 1.7 2.2 2.4 1.8 2.7-1.4 3.6-6.5 5.7-1 .4-2.1 1-3.2 1.5-4.9 2.5-11.3 5.4-17.6 9-6.2 3.5-11.4 7.3-15.7 10.5-1.4 1.1-2.7 2.1-3.8 3.1-3.9 3.6-5.7 6.8-7.1 6.8-.5.4-1.3.3-1.7-.5-1.7-3.6-2.9-7.5-3.2-11.7-.4-4.5.3-9 1.5-13.2 1.7-4.8 4.3-9.5 7.9-13.2z" fill="#f3a537"/><path d="m12 12c6.1-6.1 14.5-9.9 23.8-9.9 9.1 0 17.4 3.6 23.4 9.5 1 .8 1.8 1.7 2.2 2.4 1.7 2.7-1.6 3.5-6.9 5.4-1 .4-2.1.9-3.3 1.4-5 2.2-11.5 5-17.8 8.5-6.2 3.5-11.3 7.2-15.5 10.5-1.4 1.1-2.6 2.2-3.7 3.2-3.8 3.8-5.6 7.1-6.9 7.3-.3.5-1.1.5-1.5-.3-1.7-3.6-2.8-7.6-3.1-11.7-.3-4.6.4-9 1.7-13.2 1.5-4.9 4.1-9.5 7.6-13.1z" fill="#f4a638"/><path d="m12 12c6.1-6.1 14.5-9.9 23.8-9.9 9.1 0 17.3 3.6 23.4 9.5 1 .8 1.8 1.6 2.2 2.4 1.7 2.6-1.8 3.3-7.3 5.1-1.1.3-2.2.8-3.4 1.3-5.2 2-11.7 4.5-18 8-6.2 3.4-11.2 7.2-15.2 10.6-1.4 1.2-2.6 2.3-3.6 3.4-3.7 4-5.4 7.4-6.6 7.7-.5.4-1.2.4-1.7-.4-1.7-3.6-2.7-7.6-3-11.7-.3-4.6.5-9 1.8-13.2 1.6-4.8 4.1-9.2 7.6-12.8z" fill="#f5a739"/><path d="m12 12c6.1-6.1 14.5-9.9 23.8-9.9 9.1 0 17.3 3.6 23.4 9.5 1 .8 1.7 1.6 2.2 2.3 1.6 2.6-2 3.2-7.7 4.8-1.1.3-2.3.7-3.5 1.1-5.3 1.8-12 4.1-18.3 7.5-6.2 3.3-11.2 7.2-15 10.7-1.3 1.2-2.5 2.4-3.5 3.5-3.6 4.2-5.3 7.8-6.4 8.2-.5.5-1.2.4-1.7-.3-1.6-3.6-2.6-7.6-2.8-11.8-.2-4.6.5-9 1.9-13.2 1.7-4.6 4.2-8.9 7.6-12.4z" fill="#f6a93a"/><path d="m12 12c6.1-6.1 14.5-9.9 23.8-9.9 9.1 0 17.3 3.6 23.4 9.4 1 .8 1.7 1.6 2.2 2.3 1.6 2.5-2.2 3.1-8.1 4.5-1.1.3-2.4.6-3.7 1-5.4 1.6-12.2 3.7-18.5 7-6.2 3.3-11.1 7.1-14.8 10.7-1.3 1.2-2.4 2.4-3.4 3.6-3.6 4.4-5.1 8.1-6.1 8.6-.5.5-1.2.5-1.7-.3-1.6-3.6-2.5-7.6-2.7-11.8-.2-4.6.6-9 2.1-13.1 1.7-4.5 4.2-8.6 7.5-12z" fill="#f7aa3b"/><path d="m12 12c6.1-6.1 14.5-9.9 23.8-9.9 9.1 0 17.3 3.6 23.4 9.4 1 .8 1.7 1.6 2.2 2.3 1.6 2.5-2.4 3-8.5 4.2-1.2.2-2.4.5-3.8.9-5.6 1.4-12.4 3.2-18.7 6.5-6.2 3.2-11 7.1-14.6 10.8-1.2 1.3-2.3 2.5-3.3 3.7-3.5 4.6-5 8.4-5.9 9.1-.5.5-1.2.5-1.7-.2-1.5-3.7-2.4-7.7-2.6-11.9-.1-4.6.7-9 2.2-13.1 1.8-4.5 4.3-8.5 7.5-11.8z" fill="#f8ab3c"/><path d="m12 12c6.1-6.1 14.5-9.9 23.8-9.9 9.1 0 17.3 3.6 23.4 9.4 1 .8 1.7 1.6 2.1 2.3 1.5 2.4-2.6 2.9-9 3.9-1.2.2-2.5.4-3.9.7-5.7 1.1-12.7 2.8-18.9 5.9s-10.9 7.1-14.3 10.8c-1.2 1.3-2.3 2.6-3.2 3.9-3.4 4.7-4.8 8.8-5.7 9.5-.5.6-1.2.6-1.7-.2-1.5-3.7-2.4-7.7-2.5-11.9-.1-4.6.8-9 2.4-13.1 1.9-4.2 4.3-8.1 7.5-11.3z" fill="#f9ad3d"/><path d="m12 12c6.1-6.1 14.5-9.9 23.8-9.9 9.1 0 17.3 3.6 23.3 9.4 1 .8 1.7 1.6 2.1 2.2 1.5 2.4-2.8 2.8-9.4 3.6-1.3.2-2.6.4-4 .6-5.8 1-12.8 2.5-19 5.5-6.2 3.1-10.8 7-14.1 10.9-1.2 1.4-2.2 2.7-3.1 4-3.3 4.9-4.7 9.1-5.4 10-.5.6-1.2.6-1.6-.1-1.5-3.7-2.3-7.7-2.3-11.9 0-4.6.9-9.1 2.5-13.1 1.6-4.3 4.1-8 7.2-11.2z" fill="#faae3f"/><path d="m61.3 13.8c-.4-.6-1.1-1.4-2.1-2.2-6.1-5.8-14.3-9.4-23.3-9.4-9.3 0-17.8 3.7-23.9 9.8-3 3-5.5 6.7-7.2 10.7s-2.6 8.5-2.6 13.1c0 4.2.8 8.3 2.2 12 0-.1 0 .1 0 0 .4.8 1.1.7 1.6.1.7-1 1.9-5.3 5.2-10.4s8.4-11 16.8-15c7.7-3.7 16.7-4.7 23.5-5.4s11.2-1 9.8-3.3z" fill="#fbb040"/></g><g clip-path="url(#b)" fill="#fff"><path d="m80.7 9.8c.2.3 0 .5-.4.5s-.8-.3-1-.6 0-.5.4-.4c.4 0 .8.3 1 .5z"/><path d="m81.3 11.1c.1.3 0 .5-.4.5s-.8-.3-.9-.6 0-.5.4-.5.8.3.9.6z"/><path d="m82 12.5c.1.3-.1.6-.4.5-.4 0-.8-.3-.9-.7-.1-.3.1-.6.4-.5s.7.4.9.7z"/><path d="m82.5 14c.1.4-.1.6-.5.6s-.8-.4-.9-.7c-.1-.4.1-.6.5-.6s.8.3.9.7z"/><path d="m83.1 15.6c.1.4-.1.6-.5.6s-.8-.4-.9-.7c-.1-.4.1-.6.5-.6s.8.3.9.7z"/><path d="m83.6 17.2c.1.4-.1.7-.5.6-.4 0-.8-.4-.9-.8s.1-.7.5-.6.8.4.9.8z"/><path d="m84.1 18.9c.1.4-.1.7-.5.7s-.8-.4-.9-.8.1-.7.5-.7c.4.1.8.4.9.8z"/><path d="m80 8.7c.2.3 0 .5-.4.4-.4 0-.8-.3-1-.5-.2-.3 0-.4.4-.4s.9.2 1 .5z"/><path d="m79.3 7.6c.2.2 0 .4-.4.4s-.8-.2-1-.5c-.2-.2 0-.4.4-.4.4.1.8.3 1 .5z"/><path d="m85.3 24.5c0 .5-.3.8-.7.8s-.8-.4-.8-.9.3-.8.7-.8c.4.1.7.5.8.9z"/><path d="m85.4 26.5c0 .5-.3.8-.7.8s-.8-.4-.8-.9.3-.8.7-.8c.4.1.8.5.8.9z"/><path d="m85.5 28.6c0 .5-.3.8-.7.8s-.8-.4-.8-.9.3-.8.7-.8c.5 0 .8.4.8.9z"/><path d="m85.6 30.6c0 .5-.3.9-.7.9s-.7-.4-.8-.9c0-.5.3-.9.7-.8.5-.1.8.3.8.8z"/><path d="m85.7 32.7c0 .5-.3.9-.7.9s-.7-.4-.7-.9.3-.9.7-.9c.3 0 .7.4.7.9z"/><path d="m85.7 34.8c0 .5-.3.9-.7.9s-.7-.4-.7-.9.3-.9.7-.9.7.4.7.9z"/><path d="m85.7 36.9c0 .5-.3.9-.7.9s-.7-.4-.7-.9.3-.9.7-.9.7.4.7.9z"/><path d="m85.1 22.6c.1.4-.2.8-.6.8s-.8-.4-.9-.9c-.1-.4.2-.8.6-.7.3 0 .8.3.9.8z"/><path d="m84.6 20.7c.1.4-.1.7-.5.7s-.8-.4-.9-.8.1-.7.5-.7.8.4.9.8z"/><path d="m85.4 45.2c0 .5-.4.9-.8.9s-.7-.3-.7-.8.4-.9.8-.9.7.3.7.8z"/><path d="m85.3 47.2c0 .5-.4.8-.8.9-.4 0-.7-.3-.7-.8s.4-.9.8-.9.7.3.7.8z"/><path d="m85.6 41.1c0 .5-.4.9-.8.9s-.7-.4-.7-.8c0-.5.4-.9.8-.9.4-.1.7.3.7.8z"/><path d="m85.7 39c0 .5-.3.9-.7.9s-.7-.4-.7-.9.3-.9.7-.9.7.4.7.9z"/><path d="m82.3 10c.2.3 0 .5-.4.5s-.8-.3-1-.6 0-.5.4-.4c.4-.1.9.2 1 .5z"/><path d="m83 11.3c.1.3 0 .5-.4.5s-.8-.3-.9-.6 0-.5.4-.5c.3 0 .7.3.9.6z"/><path d="m83.6 12.7c.1.3 0 .6-.4.5-.4 0-.8-.3-.9-.7-.1-.3.1-.6.4-.5s.8.3.9.7z"/><path d="m84.2 14.2c.1.4-.1.6-.4.6-.4 0-.8-.4-.9-.7-.1-.4.1-.6.4-.6s.8.3.9.7z"/><path d="m84.8 15.7c.1.4-.1.6-.5.6s-.8-.4-.9-.7c-.1-.4.1-.6.5-.6.3 0 .7.4.9.7z"/><path d="m85.3 17.4c.1.4-.1.7-.5.6-.4 0-.8-.4-.9-.8s.1-.7.5-.6.8.4.9.8z"/><path d="m85.8 19.1c.1.4-.1.7-.5.7s-.8-.4-.9-.8.1-.7.5-.7.8.4.9.8z"/><path d="m81.6 8.8c.2.3 0 .5-.4.4-.4 0-.8-.3-1-.5-.2-.3 0-.4.4-.4s.9.2 1 .5z"/><path d="m87 24.6c0 .5-.3.8-.7.8s-.7-.4-.8-.9c0-.5.3-.8.7-.8.4.1.8.5.8.9z"/><path d="m87.1 26.6c0 .5-.3.8-.7.8s-.7-.4-.8-.9c0-.5.3-.8.7-.8.5.1.8.4.8.9z"/><path d="m87.2 28.6c0 .5-.3.8-.7.8s-.7-.4-.8-.9c0-.5.3-.8.7-.8.5.1.8.5.8.9z"/><path d="m87.3 30.7c0 .5-.3.9-.7.8-.4 0-.7-.4-.7-.9s.3-.9.7-.8c.4 0 .7.4.7.9z"/><path d="m87.4 32.7c0 .5-.3.9-.7.9s-.7-.4-.7-.9.3-.9.7-.9c.3.1.7.5.7.9z"/><path d="m87.4 34.8c0 .5-.3.9-.7.9s-.7-.4-.7-.9.3-.9.7-.9.7.4.7.9z"/><path d="m87.4 36.9c0 .5-.3.9-.7.9s-.7-.4-.7-.9.3-.9.7-.9.7.4.7.9z"/><path d="m86.8 22.7c.1.4-.2.8-.6.7-.4 0-.7-.4-.8-.8s.1-.8.5-.7c.4 0 .8.4.9.8z"/><path d="m86.3 20.9c.1.4-.1.7-.5.7s-.8-.4-.9-.8.1-.7.5-.7.8.3.9.8z"/><path d="m87.2 43.1c0 .5-.4.9-.7.9-.4 0-.7-.3-.7-.8s.4-.9.8-.9c.4-.1.7.3.6.8z"/><path d="m87 47.1c0 .5-.4.8-.8.9-.4 0-.7-.3-.7-.8s.4-.9.8-.9.7.3.7.8z"/><path d="m86.8 49c-.1.4-.5.8-.9.8s-.6-.3-.5-.7.4-.8.8-.8.7.3.6.7z"/><path d="m87.3 41c0 .5-.3.9-.7.9s-.7-.4-.7-.8c0-.5.3-.9.7-.9s.7.4.7.8z"/><path d="m87.4 39c0 .5-.3.9-.7.9s-.7-.4-.7-.9.3-.9.7-.9.7.4.7.9z"/><path d="m83.9 10.1c.2.3 0 .5-.4.5s-.8-.3-.9-.6c-.2-.3 0-.5.4-.5.3.1.8.3.9.6z"/><path d="m84.6 11.4c.1.3 0 .5-.4.5s-.8-.3-.9-.6 0-.5.4-.5c.3.1.7.3.9.6z"/><path d="m85.2 12.9c.1.3 0 .6-.4.5-.4 0-.8-.3-.9-.7-.1-.3 0-.6.4-.5.4 0 .8.3.9.7z"/><path d="m85.8 14.3c.1.4-.1.6-.4.6-.4 0-.8-.4-.9-.7-.1-.4.1-.6.4-.6.4.1.8.4.9.7z"/><path d="m86.4 15.9c.1.4-.1.6-.4.6-.4 0-.8-.4-.9-.7-.1-.4.1-.6.4-.6.4 0 .8.3.9.7z"/><path d="m87 17.5c.1.4-.1.7-.5.6-.4 0-.8-.4-.9-.8s.1-.7.5-.6c.3.1.7.5.9.8z"/><path d="m87.5 19.2c.1.4-.1.7-.5.7s-.8-.4-.9-.8.1-.7.5-.7c.4.1.8.4.9.8z"/><path d="m88.7 24.7c0 .5-.2.8-.6.8s-.7-.4-.8-.9c0-.5.3-.8.6-.8.4.1.7.5.8.9z"/><path d="m88.8 26.7c0 .5-.3.8-.6.8-.4 0-.7-.4-.7-.9s.3-.8.6-.8c.3.1.7.4.7.9z"/><path d="m88.9 28.7c0 .5-.3.8-.6.8-.4 0-.7-.4-.7-.9s.3-.8.7-.8c.3 0 .6.4.6.9z"/><path d="m89 30.7c0 .5-.3.8-.7.8s-.7-.4-.7-.9.3-.8.7-.8c.3.1.7.5.7.9z"/><path d="m89 32.8c0 .5-.3.9-.7.8-.4 0-.7-.4-.7-.9s.3-.9.7-.8c.4 0 .7.4.7.9z"/><path d="m89.1 34.8c0 .5-.3.9-.7.9s-.7-.4-.7-.9.3-.9.7-.9c.3.1.7.5.7.9z"/><path d="m89.1 36.9c0 .5-.3.9-.7.9s-.7-.4-.7-.9.3-.9.7-.9.7.4.7.9z"/><path d="m88.5 22.8c.1.4-.2.8-.6.7-.4 0-.7-.4-.8-.8s.1-.7.5-.7.8.4.9.8z"/><path d="m88 21c.1.4-.1.7-.5.7s-.8-.4-.9-.8.1-.7.5-.7.8.4.9.8z"/><path d="m88.7 47c0 .5-.4.8-.7.9-.4 0-.7-.3-.6-.8 0-.5.4-.8.8-.9.2 0 .5.3.5.8z"/><path d="m88.5 48.9c-.1.4-.5.8-.9.8s-.6-.3-.5-.7.4-.8.8-.8c.4-.1.7.3.6.7z"/><path d="m89 41c0 .5-.3.9-.7.9s-.7-.4-.7-.8c0-.5.3-.9.7-.9.4-.1.7.3.7.8z"/><path d="m85.5 10.3c.2.3 0 .5-.4.5s-.8-.3-.9-.6c-.2-.3 0-.5.4-.5.3 0 .8.3.9.6z"/><path d="m86.2 11.6c.1.3 0 .6-.4.5-.4 0-.8-.3-.9-.6s0-.5.4-.5c.3 0 .7.3.9.6z"/><path d="m86.8 13c.1.3 0 .6-.4.5-.4 0-.8-.4-.9-.7s0-.6.4-.5c.3.1.7.4.9.7z"/><path d="m87.4 14.5c.1.4 0 .6-.4.6s-.8-.4-.9-.7c-.1-.4 0-.6.4-.6.4.1.8.4.9.7z"/><path d="m88 16.1c.1.4-.1.6-.4.6-.4 0-.8-.4-.9-.7-.1-.4.1-.6.4-.6.4 0 .8.3.9.7z"/><path d="m88.5 17.7c.1.4-.1.7-.4.6-.4 0-.8-.4-.9-.8s.1-.7.4-.6c.4.1.8.4.9.8z"/><path d="m89.1 19.4c.1.4-.1.7-.4.7-.4 0-.8-.4-.9-.8s.1-.7.4-.6c.4 0 .8.3.9.7z"/><path d="m90.3 24.8c0 .4-.2.8-.6.8s-.7-.4-.7-.9.2-.8.6-.8c.3.1.7.5.7.9z"/><path d="m90.4 26.8c0 .5-.2.8-.6.8s-.7-.4-.7-.9.3-.8.6-.8c.4.1.7.4.7.9z"/><path d="m90.5 28.8c0 .5-.3.8-.6.8-.4 0-.7-.4-.7-.9s.3-.8.6-.8c.4 0 .7.4.7.9z"/><path d="m90.6 30.8c0 .5-.3.8-.6.8-.4 0-.7-.4-.7-.9s.3-.8.6-.8c.4 0 .7.4.7.9z"/><path d="m90.6 32.8c0 .5-.3.8-.6.8-.4 0-.7-.4-.7-.9s.3-.8.6-.8c.4.1.7.4.7.9z"/><path d="m90.6 34.8c0 .5-.3.9-.6.8-.4 0-.7-.4-.7-.9s.3-.9.7-.8c.3.1.6.5.6.9z"/><path d="m90.6 36.9c0 .5-.3.9-.7.9s-.7-.4-.7-.8c0-.5.3-.9.7-.9.5-.1.7.3.7.8z"/><path d="m90.1 22.9c.1.4-.2.8-.5.7-.4 0-.7-.4-.8-.8s.1-.7.5-.7c.3.1.7.4.8.8z"/><path d="m89.6 21.1c.1.4-.1.7-.5.7s-.8-.4-.9-.8.1-.7.5-.7c.4.1.8.4.9.8z"/><path d="m90.4 44.9c0 .5-.3.8-.7.9-.4 0-.6-.3-.6-.8s.3-.8.7-.9c.4 0 .6.4.6.8z"/><path d="m90.3 46.9c0 .4-.4.8-.7.9-.4 0-.6-.3-.6-.8s.4-.8.7-.9c.3 0 .6.3.6.8z"/><path d="m89.6 50.6c-.1.4-.5.8-.9.8s-.6-.3-.5-.7.5-.8.9-.8c.4-.1.6.3.5.7z"/><path d="m86.8 58.7c-.1.3-.6.6-.9.7-.4 0-.5-.2-.4-.5s.6-.6.9-.7c.4-.1.5.1.4.5z"/><path d="m87.4 57.2c-.1.4-.5.7-.9.7s-.5-.2-.4-.6.5-.7.9-.7.5.2.4.6z"/><path d="m88 55.6c-.1.4-.5.7-.9.7s-.6-.2-.4-.6c.1-.4.5-.7.9-.7.3 0 .5.3.4.6z"/><path d="m87.7 11.8c.1.3 0 .6-.4.5-.4 0-.8-.3-.9-.7-.1-.3 0-.5.4-.5.4.1.8.4.9.7z"/><path d="m88.3 13.2c.1.3 0 .6-.4.5-.4 0-.8-.4-.9-.7s0-.6.4-.5.8.4.9.7z"/><path d="m88.9 14.7c.1.4 0 .6-.4.6s-.8-.4-.9-.7c-.1-.4 0-.6.4-.6s.8.4.9.7z"/><path d="m89.5 16.3c.1.4 0 .6-.4.6s-.8-.4-.9-.7c-.1-.4 0-.6.4-.6s.8.3.9.7z"/><path d="m90.1 17.9c.1.4-.1.7-.4.6-.4 0-.7-.4-.9-.8-.1-.4.1-.7.4-.6.4.1.8.4.9.8z"/><path d="m90.6 19.6c.1.4-.1.7-.4.6-.4 0-.7-.4-.9-.8-.1-.4.1-.7.4-.6.4 0 .8.4.9.8z"/><path d="m91.8 25c0 .4-.2.8-.6.8s-.7-.4-.7-.9c0-.4.2-.8.6-.8s.7.4.7.9z"/><path d="m92 26.9c0 .5-.2.8-.6.8s-.7-.4-.7-.9.2-.8.6-.8c.3.1.6.4.7.9z"/><path d="m92 28.9c0 .5-.2.8-.6.8s-.7-.4-.7-.9.3-.8.6-.8c.4 0 .7.4.7.9z"/><path d="m92.1 30.8c0 .5-.3.8-.6.8s-.6-.4-.7-.9c0-.5.3-.8.6-.8.4.1.7.5.7.9z"/><path d="m92.1 32.8c0 .5-.3.8-.6.8s-.6-.4-.7-.9c0-.5.3-.8.6-.8.5.1.7.5.7.9z"/><path d="m92.2 34.9c0 .5-.3.8-.6.8s-.6-.4-.6-.8c0-.5.3-.8.6-.8.3-.1.6.3.6.8z"/><path d="m92.2 36.9c0 .5-.3.8-.6.8s-.6-.4-.6-.8c0-.5.3-.8.6-.8.3-.1.6.3.6.8z"/><path d="m91.6 23.1c.1.4-.2.7-.5.7-.4 0-.7-.4-.8-.8s.1-.7.4-.7c.5 0 .8.4.9.8z"/><path d="m91.1 21.3c.1.4-.1.7-.4.7-.4 0-.7-.4-.9-.8-.1-.4.1-.7.4-.7.5 0 .8.4.9.8z"/><path d="m92 42.9c0 .5-.3.8-.7.9-.4 0-.6-.3-.6-.8s.3-.8.7-.9.7.3.6.8z"/><path d="m91.8 46.8c0 .4-.3.8-.7.9-.4 0-.6-.3-.6-.8 0-.4.3-.8.7-.9.4 0 .7.3.6.8z"/><path d="m91.6 48.6c-.1.4-.5.8-.8.8-.4 0-.6-.3-.4-.7.1-.4.4-.8.8-.8.3 0 .6.3.4.7z"/><path d="m90.1 53.8c-.1.4-.5.7-.9.8-.4 0-.5-.2-.4-.6s.5-.7.9-.8c.3 0 .5.2.4.6z"/><path d="m92.1 40.9c0 .5-.3.8-.7.9-.3 0-.6-.3-.6-.8s.3-.9.7-.9c.3-.1.6.3.6.8z"/><path d="m92.1 38.9c0 .5-.3.8-.6.9-.3 0-.6-.4-.6-.8 0-.5.3-.9.7-.9.3-.1.6.3.5.8z"/><path d="m88.3 58.5c-.1.3-.5.6-.9.7-.4 0-.5-.2-.4-.5s.5-.6.9-.7.6.2.4.5z"/><path d="m88.9 57c-.1.4-.5.7-.9.7s-.5-.2-.4-.6.5-.7.9-.7.6.3.4.6z"/><path d="m89.5 55.4c-.1.4-.5.7-.9.7s-.5-.2-.4-.6.5-.7.9-.7.6.3.4.6z"/><path d="m89.2 12c.1.3 0 .6-.4.5-.3 0-.8-.3-.9-.7-.1-.3 0-.5.4-.5s.8.3.9.7z"/><path d="m89.9 13.4c.1.3 0 .6-.4.5-.3 0-.7-.4-.9-.7-.1-.3 0-.6.4-.5.3 0 .7.4.9.7z"/><path d="m90.5 14.9c.1.4 0 .6-.4.6-.3 0-.7-.4-.9-.7-.1-.4 0-.6.4-.6.3 0 .7.3.9.7z"/><path d="m91 16.5c.1.4 0 .6-.4.6-.3 0-.7-.4-.9-.7-.1-.4 0-.6.4-.6s.8.3.9.7z"/><path d="m91.6 18.1c.1.4 0 .7-.4.6-.3 0-.7-.4-.9-.8-.1-.4.1-.7.4-.6.4.1.8.4.9.8z"/><path d="m92.1 19.7c.1.4-.1.7-.4.6-.3 0-.7-.4-.8-.8s.1-.7.4-.6.7.5.8.8z"/><path d="m93.3 25.1c0 .4-.2.8-.6.7-.3 0-.6-.4-.7-.9 0-.4.2-.8.6-.7s.7.4.7.9z"/><path d="m93.4 27c0 .4-.2.8-.6.8-.3 0-.6-.4-.7-.9s.2-.8.6-.8c.4.1.7.5.7.9z"/><path d="m93.5 28.9c0 .5-.2.8-.6.8-.3 0-.6-.4-.6-.9s.2-.8.6-.8c.3.1.6.5.6.9z"/><path d="m93.6 30.9c0 .5-.2.8-.6.8-.3 0-.6-.4-.6-.9s.3-.8.6-.8.6.5.6.9z"/><path d="m93.1 23.2c.1.4-.1.7-.5.7s-.6-.4-.7-.8.1-.7.4-.7c.4.1.7.4.8.8z"/><path d="m92.6 21.5c.1.4-.1.7-.4.7s-.7-.4-.8-.8.1-.7.4-.7c.4 0 .7.4.8.8z"/><path d="m93.5 42.8c0 .5-.3.8-.6.9-.3 0-.6-.3-.6-.8s.3-.8.6-.9c.4 0 .6.3.6.8z"/><path d="m93.4 44.7c0 .4-.3.8-.6.9-.3 0-.6-.3-.6-.8 0-.4.3-.8.7-.9s.5.4.5.8z"/><path d="m93.3 46.6c0 .4-.3.8-.7.9s-.6-.3-.6-.7.3-.8.7-.9.7.3.6.7z"/><path d="m92.1 52c-.1.4-.5.7-.8.8-.3 0-.5-.2-.4-.6s.5-.7.8-.8c.4-.1.5.2.4.6z"/><path d="m91.6 53.6c-.1.4-.5.7-.8.8-.3 0-.5-.2-.4-.6s.5-.7.9-.8c.2 0 .4.3.3.6z"/><path d="m93.6 40.8c0 .5-.3.8-.6.9-.3 0-.6-.3-.6-.8s.3-.8.6-.9c.3 0 .6.4.6.8z"/><path d="m89.9 58.3c-.2.4-.6.7-.9.7s-.5-.2-.4-.5.5-.7.9-.7c.3-.1.5.2.4.5z"/><path d="m90.5 56.8c-.1.4-.5.7-.9.7-.3 0-.5-.2-.4-.6s.5-.7.9-.7c.3 0 .5.3.4.6z"/><path d="m91 55.3c-.1.4-.5.7-.9.7-.3 0-.5-.2-.4-.6s.5-.7.9-.7c.4-.1.6.2.4.6z"/><path d="m91.3 13.6c.1.3 0 .6-.4.5-.3 0-.7-.4-.9-.7-.1-.3 0-.6.4-.5.4 0 .8.3.9.7z"/><path d="m91.9 15.1c.1.4 0 .6-.4.6-.3 0-.7-.4-.9-.7-.1-.4 0-.6.4-.6s.8.3.9.7z"/><path d="m92.5 16.6c.1.4 0 .6-.4.6-.3 0-.7-.4-.8-.7-.1-.4 0-.6.4-.6.3.1.7.4.8.7z"/><path d="m93 18.3c.1.4 0 .7-.4.6-.3 0-.7-.4-.8-.8s0-.6.4-.6c.3 0 .7.4.8.8z"/><path d="m93.6 19.9c.1.4 0 .7-.4.6-.3 0-.7-.4-.8-.8s.1-.7.4-.6.6.4.8.8z"/><path d="m94.7 25.2c0 .4-.2.8-.5.7-.3 0-.6-.4-.6-.8s.2-.8.5-.7c.3 0 .6.4.6.8z"/><path d="m94.8 27.1c0 .4-.2.8-.5.8s-.6-.4-.6-.9c0-.4.2-.8.6-.8.2.1.5.5.5.9z"/><path d="m95 31c0 .4-.2.8-.6.8-.3 0-.6-.4-.6-.8 0-.5.2-.8.6-.8.3-.1.6.3.6.8z"/><path d="m95 32.9c0 .5-.2.8-.6.8-.3 0-.6-.4-.6-.8 0-.5.3-.8.6-.8s.6.4.6.8z"/><path d="m94.6 23.4c.1.4-.1.7-.5.7-.3 0-.6-.4-.7-.8s.1-.7.4-.7.7.4.8.8z"/><path d="m94.1 21.6c.1.4-.1.7-.4.7s-.7-.4-.8-.8.1-.7.4-.6c.3 0 .7.3.8.7z"/><path d="m94.7 46.5c0 .4-.3.8-.6.8s-.6-.3-.5-.7c0-.4.3-.8.6-.8.3-.1.6.3.5.7z"/><path d="m94.1 50.1c-.1.4-.5.7-.8.8-.3 0-.5-.3-.4-.7s.5-.8.8-.8.5.3.4.7z"/><path d="m93.6 51.8c-.1.4-.5.7-.8.8-.3 0-.5-.2-.4-.6s.5-.7.8-.8.5.2.4.6z"/><path d="m93 53.4c-.1.4-.5.7-.8.8-.3 0-.5-.2-.4-.6s.5-.7.8-.8c.4 0 .6.3.4.6z"/><path d="m91.3 58.1c-.1.3-.5.6-.9.7-.3 0-.5-.2-.4-.5s.5-.7.9-.7c.4-.1.6.2.4.5z"/><path d="m91.9 56.6c-.1.4-.5.7-.8.7s-.5-.2-.4-.6.5-.7.9-.7c.3 0 .5.3.3.6z"/><path d="m92.5 55.1c-.1.4-.5.7-.8.7s-.5-.2-.4-.6.5-.7.8-.8c.4 0 .5.3.4.7z"/><path d="m91.6 10.9c.1.3 0 .5-.4.5-.3 0-.7-.3-.9-.6-.1-.3 0-.5.4-.5s.8.3.9.6z"/><path d="m92.8 13.8c.1.3 0 .6-.4.5-.3 0-.7-.4-.8-.7s0-.6.4-.5c.3 0 .7.3.8.7z"/><path d="m93.4 15.3c.1.4 0 .6-.4.6-.3 0-.7-.4-.8-.7-.1-.4 0-.6.4-.6.3 0 .6.3.8.7z"/><path d="m93.9 16.8c.1.4 0 .6-.4.6-.3 0-.7-.4-.8-.7-.1-.4 0-.6.4-.6.3 0 .7.4.8.7z"/><path d="m94.4 18.5c.1.4 0 .7-.4.6-.3 0-.7-.4-.8-.8s0-.6.4-.6.7.4.8.8z"/><path d="m94.9 20.1c.1.4 0 .7-.4.6-.3 0-.7-.4-.8-.8s0-.7.4-.6.7.4.8.8z"/><path d="m96.1 25.4c0 .4-.2.8-.5.7-.3 0-.6-.4-.6-.8s.2-.8.5-.7c.3 0 .6.3.6.8z"/><path d="m96.2 27.2c0 .4-.2.8-.5.7-.3 0-.6-.4-.6-.8s.2-.8.5-.7c.3 0 .6.4.6.8z"/><path d="m96.3 31c0 .4-.2.8-.5.8s-.6-.4-.6-.8.2-.8.5-.8.6.4.6.8z"/><path d="m95.9 23.5c.1.4-.1.7-.4.7s-.6-.4-.7-.8.1-.7.4-.7c.3.1.6.4.7.8z"/><path d="m95.4 21.8c.1.4 0 .7-.4.6-.3 0-.7-.4-.8-.8s0-.7.4-.6.7.4.8.8z"/><path d="m96.1 46.4c0 .4-.3.8-.6.8s-.5-.3-.5-.7.3-.8.6-.8c.3-.1.5.2.5.7z"/><path d="m95.9 48.2c-.1.4-.4.8-.8.8-.3 0-.5-.3-.4-.7s.4-.8.7-.8c.4 0 .6.3.5.7z"/><path d="m94.9 51.6c-.1.4-.5.7-.8.8-.3 0-.5-.2-.4-.6s.5-.7.8-.8c.4-.1.6.2.4.6z"/><path d="m94.4 53.3c-.1.3-.4.7-.8.7-.3 0-.5-.2-.4-.6s.5-.7.8-.8c.4 0 .5.3.4.7z"/><path d="m92.8 57.9c-.1.3-.5.7-.8.7s-.5-.2-.4-.5.5-.7.8-.7c.4 0 .5.2.4.5z"/><path d="m93.4 56.4c-.1.4-.5.7-.8.7s-.5-.2-.4-.6.5-.7.8-.7.5.3.4.6z"/><path d="m93.9 54.9c-.1.4-.5.7-.8.7s-.5-.2-.4-.6.5-.7.8-.8c.4 0 .5.3.4.7z"/><path d="m93.1 11.1c.1.3 0 .6-.4.5-.3 0-.7-.3-.9-.6-.1-.3 0-.5.4-.5s.7.3.9.6z"/><path d="m93.6 12.5c.1.3 0 .6-.4.5-.3 0-.7-.4-.8-.7s0-.6.4-.5c.3.1.7.4.8.7z"/><path d="m94.2 14c.1.3 0 .6-.3.5-.3 0-.7-.4-.8-.7s0-.6.4-.5c.2 0 .6.3.7.7z"/><path d="m94.7 15.5c.1.4 0 .6-.3.6s-.7-.4-.8-.7c-.1-.4 0-.6.3-.6.4 0 .7.3.8.7z"/><path d="m95.3 17c.1.4 0 .6-.3.6s-.7-.4-.8-.8 0-.6.3-.6c.3.1.6.5.8.8z"/><path d="m95.8 18.7c.1.4 0 .6-.3.6s-.7-.4-.8-.8 0-.6.3-.6.7.4.8.8z"/><path d="m96.3 20.3c.1.4 0 .7-.3.6-.3 0-.6-.4-.8-.8-.1-.4 0-.7.3-.6s.6.4.8.8z"/><path d="m97.4 25.5c0 .4-.2.7-.5.7s-.5-.4-.6-.8c0-.4.2-.7.5-.7s.5.4.6.8z"/><path d="m97.4 27.4c0 .4-.2.8-.5.7-.3 0-.5-.4-.6-.8 0-.4.2-.8.5-.7.4 0 .6.3.6.8z"/><path d="m97.5 29.2c0 .4-.2.8-.5.8s-.5-.4-.5-.8.2-.8.5-.7c.2-.1.5.3.5.7z"/><path d="m97.5 31.1c0 .4-.2.8-.5.8s-.5-.4-.5-.8.2-.8.5-.8.5.4.5.8z"/><path d="m97.2 23.7c.1.4-.1.7-.4.7s-.5-.4-.6-.8 0-.7.3-.7.6.4.7.8z"/><path d="m96.7 22c.1.4 0 .7-.3.6-.3 0-.6-.4-.7-.8s0-.7.3-.6c.3 0 .6.4.7.8z"/><path d="m97.2 48c-.1.4-.4.8-.7.8s-.4-.3-.3-.7.4-.8.6-.8c.3 0 .5.3.4.7z"/><path d="m96.7 49.7c-.1.4-.4.7-.7.8-.3 0-.5-.2-.3-.6.1-.4.4-.7.7-.8.3 0 .4.2.3.6z"/><path d="m96.3 51.4c-.1.4-.4.7-.7.8-.3 0-.5-.2-.3-.6.1-.4.5-.7.8-.8.1 0 .3.2.2.6z"/><path d="m95.8 53.1c-.1.4-.5.7-.8.8-.3 0-.5-.2-.3-.6.1-.4.5-.7.8-.8.2-.1.4.2.3.6z"/><path d="m94.2 57.8c-.1.3-.5.7-.8.7s-.5-.2-.4-.5.5-.7.8-.7c.4-.1.5.1.4.5z"/><path d="m93.6 59.2c-.1.3-.5.6-.8.7-.3 0-.5-.2-.4-.5s.5-.6.8-.7c.4 0 .6.2.4.5z"/><path d="m94.7 56.2c-.1.4-.5.7-.8.7s-.5-.2-.3-.6c.1-.4.5-.7.8-.7s.5.3.3.6z"/><path d="m95.3 54.7c-.1.4-.5.7-.8.7s-.5-.2-.3-.6c.1-.4.5-.7.8-.8.2 0 .4.3.3.7z"/><path d="m94.5 11.2c.1.3 0 .6-.4.5-.3 0-.7-.3-.8-.7-.1-.3 0-.5.4-.5.3.1.7.4.8.7z"/><path d="m95.6 14.2c.1.3 0 .6-.3.5-.3 0-.7-.4-.8-.7s0-.6.3-.5c.3 0 .6.3.8.7z"/><path d="m96.1 15.7c.1.4 0 .6-.3.6s-.7-.4-.8-.7c-.1-.4 0-.6.3-.6s.7.3.8.7z"/><path d="m96.6 17.2c.1.4 0 .6-.3.6s-.6-.4-.8-.8c-.1-.4 0-.6.3-.6.3.2.7.5.8.8z"/><path d="m97 18.9c.1.4 0 .6-.3.6s-.6-.4-.7-.8 0-.6.3-.6.6.4.7.8z"/><path d="m97.5 20.5c.1.4 0 .7-.3.6-.3 0-.6-.4-.7-.8s0-.7.3-.6.6.4.7.8z"/><path d="m98.6 27.5c0 .4-.2.7-.5.7s-.5-.4-.5-.8.2-.8.5-.7c.3 0 .5.4.5.8z"/><path d="m98.4 47.9c-.1.4-.4.7-.7.8-.3 0-.4-.2-.3-.6s.3-.8.6-.8c.3-.2.5.2.4.6z"/><path d="m98 49.6c-.1.4-.4.7-.7.8-.3 0-.4-.2-.3-.6s.4-.7.7-.8c.2-.1.4.2.3.6z"/><path d="m97 52.9c-.1.4-.4.7-.7.8-.3 0-.4-.2-.3-.6s.4-.7.7-.8.5.2.3.6z"/><path d="m95.6 57.6c-.1.3-.5.7-.8.7s-.5-.2-.3-.5c.1-.3.5-.7.8-.7.2-.1.4.1.3.5z"/><path d="m95 59c-.1.3-.5.6-.8.7-.3 0-.5-.2-.4-.5s.5-.6.8-.7c.4 0 .6.2.4.5z"/><path d="m94 61.9c-.1.3-.5.6-.8.6s-.5-.2-.4-.5.5-.6.9-.6c.2-.1.4.1.3.5z"/><path d="m96.1 56c-.1.4-.5.7-.8.7s-.5-.2-.3-.6c.1-.4.5-.7.8-.7.2 0 .4.3.3.6z"/><path d="m96.6 54.5c-.1.4-.4.7-.7.7s-.5-.2-.3-.6c.1-.4.5-.7.8-.8.1 0 .3.3.2.7z"/><path d="m96.9 14.4c.1.3 0 .6-.3.6s-.6-.4-.8-.7c-.1-.3 0-.6.3-.5.3-.1.7.2.8.6z"/><path d="m97.4 15.9c.1.4 0 .6-.3.6s-.6-.4-.7-.7c-.1-.4 0-.6.3-.6.2 0 .6.3.7.7z"/><path d="m97.8 17.5c.1.4 0 .6-.3.6s-.6-.4-.7-.8 0-.6.3-.6c.3.1.6.4.7.8z"/><path d="m98.3 19.1c.1.4 0 .6-.3.6s-.6-.4-.7-.8 0-.6.3-.6.6.4.7.8z"/><path d="m99.5 47.7c-.1.4-.4.7-.6.8-.3 0-.4-.2-.3-.6s.3-.8.6-.8c.2-.1.4.2.3.6z"/><path d="m96.9 57.4c-.1.3-.4.7-.8.7-.3 0-.5-.2-.3-.5.1-.3.5-.7.8-.7.3-.1.4.1.3.5z"/><path d="m96.4 58.9c-.1.3-.5.6-.8.7-.3 0-.5-.2-.4-.5s.5-.7.8-.7c.4-.1.5.1.4.5z"/><path d="m97.4 55.8c-.1.4-.4.7-.7.7s-.5-.2-.3-.6c.1-.4.4-.7.7-.7.2 0 .4.3.3.6z"/><path d="m97.8 54.3c-.1.4-.4.7-.7.7s-.4-.2-.3-.6.4-.7.7-.8c.3 0 .4.3.3.7z"/><path d="m98.2 14.6c.1.4-.1.6-.3.6-.3 0-.6-.4-.7-.7-.1-.4 0-.6.3-.5.3-.1.6.2.7.6z"/><path d="m98.6 16.1c.1.4 0 .6-.3.6s-.6-.4-.7-.7c-.1-.4 0-.6.3-.6s.6.3.7.7z"/><path d="m99 17.7c.1.4 0 .6-.3.6s-.6-.4-.7-.8 0-.6.3-.6c.3.1.6.4.7.8z"/><path d="m99.4 19.3c.1.4 0 .6-.3.6s-.6-.4-.7-.8 0-.6.3-.6c.3.1.6.4.7.8z"/><path d="m99.8 20.9c.1.4 0 .6-.3.6s-.5-.4-.6-.8 0-.6.3-.6c.2.1.5.4.6.8z"/><path d="m100.7 26c0 .4-.2.7-.4.7s-.4-.4-.5-.8c0-.4.2-.7.4-.7.3 0 .5.4.5.8z"/><path d="m100.6 24.2c.1.4-.1.7-.3.6-.2 0-.4-.4-.5-.8s0-.7.3-.6c.1.1.4.4.5.8z"/><path d="m100.2 22.5c.1.4 0 .7-.3.6-.2 0-.5-.4-.6-.8s0-.7.3-.6c.2.1.5.5.6.8z"/><path d="m100.6 47.5c-.1.4-.3.7-.6.8-.2 0-.4-.2-.3-.6s.3-.8.5-.8c.3-.1.4.2.4.6z"/><path d="m99.8 16.3c.1.4-.1.6-.3.6-.3 0-.6-.4-.7-.7-.1-.4.1-.6.3-.6.3 0 .6.4.7.7z"/><path d="m100.2 17.9c.1.4-.1.6-.3.6-.3 0-.5-.4-.6-.8s.1-.6.3-.6c.2.1.5.4.6.8z"/><path d="m100.5 19.5c.1.4 0 .6-.3.6-.2 0-.5-.4-.6-.8s0-.6.3-.6c.3.1.5.4.6.8z"/><path d="m100.9 21.1c.1.4 0 .6-.3.6-.2 0-.5-.4-.6-.8s0-.6.3-.6c.2.1.5.4.6.8z"/><path d="m101.2 22.7c.1.4 0 .7-.3.6-.2 0-.5-.4-.6-.8s0-.7.3-.6.5.5.6.8z"/><path d="m101.2 49c-.1.4-.3.7-.6.8-.2 0-.4-.2-.3-.6s.3-.7.6-.8.4.2.3.6z"/><path d="m100.6 15c.1.4-.1.6-.3.6-.3 0-.6-.4-.6-.7-.1-.4.1-.6.4-.6.2 0 .4.3.5.7z"/><path d="m100.9 16.5c.1.4-.1.6-.3.6-.3-.1-.5-.4-.6-.7-.1-.4.1-.6.3-.6.3 0 .5.4.6.7z"/><path d="m101.2 18.1c.1.4-.1.6-.3.6-.2-.1-.5-.4-.6-.8s.1-.6.3-.6c.3.1.6.4.6.8z"/><path d="m101.5 19.7c.1.4-.1.6-.3.6-.2-.1-.5-.4-.6-.8s.1-.6.3-.6c.3.1.6.4.6.8z"/><path d="m99.6 61.3c-.1.3-.4.6-.7.7-.3 0-.5-.2-.4-.5s.4-.6.7-.7.5.1.4.5z"/><path d="m101.8 15.2c.1.4-.1.6-.4.6s-.5-.4-.6-.7c-.1-.4.1-.6.4-.6.2 0 .5.3.6.7z"/><path d="m102 16.8c.1.4-.1.6-.3.6-.2-.1-.5-.4-.6-.8s.1-.6.3-.6c.3.1.5.4.6.8z"/><path d="m102.2 18.3c.1.4-.1.6-.3.6-.2-.1-.5-.4-.5-.8-.1-.4.1-.6.3-.6.3.1.5.5.5.8z"/><path d="m102.5 19.9c.1.4-.1.6-.3.6s-.4-.4-.5-.8.1-.6.3-.6.4.5.5.8z"/><path d="m101.5 58.1c-.1.4-.3.7-.6.7s-.5-.2-.4-.6.4-.7.6-.7c.3 0 .5.2.4.6z"/><path d="m101.2 59.6c-.1.4-.3.7-.7.7-.3 0-.5-.2-.4-.6.1-.3.4-.7.7-.7s.5.3.4.6z"/><path d="m102.9 15.4c0 .4-.1.6-.4.6-.2-.1-.5-.4-.5-.7-.1-.4.1-.6.4-.6.2 0 .4.3.5.7z"/><path d="m103 17c0 .4-.1.6-.3.6-.2-.1-.5-.4-.5-.8-.1-.4.1-.6.3-.6.3.1.5.4.5.8z"/><path d="m103.2 18.6c0 .4-.1.6-.3.6-.2-.1-.4-.4-.5-.8s.1-.6.3-.6c.2.1.5.4.5.8z"/><path d="m102.7 57.9c0 .4-.3.7-.6.7s-.5-.2-.4-.6.3-.7.6-.7c.2 0 .4.2.4.6z"/><path d="m104 17.2c0 .4-.1.6-.3.6-.2-.1-.4-.4-.5-.8 0-.4.1-.6.4-.6.2.1.4.4.4.8z"/><path d="m104.1 18.8c0 .4-.1.6-.3.6-.2-.1-.4-.4-.4-.8s.1-.6.3-.6c.2.1.4.4.4.8z"/><path d="m104.9 19c0 .4-.1.6-.3.6-.2-.1-.3-.4-.4-.8 0-.4.1-.6.3-.6.2.1.4.5.4.8z"/><path d="m104.9 20.6c0 .4-.1.6-.3.6-.2-.1-.3-.4-.3-.8s.1-.6.3-.6c.2.1.3.5.3.8z"/><path d="m47.8 23.7c0 .5-.4.9-.9.9s-.9-.4-.9-.9.4-.9.9-.9.9.4.9.9z"/><path d="m47.8 25.8c0 .5-.4.9-.9.9s-.9-.4-.9-.9.4-.9.9-.9.9.4.9.9z"/><path d="m47.8 28c0 .5-.4.9-.9.9s-.9-.4-.9-.9.4-.9.9-.9.9.4.9.9z"/><path d="m47.8 30.2c0 .5-.4.9-.9.9s-.9-.4-.9-.9.4-.9.9-.9.9.4.9.9z"/><path d="m47.8 32.5c0 .5-.4.9-.9.9s-.9-.4-.9-.9.4-.9.9-.9c.5-.1.9.3.9.9z"/><path d="m47.8 34.7c0 .5-.4.9-.9.9s-.9-.4-.9-.9.4-.9.9-.9.9.4.9.9z"/><path d="m47.8 37c0 .5-.4.9-.9.9s-.9-.4-.9-.9.4-.9.9-.9c.5-.1.9.4.9.9z"/><path d="m47.9 21.6c0 .5-.4.8-.9.8s-.9-.4-.9-.8c0-.5.4-.8.9-.8s.9.4.9.8z"/><path d="m47.8 43.7c0 .5-.4.9-.9.9s-.9-.4-.9-.9.4-.9.9-.9.9.4.9.9z"/><path d="m47.8 45.9c0 .5-.4.9-.9.9s-.9-.4-.9-.9.4-.9.9-.9.9.4.9.9z"/><path d="m47.8 41.5c0 .5-.4.9-.9.9s-.9-.4-.9-.9.4-.9.9-.9.9.4.9.9z"/><path d="m47.8 39.2c0 .5-.4.9-.9.9s-.9-.4-.9-.9.4-.9.9-.9.9.4.9.9z"/><path d="m50.1 16.1c0 .4-.4.7-.9.7s-.9-.3-.9-.7.4-.7.9-.7.9.3.9.7z"/><path d="m50.1 17.8c0 .4-.4.8-.9.8s-.9-.3-.9-.8c0-.4.4-.7.9-.7s.9.3.9.7z"/><path d="m50.1 23.7c0 .5-.4.9-.9.9s-.9-.4-.9-.9.4-.9.9-.9c.4 0 .9.4.9.9z"/><path d="m50.1 25.8c0 .5-.4.9-.9.9s-.9-.4-.9-.9.4-.9.9-.9c.4 0 .9.4.9.9z"/><path d="m50.1 30.2c0 .5-.4.9-.9.9s-.9-.4-.9-.9.4-.9.9-.9c.4 0 .9.4.9.9z"/><path d="m50.1 32.5c0 .5-.4.9-.9.9s-.9-.4-.9-.9.4-.9.9-.9c.4-.1.9.3.9.9z"/><path d="m50.1 34.7c0 .5-.4.9-.9.9s-.9-.4-.9-.9.4-.9.9-.9c.4 0 .9.4.9.9z"/><path d="m50.1 37c0 .5-.4.9-.9.9s-.9-.4-.9-.9.4-.9.9-.9c.4-.1.9.4.9.9z"/><path d="m50.1 21.6c0 .5-.4.8-.9.8s-.9-.4-.9-.8c0-.5.4-.8.9-.8s.9.4.9.8z"/><path d="m50.1 43.7c0 .5-.4.9-.9.9s-.9-.4-.9-.9.4-.9.9-.9c.4 0 .9.4.9.9z"/><path d="m50.1 45.9c0 .5-.4.9-.9.9s-.9-.4-.9-.9.4-.9.9-.9c.4 0 .9.4.9.9z"/><path d="m50.1 48c0 .5-.4.9-.9.9s-.9-.4-.9-.9.4-.9.9-.9c.4.1.9.5.9.9z"/><path d="m50.1 41.5c0 .5-.4.9-.9.9s-.9-.4-.9-.9.4-.9.9-.9c.4 0 .9.4.9.9z"/><path d="m50.1 39.2c0 .5-.4.9-.9.9s-.9-.4-.9-.9.4-.9.9-.9c.4 0 .9.4.9.9z"/><path d="m52.1 12.9c0 .3-.4.6-.8.6-.5 0-.9-.3-.9-.6s.4-.6.8-.6c.5-.1.9.2.9.6z"/><path d="m52.1 14.4c0 .4-.4.7-.9.7s-.9-.3-.9-.7.4-.7.9-.7c.5.1.9.3.9.7z"/><path d="m52.2 16.1c0 .4-.4.7-.9.7s-.9-.3-.9-.7.4-.7.9-.7.9.3.9.7z"/><path d="m52.2 17.8c0 .4-.4.8-.9.8s-.9-.3-.9-.8c0-.4.4-.7.9-.7s.9.3.9.7z"/><path d="m51.9 7.9c0 .2-.3.4-.7.4s-.8-.2-.8-.4.3-.4.7-.4c.5 0 .8.2.8.4z"/><path d="m51.9 7c0 .2-.3.3-.7.3s-.7-.2-.7-.3c0-.2.3-.3.7-.3.3 0 .7.1.7.3z"/><path d="m52.3 23.7c0 .5-.4.9-.9.9s-.9-.4-.9-.9.4-.9.9-.9.9.4.9.9z"/><path d="m52.3 25.8c0 .5-.4.9-.9.9s-.9-.4-.9-.9.4-.9.9-.9.9.4.9.9z"/><path d="m52.3 28c0 .5-.4.9-.9.9s-.9-.4-.9-.9.4-.9.9-.9.9.4.9.9z"/><path d="m52.3 32.5c0 .5-.4.9-.9.9s-.9-.4-.9-.9.4-.9.9-.9c.5-.1.9.3.9.9z"/><path d="m52.3 34.7c0 .5-.4.9-.9.9s-.9-.4-.9-.9.4-.9.9-.9.9.4.9.9z"/><path d="m52.3 37c0 .5-.4.9-.9.9s-.9-.4-.9-.9.4-.9.9-.9c.5-.1.9.4.9.9z"/><path d="m52.3 21.6c0 .5-.4.8-.9.8s-.9-.4-.9-.8c0-.5.4-.8.9-.8.4 0 .9.4.9.8z"/><path d="m52.2 19.7c0 .4-.4.8-.9.8s-.9-.4-.9-.8.4-.8.9-.8.9.4.9.8z"/><path d="m52.3 43.7c0 .5-.4.9-.9.9s-.9-.4-.9-.9.4-.9.9-.9.9.4.9.9z"/><path d="m52.3 45.9c0 .5-.4.9-.9.9s-.9-.4-.9-.9.4-.9.9-.9.9.4.9.9z"/><path d="m52.3 48c0 .5-.4.9-.9.9s-.9-.4-.9-.9.4-.9.9-.9.9.4.9.9z"/><path d="m52.3 50.1c0 .5-.4.8-.9.8s-.9-.4-.9-.8c0-.5.4-.8.9-.8s.9.4.9.8z"/><path d="m52.2 52c0 .4-.4.8-.9.8s-.9-.3-.9-.8c0-.4.4-.8.9-.8s.9.4.9.8z"/><path d="m52.2 53.9c0 .4-.4.7-.9.7s-.9-.3-.9-.7.4-.8.9-.8.9.4.9.8z"/><path d="m52.2 55.6c0 .4-.4.7-.9.7s-.9-.3-.9-.7.4-.7.9-.7.9.3.9.7z"/><path d="m52.3 41.5c0 .5-.4.9-.9.9s-.9-.4-.9-.9.4-.9.9-.9.9.4.9.9z"/><path d="m52.3 39.2c0 .5-.4.9-.9.9s-.9-.4-.9-.9.4-.9.9-.9.9.4.9.9z"/><path d="m52.1 57.3c0 .4-.4.7-.9.7s-.9-.3-.9-.7.4-.7.9-.7c.6 0 1 .3.9.7z"/><path d="m54 11.4c0 .3-.3.6-.8.6s-.8-.3-.9-.6c0-.3.3-.6.8-.6.5.1.9.3.9.6z"/><path d="m54.1 12.9c0 .3-.3.6-.8.6s-.9-.3-.9-.6.4-.6.8-.6c.5-.1.9.2.9.6z"/><path d="m54.2 14.4c0 .4-.4.7-.8.7-.5 0-.9-.3-.9-.7s.4-.7.8-.7c.5.1.9.4.9.7z"/><path d="m53.7 7.9c0 .2-.3.4-.7.4s-.8-.2-.8-.4.3-.4.7-.4c.5 0 .8.2.8.4z"/><path d="m53.6 7c0 .2-.3.3-.7.3s-.8-.2-.8-.4.3-.3.7-.3c.5.1.8.2.8.4z"/><path d="m54.5 23.7c0 .5-.4.9-.9.9s-.9-.4-.9-.9.4-.9.9-.9.9.4.9.9z"/><path d="m54.5 25.8c0 .5-.4.9-.9.9s-.9-.4-.9-.9.4-.9.9-.9.9.4.9.9z"/><path d="m54.6 28c0 .5-.4.9-.9.9s-.9-.4-.9-.9.4-.9.9-.9c.4 0 .9.4.9.9z"/><path d="m54.6 32.5c0 .5-.4.9-.9.9s-.9-.4-.9-.9.4-.9.9-.9c.5-.1.9.3.9.9z"/><path d="m54.6 34.7c0 .5-.4.9-.9.9s-.9-.4-.9-.9.4-.9.9-.9.9.4.9.9z"/><path d="m54.6 37c0 .5-.4.9-.9.9s-.9-.4-.9-.9.4-.9.9-.9c.5-.1.9.4.9.9z"/><path d="m54.5 21.6c0 .5-.4.8-.9.8s-.9-.4-.9-.8c0-.5.4-.8.9-.8.4 0 .9.4.9.8z"/><path d="m54.4 19.7c0 .4-.4.8-.9.8s-.9-.4-.9-.8.4-.8.9-.8.9.4.9.8z"/><path d="m54.6 43.7c0 .5-.4.9-.9.9s-.9-.4-.9-.9.4-.9.9-.9.9.4.9.9z"/><path d="m54.5 45.9c0 .5-.4.9-.9.9s-.9-.4-.9-.9.4-.9.9-.9 1 .4.9.9z"/><path d="m54.5 48c0 .5-.4.9-.9.9s-.9-.4-.9-.9.4-.9.9-.9.9.4.9.9z"/><path d="m54.5 50.1c0 .5-.4.8-.9.8s-.9-.4-.9-.8c0-.5.4-.8.9-.8s.9.3.9.8z"/><path d="m54.4 52c0 .4-.4.8-.9.8s-.9-.3-.9-.8c0-.4.4-.8.9-.8s.9.4.9.8z"/><path d="m54.4 53.9c0 .4-.4.7-.9.8-.5 0-.9-.3-.9-.7s.4-.8.9-.8c.5-.1.9.2.9.7z"/><path d="m54.3 55.6c0 .4-.4.7-.9.7s-.9-.3-.9-.7.4-.7.9-.7.9.3.9.7z"/><path d="m54.6 41.5c0 .5-.4.9-.9.9s-.9-.4-.9-.9.4-.9.9-.9.9.4.9.9z"/><path d="m54.6 39.2c0 .5-.4.9-.9.9s-.9-.4-.9-.9.4-.9.9-.9.9.4.9.9z"/><path d="m54 60.3c0 .3-.4.6-.9.6-.4 0-.8-.2-.8-.6 0-.3.4-.6.9-.6s.9.3.8.6z"/><path d="m54.1 58.8c0 .3-.4.6-.9.6s-.8-.3-.8-.6.4-.6.9-.6.9.3.8.6z"/><path d="m54.2 57.3c0 .4-.4.7-.9.7s-.8-.3-.8-.7.4-.7.9-.7.8.3.8.7z"/><path d="m56 11.4c0 .3-.3.6-.8.6s-.8-.3-.9-.6c0-.3.3-.6.8-.6.5.1.9.3.9.6z"/><path d="m56.2 12.9c0 .3-.3.6-.8.6s-.9-.3-.9-.6.3-.6.8-.6c.4 0 .8.2.9.6z"/><path d="m56.3 14.4c0 .4-.3.7-.8.7s-.9-.3-.9-.7.3-.7.8-.7c.4.1.9.4.9.7z"/><path d="m56.4 16.1c0 .4-.3.7-.8.7s-.9-.3-.9-.7.4-.7.8-.7c.5 0 .9.3.9.7z"/><path d="m56.5 17.9c0 .4-.4.8-.9.8s-.9-.4-.9-.8.4-.7.9-.7c.5-.1.9.2.9.7z"/><path d="m55.6 7.9c0 .2-.3.4-.7.4s-.8-.2-.8-.4.3-.4.7-.4.7.2.8.4z"/><path d="m55.4 7c0 .2-.3.3-.7.3s-.8-.2-.8-.4.3-.3.7-.3c.4.1.8.2.8.4z"/><path d="m56.7 23.7c0 .5-.4.9-.9.9s-.9-.4-.9-.9.4-.9.9-.9.9.4.9.9z"/><path d="m56.8 25.8c0 .5-.4.9-.9.9s-.9-.4-.9-.9.4-.9.9-.9c.4 0 .9.4.9.9z"/><path d="m56.8 28c0 .5-.4.9-.9.9s-.9-.4-.9-.9.4-.9.9-.9.9.4.9.9z"/><path d="m56.9 32.5c0 .5-.4.9-.9.9s-.9-.4-.9-.9.4-.9.9-.9c.4-.1.9.4.9.9z"/><path d="m56.9 34.7c0 .5-.4.9-.9.9s-.9-.4-.9-.9.4-.9.9-.9.9.4.9.9z"/><path d="m56.9 37c0 .5-.4.9-.9.9s-.9-.4-.9-.9.4-.9.9-.9c.5-.1.9.4.9.9z"/><path d="m56.7 21.6c0 .5-.4.8-.9.8s-.9-.4-.9-.9.4-.8.9-.8c.4.1.9.5.9.9z"/><path d="m56.6 19.7c0 .4-.4.8-.9.8s-.9-.4-.9-.8.4-.8.9-.8c.4 0 .9.4.9.8z"/><path d="m56.8 43.7c0 .5-.4.9-.9.9s-.9-.4-.9-.9.4-.9.9-.9.9.4.9.9z"/><path d="m56.8 45.9c0 .5-.4.9-.9.9s-.9-.4-.9-.9.4-.9.9-.9.9.4.9.9z"/><path d="m56.7 48c0 .5-.4.9-.9.9s-.9-.4-.9-.9.4-.9.9-.9.9.4.9.9z"/><path d="m56.7 50.1c0 .5-.4.8-.9.8s-.9-.4-.9-.8c0-.5.4-.8.9-.9.5 0 .9.4.9.9z"/><path d="m56.6 52c0 .4-.4.8-.9.8s-.9-.3-.9-.8c0-.4.4-.8.9-.8s.9.4.9.8z"/><path d="m56.5 53.8c0 .4-.4.8-.9.8s-.9-.3-.9-.7.4-.8.9-.8.9.3.9.7z"/><path d="m56.4 55.6c0 .4-.4.7-.9.7s-.9-.3-.8-.7c0-.4.4-.7.9-.7.4 0 .8.3.8.7z"/><path d="m56.8 41.5c0 .5-.4.9-.9.9s-.9-.4-.9-.9.4-.9.9-.9 1 .4.9.9z"/><path d="m56.9 39.2c0 .5-.4.9-.9.9s-.9-.4-.9-.9.4-.9.9-.9.9.4.9.9z"/><path d="m56 60.3c0 .3-.4.6-.9.6-.4 0-.8-.2-.8-.6 0-.3.4-.6.9-.6s.9.3.8.6z"/><path d="m56.2 58.8c0 .3-.4.6-.9.6s-.8-.3-.8-.6.4-.6.9-.6c.4 0 .8.3.8.6z"/><path d="m56.3 57.3c0 .4-.4.7-.9.7s-.8-.3-.8-.7.4-.7.9-.7c.4 0 .8.3.8.7z"/><path d="m58 11.4c0 .3-.3.6-.8.6s-.9-.3-.9-.6.3-.6.8-.6c.5.1.9.3.9.6z"/><path d="m58.2 12.9c0 .3-.3.6-.8.6s-.9-.3-.9-.6.3-.6.8-.6c.4 0 .8.2.9.6z"/><path d="m58.3 14.5c0 .4-.3.7-.8.7s-.9-.3-.9-.7.3-.7.8-.7.9.3.9.7z"/><path d="m58.5 16.1c0 .4-.3.7-.8.7s-.9-.3-.9-.7.3-.7.8-.7c.4 0 .9.3.9.7z"/><path d="m58.6 17.9c0 .4-.3.8-.8.8s-.9-.4-.9-.8.4-.7.8-.7c.5-.1.9.3.9.7z"/><path d="m57.4 7.9c.1.2-.3.4-.7.4s-.8-.2-.8-.4.3-.4.7-.4.7.2.8.4z"/><path d="m57.2 7c.1.2-.2.3-.6.3s-.8-.2-.8-.4.2-.3.6-.3c.3.1.7.2.8.4z"/><path d="m58.9 23.7c0 .5-.4.9-.9.9s-.9-.4-.9-.9.4-.9.9-.9.9.4.9.9z"/><path d="m59.1 28c0 .5-.4.9-.9.9s-.9-.4-.9-.9.4-.9.9-.9c.4 0 .8.4.9.9z"/><path d="m59.1 32.5c0 .5-.4.9-.9.9s-.9-.4-.9-.9.4-.9.9-.9c.5-.1.9.4.9.9z"/><path d="m59.1 34.7c0 .5-.4.9-.9.9s-.9-.4-.9-.9.4-.9.9-.9.9.4.9.9z"/><path d="m59.1 37c0 .5-.4.9-.9.9s-.9-.4-.9-.9.4-.9.9-.9c.5-.1.9.4.9.9z"/><path d="m58.9 21.7c0 .5-.4.8-.9.8s-.9-.4-.9-.9.4-.8.9-.8c.4 0 .8.4.9.9z"/><path d="m58.7 19.7c0 .4-.4.8-.9.8s-.9-.4-.9-.8.4-.8.9-.8.9.4.9.8z"/><path d="m59.1 43.7c0 .5-.4.9-.9.9s-.9-.4-.9-.9.4-.9.9-.9.9.4.9.9z"/><path d="m59 45.9c0 .5-.4.9-.9.9s-.9-.4-.9-.9.4-.9.9-.9.9.4.9.9z"/><path d="m58.9 48c0 .5-.4.9-.9.9s-.9-.4-.9-.9.4-.9.9-.9c.6 0 1 .4.9.9z"/><path d="m58.9 50.1c0 .5-.4.8-.9.8s-.9-.4-.9-.8c0-.5.4-.8.9-.9.5 0 .9.4.9.9z"/><path d="m58.7 52c0 .4-.4.8-.9.8s-.9-.3-.9-.8c0-.4.4-.8.9-.8.6 0 1 .3.9.8z"/><path d="m58.6 53.8c0 .4-.4.8-.9.8s-.9-.3-.8-.7c0-.4.4-.8.9-.8s.9.3.8.7z"/><path d="m58.5 55.6c0 .4-.4.7-.9.7s-.8-.3-.8-.7.4-.7.9-.7.8.3.8.7z"/><path d="m59.1 41.5c0 .5-.4.9-.9.9s-.9-.4-.9-.9.4-.9.9-.9c.5-.1.9.4.9.9z"/><path d="m59.1 39.2c0 .5-.4.9-.9.9s-.9-.4-.9-.9.4-.9.9-.9.9.4.9.9z"/><path d="m58.2 58.8c0 .3-.4.6-.9.6s-.8-.3-.8-.6.4-.6.9-.6.8.3.8.6z"/><path d="m58.3 57.3c0 .4-.4.7-.9.7s-.8-.3-.8-.7.4-.7.9-.7.9.3.8.7z"/><path d="m60.2 12.9c0 .3-.3.6-.8.6s-.9-.3-.9-.6.3-.6.8-.6c.4 0 .8.3.9.6z"/><path d="m60.4 14.5c0 .4-.3.7-.8.7s-.9-.3-.9-.7.3-.7.8-.7c.4 0 .8.3.9.7z"/><path d="m60.6 16.1c0 .4-.3.7-.8.7s-.9-.3-.9-.7.3-.7.8-.7c.4 0 .8.3.9.7z"/><path d="m60.7 17.9c0 .4-.3.8-.8.8s-.9-.4-.9-.8.3-.7.8-.7.9.3.9.7z"/><path d="m61.1 23.7c0 .5-.4.9-.9.9s-.9-.4-.9-.9.4-.9.9-.9c.5.1.9.5.9.9z"/><path d="m61.3 28c0 .5-.4.9-.9.9s-.9-.4-.9-.9.4-.9.9-.9c.4 0 .9.4.9.9z"/><path d="m61.3 30.3c0 .5-.4.9-.9.9s-.9-.4-.9-.9.4-.9.9-.9c.5-.1.9.3.9.9z"/><path d="m61.4 32.5c0 .5-.4.9-.9.9s-.9-.4-.9-.9.4-.9.9-.9c.4-.1.9.4.9.9z"/><path d="m61.4 34.7c0 .5-.4.9-.9.9s-.9-.4-.9-.9.4-.9.9-.9.9.4.9.9z"/><path d="m61.4 37c0 .5-.4.9-.9.9s-.9-.4-.9-.9.4-.9.9-.9c.5-.1.9.4.9.9z"/><path d="m61 21.7c0 .5-.4.8-.9.8s-.9-.4-.9-.9.4-.8.9-.8c.5.1.9.4.9.9z"/><path d="m60.9 19.8c0 .4-.3.8-.8.8s-.9-.4-.9-.8.3-.8.8-.8c.4 0 .9.3.9.8z"/><path d="m61.3 43.7c0 .5-.4.9-.9.9s-.9-.4-.9-.9.4-.9.9-.9.9.4.9.9z"/><path d="m61.2 45.8c0 .5-.4.9-.9.9s-.9-.4-.9-.9.4-.9.9-.9.9.4.9.9z"/><path d="m61.1 48c0 .5-.4.9-.9.9s-.9-.4-.9-.9.4-.9.9-.9c.6 0 1 .4.9.9z"/><path d="m61 50c0 .5-.5.8-1 .8s-.9-.3-.9-.8.4-.8.9-.9c.7.1 1.1.5 1 .9z"/><path d="m60.9 52c0 .4-.5.8-.9.8-.5 0-.9-.3-.8-.8 0-.4.5-.8.9-.8.5 0 .8.3.8.8z"/><path d="m60.7 53.8c0 .4-.5.8-.9.8-.5 0-.8-.3-.8-.7s.5-.8.9-.8c.5-.1.9.3.8.7z"/><path d="m60.6 55.6c0 .4-.5.7-.9.7-.5 0-.8-.3-.8-.7s.5-.7.9-.7c.5-.1.8.3.8.7z"/><path d="m61.3 41.5c0 .5-.4.9-.9.9s-.9-.4-.9-.9.4-.9.9-.9c.5-.1.9.3.9.9z"/><path d="m61.4 39.2c0 .5-.4.9-.9.9s-.9-.4-.9-.9.4-.9.9-.9.9.4.9.9z"/><path d="m60.4 57.2c0 .4-.5.7-.9.7-.5 0-.8-.3-.8-.7s.5-.7.9-.7c.5.1.8.4.8.7z"/><path d="m62.2 12.9c.1.3-.3.6-.7.6-.5 0-.9-.3-.9-.7-.1-.3.3-.6.7-.6.4.1.8.4.9.7z"/><path d="m62.4 14.5c.1.4-.3.7-.8.7s-.9-.3-.9-.7.3-.7.8-.7.9.3.9.7z"/><path d="m62.6 16.2c0 .4-.3.7-.8.7s-.9-.3-.9-.7.3-.7.8-.7.9.3.9.7z"/><path d="m62.9 17.9c0 .4-.3.8-.8.8s-.9-.4-.9-.8.3-.7.8-.7c.4 0 .8.3.9.7z"/><path d="m63.3 23.8c0 .5-.4.9-.9.9s-.9-.4-.9-.9.4-.9.9-.9.9.4.9.9z"/><path d="m63.4 25.9c0 .5-.4.9-.9.9s-.9-.4-.9-.9.4-.9.9-.9.9.4.9.9z"/><path d="m63.5 28.1c0 .5-.4.9-.9.9s-.9-.4-.9-.9.4-.9.9-.9c.5-.1.9.4.9.9z"/><path d="m63.6 30.3c0 .5-.4.9-.9.9s-.9-.4-.9-.9.4-.9.9-.9c.4-.1.8.4.9.9z"/><path d="m63.6 32.5c0 .5-.4.9-.9.9s-.9-.4-.9-.9.4-.9.9-.9.9.4.9.9z"/><path d="m63.6 34.7c0 .5-.4.9-.9.9s-.9-.4-.9-.9.4-.9.9-.9.9.4.9.9z"/><path d="m63.6 37c0 .5-.4.9-.9.9s-.9-.4-.9-.9.4-.9.9-.9c.5-.1.9.4.9.9z"/><path d="m63.2 21.7c0 .5-.3.8-.8.8s-.9-.4-1-.9c0-.5.3-.8.8-.8.5.1 1 .5 1 .9z"/><path d="m63 19.8c0 .4-.3.8-.8.8s-.9-.4-1-.8c0-.4.3-.8.8-.8.6 0 1 .4 1 .8z"/><path d="m63.5 43.7c0 .5-.4.9-.9.9s-.9-.4-.9-.9.4-.9.9-.9c.5-.1.9.3.9.9z"/><path d="m63.4 45.8c0 .5-.4.9-.9.9s-.9-.4-.9-.9.4-.9.9-.9.9.4.9.9z"/><path d="m63.3 47.9c0 .5-.5.9-.9.9-.5 0-.9-.4-.9-.9s.4-.9.9-.9c.6.1.9.5.9.9z"/><path d="m63.2 50c0 .5-.5.8-1 .8s-.9-.3-.8-.8c0-.5.5-.8 1-.9.5.1.8.4.8.9z"/><path d="m63 51.9c0 .4-.5.8-1 .8s-.9-.3-.8-.8c0-.4.5-.8 1-.8s.9.4.8.8z"/><path d="m62.9 53.8c0 .4-.5.8-1 .8s-.8-.3-.8-.7.5-.8.9-.8c.5-.1.9.3.9.7z"/><path d="m63.6 41.4c0 .5-.4.9-.9.9s-.9-.4-.9-.9.4-.9.9-.9.9.4.9.9z"/><path d="m63.6 39.2c0 .5-.4.9-.9.9s-.9-.4-.9-.9.4-.9.9-.9.9.4.9.9z"/><path d="m64.5 14.5c.1.4-.3.7-.7.7-.5 0-.9-.3-.9-.7-.1-.4.3-.7.7-.7s.8.3.9.7z"/><path d="m64.7 16.2c.1.4-.3.7-.8.7s-.9-.3-1-.7.3-.7.8-.7 1 .3 1 .7z"/><path d="m64.9 18c.1.4-.3.8-.8.8s-.9-.4-1-.8c0-.4.3-.7.8-.7.6-.1 1 .3 1 .7z"/><path d="m65.5 23.8c0 .5-.4.9-.8.9-.5 0-.9-.4-.9-.9s.4-.9.8-.9.9.4.9.9z"/><path d="m65.6 25.9c0 .5-.4.9-.9.9s-.9-.4-.9-.9.4-.9.9-.9.9.4.9.9z"/><path d="m65.7 28.1c0 .5-.4.9-.9.9s-.9-.4-.9-.9.4-.9.9-.9.9.4.9.9z"/><path d="m65.8 30.3c0 .5-.4.9-.9.9s-.9-.4-.9-.9.4-.9.9-.9c.4 0 .8.4.9.9z"/><path d="m65.8 32.5c0 .5-.4.9-.9.9s-.9-.4-.9-.9.4-.9.9-.9.9.4.9.9z"/><path d="m65.8 34.7c0 .5-.4.9-.9.9s-.9-.4-.9-.9.4-.9.9-.9.9.4.9.9z"/><path d="m65.8 37c0 .5-.4.9-.9.9s-.9-.4-.9-.9.4-.9.9-.9c.5-.1.9.4.9.9z"/><path d="m65.3 21.8c0 .5-.3.8-.8.8s-.9-.4-1-.9c0-.5.3-.8.8-.8.6 0 1 .4 1 .9z"/><path d="m65.2 19.8c0 .4-.3.8-.8.8s-.9-.4-1-.8c0-.4.3-.8.8-.8s.9.4 1 .8z"/><path d="m65.7 43.6c0 .5-.4.9-.9.9s-.9-.4-.9-.9.4-.9.9-.9.9.4.9.9z"/><path d="m65.6 45.8c0 .5-.4.9-.9.9s-.9-.4-.9-.9.4-.9.9-.9.9.4.9.9z"/><path d="m64.9 53.7c-.1.4-.5.8-1 .8s-.8-.3-.8-.7.5-.8 1-.8.9.3.8.7z"/><path d="m64.7 55.5c-.1.4-.5.7-1 .7s-.8-.3-.8-.7c.1-.4.5-.7 1-.7s.9.3.8.7z"/><path d="m65.8 41.4c0 .5-.4.9-.9.9s-.9-.4-.9-.9.4-.9.9-.9.9.4.9.9z"/><path d="m65.8 39.2c0 .5-.4.9-.9.9s-.9-.4-.9-.9.4-.9.9-.9.9.4.9.9z"/><path d="m64.5 57.2c-.1.4-.5.7-.9.7-.5 0-.8-.3-.7-.7s.5-.7.9-.7.7.3.7.7z"/><path d="m66.2 13c.1.4-.2.6-.7.6s-.9-.3-1-.7.2-.6.7-.6.9.3 1 .7z"/><path d="m66.5 14.6c.1.4-.3.7-.7.7-.5 0-.9-.3-1-.7s.3-.7.7-.7c.5 0 .9.3 1 .7z"/><path d="m66.8 16.2c.1.4-.3.7-.7.7-.5 0-.9-.3-1-.7s.3-.7.7-.7c.5 0 .9.3 1 .7z"/><path d="m67 18c.1.4-.3.8-.8.8s-.9-.4-1-.8.3-.7.8-.7 1 .3 1 .7z"/><path d="m64.2 7c.1.2-.1.4-.5.4s-.8-.2-.9-.4.1-.3.5-.3.8.1.9.3z"/><path d="m67.6 23.9c0 .5-.3.9-.8.9s-.9-.4-.9-.9.3-.9.8-.8c.5-.1.9.3.9.8z"/><path d="m67.9 30.3c0 .5-.4.9-.9.9s-.9-.4-.9-.9.4-.9.9-.9.9.4.9.9z"/><path d="m68 32.5c0 .5-.4.9-.9.9s-.9-.4-.9-.9.4-.9.9-.9.9.4.9.9z"/><path d="m68 34.7c0 .5-.4.9-.9.9s-.9-.4-.9-.9.4-.9.9-.9.9.4.9.9z"/><path d="m68 37c0 .5-.4.9-.9.9s-.9-.4-.9-.9.4-.9.9-.9c.5-.1.9.4.9.9z"/><path d="m67.5 21.8c0 .5-.3.8-.8.8s-.9-.4-1-.9c0-.5.3-.8.8-.8.5.1.9.5 1 .9z"/><path d="m67.3 19.9c.1.4-.3.8-.8.8s-.9-.4-1-.8c0-.4.3-.8.8-.8s.9.3 1 .8z"/><path d="m67.9 43.6c0 .5-.4.9-.9.9s-.9-.4-.9-.9.4-.9.9-.9.9.4.9.9z"/><path d="m68 39.2c0 .5-.4.9-.9.9s-.9-.4-.9-.9.4-.9.9-.9.9.4.9.9z"/><path d="m66.9 9c.1.3-.2.5-.6.5s-.8-.2-.9-.5.2-.5.6-.5.8.2.9.5z"/><path d="m67.3 10.2c.1.3-.2.5-.6.5s-.9-.3-1-.6.2-.5.6-.5c.5.1.9.3 1 .6z"/><path d="m68.1 13c.1.4-.2.6-.7.6s-.9-.3-1-.7.2-.6.7-.6c.5.1.9.4 1 .7z"/><path d="m68.5 14.6c.1.4-.2.7-.7.7s-.9-.3-1-.7.2-.7.7-.7.9.3 1 .7z"/><path d="m68.8 16.3c.1.4-.3.7-.7.7-.5 0-.9-.3-1-.7s.3-.7.7-.7c.5 0 .9.3 1 .7z"/><path d="m69.1 18.1c.1.4-.3.8-.7.7-.5 0-.9-.4-1-.8s.3-.7.7-.7c.5 0 .9.3 1 .8z"/><path d="m65.9 7c.1.2-.1.4-.5.4s-.8-.2-.9-.4.1-.3.5-.3.8.2.9.3z"/><path d="m69.7 23.9c0 .5-.3.9-.8.9s-.9-.4-.9-.9.3-.9.8-.8c.5-.1.9.3.9.8z"/><path d="m69.9 26c0 .5-.3.9-.8.9s-.9-.4-.9-.9.3-.9.8-.9c.4 0 .9.4.9.9z"/><path d="m70 28.1c0 .5-.4.9-.9.9s-.9-.4-.9-.9.4-.9.8-.9c.6 0 1 .4 1 .9z"/><path d="m70.1 30.3c0 .5-.4.9-.9.9s-.9-.4-.9-.9.4-.9.9-.9.9.4.9.9z"/><path d="m70.2 32.5c0 .5-.4.9-.9.9s-.9-.4-.9-.9.4-.9.9-.9c.4 0 .9.4.9.9z"/><path d="m70.2 34.7c0 .5-.4.9-.9.9s-.9-.4-.9-.9.4-.9.9-.9.9.4.9.9z"/><path d="m70.2 37c0 .5-.4.9-.9.9s-.9-.4-.9-.9.4-.9.9-.9c.5-.1.9.4.9.9z"/><path d="m69.6 21.9c0 .5-.3.8-.8.8s-.9-.4-1-.9c0-.5.3-.8.8-.8s.9.4 1 .9z"/><path d="m69.3 19.9c.1.4-.3.8-.8.8s-.9-.4-1-.8.3-.8.8-.8 1 .4 1 .8z"/><path d="m70.2 39.2c0 .5-.4.9-.9.9s-.9-.4-.9-.9.4-.9.9-.9.9.4.9.9z"/><path d="m68.7 9c.1.3-.1.5-.6.5-.4 0-.9-.2-1-.5s.1-.5.6-.5c.5.1.9.3 1 .5z"/><path d="m69.7 11.6c.1.3-.2.6-.6.6s-.9-.3-1-.6c-.1-.4.2-.6.6-.6s.9.3 1 .6z"/><path d="m70.1 13c.1.4-.2.6-.7.6-.4 0-.9-.3-1-.7s.2-.6.6-.6c.5.1 1 .4 1.1.7z"/><path d="m70.4 14.6c.1.4-.2.7-.7.7s-.9-.3-1-.7.2-.7.7-.7 1 .4 1 .7z"/><path d="m70.8 16.3c.1.4-.2.7-.7.7s-.9-.4-1-.8.2-.7.7-.7c.5.1.9.4 1 .8z"/><path d="m71.1 18.1c.1.4-.3.8-.7.7-.5 0-.9-.4-1-.8s.3-.7.7-.7c.5 0 .9.4 1 .8z"/><path d="m67.7 7.1c.1.2-.1.4-.5.4s-.8-.2-.9-.4.1-.3.5-.3c.3-.1.7.1.9.3z"/><path d="m71.8 24c0 .5-.3.9-.8.8-.5 0-.9-.4-.9-.9s.3-.9.8-.8c.5 0 .9.4.9.9z"/><path d="m72 26c0 .5-.3.9-.8.9s-.9-.4-.9-.9.3-.9.8-.9c.4.1.9.5.9.9z"/><path d="m72.1 28.2c0 .5-.3.9-.8.9s-.9-.4-.9-.9.3-.9.8-.9.9.4.9.9z"/><path d="m72.2 30.3c0 .5-.4.9-.9.9s-.9-.4-.9-.9.4-.9.8-.9c.6 0 1 .4 1 .9z"/><path d="m72.3 32.5c0 .5-.4.9-.9.9s-.9-.4-.9-.9.4-.9.9-.9.9.4.9.9z"/><path d="m72.3 34.7c0 .5-.4.9-.9.9s-.9-.4-.9-.9.4-.9.9-.9.9.4.9.9z"/><path d="m71.6 21.9c.1.5-.3.8-.8.8s-.9-.4-.9-.9.3-.8.8-.8c.4.1.9.5.9.9z"/><path d="m71.4 20c.1.4-.3.8-.7.8-.5 0-.9-.4-1-.8s.3-.8.7-.8c.5 0 .9.3 1 .8z"/><path d="m70.6 9c.1.3-.1.5-.5.5s-.9-.2-1-.5.1-.5.5-.5c.4.1.8.3 1 .5z"/><path d="m71.6 11.6c.1.3-.2.6-.6.6s-.9-.3-1-.6.2-.6.6-.6.8.3 1 .6z"/><path d="m72 13.1c.1.4-.2.6-.6.6s-.9-.3-1-.7.2-.6.6-.6c.5 0 .9.3 1 .7z"/><path d="m72.4 14.7c.1.4-.2.7-.7.7s-.9-.3-1-.7c0-.4.3-.7.7-.7.5 0 .9.3 1 .7z"/><path d="m72.8 16.4c.1.4-.2.7-.7.7s-.9-.4-1-.8.2-.7.7-.7.9.4 1 .8z"/><path d="m73.1 18.2c.1.4-.2.8-.7.7-.5 0-.9-.4-1-.8s.2-.7.7-.7.9.3 1 .8z"/><path d="m73.9 24c0 .5-.3.9-.8.8-.5 0-.9-.4-.9-.9s.3-.8.8-.8c.4.1.8.4.9.9z"/><path d="m74.1 26.1c0 .5-.3.9-.8.9s-.9-.4-.9-.9.3-.9.8-.9c.4 0 .8.4.9.9z"/><path d="m74.2 28.2c0 .5-.3.9-.8.9s-.9-.4-.9-.9.3-.9.8-.9.9.4.9.9z"/><path d="m74.3 30.4c0 .5-.4.9-.8.9-.5 0-.9-.4-.9-.9s.4-.9.8-.9c.5 0 .9.4.9.9z"/><path d="m74.4 32.6c0 .5-.4.9-.9.9s-.9-.4-.9-.9.4-.9.8-.9c.6-.1 1 .4 1 .9z"/><path d="m74.4 34.8c0 .5-.4.9-.9.9s-.9-.4-.9-.9.4-.9.9-.9c.5-.1.9.3.9.9z"/><path d="m73.7 22c.1.5-.3.8-.7.8-.5 0-.9-.4-.9-.9-.1-.5.3-.8.7-.8.4.1.8.4.9.9z"/><path d="m73.4 20c.1.4-.3.8-.7.8-.5 0-.9-.4-1-.8s.3-.8.7-.8c.5 0 .9.4 1 .8z"/><path d="m72.9 10.4c.1.3-.1.5-.5.5s-.8-.3-1-.6c-.1-.3.1-.5.5-.5s.8.3 1 .6z"/><path d="m73.4 11.7c.1.3-.1.6-.5.5-.4 0-.9-.3-1-.6s.2-.6.6-.5c.3 0 .8.3.9.6z"/><path d="m73.8 13.2c.1.4-.1.6-.6.6-.4 0-.9-.3-1-.7s.2-.6.6-.6c.5 0 .9.3 1 .7z"/><path d="m74.3 14.8c.1.4-.2.7-.6.6-.4 0-.9-.4-1-.7-.1-.4.2-.7.6-.6.5 0 .9.3 1 .7z"/><path d="m74.7 16.5c.1.4-.2.7-.6.7s-.9-.4-1-.8.2-.7.6-.7c.5 0 .9.4 1 .8z"/><path d="m75.1 18.3c.1.4-.2.7-.7.7-.4 0-.9-.4-.9-.8-.1-.4.2-.8.7-.7.4 0 .8.3.9.8z"/><path d="m75.9 24.1c0 .5-.3.8-.7.8-.5 0-.9-.4-.9-.9s.3-.8.7-.8.9.4.9.9z"/><path d="m76.1 26.2c0 .5-.3.9-.8.9s-.9-.4-.9-.9.3-.9.8-.8c.4-.1.8.3.9.8z"/><path d="m76.2 28.3c0 .5-.3.9-.8.9s-.9-.4-.9-.9.3-.9.8-.9.9.4.9.9z"/><path d="m76.3 30.4c0 .5-.3.9-.8.9s-.9-.4-.9-.9.3-.9.8-.9.9.4.9.9z"/><path d="m76.4 32.6c0 .5-.3.9-.8.9s-.9-.4-.9-.9.4-.9.8-.9c.5 0 .9.4.9.9z"/><path d="m76.5 34.8c0 .5-.4.9-.8.9-.5 0-.8-.4-.8-.9s.4-.9.8-.9c.4-.1.7.4.8.9z"/><path d="m76.5 37c0 .5-.4.9-.8.9-.5 0-.8-.4-.8-.9s.4-.9.8-.9c.4-.1.8.3.8.9z"/><path d="m75.7 22.1c.1.5-.3.8-.7.8-.5 0-.9-.4-.9-.9-.1-.5.3-.8.7-.8s.8.4.9.9z"/><path d="m75.4 20.1c.1.4-.2.8-.7.8s-.9-.4-.9-.8c-.1-.4.3-.8.7-.8s.8.4.9.8z"/><path d="m76.4 39.1c0 .5-.4.9-.8.9-.5 0-.8-.4-.8-.9s.4-.9.9-.9c.4 0 .7.4.7.9z"/><path d="m74.6 10.5c.1.3-.1.5-.5.5s-.8-.3-.9-.6.1-.5.5-.5c.3.1.8.3.9.6z"/><path d="m75.1 11.9c.1.3-.1.6-.5.5-.4 0-.8-.3-.9-.7-.1-.3.1-.6.5-.5s.8.3.9.7z"/><path d="m75.6 13.3c.1.4-.1.6-.5.6s-.8-.4-.9-.7c-.1-.4.1-.6.5-.6.4.1.8.4.9.7z"/><path d="m76.1 14.9c.1.4-.2.7-.6.6-.4 0-.8-.4-.9-.8s.2-.6.6-.6c.4.1.8.5.9.8z"/><path d="m76.5 16.6c.1.4-.2.7-.6.7s-.8-.4-.9-.8.2-.7.6-.7c.4.1.8.4.9.8z"/><path d="m76.9 18.4c.1.4-.2.7-.6.7s-.9-.4-.9-.8c-.1-.4.2-.7.6-.7s.9.4.9.8z"/><path d="m77.9 24.2c0 .5-.3.8-.7.8s-.8-.4-.9-.9c0-.5.3-.8.7-.8s.8.4.9.9z"/><path d="m78 26.2c0 .5-.3.9-.7.8-.4 0-.8-.4-.9-.9 0-.5.3-.9.7-.8.5 0 .9.4.9.9z"/><path d="m78.2 28.3c0 .5-.3.9-.8.9-.4 0-.8-.4-.9-.9 0-.5.3-.9.8-.9s.9.4.9.9z"/><path d="m78.3 30.4c0 .5-.3.9-.8.9-.4 0-.8-.4-.8-.9s.3-.9.8-.9c.4 0 .8.5.8.9z"/><path d="m78.4 32.6c0 .5-.3.9-.8.9-.4 0-.8-.4-.8-.9s.3-.9.8-.9c.4 0 .7.4.8.9z"/><path d="m78.4 34.8c0 .5-.4.9-.8.9s-.8-.4-.8-.9.4-.9.8-.9.8.4.8.9z"/><path d="m78.4 36.9c0 .5-.4.9-.8.9s-.8-.4-.8-.9.4-.9.8-.9.8.4.8.9z"/><path d="m77.6 22.2c.1.5-.3.8-.7.8-.5 0-.9-.4-.9-.9-.1-.5.2-.8.7-.8.4 0 .9.4.9.9z"/><path d="m77.3 20.2c.1.4-.2.8-.7.8-.4 0-.9-.4-.9-.8-.1-.4.2-.8.7-.7.4-.1.8.3.9.7z"/><path d="m78.2 43.4c0 .5-.4.9-.9.9-.4 0-.8-.4-.8-.9s.4-.9.9-.9.8.4.8.9z"/><path d="m78.3 41.3c0 .5-.4.9-.8.9s-.8-.4-.8-.9.4-.9.8-.9c.5 0 .8.4.8.9z"/><path d="m78.4 39.1c0 .5-.4.9-.8.9s-.8-.4-.8-.9.4-.9.8-.9.8.4.8.9z"/><path d="m76.3 10.7c.1.3-.1.5-.5.5s-.8-.3-.9-.6.1-.5.5-.5c.3 0 .8.3.9.6z"/><path d="m76.9 12c.1.3-.1.6-.5.5-.4 0-.8-.3-.9-.7-.1-.3.1-.6.5-.5.3.1.7.4.9.7z"/><path d="m77.4 13.5c.1.4-.1.6-.5.6s-.8-.4-.9-.7c-.1-.4.1-.6.5-.6s.8.4.9.7z"/><path d="m77.9 15.1c.1.4-.1.7-.5.6-.4 0-.8-.4-.9-.8s.1-.6.5-.6c.4.1.8.4.9.8z"/><path d="m78.4 16.8c.1.4-.2.7-.6.7s-.8-.4-.9-.8c-.1-.5.1-.7.5-.7s.9.4 1 .8z"/><path d="m78.8 18.5c.1.4-.2.7-.6.7s-.8-.4-.9-.8.2-.7.6-.7.8.4.9.8z"/><path d="m79.8 24.2c0 .5-.3.8-.7.8s-.8-.4-.9-.9.3-.8.7-.8c.4.1.8.5.9.9z"/><path d="m80 26.3c0 .5-.3.9-.7.8-.4 0-.8-.4-.9-.9 0-.5.3-.9.7-.8.4 0 .8.4.9.9z"/><path d="m80.1 28.4c0 .5-.3.9-.7.9s-.8-.4-.8-.9.3-.9.7-.9.8.4.8.9z"/><path d="m80.2 30.5c0 .5-.3.9-.8.9-.4 0-.8-.4-.8-.9s.3-.9.8-.9c.4 0 .8.4.8.9z"/><path d="m80.3 32.6c0 .5-.3.9-.8.9-.4 0-.8-.4-.8-.9s.3-.9.8-.9c.4 0 .7.4.8.9z"/><path d="m80.3 34.8c0 .5-.3.9-.8.9-.4 0-.8-.4-.8-.9s.3-.9.8-.9c.4 0 .8.4.8.9z"/><path d="m80.3 36.9c0 .5-.4.9-.8.9s-.8-.4-.8-.9.4-.9.8-.9.8.4.8.9z"/><path d="m79.6 22.2c.1.4-.2.8-.7.8-.4 0-.8-.4-.9-.9-.1-.4.2-.8.7-.8.4.1.8.5.9.9z"/><path d="m79.2 20.3c.1.4-.2.8-.6.7-.4 0-.9-.4-.9-.8-.1-.4.2-.8.6-.7s.8.4.9.8z"/><path d="m80 45.4c0 .5-.4.9-.9.9-.4 0-.8-.4-.7-.8 0-.5.4-.9.9-.9.4 0 .7.4.7.8z"/><path d="m80.3 39.1c0 .5-.4.9-.8.9s-.8-.4-.8-.9.4-.9.8-.9.8.4.8.9z"/><path d="m77.4 9.6c.1.3 0 .5-.4.5s-.8-.3-1-.6c-.1-.3 0-.5.4-.5s.8.3 1 .6z"/><path d="m78 10.8c.1.3-.1.5-.5.5s-.8-.3-1-.6c-.1-.3.1-.5.5-.5s.9.3 1 .6z"/><path d="m78.6 12.2c.1.3-.1.6-.5.5-.4 0-.8-.3-.9-.7-.1-.3.1-.6.5-.5.3.1.8.4.9.7z"/><path d="m79.1 13.7c.1.4-.1.6-.5.6s-.8-.4-.9-.7c-.1-.4.1-.6.5-.6s.8.3.9.7z"/><path d="m79.7 15.2c.1.4-.1.7-.5.6-.4 0-.8-.4-.9-.8s.1-.6.5-.6c.3.1.8.5.9.8z"/><path d="m80.2 16.9c.1.4-.1.7-.5.7s-.8-.4-.9-.8.1-.7.5-.6c.3 0 .7.3.9.7z"/><path d="m80.6 18.7c.1.4-.2.7-.6.7s-.8-.4-.9-.8.2-.7.6-.7.8.3.9.8z"/><path d="m81.7 24.3c0 .5-.3.8-.7.8s-.8-.4-.9-.9c0-.5.3-.8.7-.8.4.1.8.5.9.9z"/><path d="m81.8 26.4c0 .5-.3.8-.7.8s-.8-.4-.8-.9.3-.8.7-.8.8.4.8.9z"/><path d="m81.9 28.4c0 .5-.3.9-.7.9s-.8-.4-.8-.9.3-.9.7-.8c.5-.1.8.3.8.8z"/><path d="m82 30.5c0 .5-.3.9-.7.9s-.8-.4-.8-.9.3-.9.7-.9c.5 0 .8.4.8.9z"/><path d="m82.1 32.7c0 .5-.3.9-.7.9s-.8-.4-.8-.9.3-.9.7-.9.8.4.8.9z"/><path d="m82.1 34.8c0 .5-.3.9-.8.9-.4 0-.8-.4-.8-.9s.3-.9.8-.9.8.4.8.9z"/><path d="m82.1 36.9c0 .5-.3.9-.8.9-.4 0-.8-.4-.8-.9s.4-.9.8-.9c.5 0 .8.4.8.9z"/><path d="m81.4 22.3c.1.4-.2.8-.7.8-.4 0-.8-.4-.9-.9-.1-.4.2-.8.6-.8.5.1.9.5 1 .9z"/><path d="m81 20.5c.1.4-.2.8-.6.7-.4 0-.8-.4-.9-.8s.2-.8.6-.7c.4 0 .8.3.9.8z"/><path d="m79 9.7c.1.3 0 .5-.4.5s-.8-.3-1-.6c-.1-.3 0-.5.4-.4.5 0 .9.2 1 .5z"/><path d="m79.7 11c.1.3-.1.5-.4.5-.4 0-.8-.3-1-.6-.1-.3.1-.5.4-.5.4 0 .8.3 1 .6z"/><path d="m80.3 12.3c.1.3-.1.6-.5.5-.4 0-.8-.3-.9-.7-.1-.3.1-.6.5-.5.3.1.7.4.9.7z"/><path d="m80.9 13.8c.1.4-.1.6-.5.6s-.8-.4-.9-.7c-.1-.4.1-.6.5-.6.3.1.7.4.9.7z"/><path d="m81.4 15.4c.1.4-.1.7-.5.6-.4 0-.8-.4-.9-.8s.1-.6.5-.6c.4.1.8.4.9.8z"/><path d="m81.9 17.1c.1.4-.1.7-.5.7s-.8-.4-.9-.8.1-.7.5-.6c.4-.1.8.3.9.7z"/><path d="m82.4 18.8c.1.4-.1.7-.5.7s-.8-.4-.9-.8.1-.7.5-.7.8.4.9.8z"/><path d="m77.7 7.5c.2.2 0 .4-.4.4s-.8-.2-1-.5c-.2-.2 0-.4.4-.3.4 0 .8.2 1 .4z"/><path d="m83.5 24.4c0 .5-.3.8-.7.8s-.8-.4-.8-.9.3-.8.7-.8c.4.1.8.5.8.9z"/><path d="m83.6 26.4c0 .5-.3.8-.7.8s-.8-.4-.8-.9.3-.8.7-.8c.5.1.8.5.8.9z"/><path d="m83.8 28.5c0 .5-.3.9-.7.8-.4 0-.8-.4-.8-.9s.3-.9.7-.8c.4 0 .7.4.8.9z"/><path d="m83.9 30.6c0 .5-.3.9-.7.9s-.8-.4-.8-.9.3-.9.7-.9.7.4.8.9z"/><path d="m83.9 32.7c0 .5-.3.9-.7.9s-.8-.4-.8-.9.3-.9.7-.9c.5 0 .8.4.8.9z"/><path d="m83.9 34.8c0 .5-.3.9-.7.9s-.8-.4-.8-.9.3-.9.7-.9c.5 0 .8.4.8.9z"/><path d="m83.9 36.9c0 .5-.3.9-.8.9-.4 0-.7-.4-.7-.9s.3-.9.8-.9c.4 0 .8.4.7.9z"/><path d="m83.3 22.5c.1.4-.2.8-.6.8s-.8-.4-.9-.9c-.1-.4.2-.8.6-.7.4-.1.8.3.9.8z"/><path d="m82.8 20.6c.1.4-.2.7-.6.7s-.8-.4-.9-.8.2-.7.6-.7.8.4.9.8z"/><path d="m83.9 39c0 .5-.4.9-.8.9s-.7-.4-.7-.9.4-.9.8-.9c.4.1.7.4.7.9z"/><path d="m16.3 10.2c-.2.3-.6.6-.9.6-.4 0-.5-.2-.4-.5.2-.3.6-.6.9-.6.4 0 .6.2.4.5z"/><path d="m15 12.9c-.1.3-.6.6-.9.7-.4 0-.5-.2-.4-.5s.6-.6.9-.7c.4-.1.6.1.4.5z"/><path d="m14.4 14.4c-.1.4-.5.7-.9.7s-.5-.2-.4-.6.5-.7.9-.7.5.2.4.6z"/><path d="m13.8 15.9c-.1.4-.5.7-.9.7s-.6-.2-.4-.6c.1-.4.5-.7.9-.7s.6.3.4.6z"/><path d="m13.3 17.6c-.1.4-.5.7-.9.8-.4 0-.6-.2-.4-.6.1-.4.5-.7.9-.8.3-.1.5.2.4.6z"/><path d="m12.7 19.3c-.1.4-.5.8-.9.8s-.6-.3-.4-.7c.1-.4.5-.7.9-.8.4 0 .6.3.4.7z"/><path d="m17.7 7.8c-.2.2-.6.5-1 .5s-.5-.2-.4-.4c.2-.3.6-.5 1-.5s.6.2.4.4z"/><path d="m11.5 24.7c0 .5-.4.8-.7.9-.4 0-.6-.3-.6-.8 0-.4.4-.8.7-.9.4.1.7.4.6.8z"/><path d="m11.4 26.7c0 .5-.3.8-.7.9-.4 0-.6-.3-.6-.8s.3-.8.7-.9c.4 0 .6.4.6.8z"/><path d="m11.3 28.7c0 .5-.3.9-.7.9s-.6-.3-.6-.8.3-.8.7-.9c.4 0 .6.4.6.8z"/><path d="m11.2 30.7c0 .5-.3.9-.7.9s-.6-.4-.6-.8c0-.5.3-.9.7-.9s.7.4.6.8z"/><path d="m11.2 32.8c0 .5-.3.9-.7.9s-.6-.4-.6-.8c0-.5.3-.9.7-.9.3-.1.6.3.6.8z"/><path d="m11.7 22.8c-.1.4-.4.8-.8.8s-.7-.3-.5-.7c.1-.4.5-.8.9-.8.3 0 .6.3.4.7z"/><path d="m12.2 21c-.1.4-.5.8-.9.8s-.6-.3-.5-.7.5-.8.9-.8.6.3.5.7z"/><path d="m11.2 38.9c0 .5-.3.8-.6.8-.4 0-.7-.4-.7-.9s.3-.8.6-.8c.4.1.7.5.7.9z"/><path d="m17.9 10c-.2.3-.6.6-.9.6-.4 0-.5-.2-.4-.5.2-.3.6-.5.9-.6.4 0 .6.2.4.5z"/><path d="m17.3 11.3c-.1.3-.6.6-.9.6-.4 0-.5-.2-.4-.5s.6-.6.9-.6.5.2.4.5z"/><path d="m16.6 12.7c-.1.3-.6.6-.9.7-.4 0-.6-.2-.4-.5.1-.3.6-.6.9-.7.4-.1.6.2.4.5z"/><path d="m16 14.2c-.1.4-.5.7-.9.7s-.6-.2-.4-.6c.1-.4.5-.7.9-.7s.6.2.4.6z"/><path d="m15.4 15.8c-.1.4-.5.7-.9.7s-.6-.2-.4-.6c.1-.4.5-.7.9-.7.4-.1.6.2.4.6z"/><path d="m18.6 8.8c-.2.3-.6.5-1 .5s-.5-.2-.4-.4c.2-.3.6-.5 1-.5s.5.1.4.4z"/><path d="m19.3 7.7c-.2.2-.6.5-1 .5-.3 0-.5-.2-.3-.4s.6-.5 1-.5c.3 0 .5.2.3.4z"/><path d="m13.2 24.6c0 .5-.4.8-.8.9-.4 0-.7-.3-.6-.8s.4-.8.7-.9c.5 0 .7.4.7.8z"/><path d="m13.1 26.6c0 .5-.4.9-.7.9-.4 0-.7-.3-.6-.8s.4-.8.7-.9c.3 0 .6.4.6.8z"/><path d="m13 28.6c0 .5-.3.9-.7.9s-.7-.4-.6-.8c0-.5.3-.9.7-.9.3 0 .6.4.6.8z"/><path d="m12.9 30.7c0 .5-.3.9-.7.9s-.7-.4-.7-.8c0-.5.3-.9.7-.9.4-.1.7.3.7.8z"/><path d="m12.8 32.7c0 .5-.3.9-.7.9s-.7-.4-.7-.8c0-.5.3-.9.7-.9s.7.4.7.8z"/><path d="m12.8 36.9c0 .5-.3.9-.7.9s-.7-.4-.7-.9.3-.9.7-.9.7.4.7.9z"/><path d="m13.4 22.7c-.1.4-.4.8-.8.8s-.7-.3-.6-.7.5-.8.9-.8.6.3.5.7z"/><path d="m13.9 20.9c-.1.4-.5.8-.9.8s-.6-.3-.5-.7.5-.8.9-.8.6.3.5.7z"/><path d="m13 43.1c0 .5-.3.8-.7.8s-.7-.4-.7-.9.3-.8.6-.8c.4 0 .7.4.8.9z"/><path d="m12.9 41c0 .5-.3.8-.7.8s-.7-.4-.7-.9.3-.8.7-.8c.3.1.7.5.7.9z"/><path d="m12.8 39c0 .5-.3.9-.7.8-.4 0-.7-.4-.7-.9s.3-.9.7-.8c.4 0 .7.4.7.9z"/><path d="m19.5 9.9c-.2.3-.6.6-1 .6s-.6-.2-.4-.5.6-.5 1-.6c.4 0 .6.2.4.5z"/><path d="m18.9 11.2c-.1.3-.6.6-.9.6-.4 0-.6-.2-.4-.5.1-.3.6-.6.9-.6.3-.1.5.1.4.5z"/><path d="m18.3 12.5c-.1.3-.6.6-.9.7-.4 0-.6-.2-.4-.5.1-.3.6-.6.9-.7.3 0 .5.2.4.5z"/><path d="m17.7 14c-.1.4-.5.7-.9.7s-.6-.2-.4-.6c.1-.4.6-.7.9-.7s.5.3.4.6z"/><path d="m17.1 15.6c-.1.4-.5.7-.9.7s-.6-.2-.5-.6.5-.7.9-.7.6.2.5.6z"/><path d="m20.2 8.7c-.2.3-.6.5-1 .5s-.5-.2-.4-.4c.2-.3.6-.5 1-.5.4-.1.6.1.4.4z"/><path d="m20.9 7.6c-.2.2-.6.5-1 .5s-.5-.2-.4-.4c.2-.2.6-.4 1-.5.4 0 .6.2.4.4z"/><path d="m21.6 6.7c-.2.2-.6.4-1 .4s-.5-.1-.4-.4c.2-.2.6-.4 1-.4.5 0 .6.2.4.4z"/><path d="m14.9 24.5c0 .5-.4.9-.8.9s-.7-.3-.7-.8.4-.8.8-.9c.5 0 .8.4.7.8z"/><path d="m14.8 26.5c0 .5-.4.9-.8.9s-.7-.3-.7-.8.4-.9.8-.9.7.4.7.8z"/><path d="m14.7 28.6c0 .5-.4.9-.8.9s-.7-.4-.7-.8c0-.5.4-.9.7-.9.5-.1.8.3.8.8z"/><path d="m14.6 30.6c0 .5-.3.9-.7.9s-.7-.4-.7-.8c0-.5.3-.9.7-.9s.7.4.7.8z"/><path d="m14.5 32.7c0 .5-.3.9-.7.9s-.7-.4-.7-.9.3-.9.7-.9c.4.1.7.4.7.9z"/><path d="m14.5 34.8c0 .5-.3.9-.7.9s-.7-.4-.7-.9.3-.9.7-.9.7.4.7.9z"/><path d="m14.5 36.9c0 .5-.3.9-.7.9s-.7-.4-.7-.9.3-.9.7-.9.7.4.7.9z"/><path d="m15.1 22.6c-.1.4-.4.8-.8.8s-.7-.3-.6-.7.5-.8.9-.8c.4-.1.6.3.5.7z"/><path d="m15.6 20.7c-.1.4-.5.8-.9.8s-.6-.3-.5-.7.5-.8.9-.8.6.3.5.7z"/><path d="m14.7 43.1c0 .5-.3.8-.7.8s-.7-.4-.7-.9.3-.8.7-.8c.3.1.6.5.7.9z"/><path d="m14.8 45.2c0 .5-.3.8-.7.8s-.7-.4-.8-.9c0-.5.3-.8.7-.8s.8.4.8.9z"/><path d="m14.9 47.2c0 .5-.3.8-.7.8s-.7-.4-.8-.9c0-.5.3-.8.7-.8s.8.4.8.9z"/><path d="m15.1 49.1c.1.4-.1.8-.5.7-.4 0-.8-.4-.9-.8s.2-.8.6-.7c.4 0 .7.4.8.8z"/><path d="m14.6 41.1c0 .5-.3.9-.7.8-.4 0-.7-.4-.7-.9s.3-.9.7-.8c.3 0 .7.4.7.9z"/><path d="m20.5 11c-.1.3-.6.6-.9.6-.4 0-.6-.2-.4-.5.1-.3.6-.6.9-.6.4 0 .6.2.4.5z"/><path d="m19.9 12.4c-.1.3-.6.6-.9.7-.4 0-.6-.2-.4-.5.1-.3.6-.6.9-.7.4-.1.6.1.4.5z"/><path d="m18.8 15.4c-.1.4-.5.7-.9.7s-.6-.2-.5-.6.5-.7.9-.7.6.3.5.6z"/><path d="m18.3 17.1c-.1.4-.5.7-.9.8-.4 0-.6-.3-.5-.6.1-.4.5-.7.9-.8s.6.2.5.6z"/><path d="m17.8 18.8c-.1.4-.5.8-.9.8s-.6-.3-.5-.7.5-.8.9-.8.6.3.5.7z"/><path d="m22.5 7.5c-.2.2-.6.4-1 .5-.4 0-.5-.2-.4-.4.2-.2.6-.4 1-.4.4-.1.6.1.4.3z"/><path d="m23.3 6.6c-.2.2-.6.4-1 .4s-.5-.1-.4-.3c.2-.2.6-.4 1-.4s.5.1.4.3z"/><path d="m16.7 24.4c0 .5-.4.9-.8.9s-.7-.3-.7-.8.4-.8.8-.9c.4 0 .7.4.7.8z"/><path d="m16.5 26.5c0 .5-.4.9-.8.9s-.7-.3-.7-.8.4-.9.8-.9c.5-.1.8.3.7.8z"/><path d="m16.4 28.5c0 .5-.4.9-.8.9s-.7-.4-.7-.8c0-.5.4-.9.8-.9s.8.3.7.8z"/><path d="m16.3 30.6c0 .5-.4.9-.8.9s-.7-.4-.7-.9.4-.9.8-.9.8.4.7.9z"/><path d="m16.9 22.5c-.1.4-.5.8-.9.9-.4 0-.7-.3-.6-.8.1-.4.5-.8.9-.8.5-.1.7.2.6.7z"/><path d="m17.3 20.6c-.1.4-.5.8-.9.8s-.6-.3-.5-.7.5-.8.9-.8.6.3.5.7z"/><path d="m16.4 43.2c0 .5-.3.8-.7.8s-.7-.4-.8-.9c0-.5.3-.8.7-.8.5 0 .8.4.8.9z"/><path d="m16.5 45.3c0 .5-.3.8-.7.8s-.8-.4-.8-.9.3-.8.7-.8c.5 0 .8.4.8.9z"/><path d="m16.7 47.3c0 .5-.3.8-.7.8s-.8-.4-.8-.9.3-.8.7-.8.8.4.8.9z"/><path d="m16.9 49.2c.1.4-.2.8-.6.7-.4 0-.8-.4-.9-.8s.2-.8.6-.8c.5.1.8.5.9.9z"/><path d="m17.3 51.1c.1.4-.1.7-.5.7s-.8-.4-.9-.8.1-.7.5-.7.8.4.9.8z"/><path d="m17.8 52.9c.1.4-.1.7-.5.7s-.8-.4-.9-.8.1-.7.5-.7.8.4.9.8z"/><path d="m21.6 12.2c-.1.3-.6.6-.9.7-.4 0-.6-.2-.5-.5s.6-.6.9-.7c.4 0 .6.2.5.5z"/><path d="m21.1 13.7c-.1.4-.5.7-.9.7s-.6-.2-.5-.6.6-.7.9-.7c.4 0 .6.2.5.6z"/><path d="m20.5 15.3c-.1.3-.5.7-.9.7s-.6-.2-.5-.6.5-.7.9-.7c.4-.1.6.2.5.6z"/><path d="m20 16.9c-.1.4-.5.7-.9.8-.4 0-.6-.3-.5-.7s.5-.7.9-.8c.4.1.6.3.5.7z"/><path d="m19.6 18.7c-.1.4-.5.8-.9.8s-.7-.3-.5-.7c.1-.4.5-.8.9-.8.3 0 .6.3.5.7z"/><path d="m24.2 7.4c-.2.2-.6.4-1 .5-.4 0-.5-.1-.4-.4.2-.2.6-.4 1-.4s.5.1.4.3z"/><path d="m24.9 6.5c-.2.2-.6.4-1 .4s-.5-.1-.4-.3c.2-.2.6-.3 1-.4.4 0 .5.2.4.3z"/><path d="m18.5 24.3c0 .5-.4.9-.8.9s-.7-.3-.7-.8.4-.9.8-.9c.5 0 .8.4.7.8z"/><path d="m18.4 26.4c0 .5-.4.9-.8.9s-.7-.4-.7-.8c0-.5.4-.9.8-.9.4-.1.7.3.7.8z"/><path d="m18.2 28.4c0 .5-.4.9-.8.9s-.7-.4-.7-.8c0-.5.4-.9.8-.9s.8.4.7.8z"/><path d="m18.7 22.4c-.1.4-.5.8-.9.9-.4 0-.7-.3-.6-.8.1-.4.5-.8.9-.8.5-.1.7.2.6.7z"/><path d="m19.1 20.5c-.1.4-.5.8-.9.8s-.7-.3-.6-.7.5-.8.9-.8c.5-.1.7.3.6.7z"/><path d="m18.2 43.3c0 .5-.3.9-.7.8-.4 0-.8-.4-.8-.9s.3-.9.7-.8c.5 0 .8.4.8.9z"/><path d="m18.4 45.3c0 .5-.3.8-.7.8s-.8-.4-.8-.9.3-.8.7-.8c.4.1.7.5.8.9z"/><path d="m18.5 47.4c0 .5-.3.8-.7.8s-.8-.4-.8-.9.3-.8.7-.8.8.4.8.9z"/><path d="m18.7 49.3c.1.4-.2.8-.6.7-.4 0-.8-.4-.9-.8s.2-.8.6-.8c.5.1.9.5.9.9z"/><path d="m19.1 51.2c.1.4-.2.7-.6.7s-.8-.4-.9-.8.2-.7.6-.7.8.4.9.8z"/><path d="m19.6 53c.1.4-.1.7-.5.7s-.8-.4-.9-.8.1-.7.5-.7c.4.1.8.4.9.8z"/><path d="m20 54.8c.1.4-.1.7-.5.6-.4 0-.8-.4-.9-.8s.1-.7.5-.7c.4.1.8.5.9.9z"/><path d="m18.1 39.1c0 .5-.3.9-.7.9s-.8-.4-.8-.9.3-.9.7-.9.8.4.8.9z"/><path d="m21.6 59.5c.1.3-.1.6-.5.5-.4 0-.8-.3-.9-.7-.1-.3.1-.6.5-.5s.8.4.9.7z"/><path d="m22.2 60.9c.1.3-.1.5-.4.5-.4 0-.8-.3-1-.6-.1-.3.1-.5.4-.5.4 0 .9.3 1 .6z"/><path d="m22.8 62.1c.1.3 0 .5-.4.4-.4 0-.8-.3-1-.6-.1-.3 0-.5.4-.5.5.2.9.5 1 .7z"/><path d="m23.5 63.3c.2.2 0 .4-.4.4s-.8-.2-1-.5 0-.4.4-.4.8.2 1 .5z"/><path d="m24.2 64.3c.2.2 0 .4-.4.3-.4 0-.8-.2-1-.4s0-.4.4-.4c.4.1.8.3 1 .5z"/><path d="m24.9 65.2c.2.2 0 .3-.4.3s-.8-.2-1-.4 0-.3.4-.3.8.2 1 .4z"/><path d="m21.1 58c.1.4-.1.6-.5.6s-.8-.3-.9-.7.1-.6.5-.6c.3 0 .7.4.9.7z"/><path d="m20.5 56.4c.1.4-.1.6-.5.6s-.8-.4-.9-.7c-.1-.4.1-.7.5-.6.4 0 .8.4.9.7z"/><path d="m24.5 9.4c-.1.3-.6.5-1 .6-.4 0-.6-.2-.4-.5.1-.3.6-.5 1-.5s.5.2.4.4z"/><path d="m22.8 13.5c-.1.4-.5.7-.9.7s-.6-.2-.5-.6.5-.7.9-.7.6.3.5.6z"/><path d="m22.3 15.1c-.1.4-.5.7-.9.8-.4 0-.6-.2-.5-.6s.5-.7.9-.7c.4-.1.6.1.5.5z"/><path d="m21.8 16.8c-.1.4-.5.8-.9.8s-.7-.3-.5-.7c.1-.4.5-.7.9-.8.4 0 .6.3.5.7z"/><path d="m21.4 18.5c-.1.4-.5.8-.9.8s-.7-.3-.6-.7.5-.8.9-.8.7.3.6.7z"/><path d="m25.1 8.3c-.2.2-.6.5-1 .5s-.6-.2-.4-.4.6-.5 1-.5.6.2.4.4z"/><path d="m25.8 7.3c-.2.2-.6.4-1 .4s-.6-.1-.4-.4c.2-.1.6-.3 1-.3s.6.1.4.3z"/><path d="m26.5 6.5c-.2.2-.6.3-1 .4-.4 0-.5-.1-.4-.3.2-.2.6-.3 1-.3.4-.1.6 0 .4.2z"/><path d="m20.4 24.3c0 .5-.4.9-.9.9-.4 0-.7-.3-.7-.8s.4-.9.9-.9c.4-.1.7.3.7.8z"/><path d="m20.2 26.3c0 .5-.4.9-.8.9s-.7-.4-.7-.8c0-.5.4-.9.8-.9s.8.3.7.8z"/><path d="m20.6 22.3c-.1.4-.5.8-.9.9-.4 0-.7-.3-.7-.8.1-.4.5-.8.9-.8.5-.1.8.2.7.7z"/><path d="m21 20.4c-.1.4-.5.8-.9.8s-.7-.3-.6-.7.5-.8.9-.8c.4-.1.7.2.6.7z"/><path d="m20.1 43.3c0 .5-.3.9-.7.8-.4 0-.8-.4-.8-.9s.3-.9.7-.9c.4.1.8.5.8 1z"/><path d="m20.2 45.4c0 .5-.3.8-.7.8s-.8-.4-.8-.9.3-.8.7-.8.8.4.8.9z"/><path d="m20.4 47.5c0 .5-.3.8-.7.8s-.8-.4-.9-.9c0-.5.3-.8.7-.8.5 0 .8.4.9.9z"/><path d="m20.6 49.4c.1.4-.2.8-.6.8s-.8-.4-.9-.8.2-.8.7-.8c.3 0 .7.4.8.8z"/><path d="m21 51.3c.1.4-.2.8-.6.7-.4 0-.8-.4-.9-.8s.2-.8.6-.7c.4 0 .8.4.9.8z"/><path d="m21.4 53.2c.1.4-.2.7-.6.7s-.8-.4-.9-.8.2-.7.6-.7.8.4.9.8z"/><path d="m21.8 54.9c.1.4-.1.7-.5.6-.4 0-.8-.4-.9-.8s.1-.7.5-.7c.4.2.8.5.9.9z"/><path d="m23.3 59.7c.1.3-.1.6-.5.5-.4 0-.8-.3-.9-.7-.1-.3.1-.5.5-.5s.8.3.9.7z"/><path d="m23.9 61c.1.3-.1.5-.5.5s-.8-.3-1-.6c-.1-.3.1-.5.5-.5s.9.3 1 .6z"/><path d="m24.5 62.3c.1.3-.1.5-.4.4-.4 0-.8-.3-1-.5-.1-.3.1-.5.4-.5.4 0 .9.3 1 .6z"/><path d="m25.1 63.4c.2.2 0 .4-.4.4s-.8-.2-1-.5c-.2-.2 0-.4.4-.4.5 0 .9.3 1 .5z"/><path d="m25.8 64.4c.2.2 0 .4-.4.3-.4 0-.8-.2-1-.4s0-.4.4-.4c.4.1.8.3 1 .5z"/><path d="m26.5 65.2c.2.2 0 .3-.4.3s-.8-.2-1-.3c-.2-.2 0-.3.4-.3s.8.2 1 .3z"/><path d="m27.2 65.9c.2.1 0 .2-.4.2s-.8-.1-1-.3c-.2-.1 0-.3.4-.3.4.1.9.3 1 .4z"/><path d="m22.8 58.2c.1.4-.1.6-.5.6s-.8-.3-.9-.7.1-.6.5-.6.8.3.9.7z"/><path d="m22.3 56.6c.1.4-.1.6-.5.6s-.8-.4-.9-.7c-.1-.4.1-.7.5-.6.4 0 .8.3.9.7z"/><path d="m26.2 9.3c-.1.3-.6.5-1 .6-.4 0-.6-.2-.5-.4.1-.3.6-.5 1-.5.4-.2.6 0 .5.3z"/><path d="m26.8 8.2c-.1.2-.6.5-1 .5s-.6-.2-.4-.4c.1-.2.6-.4 1-.5.4 0 .6.2.4.4z"/><path d="m27.5 7.2c-.2.2-.6.4-1 .4s-.6-.1-.4-.3.6-.4 1-.4c.3 0 .5.1.4.3z"/><path d="m22.3 24.2c0 .5-.4.9-.9.9-.4 0-.8-.4-.7-.8 0-.5.4-.9.9-.9.4-.1.8.3.7.8z"/><path d="m22.1 26.2c0 .5-.4.9-.9.9-.4 0-.8-.4-.7-.8 0-.5.4-.9.9-.9.4 0 .8.3.7.8z"/><path d="m22.5 22.2c-.1.4-.5.8-.9.9-.4 0-.8-.3-.7-.8.1-.4.5-.8.9-.8.5-.1.8.2.7.7z"/><path d="m22.9 20.3c-.1.4-.5.8-.9.8s-.7-.3-.6-.7.5-.8.9-.8c.4-.1.6.2.6.7z"/><path d="m22 43.4c0 .5-.3.9-.7.9s-.8-.4-.8-.9.3-.9.7-.9.8.4.8.9z"/><path d="m22.1 45.5c0 .5-.3.9-.7.8-.4 0-.8-.4-.9-.9 0-.5.3-.9.7-.8.5 0 .9.4.9.9z"/><path d="m22.3 47.5c0 .5-.3.8-.7.8s-.8-.4-.9-.9c0-.5.3-.8.7-.8.5.1.9.5.9.9z"/><path d="m22.5 49.5c.1.4-.2.8-.7.8-.4 0-.9-.4-.9-.8-.1-.4.2-.8.7-.8s.9.4.9.8z"/><path d="m22.9 51.5c.1.4-.2.8-.6.7-.4 0-.8-.4-.9-.8s.2-.8.6-.7c.4-.1.8.3.9.8z"/><path d="m23.2 53.3c.1.4-.2.7-.6.7s-.8-.4-.9-.8.2-.7.6-.7.8.4.9.8z"/><path d="m23.6 55.1c.1.4-.2.7-.6.7s-.8-.4-.9-.8.2-.7.6-.7.8.4.9.8z"/><path d="m25.1 59.8c.1.3-.1.6-.5.5-.4 0-.8-.3-.9-.6s.1-.6.5-.5c.3 0 .7.3.9.6z"/><path d="m25.6 61.2c.1.3-.1.5-.5.5s-.8-.3-1-.6c-.1-.3.1-.5.5-.5.5 0 .9.3 1 .6z"/><path d="m28.1 65.3c.2.2 0 .3-.4.3s-.8-.1-1-.3 0-.3.4-.3.9.1 1 .3z"/><path d="m24.6 58.3c.1.4-.1.6-.5.6s-.8-.3-.9-.7.1-.6.5-.6c.3.1.7.4.9.7z"/><path d="m24.1 56.8c.1.4-.1.6-.5.6s-.8-.4-.9-.7c-.1-.4.1-.7.5-.6.4-.1.8.3.9.7z"/><path d="m27.9 9.2c-.1.3-.6.5-.9.6-.4 0-.6-.2-.5-.4.1-.3.6-.5 1-.5.3-.2.5 0 .4.3z"/><path d="m27.3 10.4c-.1.3-.5.6-.9.6s-.6-.2-.5-.5.6-.6 1-.6c.3 0 .6.2.4.5z"/><path d="m26.8 11.7c-.1.3-.5.6-.9.7-.4 0-.6-.2-.5-.5s.5-.6.9-.6c.4-.1.6.1.5.4z"/><path d="m28.5 8.1c-.1.2-.6.5-1 .5s-.6-.2-.4-.4c.1-.2.6-.4 1-.5.3 0 .5.1.4.4z"/><path d="m29.1 7.1c-.1.2-.6.4-1 .4s-.6-.1-.4-.3.6-.4 1-.4.6.1.4.3z"/><path d="m29.8 6.4c-.2.2-.6.3-1 .3s-.6-.1-.4-.3.6-.3 1-.3.5.1.4.3z"/><path d="m24.3 24.1c0 .5-.4.9-.9.9-.4 0-.8-.4-.7-.8s.4-.9.9-.9c.4 0 .7.3.7.8z"/><path d="m24.5 22.1c-.1.5-.5.8-.9.9-.5 0-.8-.3-.7-.8s.5-.8.9-.9c.4 0 .8.3.7.8z"/><path d="m23.9 43.4c0 .5-.3.9-.8.9-.4 0-.8-.4-.9-.9 0-.5.3-.9.8-.9s.9.5.9.9z"/><path d="m24.1 45.6c0 .5-.3.9-.7.8-.4 0-.8-.4-.9-.9 0-.5.3-.9.7-.8.4 0 .8.4.9.9z"/><path d="m24.3 47.6c0 .5-.3.8-.7.8-.5 0-.9-.4-.9-.9s.3-.8.7-.8.8.4.9.9z"/><path d="m24.5 49.6c.1.5-.2.8-.7.8-.4 0-.9-.4-.9-.9-.1-.4.3-.8.7-.8.4.1.8.5.9.9z"/><path d="m24.8 51.6c.1.4-.2.8-.7.7-.4 0-.9-.4-.9-.8-.1-.4.2-.8.7-.8.4 0 .8.4.9.9z"/><path d="m25.1 53.4c.1.4-.2.7-.6.7s-.9-.4-.9-.8c-.1-.4.2-.7.6-.7s.8.4.9.8z"/><path d="m25.5 55.2c.1.4-.2.7-.6.7s-.8-.4-.9-.8.2-.7.6-.7c.4.1.8.4.9.8z"/><path d="m26.8 60c.1.3-.1.6-.5.5-.4 0-.8-.3-.9-.6s.1-.6.5-.5c.4-.1.8.2.9.6z"/><path d="m26.3 58.5c.1.4-.1.6-.5.6s-.8-.3-.9-.7.1-.6.5-.6.8.3.9.7z"/><path d="m25.9 56.9c.1.4-.2.6-.6.6s-.8-.4-.9-.7c-.1-.4.2-.7.6-.6.4 0 .8.3.9.7z"/><path d="m29.6 9.1c-.1.3-.6.5-1 .5s-.6-.2-.5-.4c.1-.3.6-.5.9-.5.5-.1.8.1.6.4z"/><path d="m29.1 10.3c-.1.3-.6.6-1 .6s-.6-.2-.5-.5.5-.6.9-.6c.5-.1.7.2.6.5z"/><path d="m28.6 11.6c-.1.3-.5.6-1 .6-.4 0-.7-.2-.5-.5.1-.3.5-.6.9-.6.5-.1.7.2.6.5z"/><path d="m28.2 13.1c-.1.4-.5.7-1 .7-.4 0-.7-.2-.6-.6s.5-.7.9-.7c.5 0 .8.2.7.6z"/><path d="m27.8 14.7c-.1.4-.5.7-1 .7-.4 0-.7-.3-.6-.6.1-.4.5-.7.9-.7.5-.1.8.2.7.6z"/><path d="m27.4 16.4c-.1.4-.5.7-1 .8-.4 0-.7-.3-.6-.7s.5-.7.9-.8c.5 0 .8.3.7.7z"/><path d="m30.2 8c-.1.2-.6.4-1 .5-.4 0-.6-.2-.5-.4s.6-.4 1-.5c.4 0 .6.2.5.4z"/><path d="m30.8 7.1c-.1.2-.6.4-1 .4s-.6-.1-.4-.3c.1-.2.6-.4 1-.4.3-.1.5.1.4.3z"/><path d="m31.4 6.3c-.2.2-.6.3-1 .3s-.6-.1-.4-.3.6-.3 1-.3c.4.1.6.2.4.3z"/><path d="m26.1 45.6c0 .5-.3.9-.8.8-.5 0-.9-.4-.9-.9s.3-.9.8-.9c.4.1.8.5.9 1z"/><path d="m26.3 47.7c0 .5-.3.8-.7.8-.5 0-.9-.4-.9-.9s.3-.8.7-.8.8.4.9.9z"/><path d="m26.5 49.7c.1.5-.3.8-.7.8-.5 0-.9-.4-.9-.9-.1-.5.3-.8.7-.8.4.1.8.5.9.9z"/><path d="m26.7 51.7c.1.4-.3.8-.7.8s-.9-.4-.9-.8c-.1-.4.2-.8.7-.8.5-.1.9.3.9.8z"/><path d="m27 53.5c.1.4-.2.8-.7.7-.4 0-.9-.4-.9-.8-.1-.4.2-.7.7-.7.4.1.9.4.9.8z"/><path d="m27.4 55.3c.1.4-.2.7-.6.7s-.8-.4-.9-.8.2-.7.6-.7c.4.1.8.4.9.8z"/><path d="m28.2 58.6c.1.4-.2.6-.6.6s-.8-.3-.9-.7.2-.6.6-.6c.3.1.8.4.9.7z"/><path d="m27.8 57c.1.4-.2.7-.6.6-.4 0-.8-.4-.9-.7-.1-.4.2-.7.6-.6.3 0 .8.3.9.7z"/><path d="m31.5 9c-.1.3-.6.5-1 .5s-.7-.2-.5-.5c.1-.3.6-.5 1-.5.3.1.6.3.5.5z"/><path d="m31 10.2c-.1.3-.5.6-1 .6-.4 0-.7-.2-.6-.5s.6-.5 1-.5c.4-.1.7.1.6.4z"/><path d="m30.5 11.6c-.1.3-.5.6-1 .6-.4 0-.7-.3-.6-.6s.5-.6 1-.6c.4 0 .7.3.6.6z"/><path d="m30.1 13.1c-.1.4-.5.7-1 .7-.4 0-.7-.3-.6-.6.1-.4.5-.6 1-.6.4-.2.7.1.6.5z"/><path d="m29.7 14.6c-.1.4-.5.7-1 .7s-.7-.3-.7-.7c.1-.4.5-.7 1-.7.5.1.8.4.7.7z"/><path d="m29.4 16.3c-.1.4-.5.7-1 .8-.5 0-.8-.3-.7-.7s.5-.7 1-.7c.4-.1.7.2.7.6z"/><path d="m29 18.1c-.1.4-.5.8-1 .8s-.8-.3-.7-.7.5-.8 1-.8.8.3.7.7z"/><path d="m32 8c-.1.2-.6.4-1 .4s-.6-.2-.5-.4.6-.4 1-.4.6.1.5.4z"/><path d="m32.5 7.1c-.1.2-.6.4-1 .4s-.6-.2-.5-.4.6-.3 1-.3c.4-.1.7.1.5.3z"/><path d="m33.1 6.3c-.1.2-.6.3-1 .3s-.6-.1-.4-.3c.1-.2.6-.3 1-.3.4.1.6.2.4.3z"/><path d="m28.3 47.7c0 .5-.3.8-.8.8s-.9-.4-.9-.9.3-.9.8-.8.9.5.9.9z"/><path d="m28.5 49.8c.1.5-.3.8-.7.8-.5 0-.9-.4-.9-.9-.1-.5.3-.8.7-.8s.9.4.9.9z"/><path d="m28.8 51.7c.1.4-.3.8-.7.8-.5 0-.9-.4-1-.8s.3-.8.7-.8c.5 0 .9.4 1 .8z"/><path d="m29 53.6c.1.4-.2.7-.7.7s-.9-.4-1-.8.2-.8.7-.7c.6 0 1 .4 1 .8z"/><path d="m29.4 55.4c.1.4-.2.7-.7.7s-.9-.3-1-.7.2-.7.7-.7c.5-.1.9.3 1 .7z"/><path d="m29.7 57.1c.1.4-.2.7-.7.7-.4 0-.9-.3-1-.7s.2-.7.7-.7.9.3 1 .7z"/><path d="m33.3 9c-.1.3-.5.5-1 .5-.4 0-.7-.2-.6-.5s.5-.5 1-.5c.4 0 .7.2.6.5z"/><path d="m32.8 10.2c-.1.3-.5.5-1 .6-.4 0-.7-.2-.6-.5s.5-.5 1-.5c.5-.1.7.1.6.4z"/><path d="m32.4 11.6c-.1.3-.5.6-1 .6-.4 0-.7-.3-.6-.6s.5-.6 1-.6c.4 0 .7.2.6.6z"/><path d="m32 13c-.1.4-.5.7-1 .7-.4 0-.7-.3-.6-.6.1-.4.5-.6 1-.6.4-.1.7.2.6.5z"/><path d="m31.7 14.6c-.1.4-.5.7-1 .7s-.8-.3-.7-.7.5-.7 1-.7.8.3.7.7z"/><path d="m33.8 7.9c-.1.2-.5.4-1 .4-.4 0-.7-.2-.5-.4.1-.2.6-.4 1-.4.3.1.6.2.5.4z"/><path d="m34.3 7c-.1.2-.5.4-.9.4s-.6-.2-.5-.4.6-.3 1-.3c.3 0 .5.2.4.3z"/><path d="m34.8 6.3c-.1.2-.5.3-.9.3s-.6-.1-.5-.3c.1-.1.6-.3.9-.3.4 0 .6.2.5.3z"/><path d="m35.4 5.7c-.2.1-.6.3-1 .3s-.6-.1-.4-.2c.1-.1.6-.2.9-.2.4 0 .6 0 .5.1z"/><path d="m30.6 49.8c0 .5-.3.8-.8.8s-.9-.4-1-.8c-.1-.5.3-.8.8-.8s.9.4 1 .8z"/><path d="m30.8 51.8c.1.4-.3.8-.7.8-.5 0-.9-.4-1-.8s.3-.8.7-.8c.5 0 1 .3 1 .8z"/><path d="m31.1 53.6c.1.4-.3.7-.7.7-.5 0-.9-.4-1-.8s.3-.8.7-.7c.5.1.9.4 1 .8z"/><path d="m31.4 55.4c.1.4-.2.7-.7.7s-.9-.3-1-.7.2-.7.7-.7.9.3 1 .7z"/><path d="m31.7 57.1c.1.4-.2.7-.7.7s-.9-.3-1-.7.2-.7.7-.7.9.3 1 .7z"/><path d="m35.1 9c-.1.3-.5.5-.9.5s-.7-.2-.6-.5.5-.5.9-.5c.5 0 .7.2.6.5z"/><path d="m34.7 10.2c-.1.3-.5.5-1 .6-.4 0-.7-.2-.6-.5s.5-.5 1-.5c.4-.1.7.1.6.4z"/><path d="m34.4 11.5c-.1.3-.5.6-1 .6-.4 0-.7-.3-.6-.6s.5-.6 1-.6c.3.1.6.3.6.6z"/><path d="m34 13c-.1.4-.5.7-1 .7s-.8-.3-.7-.6c.1-.4.5-.6 1-.6.5-.1.8.1.7.5z"/><path d="m35.6 7.9c-.1.2-.5.4-.9.4s-.7-.2-.6-.4.5-.4.9-.4.7.2.6.4z"/><path d="m36 7c-.1.2-.5.4-.9.4s-.6-.2-.5-.4.5-.3.9-.3.6.1.5.3z"/><path d="m36.5 6.3c-.1.1-.5.3-.9.3s-.6-.1-.5-.3c.1-.1.5-.3.9-.3s.6.1.5.3z"/><path d="m37 5.7c-.1.1-.5.3-.9.3s-.6-.1-.5-.2.5-.2.9-.2.6 0 .5.1z"/><path d="m32.7 49.9c0 .5-.3.8-.8.8s-.9-.4-1-.8c0-.5.3-.8.8-.8.5-.1.9.3 1 .8z"/><path d="m32.9 51.8c.1.4-.3.8-.8.8s-.9-.4-1-.8.3-.8.8-.8.9.4 1 .8z"/><path d="m33.1 53.7c.1.4-.3.7-.7.7-.5 0-.9-.4-1-.8s.3-.8.7-.7c.5 0 1 .4 1 .8z"/><path d="m37 9c-.1.3-.5.5-.9.5s-.7-.2-.6-.5.5-.5.9-.5.7.2.6.5z"/><path d="m36.6 10.2c-.1.3-.5.5-.9.6-.4 0-.7-.2-.6-.5s.5-.5.9-.5c.4-.1.7.1.6.4z"/><path d="m36.3 11.5c-.1.3-.5.6-.9.6s-.7-.3-.7-.6c.1-.3.5-.6.9-.6.5 0 .8.3.7.6z"/><path d="m36 13c-.1.3-.5.6-1 .7-.5 0-.8-.3-.7-.6.1-.4.5-.6 1-.6.4-.2.7.1.7.5z"/><path d="m37.4 7.9c-.1.2-.5.4-.9.4s-.7-.2-.6-.4.5-.4.9-.4.6.2.6.4z"/><path d="m37.8 7c-.1.2-.5.4-.9.4s-.7-.2-.5-.4c.1-.2.5-.3.9-.3.3 0 .6.1.5.3z"/><path d="m38.2 6.3c-.1.1-.5.3-.9.3s-.6-.1-.5-.3.5-.3.9-.3.6.1.5.3z"/><path d="m38.6 5.7c-.1.1-.5.2-.9.2s-.6-.1-.5-.2.5-.2.9-.2c.4.1.6.1.5.2z"/><path d="m38.8 9c-.1.3-.5.5-.9.5s-.7-.2-.6-.5.5-.5.9-.5.7.2.6.5z"/><path d="m38.5 10.1c-.1.3-.5.5-.9.5s-.7-.2-.7-.5c.1-.3.5-.5.9-.5.5 0 .8.3.7.5z"/><path d="m38.2 11.5c-.1.3-.5.6-.9.6-.5 0-.8-.3-.7-.6s.5-.6.9-.6c.5 0 .8.3.7.6z"/><path d="m37.7 14.5c-.1.4-.5.7-.9.7-.5 0-.8-.3-.7-.7s.5-.7.9-.7.8.3.7.7z"/><path d="m39.2 7.9c-.1.2-.5.4-.9.4s-.7-.2-.6-.4.5-.4.9-.4.6.2.6.4z"/><path d="m39.5 7c-.1.2-.5.4-.9.4s-.7-.2-.6-.4.5-.3.9-.3.7.1.6.3z"/><path d="m39.9 6.3c-.1.1-.5.3-.9.3s-.6-.1-.5-.3.5-.3.9-.3c.3 0 .6.1.5.3z"/><path d="m40.3 5.7c-.1.1-.5.2-.9.2s-.6-.1-.5-.2.5-.2.9-.2c.3.1.6.1.5.2z"/><path d="m-3.6 15.7c0 .4-.2.7-.4.8s-.4-.2-.4-.6.2-.7.4-.8c.3-.1.4.2.4.6z"/><path d="m-3.8 20.4c0 .4-.2.7-.3.8-.2.1-.3-.2-.3-.6s.1-.7.3-.8c.2 0 .3.3.3.6z"/><path d="m-4 25.3c0 .4-.1.7-.2.8-.1 0-.2-.2-.2-.6s.1-.7.2-.8.2.2.2.6z"/><path d="m-2.5 15.4c0 .4-.3.7-.5.8s-.4-.2-.4-.6.2-.7.5-.8c.2 0 .4.3.4.6z"/><path d="m-2.7 17c0 .4-.2.7-.5.8-.2.1-.4-.2-.3-.6 0-.4.2-.7.4-.8.3 0 .4.2.4.6z"/><path d="m-2.9 18.6c0 .4-.2.7-.4.8s-.3-.2-.3-.6.2-.7.4-.8c.2 0 .4.2.3.6z"/><path d="m-3 20.2c0 .4-.2.7-.4.8s-.3-.2-.3-.6.2-.7.4-.8c.2 0 .3.2.3.6z"/><path d="m-3.2 21.8c0 .4-.2.7-.4.8s-.3-.2-.2-.6c0-.4.2-.7.3-.8.3 0 .4.2.3.6z"/><path d="m-3.3 23.4c0 .4-.2.7-.3.8s-.2-.2-.2-.6.2-.7.3-.8c.1 0 .2.3.2.6z"/><path d="m-1.4 15.2c-.1.4-.3.7-.6.8-.2.1-.4-.2-.4-.6s.3-.7.5-.7c.3-.1.5.2.5.5z"/><path d="m-1.7 16.8c-.1.4-.3.7-.5.8s-.4-.2-.3-.6c0-.4.3-.7.5-.8.2 0 .4.2.3.6z"/><path d="m-1.9 18.4c-.1.4-.3.7-.5.8s-.3-.2-.3-.6.2-.7.5-.8c.2 0 .3.2.3.6z"/><path d="m-2.1 20c-.1.4-.3.7-.4.8-.2.1-.3-.2-.3-.6s.2-.7.4-.8.3.2.3.6z"/><path d="m-2.4 21.6c-.1.4-.2.7-.4.8-.2 0-.3-.3-.2-.6 0-.4.2-.7.4-.8.2 0 .3.2.2.6z"/><path d="m-2.9 36.7c0 .4-.1.7-.3.7-.1 0-.3-.3-.3-.7s.2-.7.3-.7c.2 0 .3.3.3.7z"/><path d="m-.3 15c-.1.4-.3.7-.6.7s-.4-.2-.4-.6c.1-.4.3-.7.6-.7s.5.2.4.6z"/><path d="m-.6 16.6c-.1.4-.3.7-.6.8-.2.1-.4-.2-.3-.6s.3-.7.6-.7c.2-.1.4.1.3.5z"/><path d="m-.9 18.1c-.1.4-.3.7-.5.8s-.4-.2-.3-.6.3-.7.5-.8c.2 0 .4.3.3.6z"/><path d="m-1.2 19.7c-.1.4-.3.7-.5.8s-.3-.2-.3-.6c.1-.4.3-.7.5-.8.2 0 .4.3.3.6z"/><path d="m-1.5 21.4c-.1.4-.3.7-.5.8s-.3-.2-.3-.6c.1-.4.3-.7.5-.8.3-.1.4.2.3.6z"/><path d="m.9 14.8c-.1.4-.4.7-.6.7-.3 0-.4-.2-.3-.6s.4-.7.6-.7.4.2.3.6z"/><path d="m.5 16.3c-.1.4-.4.7-.6.7-.3.1-.4-.2-.3-.6s.3-.7.6-.7c.2 0 .4.3.3.6z"/><path d="m.2 17.9c-.1.4-.3.7-.6.8-.2.1-.4-.2-.3-.6s.3-.7.6-.8c.2 0 .3.3.3.6z"/><path d="m-.2 19.5c-.1.4-.3.7-.6.8-.2 0-.3-.2-.2-.6s.3-.7.6-.8c.2 0 .3.3.2.6z"/><path d="m-.5 21.1c-.1.4-.3.7-.5.8-.2 0-.3-.2-.3-.6.1-.4.3-.7.5-.8.2 0 .4.3.3.6z"/><path d="m2.1 14.6c-.1.4-.4.7-.7.7s-.4-.2-.3-.6.4-.7.7-.7c.2 0 .4.2.3.6z"/><path d="m1.7 16.1c-.1.4-.4.7-.7.7s-.4-.2-.3-.6.4-.7.7-.7c.2 0 .4.3.3.6z"/><path d="m1.3 17.7c-.1.4-.4.7-.6.8-.3.1-.4-.2-.3-.6s.4-.7.6-.8c.2 0 .4.2.3.6z"/><path d="m.9 19.3c-.1.4-.4.7-.6.8-.2 0-.4-.2-.3-.6s.3-.7.6-.8c.2 0 .4.2.3.6z"/><path d="m3.4 14.4c-.1.3-.4.7-.7.7s-.4-.2-.3-.6.4-.7.7-.7c.2 0 .4.2.3.6z"/><path d="m2.9 15.9c-.1.4-.4.7-.7.7s-.4-.2-.3-.6.4-.7.7-.7.4.3.3.6z"/><path d="m2.5 17.5c-.1.4-.4.7-.7.8-.3 0-.4-.2-.3-.6s.4-.7.7-.7c.2-.1.4.1.3.5z"/><path d="m2 19.1c-.1.4-.4.7-.7.8-.3 0-.4-.2-.3-.6s.4-.7.6-.8c.4 0 .5.2.4.6z"/><path d="m1.6 20.7c-.1.4-.4.7-.6.8-.3 0-.4-.2-.3-.6s.4-.7.6-.8c.3 0 .4.2.3.6z"/><path d="m1.2 22.4c-.1.4-.4.7-.6.8-.2 0-.4-.2-.3-.6s.4-.7.6-.8c.3-.1.4.2.3.6z"/><path d="m4.7 14.2c-.1.3-.5.7-.8.7s-.5-.2-.3-.6c.1-.3.4-.6.8-.7.3 0 .4.2.3.6z"/><path d="m4.2 15.7c-.1.4-.4.7-.7.7s-.4-.2-.3-.6.4-.7.7-.7.4.3.3.6z"/><path d="m3.7 17.3c-.1.4-.4.7-.7.7s-.4-.2-.3-.6.4-.7.7-.7.4.2.3.6z"/><path d="m3.2 18.9c-.1.4-.4.7-.7.8-.3 0-.4-.2-.3-.6s.4-.7.7-.8c.3 0 .4.2.3.6z"/><path d="m2.8 20.5c-.1.4-.4.7-.7.8-.3 0-.4-.2-.3-.6s.4-.7.7-.8c.2 0 .4.2.3.6z"/><path d="m1.9 23.9c-.1.4-.3.8-.6.8s-.5-.3-.4-.7.4-.7.6-.8c.4 0 .5.3.4.7z"/><path d="m2.3 22.2c-.1.4-.4.7-.7.8-.3 0-.4-.2-.3-.6.2-.4.5-.8.7-.8.3-.1.4.2.3.6z"/><path d="m6.6 12.5c-.1.3-.5.6-.8.7-.3 0-.5-.2-.4-.5.2-.4.5-.7.9-.7.3 0 .4.2.3.5z"/><path d="m6.1 14c-.1.3-.5.7-.8.7s-.5-.2-.3-.5c.1-.3.5-.7.8-.7.2-.1.4.1.3.5z"/><path d="m5.5 15.5c-.1.4-.5.7-.8.7s-.5-.2-.3-.6c.1-.3.5-.6.8-.6.3-.1.5.2.3.5z"/><path d="m5 17.1c-.1.4-.5.7-.8.8-.3 0-.4-.2-.3-.6s.4-.7.7-.7c.4-.1.5.1.4.5z"/><path d="m4.5 18.7c-.1.4-.4.7-.7.8-.3 0-.4-.2-.3-.6s.4-.7.7-.8.4.2.3.6z"/><path d="m4 20.3c-.1.4-.4.7-.7.8-.3 0-.4-.2-.3-.6s.4-.7.7-.8c.3 0 .4.2.3.6z"/><path d="m2.9 25.5c0 .4-.3.8-.5.8-.3 0-.5-.3-.5-.7s.2-.8.5-.8.5.3.5.7z"/><path d="m2.9 27.4c0 .4-.3.8-.5.8-.3 0-.5-.3-.5-.7s.2-.8.5-.8c.3-.1.5.2.5.7z"/><path d="m2.8 29.2c0 .4-.2.8-.5.8s-.5-.3-.5-.7.2-.8.5-.8.5.3.5.7z"/><path d="m3.1 23.7c-.1.4-.3.8-.6.8s-.5-.3-.4-.7.4-.7.7-.8c.2 0 .4.3.3.7z"/><path d="m3.5 22c-.1.4-.4.7-.7.8-.3 0-.4-.2-.3-.6s.4-.7.7-.8.5.2.3.6z"/><path d="m8.6 10.9c-.1.3-.5.6-.9.6-.3 0-.5-.2-.4-.5s.5-.6.9-.6.6.2.4.5z"/><path d="m8 12.3c-.1.4-.5.7-.8.7s-.5-.2-.4-.5.5-.6.8-.7c.4 0 .6.2.4.5z"/><path d="m7.5 13.8c-.1.3-.5.7-.8.7s-.5-.2-.3-.5c.1-.3.5-.7.8-.7.2-.1.4.2.3.5z"/><path d="m6.9 15.3c-.1.4-.5.7-.8.7s-.5-.2-.3-.6c.1-.4.5-.7.8-.7s.4.3.3.6z"/><path d="m6.4 16.9c-.1.4-.5.7-.8.8-.3 0-.5-.2-.3-.6.1-.4.5-.7.8-.7.2-.1.4.1.3.5z"/><path d="m5.8 18.5c-.1.4-.5.7-.8.8-.3 0-.5-.2-.3-.6.1-.4.5-.7.8-.8s.5.2.3.6z"/><path d="m5.3 20.1c-.1.4-.5.7-.8.8-.3 0-.4-.2-.3-.6s.4-.7.7-.8c.4 0 .5.3.4.6z"/><path d="m4.2 25.4c0 .4-.3.8-.6.8s-.5-.3-.5-.7.3-.8.6-.8c.3-.1.5.3.5.7z"/><path d="m4.1 27.3c0 .4-.3.8-.6.8s-.5-.3-.5-.7.3-.8.5-.8c.4-.1.6.2.6.7z"/><path d="m4 29.1c0 .5-.2.9-.5.9s-.5-.3-.5-.8.2-.8.5-.8.6.3.5.7z"/><path d="m4 31.1c0 .4-.3.8-.5.8-.3 0-.5-.3-.5-.8 0-.4.2-.8.5-.8s.5.3.5.8z"/><path d="m4.4 23.6c-.2.4-.4.7-.7.8-.3 0-.5-.3-.4-.7s.4-.8.7-.8.5.3.4.7z"/><path d="m4.8 21.8c-.1.4-.4.7-.7.8-.3 0-.4-.2-.3-.6s.4-.7.7-.8c.3 0 .4.2.3.6z"/><path d="m10.1 10.8c-.1.3-.5.6-.9.6-.3 0-.5-.2-.4-.5s.5-.6.9-.6c.4-.1.6.2.4.5z"/><path d="m9.5 12.2c-.1.3-.5.6-.9.7-.3 0-.5-.2-.4-.5s.5-.6.9-.7.5.1.4.5z"/><path d="m8.9 13.6c-.1.3-.5.7-.8.7s-.5-.2-.4-.5.5-.7.8-.7c.4-.1.5.2.4.5z"/><path d="m8.3 15.1c-.1.4-.5.7-.8.7s-.5-.2-.4-.6.5-.7.8-.7c.4 0 .6.3.4.6z"/><path d="m7.8 16.7c-.1.4-.5.7-.8.7s-.5-.2-.4-.6.5-.7.8-.7.5.2.4.6z"/><path d="m7.2 18.3c-.1.4-.5.7-.8.8-.3 0-.5-.2-.4-.6s.5-.7.8-.8c.4 0 .5.2.4.6z"/><path d="m6.7 20c-.1.4-.5.7-.8.8-.3 0-.5-.2-.4-.6s.5-.7.8-.8.5.2.4.6z"/><path d="m10.8 9.5c-.1.3-.5.6-.9.6-.3 0-.5-.2-.4-.5s.5-.6.9-.6c.3 0 .5.2.4.5z"/><path d="m5.5 25.2c0 .4-.3.8-.6.8s-.5-.3-.5-.7.3-.8.6-.8.5.3.5.7z"/><path d="m5.4 27.1c0 .4-.3.8-.6.8s-.5-.3-.5-.7.3-.8.6-.8.5.3.5.7z"/><path d="m5.4 29.1c0 .4-.3.8-.6.8s-.5-.3-.5-.8c0-.4.3-.8.6-.8.2 0 .5.3.5.8z"/><path d="m5.3 31c0 .4-.3.8-.6.8s-.5-.3-.5-.8c0-.4.3-.8.6-.8s.5.3.5.8z"/><path d="m5.3 32.9c0 .4-.3.8-.6.8s-.5-.3-.5-.8c0-.4.3-.8.6-.8.2 0 .5.4.5.8z"/><path d="m5.2 34.9c0 .5-.3.8-.6.8s-.5-.4-.5-.8.2-.8.5-.8c.4 0 .6.3.6.8z"/><path d="m5.7 23.4c-.1.4-.4.8-.7.8s-.5-.3-.4-.7.4-.8.8-.8c.2 0 .4.3.3.7z"/><path d="m6.2 21.7c-.1.4-.5.8-.8.8s-.5-.3-.4-.6c.1-.4.5-.7.8-.8s.5.2.4.6z"/><path d="m11 12c-.1.3-.5.6-.9.7-.3 0-.5-.2-.4-.5s.5-.6.9-.7.5.2.4.5z"/><path d="m10.4 13.4c-.1.3-.5.7-.9.7-.3 0-.5-.2-.4-.5s.5-.6.9-.7.5.2.4.5z"/><path d="m9.8 14.9c-.1.4-.5.7-.9.7-.3 0-.5-.2-.4-.6s.5-.7.8-.7c.5 0 .6.3.5.6z"/><path d="m9.2 16.5c-.1.4-.5.7-.8.7-.4.1-.5-.2-.4-.6s.5-.7.8-.7c.4 0 .5.2.4.6z"/><path d="m8.7 18.1c-.1.4-.5.7-.8.8-.3 0-.5-.2-.4-.6s.5-.7.8-.8c.3 0 .5.2.4.6z"/><path d="m8.1 19.8c-.1.4-.5.7-.8.8-.3 0-.5-.2-.4-.6s.5-.7.8-.8c.4-.1.5.2.4.6z"/><path d="m12.3 9.3c-.2.3-.6.6-.9.6s-.5-.2-.4-.5.6-.5.9-.6c.4 0 .5.2.4.5z"/><path d="m6.9 25.1c0 .4-.3.8-.6.8s-.6-.3-.5-.7c0-.4.3-.8.6-.8.3-.1.5.3.5.7z"/><path d="m6.8 27c0 .4-.3.8-.6.9-.3 0-.6-.3-.5-.8 0-.4.3-.8.6-.8.3-.1.5.3.5.7z"/><path d="m6.7 29c0 .4-.3.8-.6.8s-.6-.3-.5-.8c0-.4.3-.8.6-.8s.6.3.5.8z"/><path d="m6.7 30.9c0 .5-.3.8-.6.8s-.6-.3-.6-.8c0-.4.3-.8.6-.8s.6.4.6.8z"/><path d="m6.6 32.9c0 .5-.3.8-.6.8s-.6-.4-.6-.8c0-.5.3-.8.6-.8.4 0 .7.3.6.8z"/><path d="m6.6 34.9c0 .5-.3.8-.6.8s-.6-.4-.6-.8c0-.5.3-.8.6-.8.4-.1.6.3.6.8z"/><path d="m7.1 23.2c-.1.5-.4.8-.7.9-.3 0-.6-.3-.5-.7s.5-.8.8-.8c.3-.1.5.2.4.6z"/><path d="m7.6 21.5c-.1.4-.5.8-.8.8s-.5-.3-.4-.7.5-.7.8-.8c.3 0 .5.3.4.7z"/><path d="m11.9 13.2c-.1.3-.5.7-.9.7-.3 0-.5-.2-.4-.5s.5-.6.9-.7c.4 0 .5.2.4.5z"/><path d="m11.3 14.7c-.1.4-.5.7-.9.7-.3 0-.5-.2-.4-.6s.5-.7.9-.7.5.3.4.6z"/><path d="m10.7 16.3c-.1.4-.5.7-.9.7-.3 0-.5-.2-.4-.6s.5-.7.9-.7.5.2.4.6z"/><path d="m10.1 17.9c-.1.4-.5.7-.9.8-.3 0-.5-.2-.4-.6s.5-.7.8-.8c.5 0 .7.2.5.6z"/><path d="m9.6 19.6c-.1.4-.5.7-.8.8-.3 0-.5-.3-.4-.6.1-.4.5-.8.8-.8.3-.1.5.2.4.6z"/><path d="m13.8 9.2c-.2.3-.6.5-.9.6-.4 0-.5-.2-.4-.5.2-.3.6-.5.9-.6.4 0 .6.2.4.5z"/><path d="m8.4 25c0 .4-.3.8-.7.9-.3 0-.6-.3-.6-.7s.3-.8.7-.8c.4-.2.6.1.6.6z"/><path d="m8.3 26.9c0 .4-.3.8-.7.9-.3 0-.6-.3-.6-.8s.3-.8.6-.9c.5 0 .7.4.7.8z"/><path d="m8.2 28.9c0 .5-.3.8-.6.9-.3 0-.6-.3-.6-.8s.3-.8.6-.9c.4 0 .6.3.6.8z"/><path d="m8.1 30.9c0 .5-.3.8-.6.9-.3 0-.6-.3-.6-.8s.3-.8.6-.9c.4-.1.7.3.6.8z"/><path d="m8.1 32.9c0 .5-.3.8-.6.8s-.6-.4-.6-.8c0-.5.3-.8.6-.8.3-.1.6.3.6.8z"/><path d="m8.1 34.9c0 .5-.3.8-.6.8s-.6-.4-.6-.8c0-.5.3-.8.6-.8.3-.1.6.3.6.8z"/><path d="m8.1 36.9c0 .5-.3.8-.6.8s-.6-.4-.6-.8c0-.5.3-.8.6-.8.3-.1.6.3.6.8z"/><path d="m8.6 23.1c-.1.4-.4.8-.7.8s-.6-.3-.5-.7.5-.8.8-.8.5.3.4.7z"/><path d="m9.1 21.3c-.1.4-.5.8-.8.8s-.5-.3-.4-.7.5-.8.8-.8.5.3.4.7z"/><path d="m8.1 38.9c0 .5-.3.8-.6.8s-.6-.4-.6-.8c0-.5.3-.8.6-.8.3-.1.6.3.6.8z"/><path d="m14.7 10.3c-.2.3-.6.6-.9.6-.4 0-.5-.2-.4-.5.2-.3.6-.6.9-.6.4 0 .6.2.4.5z"/><path d="m14.1 11.6c-.1.3-.6.6-.9.7-.4 0-.5-.2-.4-.5s.6-.6.9-.6c.3-.1.5.1.4.4z"/><path d="m13.4 13.1c-.1.3-.5.6-.9.7-.4 0-.5-.2-.4-.5s.5-.6.9-.7.6.1.4.5z"/><path d="m12.8 14.6c-.1.4-.5.7-.9.7s-.5-.2-.4-.6.5-.7.9-.7.6.2.4.6z"/><path d="m12.2 16.1c-.1.4-.5.7-.9.7s-.5-.2-.4-.6.5-.7.9-.7.6.2.4.6z"/><path d="m11.7 17.7c-.1.4-.5.7-.9.8-.4 0-.5-.2-.4-.6s.5-.7.9-.8c.3 0 .5.3.4.6z"/><path d="m11.1 19.4c-.1.4-.5.8-.9.8s-.5-.3-.4-.6c.1-.4.5-.7.9-.8.4 0 .6.2.4.6z"/><path d="m9.9 24.9c0 .4-.3.8-.7.9-.4 0-.6-.3-.6-.8s.3-.8.7-.9c.4 0 .7.3.6.8z"/><path d="m9.8 26.8c0 .5-.3.8-.7.9-.4 0-.6-.3-.6-.8s.3-.8.7-.9c.4 0 .6.4.6.8z"/><path d="m9.7 28.8c0 .5-.3.8-.7.9-.4 0-.6-.3-.6-.8s.3-.8.7-.9c.4 0 .6.3.6.8z"/><path d="m9.7 30.8c0 .5-.3.9-.7.9-.3 0-.6-.4-.6-.8 0-.5.3-.9.6-.9.4 0 .7.3.7.8z"/><path d="m9.6 32.8c0 .5-.3.9-.6.9s-.6-.4-.6-.8c0-.5.2-.9.6-.9.3 0 .6.3.6.8z"/><path d="m9.6 34.8c0 .5-.3.8-.6.8s-.6-.4-.6-.8c-.1-.4.2-.8.6-.8.3 0 .6.4.6.8z"/><path d="m9.6 36.9c0 .5-.3.8-.6.8s-.6-.4-.6-.8c0-.5.3-.8.6-.8.3-.1.6.3.6.8z"/><path d="m10.1 23c-.1.4-.4.8-.8.8s-.6-.3-.5-.7.5-.8.8-.8c.4-.1.7.2.5.7z"/><path d="m10.6 21.2c-.1.4-.5.8-.9.8s-.5-.3-.4-.7.5-.8.9-.8.5.3.4.7z"/><path d="m9.6 38.9c0 .5-.3.8-.6.8s-.6-.4-.6-.9c-.1-.4.2-.8.6-.8.3 0 .6.4.6.9z"/><path d="m40.7 8.9c-.1.3-.5.5-.9.5s-.7-.2-.7-.5c.1-.3.5-.5.9-.5.5.1.8.3.7.5z"/><path d="m40.4 10.1c-.1.3-.5.5-.9.5s-.7-.2-.7-.5c.1-.3.5-.5.9-.5.5 0 .8.2.7.5z"/><path d="m39.8 14.5c0 .4-.5.7-.9.7-.5 0-.8-.3-.8-.7.1-.4.5-.7.9-.7.5 0 .8.3.8.7z"/><path d="m41 7.9c-.1.2-.5.4-.9.4s-.7-.2-.6-.4.5-.4.9-.4.6.2.6.4z"/><path d="m41.3 7c-.1.2-.5.4-.9.4s-.7-.2-.6-.3c.1-.2.5-.3.9-.3.4-.1.6 0 .6.2z"/><path d="m41.6 6.3c-.1.1-.5.3-.8.3-.4 0-.6-.1-.6-.3.1-.2.4-.3.8-.3s.7.1.6.3z"/><path d="m38.7 37c0 .5-.4.9-.9.9s-.9-.4-.9-.9.4-.9.9-.9c.5-.1.9.4.9.9z"/><path d="m38.8 41.5c0 .5-.4.9-.9.9s-.9-.4-.9-.9.4-.9.9-.9c.5-.1.9.3.9.9z"/><path d="m38.7 39.2c0 .5-.4.9-.9.9s-.9-.4-.9-.9.4-.9.9-.9.9.4.9.9z"/><path d="m43.3 6.3c-.1.1-.4.3-.8.3s-.7-.1-.6-.3c0-.2.4-.3.8-.3s.6.1.6.3z"/><path d="m41 34.7c0 .5-.4.9-.9.9s-.9-.4-.9-.9.4-.9.9-.9.9.4.9.9z"/><path d="m41 37c0 .5-.4.9-.9.9s-.9-.4-.9-.9.4-.9.9-.9c.5-.1.9.4.9.9z"/><path d="m41.1 43.7c0 .5-.4.9-.9.9s-.9-.4-.9-.9.4-.9.9-.9c.4 0 .8.4.9.9z"/><path d="m41 41.5c0 .5-.4.9-.9.9s-.9-.4-.9-.9.4-.9.9-.9c.5-.1.9.4.9.9z"/><path d="m41 39.2c0 .5-.4.9-.9.9s-.9-.4-.9-.9.4-.9.9-.9.9.4.9.9z"/><path d="m43.3 28c0 .5-.4.9-.9.9s-.9-.4-.9-.9.4-.9.9-.9.9.4.9.9z"/><path d="m43.3 30.2c0 .5-.4.9-.9.9s-.9-.4-.9-.9.4-.9.9-.9.9.4.9.9z"/><path d="m43.2 32.5c0 .5-.4.9-.9.9s-.9-.4-.9-.9.4-.9.9-.9c.5-.1.9.4.9.9z"/><path d="m43.2 34.7c0 .5-.4.9-.9.9s-.9-.4-.9-.9.4-.9.9-.9.9.4.9.9z"/><path d="m43.2 37c0 .5-.4.9-.9.9s-.9-.4-.9-.9.4-.9.9-.9c.5-.1.9.4.9.9z"/><path d="m43.5 21.6c0 .5-.4.8-.9.9-.5 0-.9-.4-.9-.8 0-.5.4-.8.9-.8.5-.1.9.3.9.7z"/><path d="m43.5 19.7c0 .4-.4.8-.9.8s-.9-.4-.9-.8.4-.8.9-.8c.6 0 1 .4.9.8z"/><path d="m43.3 43.7c0 .5-.4.9-.9.9s-.9-.4-.9-.9.4-.9.9-.9.9.4.9.9z"/><path d="m43.3 45.9c0 .5-.4.9-.9.9s-.9-.4-.9-.9.4-.9.9-.9.9.4.9.9z"/><path d="m43.3 41.5c0 .5-.4.9-.9.9s-.9-.4-.9-.9.4-.9.9-.9c.4-.1.9.4.9.9z"/><path d="m43.2 39.2c0 .5-.4.9-.9.9s-.9-.4-.9-.9.4-.9.9-.9.9.4.9.9z"/><path d="m45.8 17.9c0 .4-.4.8-.9.8s-.9-.3-.9-.8c0-.4.4-.8.9-.8s.9.3.9.8z"/><path d="m45.6 23.7c0 .5-.4.9-.9.9s-.9-.4-.9-.9.4-.9.9-.9.9.4.9.9z"/><path d="m45.6 25.8c0 .5-.4.9-.9.9s-.9-.4-.9-.9.4-.9.9-.9.9.4.9.9z"/><path d="m45.5 28c0 .5-.4.9-.9.9s-.9-.4-.9-.9.4-.9.9-.9 1 .4.9.9z"/><path d="m45.5 30.2c0 .5-.4.9-.9.9s-.9-.4-.9-.9.4-.9.9-.9.9.4.9.9z"/><path d="m45.5 32.5c0 .5-.4.9-.9.9s-.9-.4-.9-.9.4-.9.9-.9c.5-.1.9.3.9.9z"/><path d="m45.5 34.7c0 .5-.4.9-.9.9s-.9-.4-.9-.9.4-.9.9-.9.9.4.9.9z"/><path d="m45.5 37c0 .5-.4.9-.9.9s-.9-.4-.9-.9.4-.9.9-.9c.5-.1.9.4.9.9z"/><path d="m45.7 21.6c0 .5-.4.8-.9.9-.5 0-.9-.4-.9-.8 0-.5.4-.8.9-.8.5-.1.9.3.9.7z"/><path d="m45.7 19.7c0 .4-.4.8-.9.8s-.9-.4-.9-.8.4-.8.9-.8.9.4.9.8z"/><path d="m45.5 43.7c0 .5-.4.9-.9.9s-.9-.4-.9-.9.4-.9.9-.9.9.4.9.9z"/><path d="m45.6 45.9c0 .5-.4.9-.9.9s-.9-.4-.9-.9.4-.9.9-.9c.4 0 .9.4.9.9z"/><path d="m45.5 41.5c0 .5-.4.9-.9.9s-.9-.4-.9-.9.4-.9.9-.9.9.4.9.9z"/><path d="m45.5 39.2c0 .5-.4.9-.9.9s-.9-.4-.9-.9.4-.9.9-.9.9.4.9.9z"/></g><g fill="#0c8d45"><path d="m7.1 20.4c-1.8.9-2.9 2.2-3.4 3.6-2.2 6.8 10.4 17 28.1 22.8s34 5 36.2-1.8c.3-1.1.3-2.2 0-3.4l.1-.8c.6 1.6.7 3 .3 4.4-1.1 3.4-5.6 5.5-12.5 5.9-.7 0-1.5.1-2.3.1-6.5 0-14.1-1.3-21.8-3.9-8.7-2.8-16.4-6.8-21.7-11.2-5.4-4.4-7.8-8.7-6.6-12.1.6-1.7 1.9-3.1 4.1-4.1"/><path d="m66.5 24.5c2.3 2.3 3.2 4.4 2.6 6.1-.8 2.4-4.4 3.7-10.1 3.7-.1 0-.3 0-.4 0-5.9-.1-13.3-1.5-20.9-3.9-7.6-2.5-14.4-5.7-19.2-9.2-4.9-3.5-7.1-6.8-6.3-9.2.6-1.7 2.5-2.9 5.8-3.4l-.8.5c-2.6.6-4.2 1.6-4.6 3-.7 2.3 1.5 5.5 6.2 8.8 4.8 3.4 11.6 6.7 19.1 9.1 7.5 2.5 14.9 3.8 20.8 3.9 5.7.1 9.4-1.2 10.2-3.5.5-1.4-.2-3.1-1.9-5.1z"/><path d="m3.8 41.7c-.9.5-1.5 1.2-1.7 2-.7 2.3 1.5 5.5 6.2 8.8 4.8 3.4 11.6 6.7 19.1 9.1 7.5 2.5 14.9 3.8 20.8 3.9 5.7.1 9.4-1.2 10.2-3.5.2-.7.2-1.4-.1-2.2l.3-.3c.4 1 .4 1.8.2 2.7-.8 2.4-4.4 3.7-10.1 3.7-.1 0-.3 0-.4 0-5.9-.1-13.3-1.5-20.9-3.9-7.6-2.5-14.4-5.7-19.2-9.2-4.9-3.5-7.1-6.8-6.3-9.2.3-.9 1-1.6 2-2.2"/><path d="m30.9 3.6c-3.9-.4-4.5.6-4.6.9-.4 1 1.3 2.8 4.6 4.9 3.4 2.2 8.1 4.6 13.4 6.6s10.4 3.5 14.4 4.2c3.9.6 6.3.4 6.7-.6s-1.4-2.9-4.8-5.1l-.9-1c4.4 2.6 6.6 4.9 6.1 6.3-.3.9-1.7 1.2-3.3 1.2-1.2 0-2.6-.2-3.8-.4-4-.7-9.2-2.2-14.5-4.2-5.3-2.1-10.1-4.4-13.5-6.7-2.5-1.6-5.3-3.9-4.7-5.4.5-1.4 3.6-1.3 6.4-.9"/><path d="m3.3 38.5c-1.4 1.4-2.1 2.7-1.8 3.8.4 2.4 4.5 4 11.2 4.5 6.8.5 15.7-.1 24.9-1.9 9.2-1.7 17.7-4.4 23.9-7.3 6-2.9 9.2-5.9 8.8-8.3-.2-1.1-1.3-2.1-3.1-2.9l-.2-.4c2.2.8 3.4 1.9 3.6 3.3.5 2.6-2.7 5.7-9 8.7-6.2 3-14.7 5.6-24 7.4-7.2 1.4-14.2 2.1-20.1 2.1-1.7 0-3.3-.1-4.9-.2-7-.5-11.1-2.3-11.5-4.8-.3-1.4.5-2.8 2.2-4.4"/><path d="m5 25.2c-4.4 2-4.7 3.2-4.6 3.6.5 2.3 13.9 2.1 33.1-1.9 8.6-1.8 16.6-4 22.5-6.2 5.6-2.1 8.9-4.1 8.6-5.3-.2-1-2.6-1.3-4.5-1.4l-.4-.4c3.3.2 5.1.7 5.3 1.8.4 1.8-4.6 4.1-8.9 5.7-5.9 2.2-13.9 4.4-22.6 6.2-9.8 2-19.9 3.4-26.5 3.4-4.2 0-6.9-.5-7.1-1.8-.2-1.1 1.5-2.5 5.2-4.2"/><path d="m11.1 57.2c-1.4 1-1.6 1.6-1.5 1.9.1.4.9 1.8 8.9 1.7 5.7-.1 13.1-.9 20.9-2.3s15-3.3 20.4-5.2c7.5-2.7 7.8-4.3 7.7-4.8-.1-.4-.5-.7-1.2-1l.2-.5c.9.4 1.5.8 1.6 1.4.2 1.1-1.1 2.8-8.1 5.4-5.4 1.9-12.6 3.8-20.4 5.2s-15.3 2.2-21 2.3c-.2 0-.4 0-.6 0-7 0-8.7-1.2-8.8-2.2-.1-.7.4-1.5 1.7-2.4"/><path d="m11.5 14.2c-1.8 1-2.7 1.8-2.6 2.4.2.9 2.8 1.4 7 1.3 4.4-.1 10.2-.9 16.2-2.1 13.4-2.7 22-6.6 21.6-8.4-.1-.7-1.7-1.2-4.3-1.3l-1-.4c2.8 0 5.4.4 5.6 1.6.5 2.6-10.7 6.6-21.9 8.9-6 1.2-11.8 2-16.2 2.1-.4 0-.8 0-1.1 0-2.9 0-6-.3-6.2-1.7-.2-1.1 1.5-2.3 3.7-3.3"/><path d="m3.5 32c-1.2 2.1-.3 5.6 2.5 10.1 3 4.8 8 10.1 14 14.8s12.2 8.4 17.6 10.2c5.3 1.9 9.1 1.8 10.7-.3.2-.3.4-.7.6-1l.5-.2c-.1.6-.4 1.1-.7 1.5-.9 1.1-2.5 1.7-4.5 1.7-1.8 0-4.1-.4-6.6-1.3-5.4-1.9-11.7-5.5-17.7-10.3s-11-10-14-14.9c-3.1-4.9-3.9-8.8-2.2-10.9 0 0 .1-.1.1-.1"/><path d="m14.7 11c-2.9-.6-4.8-.3-5.7.9-1.5 1.9 0 6.2 4.1 11.8 4.3 5.8 10.9 12.4 18.6 18.5s15.6 11.1 22.3 14c6.4 2.8 10.9 3.3 12.4 1.4 1.1-1.4.6-4-1.3-7.4l.4-.9c2.3 4 2.8 7 1.5 8.7-.8 1-2.2 1.4-3.8 1.4-3.1 0-7.5-.9-10-2.1-6.7-2.9-15.4-7.2-23.2-13.4s-13.5-13.4-17.8-19.3c-2.5-3.3-6.2-10.2-3.8-13.2 1.2-1.5 3.6-1.8 7.1-1"/><path d="m40.4 3.5c-7-3.3-12.6-3.9-14.6-1.4-1.6 2-.8 5.7 2.2 10.4 3 4.8 8 10.1 14 14.8s12.2 8.4 17.6 10.3c5.2 1.8 9.1 1.7 10.6-.2 1.8-2.2.4-6.8-3.4-12.2l-.8-2c5 6.4 6.8 11.9 4.7 14.6-.9 1.2-2.5 1.8-4.6 1.8-1.8 0-4.1-.5-6.7-1.4-5.4-1.9-11.7-5.6-17.7-10.3-6-4.8-11-10.1-14.1-14.9-3.1-4.9-3.9-8.9-2.2-11.1 2.4-3 8.9-2.1 17.1 2.1"/><path d="m3.7 41.3c-2.4 3.3-3.2 5.9-2.3 7.3 2.7 4.2 18.7-.9 35.1-11.2s27.9-22.6 25.3-26.8c-.9-1.4-3.3-1.8-6.9-1.2l-.9-.7c4.4-.8 7.3-.3 8.4 1.4 3 4.7-7.4 18.4-24.7 29.3-12.8 8.1-25.6 11.5-32.2 11.5-2.3 0-4-.6-4.7-1.8-1.2-1.9-.2-4.9 2.8-8.8"/></g><path d="m35.5 60.4c-13.8 0-25.1-11.2-25.1-25.1 0-13.8 11.2-25.1 25.1-25.1s25.1 11.2 25.1 25.1c-.1 13.9-11.3 25.1-25.1 25.1z" fill="#fff"/><path d="m35.5 60.4c-13.8 0-25.1-11.2-25.1-25.1 0-13.8 11.2-25.1 25.1-25.1s25.1 11.2 25.1 25.1c-.1 13.9-11.3 25.1-25.1 25.1zm0-46.7c-12 0-21.7 9.7-21.7 21.7s9.7 21.7 21.7 21.7 21.7-9.7 21.7-21.7-9.7-21.7-21.7-21.7z" fill="#0c8d45"/><path d="m31.7 22.7h-2.8v-1.6h-3v1.6h-2.8v26h2.8v1.4h3v-1.4h2.8z" fill="#fbb040"/><path d="m30.6 35.7 9.4 13h8.5l-9.4-13z" fill="url(#d)"/><path d="m30.6 35.7 9.4-13.1h8.5l-9.4 13.1z" fill="url(#e)"/></svg>