<svg viewBox="0 0 47 67.05" xmlns="http://www.w3.org/2000/svg"><g fill="#31cb9e"><path d="m20 33.52 25 14.32a1.32 1.32 0 0 0 2-1.14v-26.38a1.31 1.31 0 0 0 -1.29-1.32 1.36 1.36 0 0 0 -.71.2z"/><path d="m44.47 12.85-17.09-12.57a1.37 1.37 0 0 0 -1.91.25 1.77 1.77 0 0 0 -.23.48l-6.24 27.99 25.32-14a1.26 1.26 0 0 0 .54-1.7 1.2 1.2 0 0 0 -.39-.45"/><path d="m27.36 66.75 17.11-12.57a1.28 1.28 0 0 0 .3-1.79 1.33 1.33 0 0 0 -.44-.38l-25.33-14.01 6.24 28a1.36 1.36 0 0 0 1.63 1 1.3 1.3 0 0 0 .49-.23"/><path d="m13.5 33 6.5-30.4a1.3 1.3 0 0 0 -1-1.52 1.31 1.31 0 0 0 -1 .21l-16.65 12.77a3.48 3.48 0 0 0 -1.35 2.75v32.4a3.46 3.46 0 0 0 1.35 2.79l16.57 12.73a1.29 1.29 0 0 0 2-1.31z"/></g></svg>