<svg xmlns="http://www.w3.org/2000/svg" viewBox="0 0 1058.44 1058.42"><path fill="#a02870" d="M111.29 406.33 0 517.6 222.56 517.6 111.29 406.33z"/><path fill="#80286c" d="m222.53 540.84h-222.49l111.24 111.26 111.25-111.26"/><path fill="#c42c79" d="m373.48 389.9l-111.28-111.27v222.53l111.28-111.26"/><path fill="#a02870" d="m238.97 501.16v-222.53l-111.27 111.27 111.27 111.26"/><path fill="#c42c79" d="m389.91 373.46l111.26-111.25h-222.53l111.27 111.25"/><path fill="#fff" d="m267.02 250.59l.01.01v-.03l-.01.02"/><path fill="#e4327f" d="m389.91 127.7l-111.28 111.28h222.55l-111.27-111.28"/><path fill="#0a8b4b" d="m652.1 111.27l-111.26-111.27v222.53l111.26-111.26"/><path fill="#e4327f" d="M517.6 222.54 517.6 0 406.33 111.27 517.6 222.54z"/><path fill="#632a69" d="m373.48 668.52l-111.28-111.26v222.53l111.28-111.27"/><path fill="#80286c" d="m127.71 668.52l111.27 111.26v-222.52l-111.27 111.26"/><path fill="#167b55" d="m668.53 373.46l111.27-111.25h-222.53l111.26 111.25"/><path fill="#0a8b4b" d="m557.26 238.97h222.54l-111.27-111.27-111.27 111.27"/><path fill="#402863" d="m501.19 819.44h-222.56l111.27 111.28 111.29-111.28"/><path fill="#632a69" d="m389.91 684.96l-111.26 111.25h222.51l-111.25-111.25"/><path fill="#fff" d="m807.83 512.77l.02.01.01-.01h-.03"/><path fill="#21695e" d="m930.73 389.9l-111.27-111.26v222.51l111.27-111.25"/><path fill="#167b55" d="m684.96 389.9l111.28 111.27v-222.54l-111.28 111.27"/><path fill="#402863" d="m406.34 947.15l111.26 111.26v-222.53l-111.26 111.27"/><g fill="#223160"><path d="m540.84 835.89v222.51l111.27-111.25-111.27-111.26"/><path d="m668.53 930.72l111.28-111.28h-222.56l111.28 111.28"/></g><path fill="#1e4561" d="m668.53 684.96l-111.25 111.25h222.5l-111.25-111.25"/><path fill="#245661" d="m819.47 557.26v222.52l111.26-111.26-111.26-111.26"/><path fill="#1e4561" d="m684.96 668.52l111.28 111.27v-222.54l-111.28 111.27"/><path fill="#245661" d="m947.16 652.1l111.26-111.27h-222.52l111.26 111.27"/><path fill="#21695e" d="m947.16 406.33l-111.29 111.27h222.57l-111.28-111.27"/></svg>