<svg viewBox="0 0 340 336" xmlns="http://www.w3.org/2000/svg"><path d="m137 0v146.17a56.84 56.84 0 0 0 56.83 56.83h146.17v-203zm160 160h-103.5a13.49 13.49 0 0 1 -13.5-13.5v-103.5h117z" fill="#c4d761"/><path d="m153.13 293h-96.63a13.49 13.49 0 0 1 -13.5-13.5v-98.67l-43-43.83v142.17a56.84 56.84 0 0 0 56.83 56.83h138.52z" fill="#952589"/><path d="m180 123h35.06l43.81-43h-78.87z" fill="#77ceea"/><path d="m216 160v80h-103.5a13.49 13.49 0 0 1 -13.5-13.5v-103.5h38v-43h-81v146.17a56.84 56.84 0 0 0 56.83 56.83h146.17v-123z" fill="#77ceea"/><path d="m131 80h6v43h-6z" fill="#43b6c9"/><path d="m297 159.86v.14h-103.5a13.49 13.49 0 0 1 -13.5-13.5v-103.5h.14l-43-43h-.14v146.17a56.84 56.84 0 0 0 56.83 56.83h146.17v-.14z" fill="#1cb28c"/><path d="m259 160h-65.5a12.33 12.33 0 0 1 -1.5-.09v43c.61 0 1.22.05 1.83.05h65.17z" fill="#77ceea"/><path d="m180 123h37v.14l43-43v-.14h-80z" fill="#77ceea"/><path d="m215.85 240h-103.35a13.49 13.49 0 0 1 -13.5-13.5v-103.35l-43-43v146a56.84 56.84 0 0 0 56.83 56.85h146z" fill="#0158a8"/></svg>