<svg xmlns="http://www.w3.org/2000/svg" viewBox="0 0 2000 2000" width="2000" height="2000"><g><g fill="#eda735"><path d="M858.44,9.87c197.07-27.87,402.41,3.5,581,91.48,203.21,99,370.36,268.93,466,473.26,86.39,182.58,114.19,391.53,81,590.48-33.18,203.07-131.84,394.65-277.46,540.37-139.73,141.09-322.78,239.19-518.1,276.43-202.08,39-416.31,14.87-603.61-70.61-208.84-94.1-382.75-262.44-483.79-467.63-94.91-190.08-125.21-410.9-88-619.72C50.36,623.84,149,435.89,293,292.55,444.26,140.59,645.84,39.49,858.44,9.87m-0.38,224.94c-176.79,32-340.56,128.34-455.25,266.31C291.76,633.21,227,803,222.39,975.38c-5.51,161.71,40.94,324.67,131.84,458.76,104,155.59,266.31,271.68,448,318.55,187.06,49.36,392.64,26.12,563.17-65.48,171.16-90.6,305.88-247.19,369.11-430,63.35-180,57.34-383.28-17.15-559-68.49-164-195.45-302.8-352.83-385.78C1211,230.06,1029.22,203.19,858.06,234.81Z"/><path d="m693.54 501q101.79-.37 203.58 0c.13 101-.25 201.83.13 302.8 79 .37 157.88-.12 236.89.25q.19 63.92 0 128c-79 .25-158-.12-236.89.25q-.38 63.55 0 127.09c78.75-.12 157.51.12 236.26-.12 1.13 42.61.63 85.23.75 128-79 .62-158.13 0-237.14.37-.13 47-.13 94.1.13 141.09q252.6.37 505.08.12c.38 56.74.25 113.47.13 170.33-236.26-.12-472.65.25-708.91-.25q0-155.59 0-311.3c-32.05 0-64.11-.25-96.16-.25q-.19-63.92.13-127.84c31.93-.12 64-.25 95.91-.12q.38-63.73 0-127.22c-32.05.12-64-.12-96-.25-.13-42.61-.13-85.1-.13-127.72 32.05-.12 64.11-.37 96.16-.37.33-100.91.08-201.86.08-302.86"/></g><path d="m858.06 234.81c171.16-31.62 353-4.75 506.46 77.61 157.38 83 284.34 221.82 352.83 385.78 74.5 175.71 80.51 379 17.15 559-63.23 182.83-197.95 339.42-369.11 430-170.53 91.6-376.12 114.85-563.17 65.48-181.67-46.86-343.94-163-448-318.55-90.88-134.13-137.34-297.04-131.83-458.75 4.61-172.38 69.37-342.17 180.42-474.26 114.69-138 278.46-234.32 455.25-266.31m-164.52 266.19c0 101 .25 202-.13 302.8-32.05 0-64.11.25-96.16.37 0 42.61 0 85.1.13 127.72 32.05.12 64 .37 96 .25q.38 63.55 0 127.22c-31.93-.12-64 0-95.91.12q-.38 63.92-.13 127.84c32.05 0 64.11.25 96.16.25q.19 155.59 0 311.3c236.26.5 472.65.12 708.91.25.13-56.86.25-113.6-.13-170.33q-252.6 0-505.08-.12c-.25-47-.25-94.1-.13-141.09 79-.37 158.13.25 237.14-.37-.13-42.74.38-85.35-.75-128-78.75.25-157.51 0-236.26.12q-.38-63.55 0-127.09c78.88-.37 157.88 0 236.89-.25q.19-64.11 0-128c-79-.37-157.88.12-236.89-.25-.38-101 0-201.83-.13-302.8q-101.74-.32-203.53.06" fill="#231f20"/></g></svg>