<svg id="Layer_1" xmlns="http://www.w3.org/2000/svg" viewBox="0 0 556.8 487" width="2500" height="2187"><style>.st0{fill:#506db4}</style><path class="st0" d="M367.6 172c.2 1.7.3 2.6.3 3.5.3 22.6.7 45.2 1 67.7.4 37.6.7 75.2 1.2 112.7.5 40 1.2 80 1.7 120 .1 8-2.2 10.1-10.3 10.2-19.2.2-38.4.6-57.6.8-8.9.1-11.4-2.5-11.4-11.5-.3-69.5-.8-139-.8-208.6 0-10.1 1.5-20.2 3.1-30.2 1.3-7.9 5.2-14.8 10.7-20.7 15.4-16.7 34-29.1 53.9-39.6 2.5-1.2 5.1-2.6 8.2-4.3zM198.4 154.4c11.8-6.9 23.4-13.7 35.1-20.5C307.3 90.8 381 47.6 454.8 4.5l4.2-2.4c5.9-3.2 9.3-2.3 12.7 3.6 9.9 17.1 19.9 34.3 29.8 51.4 4.1 7 3.3 10-3.8 14.1-54.3 31.2-108.5 62.6-162.9 93.6-13.4 7.6-27.4 14.2-41.4 20.4-10.4 4.6-21.3 3.8-32.1.8-22.4-6.3-42.3-17.7-61.7-30.1-.4-.3-.6-.8-1.2-1.5zM268 310.8c-6.4-3.6-12.1-6.7-17.8-10-81-46.1-162.1-92.3-243.3-138.4-7.9-4.5-8.7-7.2-4.2-15 9.7-16.9 19.5-33.7 29.2-50.6 3.7-6.4 7-7.4 13.5-3.6 59.3 34.3 118.7 68.6 177.9 103.1 8.4 4.9 16.2 11.1 23.9 17.2 11.6 9.2 15.3 22.5 18.2 36.2 4.2 19.9 3.3 40 2.6 61.1zM246.2 86.8c-20.6 12.4-40.5 24.4-60.3 36.3-4.8 2.9-9.5 6-14.5 8.6-1.6.8-4.5 1-6 .2C130.2 111.8 95.1 91.5 60 71.2c-8.1-4.7-9.5-10.5-4.8-18.7L81 7.8c4.8-8.2 11.1-10 19.4-5.1 40.7 23.5 81.4 47 122 70.5 7.8 4.3 15.5 8.8 23.8 13.6zM403.2 247.5c-.1-1.5-.3-2.4-.3-3.3-.4-28-.8-56.1-1-84.1 0-1.6 1.3-4 2.7-4.8 35-20.4 70.2-40.6 105.3-60.8 7.5-4.3 14-2.4 18.3 5.1l25.8 44.7c5 8.7 3.4 14.6-5.3 19.7-47.1 27.2-94.2 54.4-141.3 81.5-1.2.6-2.5 1.2-4.2 2zM185.7 304.7c2 1 3.4 1.6 4.7 2.4 23.6 12.8 47.2 25.7 70.9 38.4 2.6 1.4 4.1 2.7 4.2 6.1.2 40.3.6 80.6.9 121 .1 9.1-4.4 13.5-13.6 13.6-16.9.2-33.9.5-50.8.7-5.3.1-10.5-.8-13.2-6.1-1.1-2.2-1.7-4.9-1.7-7.3-.5-52.7-.9-105.5-1.3-158.2-.1-3.2-.1-6.4-.1-10.6z"/></svg>