<svg viewBox="0 0 247.7 247.7" xmlns="http://www.w3.org/2000/svg" xmlns:xlink="http://www.w3.org/1999/xlink"><linearGradient id="a"><stop offset="0" stop-color="#4f9fef"/><stop offset="1" stop-color="#055bc3"/></linearGradient><linearGradient id="b" gradientUnits="userSpaceOnUse" x1="242.4131" x2="10.4131" xlink:href="#a" y1="124.8556" y2="122.8556"/><linearGradient id="c" gradientUnits="userSpaceOnUse" x1="167.5833" x2="79.5833" xlink:href="#a" y1="123.8333" y2="123.8333"/><path d="m123.8 0c-68.4 0-123.8 55.4-123.8 123.8s55.4 123.8 123.8 123.8 123.8-55.4 123.8-123.8-55.4-123.8-123.8-123.8zm0 217.1c-51.5 0-93.3-41.8-93.3-93.3s41.8-93.3 93.3-93.3 93.3 41.8 93.3 93.3-41.8 93.3-93.3 93.3z" fill="url(#b)"/><path d="m123.8 82.6c-22.8 0-41.3 18.5-41.3 41.3s18.5 41.3 41.3 41.3 41.3-18.5 41.3-41.3c0-22.9-18.5-41.3-41.3-41.3zm-13.5 30.5c-5.6 0-10.1-4.5-10.1-10.1s4.5-10.1 10.1-10.1 10.1 4.5 10.1 10.1-4.5 10.1-10.1 10.1z" fill="url(#c)"/></svg>