<svg xmlns="http://www.w3.org/2000/svg" width="1692" height="2000" viewBox="0 0 1692 2000"><g fill="#001a3e" transform="translate(-155.62)"><path d="M816.42,1995.6l260.95-293.25c4.4-4.4,1.46-11.73-5.87-11.73H784.17c-1.47,0-4.4-1.47-5.87-2.94L535,1415c-1.47-2.94-2.93-5.87-1.47-8.8L941,706.74c1.47-2.93,1.47-5.86,0-7.33L772.44,409.09c-2.93-4.4-10.26-4.4-13.19,0L156.72,1444.28a9.39,9.39,0,0,0,0,8.8l483.78,544c1.47,1.46,2.93,2.93,5.86,2.93h164.2C812,1998.53,815,1997.07,816.42,1995.6Z"/><path d="m995.27 4.4l-170 290.32c-1.47 2.93-1.47 5.87 0 7.33l175.92 302.06 466.18 800.58c1.47 2.93 1.47 5.87-1.46 8.8l-246.29 275.66-262.46 296.19c-4.4 4.4-1.47 11.73 5.86 11.73h392.89c1.46 0 4.39-1.47 5.86-2.94l483.78-544c1.47-2.94 2.93-5.87 1.47-8.8l-840.02-1436.93c-1.47-5.87-8.8-5.87-11.73 0"/></g></svg>