<svg enable-background="new 0 0 226.8 226.8" viewBox="0 0 226.8 226.8" xmlns="http://www.w3.org/2000/svg"><g fill="#ffcb01"><path d="m81 96.3s-1 1.7-4.1 1.6c-.5 3.1 1.3 6.8 4.3 6.8s4.7-4 4.7-6.9c-.2 0-3.6.6-4.9-1.5z"/><ellipse cx="73.2" cy="76.4" rx="4.5" ry="7"/><ellipse cx="81" cy="91.1" rx="4.9" ry="3"/><path d="m113.4 0c-62.6 0-113.4 50.8-113.4 113.4s50.8 113.4 113.4 113.4 113.4-50.8 113.4-113.4-50.8-113.4-113.4-113.4zm55 104c-2.3 3.9-8.2 6.9-8.2 7.7s1.9 2.1 2.6 6.4-.4 18.7-.1 21.6 3.8 2 4.7 8.6-2.7 27.1-3.6 27.9-12.4.2-13.2-.3 2.6-6.4 3.7-9.6 1.5-11.1 1-12.3c-.5-1.3-10.1-6-10.1-6s-.8 7.1-1.6 10.3-4 11.1-6 12.2c-1.9 1.2-12 .3-12.9-.3s7.6-14.6 7.5-16.6c-.2-2-8.6-9.4-10-11.3s-1.5-6.5-1.5-6.5-12.2 8.1-12.8 8.7c-.5.6-3.6 30.5-5.5 32.4s-9.8.9-10.4 0 1.2-8.6 1.4-14c.3-5.5.3-13.7-.4-15.2-.8-1.5-6.9-2-6.9-2s.1 8.2 0 13.9-1.1 15.5-2.3 16.3-9.7.8-10.6 0c-.8-.8 1.5-11.7 0-22.5s-5.4-17.4-6.8-25.9c-1.4-8.6-.4-24.5-1-26s-9-9.2-9.6-10.9c-.7-1.7-.2-5.3-.2-5.3s-1.1-.4-1.2-2.3 5.1-7.7 5.1-7.7c-.2-3-1.8-24.2 3.7-26.5s13.6 11.8 13.6 11.8 3.9-1.3 7.9-1.1 6.8 1.7 7.4 1.7 7.8-14.3 14.1-12.2c6.3 2.2 3.9 26.3 3.9 26.3.8 1.3 7.8 10.1 4 9.6 1.5 6-3.9 10.2-3.9 10.2s5.8 2.9 8.7 3.4 10.9.3 10.9.3-.8-11 10.1-16.9c10.8-6 21 2.1 21 2.1.5-3.6 5.9 3.5 5.9 5.5 3.6 0 1.8 9.1 1.8 9.1s2.1 1.5-.2 5.4z"/><ellipse cx="92.5" cy="76.4" rx="4.5" ry="7"/></g></svg>