<svg enable-background="new 0 0 404 404" viewBox="0 0 404 404" xmlns="http://www.w3.org/2000/svg"><path d="m200 202v-140.9c-76.9 1.1-138.9 63.8-138.9 140.9 0 77.8 63.1 140.9 140.9 140.9v-140.9z" fill="none"/><path d="m61.1 202c0-77.1 62-139.8 138.9-140.9v-61.1c-110.6 1.1-200 91.1-200 202 0 111.6 90.4 202 200 202v-61.1c-75.8 0-138.9-63.1-138.9-140.9z" fill="#d77960"/><path d="m202 61.1c77.8 0 140.9 63.1 140.2 139.6h61.1c.7-110.3-89.7-200.7-201.3-200.7-.7 0-1.3 0 0 0v61.1c-1.3 0-.7 0 0 0z" fill="#ccc"/><path d="m404 203h-61.1c0 76.8-63.1 139.9-140.9 139.9v61.1c111.6 0 202-90.4 202-201z" fill="#213741"/><g fill="#cf7c58"><path d="m181.8 199.3 13.8 20.3c-2.6 5-8.1 14.2-18.7 22-.2.1-.4.3-.6.4-20.5 14.7-49 12.4-66.1-6-.4-.5-.8-.9-1.3-1.4-3.6-4.1-6.2-8.5-8.1-12.5-5.9-12.8-6.2-27.6-.5-40.6 1.4-3.1 3.1-6.3 5.4-9.4 4.8-6.6 10.7-11.1 16.4-14.2 15.7-8.4 34.5-8.2 50.4-.1 1.4.7 2.8 1.5 4.2 2.3 2.9 1.7 5.4 3.6 7.7 5.5 6.3 5.2 11.3 11.8 15.1 19 4.1 7.8 9.7 16.9 17.4 26.2 5.5 6.6 11.1 12 16.2 16.3 2.2 1.9 10.9 8.6 23.7 8.3 14.5-.3 23.6-9.4 25.3-11.2h20.2c-2.1 4.3-6.5 11.7-14.5 18-.5.4-1 .7-1.4 1.1-13 9.5-29.9 11.7-45.2 6.7-3-1-6.1-2.2-9.3-3.8-.5-.3-1.1-.5-1.6-.8-6.7-3.6-12.7-8.5-17.6-14.3-5-5.7-10.1-12.2-15.3-19.6-4.4-6.3-8.3-12.5-11.6-18.3-5.3-9.2-13.2-16.7-23-20.9-.5-.2-1-.4-1.6-.6-.9-.3-1.7-.7-2.6-.9-12.6-4.2-26.8-1.2-35.9 8.5-.3.4-.7.7-1 1.1-4 4.7-6.2 9.6-7.3 13.8-1.7 6.2-1.6 12.8.5 18.9.6 1.8 1.4 3.7 2.5 5.5 3 5.3 7.2 8.9 11.5 11.5 12.8 7.7 29.2 7 40.5-2.8.3-.3.7-.6 1-.9 11.3-10.5 11.4-24.8 11.4-27.1z"/><path d="m223.4 210.3-14.7-23.7c.9-3.5 5-17.8 19.3-27.3 10.8-7.1 21.6-7.8 26.7-7.7h3.2c5.2-.1 16.5.6 27.6 8.1 10.3 7 14.9 16.2 16.7 20.2l-21-.3c-2.2-2.6-5.9-6.3-11.5-8.8-5.2-2.4-10.4-2.9-14.9-2.7-10 .5-19.4 5.3-25.4 13.3-.5.7-1.1 1.5-1.6 2.3-7.3 11.7-5 23.8-4.4 26.6z"/></g></svg>