<svg enable-background="new 0 0 117.3 117.3" viewBox="0 0 117.3 117.3" xmlns="http://www.w3.org/2000/svg" xmlns:xlink="http://www.w3.org/1999/xlink"><image height="148" opacity=".75" overflow="visible" transform="translate(-15.6667 -15.1667)" width="148" xlink:href="465C1AF1.png"/><circle cx="58.7" cy="58.7" fill="#20202f" r="58.7"/><g fill="none" stroke="#fff" stroke-miterlimit="10"><path d="m61 102.8v-89" opacity=".33"/><path d="m16.5 58.3h89.2" opacity=".33"/><path d="m18.1 101.1 83.2-82.7" opacity=".32"/><path d="m18.7 57c1.3-.1 3.2-.1 5.5-.3 2.9-.2 10.9-.6 14.5-1.2 10.5-1.6 18.2-9.2 20.8-11.9 6-5.9 8.8-12 11.5-18 2.2-4.7 3.5-8.8 4.3-11.8" opacity=".66"/><path d="m104.7 45.2c-3.8.8-9.2 2.3-15.2 5.2-5.6 2.7-12.3 6-17.7 12.8-6.9 8.8-8 18.8-8.8 26.1-.5 4.4-.5 8.1-.3 10.7" opacity=".66"/></g></svg>