<svg xmlns="http://www.w3.org/2000/svg" viewBox="0 0 1270.35 2000"><g fill="#1a6896"><path d="m933.19 393.92l-14.23 109.12 81.67 68.43 145.71-51.08-97.71-81.09-48.95-93.11-261.26-249.69 69.69 177.22 125.08 120.2"/><path d="m744.18 450.74l-16.16 96.89-184.2 132.25 18.14 215.32 139.39 354.97 78.96-142.9-25.61-39.58 76.02-183.92v-94.01l144.59-197.34-90.68-75.98 14.42-110.53-118.43-113.79-100.11-252.25-7.06-3.84.96 234.29 69.77 180.42"/><path d="m1111.9 1087.52l14.32-25.08v-189.8l32.81-322.45-151.66 53.15-144.33 196.99v89.83l-71.99 174.21 17.26 26.69 279.68 19.64 23.91-23.18"/><path d="m663.04 1536.38l44.18 21.47 33.42-37 97.89-14.34 37.01-50.14 83.56-2.37 4.78-25.08 82.35-15.5 24.79-271.52-262.73-18.45-94.71 171.36-92.26 249.21 9.5 46.07 32.22-53.71"/><path d="m438.48 1147.07l-245.02 107.67 6.41 154.29 103.86 52.13 25.06 41.78 52.53-27.46 31.03 9.55 9.56-25.05 21.49-8.37 66.85 26.27 25.06 62.08 53.72-25.08h8.62l83.91-226.66-137.37-349.87-105.71 208.72"/><path d="m154.51 1161.53l20.49 66.03 239.88-105.43 114.69-226.45-17.81-211.58-454.03-149.05 105.14 546.49-8.36 79.99"/><path d="M698.34 529.16 710.85 454.15 642.13 276.43 640.99 1 620.08 0 595 11.94 67.7 504.31 524.2 654.18 698.34 529.16z"/><path d="m1555.46 1380l-91.94-43.59-6.25 68.57 27.79 13.18-116.56 79.84-129.58 103.59-136.92 35.41-111.07 58.4-138.83-51.34-248.4-141.36-104.55-85.21 20.3-7.51-2.82-67.86-87 32.13-64.85 122.66 11 215.2 134 57.64 20.98 16.25 276.07 135 23.08 3.48 131.65 72.46 68.85 3.13 90.7-47.95 284.65-134.57 212.62-116.63 16.8-188.86m-643.78 357.48v64l-11.86-.54-128.54-70.79-24.67-3.72-261.1-127.63-22.13-17.21-104.7-45-8.06-157.26 40-75.69 115 93.79 251.86 143.32 141.19 52.44 27.64 111.65m551.04-176.12l-179.8 98.68-284.42 134.47-69.12 36.51v-54l16.38-36.53-29.33-118.48 102.92-54.11 140-36.21 133.54-106.83 127.24-87.11 54.46 90.14" transform="translate(-364.82)"/></g></svg>