<svg xmlns="http://www.w3.org/2000/svg" viewBox="0 0 2000 2000"><path fill="#fff" d="m1006.52 1022.56l153.78-56.18 38.24-143.74-1.3-3.56-151.38 55.3 109.06-410.66h-309.3l-142.7 535.9-119.08 43.5-39.36 148.2 119-43.46-84 315.86h823.18l52.78-196.58h-513.88l64.96-244.58"/><path d="M1000,0C447.7,0,0,447.72,0,1000S447.7,2000,1000,2000s1000-447.72,1000-1000S1552.28,0,1000,0Zm402.66,1463.72H579.48l84-315.86-119,43.46,39.36-148.2,119.08-43.5,142.7-535.9h309.3L1045.86,874.38l151.38-55.3,1.3,3.56L1160.3,966.38l-153.78,56.18-65,244.58h513.88Z" fill="#bebebe"/></svg>