<svg xmlns="http://www.w3.org/2000/svg" xmlns:xlink="http://www.w3.org/1999/xlink" viewBox="0 0 609.1 635.04"><defs><linearGradient id="J" x1="389.25" y1="363.43" x2="509.07" y2="574.02" xlink:href="#1"/><linearGradient id="6" x1="500.35" x2="656.19" gradientUnits="userSpaceOnUse"><stop/><stop offset=".02" stop-color="#030808"/><stop offset=".07" stop-color="#0a1e1e"/><stop offset=".13" stop-color="#0f2f2f"/><stop offset=".2" stop-color="#123838"/><stop offset=".29" stop-color="#133b3b"/><stop offset=".74" stop-color="#226a6a"/><stop offset="1" stop-color="#298181"/></linearGradient><linearGradient id="I" x1="233.95" y1="552.12" x2="283.97" y2="580.04" gradientUnits="userSpaceOnUse"><stop stop-color="#298181"/><stop offset=".6" stop-color="#133b3b"/><stop offset=".83" stop-color="#071717"/><stop offset="1"/></linearGradient><linearGradient id="C" x1="474.09" x2="629.93" gradientUnits="userSpaceOnUse"><stop/><stop offset=".02" stop-color="#030808"/><stop offset=".09" stop-color="#0a1e1e"/><stop offset=".17" stop-color="#0f2f2f"/><stop offset=".25" stop-color="#123838"/><stop offset=".37" stop-color="#133b3b"/><stop offset=".76" stop-color="#226a6a"/><stop offset="1" stop-color="#298181"/></linearGradient><linearGradient id="D" x1="236.48" y1="576.73" x2="320.58" y2="623.83" gradientUnits="userSpaceOnUse"><stop stop-color="#298181"/><stop offset=".53" stop-color="#133b3b"/><stop offset=".79" stop-color="#071717"/><stop offset="1"/></linearGradient><linearGradient id="H" x1="518.46" y1="479.22" x2="568.74" y2="507.57" xlink:href="#G"/><linearGradient id="K" x1="443.5" x2="599.34" xlink:href="#C"/><linearGradient id="G" x1="480.75" y1="446.45" x2="550.39" y2="484.12" gradientUnits="userSpaceOnUse"><stop/><stop offset=".03" stop-color="#030808"/><stop offset=".13" stop-color="#0a1e1e"/><stop offset=".24" stop-color="#0f2f2f"/><stop offset=".36" stop-color="#123838"/><stop offset=".53" stop-color="#133b3b"/><stop offset=".82" stop-color="#226a6a"/><stop offset="1" stop-color="#298181"/></linearGradient><linearGradient id="1" x1="317.14" y1="427.18" x2="484.75" y2="721.63" gradientUnits="userSpaceOnUse"><stop/><stop offset=".03" stop-color="#030808"/><stop offset=".12" stop-color="#0a1e1e"/><stop offset=".21" stop-color="#0f2f2f"/><stop offset=".32" stop-color="#123838"/><stop offset=".47" stop-color="#133b3b"/><stop offset="1" stop-color="#298181"/></linearGradient><linearGradient id="2" x1="332.8" y1="395.92" x2="491.11" y2="675.95" xlink:href="#1"/><linearGradient id="4" x1="239.65" y1="600.56" x2="357.31" y2="667.24" gradientUnits="userSpaceOnUse"><stop stop-color="#298181"/><stop offset=".64" stop-color="#133b3b"/><stop offset=".84" stop-color="#071717"/><stop offset="1"/></linearGradient><linearGradient id="5" x1="480.19" x2="634.81" xlink:href="#0"/><linearGradient id="3" x1="368.48" y1="393.66" x2="507.88" y2="638.95" xlink:href="#1"/><radialGradient id="O" cx="265.51" cy="333.91" r="136.12" gradientTransform="matrix(0 1-1.84 0 880.27 68.39)" xlink:href="#0"/><radialGradient id="P" cx="235.59" cy="314.81" r="134.46" gradientTransform="matrix(0 1-1.72 0 778.45 79.22)" xlink:href="#0"/><radialGradient id="R" cx="401.54" cy="362.15" r="0" xlink:href="#0"/><radialGradient id="V" cx="286.29" cy="317.34" r="347.84" gradientUnits="userSpaceOnUse"><stop/><stop offset=".04" stop-color="#030808"/><stop offset=".17" stop-color="#0a1e1e"/><stop offset=".32" stop-color="#0f2f2f"/><stop offset=".48" stop-color="#123838"/><stop offset=".71" stop-color="#133b3b"/><stop offset=".89" stop-color="#226a6a"/><stop offset="1" stop-color="#298181"/></radialGradient><radialGradient id="Q" cx="334.74" cy="398.44" r="251.83" gradientTransform="matrix(1 0 0 .59 0 163.96)" gradientUnits="userSpaceOnUse"><stop/><stop offset=".04" stop-color="#030808"/><stop offset=".19" stop-color="#0a1e1e"/><stop offset=".35" stop-color="#0f2f2f"/><stop offset=".53" stop-color="#123838"/><stop offset=".77" stop-color="#133b3b"/><stop offset=".91" stop-color="#226a6a"/><stop offset="1" stop-color="#298181"/></radialGradient><radialGradient id="U" cx="327.97" cy="306.11" r="330.16" gradientUnits="userSpaceOnUse"><stop/><stop offset=".04" stop-color="#030808"/><stop offset=".17" stop-color="#0a1e1e"/><stop offset=".31" stop-color="#0f2f2f"/><stop offset=".47" stop-color="#123838"/><stop offset=".69" stop-color="#133b3b"/><stop offset=".88" stop-color="#226a6a"/><stop offset="1" stop-color="#298181"/></radialGradient><radialGradient id="S" cx="631.61" cy="400.12" r="158.18" xlink:href="#0"/><radialGradient id="N" cx="328.22" cy="358.28" r="138.97" gradientTransform="matrix(0 1-1.7 0 938.12 30.07)" xlink:href="#L"/><radialGradient id="T" cx="269.1" cy="342.76" r="310.36" xlink:href="#Q"/><radialGradient id="0" cx="37.26" cy="190.09" r="72.32" gradientUnits="userSpaceOnUse"><stop/><stop offset=".01" stop-color="#030808"/><stop offset=".05" stop-color="#0a1e1e"/><stop offset=".1" stop-color="#0f2f2f"/><stop offset=".15" stop-color="#123838"/><stop offset=".22" stop-color="#133b3b"/><stop offset=".71" stop-color="#226a6a"/><stop offset="1" stop-color="#298181"/></radialGradient><radialGradient id="M" cx="353.13" cy="382.78" r="162.99" gradientTransform="matrix(0 1-1.58 0 958.24 29.65)" xlink:href="#L"/><radialGradient id="9" cx="503.91" cy="188.87" r="31.81" gradientUnits="userSpaceOnUse"><stop/><stop offset=".03" stop-color="#030808"/><stop offset=".13" stop-color="#0a1e1e"/><stop offset=".23" stop-color="#0f2f2f"/><stop offset=".35" stop-color="#123838"/><stop offset=".52" stop-color="#133b3b"/><stop offset=".82" stop-color="#226a6a"/><stop offset="1" stop-color="#298181"/></radialGradient><radialGradient id="7" cx="618" cy="273.89" r="46.18" gradientTransform="matrix(.00646.99998-.99998.00646 936.04-397.37)" gradientUnits="userSpaceOnUse"><stop/><stop offset=".03" stop-color="#030808"/><stop offset=".11" stop-color="#0a1e1e"/><stop offset=".21" stop-color="#0f2f2f"/><stop offset=".32" stop-color="#123838"/><stop offset=".47" stop-color="#133b3b"/><stop offset=".8" stop-color="#226a6a"/><stop offset="1" stop-color="#298181"/></radialGradient><radialGradient id="8" cx="633.79" cy="270.55" r="64.92" gradientTransform="matrix(.00925.99996-.99996.00925 898.45-365.73)" gradientUnits="userSpaceOnUse"><stop/><stop offset=".02" stop-color="#030808"/><stop offset=".09" stop-color="#0a1e1e"/><stop offset=".16" stop-color="#0f2f2f"/><stop offset=".24" stop-color="#123838"/><stop offset=".35" stop-color="#133b3b"/><stop offset=".76" stop-color="#226a6a"/><stop offset="1" stop-color="#298181"/></radialGradient><radialGradient id="A" cx="104.45" cy="187.65" r="26.18" gradientUnits="userSpaceOnUse"><stop/><stop offset=".03" stop-color="#030808"/><stop offset=".12" stop-color="#0a1e1e"/><stop offset=".22" stop-color="#0f2f2f"/><stop offset=".33" stop-color="#123838"/><stop offset=".48" stop-color="#133b3b"/><stop offset=".81" stop-color="#226a6a"/><stop offset="1" stop-color="#298181"/></radialGradient><radialGradient id="L" cx="379.16" cy="398.68" r="135.46" gradientTransform="matrix(0 1-2.26 0 1278.65 19.52)" gradientUnits="userSpaceOnUse"><stop/><stop offset=".17" stop-color="#091d1d"/><stop offset=".36" stop-color="#133b3b"/><stop offset=".76" stop-color="#226a6a"/><stop offset="1" stop-color="#298181"/></radialGradient><radialGradient id="B" cx="71.46" cy="188.26" r="61.52" xlink:href="#0"/><radialGradient id="W" cx="352.6" cy="273.69" r="336.52" xlink:href="#Q"/><radialGradient id="E" cx="433.07" cy="420.71" r="57.97" gradientTransform="matrix(.87555.48313-.48313.87555 257.11-156.86)" gradientUnits="userSpaceOnUse"><stop/><stop offset=".04" stop-color="#030808"/><stop offset=".18" stop-color="#0a1e1e"/><stop offset=".33" stop-color="#0f2f2f"/><stop offset=".5" stop-color="#123838"/><stop offset=".74" stop-color="#133b3b"/><stop offset=".9" stop-color="#226a6a"/><stop offset="1" stop-color="#298181"/></radialGradient><radialGradient id="F" cx="475.92" cy="442.87" r="44.8" gradientTransform="matrix(.87241.48877-.48877.87241 277.24-176.13)" xlink:href="#E"/></defs><path fill="url(#0)" d="m32.37 127.18h9.77v125.83h-9.77z"/><path transform="matrix(.4947-.86906.86906.4947-393.11 555.27)" fill="url(#1)" d="m396.05 382.25h9.77v384.3h-9.77z"/><path transform="matrix(.49212-.87053.87053.49212-353.83 547.39)" fill="url(#2)" d="m407.04 353.92h9.77v364h-9.77z"/><path transform="matrix(.49409-.86941.86941.49409-315.36 544.39)" fill="url(#3)" d="m425.13 342.47h9.77v318.95h-9.77z"/><path transform="matrix(.87001-.49303.49303.87001-370.26 146.15)" fill="url(#4)" d="m223.5 629.01h149.91v9.77h-149.91z"/><path d="M520.33,251.85a4.89,4.89,0,0,1-2.4-9.15l144.84-81.56a4.89,4.89,0,1,1,4.8,8.51L522.72,251.22A4.83,4.83,0,0,1,520.33,251.85Z" transform="translate(-96.52-83.42)" fill="url(#5)"/><path d="M481.24,231.08a4.89,4.89,0,0,1-2.42-9.14l146.07-82.79a4.89,4.89,0,0,1,4.82,8.51L483.64,230.44A4.78,4.78,0,0,1,481.24,231.08Z" transform="translate(-96.52-83.42)" fill="url(#6)"/><path transform="matrix(.00646-.99998.99998.00646 294.76 855.18)" fill="url(#7)" d="m608.85 267.5h118.3v9.77h-118.3z"/><path transform="matrix(.00925-.99996.99996.00925 260.85 818.39)" fill="url(#8)" d="m592.36 265.67h82.87v9.77h-82.87z"/><path fill="url(#9)" d="m499.02 163.83h9.77v50.09h-9.77z"/><path fill="url(#A)" d="m99.56 162.6h9.77v50.09h-9.77z"/><path fill="url(#B)" d="m66.58 147.94h9.77v80.63h-9.77z"/><path d="M440.48,208.09a4.89,4.89,0,0,1-2.41-9.14l146.07-82.78a4.89,4.89,0,0,1,4.82,8.5L442.89,207.46A4.9,4.9,0,0,1,440.48,208.09Z" transform="translate(-96.52-83.42)" fill="url(#C)"/><path transform="matrix(.8725-.48862.48862.8725-354.31 129.21)" fill="url(#D)" d="m226.03 595.4h105.01v9.77h-105.01z"/><path transform="matrix(.87555-.48313.48313.87555-245.86 178.12)" fill="url(#E)" d="m392.61 415.82h80.92v9.77h-80.92z"/><path transform="matrix(.87241-.48877.48877.87241-252.27 205.76)" fill="url(#F)" d="m433.8 437.99h84.24v9.77h-84.24z"/><path transform="matrix(.87957-.47578.47578.87957-255.82 217.94)" fill="url(#G)" d="m473.16 460.41h84.72v9.77h-84.72z"/><path transform="matrix(.87104-.49121.49121.87104-268.77 247.22)" fill="url(#H)" d="m513.25 488.51h60.75v9.77h-60.75z"/><path transform="matrix(.87318-.4874.4874.87318-339.56 114.59)" fill="url(#I)" d="m228.91 561.19h60.16v9.77h-60.16z"/><path transform="matrix(.49455-.86915.86915.49455-276.88 543.89)" fill="url(#J)" d="m444.3 332.12h9.77v273.23h-9.77z"/><path transform="matrix(.49788-.86724.86724.49788-432.58 424.46)" fill="#298181" d="m265.64 504.78h9.77v78.73h-9.77z"/><path d="M399.39,185.88a4.89,4.89,0,0,1-2.41-9.14L543,94a4.89,4.89,0,1,1,4.82,8.5L401.79,185.25A4.84,4.84,0,0,1,399.39,185.88Z" transform="translate(-96.52-83.42)" fill="url(#K)"/><path d="M236.13,718.46a7.18,7.18,0,0,1-3.57-1,7,7,0,0,1-3.52-6.1l0-251.34a9.51,9.51,0,0,1,4.83-8.27l165.23-93.87L404,366.4,238.83,460.21l0,246.55L399.13,615.9l4.82,8.51L239.62,717.53A7.1,7.1,0,0,1,236.13,718.46Z" transform="translate(-96.52-83.42)" fill="url(#L)"/><path d="m199.17 695.13a4.89 4.89 0 0 1 -4.89 -4.89v-255.26a9.51 9.51 0 0 1 4.83 -8.28l158.89-90.29a4.89 4.89 0 0 1 4.83 8.5l-158.76 90.22v255.11a4.89 4.89 0 0 1 -4.9 4.89" transform="translate(-96.52-83.42)" fill="url(#M)"/><path d="M169.2 669.92a4.89 4.89 0 0 1 -4.89 -4.89V407.53a9.52 9.52 0 0 1 4.84 -8.28l150.31-86.61a4.89 4.89 0 1 1 4.88 8.47L174.09 407.68V665A4.89 4.89 0 0 1 169.2 669.92" transform="translate(-96.52-83.42)" fill="url(#N)"/><path d="M136.22,641.82a4.89,4.89,0,0,1-4.89-4.89V379.43a9.5,9.5,0,0,1,4.84-8.28l144.26-80.53a4.88,4.88,0,1,1,4.76,8.53L141.1,379.59V636.93A4.88,4.88,0,0,1,136.22,641.82Z" transform="translate(-96.52-83.42)" fill="url(#O)"/><path d="M102,616.17a4.88,4.88,0,0,1-4.88-4.89V353.77A9.51,9.51,0,0,1,102,345.5l138.13-78.08a4.89,4.89,0,0,1,4.81,8.51l-138,78V611.28A4.89,4.89,0,0,1,102,616.17Z" transform="translate(-96.52-83.42)" fill="url(#P)"/><path d="M565.87,717.85a7.13,7.13,0,0,1-3.48-.92L299.93,566.65a4.88,4.88,0,1,1,4.85-8.48l258.41,148,0-246.52L106.29,200V610.67a4.89,4.89,0,1,1-9.77,0V195.47a7.11,7.11,0,0,1,10.6-6.2l461,261.9a9.52,9.52,0,0,1,4.82,8.27l0,251.32a7,7,0,0,1-3.53,6.12A7.14,7.14,0,0,1,565.87,717.85Z" transform="translate(-96.52-83.42)" fill="url(#Q)"/><path d="m705.48 611.28h-9.77v-410.68l-133.22 74.12-4.75-8.54 137.16-76.31a7.11 7.11 0 0 1 10.58 6.21m-5.8 2.32" transform="translate(-96.52-83.42)" fill="url(#S)"/><path d="M600.43 695.7a5 5 0 0 1 -5 -5V429.57l-464.1-261a5 5 0 1 1 4.92 -8.74L600.46 420.9a9.74 9.74 0 0 1 5 8.49V690.68A5 5 0 0 1 600.43 695.7m-4.87-266" transform="translate(-96.52-83.42)" fill="url(#T)"/><path d="M634.63 673.71a5 5 0 0 1 -5 -5V407.59l-464.09-261a5 5 0 0 1 4.92 -8.75L634.67 398.92a9.73 9.73 0 0 1 5 8.48V668.69A5 5 0 0 1 634.63 673.71m-4.87-266" transform="translate(-96.52-83.42)" fill="url(#U)"/><path d="M667.61 645.61a5 5 0 0 1 -5 -5V379.49l-464.1-261a5 5 0 0 1 4.92 -8.75L667.65 370.82a9.73 9.73 0 0 1 5 8.48V640.6A5 5 0 0 1 667.61 645.61m-4.87-266" transform="translate(-96.52-83.42)" fill="url(#V)"/><path d="M700.6 620a5 5 0 0 1 -5 -5V353.83l-464.09-261a5 5 0 1 1 4.92 -8.75L700.63 345.17a9.71 9.71 0 0 1 5 8.48V614.94A5 5 0 0 1 700.6 620m-4.87-266" transform="translate(-96.52-83.42)" fill="url(#W)"/></svg>