<svg enable-background="new 0 0 29 16.9" viewBox="0 0 29 16.9" xmlns="http://www.w3.org/2000/svg" xmlns:xlink="http://www.w3.org/1999/xlink"><mask id="a" height="16.9" maskUnits="userSpaceOnUse" width="14.5" x="14.5" y="0"><path d="m0 16.9h188.8v-23.9h-188.8z" fill="#fff"/></mask><mask id="b" height="16.9" maskUnits="userSpaceOnUse" width="14.5" x="0" y="0"><path d="m0 16.9h188.8v-23.9h-188.8z" fill="#fff"/></mask><mask id="c" height="11.8" maskUnits="userSpaceOnUse" width="4.8" x="12.1" y="2.6"><path d="m0 16.9h188.8v-23.9h-188.8z" fill="#fff"/></mask><path d="m20.5 12.1c-2 0-3.7-1.6-3.7-3.7 0-2 1.6-3.7 3.7-3.7s3.7 1.6 3.7 3.7-1.6 3.7-3.7 3.7m0-12.1c-2.4 0-4.5 1-6 2.6 1.5 1.5 2.4 3.6 2.4 5.9s-.9 4.4-2.4 5.9c1.5 1.6 3.7 2.6 6 2.6 4.7 0 8.4-3.8 8.4-8.5s-3.7-8.5-8.4-8.5" fill="#00a8e7" mask="url(#a)"/><path d="m8.4 12.1c-2 0-3.7-1.6-3.7-3.7 0-2 1.6-3.7 3.7-3.7s3.7 1.6 3.7 3.7-1.6 3.7-3.7 3.7m6.1-9.5c-1.5-1.6-3.7-2.6-6.1-2.6-4.6 0-8.4 3.8-8.4 8.5s3.8 8.5 8.4 8.5c2.4 0 4.5-1 6-2.6-1.5-1.5-2.4-3.6-2.4-5.9s1-4.4 2.5-5.9" fill="#da1157" mask="url(#b)"/><path d="m12.1 8.5c0 2.3.9 4.4 2.4 5.9 1.5-1.5 2.4-3.6 2.4-5.9s-.9-4.4-2.4-5.9c-1.5 1.5-2.4 3.6-2.4 5.9" fill="#1f3464" mask="url(#c)"/></svg>