<svg enable-background="new 0 0 178.7 247.8" viewBox="0 0 178.7 247.8" xmlns="http://www.w3.org/2000/svg"><path d="m107.3 84-56.2-41.8c.6-2.2 1-4.6 1-7 0-14.4-11.6-26-26-26s-26 11.6-26 26 11.6 26 26 26c6.8 0 12.9-2.6 17.5-6.8z" fill="#d75e00"/><path d="m152.6 0c-11.8 0-21.4 9.6-21.4 21.4 0 4.9 1.7 9.4 4.4 13l-19.7 41.2 29.4-34.1c2.3.8 4.7 1.3 7.3 1.3 11.8 0 21.4-9.6 21.4-21.4s-9.6-21.4-21.4-21.4z" fill="#ffb722"/><path d="m115.7 181.7-4-82-11.9 81.8c-15 3.4-26.2 16.8-26.2 32.8 0 18.6 15.1 33.6 33.6 33.6s33.6-15.1 33.6-33.6c.1-15.8-10.6-28.9-25.1-32.6z" fill="#fc9100"/><path d="m169 91.4c-3.3 0-6.2 1.6-7.9 4.1l-29.9-1 28.2 5.9c0 .2-.1.5-.1.7 0 5.4 4.4 9.7 9.7 9.7 5.4 0 9.7-4.4 9.7-9.7 0-5.4-4.3-9.7-9.7-9.7z" fill="#fa862b"/><path d="m90 96.2-19.9 9.9c-1.2-.7-2.6-1.1-4.2-1.1-4.8 0-8.8 3.9-8.8 8.8s3.9 8.8 8.8 8.8c4.8 0 8.8-3.9 8.8-8.8 0-1.1-.2-2.2-.6-3.2z" fill="#e3bd57"/><circle cx="111.7" cy="88.3" fill="#fa7a00" r="27.1"/></svg>