<svg enable-background="new 0 0 243.8 243.8" viewBox="0 0 243.8 243.8" xmlns="http://www.w3.org/2000/svg"><circle cx="121.9" cy="121.9" fill="#002340" r="121.9"/><g fill="#fff"><path d="m166.1 85.2c-3-5.8-8.8-9.5-15.3-9.6-9.9-.4-18.3 7.4-18.7 17.3-.1 1.8.1 3.7.6 5.5l7.8 27.7-18.7 27.2-18.7-27.1 7.8-27.8c2.6-9.6-3.1-19.5-12.6-22.1-1.7-.5-3.5-.7-5.4-.6-9.9.3-17.7 8.6-17.4 18.5.1 3.5 1.2 6.8 3.2 9.7l16.3 23.5-10.8 38.5c-.3 1 .3 1.9 1.2 2.2.2 0 .3.1.5.1h4.1c.8 0 1.5-.5 1.7-1.3l8.8-31.4 20.6 29.9c.3.4.8.5 1.3.2.1-.1.2-.1.2-.2l20.6-29.9 8.8 31.4c.2.8.9 1.3 1.7 1.3h4.1c1 0 1.8-.8 1.8-1.8 0-.2 0-.3-.1-.5l-10.8-38.5 16.3-23.6c3.9-5.5 4.3-12.7 1.1-18.6m-68.5 32.8-12.7-18.4c-2.2-3.2-2.5-7.4-.6-10.8 2.7-5.1 9-7.1 14.2-4.4 4.3 2.3 6.5 7.2 5.2 11.9zm61.2-18.4-12.7 18.4-6-21.6c-1.5-5.6 1.8-11.3 7.4-12.9 5.6-1.5 11.3 1.8 12.9 7.4.8 2.9.2 6.1-1.6 8.7"/><path d="m121.9 212.9c-50.3 0-91-40.7-91-91s40.7-91 91-91 91 40.7 91 91c-.1 50.2-40.8 90.9-91 91m0-175.4c-46.6 0-84.4 37.8-84.4 84.4s37.8 84.4 84.4 84.4 84.4-37.8 84.4-84.4c-.1-46.6-37.8-84.3-84.4-84.4"/></g></svg>