<svg enable-background="new 0 0 32 32" viewBox="0 0 32 32" xmlns="http://www.w3.org/2000/svg"><circle cx="16" cy="16" fill="#47b95c" r="16"/><g fill="#fff"><path d="m16 6c-5.5 0-10 4.5-10 10v.4h4.7l2.3-3.9 3 4.3 3-4.3 2.3 3.9h4.7c0-.1 0-.3 0-.4 0-5.5-4.5-10-10-10zm6.9 9.2c-.4-3.4-3.3-6.1-6.9-6.1s-6.5 2.7-6.9 6.1h-1.2c.4-4.1 3.9-7.3 8.1-7.3s7.7 3.2 8.1 7.3z"/><path d="m18.9 14.7-2.9 4.2-2.9-4.2-1.7 2.9h-5.3c.8 4.8 4.9 8.4 9.9 8.4s9.1-3.6 9.9-8.4h-5.3s-1.7-2.9-1.7-2.9zm3.4 4.1h1.3c-1.1 3.1-4.1 5.3-7.6 5.3s-6.5-2.2-7.6-5.3h1.3c1.1 2.4 3.5 4.1 6.3 4.1s5.3-1.7 6.3-4.1z"/></g></svg>