<svg enable-background="new 0 0 226.3 226.3" viewBox="0 0 226.3 226.3" xmlns="http://www.w3.org/2000/svg" xmlns:xlink="http://www.w3.org/1999/xlink"><linearGradient id="a" gradientUnits="userSpaceOnUse" x1="113.161" x2="113.161" y1="36.0546" y2="262.3766"><stop offset="0" stop-color="#026fa3"/><stop offset="1" stop-color="#0c397b"/></linearGradient><path d="m113.2 0c-62.5 0-113.2 50.7-113.2 113.2s50.7 113.2 113.2 113.2 113.2-50.7 113.2-113.2-50.7-113.2-113.2-113.2zm-35.6 143.6-36.1 7.9 49.7-95.9 14.4 32c-18.1 3.6-31.8 19.7-31.8 38.9-.1 6 1.2 11.8 3.8 17.1zm35.8 10.6c-15.3 0-27.7-12.4-27.7-27.7s12.4-27.7 27.7-27.7 27.7 12.4 27.7 27.7-12.4 27.7-27.7 27.7zm35.7-10.5c2.6-5.4 3.9-11.2 3.9-17.2 0-19.1-13.5-35-31.4-38.8l15.1-32.1 48.2 95.9z" fill="url(#a)"/><circle cx="112.9" cy="113.2" fill="none" r="97.6" stroke="#fff" stroke-miterlimit="10" stroke-width="4"/></svg>