<svg xmlns="http://www.w3.org/2000/svg" viewBox="0 0 1410 2000" width="2000" height="2000"><g fill="#37dcd8" transform="translate(-295)"><path d="M998.95,667.85l282.07-282A3247.23,3247.23,0,0,0,1000,0,3258.12,3258.12,0,0,0,718.57,387.51Z"/><path d="m1574.9 948.95c-76.44-167.62-152.63-323.45-240.76-474.84l-335.19 335.15-333.38-333.33c-83.35 143.79-156.82 293.41-229.57 455.67-79.18 220.16-209.34 457.66-97.62 669.14 192 364.4 643.2 505.38 1007.65 313.42a752.93 752.93 0 0 0 313.47 -313.42c110.64-211.48-5.42-431.64-84.6-651.79"/></g></svg>