<svg xmlns="http://www.w3.org/2000/svg" viewBox="0 0 639.8 640" enable-background="new 0 0 639.8 640"><path d="M319.3,0h1c0.8,1,213.7,214.4,319.5,319.9c0,0-49.3,49.5-73.9,74.2C484,476.1,320.1,640,320.1,640L0,320.1
		C0,320.1,318.2,2.5,319.3,0" fill="#0001fc"/><path d="m198.2 143.5c16.2-.2 32.4.1 48.6-.1 4.8-.7 8.5 3.7 10.5 7.5 8.3 25.7 16.2 51.5 24.7 77 11.6 35 22.9 70.1 34.3 105.1.2.8 1 1.2 1.6 1.7 1.6-3.8 2.8-7.8 4.1-11.8 13.1-42.1 27.6-83.6 40.2-125.9 5.6-14.4 9.5-29.5 14.6-44.1 1.2-3 2.4-6.2 5.2-8.1 2.6-1.6 5.9-1.5 8.8-1.6 15 .1 29.9.2 44.9.1 3.9.9 7 4.3 8.5 8 6.4 21.7 14 43 20.7 64.5 7.6 24.1 15.5 48 23.3 72 11.4 35.7 23 71.4 34.5 107.1 1.2 4 3 7.8 3.8 11.8.7 2.7-1.4 4.9-2.8 6.9-17.9 0-35.8.1-53.6 0-2.3-2.1-5.2-3.9-6-7.2-3.1-11.3-6.9-22.4-10.1-33.6-13-46.9-27.8-93.2-41.2-139.9-.6-2.4-1.3-4.8-2.8-6.9-2.6 4.3-3.5 9.3-5 14-7.7 23.1-15.3 46.2-22.8 69.4-10.9 32.4-21.7 64.8-32.2 97.3-1.7 3.9-5.8 7.2-10.2 6.9-15-.3-30 0-45-.2-3.7 0-8.2-.3-10.6-3.5-2.8-3.9-3.8-8.7-5.3-13.2-5.7-19.5-12.5-38.7-18.8-58-8.4-27.1-17.8-53.8-26.4-80.9-3.7-11.2-6.6-22.7-11.1-33.7-17.1 57.5-33.9 115.2-51 172.8-1.4 4.3-1.6 9.3-4.9 12.8-1.9 2.3-4.7 4.2-7.9 3.9-16.1-.4-32.1.2-48.2-.2-1.4-2-3.6-4-3-6.7.8-3 2.2-5.9 3.1-8.8 25.7-79.7 51.5-159.4 77.1-239.1 1.2-3.5 2-7.1 3.6-10.4 1.9-1.8 4-4.2 6.8-4.9" fill="#fff"/></svg>