<svg enable-background="new 0 0 32 32" viewBox="0 0 32 32" xmlns="http://www.w3.org/2000/svg"><g clip-rule="evenodd" fill-rule="evenodd"><circle cx="16" cy="16" fill="#ffaa05" r="16"/><path d="m16.8 11.6v1.9h2.2l-1 1.1h-1.5v1.4h1.5l-.8 1.1h-.8v2.9l-1.3 1.7v-4.7h-1.8l1-1.1h.8v-1.4h-2.5l1-1.1h1.5v-1.9c-.7-.8-1.7-1.2-3-1.2-2.5 0-4.4 2.6-4.4 5.3 0 1.7.4 3.2 1.2 4.4l-1.4 1.6c-1-1.6-1.5-3.4-1.5-5.5 0-4.5 3.9-7.1 6.6-7.1 1.7 0 3 .7 3.9 2.1 1.7-1.2 3.5-1.8 5.3-1.8 2.7 0 4.2 3.4 4.2 6.6 0 4.3-2.9 5.9-3.9 6.1-.1 0-.2 0-.2-.1-.1-.1 0-.2 0-.3 1.6-1.1 2.4-2.8 2.4-5 0-4.9-2.5-6-4.4-6-1 0-2.1.3-3.1 1z" fill="#fff"/></g></svg>