<svg enable-background="new 0 0 368.7 368.7" viewBox="0 0 368.7 368.7" xmlns="http://www.w3.org/2000/svg" xmlns:xlink="http://www.w3.org/1999/xlink"><linearGradient id="a"><stop offset="0" stop-color="#58bedb"/><stop offset="1" stop-color="#171a6f"/></linearGradient><linearGradient id="b" gradientUnits="userSpaceOnUse" x1="181.6271" x2="187.1271" xlink:href="#a" y1="2.7967" y2="366.7967"/><linearGradient id="c" gradientUnits="userSpaceOnUse" x1="181.9802" x2="185.9802" xlink:href="#a" y1="43.5859" y2="332.5859"/><path d="m336.2 134.4c-16.9-7.1-41.6-20.4-64.5-44.5-19.8-20.8-31.3-42.2-37.9-57.8-2.3-5.4-5.3-10.4-9.3-14.6-21.9-23.1-58.6-23.2-81.3-.6-6.9 6.9-12.3 15-16 24-6.3 15-17.6 35.6-37.6 54.8-18.1 17.3-36.9 27.3-50.9 33-8.1 3.3-15.5 8.2-21.7 14.4-22.3 22.3-22.6 58.2-.6 80.2 5.8 5.8 12.6 10.4 20.1 13.7 17 7.5 41 21 63.2 44.7 19.3 20.7 30.5 41.8 37 57.3 2.2 5.2 5.3 9.9 9.3 13.8 22 21.5 57.6 21.1 79.8-1l.2-.2c6-6 10.9-13.2 14.3-21 6.6-15 18-35.2 37.2-54.5 20.6-20.8 42.2-32.5 57.6-39.1 6.3-2.7 12.1-6.6 16.9-11.4 22.3-22.3 22.6-58.2.6-80.2l-.2-.2c-4.8-4.6-10.2-8.2-16.2-10.8zm-24.1 24.1c4.7 2.1 9.1 5 12.7 8.6 10.6 10.6 10.6 27.8 0 38.4-4 4-8.8 7.2-14.1 9.2-14.5 5.6-34.4 15.4-53.9 32.9-28.7 25.8-41.9 55.1-47.7 71.5-.8 2.1-2 4.1-3.6 5.7-10.6 10.6-27.8 10.6-38.4 0-4.1-4.1-7.3-8.9-9.6-14.2-6.9-16.2-19.5-39.5-42-61.7-24.1-23.9-49.2-36.4-65.2-42.7-2-.8-3.9-2-5.4-3.6l-.1-.1c-10.6-10.6-10.6-27.8 0-38.4 3.7-3.7 8.2-6.7 13.1-8.7 15.6-6.4 38.7-18.4 60.6-40.4 23.3-23.4 35.3-48 41.2-63.5 1-2.5 2.4-4.8 4.3-6.7 10.6-10.6 27.8-10.6 38.4 0 1.5 1.5 2.6 3.2 3.4 5.1 6.6 16.1 19 40.7 42.2 64.5 23.2 23.6 47.4 36.8 64.1 44.1z" fill="url(#b)"/><path d="m326.6 256.4c-6.9-17-15-43.8-14.2-77.1.7-28.7 7.7-52 14.1-67.7 2.2-5.4 3.6-11.1 3.8-16.9.9-31.8-25-57.9-57.1-57.9-9.7 0-19.3 1.9-28.3 5.6-15 6.1-37.6 12.8-65.4 12.1-25-.6-45.4-6.8-59.3-12.6-8.1-3.4-16.8-5.1-25.5-5.1-31.5 0-57.1 25.2-57.1 56.3 0 8.2 1.6 16.2 4.5 23.9 6.7 17.3 14.2 43.8 13.1 76.3-1 28.3-8 51.1-14.4 66.6-2.1 5.2-3.3 10.8-3.2 16.4.3 30.8 25.8 55.7 57.1 55.7h.3c8.6 0 17-1.6 25-4.7 15.3-5.9 37.6-12.2 64.9-12.3 29.2-.1 52.9 6.9 68.3 13.1 6.4 2.6 13.2 3.9 20 3.9 31.5 0 57.1-25.2 57.1-56.3v-.3c0-6.6-1.3-13-3.7-19zm-34 0c1.9 4.8 2.9 9.9 2.9 15.1 0 15-12.2 27.2-27.2 27.2-5.7 0-11.3-1.2-16.5-3.5-14.2-6.3-35.2-13.4-61.3-14.9-38.6-2.1-68.6 9.4-84.3 16.9-2 1-4.3 1.5-6.5 1.5-15 0-27.2-12.2-27.2-27.2 0-5.8 1.1-11.5 3.3-16.8 6.5-16.3 14.1-41.7 14-73.3-.1-33.9-9.1-60.5-15.9-76.3-.9-2-1.3-4.2-1.3-6.4v-.1c0-15 12.2-27.2 27.2-27.2 5.3 0 10.5 1 15.4 3.1 15.6 6.5 40.3 14.4 71.4 14.3 33-.1 58.9-9 74.1-15.7 2.5-1.1 5.1-1.6 7.8-1.6 15 0 27.2 12.2 27.2 27.2 0 2.1-.4 4.1-1.2 6-6.8 16-15.4 42.3-15.8 75.5-.6 32.8 7.2 59.3 13.9 76.2z" fill="url(#c)"/></svg>