<svg xmlns="http://www.w3.org/2000/svg" viewBox="0 0 472 425"><path fill="#1e252c" d="m0 0h472v425h-472z"/><g fill="#fff"><circle cx="229.73" cy="146" r="11"/><circle cx="256.73" cy="146" r="11"/><circle cx="229.73" cy="173" r="11"/><circle cx="256.73" cy="173" r="11"/><circle cx="283.73" cy="146" r="8"/><circle cx="283.73" cy="173" r="8"/><circle cx="201.73" cy="146" r="8"/><circle cx="201.73" cy="173" r="8"/><circle cx="229.73" cy="200" r="8"/><circle cx="256.73" cy="200" r="8"/><circle cx="229.73" cy="119" r="8"/><circle cx="256.73" cy="119" r="8"/><circle cx="229.73" cy="92" r="5"/><circle cx="256.73" cy="92" r="5"/><circle cx="310.73" cy="146" r="5"/><circle cx="310.73" cy="173" r="5"/><circle cx="174.73" cy="146" r="5"/><circle cx="174.73" cy="173" r="5"/><circle cx="229.73" cy="228" r="5"/><circle cx="256.73" cy="228" r="5"/><path d="M65.85,297.45h-.13q.25,2.81.26,9.18v28.82A2.54,2.54,0,0,1,63.45,338h-.23a2.54,2.54,0,0,1-2.53-2.54V295.31a4.17,4.17,0,0,1,4.17-4.17h.36A4.16,4.16,0,0,1,69,293.63l13.28,30.18a42.39,42.39,0,0,1,2.16,5.62h.19q1.41-3.85,2.26-5.75l13.56-30.08a4.16,4.16,0,0,1,3.8-2.46h0a4.17,4.17,0,0,1,4.17,4.17v40.14a2.54,2.54,0,0,1-2.54,2.54h-.39a2.54,2.54,0,0,1-2.53-2.54V306.56q0-3.72.46-9.11h-.13a29.4,29.4,0,0,1-1.41,4.54l-16,36H83.23"/><path d="M147.72,322.6H126.45c.09,3.72,1.09,6.6,3,8.62a10.34,10.34,0,0,0,7.9,3,16,16,0,0,0,7.34-1.76,2.12,2.12,0,0,1,3.05,1.92h0a2.17,2.17,0,0,1-1,1.84,20.46,20.46,0,0,1-10.62,2.51q-7.09,0-11.14-4.56t-4-12.82q0-7.8,4.43-12.72a14.18,14.18,0,0,1,11-4.92q6.57,0,10.16,4.25t3.59,11.79v.45A2.35,2.35,0,0,1,147.72,322.6Zm-3.14-4.54q0-4.63-2.23-7.22a7.64,7.64,0,0,0-6.13-2.58,8.62,8.62,0,0,0-6.43,2.71,12.25,12.25,0,0,0-3.27,7.09Z"/><path d="M187.19,338h0a2.68,2.68,0,0,1-2.68-2.68v-3h-.13q-3.72,6.46-11.5,6.47a12.52,12.52,0,0,1-10.08-4.49c-2.51-3-3.77-7.07-3.77-12.24q0-8.3,4.18-13.29a13.8,13.8,0,0,1,11.14-5q6.9,0,10,5.42h.13v-18a2.68,2.68,0,0,1,2.68-2.68h0a2.68,2.68,0,0,1,2.68,2.68v44.17A2.68,2.68,0,0,1,187.19,338Zm-2.68-15.13v-4.93a9.55,9.55,0,0,0-2.68-6.86,9,9,0,0,0-6.79-2.81,9.26,9.26,0,0,0-7.71,3.59q-2.82,3.6-2.81,9.93,0,5.79,2.69,9.13a8.8,8.8,0,0,0,7.24,3.35,9.17,9.17,0,0,0,7.27-3.23A12.07,12.07,0,0,0,184.51,322.86Z"/><path d="M206.6,296a3.41,3.41,0,0,1-2.45-1,3.32,3.32,0,0,1-1-2.48,3.43,3.43,0,0,1,3.46-3.5,3.49,3.49,0,0,1,2.5,1,3.49,3.49,0,0,1,0,4.95A3.46,3.46,0,0,1,206.6,296ZM206.54,338h0a2.68,2.68,0,0,1-2.68-2.68v-28.1a2.67,2.67,0,0,1,2.68-2.67h0a2.67,2.67,0,0,1,2.67,2.67v28.1A2.68,2.68,0,0,1,206.54,338Z"/><path d="M221.73,335.05V333a1.81,1.81,0,0,1,2.63-1.62l0,0a21.78,21.78,0,0,0,3.26,1.32,25.07,25.07,0,0,0,3.45.83,18.79,18.79,0,0,0,3.2.3q5.07,0,7.56-1.88a6.35,6.35,0,0,0,2.5-5.41,6.42,6.42,0,0,0-.83-3.3,9.48,9.48,0,0,0-2.3-2.56,22.48,22.48,0,0,0-3.48-2.22c-1.34-.71-2.79-1.46-4.33-2.24s-3.16-1.67-4.58-2.52a19.86,19.86,0,0,1-3.69-2.8,12,12,0,0,1-2.46-3.48,11.88,11.88,0,0,1,.5-10.13,12.07,12.07,0,0,1,3.69-3.9,16.67,16.67,0,0,1,5.22-2.29,23.8,23.8,0,0,1,6-.75,29.75,29.75,0,0,1,8.12.89,2.72,2.72,0,0,1,2,2.6h0a2.7,2.7,0,0,1-3.64,2.52,21.66,21.66,0,0,0-7-1.05,17.52,17.52,0,0,0-3.59.38,10.19,10.19,0,0,0-3.2,1.22,7.16,7.16,0,0,0-2.29,2.19,5.81,5.81,0,0,0-.88,3.27,6.66,6.66,0,0,0,.67,3.1,7.55,7.55,0,0,0,2,2.39,20.5,20.5,0,0,0,3.19,2.09q1.88,1,4.33,2.22t4.77,2.61a22.07,22.07,0,0,1,4,3,13.43,13.43,0,0,1,2.69,3.69,10.31,10.31,0,0,1,1,4.64,11.68,11.68,0,0,1-1.36,5.86,11.13,11.13,0,0,1-3.65,3.91,16.17,16.17,0,0,1-5.31,2.17,28.93,28.93,0,0,1-6.34.67,25.74,25.74,0,0,1-2.74-.18c-1.09-.12-2.2-.29-3.33-.52a26.51,26.51,0,0,1-3.22-.85,13.06,13.06,0,0,1-1.46-.58A1.75,1.75,0,0,1,221.73,335.05Z"/><path d="M287,338h0a2.68,2.68,0,0,1-2.68-2.68v-16.6q0-10.45-7.78-10.45a8.47,8.47,0,0,0-6.59,3,11.23,11.23,0,0,0-2.68,7.76v16.27a2.68,2.68,0,0,1-2.68,2.68h0a2.68,2.68,0,0,1-2.68-2.68V291.14a2.68,2.68,0,0,1,2.68-2.68h0a2.68,2.68,0,0,1,2.68,2.68v18.95h.13a12.16,12.16,0,0,1,11-6.34q11.31,0,11.31,13.62v17.94A2.68,2.68,0,0,1,287,338Z"/><path d="M324.16,338h0a2.68,2.68,0,0,1-2.68-2.68v-2.55h-.13a11.21,11.21,0,0,1-10.29,6q-5,0-7.82-2.65a9.13,9.13,0,0,1-2.83-7q0-9.37,11-10.91l10-1.4q0-8.54-6.89-8.53a16,16,0,0,0-7.59,1.86,2.24,2.24,0,0,1-3.32-1.95h0a2.27,2.27,0,0,1,1.2-2,21.06,21.06,0,0,1,10.17-2.43q11.79,0,11.79,12.48v19.08A2.68,2.68,0,0,1,324.16,338Zm-2.68-16.93-8.07,1.11a13.2,13.2,0,0,0-5.62,1.85c-1.26.88-1.89,2.45-1.89,4.69a5.09,5.09,0,0,0,1.75,4,6.75,6.75,0,0,0,4.65,1.55,8.59,8.59,0,0,0,6.58-2.79,10,10,0,0,0,2.6-7.07Z"/><path d="M357.52,306.47a2.48,2.48,0,0,1-2.74,2.49,9,9,0,0,0-1.31-.08,6.83,6.83,0,0,0-5.73,3.23q-2.31,3.24-2.31,8.82v14.38a2.68,2.68,0,0,1-2.68,2.68h0a2.68,2.68,0,0,1-2.67-2.68v-28.1a2.67,2.67,0,0,1,2.67-2.67h0a2.67,2.67,0,0,1,2.68,2.67v4.22h.13a11.77,11.77,0,0,1,3.5-5.51,8,8,0,0,1,5.26-2c.3,0,.59,0,.86,0a2.49,2.49,0,0,1,2.34,2.5Z"/><path d="M390.64,322.6H369.75c.08,3.72,1.08,6.6,3,8.62a10.35,10.35,0,0,0,7.91,3A16,16,0,0,0,388,332.5a2.11,2.11,0,0,1,3,1.92h0a2.14,2.14,0,0,1-1,1.84,20.46,20.46,0,0,1-10.62,2.51q-7.08,0-11.14-4.56t-4.05-12.82q0-7.8,4.43-12.72a14.18,14.18,0,0,1,11-4.92q6.57,0,10.16,4.25t3.59,11.79v.09A2.72,2.72,0,0,1,390.64,322.6Zm-2.76-4.54c0-3.09-.77-5.5-2.24-7.22a7.63,7.63,0,0,0-6.13-2.58,8.64,8.64,0,0,0-6.43,2.71,12.25,12.25,0,0,0-3.27,7.09Z"/><path d="M402.58,335.21h0A2.43,2.43,0,0,1,406,333a15.61,15.61,0,0,0,6.22,1.26c4.7,0,7.06-1.57,7.06-4.7a4.11,4.11,0,0,0-.61-2.27,6.08,6.08,0,0,0-1.63-1.65,12.48,12.48,0,0,0-2.42-1.29c-.92-.38-1.92-.78-3-1.19a40.88,40.88,0,0,1-3.9-1.78,11.88,11.88,0,0,1-2.81-2,7.59,7.59,0,0,1-1.7-2.56,9.11,9.11,0,0,1-.57-3.37,8,8,0,0,1,1.08-4.17,9.53,9.53,0,0,1,2.87-3,13.57,13.57,0,0,1,4.1-1.85,18.37,18.37,0,0,1,4.75-.62,20.35,20.35,0,0,1,6.15.89,2.36,2.36,0,0,1,1.63,2.26h0a2.36,2.36,0,0,1-3.16,2.22,16.23,16.23,0,0,0-5.33-.86,9.92,9.92,0,0,0-2.72.34,6.6,6.6,0,0,0-2.07,1,4.48,4.48,0,0,0-1.34,1.48,3.89,3.89,0,0,0-.47,1.91,4.55,4.55,0,0,0,.47,2.19,4.88,4.88,0,0,0,1.39,1.57,10.5,10.5,0,0,0,2.22,1.24c.87.37,1.86.77,3,1.21a42.7,42.7,0,0,1,4,1.75,13.66,13.66,0,0,1,3,2,7.79,7.79,0,0,1,1.91,2.6,9.24,9.24,0,0,1-.42,7.81,9.28,9.28,0,0,1-2.92,3,13.29,13.29,0,0,1-4.22,1.8,20.88,20.88,0,0,1-5,.59,19.93,19.93,0,0,1-7.43-1.3A2.43,2.43,0,0,1,402.58,335.21Z"/></g></svg>