<svg xmlns="http://www.w3.org/2000/svg" viewBox="0 0 1601.35 2000" width="2000" height="2000"><g transform="translate(-195.41)"><path d="M330.73,1305.27l118-67.67m1196.12,64.66-118-68.42" fill="none" stroke="#000" stroke-miterlimit="10" stroke-width="20.35"/><path d="M990.06,0L195.41,452.63v924.06l614.22,357.9-3-150.38L318.71,1298.5V612L926.87,955.64V1963.92l69.2,36.08,63.15-36.09V955.64L1664.44,612V1298.5l-484.92,279.7v150.37l617.23-345.11V452.63Zm6,847.37L396.88,500.76,990.06,148.87l607.46,345.87Z"/><path d="M531.47,1190.22l118.79-67.67m89.46-51.12,118.79-67.67m133.07-243.6V624.06m1.5-101.5V385.71m0-91V157.9m257.87,916.54-118-68.42m319.52,185-118.79-68.42" fill="none" stroke="#000" stroke-miterlimit="10" stroke-width="20.35"/></g></svg>