<svg xmlns="http://www.w3.org/2000/svg" width="2000" height="1930" viewBox="0 0 2000 1930"><g transform="translate(0-30)"><path d="m638.56 423.11c0 100.29-81.28 181.59-181.56 181.59s-181.54-81.3-181.54-181.59 81.29-181.59 181.54-181.59 181.56 81.3 181.56 181.59" fill="#016da4"/><path d="M1211.2,207.56c0,98-79.43,177.53-177.46,177.53S856.21,305.57,856.21,207.56,935.68,30,1033.74,30,1211.2,109.51,1211.2,207.56Z" fill="#09a1d3"/><path d="m1719.41 414.79c0 97.44-79 176.47-176.46 176.47s-176.4-79-176.4-176.47 79-176.45 176.4-176.45a176.45 176.45 0 0 1 176.46 176.45" fill="#09a8ff"/><path d="m2000 779.07c0 96.31-78.05 174.39-174.31 174.39a174.39 174.39 0 1 1 0 -348.77c96.26.01 174.31 78.08 174.31 174.38" fill="#02d5ff"/><path d="m2000 1268.52c0 94.34-76.45 170.87-170.76 170.87s-170.84-76.53-170.84-170.87a170.8 170.8 0 1 1 341.6 0" fill="#ffcb00"/><path d="M1758.28,1649.43a145,145,0,1,1-145-145.11A145,145,0,0,1,1758.28,1649.43Z" fill="#ff9700"/><path d="M1327.69,1824.59a135.37,135.37,0,1,1-135.36-135.43A135.36,135.36,0,0,1,1327.69,1824.59Z" fill="#fc6d0b"/><path d="M928.55,1821.09a134.73,134.73,0,1,1-134.71-134.76A134.77,134.77,0,0,1,928.55,1821.09Z" fill="#fc0000"/><path d="M578.23 1633.29A112.23 112.23 0 1 1 466 1521 112.26 112.26 0 0 1 578.23 1633.29" fill="#ff220a"/><path d="M96.22,807.13l184.68,300,152.48-300H530v565H455.48v-220l7-237.49L309.21,1211.11h-57L67.11,915.81l7.37,236.33v220H0v-565Z" fill="#0f70a0"/></g><g fill="#0f70a0"><path d="m843.63 1348.62l-213.88-577.93h94.93l156.05 452.8 156.79-452.8h95.32l-214.28 577.93h-74.93"/><path d="M1225,1309.73c38.62,8.33,83.13,13.43,113.5,13.43a213.24,213.24,0,0,0,48-5.51,129.85,129.85,0,0,0,39.94-16.2,82.72,82.72,0,0,0,26.54-26.55c6.41-10.22,9.53-22.49,9.53-37.53,0-23.59-5.54-41.64-17-55.23-12.74-15.11-29-28.38-48.4-39.39a527,527,0,0,0-67.05-31.84,456.87,456.87,0,0,1-72.58-36.2,208,208,0,0,1-59.13-54.39c-16.67-22.9-25.12-52.7-25.12-88.6,0-25.34,5.06-47.88,15-67A137.29,137.29,0,0,1,1229.3,817c16.79-12.27,36.51-21.36,58.56-27a274.51,274.51,0,0,1,67.86-8.19,645.32,645.32,0,0,1,67.71,3.7,342.67,342.67,0,0,1,67.74,13.94l4.78,1.5,12.62,4.58-8.28,63.51s-58.15-10.32-81.1-12.57c-7.79-.77-16-3.5-25.22-4.73s-21.7-1.81-37.37-1.81a196.54,196.54,0,0,0-44.94,5c-13.17,3.12-24.56,8.09-33.93,14.81a73.12,73.12,0,0,0-21.79,24.66C1250.69,904,1248,916,1248,930.14c0,23.11,5.53,40.92,16.92,54.41,12.7,15.08,28.93,28.2,48.27,38.93a515.41,515.41,0,0,0,67.05,31.08,440.5,440.5,0,0,1,72.74,35.83,206,206,0,0,1,59.19,54.93c16.64,23.18,25.06,53.36,25.06,89.68,0,27.74-5.76,52-17.08,72a144.37,144.37,0,0,1-45.51,49.1c-18.49,12.39-39.84,21.49-63.46,27a312,312,0,0,1-71.77,8.08,658.74,658.74,0,0,1-75.63-4.5,373.45,373.45,0,0,1-74.7-16.39l-3.93-1.32-15.25-6.95v-65.43" transform="translate(0-30)"/></g></svg>