<?xml version="1.0" encoding="utf-8"?>
<!-- Generator: Adobe Illustrator 23.0.1, SVG Export Plug-In . SVG Version: 6.00 Build 0)  -->
<svg version="1.1" id="Layer_1" xmlns="http://www.w3.org/2000/svg" xmlns:xlink="http://www.w3.org/1999/xlink" x="0px" y="0px"
	 viewBox="0 0 226.8 226.8" style="enable-background:new 0 0 226.8 226.8;" xml:space="preserve">
<style type="text/css">
	.st0{fill:#4279BD;}
</style>
<path class="st0" d="M113.4,0C50.8,0,0,50.8,0,113.4C0,176,50.8,226.8,113.4,226.8c62.6,0,113.4-50.8,113.4-113.4
	C226.8,50.8,176,0,113.4,0z M89.8,159.5V90.8h13.6v35.1c0.1,1.9,1.3,10.4,11.6,10.4c9.3,0,10.2-8.8,10.3-11.5l0-34.1h13.6V125
	c-0.1,10.1-6.6,24.9-23.9,24.9c-4.6,0-8.4-0.9-11.6-2.5v16.7c3.2,0.6,6.6,1,10,1c17,0,32.1-8.2,41.5-20.8l31.2,23
	c-16.5,22.2-42.9,36.5-72.7,36.5c-50,0-90.5-40.5-90.5-90.5c0-50,40.5-90.5,90.5-90.5c32,0,60.1,16.6,76.2,41.6l-32.4,21.2v0
	c-9.2-14.5-25.3-24.1-43.7-24.1c-28.6,0-51.8,23.2-51.8,51.8C61.6,133.5,73.1,150.9,89.8,159.5z"/>
</svg>
