<svg xmlns="http://www.w3.org/2000/svg" viewBox="0 0 445.74 449.56"><g fill="#3d3d3d"><path d="M311.82,208.28,95.89,424.21a189.87,189.87,0,0,0,95,25.35c96.59,0,176.37-71.76,189.08-164.86A853.28,853.28,0,0,0,311.82,208.28Z"/><path d="M140.14,74.65C59.36,96.88,0,170.82,0,258.67A190,190,0,0,0,25,353l211.69-211.7C191.72,105.49,155.27,83.33,140.14,74.65Z"/></g><g fill="#edce21"><path d="m311.82 208.28l-209.14 209.14a180.82 180.82 0 0 0 88.22 22.86c95 0 172.87-72.92 180.88-165.82a857.94 857.94 0 0 0 -59.96 -66.18"/><path d="M151.52,81.38C70.15,99.38,9.28,171.89,9.28,258.67a180.81,180.81,0,0,0,22.48,87.54l204.9-204.9A836.14,836.14,0,0,0,151.52,81.38Z"/></g><g fill="#3d3d3d"><path d="m186 103.73l32.45 55.82 18.24-18.24c-18.69-14.88-35.9-27.4-50.69-37.58"/><path d="m311.82 208.28l-41.38 41.37 71.58 123 36.12-90.31a853.82 853.82 0 0 0 -66.32 -74.06"/><path d="m163.75 214.22l-68.3-117.28-55.68 50.37 70.09 120.81 53.89-53.9"/><path d="m161.88 358.22l48.58 84.15 73.23-19.32-67.98-118.67-53.83 53.84"/><path d="m57.72 320.26l-49.77-74.85v60.98l21.95 41.69 27.82-27.82"/></g><path transform="matrix(.70711-.70711.70711.70711-147.88 201.72)" fill="#202a50" d="m-36.39 253.57h411.9v51.6h-411.9z"/><path d="M211.27,2.74a10.34,10.34,0,0,0-14.12.1L156.48,44.25a8.3,8.3,0,0,0,1.41,13.12c35.88,21.68,169.93,107.36,273.92,257.19,5,7.22,16.27,1.31,13.5-7C431.15,264.87,370.35,149.92,211.27,2.74Z" fill="#0c68b1"/><path d="m292 157.58c45.42 40.61 95.37 92.94 139.82 157 5 7.22 16.27 1.31 13.5-7-10.2-30.75-44.65-99.07-122.67-189.94" fill="#1d599a"/><path transform="matrix(.74419-.66796.66796.74419 12.72 254.3)" fill="#202a50" d="m329.95 84.74h16.87v51.6h-16.87z"/></svg>