<svg enable-background="new 0 0 227.3 227.3" viewBox="0 0 227.3 227.3" xmlns="http://www.w3.org/2000/svg"><path d="m113.7 0c-62.8 0-113.7 50.9-113.7 113.7s50.9 113.7 113.7 113.7 113.7-50.9 113.7-113.7-51-113.7-113.7-113.7zm-8.6 153.3c-1.9 1.1-25.6 2.2-27.5 0-1.7-2-1.1-7.6-1.4-17.4h-19l-10.5-10.5h28.7c-.6-4.5-1.4-8.2-2.3-11.7h-20.3l-10.5-10.5h27.6c-3.1-7.4-8.7-17.2-11-19.7-2.8-3.1-6.2-5.1-6.1-6.3s.8-3.7 10.5-4.1 12.7-.6 16.2 0c4.9.8 14.4 13.9 18 22.3s7.9 23.1 8.5 35.5 1 21.2-.9 22.4zm37.1 0c-1.9 1.1-25.6 2.2-27.5 0s-.9-8.7-1.5-20.2c-.6-11.6-2.5-18-4.5-25.2-2.1-7.2-9.9-21.3-12.7-24.4s-6.2-5.1-6.1-6.3.8-3.7 10.5-4.1 12.7-.6 16.2 0c4.9.8 14.4 13.9 18 22.3s7.9 23.1 8.5 35.5 1 21.2-.9 22.4zm38.1 0c-1.9 1.1-25.6 2.2-27.5 0s-.9-8.7-1.5-20.2c-.6-11.6-2.5-18-4.5-25.2-2.1-7.2-9.9-21.3-12.7-24.4s-6.2-5.1-6.1-6.3.8-3.7 10.5-4.1 12.7-.6 16.2 0c4.9.8 14.4 13.9 18 22.3s7.9 23.1 8.5 35.5.9 21.2-.9 22.4z" fill="#8edb7b"/></svg>