<svg enable-background="new 0 0 238.5 138.6" viewBox="0 0 238.5 138.6" xmlns="http://www.w3.org/2000/svg"><path d="m237.9 130.2c-10.3-17.1-22.6-33.6-32.9-50.6-15.3-25.4-28.5-51.4-43.8-76.8-.3-.4-1.5-2.3-3.8-2.8s-4.9.6-6.4 2.8c-9.9 21.3-19.8 42.7-29.7 64 0 0-.5.7-1.3.6-.8 0-1.2-.7-1.3-.8-9.1-13-18.2-26.1-27.3-39.1-.1-.2-2.1-3.1-5.6-3-3.4.1-5.2 2.8-5.4 3l-42.5 63c-12 12.9-24.2 25.7-36.4 38.5-.4.6-1.6 2.4-1.5 5 .1 2.3 1.1 4 1.5 4.6h231.1c2.5-.1 4.6-1.5 5.5-3.6.9-2.3 0-4.4-.2-4.8zm-79.3-106.7c0-.9 1.3-1.3 1.7-.4l30.5 53.8c.5.9-.3 2.1-1.4 1.8l-29.7-6.8c-1.1-.3-1.8-1.2-1.8-2.3zm-34.8 64.2c0-.5.1-.9.3-1.3l27.1-57.7c.5-1.2 2.3-.8 2.3.5l-.6 41.8c0 .8-.3 1.5-.8 2.1l-26.7 32.4c-.6.7-1.7.3-1.7-.6v-17.2zm-39.5-19.4 2.7-24c.1-.7 1.8-1.1 2.2-.6l28.8 39.6c.4.5.6 1.2.6 1.9v19.2c0 1.1-1.4 1.7-2.1.8l-31.5-34.7c-.6-.6-.8-1.4-.7-2.2zm-24.8 10.7 20.2-30.8c.5-.7 1.6-.4 1.5.5l-1.2 19.3c0 .8-.5 1.5-1.2 1.9l-17.7 10.8c-1.1.7-2.3-.7-1.6-1.7zm-8.1 49.4-31.1.1c-1 0-1.5-1.2-.8-1.9l20.4-22.3c.9-1 2.5-.7 3.1.5l9.7 21.7c.4.9-.3 1.9-1.3 1.9zm6.9-2.3-11.1-23.5c-1.7-3.6-.3-7.9 3.1-9.9l29.7-17.9c.8-.5 1.8-.3 2.4.4l7.7 9.7c.5.7.5 1.6 0 2.3l-29.5 39c-.6.9-1.9.8-2.3-.1zm44.4 2.4h-34.1c-1.2 0-1.8-1.3-1.1-2.3l25.7-34.4c.8-1 2.2-1.1 3.1-.2l19.4 21.2c.7.8.7 2.1 0 2.9l-11 12c-.5.5-1.2.8-2 .8zm39.5 0h-29.7c-.8 0-1.2-1-.7-1.6l9.1-9.6c.7-.7 1.8-.9 2.7-.5l19 10c.8.5.5 1.7-.4 1.7zm46.2 0h-30.5c-.4 0-.9-.1-1.3-.3l-29.4-13.7c-1.3-.6-1.6-2.2-.7-3.3l26.8-32.2c.7-.8 2-.8 2.6.1l33.5 47.5c.5.8-.1 1.9-1 1.9zm7.3-6.2c-.1 1.3-1.7 1.7-2.4.7l-30.9-43.3c-.7-1 .2-2.3 1.3-2l30.1 7.2c2.1.5 3.6 2.5 3.5 4.6zm25.3 6.2h-18.8c-.9 0-1.6-.8-1.6-1.7l1.8-27.2c.1-1.2 1.6-1.6 2.2-.6l18.1 26.3c.9 1.4 0 3.2-1.7 3.2z" fill="#00376a"/></svg>