<svg enable-background="new 0 0 32 32" viewBox="0 0 32 32" xmlns="http://www.w3.org/2000/svg"><circle cx="16" cy="16" fill="#1eb5fa" r="16"/><path d="m26.4 7.2-3.6 1.6c-.2.1-.3.3-.4.6v13c0 .2.1.5.4.6l3.6 1.6c.2.1.4 0 .5-.1 0-.1 0-.1 0-.2v-16.8c0-.2-.2-.3-.4-.3 0-.1 0-.1-.1 0zm-17.4 1.5-3.5-1.6c-.2 0-.4 0-.5.2v.2 16.7c0 .2.2.3.3.3s.1 0 .2-.1l3.5-1.9c.2-.1.3-.3.3-.6v-12.6c.1-.2-.1-.4-.3-.6zm11.1 4.5-3.8-2.2c-.2-.1-.5-.1-.7 0l-3.9 2.1c-.2.1-.3.3-.3.6v4.4c0 .2.1.5.3.6l3.9 2.2c.2.1.5.1.7 0l3.8-2.2c.2-.1.3-.3.3-.6v-4.4c0-.2-.1-.4-.3-.5z" fill="#fff"/></svg>