<svg enable-background="new 0 0 109 68" viewBox="0 0 109 68" xmlns="http://www.w3.org/2000/svg"><path d="m101.6 52h.1l-10.6-37.1c2.4-1.4 4-4 4-6.9 0-4.4-3.6-8-8-8s-8 3.6-8 8c0 1.2.3 2.4.8 3.4v-.1l-19 12.5-13.3-11.3c.9-1.3 1.4-2.8 1.4-4.5 0-4.4-3.6-8-8-8s-8 3.6-8 8c0 2 .8 3.9 2 5.3l-25 38.7.7.5c-.4-.1-.7-.2-1.1-.3-.5-.1-1-.2-1.6-.2-4.4 0-8 3.6-8 8s3.6 8 8 8c4.3 0 7.7-3.3 8-7.5v.1h33v-.1c.2 4.2 3.7 7.5 8 7.5s7.7-3.3 8-7.6v.3h28c.4 4.1 3.8 7.2 8 7.2 4.4 0 8-3.6 8-8 0-4.1-3.3-7.6-7.4-7.9zm-20.7-38.8c.1.2.3.3.5.5l-11 18.2-7.7-6.6zm-34.7.8 12.8 11-8.8 5.8-5.1-16c.4-.2.8-.5 1.1-.8zm-32.3 40.6 25.4-38.8c.6.1 1.1.2 1.7.2l5.5 17.3-32.5 21.5c0-.1 0-.1-.1-.2zm35.3 3.8h-33.4c-.1-.7-.4-1.3-.6-1.9l31.9-21 5.6 17.7c-1.8 1.2-3.1 3-3.5 5.2zm7.7-6.4-6-19 9.9-6.5 8.5 7.2-11.1 18.4c-.4-.1-.8-.1-1.2-.1zm36.3 6.4h-28.4c-.3-1.6-1.2-3.1-2.4-4.2l10.3-17.4 21.7 18.5c-.5.9-1 1.9-1.2 3.1zm2.8-4.6-22-18.8 11.4-19.1c.3.1.6.1.9.1l11 37c-.5.2-.9.5-1.3.8z" fill="#3fa9f5"/></svg>