<svg xmlns="http://www.w3.org/2000/svg" width="1330" height="2000" viewBox="0 0 1330 2000"><path d="M1477,199.17C1349.78,63.62,1192.17,0,1001.38,0,807.83,0,650.22,63.62,523,193.64,395.83,320.89,335,484.09,335,680.5c0,193.64,63.6,356.85,190.79,486.86,99.54,102.35,218.44,163.21,353.93,185.34v116.18H600.45v124.48h282v66.39h-282v116.18H879.72V2000h240.56V1775.93h282V1659.75h-284.8v-66.39h284.8V1468.88h-282V1355.46c138.25-22.13,257.15-83,356.69-185.34,124.43-130,188-293.22,188-486.86C1665,492.39,1601.4,329.18,1477,199.17ZM1217.06,937.76c-52.54,66.39-127.19,99.59-215.68,99.59-85.72,0-157.61-33.19-212.91-99.59s-83-152.14-83-260c0-105.12,27.65-188.11,83-254.5s127.19-99.59,212.91-99.59c83,0,154.84,33.2,210.15,102.35,58.07,66.39,85.72,152.14,85.72,254.5C1297.25,785.62,1269.59,871.37,1217.06,937.76Z" transform="translate(-335)" fill="#01a64f"/></svg>