<svg enable-background="new 0 0 32 32" viewBox="0 0 32 32" xmlns="http://www.w3.org/2000/svg"><circle cx="16" cy="16" fill="#7f368a" r="16"/><path d="m25.6 21.3c.1.3-.2.4-.4.3h-3.3c-.2 0-.3-.1-.5-.1-.2-.1-.3-.3-.4-.6v-.1l-3-11.3c-.1 0-.3.2-.3.2-.1.1-.2.1-.3.1-.1-.1-.2-.3-.1-.4.1-.4.4-.6.7-.6.4-.1.7-.1 1.1-.1h2.4c.2 0 .4 0 .6.1s.3.4.3.6c.1.5.2.9.3 1.4l1.6 5.9.7 2.3c.2.7.4 1.5.6 2.3zm-7.6 0c.1.3-.2.4-.4.3h-3.3c-.2 0-.3-.1-.5-.1-.2-.1-.3-.3-.4-.6v-.1l-3-11.3c-.1 0-.3.2-.3.2-.1.1-.3.1-.3.1-.2-.1-.2-.3-.2-.4.1-.3.5-.5.8-.6.4-.1.7-.1 1.1-.1h2.5c.2 0 .4 0 .6.1s.3.4.3.6c.1.5.2.9.3 1.4l1.6 5.9.6 2.4c.2.6.4 1.4.6 2.2zm-6.1-2.5-.8 2.5c-.1.3-.3.5-.6.5h-3.4c-.4 0-.7-.3-.7-.7v-.1l2.8-10.4c.1-.1.2-.3.3-.3.2 0 .3.1.3.3 0 0 2.1 8.2 2.1 8.2zm7.8-.2-.5 1.4c-.1.1-.1.2-.3.2s-.2-.1-.3-.2l-2.3-8 .5-1.6c0-.1.1-.2.3-.2.1 0 .3.1.3.2 0-.1 2.3 8.2 2.3 8.2z" fill="#fff"/></svg>