<svg xmlns="http://www.w3.org/2000/svg" viewBox="0 0 2000 1796.82" width="2000" height="2000"><g fill="#f0dbb0" transform="translate(0-101.55)"><path d="M996.27,1336.08l107.54-181.62H893Z"/><path d="M1753.48,741.84L1611.07,101.55,1331.28,542.18a1412.75,1412.75,0,0,0-661.86,0L390.24,101.55,247.33,741.84C93.63,864.5,0,1024.75,0,1200.62c0,385.31,447.69,697.74,1000,697.74s1000-312.44,1000-697.74C1999.9,1024.75,1907,864.5,1753.48,741.84Zm-1309,293.29H377.85L540.52,847.77H659ZM995,1492.7L718.3,1006.3l68.33-38.9,61.68,108.35h302.26L1215,966.9,1282.6,1007,995,1492.7h0Zm561.48-457.57L1341.77,847.77H1461l162.57,187.36h-67.12Z"/></g></svg>