<svg enable-background="new 0 0 870.5 962.5" viewBox="0 0 870.5 962.5" xmlns="http://www.w3.org/2000/svg"><g fill="#26d741"><path d="m60.66 263.88-60.66 412.5 54.6-48.53 25.27-195.13v171.88l50.55-46.51 46.51-218.38-18.2 194.12 58.64-52.58 28.31-368.01-64.7 52.57-56.62 250.74-6.07-200.19z"/><path d="m421.6 305.33v-305.33l64.71 52.57 40.44 167.84-6.07-139.53 50.55 40.44 22.25 303.31-70.78-48.53-44.48-196.14 4.04 167.84z"/><path d="m601.57 147.61 26.28 313.42 123.35 82.91-6.07-46.51-64.7-44.49-10.11-103.12 36.39 26.28-6.06-42.46-34.38-24.26-10.11-86.95 58.64 42.46-4.04-28.31z"/><path d="m724.91 248.71 52.57 42.47 34.38 113.23 6.07-80.88 48.53 38.42-18.2 129.41 22.24 145.59-52.57-34.37-20.22-145.59z"/></g><path d="m261.86 448.9 50.55-46.51 192.1 99.08-139.53-145.59 52.58-46.5 198.16 230.51 240.63 111.22-52.58 40.44-133.45-70.78 99.08 95.04-50.56 40.44-155.69-173.89z" fill="#ff017e"/><path d="m383.18 4.04s-58.64 32.35-99.08 107.17c0 0-14.15 26.29-16.18 60.66l-14.15 206.25s-2.02 62.68 50.55 22.24c0 0 52.57-32.35 84.93-93.02 0 0 22.24-38.42 20.22-93.02l2.02-177.94c0 .02 4.04-44.47-28.31-32.34zm-38.42 305.34c-4.04 12.13-18.2 24.26-18.2 24.26-12.13 12.13-12.13-2.02-12.13-2.02l8.09-220.41c0-8.09 4.04-16.18 4.04-16.18 10.11-18.2 18.2-22.24 18.2-22.24 6.07-4.04 8.09 0 8.09 0z" fill="#26d741"/><path d="m472.15 820.96s-93.02-70.77-145.59-62.68c0 0 20.22-26.29-113.24-107.17 0 0-90.99-56.62-143.57-26.29l-68.74 60.66 446.88 277.02 60.66-46.5s50.55-34.38-36.4-95.04zm-211.34-51.53-11.08 9.07-145.59-93.02 6.6-6c9.21-8.37 22.91-9.47 33.34-2.66l115.82 75.6c5.97 3.9 6.44 12.49.91 17.01zm186.03 117.28-11.08 9.07-125.37-80.88 6.6-6c9.21-8.37 22.91-9.47 33.34-2.66l95.6 63.47c5.97 3.89 6.44 12.48.91 17z" fill="#ff017e"/><path d="m643.16 732.93-333.23-229.76c-34.61-23.87-80.72-22.46-113.82 3.46-32.49 25.45-30.82 75.16 3.31 98.37l315.69 214.67c41.23 28.03 96.29 24.18 133.21-9.32 23.64-21.44 21.11-59.31-5.16-77.42zm-57.13 43.24c-7.73 7.01-19.25 7.82-27.88 1.95l-304.69-204.67c-7.14-4.86-7.49-15.26-.69-20.59 6.93-5.43 16.58-5.72 23.83-.73l308.35 207.84c5.5 3.79 6.03 11.72 1.08 16.2z" fill="#ff017e"/><path d="m266.9 208.99c1.93 0 1.93-3 0-3s-1.93 3 0 3z" fill="#26d741"/></svg>