<svg xmlns="http://www.w3.org/2000/svg" xmlns:xlink="http://www.w3.org/1999/xlink" width="2000" height="1720" viewBox="0 0 2000 1720"><defs><linearGradient id="3" x1="764.46" x2="2000" xlink:href="#2"/><linearGradient id="2" x2="1235.54" gradientUnits="userSpaceOnUse"><stop stop-color="#0b46aa"/><stop offset="1" stop-color="#1455e1"/></linearGradient><linearGradient id="0" y1="203.74" x2="0" y2="1860" gradientUnits="userSpaceOnUse"><stop stop-color="#16ed8c"/><stop offset="1" stop-color="#0767fc"/></linearGradient><linearGradient id="1" y1="203.74" x2="0" xlink:href="#0"/></defs><path d="M0,1389.47C0,1649.34,210.65,1860,470.5,1860V203.74H0Z" transform="translate(0-140)" fill="url(#0)"/><path d="M1999.93,1389.47c0,259.87-210.65,470.53-470.5,470.53V203.74h470.5Z" transform="translate(0-140)" fill="url(#1)"/><path d="M642.71,376.35C512.79,151.3,225,74.19,0,204.12L607.09,1255.7c84.18,127.46,228.7,211.56,392.87,211.56a468.5,468.5,0,0,0,211.09-49.91l24.49-14.14Z" transform="translate(0-140)" fill="url(#2)"/><path d="M1357.29,375.34C1487.21,150.29,1775,73.18,2000,203.12L1392.91,1254.7c-84.18,127.46-228.7,211.56-392.87,211.56a468.5,468.5,0,0,1-211.09-49.91l-24.49-14.14Z" transform="translate(0-140)" fill="url(#3)"/></svg>