<svg enable-background="new 0 0 32 32" viewBox="0 0 32 32" xmlns="http://www.w3.org/2000/svg"><circle cx="16" cy="16" fill="#f60" r="16"/><g fill="#fff"><path d="m28 16c0 6.6-5.4 12-12 12s-12-5.4-12-12c0-2.7.9-5.2 2.4-7.2l2 2c-1 1.5-1.6 3.3-1.6 5.2 0 5.1 4.2 9.3 9.3 9.3s9.3-4.2 9.3-9.3c0-1.9-.6-3.7-1.6-5.2l2-2c1.4 2.1 2.2 4.6 2.2 7.2"/><path d="m22.6 16c0 3.7-3 6.6-6.6 6.6-3.7 0-6.6-3-6.6-6.6 0-1.2.3-2.3.9-3.3l5.8 5.8 5.8-5.8c.4 1 .7 2.1.7 3.3"/><path d="m23.8 6.9-7.8 7.9-6-6-1.8-1.9c2.1-1.9 4.9-2.9 7.8-2.9 3 0 5.7 1.1 7.8 2.9"/></g></svg>