<svg id="Layer_1" xmlns="http://www.w3.org/2000/svg" viewBox="0 0 326.3 326.3" width="2500" height="2500"><style>.st0{fill:#fff}.st1{fill:#ed1c24}</style><circle class="st0" cx="163.2" cy="163.2" r="163.2"/><path d="M91.1 190.2c0 .2-.1.5-.2.6s-.3.2-.6.3-.7.2-1 .2c-.5.1-1 .1-1.6.1-.7 0-1.2 0-1.6-.1-.5-.1-.8-.1-1-.2-.2-.1-.5-.2-.5-.3-.1-.1-.1-.3-.1-.6l5.7-45H90l-24 45.3c-.1.2-.2.3-.3.5-.1.1-.3.2-.7.3-.3.1-.6.1-1 .2h-1.4c-.6 0-1 0-1.4-.1-.3 0-.7-.1-.9-.2-.2-.1-.5-.2-.6-.3-.1-.1-.2-.2-.2-.5l-11.6-45.3-5.7 45c0 .2-.1.5-.2.6s-.3.2-.6.3-.7.2-1.2.2c-.5.1-1 .1-1.7.1s-1.2 0-1.6-.1c-.5-.1-.8-.1-1-.2-.2-.1-.5-.2-.5-.3-.1-.1-.1-.3-.1-.6l6-47.6c.1-1.2.6-2 1.2-2.4.7-.5 1.4-.7 2.1-.7h4.2c.8 0 1.6.1 2.2.2.6.1 1.2.5 1.6.7.5.3.8.8 1 1.3.2.6.5 1.2.6 1.9l10 37.5h.2l20.1-37.1c.3-.8.8-1.5 1.3-2 .5-.6.8-1 1.3-1.3.5-.3.9-.6 1.5-.7s1.2-.2 1.9-.2h4.4c.3 0 .8 0 1.2.2.3.1.6.3.8.6.2.2.3.6.5.9.1.3.1.8.1 1.4l-6.4 47.4zM144.3 188.3c-.1.6-.2 1-.5 1.4-.2.3-.5.7-.8.9-.3.2-.7.5-1 .5-.3.1-.7.1-1 .1h-2.3c-.7 0-1.3-.1-1.9-.2-.5-.1-.9-.5-1.4-.8-.5-.3-.8-.9-1.3-1.5-.3-.7-.8-1.5-1.2-2.6l-12-29.4c-.6-1.5-1.3-3.1-1.9-4.8-.6-1.6-1.2-3.3-1.7-4.9h-.1c-.2 1.9-.3 3.8-.6 5.9-.2 2-.5 4-.7 5.9l-4 31.2c0 .2-.1.3-.2.6-.1.1-.3.3-.6.3-.2.1-.6.2-1 .2-.5.1-1 .1-1.6.1-.7 0-1.3 0-1.6-.1-.5-.1-.8-.1-1-.2-.2-.1-.3-.2-.5-.3-.1-.2-.1-.3-.1-.6l6-47.7c.1-1 .6-1.9 1.2-2.3.7-.5 1.4-.7 2.1-.7h3.4c.8 0 1.4.1 2 .2.6.1.9.3 1.4.7.3.3.7.7 1 1.3.3.6.7 1.3 1 2.1l9.2 22.7c.6 1.4 1.2 2.8 1.6 4.1.6 1.3 1 2.7 1.5 4 .5 1.3.9 2.6 1.4 3.7.5 1.3.9 2.4 1.4 3.7.2-2.1.5-4.3.7-6.6.2-2.3.6-4.4.8-6.6l3.6-28c0-.2.1-.3.2-.5.1-.1.3-.3.6-.5.2-.1.7-.2 1-.2.5 0 1-.1 1.7-.1.6 0 1.2 0 1.6.1.5 0 .8.1 1 .2.2.1.3.2.5.5.1.1.1.3.1.5l-6 47.7zM193.1 183.9c0 .5-.1.8-.2 1.2-.1.3-.1.6-.2.8-.1.2-.2.5-.3.7-.1.2-.3.5-.7.7-.3.2-.9.7-1.9 1.3-.9.6-2.1 1-3.4 1.6-1.3.5-2.8.9-4.5 1.3-1.7.3-3.5.6-5.5.6-3.4 0-6.3-.6-8.8-1.6-2.6-1.2-4.7-2.8-6.3-5-1.6-2.2-2.8-4.9-3.4-8.1-.6-3.3-.7-6.9-.1-11.1.6-4.3 1.6-8.1 3.1-11.5 1.5-3.4 3.5-6.2 5.7-8.5 2.3-2.3 4.9-4.1 7.9-5.4 2.9-1.3 6.2-1.9 9.5-1.9 1.5 0 2.9.1 4.3.5 1.4.2 2.7.6 3.8 1s2.1.9 3 1.5c.8.6 1.4 1 1.7 1.4.3.3.5.6.6.8.1.2.1.3.2.7v.9c0 .3 0 .8-.1 1.3-.1.6-.1 1-.2 1.4-.1.3-.2.7-.3.9s-.2.5-.5.6c-.1.1-.3.2-.6.2s-.8-.2-1.5-.8c-.6-.5-1.4-1-2.3-1.7-.9-.6-2.2-1.2-3.6-1.7-1.5-.5-3.3-.8-5.4-.8-2.3 0-4.5.5-6.5 1.4-2 .9-3.8 2.3-5.4 4.1-1.5 1.7-2.9 4-4 6.5-1 2.6-1.9 5.5-2.2 8.8-.5 3.3-.5 6.2 0 8.7.3 2.6 1.2 4.7 2.2 6.3 1.2 1.7 2.6 3 4.4 3.8s4 1.3 6.4 1.3c2.1 0 4-.2 5.5-.8 1.6-.5 3-1 4.2-1.7 1.2-.6 2.1-1.2 2.9-1.7.8-.5 1.4-.8 1.7-.8.2 0 .3 0 .5.1.1.1.2.2.2.5s.1.6.1.9c.2.2 0 .7 0 1.3z"/><path class="st1" d="M257.7 234.1c-2.6 0-4.2 0-5.4-.1-1.4-.1-2.6-.3-3.5-.7-.8-.3-1.6-.8-2.2-1.4l-.1-.1c-.5-.6-.8-1.3-1-2.1l-22.2-51.5-36 51.8c-.5.7-.9 1.3-1.6 1.9-.7.6-1.5 1-2.4 1.4-.9.3-2.1.5-3.5.6-1.3.1-2.8.1-5.2.1-2.6 0-4.4-.1-5.7-.2-1.7-.2-3-.8-3.7-1.6-.6-.6-1.3-1.9-.6-3.8.3-1 1.2-2.4 2.3-4.2l44.8-62.1-27.5-60.1c-.7-1.9-1.2-3.1-1.3-4.3-.2-1.5.2-2.9 1.4-3.8.9-.7 2.2-1.2 4-1.4 1.5-.1 3.5-.2 6-.2 2.4 0 4.1 0 5.4.1 1.5.1 2.6.3 3.5.6 1 .3 1.9.9 2.4 1.7l.1.1c.1.3.3.6.6.9l.5.7 21.6 48.4 34-48.6c.5-.6.9-1.2 1.4-1.7.7-.7 1.5-1.2 2.4-1.5.8-.3 1.9-.5 3.3-.6 1.2-.1 2.7-.1 5-.1 2.4 0 4.2.1 5.6.2 1.7.2 2.9.7 3.8 1.5.6.6 1.5 1.7.9 4-.3 1.2-.9 2.4-2.2 4.3L239.9 162l28.5 62.5c.8 1.7 1.3 3.1 1.3 4.3.1 2-.8 3.1-1.7 3.7-.9.7-2.2 1.2-4.1 1.4-1.7 0-3.6.2-6.2.2zm-8.5-4.7c.1.1.3.3.8.5s1.2.3 2.6.5c1 .1 2.7.1 5.1.1 2.4 0 4.3-.1 5.6-.2 1.5-.2 2.1-.6 2.3-.7.2-.1.3-.2.3-.7s-.2-1.4-1-3l-29.3-64.3 43.9-61.3c.9-1.4 1.5-2.4 1.7-3.3.1-.3.1-.5.1-.5-.1 0-.5-.3-1.9-.5-1.2-.1-2.9-.2-5.1-.2s-3.7 0-4.8.1c-1.3.1-2 .3-2.4.5-.5.1-.8.3-1 .6-.3.3-.7.8-1.2 1.4L227.4 152l-24.1-53.9-.2-.3c-.2-.3-.5-.7-.6-1-.1-.1-.3-.2-.7-.3-.6-.2-1.5-.3-2.7-.5s-2.8-.1-5-.1c-2.4 0-4.3.1-5.7.2-1.4.1-2 .5-2.1.6-.1.1-.2.1-.1.6.1.8.5 1.9 1 3.4l28.3 61.8-45.8 63.5c-1.3 1.7-1.7 2.7-1.9 3.3-.1.3-.1.5-.1.5s.3.3 1.5.5c1.2.1 2.9.2 5.2.2 2.2 0 3.8 0 4.9-.1 1.2-.1 2.1-.2 2.7-.5.6-.2.9-.3 1.3-.7.5-.3.8-.8 1-1.2l39.6-57.1 24.9 57.6c.1.3.2.7.4.9z"/></svg>