<svg xmlns="http://www.w3.org/2000/svg" viewBox="0 0 2000 2000"><path d="M1000,0C447.69,0,0,447.69,0,1000S447.69,2000,1000,2000s1000-447.69,1000-1000S1552.21,0,1000,0ZM797.62,525.9c39.91-24.69,157.93,159.44,180.21,162.67s79.82-54.22,116.41-84.56,197-130.82,204.09-120.44-112.48,79.82-178.69,130.82S1006.75,743.2,953.94,743.2,805.58,594.84,792.08,578.41a35,35,0,0,1,1.71-49.49,36,36,0,0,1,3.83-3h0ZM1313.85,1374l-100-414.63L999.8,1216.69,782.1,959.18l-100,414.63H493.35l188.87-795.3L999.8,967.45l309.72-388.93,187.26,795.1Z" fill="#ff9616"/></svg>