<svg xmlns="http://www.w3.org/2000/svg" viewBox="0 0 226.78 226.78" width="2500" height="2500"><defs><style>.cls-1{fill:#ff9616}</style></defs><title>mue</title><path class="cls-1" d="M113.39 23.67a90 90 0 1 0 90 90 90 90 0 0 0-90-90zM95.18 71c3.59-2.22 14.21 14.35 16.22 14.64s7.18-4.88 10.48-7.61 17.73-11.77 18.37-10.84-10.12 7.18-16.08 11.77-10.17 11.6-14.92 11.6S95.9 77.21 94.68 75.73a3.15 3.15 0 0 1 .5-4.73zm46.46 76.34l-9-37.32-19.26 23.16L93.79 110l-9 37.32h-17l17-71.58 28.59 35 27.87-35 16.85 71.56z" id="Laag_2" data-name="Laag 2"/></svg>