<svg xmlns="http://www.w3.org/2000/svg" viewBox="0 0 183.54 329.67"><defs><mask id="4" x="0" y="0" width="91.77" height="189.12" maskUnits="userSpaceOnUse"><path d="M0,140.71l91.74,48.41V0Z" fill="#fff"/></mask><mask id="5" x="91.77" y="0" width="91.77" height="189.12" maskUnits="userSpaceOnUse"><path d="m91.77 0v189.12l91.75-48.42" fill="#fff"/></mask><mask id="3" x="91.77" y="142.92" width="91.77" height="184.73" maskUnits="userSpaceOnUse"><path d="M91.77,327.64V142.92L183.54,187Z" fill="#fff"/></mask><mask id="1" x="0" y="-.44" width="183.54" height="330.54" maskUnits="userSpaceOnUse"><path d="M0-.44H183.54V330.1H0Z" fill="#fff"/></mask><mask id="0" x="0" y="-2.7" width="758.3" height="335.07" maskUnits="userSpaceOnUse"><path d="M0-2.7H758.3V332.37H0Z" fill="#fff"/></mask><mask id="2" x="0" y="142.91" width="91.77" height="184.73" maskUnits="userSpaceOnUse"><path d="m0 187l91.77-44.07v184.71" fill="#fff"/></mask></defs><g mask="url(#0)"><path d="M183.54,140.71l0,0L91.77,0,.05,140.69l0,0,51.48,23.11L0,187,91.77,329.66h0L183.54,187l-51.42-23.15Z" fill="#dd464c"/><g mask="url(#1)"><g mask="url(#2)"><path d="M45.31,162.39,0,187l91.77,47.44V186.05Z" fill="#dd464c"/></g><g mask="url(#3)"><path d="m91.77 186.05v48.37l91.77-47.42-45.25-24.59" fill="#c23d43"/></g></g><g mask="url(#1)"><path d="M91.77,189.12V141.6L45.94,164.93ZM.05,140.69,91.77,93.23V0Z" fill="#fdcc59"/></g><g mask="url(#1)"><path d="m91.77 0v189.12l91.75-48.42" fill="#fd8b19"/></g><g mask="url(#1)"><g mask="url(#4)"><path d="M45.31,165.26,0,140.71,91.77,93.23V141.6Z" fill="#dd464c"/></g></g><g mask="url(#1)"><g mask="url(#5)"><path d="m91.77 141.6v-48.37l91.77 47.48-45.25 24.54" fill="#c23d43"/></g></g><g mask="url(#1)"><path d="m0 187l91.77 142.67v-95.25" fill="#fdcc59"/><path d="M91.77,234.42v95.25L183.54,187Z" fill="#fd8b19"/></g></g></svg>