<svg id="Layer_1" xmlns="http://www.w3.org/2000/svg" viewBox="0 0 517 558" width="2316" height="2500"><style>.st0{fill:#0190fd}.st1{fill:#fff}.st2{fill:#04d9ff}.st3{fill:#fd2400}.st4{fill:#fbe700}</style><path class="st0" d="M374 258.5c6.6-.2 13-2.9 18.1-6.9-5 4.8-6.6 11.8-6.6 18.4-.1 17.3 0 34.7-.1 52-.1 5.9-.1 12 1.8 17.6 3.5 10.8 10.5 20.8 20.5 26.5 12.3 7.1 24.5 14.2 36.8 21.3 6.4 3.5 12.5 7.9 19.5 10.3 5.1 1.9 10.6 1.1 15.8-.2 10.8-2.8 22.8 1.2 29.9 9.7 4.2 4.8 6.4 11 7.2 17.3v1.1c0 6.1-1.5 12.2-4.9 17.3-5.7 9.1-16.5 14.6-27.2 13.8-11-.6-21.4-7.9-25.6-18.1-1.8-4.5-2.7-9.4-5.5-13.4-2.9-4.2-7.3-6.9-11.6-9.4l-45.6-26.4c-14.3-8.9-33.7-8.9-48 0-16 9.4-32.2 18.5-48.1 28-5.9 3.4-10.9 8.7-12.4 15.6 1.3-6.8.4-14.1-2.9-20.3-2.6-5.2-7.4-8.7-10.4-13.5 4.9-.7 9.6-2.2 13.8-4.8 15.9-9.1 31.6-18.3 47.5-27.4 15-8 24.4-25.1 23.7-42-.1-17.7 0-35.3-.1-53 .1-5.4-.7-10.9-3.1-15.9 6 .2 11.6 2.7 17.5 2.4m108.3 158c-4.1 1.7-7 6-6.9 10.4-.2 5.5 4.3 10.5 9.6 11.2 7 1.3 13.8-5.2 13-12.2-.4-7.4-9-12.6-15.7-9.4z" id="_x23_0190fdff"/><path class="st1" d="M482.3 416.5c6.7-3.2 15.3 2.1 15.7 9.4.9 7-6 13.5-13 12.2-5.4-.8-9.8-5.7-9.6-11.2-.1-4.4 2.8-8.8 6.9-10.4z"/><path class="st2" d="M257.1 0h2.1c9.5.5 18.8 5.5 24 13.6 6.2 9.2 6.6 22 .9 31.6-2.9 5.2-8.3 8.7-10.7 14.3-2.7 5.8-2.4 12.3-2.4 18.6v51c-.1 11.8 5.1 23.2 13.1 31.8 5 5.4 11.7 8.5 17.9 12.2 13.8 7.9 27.4 16 41.2 23.8 5.9 3.5 13 5 19.7 3.2-7.9 3-14.7 9-17.8 17-1.5 4-2.5 8.1-4.6 11.9-3-4.8-7.6-8.2-12.4-11-15.4-8.9-30.8-17.8-46.2-26.8-14.3-8.8-33.6-8.8-47.8.1-15.2 8.8-30.3 17.6-45.5 26.4-4.8 2.7-9.2 6-12.5 10.4-2.4-4.8-3.2-10.4-6-15-3.5-6-9.3-10.5-15.7-12.9 6.8 1.9 13.8-.4 19.7-3.8 15.9-9.1 31.7-18.3 47.5-27.4 14.8-8 24.3-24.9 23.7-41.8v-48c-.1-6.4.3-13.1-2.3-19.1-2.7-6.3-8.9-10.1-11.7-16.3-5-9.7-4.1-22.1 2.4-30.8C239 5.1 247.9.5 257.1 0m-2.8 19.5c-4.1 1.4-7.3 5.3-7.6 9.6-.7 5.7 3.6 11.4 9.3 12.2 7 1.6 14.2-5 13.2-12.2-.3-7-8.3-12.2-14.9-9.6z"/><path class="st3" d="M132 201.1c7-3.3 15.2-3.5 22.4-1.1 6.5 2.5 12.2 6.9 15.7 12.9 2.9 4.6 3.6 10.2 6 15 2.8 4.8 7.3 8.1 12 10.9l45 26.1c14.1 9.3 33.6 10.1 48.2 1.5l45.6-26.4c5.1-2.9 10.3-6.2 13.6-11.2 2.1-3.8 3.1-7.9 4.6-11.9 3.1-7.9 9.9-14 17.8-17 6-1.8 12.6-2.2 18.6-.3 11.2 3.3 19.9 13.6 21.1 25.2 1.3 10-3 20.2-10.6 26.7-5.2 4-11.5 6.7-18.1 6.9-5.9.3-11.5-2.2-17.3-2.4-5.2.3-10.1 2.4-14.6 5l-41.1 23.7c-5.8 3.4-12 6.5-16.5 11.5-7.8 8.5-13.1 19.9-12.9 31.6v54.1c0 5.8.4 11.9 3.3 17.2 3 4.8 7.8 8.4 10.4 13.5 3.3 6.2 4.3 13.5 2.9 20.3-2.1 9.9-9.5 18.6-19.1 22-10.8 4.1-23.8 1.2-31.8-7.2-4.2-4.1-6.7-9.6-8.2-15.2-.9-6.6-.2-13.6 2.9-19.6 2.6-5.3 7.5-8.9 10.6-13.8 2.9-5.2 3.2-11.3 3.2-17.2v-54.1c.2-11.8-5.1-23.2-13-31.7-4.3-4.7-9.9-7.7-15.4-10.8-13.9-8-27.8-16.1-41.8-24.1-4.7-2.7-9.9-5.1-15.4-5.2-6.1.3-12 2.9-18.2 2.3-7-.5-13.6-3.7-18.7-8.4-8-7.9-11.1-20.4-7.4-31 2.7-7.7 8.6-14.5 16.2-17.8m8.5 16.6c-3.8 1.4-6.7 5.1-7.2 9.2-.8 5.6 3.2 11.3 8.8 12.4 7.3 2 14.9-5 13.7-12.4-.6-7.1-8.8-12-15.3-9.2m229.7-.5c-3.4.7-6.4 3.1-7.8 6.3-2.8 5.6.1 13 5.9 15.2 6.7 3.2 15.5-2.2 15.7-9.6.8-7.3-6.7-13.8-13.8-11.9M254.4 416.3c-3.5 1.6-6.2 4.9-6.7 8.8-1.2 6.2 3.9 12.6 10.2 13 7 .8 13.6-6.2 12.1-13.1-.9-7.1-9.2-11.7-15.6-8.7z"/><path class="st4" d="M123.3 250c5.2 4.7 11.7 7.9 18.7 8.4 6.2.7 12.1-1.9 18.2-2.3-2.2 4.6-3.1 9.7-3 14.8-.1 18 0 36 0 54-.7 17 8.8 34.1 23.8 42.1 13.9 8 27.8 16.1 41.7 24.1 6.2 3.7 12.6 7.4 19.9 8-3.1 4.9-8.1 8.5-10.6 13.8-3.2 6-3.9 12.9-2.9 19.6-1.8-6.3-6.2-11.5-11.8-14.7-13.8-8.3-27.9-16.1-41.8-24.3-6.2-3.5-12.3-7.8-19.3-9.4-11.4-2.7-24.1-1.6-34.4 4.5-15.4 8.9-30.8 17.9-46.2 26.8-4.5 2.7-9.2 5.4-12.2 9.8-2.9 4-3.8 8.9-5.6 13.4C54 448 44.9 454.9 35 456.4c-11.7 2-24.3-3.8-30.3-14.1-3.2-5-4.4-11-4.5-16.8v-.9c.6-4.2 1.6-8.3 3.6-12.1 5.1-9.9 16.2-16.3 27.4-15.9 5.4.1 10.6 2.6 16 2.2 5.3-.2 10.1-2.7 14.6-5.3l43.2-24.9c5-2.8 10-5.8 13.9-10 7.8-8.6 13-19.9 12.8-31.7-.1-19.3.1-38.7-.1-58-.1-7-3-14-8.3-18.9M25.4 416.7c-4.6 2.1-7.4 7.5-6.2 12.5.9 5.1 5.7 9 10.8 9.1 7.2.4 13.3-7.2 11.2-14.1-1.4-6.8-9.7-10.7-15.8-7.5z" id="_x23_fbe700ff"/></svg>