<svg xmlns="http://www.w3.org/2000/svg" viewBox="0 0 507 507"><g transform="translate(-.58-.58)"><path d="m507.51 249c.05 1.72.07 3.41.07 5.12a252.28 252.28 0 0 1 -28.36 116.61l-138.22 55.78.28-.63" fill="#0f6089"/><path d="m507.51 248.94l-166.2 176.94 154.39-248.66a252.17 252.17 0 0 1 11.81 71.72" fill="#078fa4"/></g><g fill="#00aaa6"><path d="m495.12 176.64l-154.39 248.66-.42.67-18.51-321.79 155.22 58.08 18.1 14.38"/><path d="m495.7 177.22l-18.1-14.38 15.14 5.65c1.06 2.89 2.06 5.81 2.96 8.73" transform="translate(-.58-.58)"/></g><g fill="#1eaae2"><path d="m492.74 168.49l-149.6-151.8a253.92 253.92 0 0 1 149.6 151.8" transform="translate(-.58-.58)"/><path d="m342.56 16.11l149.6 151.8-15.14-5.65-142.28-113.02 7.8-33.13h.02"/></g><path d="m341 426.51l138.2-55.82a253.72 253.72 0 0 1 -172.82 131.47l33.17-72.44" transform="translate(-.58-.58)" fill="#0c7392"/><path fill="#1eaae2" d="m477.02 162.26l-155.22-58.08 12.94-54.94 142.28 113.02"/><path d="m343.12 16.69l-7.81 33.13-61-48.43a250.09 250.09 0 0 1 68.81 15.3" transform="translate(-.58-.58)" fill="#abcf3a"/><path fill="#cd1685" d="m340.31 425.97l.42-.67-.28.63-.14.04"/><path fill="#8f9990" d="m340.45 425.93l-1.48 3.21-179.23-130.75 2.32-2.06 159.74-192.15 18.51 321.79.14-.04"/><path d="M339.55,429.72l-33.17,72.44s0,0,0,0a252.22,252.22,0,0,1-52.27,5.42c-7,0-13.85-.28-20.65-.83L75.77,369.65l4.59,1Z" transform="translate(-.58-.58)" fill="#cd1685"/><path fill="#ec1076" d="m338.97 429.14l-259.19-59.03 79.96-71.72 179.23 130.75"/><path fill="#abcf3a" d="M334.74 49.24 321.8 104.18 273.73.81 334.74 49.24z"/><path d="m274.31 1.39l48.06 103.37-176.52-80a252.42 252.42 0 0 1 108.23 -24.18c6.81 0 13.54.28 20.23.81" transform="translate(-.58-.58)" fill="#e0e224"/><path fill="#f9a516" d="m321.8 104.18l-159.74 192.15-69.46-85.66 229.2-106.49"/><path fill="#fdcd11" d="M321.8 104.18 92.6 210.67 145.27 24.22 321.8 104.18z"/><g transform="translate(-.58-.58)"><path d="m234.4 507.58l-1.71-.9.74.07" fill="#cd1685"/><g fill="#b9204a"><path d="m75.77 369.65l157.66 137.1-.74-.07-175.39-92.79 17.36-45.22"/><path d="M57.3,413.89l175.39,92.79A252.93,252.93,0,0,1,57.3,413.89Z"/></g></g><g fill="#f05b28"><path d="m92.6 210.67l69.46 85.66-2.32 2.06-122.91-2.59 55.77-85.13"/><path d="m159.74 298.39l-79.96 71.72-42.95-74.31 122.91 2.59"/></g><path d="M145.85,24.79,93.18,211.25,37.41,296.38l.21-1.79L1,240.21v0C6.09,144.83,63.92,63.5,145.85,24.79Z" transform="translate(-.58-.58)" fill="#fdcd11"/><g fill="#ab1f25"><path d="m36.83 295.8l42.95 74.31-4.59-1.04-38.36-73.27"/><path d="m75.77 369.65l-1.11-1-17.36 45.24a253.25 253.25 0 0 1 -28.36 -43.2l8.47-74.29" transform="translate(-.58-.58)"/></g><g fill="#cb0010"><path d="m.37 239.63l36.67 54.38-.21 1.79-8.47 74.29-27.99-130.46"/><path d="m1 240.21l28 130.46a252.23 252.23 0 0 1 -28.42 -116.59c0-4.65.11-9.26.42-13.87" transform="translate(-.58-.58)"/></g><path d="M396.46,296.91,408,248.29a117.59,117.59,0,0,0,7-41.08v0a36.82,36.82,0,0,0-9.84-25.05l-1.72-1.85c-11.82-12.74-33-20-50.42-20h-6.09A62.46,62.46,0,0,0,304.39,177L290,190.41l-2.46-5.64a26.58,26.58,0,0,0-5.35-8A63,63,0,0,0,237.28,158h0a63.1,63.1,0,0,0-35,10.59L188.1,178.84v-1a17.56,17.56,0,0,0-17.56-17.55H16.78L2.89,211.25l127.33,2.32L111.51,314.13C108.33,327.82,117,341.31,131,343a23.12,23.12,0,0,0,25-16.3l34.83-107.6c3.76-12.55,20.7-20.53,33.7-18.83a26.73,26.73,0,0,1,22.26,33.8L228.45,314a28.42,28.42,0,0,0,27.35,36.18c12.13,0,18.3-7.69,22.25-19.16L313,227.13c4.06-11.77,18.46-18.78,30.7-16.45h0A25.06,25.06,0,0,1,363,242.5l-18.54,68.21a30.52,30.52,0,0,0,29.19,39.44l119.72-2.31,13.89-50.93Z" transform="translate(-.58-.58)" fill="#fff"/></svg>