<svg xmlns="http://www.w3.org/2000/svg" viewBox="0 0 544 275.58"><defs><linearGradient id="0" x1="3.116" x2="546.97" gradientUnits="userSpaceOnUse"><stop stop-color="#c51f5d"/><stop offset="1" stop-color="#2f2361"/></linearGradient></defs><path data-name="path0 fill" d="M542.4,178,366,1.59a6.12,6.12,0,0,0-8.2,0l-86.6,86.3L186.3,3a5.73,5.73,0,0,0-8.2,0L151.6,29l-97.4,95.5-21.3,20.9L1.6,175.89a5.56,5.56,0,0,0-1.6,4.2,7,7,0,0,0,1.6,4.2l88,88a5.73,5.73,0,0,0,8.2,0l84.5-84.4,85.6,85.6a5.73,5.73,0,0,0,8.2,0l84.7-84.7L446,274a5.56,5.56,0,0,0,4.2,1.6,6,6,0,0,0,4.2-1.6l88-88a5.56,5.56,0,0,0,1.6-4.2A4.52,4.52,0,0,0,542.4,178Zm-15.8,7.3L476,166.69l-23.2-50,13.4,1.9,63.6,63.6ZM498,213.89l-15-32.1,34.5,12.7ZM149.7,98.19l-71.3,19.2,71.3-70.1Zm-88.5,35.9,50-13.4L107.9,177l-60.8-28.9Zm62-16.6,8.9-2.3,23.7,36.4-37.1,41.1Zm40.5,24.8-19.9-30.5,11.3-3,28.4,11.7Zm-2.3-43.6V77.39L229,83l16.9,50.7Zm57.2,65.9,24.2,14.8,4,56.5-34.2-34Zm32.9,6.4-30.7-19,2.3-14.8,28.9,12a3.88,3.88,0,0,0,2.3.9l29.1,12.2,12.2,36.1Zm43.8-10.4,31.7-16.4-23.2,41.3ZM339.2,125l-29.3,15.2,7-49.7,40.8,24.9Zm30.7-16-54.7-33.3-9.6-5.9L320,55.49l62.2,20.2,5.9,23.9Zm29.8-11.5-14.5-60.3,67.6,67.6Zm.5,11.8,12.4,1.6L426,237.09l-35.7-35.7Zm24.2,3.5,14.8,2.1,21.1,45.5-25.8,47.9ZM361.7,14l7.3,7.3,9.9,41.1-49.5-16Zm-86.5,86.6,22.1-22.1,8.7,5.4-8.9,62.9-9.1,4.7L259.9,140l-23-69.2,30,30A6.5,6.5,0,0,0,275.2,100.59ZM182,15.69,218.4,52l6.3,19-63.3-5.4V35.79ZM38,156.89l69,32.6-1.9,31-61.7-10.8-29.3-29.3Zm55.6,103.2-35.9-35.9,46.4,8.2-1.2,18.1Zm84.4-84.5L115.6,238l1.6-26.7.2-.2,77.4-85.6,17.1,7-3.5,21.6-6.1,37.5-16-16A5.85,5.85,0,0,0,178,175.59Zm94.1,85.7-12.7-12.7-4.2-61.7,46.4,28.6,4.2,12.2Zm88.9-86.4a6.33,6.33,0,0,0-4.2,1.6l-42,42-6.1-18.1,37.3-66.2,42-21.6-8.4,78.1-14.3-14.3A7,7,0,0,0,361,174.89Zm89.2,86.8-11.3-11.3-2.3-21.6,29.8-55.4,22.8,49.3Z" transform="translate(0-.01)" fill="url(#0)"/></svg>