<svg enable-background="new 0 0 1541.3 1702.8" viewBox="0 0 1541.3 1702.8" xmlns="http://www.w3.org/2000/svg"><circle cx="766.2" cy="670.4" fill="#06f" r="290.3"/><path d="m896.3 6.6c-66.3-8-415.9-43.6-666.1 195.7-72.5 69.3-118.9 144.8-149 208.8 104 30.5 208.1 61.1 312.1 91.6 14.5-32.3 60.2-123.1 165.7-185.3 106.9-63 209.8-58.1 245-54.9 30.7-85.3 61.5-170.6 92.3-255.9z" fill="#06f"/><path d="m206 829.7-131.7 92.5c-5.4-11.2-12.8-27.6-19.8-48.1-5.8-16.9-11.2-35.7-21-85.5-6.3-32.3-10.9-55.5-15.7-88.9-8.3-57.3-10.9-100.7-13.7-149-1.7-29.1-3.5-68.3-4.1-115 68.7 19.5 137.3 39 206 58.5zm160-69.5c-16.3-72.7-8.5-134.1-1-170l-126.5-39.5v264l237.4 144c-27.4-27.5-86.6-94.2-109.9-198.5zm-165.5 141c-20.8 13.8-41.7 27.7-62.5 41.5 11.5 19.3 28 46.9 48.7 80 5.2 8.3 17.4 27.8 27.8 44 17.7 27.4 44.2 66.2 81.2 113.5 41.1-47.8 82.2-95.7 123.3-143.5z" fill="#1ec0ff"/><path d="m564 1025-199.3 240c76 88.4 156.1 178.1 240.3 268.7 54.1 58.2 107.9 114.5 161.4 169.1 49.6-51.8 99.2-103.6 148.9-155.4l-159-210 151.8-86-68.5-181c-30.4 6.4-77.8 12.5-134.5 4.3-64.6-9.4-112.9-33.1-141.1-49.7z" fill="#a3daff"/><path d="m1016 1512.7-115.9-39.2-62.3-122.5 125.5-71.8-84.4-217.3c175.5-52.4 296-214.2 295.2-394.3-.8-188.2-133.8-354.2-320.5-397.3 27.1-51.4 54.1-102.8 81.2-154.3l218.4 160 181.8-119.8c59.5 70.8 96.8 134.3 119.4 178.3 25.4 49.4 40.2 89.8 44.7 102.3 6.9 19.4 18.7 52.5 27.7 95 7.7 36.4 20.7 100.3 11.3 181.7-4.1 35.7-14.1 88-40.3 147.3-160.7 217.4-321.2 434.7-481.8 651.9z" fill="#a3daff"/><path d="m1154 218.3-185-132 23.6-55c49.1 11.3 88.1 26.4 116.1 39 42.5 19.2 68.7 37 75 41.3 19.4 13.4 34.6 26.3 45.7 36.3-25.2 23.5-50.3 47-75.4 70.4z" fill="#06f"/></svg>