<svg xmlns="http://www.w3.org/2000/svg" viewBox="0 0 1730 741.8"><g fill="#4a90e2"><circle cx="124.5" cy="617.3" r="124.5"/><path d="M1608.1,0c-67.4,0-124.5,54.5-124.5,124.5,0,98.6-15.6,124.5-124.5,124.5h-10.4a121.77,121.77,0,0,0-111.5,121.9v2.6c0,96-18.2,119.3-124.5,119.3-5.2,0-10.4,0-13,2.6-62.2,7.8-111.5,59.7-111.5,121.9,0,67.4,54.5,124.5,124.5,124.5,64.8,0,119.3-51.9,121.9-114.1V617.3c0-88.2,28.5-121.9,121.9-124.5h2.6c64.8,0,119.3-51.9,121.9-116.7v-7.8c0-90.8,28.5-124.5,124.5-124.5,67.4,0,124.5-54.5,124.5-124.5C1730,54.5,1675.5,0,1608.1,0ZM876.7,249H866.3c-108.9,0-124.5-25.9-124.5-124.5C741.8,57.1,687.3,0,617.3,0,549.9,0,492.8,54.5,492.8,124.5c0,98.6-15.6,121.9-124.5,121.9H357.9A121.77,121.77,0,0,0,246.4,368.3c0,67.4,54.5,124.5,124.5,124.5,64.8,0,119.3-51.9,121.9-114.1v-7.8c0-90.8,28.5-124.5,124.5-124.5s124.5,33.7,124.5,121.9c0,67.4,54.5,124.5,124.5,124.5s124.5-54.5,124.5-124.5C988.2,306.1,938.9,254.2,876.7,249Z"/></g></svg>