<svg enable-background="new 0 0 379 379" viewBox="0 0 379 379" xmlns="http://www.w3.org/2000/svg"><circle cx="189.5" cy="189.5" fill="#0b359f" r="189.5"/><path d="m284.3 84.4-24.5 27.1c5.4 5.1 35 34.4 34.7 80.4-.2 34.9-17.4 59.1-23.5 66.9 9 7.5 18 15 27.1 22.5 7.9-9.4 33.3-41.6 34-89.4.8-62.3-41.1-101.4-47.8-107.5z" fill="#ee50ac"/><path d="m259.7 272.3v-81.7c0-11.5-2.6-22.9-8.1-33.1-1.9-3.5-4.2-7.1-7-10.6-19.4-24.2-47.6-26.4-51.8-26.7-17.4-1.1-31.4 4.4-40.8 9.8v-9.9l-34.7-.3v157.5c-9-9.9-21.6-26.5-30.1-50-.8-2.3-1.6-4.5-2.2-6.7-8.5-27.4-6.2-57.2 7.4-82.4 4-7.5 9.2-15.1 16-22.5 9.9-10.7 20.7-18.2 31.1-23.4 24.6-12.4 53.2-14.9 79.6-7.2.1 0 .2.1.4.1 12 3.5 21.8 8.1 29.1 12.3l20.9-22.7c-8.3-5.3-18.9-11.1-31.7-15.9-.2-.1-.4-.1-.6-.2-32.1-11.9-67.6-11.7-99.5.8-20 7.8-42.4 21.3-60.7 44.4-10.9 13.7-18 28-22.7 41.1-11.5 32.4-10 68.1 3.7 99.6 3.2 7.4 7.3 15.2 12.4 23 16 24.5 35.3 38.8 47 46.2 4.9 2.8 10.4 5.7 16.6 8.4 6.4 2.9 12.6 5.1 18.1 6.9v-138.8c0-11.3 5.2-22.2 14.4-28.8.4-.3.7-.5 1.1-.8 10.9-7.2 26.3-9 39.1-1.8 3.3 1.9 6.1 4.2 8.3 6.5 6.1 6.6 9.3 15.4 9.3 24.4v137.3c8.4-1.8 19.8-5.2 32.2-12 13.1-7.1 22.5-15.4 28.6-21.7z" fill="#cfdbdf"/></svg>