<svg xmlns="http://www.w3.org/2000/svg" viewBox="0 0 652 652.1"><path data-name="path0 fill" d="m229.1 404.7c31.5 63.9 61.9 125.5 93.2 189.1 16.3-48.1 31.9-94.4 47.9-141.5-46.6-15.7-92.6-31.2-141.1-47.6m-170.5-82.1c48.1 16.3 94.3 32 141.2 47.9 15.9-47 31.6-93.2 47.9-141.4-63.9 31.7-125.6 62.1-189.1 93.5m178.7 60a42.16 42.16 0 0 0 4.2 2.3c45.5 15.5 91 31 136.6 46.1 3.7 1.2 9 .2 12.6-1.6q78.3-38.25 156.3-76.9c14.8-7.3 29.6-14.7 45.7-22.8-3.5-1.4-5.4-2.2-7.3-2.8-44.1-14.9-88.1-30-132.4-44.6a20.14 20.14 0 0 0 -14.1 .9c-55.5 27-110.7 54.4-166.1 81.7-11.4 5.7-22.9 11.5-35.5 17.7m192.6-120.5c-33.5-68-66.6-135-100.5-203.7-34.6 102.3-68.4 202.1-103 304.3 68.9-34.1 135.8-67.1 203.5-100.6m-429.9 64c32.4-16.1 63-31.3 93.7-46.4q78.15-38.55 156.4-77a19.21 19.21 0 0 0 10.8 -12.3q30.6-91.2 61.7-182.3c.8-2.2 1.7-4.4 3.1-8.1 2.1 4 3.6 6.9 5 9.8q59.85 121.35 119.9 242.6c1.9 3.9 7.1 7.2 11.5 8.7 60.3 20.8 120.8 41.2 181.2 61.8 2.3.8 4.5 1.6 8.7 3.1-5.6 2.8-9.7 5-13.9 7-77.9 38.4-155.7 77-233.7 115.1-7.7 3.8-11.9 8.6-14.6 16.7-20.1 60.3-40.7 120.4-61.2 180.6-.6 1.6-1.3 3.2-2.6 6.7-5.3-10.5-9.8-19.5-14.2-28.5q-54.45-110.4-108.6-220.8c-3-6.1-6.8-9.8-13.4-12q-90.75-30.45-181.3-61.5c-2.4-.8-4.6-1.7-8.5-3.2" fill="#222"/></svg>