<svg enable-background="new 0 0 271 271" viewBox="0 0 271 271" xmlns="http://www.w3.org/2000/svg"><circle cx="135.5" cy="135.5" fill="#231f20" r="135.5"/><path d="m152.2 207.6 49.7-26.4h-68.3z" fill="#8f8030"/><path d="m201.9 181.2-49.7 26.4-17.2 52.5z" fill="#46461d"/><path d="m113.7 207.6 19.9-26.4h-72.7z" fill="#47491e"/><path d="m60.9 181.2 52.8 26.4 21.3 52.5z" fill="#6c692b"/><path d="m112.1 63.4-49.7 26.4h68.3z" fill="#8f8030"/><path d="m62.4 89.8 49.7-26.4 17.2-52.5z" fill="#46461d"/><path d="m150.6 63.4-19.9 26.4h72.8z" fill="#47491e"/><path d="m203.5 89.8-52.9-26.4-21.3-52.5z" fill="#6c692b"/><path d="m112.1 63.4 18.6 26.4 19.9-26.4-21.3-52.5z" fill="#f6eb27"/><path d="m152.2 207.6-18.6-26.4-19.9 26.4 21.3 52.5z" fill="#f6eb27"/><g fill="#d33"><path d="m48.8 108v57h8.2v-35.8l15.3 35.8h13.5l.7-57h-8.9l-.3 43.5-18.2-43.5z"/><path d="m94.6 108v57h36.1v-5.8l-24.4-.2.2-17.6h17.6v-7.9h-17.8v-18.3l24.4.2v-7.4z"/><path d="m140.8 121.2v33.3c.2 1.3.7 4.4 3.3 7.3 1.7 1.8 3.5 2.8 4.7 3.2h26.7v-6.3l-20.3.1c-.4-.2-1.2-.6-1.9-1.5-.8-1.1-1-2.2-1.1-2.7 0-11.8 0-23.5 0-35.2.2-.6.6-1.7 1.8-2.8.9-.7 1.7-1.1 2.3-1.3h19.3v-8h-24.3c-1.2.3-4.7 1.5-7.4 5.1-2.9 3.8-3.1 7.6-3.1 8.8z"/><path d="m184.2 165 .3-57h10.5v25.2l16.2-.1v-25.1h11v57h-10.7v-23.6l-16.4-.2v23.8z"/></g></svg>