<svg xmlns="http://www.w3.org/2000/svg" viewBox="0 0 595.28 595.28"><g fill="#353537"><path d="M0,0H65V595.28H0ZM364.32,164.47,78.56,0V595.28h65V111.91L364.32,239.64Zm0-90.87L237.1,0H107.39L364.32,148.78Zm0-73.6H264.22l100.1,57.92Zm166,0h65V595.28h-65Z"/><path d="M451.72,483.37,231,355.64v75.17L516.72,595.28V0h-65ZM231,521.68l127.22,73.6H487.89L231,446.51Zm0,73.6h100.1L231,537.37Z"/></g><g fill="#edea46"><path d="m367.67 0v342.79l-136.71-80.12v84l163.54 95.94 52.29 31.72v-1.04-84.12-389.17h-79.12"/><path d="m364.32 249.88l-137.53-82.22v-.71l-43.12-25.07-36-20.93v474.33h79.12v-343.32l137.53 80.04v-82.12"/></g></svg>