<svg id="Layer_1" xmlns="http://www.w3.org/2000/svg" viewBox="0 0 800 800" width="2500" height="2500"><style>.st0{fill:#010101}</style><path class="st0" d="M399.5 0h1c1.9 5 5 9.4 7.6 14 29.3 51.2 59 102.2 88.2 153.4 62.1-17 124.4-33.5 186.6-50.3-16.9 62.1-33.7 124.3-50.7 186.4 53.7 30.6 107.2 61.7 160.8 92.5 2.2 1.3 4.5 2.7 7 3.5v1c-4.5 1.7-8.5 4.5-12.8 6.8-51.7 29.5-103.3 59.3-155 88.7 16.8 62.1 33.4 124.3 50.3 186.4-61.9-16.9-123.9-33.8-185.9-50.5-27.7 48.7-55.9 97.1-83.8 145.7-4.1 7.4-8.8 14.5-12.3 22.3h-1c-4.2-9-9.7-17.4-14.5-26.2-26.9-47-53.8-93.9-80.7-140.9-62.4 16.6-124.7 33.2-187.1 49.9 16.7-62 33.3-124.1 50.1-186.1C113.7 466 60.4 434.8 6.9 404c-2.2-1.3-4.4-2.7-6.9-3.5v-1c1.1-.4 2.1-.9 3.1-1.4C58 366.7 112.6 335 167.4 303.6c-17-62.1-33.5-124.4-50.3-186.5 8.5 2.5 17.1 4.3 25.6 7.1 8.2 1.7 16 4.6 24.2 6.4 29.3 8.2 58.7 15.8 87.9 24 8.1 1.7 15.9 4.7 24 6.3 8 2.6 16.2 4.2 24.2 6.8 27.4-47.8 55.2-95.4 82.7-143.1 4.6-8.3 9.9-16.1 13.8-24.6m5.9 29.1c-.3 111.1.1 222.2-.2 333.2 19.7-33.4 38.7-67.2 58.3-100.7 12.5-22 25.4-43.7 37.7-65.8-5-10.1-11.3-19.6-16.6-29.5-26.5-45.8-52.7-91.6-79.2-137.2m-50 105.4c-5.9 15.6-12.6 30.8-18.2 46.5 11.2 43.2 23.1 86.3 34.4 129.6 2.5 7.7 3.8 15.7 6.4 23.4 6.2 9.1 10.9 19.1 16.8 28.3-.2-108.6-.1-217.3 0-325.9-13.4 32.6-26.1 65.5-39.4 98.1m-9.2-22.3c-11 19.4-22.4 38.4-33.3 57.9 5.4 1.5 10.8 3.1 16.2 4.7 1.5-5.8 4.6-11 6.4-16.7 11.7-28.9 23-58 34.8-86.9-8.5 13.5-15.9 27.5-24.1 41m-205.9 21.5c6.1 5.2 11.4 11.3 17.2 16.8 73.3 73.4 146.8 146.6 220 220.1-5.7-21.4-11.3-42.9-17.2-64.3-1.5-7.6-4.4-14.9-5.8-22.5-4.9-17.1-9.1-34.5-14-51.6-1.8-8.5-4.8-16.7-6.5-25.2-2.4-7.3-3.9-14.9-6.1-22.3-6.6-2-13.2-4.1-20-5.5-9.9-3.2-20-5.2-29.9-8.4-8.6-1.8-16.9-4.9-25.6-6.7-9.6-3.2-19.6-5.1-29.2-8.2-8.5-1.7-16.7-4.9-25.2-6.6-10-3.2-20.2-5.3-30.2-8.5-9.2-1.9-18.2-5.3-27.5-7.1m514.9 4.7c-17.7 6.7-35 14.8-52.5 21.9-30.7 13.3-61.7 25.9-92.3 39.3-26.7 46.5-53.5 93-80.3 139.5-3.8 10.5-5.5 21.7-8.6 32.4l228-228c1.7-1.9 3.5-3.6 5.7-5.1M654 153c-75 74.8-149.7 149.7-224.7 224.5 8.1-2.4 16.4-4 24.4-6.6 7.9-1.5 15.5-4.4 23.3-6.1 46.1-12.4 92.2-24.6 138.2-36.9 3.4-10.2 5.5-20.7 8.7-30.9 1.8-8.9 5.1-17.4 6.9-26.4 2.9-8.7 4.6-17.7 7.4-26.4 7.6-28.7 15.6-57.2 23.2-85.9 1.8-6.1 3.6-12.1 4.8-18.3-3.5 4.9-8.2 8.6-12.2 13m-515.6-8c6.9 17.8 14.9 35.1 22.1 52.8 13.2 30.5 25.8 61.3 39.2 91.8 44.8 25.7 89.5 51.6 134.3 77.3 4.5 2.9 10.2 2.9 15.2 4.7 7 2.3 14.3 3.6 21.4 5.8-63.4-63.3-126.6-126.7-190-189.9-14-14.3-28.5-28-42.2-42.5m461.2 4.7c-7.1 1.4-13.9 4.1-21 5.5-6.4 1.5-12.6 3.8-19.1 5.1-6.2 1.5-12.3 3.8-18.6 5-6.2 1.5-12.1 3.7-18.4 5-7.1 1.8-14 4.3-21.2 5.6 2.7 4.6 5.1 9.2 7.9 13.7 32.9-14.6 66.5-27.9 99.4-42.6-3 .9-5.9 2.1-9 2.7m-452.4 41.8c7.6 27.4 14.7 55 22.3 82.4 1.6 8.4 4.9 16.3 6.3 24.7 4.6-2.6 9.3-5 13.7-8-14.5-32.8-27.9-66.2-42.3-99.1m48.4 107.3c-7 3.4-13.5 7.8-20.4 11.5-42 24.2-84.1 48.4-126.2 72.7-8.2 4.5-16 9.6-24.3 13.7 3.1.2 6.2.2 9.3.1h265c22.4-.2 44.9.3 67.3-.2-7.3-3.5-14-8-21-11.8-33.4-19.3-66.9-38.5-100.3-57.8-16.6-9.3-32.7-19.2-49.4-28.2m434.1 14.6c-1.5 5.2-3.1 10.5-4.5 15.7 5.9 1.6 11.2 4.7 17 6.5 28.6 11.7 57.5 22.6 86 34.6-4.4-3.2-9.4-5.5-14-8.5-28.3-15.9-56.2-32.5-84.5-48.3M611 339.3c-8.1 1.5-15.8 4.6-23.9 6.2-17.3 4.9-34.7 9.1-51.9 14.1-8.1 1.6-15.9 4.6-24 6.2-9.9 3.1-20.1 5.1-30 8.2-5.6 1.5-11.7 2.1-16.7 5.2-10.3 5.7-20.2 12.1-30.7 17.4 28.4.5 56.9.1 85.4.2h183.9c22.2-.2 44.5.3 66.7-.3-6.2-1.5-11.8-4.5-17.7-6.6-43.6-17.4-87.1-34.8-130.7-52.1-3.6-1.6-7.1.9-10.4 1.5m-223.7 29.9c2.2 8.2 4 16.6 6.7 24.8-8.1-2.6-16.4-4.5-24.6-6.6 7.2 4.2 14.6 8.2 21.7 12.6-7.2 4.5-14.8 8.4-22.1 12.8 8.4-2.4 16.8-4.1 25.1-6.8-2.7 8.1-4.6 16.5-6.8 24.8 4.2-7.3 8.2-14.7 12.7-21.8 4.2 6.9 8.2 14 12.1 21-2.3-8.1-4-16.4-6.7-24.4 8 2.4 16 4.3 24.1 6.2-7.1-3.6-13.8-7.7-20.6-11.8 7.1-4.4 14.4-8.4 21.6-12.6-8 2-16 4-23.9 6.3 1.6-7.8 3.4-15.7 5-23.5-3.2 7.3-7.6 14-11.7 20.8-4.4-7.1-8.3-14.5-12.6-21.8m-351.2 36c14.2 6.2 28.8 11.7 43.1 17.7 33.6 13.6 67.3 27.2 100.9 40.8 22.6-6.2 45.3-12.1 67.9-18.3 7.5-1.5 14.7-4.4 22.2-5.8 15.6-4.5 31.3-8.3 46.9-12.8 5.5-1.9 11.5-2.1 16.6-5 9.6-5.5 19.2-10.8 28.6-16.5-36.1.2-72.1 0-108.2.1-72.7-.2-145.4 0-218-.2m401.3 0c45.6 26.7 91.5 53 137.2 79.5 9.8 5.4 19.1 11.5 29 16.5 55.8-31.8 111.6-63.8 167.3-95.8-111.2-.3-222.4.1-333.5-.2m-253.5 67.6c-4.8 16-8.6 32.3-13.3 48.3-1.5 7.8-4.4 15.2-6 23-8.3 29.9-16.1 60-24.3 89.9-1.9 8.7-5 17.1-6.7 25.9 7.7-8.7 16.3-16.5 24.4-24.8 70.8-70.8 141.6-141.5 212.4-212.4-62.2 16.5-124.3 33.3-186.5 50.1M429 422.1c77.3 77.4 154.7 154.6 232 232.1-20.4-47.9-41-95.8-61.4-143.7-46.7-26.8-93.1-54-139.8-80.8-1.6 0-3.3-.1-4.8-.7-8.6-2.7-17.3-4.8-26-6.9m-6.8 7c2.2 9.3 4.7 18.6 7.4 27.8 1.4 7.6 4.4 14.9 5.8 22.5 1.2 5.2 3.1 10.2 4.3 15.4 1.5 7.6 4.3 14.8 5.8 22.3 6.6 23.9 12.7 47.9 19.3 71.8 2 8.8 5 17.3 6.7 26.1 5.8 1.3 11.3 3.4 17.1 4.7 7.8 1.7 15.3 4.6 23.1 6.1 10 3.2 20.3 5.3 30.3 8.5 7.9 1.6 15.4 4.5 23.3 6.1 5.4 1.3 10.5 3.3 15.9 4.5 6.6 1.3 12.9 3.9 19.6 5.2 6.6 1.5 13 4 19.8 5.3 6.3 1.5 12.3 3.9 18.7 5.1 6.6 1.8 13.2 4 20 5.5-14-13.7-27.7-27.7-41.6-41.5-65.3-65.2-130.4-130.3-195.5-195.4M187.5 619.5c-14.2 13.9-27.8 28.3-42.3 41.9 17-6.8 33.6-14.4 50.5-21.5 31.3-13.4 62.6-27 93.9-40.3 25.1-43.5 50.3-87 75.5-130.5 1.4-2.7 3.2-5.1 3.9-8.1 2.4-10.6 5.7-21 8.4-31.5-63.3 63.4-126.7 126.6-189.9 190M72.8 430.7c4.1 2.9 8.6 5 12.9 7.7 28.1 16 56 32.6 84.1 48.5 1.2-5.2 2.7-10.2 4.4-15.2-14.4-5.4-28.4-11.5-42.7-17.1-19.5-8.1-39.2-15.7-58.7-23.9m262.7 108.9c-12.1 21.4-24.9 42.4-36.7 63.9 5.8 10.8 12.2 21.2 18.1 31.9 26 45.1 51.7 90.4 77.8 135.5.2-111.1 0-222.2.1-333.3-20 33.8-39.5 68-59.3 102m69.7-101.9c.3 108.1 0 216.2.1 324.3 17.5-46.3 34.8-92.7 52.2-139.1 1.2-3.2 2.9-6.4 3.2-9.8-.7-5.2-2.5-10-3.8-15-8.9-33.3-17.7-66.7-26.7-99.9-1.4-7.2-4.2-14-5.5-21.2-1-3.8-2-7.5-3.2-11.2-5.5-9.5-10.6-19-16.3-28.1M609.7 509c14.1 33.9 28.9 67.5 43.2 101.3-7.6-28-15-56-22.6-83.9-1.9-8.6-5-16.8-6.6-25.5-4.6 2.9-9.4 5.4-14 8.1m-422 144.7c5.8-1.1 11.4-3.2 17.2-4.3 17-4.9 34.2-9 51.2-13.9 7.8-1.4 15.2-4.4 23-5.9 6.8-1.7 13.4-4.2 20.4-5.3-3.2-4.7-5.6-9.8-8.6-14.6-34.5 14.5-68.7 29.7-103.2 44M425.4 736c6.2-10.1 11.8-20.5 17.9-30.7 14.4-25.3 29.2-50.4 43.5-75.8-6.4-1.9-12.8-4.1-19.4-5.2-14 37.1-27.8 74.5-42 111.7z"/></svg>