<svg xmlns="http://www.w3.org/2000/svg" viewBox="0 0 528.12 529.82"><path d="M269.8,122.37c16.73,70.38-35.22,164.18-147.47,149.1l-1.64-.24A145.79,145.79,0,1,0,269.8,122.37Z" fill="#333"/><g fill="#299e94"><circle cx="147.46" cy="147.46" r="102.22"/><path d="M424 115.63a100.55 100.55 0 0 0 -56.87 17.56c17.37 13.09 93.05 77.93 57.57 190.21 56.13-.39 101.52-46.74 101.52-103.88C526.18 162.14 480.41 115.63 424 115.63"/><path d="M302.08 486a100.64 100.64 0 0 0 17.78 -56.8c-20.64 6.88-117 32.45-189.31-60.45-31.52 46.45-19.08 110.12 28 142.53C205.8 543.79 270.06 532.47 302.08 486"/></g><g fill="#333"><path d="M484.8 330.41A230 230 0 0 1 330.29 484.83a126.51 126.51 0 0 1 -38.49 43.34c124.5-12.63 223.5-111.51 236.32-235.95A126.19 126.19 0 0 1 484.8 330.41"/><path d="M212,41.29A229.94,229.94,0,0,1,418.27,94.07c2.44-.14,4.89-.23,7.36-.23A125.38,125.38,0,0,1,475.1,104a265,265,0,0,0-320-80.25A125,125,0,0,1,212,41.29Z"/><path d="M92.16,425.63c0-3.06.15-6.09.37-9.09a229.81,229.81,0,0,1-52-201.31,124.94,124.94,0,0,1-18.4-56.65,265,265,0,0,0,79.44,314.71A124.55,124.55,0,0,1,92.16,425.63Z"/></g></svg>