<svg enable-background="new 0 0 32 32" viewBox="0 0 32 32" xmlns="http://www.w3.org/2000/svg"><circle cx="16" cy="16" fill="#1a4199" r="16"/><g fill="#fff"><path d="m10.7 7.1 10.7 6.2v6.3l-16.4-9.4 5.3-3c.1-.2.3-.2.4-.1" opacity=".7"/><path d="m21.4 7-5.5 3.2 5.5 3.2z" opacity=".9"/><path d="m21.4 7 5.3 3c.1.1.2.2.2.4v12.4l-5.5-3.2z"/><path d="m26.9 22.8-5.3 3c-.1.1-.3.1-.4 0l-10.7-6.2v-6.3z" opacity=".9"/><path d="m5 10.2v12.4c0 .2.1.3.2.4l5.3 3v-12.7z" opacity=".6"/><path d="m10.5 26 5.5-3.2-5.5-3.2z" opacity=".7"/></g></svg>