<svg id="Layer_1" xmlns="http://www.w3.org/2000/svg" viewBox="0 0 295.4 250.4" width="2500" height="2119"><style>.st0{fill:#ec1429}.st1{fill:#1aaacf}</style><path class="st0" d="M74.1 36.3l69.4-.2s15.9 29.2 17.1 29.7c7.9-4 52.8-29.7 52.8-29.7l-55.5 57.7-23.2-38.9-34.9.3 30.5 65.8S24.4 225.9 5.5 244.8c-2.1 1.7-5.6 5.8-5.6 5.8l106.4-133-32.2-81.3z"/><path class="st1" d="M287.3 7.4c3-2.1 4.9-5.7 8.1-7.4-15.8 20-31.4 40.3-47.1 60.4-3.9 5.2-8.1 9.9-11.7 15.4-3.8 3.6-6.4 8.3-9.8 12.2-2.5 2-3.6 5-5.7 7.3-3 4.6-7.1 8.3-9.9 13.1-3.3 3.4-6 7.3-8.8 11.2-2.4 1.9-4 4.8-5.6 7.2 3.4 8.5 34.8 75 35.2 78.6-24.8-.1-49.6 0-74.4-.1-1.6-.2-3.4.4-4.9-.3-5.1-7.7-8.4-16.3-13.5-24-.9-1.9-3.4-5.6-3.4-5.6s-25.5 16.2-34 20.5c-1.2 1.3-10.1 6.6-13.1 8.1 1.2-2.7 41.1-44.1 47.3-50.8 2.7-2.5 4.7-5.8 7.8-7.8 2.1 3.5 3.6 7.3 5.3 10.9 3.4 4.6 4.6 10.4 8.2 14.9 2.4 5.5 7.6 16.4 7.6 16.4l35.6-.1s-29.2-61.3-29.6-65.3c2.4-3 6-4.8 8-8.1 5.1-4.9 10-9.9 15.3-14.6 4.6-5.4 9.9-10.3 15.3-15 5.3-5.7 10.8-11.1 16.5-16.4 6.8-6.8 13.7-13.8 20.7-20.4 4.8-4.6 9-9.6 14.2-13.7 8.2-9.2 17.8-17.4 26.4-26.6z"/></svg>