<svg enable-background="new 0 0 393 396.5" viewBox="0 0 393 396.5" xmlns="http://www.w3.org/2000/svg" xmlns:xlink="http://www.w3.org/1999/xlink"><linearGradient id="a" gradientUnits="userSpaceOnUse" x1="306.7867" x2="96.7972" y1="324.811" y2="83.3231"><stop offset="0" stop-color="#0c3f8c"/><stop offset="1" stop-color="#082c62"/></linearGradient><ellipse cx="196.5" cy="198.3" fill="#fcb318" rx="196.5" ry="198.3"/><circle cx="196.6" cy="198.1" fill="url(#a)" r="191.4"/><path d="m281 215.5 39.3 46-7.3-130.5z" fill="#eda521"/><path d="m313 131-209.7 136.9 177.7-52.4z" fill="#fcb318"/><path d="m111.3 184-39.3-46 7.3 130.5z" fill="#eda521"/><path d="m79.3 268.5 209.7-137-177.7 52.5z" fill="#fcb318"/><path d="m205.5 383.3h-16.8v-12.5h16.8zm-.7-369.3h-17.8v13.5h17.8zm-68 359.6 16.5 6 4.1-12.4-15.8-6zm-39.2-34.2-7.5 11.1 13.9 9.3 7.5-11zm-24.3-20.8-11.8-13.1-9.5 8.8 10.6 12.5zm-29-40.6-7.1-14.8-11.9 5.2 7.4 16zm-18-62.5-13.5 2.1 3 17.3 12.3-2.1zm-.3-32.1 2-16.4-12.8-2.1-2.5 17.6zm18.1-61.9-12.3-6-7 15.5 11.8 5.4zm27.9-40.1-9.8-8.9-11.1 13 9.5 8.4zm38.1-30.8-6.9-10.3-14.1 8.9 6.9 10.4zm45.8-18.8-4.6-12.4-16.3 5.9 4.8 12zm83.9-12.4-3.3 12.8 15.1 5.1 4.3-12.9zm49.2 20.2-7.1 10.6 13.4 8.9 8.1-10.9zm41.6 53.7 10.3-9-10.5-12.3-10.1 8.1zm17.9 26.6 7.5 15.1 11.8-5.9-7.5-14.3zm16.9 45.7 2.4 17.3 12-1.3-2.3-17.6zm2.2 49.4-2.3 17.1 12.4 1.4 2-17.4zm-18.5 62 12 5.4 6.9-14.4-11.4-5.3zm-28.8 40.5 10.6 8.6 10.4-12.4-9.5-9.3zm-37.3 30.5 7.1 10.9 13.6-9.1-7.3-11zm-46 17.9 4.4 12.9 16-5.1-4-12.4z" fill="#feb21f"/></svg>