<svg xmlns="http://www.w3.org/2000/svg" viewBox="0 0 568 490.86"><path d="M427.75,0H140.25L0,245.43,140.25,490.86h287.5L568,245.43ZM310.3,385.68v52.59H266.47V392.69c-26.3,0-57.85-14-78.89-35.06l29.8-42.07c22.79,17.53,42.08,26.29,63.11,26.29,24.55,0,35.07-10.52,35.07-29.8,0-45.58-117.46-45.58-117.46-122.72,0-45.58,28.05-75.38,70.12-84.14V56.1h43.83v45.58c28.05,3.51,49.09,17.53,66.62,35.06L343.6,175.31c-14-17.53-28-22.79-47.33-22.79-21,0-35.06,8.76-35.06,28,3.51,42.07,122.72,38.57,122.72,122.71,0,42.08-26.3,75.39-70.13,84.15Z" fill="#f6ae2d"/></svg>