<svg enable-background="new 0 0 53.1 56" viewBox="0 0 53.1 56" xmlns="http://www.w3.org/2000/svg" xmlns:xlink="http://www.w3.org/1999/xlink"><linearGradient id="a" gradientUnits="userSpaceOnUse" x1="0" x2="53.0557" y1="28" y2="28"><stop offset="0" stop-color="#133557"/><stop offset="1" stop-color="#0f1c2c"/></linearGradient><path d="m48 25c-.2 1.5-1.1 7.6-6 11-4.1 2.9-9.5 3-12 3-.4 0-.8 0-1 0h-1v-1c.1-1.5.5-6.1 4-10 5.7-6.3 14.3-5.1 15-5h1zm-13-4c.4-.4.8-.8 1-1l-1-1c-.2-.2-.6-.6-1-1-1.7-1.6-5.4-5-11-6-1.3-.2-3.4-.6-6 0-2.9.7-5 2.1-6 3l-1 1-1 1 1 1 1 1c1.1 1 3.8 3.6 8 5 1.8.6 4.5 1.6 8 1 4.3-.7 7.2-3.3 8-4zm-17 6c-1.7-.7-4.6-1.6-8-1-4.5.8-7.6 3.7-9 5-.4.4-.8.7-1 1l1 1c4 2.6 7 2.2 8 2 3.4-.6 6.3-3.4 9-6l1-1zm19-9c.4.4.8.8 1 1 .2-.2.6-.5 1-1 2.6-3.1 2.1-7.2 2-8-.3-2.4-1.4-4.1-2-5-1.4-2.1-3-3.3-4-4l-2-1c-.3.2-.6.5-1 1-2.4 2.9-2 6.8-2 7 .4 3.2 2.6 5.5 7 10zm-9-7c0-.2 0-.6 0-1 0 0-.1-2.2-1-4-1-1.9-4.1-3.7-8-4-.3 0-.7 0-1 0v1c0 .4.4 4.9 4 7 1.5.9 3 1 4 1zm-19 27c-.9.2-2.5.7-4 2-2.5 2.2-2.9 5.3-3 6-.1.8-.1 1.5 0 2h2c.7-.1 4.6-1 6-4 .9-1.8 1-4.7 1-5 0-.4 0-.8 0-1zm11-8s-5.2 3.9-7 8c-1.6 3.7-1.3 7.1-1 9 .1.7.9 4.6 4 8l1 1h1l1-1c1.3-1.1 3.6-3.4 5-7 .3-.8 1.9-4.9 1-10-.3-1.7-.8-4.5-3-7-.4-.4-.7-.8-1-1zm7 13c.2.5.5 1.2 1 2 .7 1.2 3.6 6 9 7 3 .5 5.5-.3 7-1 0-.2 0-.6 0-1s-.2-2-2-4c-2.5-2.8-5.7-3.9-6-4-3.6-1.2-6.8-.4-8 0zm14-2c1 .8 2.8 1.8 5 2 2.8.2 6.5-.9 7-3 .1-.4.1-.8 0-1-.4-.4-2.7-3.1-6-3-2.7.1-4.9 2-6 3-.4.4-.8.7-1 1z" fill="url(#a)"/></svg>