<svg xmlns="http://www.w3.org/2000/svg" viewBox="0 0 226.78 226.78" width="2500" height="2500"><defs><style>.cls-1{fill:#6093c3}.cls-2{fill:#fff}</style></defs><title>nmc</title><g id="Laag_2" data-name="Laag 2"><rect class="cls-1" x="23.39" y="23.39" width="180" height="180" rx="90" ry="90"/><path id="NMC_alt" data-name="NMC alt" class="cls-2" d="M156.37 68.51a18.91 18.91 0 0 0-6.07 8.88l-11.61 42.69L99.23 66s-8.8-.5-12 .67S79.79 71 78 77.79s-22.68 83.12-22.68 83.12 10.14.35 13.32-1.41 6.37-3.69 8.29-10.43c1.32-4.62 11.48-42.57 11.48-42.57L128 160.92s9.51.28 12.69-1.16c3.81-1.72 7.08-5.91 8.34-10.68s22.46-83.14 22.46-83.14-10.59-.87-15.12 2.57zm-25 77.55L92.3 92.32l2.9-11.84 39.66 54.63z"/></g></svg>