<svg xmlns="http://www.w3.org/2000/svg" viewBox="0 0 2000 2000"><g><path d="M1000,0c552.21,0,1000,447.69,1000,1000S1552.31,2000,1000,2000,0,1552.21,0,1000,447.69,0,1000,0Z" fill="#6093c3"/><path d="M1477.52 501.31A210 210 0 0 0 1410.1 600l-129 474.3L842.67 473.39s-97.76-5.54-133.34 7.46-82.64 48.07-102.6 123.56-252 923.5-252 923.5 112.68 3.93 148-15.62 70.75-41 92.12-115.9c14.71-51.3 127.6-473 127.6-473L1162.27 1528s105.62 3.12 141-12.9c42.33-19.15 78.61-65.71 92.62-118.63s249.55-923.7 249.55-923.7-117.62-9.68-167.91 28.52m-277.78 861.64L765.67 765.87l32.25-131.53 440.64 606.93" fill="#fff"/></g></svg>