<svg enable-background="new 0 0 32 32" viewBox="0 0 32 32" xmlns="http://www.w3.org/2000/svg"><g clip-rule="evenodd" fill-rule="evenodd"><circle cx="16" cy="16" fill="#f28f01" r="16"/><path d="m18.2 13.7-1.9-3.8c.4-.9.6-1.4.6-1.5 0-.4-.3-.7-.8-.9h5.9c-.7.3-1.4 1.2-2 2.5zm-3 5.9-.9 1.8h5.3c2.4 0 4-.5 4.8-1.4l-2.9 4.4h-14.4c1.6-.3 3.2-2.2 4.8-5.7.5-1.1 1-2.1 1.5-3zm-10.2.7c1.2-.7 5.5-8.2 5.5-10.3 0-.5-.3-1-.9-1.4h4.6l4 7.9 3.9-7.9h4.9c-2 .5-6.1 10.1-6.1 11.3 0 .2 0 .4.1.4h-4.2l-3.6-7.3-3.6 7.3z" fill="#fff"/></g></svg>