<svg enable-background="new 0 0 53.3 53.1" viewBox="0 0 53.3 53.1" xmlns="http://www.w3.org/2000/svg"><path d="m52.9 27.6-25.1 25.1c-.6.6-1.5.6-2.1 0l-18.9-19.2c-.6-.6-.6-1.5 0-2l12.4-12.3c.6-.6 1.5-.6 2 0l1.9 1.9c.6.6.6 1.5 0 2l-6.3 6.6c-.5.6-.5 1.4 0 2 .6.6 1.5.6 2.1 0l19.2-18.9c.6-.6 1.5-.6 2 0l12.8 12.6c.6.7.6 1.6 0 2.2z" fill="#f30"/><path d="m25 18.6-7.8-7.5c-.8-.8-.8-2 0-2.8l7.8-7.7c.8-.8 2-.8 2.8 0l7.8 7.4c.8.8.8 2 0 2.8l-7.8 7.7c-.8.8-2 .8-2.8.1z" fill="#6cf"/><path d="m16.9 17.3-11.7 12c-.8.9-2.2.9-3.1.1l-1.4-1.3c-.9-.8-.9-2.3 0-3.1l12-11.9c.9-.9 2.3-.8 3.1.1l1.2 1.3c.7.7.7 2-.1 2.8z" fill="#fc0"/></svg>