<svg enable-background="new 0 0 398.6 398.6" viewBox="0 0 398.6 398.6" xmlns="http://www.w3.org/2000/svg"><path d="m200 37.1c-89.4 0-161.9 72.5-161.9 161.9s72.5 161.9 161.9 161.9 161.9-72.5 161.9-161.9-72.5-161.9-161.9-161.9zm-61.8 195-64-19.7c-2.8-.9-3.2-4.8-.5-6.1l62.2-31.6c2.3-1.1 5 .4 5.1 2.9l3.3 49.7c.3 3.3-2.9 5.8-6.1 4.8zm72.5 29.5-36 59.5c-1.4 2.2-4.8 1.4-5-1.2l-10.3-120.9c-.2-2.4 2.7-3.6 4.3-1.8l46.1 54.1c2.5 2.9 2.8 7.1.9 10.3zm-1.3-37.1-47.4-54.3c-4.3-5.1-6.9-11.4-7.4-18l-4.9-68.5c-.2-2.5 2.9-3.8 4.6-1.9l46.4 52.6c4.3 4.9 6.9 11.1 7.3 17.6l5.9 70.6c.3 2.4-2.8 3.8-4.5 1.9zm97.4 42.2-67-16.6c-4.8-1.2-8.3-5.4-8.6-10.4l-5.7-100.2c-.1-2 1.1-3.9 3.1-4.5l68.4-22.1c2.2-.7 4.1 1.6 3 3.6l-43 77.6c-1.4 2.5-1 5.6.9 7.8l52.5 59.1c2 2.6-.3 6.5-3.6 5.7z" fill="#3f6fb6"/><path d="m199.1 35.8c-89.9 0-162.7 73.6-162.7 163.2s72.9 162.2 162.7 162.2 164.7-72.3 164.7-161.9-74.8-163.5-164.7-163.5zm1.2 294.6c-72.3 0-131-58.7-131-131s58.7-131 131-131 131 58.7 131 131-58.7 131-131 131z" fill="#fff"/><g fill="#3f6fb6"><path d="m211.8 51.7v-2.7h-4.3v-10h-4v10h-3.8l-4.7-10h-4v10h-4.2v2.8h4.2v2.4h-4.5v2.8h4.5v9.4h4v-9.4h4.4l4.1 9.4h4v-9.4h4v-2.8h-4v-2.4h4.3zm-16.8-5 1 2.3h-1zm0 7.4v-2.4h2.2l1 2.4zm8.5 2.9-.1-.1h.1zm0-2.9h-1.4l-1.1-2.4h2.5zm-124.5 61.4-2.4-1.4-2.2 3.7-8.7-5-2 3.5 8.7 5-1.9 3.3-11-.9-2 3.5 8.7 5-2.1 3.6 2.4 1.4 2.1-3.6 2.1 1.2-2.3 3.9 2.4 1.4 2.3-3.9 8.1 4.7 2-3.5-8.1-4.7 2.2-3.8 10.2 1.1 2-3.5-8.1-4.7 2-3.5-2.4-1.4-2 3.5-2.1-1.2zm-12.7 12.1 2.4.3-.5.8zm6.4 3.7-2.1-1.2 1.1-1.9 2.6.3zm6.7-6h-.1v-.1zm-2.5-1.4-.7 1.2-2.6-.2 1.2-2.1zm-8.4 141.3-2.4 1.4 2.2 3.7-8.7 5 2 3.5 8.7-5 1.9 3.3-6.3 9.1 2 3.5 8.7-5 2.1 3.6 2.4-1.4-2.1-3.6 2.1-1.2 2.3 3.9 2.4-1.4-2.3-3.9 8.1-4.7-2-3.5-8.1 4.7-2.2-3.8 6.1-8.2-2-3.5-8.1 4.7-2-3.5-2.4 1.4 2 3.5-2.1 1.2zm4 17 1.5-2 .5.8zm6.4-3.6-2.1 1.2-1.1-1.9 1.5-2.1zm-1.7-8.8-.1.1v-.1zm-2.5 1.4.7 1.2-1.5 2.2-1.2-2.1zm113 75.6v2.8h4.3v10h4v-10h3.8l4.7 10h4v-10h4.2v-2.8h-4.2v-2.4h4.5v-2.8h-4.5v-9.4h-4v9.4h-4.4l-4.1-9.4h-4v9.4h-4v2.8h4v2.4zm16.8 5-1-2.3h1zm0-7.4v2.4h-2.2l-1-2.4zm-8.5-2.8.1.1h-.1zm0 2.8h1.4l1.1 2.4h-2.5zm126.4-61.8 2.4 1.4 2.2-3.7 8.7 5 2-3.5-8.7-5 1.9-3.3 11 .9 2-3.5-8.7-5 2.1-3.6-2.4-1.4-2.1 3.6-2.1-1.2 2.3-3.9-2.4-1.4-2.3 3.9-8.1-4.7-2 3.5 8.1 4.7-2.2 3.8-10.2-1.1-2 3.5 8.1 4.7-2 3.5 2.4 1.4 2-3.5 2.1 1.2zm12.7-12-2.4-.3.5-.8zm-6.4-3.7 2.1 1.2-1.1 1.9-2.6-.3zm-6.7 5.9h.1v.1zm2.5 1.4.7-1.2 2.6.2-1.2 2.1zm9.5-138.3 2.4-1.4-2.2-3.7 8.7-5-2-3.5-8.7 5-1.9-3.3 6.3-9.1-2-3.5-8.7 5-2.1-3.6-2.4 1.4 2.1 3.6-2.1 1.2-2.3-3.9-2.4 1.4 2.3 3.9-8.1 4.7 2 3.5 8.1-4.7 2.2 3.8-6.1 8.2 2 3.5 8.1-4.7 2 3.5 2.4-1.4-2-3.5 2.1-1.2zm-4.1-17-1.5 2-.4-.9zm-6.3 3.7 2.1-1.2 1.1 1.9-1.5 2.1zm1.7 8.8.1-.1v.1zm2.5-1.5-.7-1.2 1.5-2.2 1.2 2.1z"/><path d="m199.3 0c-110.1 0-199.3 89.2-199.3 199.3s89.2 199.3 199.3 199.3 199.3-89.2 199.3-199.3-89.2-199.3-199.3-199.3zm-.3 362.1c-89.9 0-162.7-72.6-162.7-162.2s72.8-163.3 162.7-163.3 164.7 74 164.7 163.6-74.8 161.9-164.7 161.9z"/></g></svg>