<svg enable-background="new 0 0 32 32" viewBox="0 0 32 32" xmlns="http://www.w3.org/2000/svg"><circle cx="16" cy="16" fill="#36a9cf" r="16"/><path clip-rule="evenodd" d="m26.3 18.5c.2.1.2.3.1.5-.1.1-.2.3-.3.3l-2.2 4.1c0 .2 0 .4-.2.5-.1.1-.3.2-.4.2l-4.3 2.6c-.1.2-.2.3-.4.3s-.4 0-.5-.2l-5.1-.4c-.1.1-.3.1-.5.1-.3-.1-.4-.3-.4-.5l-3.9-2.8c-.2 0-.3 0-.5-.1-.2-.2-.2-.4-.2-.6l-1.6-3.8c-.2 0-.3-.2-.4-.4 0-.2 0-.4.2-.5l.2-5.7c-.1-.1-.1-.3-.1-.5.1-.2.3-.4.5-.4l4.3-4.5c0-.2.1-.4.4-.5.2-.1.3 0 .5.1l6.1-1.1c0-.1.2-.2.5-.2.2 0 .4.2.4.4l2.8 1.6c.2-.1.3 0 .5.1s.3.2.3.4l1.2.8c.2 0 .3 0 .5.1s.3.4.1.6l1.8 3.5c.2 0 .3.1.4.3s0 .5-.2.5c-.2.1-.4-.1-.5-.3v-.1l-3.7-2c-.1.1-.1.1-.2.2v9.9c.2.1.4.4.3.6l1.5 1.5h.2l2.3-4c-.1-.1-.1-.3 0-.4.1-.2.3-.3.5-.2zm0 .5c0-.1 0-.2-.1-.2s-.2 0-.2.1 0 .2.1.2.2-.1.2-.1zm-2.7 4.7c.1-.1.1-.2 0-.3s-.2-.1-.3 0-.1.2 0 .3.3.1.3 0zm-.6-.2-1.4-1.5c-.1.1-.2.1-.3.1-.2 0-.4-.1-.5-.3h-1.9c0 .1-.1.2-.2.2l.2 2.7c.1 0 .1.1.2.1zm-4.1 2.8 3.5-2.1-3.2 1.1c0 .2-.2.3-.3.4l-.1.6c0-.1 0 0 .1 0zm-.4.5c.1 0 .2-.1.2-.2s-.1-.1-.2-.1-.2.1-.2.2.1.1.2.1zm-.5-.4c.1-.1.2-.2.3-.2l.1-.5c-.1 0-.2-.1-.2-.1l-4 .6zm-3.7-4.3-1.3 3.8 5-.8-3.5-3.1c-.1 0-.1.1-.2.1zm-1.7 3.5 1.2-3.6c-.1-.1-.1-.1-.2-.2h-2.3v.1zm-.1.8c.1 0 .2 0 .2-.1s-.1-.2-.2-.2-.2 0-.2.1.1.1.2.2zm-4.1-3.4 3.8 2.7-1.2-3.6c-.2 0-.4 0-.5-.2l-2.1.9zm-.4-.6c.1 0 .1.1.1.1l2.2-1c0-.1 0-.2.1-.3l-3.4-3.5zm0 .6c.1-.1 0-.2 0-.3-.1-.1-.2-.1-.3 0s0 .2 0 .3zm-1.8-4.4 1.2 2.7-.8-3.8-.3.7c.1.1 0 .3-.1.4zm0-4.3-.1 3.4.3-.6c-.1-.2-.1-.4 0-.6zm-.2-2.7c0 .1 0 .2.1.3.1 0 .2 0 .2-.1s0-.2-.1-.3c-.1 0-.2 0-.2.1zm.8 5.2c0-.1-.1-.2-.2-.2s-.2.1-.2.2.1.2.2.2c.2 0 .2-.1.2-.2zm-.2-4.9c0 .1-.1.2-.1.2l.3 4 1.8-5.6-1.9 1.3c-.1 0-.1.1-.1.1zm3-3.6-2.4 2.6 1.3-.9c0-.1.1-.2.1-.3.1-.1.2-.2.3-.2zm1.3-1.2-1.6 2.6c0 .1.1.2 0 .2l1.2.4c.2-.2.6-.2.8 0 .1 0 .1.1.1.2h2c.1-.2.2-.3.4-.3l1.1-2.3c-.1-.1-.1-.2-.1-.3l-3.3-.7c-.1.1-.2.2-.3.2s-.2 0-.3 0zm.1-.6c-.1 0-.2.1-.1.2 0 .1.1.1.2.1s.2-.1.1-.2c0-.1-.1-.2-.2-.1zm6.2-.8-4.9.9 2.6.6c.1-.2.3-.3.6-.2zm.6.1-1.8 1.4 5 .1-2.7-1.5c-.1.1-.3.1-.4.1 0-.1-.1-.1-.1-.1zm.2-.6c-.1 0-.2 0-.2.1s.1.2.2.2.2 0 .2-.1 0-.2-.2-.2zm3.3 2.7c-.1 0-.1-.1-.2-.2l-5.3-.1v.1l2.1 2.4c.3-.1.5.1.6.3h2.3c.1-.1.1-.2.3-.3zm0 2.6c-.1 0-.2.1-.2.2s.1.2.2.2.2-.1.2-.2-.1-.2-.2-.2zm.1-3.2c-.1.1 0 .2.1.3s.2 0 .3-.1 0-.2-.1-.3-.2 0-.3.1zm3.9 5.3-3.6-4.6-.2 2.2c.2.1.3.3.4.5zm-2.3-4-.8-.6 2.6 3.4-1.3-2.3c-.1 0-.2 0-.3-.1s-.2-.2-.2-.4zm.4-.1c-.1.1 0 .2.1.3s.2.1.3 0 0-.2-.1-.3-.2 0-.3 0zm-5.6 2.2c0 .1.1.2.2.2s.2-.1.2-.2-.1-.2-.2-.2-.2.1-.2.2zm.2 4.8c-.1 0-.2.1-.2.2 0 .1.1.2.2.2s.2-.1.2-.2c0-.1-.1-.2-.2-.2zm-2.9-8.1c0 .1.1.2.2.2s.2-.1.2-.2c0-.1-.1-.2-.2-.2s-.2.1-.2.2zm.1.7-1 2.2c.2.2.3.5.2.7l3.4 4.2h.1v-3.9c-.3-.1-.4-.5-.3-.7 0 0 0 0 0-.1l-2.1-2.5c-.1.1-.2.1-.3.1zm-1.5 2.6c0 .1.1.2.2.2s.2-.1.2-.2-.1-.2-.2-.2-.2.1-.2.2zm-3 0c0 .1.1.2.2.2s.2-.1.2-.2-.1-.2-.2-.2-.2.1-.2.2zm.2 10.6c-.1 0-.2.1-.2.2 0 .1.1.2.2.2s.2-.1.2-.2c.1-.1 0-.2-.2-.2zm-2.2-11.5c-.1.1-.1.2 0 .3s.2 0 .3 0c.1-.1.1-.2 0-.3s-.2 0-.3 0zm-1.6 6.7c.1.1.1.2.1.3s0 .2-.1.3l3.6 3.7v-9.6c-.2-.1-.3-.3-.3-.5l-1.2-.4s-.1.1-.1.1zm11.3 4.5c.2 0 .4.2.5.4h1.9c.1-.1.2-.3.3-.3v-9.8c-.1-.1-.3-.2-.3-.3h-2.2c-.1.1-.2.3-.3.3v4c.2.1.2.3.2.5 0 .3-.2.6-.6.6-.3 0-.6-.3-.6-.6 0-.1 0-.1 0-.2l-3.3-4.4c-.3.1-.6-.1-.6-.4h-1.9c-.1.1-.2.3-.3.3v9.9l.3.3h2.2c.1-.1.2-.3.3-.3v-4.1c-.2-.1-.3-.3-.3-.5 0-.3.2-.6.6-.6.3 0 .6.3.6.6v.2l3.5 4.3c-.1.1 0 .1 0 .1zm.2 4c-.1 0-.2.1-.2.2s.1.2.2.2.2-.1.2-.2 0-.2-.2-.2zm-.4-3.5c0 .1.1.2.2.2s.2-.1.2-.2c0-.1-.1-.2-.2-.2-.1 0-.2.1-.2.2zm-4.2-5c0 .1.1.2.2.2s.2-.1.2-.2-.1-.2-.2-.2-.2 0-.2.2zm.2 4.8c-.1 0-.2.1-.2.2 0 .1.1.2.2.2s.2-.1.2-.2-.1-.2-.2-.2zm.2-.3c.2.1.4.4.3.6l3.6 3.1h.1l-.2-2.6c-.2-.1-.4-.3-.4-.5 0-.1 0-.2.1-.3l-3.4-4.3s0 0-.1 0zm7.1.5c0-.1-.1-.2-.2-.2-.1 0-.2.1-.2.2 0 .1.1.2.2.2s.2 0 .2-.2zm-15.7-3c.1 0 .1-.1.1-.2s-.1-.2-.2-.2-.1.1-.1.2c.1.1.1.2.2.2zm20-5.7c-.1 0-.1.1-.1.2s.1.1.2.1.1-.1.1-.2-.1-.1-.2-.1z" fill="#fff" fill-rule="evenodd"/></svg>