<svg xmlns="http://www.w3.org/2000/svg" viewBox="0 0 530 530"><defs><radialGradient id="0" cx="116" cy="244" r="528.34" gradientTransform="matrix(1 0 0 .39 0 149.79)" gradientUnits="userSpaceOnUse"><stop stop-color="#fff" stop-opacity=".3"/><stop offset="1" stop-color="#fff" stop-opacity=".2"/></radialGradient></defs><circle cx="265" cy="265" r="265" fill="#ffc93d"/><ellipse cx="265" cy="157" rx="242.05" ry="157" fill="url(#0)"/><circle cx="265" cy="265" r="233" fill="none" stroke="#fff" stroke-width="10" stroke-miterlimit="10"/><g fill="#fff"><path d="M373.58,432.78,353,433c-18,0-33.22-1.33-39.29-21.16L217.94,99,237,99c22,0,34.67.84,40.65,20.37Z"/><path d="M306.58,432.78,286,433c-18,0-33.22-1.33-39.29-21.16L150.94,99,170,99c22,0,34.67.84,40.65,20.37Z"/><path d="M88,463l81.53-270.3L143,110,48.7,418.13A232.4,232.4,0,0,0,88,463Z"/><path d="m143.67 500.94l59.86-198.24-26.53-82.7-77 253c12.52 10.16 27 19.36 43.67 27.94"/><path d="M387.81,30,325,238.12l26.54,82.7,80.19-262A231.53,231.53,0,0,0,387.81,30Z"/><path d="M446.39,71.84l-86.8,273.48L385,428.39,485,117.28A167.8,167.8,0,0,0,446.39,71.84Z"/></g></svg>