<svg xmlns="http://www.w3.org/2000/svg" viewBox="0 0 226.78 226.78" width="2500" height="2500"><defs><style>.cls-1{fill:#f2c869}.cls-2{fill:#efd98b}.cls-3{fill:#e1ab4c}.cls-4{fill:#ffd97a}.cls-5{fill:#fac04a}.cls-6{fill:#f4ce83}.cls-7{fill:#ffda7f}.cls-8{fill:#e8c278}.cls-9{fill:#ffd166}.cls-10{fill:#e0c390}</style></defs><title>nvc</title><g id="Laag_2" data-name="Laag 2"><path class="cls-1" d="M149.61 21.71c-29.7 0-53.78 8.43-53.78 18.83v16.71c2.88 6 23.19 13.58 53.78 13.58s50.9-7.6 53.77-13.58V40.54c.01-10.4-24.07-18.83-53.77-18.83z"/><path class="cls-2" d="M39.15 170.24l-.76-1.57v-1.87c-3.24 2.42-5.11 5.12-5.11 8v16.71c2.88 6 23.19 13.58 53.78 13.58s50.9-7.6 53.78-13.58v-8.67c-10.85 3.37-25.15 5.35-41 5.35-30.66-.03-55.62-7.39-60.69-17.95z"/><path class="cls-3" d="M46 162.05v4.87c2.88 6 23.19 13.58 53.78 13.58s50.9-7.6 53.78-13.58v-16.71a7.34 7.34 0 0 0-1-3.49v2.61l-.76 1.58c-5.08 10.55-30 17.92-60.68 17.92-17.89 0-33.87-2.55-45.12-6.78z"/><path class="cls-4" d="M130.94 121.58v-16.7c0-10.4-24.08-18.83-53.78-18.83s-53.78 8.43-53.78 18.83v16.71c2.87 6 23.19 13.58 53.78 13.58s50.91-7.61 53.78-13.59z"/><path class="cls-5" d="M138.6 122v1.35l-.76 1.57c-5.08 10.55-30 17.92-60.68 17.92-15.23 0-29.06-1.82-39.73-4.95v9.71c2.88 6 23.19 13.58 53.78 13.58s50.9-7.6 53.78-13.58v-16.72c.01-3.22-2.32-6.25-6.39-8.88z"/><path class="cls-6" d="M95.83 67.61v11.92c16.25 2 30.91 6.7 38.08 14.39 4.86.45 10.11.71 15.7.71 30.59 0 50.9-7.6 53.77-13.58V67.61c-11.21 7.18-32.58 10.89-53.77 10.89s-42.56-3.71-53.78-10.89z"/><path class="cls-7" d="M138.28 101.92a14.77 14.77 0 0 1 .32 3v8.39a35.84 35.84 0 0 1 7.76 5.1h3.25c30.59 0 50.9-7.6 53.77-13.58V91.4c-11.22 7.18-32.58 10.89-53.77 10.89-3.79-.01-7.61-.13-11.33-.37z"/><path class="cls-8" d="M152.65 130.88v4.91a23.29 23.29 0 0 1 6.09 6.16c25.45-1.32 42.07-8 44.65-13.33v-13.44c-10.84 6.93-31.13 10.62-51.59 10.86a14.54 14.54 0 0 1 .85 4.84z"/><path class="cls-9" d="M161.26 150.21v15.38c24-1.62 39.63-8 42.12-13.19V139c-9.17 5.86-25.1 9.41-42.18 10.51.03.22.06.49.06.7z"/><path class="cls-10" d="M148.49 179.94v11.31h1.12c29.7 0 53.77-8.43 53.77-18.83v-9.68c-9.69 6.2-27 9.81-45.14 10.68a30.43 30.43 0 0 1-9.75 6.52z"/></g></svg>