<svg xmlns="http://www.w3.org/2000/svg" viewBox="0 0 1963.2 2000"><g transform="translate(-15)"><path d="M1391.63,0c-323.9,0-586.57,91.91-586.57,205.38V387.61c31.36,65.39,252.87,148.1,586.57,148.1s555.1-82.9,586.47-148.1V205.38C1978.2,91.91,1715.63,0,1391.63,0Z" fill="#f2c869"/><path d="m186.94 1619.91l-8.31-17.12v-20.38c-35.32 26.41-55.7 55.8-55.7 87.26v182.23c31.37 65.39 252.87 148.1 586.57 148.1s555.1-82.9 586.57-148.1v-94.58c-118.32 36.8-274.34 58.37-447.17 58.37-334.39-.4-606.65-80.63-662-195.79" fill="#efd98b"/><path d="m261.74 1530.57v53.13c31.36 65.39 252.87 148.1 586.57 148.1s555.1-82.9 586.57-148.1v-182.24a80.76 80.76 0 0 0 -10.88 -38.09v28.49l-8.31 17.21c-55.4 115.06-327.17 195.39-661.75 195.39-195.29 0-369.51-27.8-492.18-73.9" fill="#e1ab4c"/><path d="M1188,1089.24V907.1c0-113.38-262.66-205.38-586.57-205.38S15,793.63,15,907.1v182.23c31.26,65.39,252.87,148.1,586.57,148.1s555.2-83,586.47-148.2h0Z" fill="#ffd97a"/><path d="m1271.63 1093.79v14.74l-8.31 17.12c-55.4 115.05-327.17 195.35-661.75 195.35-166.11 0-317-19.89-433.32-54v105.86c31.36 65.39 252.87 148.1 586.57 148.1s555.1-82.9 586.57-148.1v-182.32c-.01-35.02-25.44-68.06-69.76-96.75" fill="#fac04a"/><path d="m805.17 500.59v130c177.19 21.76 337.06 73.11 415.31 156.91 53 4.95 110.31 7.72 171.25 7.72 333.6 0 555.1-82.9 586.47-148.1v-146.53c-122.38 78.25-355.46 118.72-586.57 118.72s-464.09-40.46-586.46-118.72" fill="#f4ce83"/><path d="M1268.07 874.75a158.7 158.7 0 0 1 3.46 32.75V999a394.31 394.31 0 0 1 84.59 55.6h35.42c333.6 0 555.1-82.9 586.47-148.1V760.09c-122.38 78.35-355.36 118.82-586.47 118.82-41.16-.2-82.81-1.48-123.47-4.16" fill="#ffda7f"/><path d="m1424.87 1190.64v53.52a253.69 253.69 0 0 1 66.38 67.17c277.6-14.44 458.84-87.26 486.94-145.33v-146.61c-118.19 75.61-339.53 115.85-562.62 118.42a160.07 160.07 0 0 1 9.3 52.83" fill="#e8c278"/><path d="m1518.76 1401.46v167.69c261.77-17.71 432.23-87.26 459.34-143.85v-146.12c-100 63.91-273.74 102.59-460 114.66a68.08 68.08 0 0 1 .66 7.62" fill="#ffd166"/><path d="m1379.46 1725.66v123.34h12.17c323.9 0 586.47-91.91 586.47-205.38v-105.53c-105.66 67.57-294.42 106.94-492.28 116.44a332.91 332.91 0 0 1 -106.35 71.13" fill="#e0c390"/></g></svg>