<svg xmlns="http://www.w3.org/2000/svg" xmlns:xlink="http://www.w3.org/1999/xlink" viewBox="0 0 330 330"><defs><linearGradient id="3" x1="99.34" y1="156.92" x2="182.42" y2="199.91" xlink:href="#2"/><linearGradient id="2" x1="117.14" y1="164.28" x2="278.33" y2="238.37" gradientUnits="userSpaceOnUse"><stop stop-color="#fff"/><stop offset="1" stop-color="#bad3f8"/></linearGradient><linearGradient id="0" x1="196.22" y1="64.76" x2="225.61" y2="186.11" gradientUnits="userSpaceOnUse"><stop stop-color="#30beff"/><stop offset=".51" stop-color="#29b0fd"/><stop offset="1" stop-color="#0a77f6"/></linearGradient><linearGradient id="1" x1="204.74" y1="51.95" x2="188.33" y2="176.6" gradientUnits="userSpaceOnUse"><stop stop-color="#30beff"/><stop offset=".46" stop-color="#29b0fd"/><stop offset="1" stop-color="#0a77f6"/></linearGradient></defs><path fill="#0b0f26" d="m0 0h330v330h-330z"/><path d="m168.68 132.77l75.22 77.06a5.26 5.26 0 0 0 6.74 .65l19-13.15a5.25 5.25 0 0 0 1.92 -6.16l-42.75-113.69a5.25 5.25 0 0 0 -8.56 -1.92l-51.46 49.78a5.24 5.24 0 0 0 -.11 7.43" fill="url(#0)"/><path d="M168.68,132.77,209,174c1.79,1.83,19.81-96.52,19.81-96.52a5.25,5.25,0,0,0-8.56-1.92l-51.46,49.78A5.24,5.24,0,0,0,168.68,132.77Z" fill="url(#1)"/><path d="M97.42,84.34,60,205.43a10.43,10.43,0,0,0,6.49,12.91l107.17,37.82a5.23,5.23,0,0,0,4.52-.5l56.29-35.18a5.24,5.24,0,0,0,.94-8.14L106.15,82.2A5.24,5.24,0,0,0,97.42,84.34Z" fill="url(#2)"/><path d="M97.42,84.34,60,205.43a10.43,10.43,0,0,0,6.49,12.91L153,249c1.51.53-46.85-166.8-46.85-166.8A5.24,5.24,0,0,0,97.42,84.34Z" fill="url(#3)"/></svg>