<svg xmlns="http://www.w3.org/2000/svg" viewBox="0 0 226.78 226.78" width="2500" height="2500"><defs><style>.cls-1{fill:#008fbb}.cls-2,.cls-3{fill:none;stroke:#008fbb;stroke-miterlimit:10;stroke-width:12px}.cls-2{opacity:.3}.cls-3{opacity:.1}.cls-4{fill:#fff}</style></defs><title>nxt</title><g id="Laag_2" data-name="Laag 2"><path id="NXT_alt" data-name="NXT alt" class="cls-1" d="M155.72 140.73l-54.8-36.32H86.29a9.19 9.19 0 1 1 0-18.38h20.16l54.8 36.31H185a72.64 72.64 0 0 0 0-17.95h-27.39a9.19 9.19 0 0 1 0-18.38h22.52a72 72 0 0 0-135.46 6.56l45 29.79h14.19a9.19 9.19 0 0 1 0 18.38H84.09l-42.48-28.15v.8a72 72 0 0 0 138.52 27.35h-24.41z"/><circle class="cls-2" cx="113.56" cy="113.39" r="78.07"/><circle class="cls-3" cx="113.56" cy="113.39" r="90"/><circle class="cls-1" cx="114.07" cy="114.06" r="72.5"/><rect class="cls-4" x="55.12" y="115.28" width="22" height="10" rx="5" ry="5"/><rect class="cls-4" x="133.12" y="96.78" width="40" height="10" rx="5" ry="5"/><rect class="cls-4" x="157.62" y="102.28" width="21" height="10" rx="4.89" ry="4.89" transform="rotate(-90 168.115 107.275)"/><path class="cls-4" d="M75.12 97.78l27 18h9a5 5 0 0 1 5 5 5 5 0 0 1-5 5h-12a5 5 0 0 1-4.32-2.49l.32.49-25-17h-10a5 5 0 0 1-5-5 5 5 0 0 1 5-5h12a5 5 0 0 1 3.73 1.68M116.1 97.78l28.33 18h9.44a5.14 5.14 0 0 1 5.25 5 5.14 5.14 0 0 1-5.25 5h-12.59a5.31 5.31 0 0 1-4.53-2.49l.34.49-26.23-17h-10.5a5.14 5.14 0 0 1-5.25-5 5.14 5.14 0 0 1 5.25-5H113a5.35 5.35 0 0 1 3.92 1.68"/></g></svg>