<svg xmlns="http://www.w3.org/2000/svg" viewBox="0 0 1990 1990"><path d="M1439.58,1284.38L868.75,906.25H715.62a95.83,95.83,0,1,1,0-191.67H926l570.83,378.13h247.92a797.39,797.39,0,0,0,0-186.46H1459.38a95.83,95.83,0,0,1,0-191.67h234.38C1535.42,331.25,1096.88,149,714.58,307.29a745.45,745.45,0,0,0-431.25,476l468.75,310.42H900a95.83,95.83,0,0,1,0,191.67H692.71L251,991.67V1000c1,414.58,337.5,749,752.08,747.92,302.08-1,575-183.33,690.63-462.5l-254.17-1h0Z" transform="translate(-5-5)" fill="#008fbb"/><g fill="none" stroke="#008fbb" stroke-miterlimit="10"><circle cx="995" cy="995" r="813.54" stroke-width="140" opacity=".3"/><circle cx="995" cy="995" r="937.5" stroke-width="115" opacity=".1"/></g><circle cx="1000.21" cy="1002.29" r="755.21" fill="#008fbb"/><g fill="#fff" transform="translate(-5-5)"><path d="m443.75 1019.79h125a52.08 52.08 0 0 1 0 104.17h-125a52.08 52.08 0 0 1 0 -104.17m812.5-192.71h312.5a52.08 52.08 0 1 1 0 104.17h-312.5a52.08 52.08 0 1 1 0 -104.17"/><path d="m1516.67 994.79v-116.66a51.12 51.12 0 0 1 51 -51h2.08a51.12 51.12 0 0 1 51 51v116.66a51.12 51.12 0 0 1 -51 51h-2.08c-29.13.04-51-22.87-51-51m-916.67-157.29l281.25 187.5h93.75a52.08 52.08 0 1 1 0 104.17h-125c-18.75 0-35.42-9.38-44.79-26l3.13 5.21-260.42-177.13h-104.17a52.08 52.08 0 1 1 0 -104.17h125c14.58 0 29.17 6.25 38.54 17.71m418.71-7.29l294.83 187.5h97.92c29.17-1 54.17 22.92 54.17 52.08-1 29.17-25 53.12-54.17 52.08h-131.25c-18.75 0-37.5-9.38-46.88-26l3.13 5.21-272.92-177.12h-108.33c-29.17 1-54.17-22.92-54.17-52.08 1-29.17 25-53.12 54.17-52.08h131.25a54.38 54.38 0 0 1 40.63 17.71"/></g></svg>