<svg xmlns="http://www.w3.org/2000/svg" viewBox="0 0 114 160"><g fill="#00afa7"><path d="M57 0A57 57 0 0 0 0 57c0 21.71 17 37 30 49.21V76a33 33 0 1 1 54 0v30.25C97 94 114 78.71 114 57A57 57 0 0 0 57 0"/><path d="M35,82.5V112l-7.77,7.77a.32.32,0,0,1-.46,0L20,113l-3,3,8.67,8.67a1.87,1.87,0,0,0,2.66,0l11.21-11.21a1.55,1.55,0,0,0,.46-1.11V82.5A2.5,2.5,0,0,0,37.5,80h0A2.5,2.5,0,0,0,35,82.5Z"/><path d="M79,82.5V112l7.77,7.77a.32.32,0,0,0,.46,0L94,113l3,3-8.67,8.67a1.87,1.87,0,0,1-2.66,0L74.46,113.46a1.55,1.55,0,0,1-.46-1.11V82.5A2.5,2.5,0,0,1,76.5,80h0A2.5,2.5,0,0,1,79,82.5Z"/><path d="M45.22,87.5v33a1.3,1.3,0,0,1-.38.91L25.91,140.65a.48.48,0,0,1-.69,0L18.87,134,16,137l8.21,8.59a1.89,1.89,0,0,0,2.72,0l22.39-22.91A2.35,2.35,0,0,0,50,121V87.5A2.45,2.45,0,0,0,47.61,85h0A2.45,2.45,0,0,0,45.22,87.5Z"/><path d="M68.78,87.5v33.07a1.07,1.07,0,0,0,.3.74l19,19.34a.48.48,0,0,0,.69,0L95.13,134,98,137l-8.21,8.59a1.89,1.89,0,0,1-2.72,0l-22.49-23a2,2,0,0,1-.58-1.42V87.5A2.45,2.45,0,0,1,66.39,85h0A2.45,2.45,0,0,1,68.78,87.5Z"/><path d="m55 89v42l-17 16 2 4 17-17 17 17 2-3-17-17v-42a2 2 0 0 0 -2 -2 2 2 0 0 0 -2 2"/><path d="M15 104a7 7 0 1 0 7 7A7 7 0 0 0 15 104m0 10a3 3 0 1 1 3 -3A3 3 0 0 1 15 114"/><path d="M15 125a7 7 0 1 0 7 7A7 7 0 0 0 15 125m0 10a3 3 0 1 1 3 -3A3 3 0 0 1 15 135"/><path d="M35 146a7 7 0 1 0 7 7A7 7 0 0 0 35 146m0 10a3 3 0 1 1 3 -3A3 3 0 0 1 35 156"/><path d="M78 146a7 7 0 1 0 7 7A7 7 0 0 0 78 146m0 10a3 3 0 1 1 3 -3A3 3 0 0 1 78 156"/><path d="M98 104a7 7 0 1 0 7 7A7 7 0 0 0 98 104m0 10a3 3 0 1 1 3 -3A3 3 0 0 1 98 114"/><path d="M99 125a7 7 0 1 0 7 7A7 7 0 0 0 99 125m0 10a3 3 0 1 1 3 -3A3 3 0 0 1 99 135"/></g></svg>