<svg xmlns="http://www.w3.org/2000/svg" viewBox="0 0 298.93 298.84"><g fill="#1c347a"><path d="M298.93 149.46A149.52 149.52 0 0 1 149.47 298.84C66.86 298.84-.53 231.63 0 148.49.54 65.87 67.93-.09 149.65 0 230.65.09 298.75 65.61 298.93 149.46m-39.7 0A110 110 0 0 0 149.73 39.61c-60.26-.17-110 48.88-110 109.68-.09 61 49.49 109.31 108.6 109.94A110.11 110.11 0 0 0 259.23 149.46"/><path data-name="Shape" d="M236.85,12.32c16.56-.17,33.12-.17,49.68-.17V62A170.57,170.57,0,0,0,236.85,12.32Z"/><path data-name="Shape" d="m286.53 236.85v50.15h-49.68a169.79 169.79 0 0 0 49.68 -50.15"/><path data-name="Shape" d="M62.09 12.37a168.59 168.59 0 0 0 -49.94 49.5V12.46C13.21 12.11 58.61 12 62.09 12.37"/><path data-name="Shape" d="m61.87 286.71h-49.41c-.35-1.16-.44-47.81-.09-49.86a169.49 169.49 0 0 0 49.5 49.86"/></g></svg>