<svg enable-background="new 0 0 261 177.8" viewBox="0 0 261 177.8" xmlns="http://www.w3.org/2000/svg"><path d="m228.3 177.8 32.7-33.8v-144h-261v177.8z" fill="#e7e015"/><g fill="#323644"><path d="m112.2 15.3c.2-.6.8-1.1 1.4-1.1h1.3c.6 0 1.1.3 1.3.9l15.8 43.8h.4l15.5-43.8c.2-.5.8-.9 1.4-.9h1.3c.7 0 1.2.5 1.4 1.1l10.3 53.4c.2 1.1-.2 1.9-1.4 1.9h-3.2c-.7-.1-1.2-.5-1.4-1.1l-7.1-40.9h-.3l-14.6 42c-.3.5-.8.8-1.4.9h-1.4c-.6 0-1.1-.4-1.4-.9l-14.8-42h-.3l-7 40.9c-.2.6-.8 1.1-1.4 1.1h-3.2c-1.2 0-1.7-.8-1.4-1.9z"/><path d="m175.1 15.6c0-.8.7-1.4 1.5-1.4h2l35.8 44.7h.2v-42.4c0-.8.7-1.5 1.5-1.5h2.8c.8 0 1.5.7 1.5 1.5v53.5c0 .8-.7 1.4-1.5 1.4h-1.4l-36.5-45.5h-.1v43.2c0 .8-.7 1.5-1.5 1.5h-2.8c-.8 0-1.5-.7-1.5-1.5z"/><path d="m240 16.5c0-.8.7-1.5 1.5-1.5h3.2c.8 0 1.5.7 1.5 1.5v52.6c0 .8-.7 1.5-1.5 1.5h-3.2c-.8 0-1.5-.7-1.5-1.5z"/><path d="m66.5 83.7h-13.9c-.8 0-1.5-.7-1.5-1.5v-2.3c0-.8.7-1.5 1.5-1.5h33.7c.8 0 1.5.7 1.5 1.5v2.3c0 .8-.7 1.5-1.5 1.5h-13.8v48.8c0 .8-.7 1.5-1.5 1.5h-3c-.8 0-1.5-.7-1.5-1.5z"/><path d="m95.9 79.9c0-.8.7-1.5 1.5-1.5h3c.8 0 1.5.7 1.5 1.5v33.1c0 9.1 5.6 16.1 14.9 16.1s15.1-6.9 15.1-16v-33.2c0-.8.7-1.5 1.5-1.5h3c.8 0 1.5.7 1.6 1.5v33.6c0 12.1-8.6 21.3-21.1 21.3s-21-9.2-21-21.3z"/><path d="m153.5 79.9c0-.8.6-1.5 1.4-1.5h17.8c15.4-.3 28.1 11.9 28.3 27.3s-11.9 28.1-27.3 28.3c-.4 0-.7 0-1.1 0h-17.8c-.8 0-1.4-.7-1.4-1.5v-52.6zm18 48.7c13 0 22.5-9.3 22.5-22.4s-9.5-22.3-22.5-22.3h-12v44.7z"/><path d="m212.8 79.9c0-.8.7-1.5 1.5-1.5h31.3c.8 0 1.5.7 1.5 1.5v2.3c0 .8-.7 1.5-1.5 1.5h-26.7v19.4h22.8c.8 0 1.5.7 1.5 1.5v2.4c0 .8-.7 1.5-1.5 1.5h-22.8v20.3h26.7c.8 0 1.5.7 1.5 1.5v2.3c0 .8-.7 1.5-1.5 1.5h-31.3c-.8 0-1.5-.7-1.5-1.5z"/><path d="m69.3 58.3c-12.7 0-23-10.3-23-23s10.3-23 23-23 23 10.3 23 23-10.3 23-23 23zm0-40.5c-9.7 0-17.6 7.9-17.6 17.6s7.9 17.6 17.6 17.6 17.6-7.9 17.6-17.6c0-9.7-7.9-17.6-17.6-17.6z"/><path d="m49.9 64.3h38.8v5.4h-38.8z"/></g></svg>