<svg xmlns="http://www.w3.org/2000/svg" viewBox="0 0 532 532"><path fill="#1b457d" d="m0 0h532v532h-532z"/><g fill="#fff"><path d="M231.79,283.69,221.67,304H199.33L260,182.32l40.4,81.15H277.52l-18.07-35.28-18.06,35.72ZM320.1,304H297.76l-10.12-20.31H310Z"/><path d="M380.13,227.14l-12.74,16.54-47.9-60.84h26.09Zm-12.74,16,12.74,16.54L345.58,304H319.49Zm25.57,0-12.74-16.55,34.55-44.29h25.57Zm0,0L440.34,304H414.77l-34.55-44.3Z"/><path d="M188.69,199.92a58.56,58.56,0,0,1,17.54,43.24,60.66,60.66,0,0,1-17.54,43.24C177,298.65,162.6,304,145.58,304a60,60,0,0,1-60.64-60.84A58,58,0,0,1,96.11,208l14.92,15a39.14,39.14,0,0,0-5.84,20.83,41.33,41.33,0,0,0,11.69,28.8,39.76,39.76,0,0,0,56.2,1.21c.41-.4.82-.8,1.21-1.21A39.17,39.17,0,0,0,186,243.76a41.38,41.38,0,0,0-11.7-28.8,38.35,38.35,0,0,0-28.71-11.82,37,37,0,0,0-20.24,5.34l-14.84-15a57.45,57.45,0,0,1,35.08-11.2A58.54,58.54,0,0,1,188.69,199.92Z"/><path d="m110.94 336.3c0 7.88-4.36 13.4-12.13 13.4s-12.12-5.52-12.12-13.4 4.36-13.39 12.12-13.39 12.13 5.52 12.13 13.39m-3.49 0c0-6.74-3.14-10.85-8.55-10.85s-8.55 4.11-8.55 10.85 3.14 10.86 8.55 10.86 8.55-4.16 8.55-10.86"/><path d="M165.74,331.05a7.18,7.18,0,0,1-6.63,7.44,19.4,19.4,0,0,1-3.32.17H151v10.51h-3.22V323.35h7.93a19.4,19.4,0,0,1,3.32.17,7.08,7.08,0,0,1,6.73,7.4C165.75,331,165.74,331,165.74,331.05Zm-3.4,0a4.32,4.32,0,0,0-3.4-4.73,13.93,13.93,0,0,0-2.88-.17H151V336h5.06a13.24,13.24,0,0,0,2.88-.17A4.42,4.42,0,0,0,162.34,331.05Z"/><path d="m218.79 349.26h-17.1v-25.83h16.75v2.63h-13.52v9h12.39v2.63h-12.39v8.93h13.87"/><path d="m270.45 349.26l-12.13-22.68c.09 3.07.09 6.74.09 9.72v12.87h-3.23v-25.82h4.89l12.12 22.65c-.08-3.07-.08-6.74-.08-9.72v-12.85h3.14l.09 25.83"/><path d="M317.48,340.07l-3.05,9.1H311l9.25-25.82h4.37l8.9,25.82H330l-3.05-9.1Zm8.55-2.63-3.75-11.56-4,11.56Z"/><path d="m384.32 349.26l-12.13-22.68c.09 3.07.09 6.74.09 9.72v12.87h-3.23v-25.82h4.89l12.13 22.65c-.09-3.07-.09-6.74-.09-9.72v-12.85h3.14l.09 25.83"/><path d="m435.71 338.31l-7.33 10.95h-3.66l9.16-13.05-8.45-12.78h3.66l6.81 10.51 7.1-10.51h3.67l-8.9 12.69 9.33 13.14h-3.75"/><ellipse cx="293.14" cy="336.92" rx="3.4" ry="3.41"/></g></svg>