<svg enable-background="new 0 0 63.6 63.6" viewBox="0 0 63.6 63.6" xmlns="http://www.w3.org/2000/svg"><circle cx="31.8" cy="31.8" r="31.8"/><g fill="#fff"><path d="m42.5 52.9c8.3-3.6 13.7-11.8 13.9-20.9.1-9.1-5.1-17.4-13.3-21.2 1.4 1.4 8.6 8.7 8.8 20.4.2 12.6-8.1 20.5-9.4 21.7z"/><path d="m21.1 10.8c-8.3 3.6-13.7 11.8-13.9 20.8-.1 9.1 5.1 17.4 13.3 21.3-1.4-1.4-8.6-8.7-8.8-20.4-.1-12.6 8.1-20.5 9.4-21.7z"/><path d="m17 23.1c.7-8.5 8-14.8 16-14.3 7.3.5 13.4 6.5 14 14.3-2.2-6.2-8-10.4-14.5-10.6-6.8-.2-13.1 4.1-15.5 10.6z"/><path d="m47 40.5c-.7 8.5-8 14.8-16 14.3-7.3-.5-13.4-6.5-14-14.3 2.2 6.2 8 10.4 14.5 10.6 6.9.3 13.2-4 15.5-10.6z"/></g></svg>