<svg enable-background="new 0 0 101.1 150" viewBox="0 0 101.1 150" xmlns="http://www.w3.org/2000/svg"><path d="m12.8 65.6c-12.7 18.6-13.2 42.1-1.5 58.8 12.8 18.3 34.4 19.9 36.3 20 25.5 1.4 40.6-18.5 41.8-20.2 15.1-20.7 7.3-44 6.6-46 1.6 2.8 3.6 7.3 4.6 13.2 1.2 7.2.1 12.9-.8 16.8-2 9.5-5.9 16.1-6.7 17.4-9.4 15.2-24.1 20.5-27.2 21.6-7.1 2.4-13.5 2.8-17.8 2.8-18.5-1.1-35-11.8-43-28.1-9-18.2-6-40.5 7.7-56.3z" fill="#fe7611"/><path d="m24.3 50.3c.3.4 7 7.5 9.8 13.4.5 1 1.7 3.6 2.1 6.2 0 .4.2 1.6.3 3 0 .4.1 1.1.1 2.3.1 2.1.1 3.7.1 4 .1 1.8.4 4.4 1.1 7.9.9 4.6 1.6 7.7 3.1 11.2.9 2 4.7 10.3 12.5 13.6 3 1.3 6.3 1.7 6.5 1.7 1.1.1 3.2.4 5.5 0 4.9-.8 8.2-3.8 9.5-5.3-.3 2.5-1.3 9.4-6.9 15.5-8 8.7-19 8.6-20.8 8.5-2.2-.1-15.4-.9-24.7-12.1-2.4-2.9-4-5.8-5.1-8.6-2.2-5.5-2.8-11.4-2-17.3.3-2.4.8-5.3 1.6-8.4 2.1-8.2 5.3-15.9 5.3-15.9 2.8-6.5 4.7-9.3 4.1-13.8-.1-2.5-1.2-4.6-2.1-5.9z" fill="#fcac15"/><path d="m30.6 57.9c.9 3.3 1.8 7.7 2 12.8.2 4.8-.3 8.9-.9 12.2-.5 2.4-.7 4.8-.6 7.3.3 5.3 1.9 13.5 8.8 19.4.9.8 1.9 1.5 2.9 2.1 5.2 3.4 11.7 4.3 17.8 3 2.4-.5 4.8-1.1 7.2-1.6.4-.1-6.3 1.4-12.4-.5-5.4-1.7-8.9-5.8-11-8.8-1.2-1.6-2.8-4.1-4.1-7.3-.3-.8-.9-2.5-1.7-5.8-1.5-6.1-2-11.5-2.1-15.8 0-1.9-.2-4.4-1-7.2-1.2-4.5-3.3-7.8-4.9-9.8z" fill="#fe7611"/><path d="m47.2 77.4c1.5 0 13 .2 19.3 9 1.5 2 2.4 4.1 2.9 5.9.8 2.7.4 5.7-1.5 7.8-1.2 1.4-2.8 2.4-4.6 2.6-3.8.5-7.8-2.3-8.7-6.5-.2-.7-.2-1.4-.2-2.1.1-1.6 0-3.7-.6-6-1.4-5.7-4.9-9.2-6.6-10.7z" fill="#fcac15"/><path d="m44.5 0c-.7 2.4-2.4 9.6 1.2 17.1 1.1 2.2 2.4 3.8 4.9 6.8 5 6 9.6 10 10.5 10.8 8.6 7.5 17.5 20.3 22.3 33 1.7 4.5 3.8 11.3 4.6 20.3.4 3.4.5 8.2-.6 13.8-1.3 6.7-3.8 11.8-5.7 15.1 1.3-4.1 2.9-10.8 1.9-19.1-.2-1.6-.5-3.1-.8-4.5-1-4.4-3.2-8.4-6.5-11.4 0 0 0 0-.1-.1-3.3-3-6.6-4.8-8.9-5.8-4.6-2.1-14.3-7.2-22.1-18.1-8.8-12.3-10-24.9-10.2-29.8 0-3.4.4-7.8 1.9-12.8 2-6.9 5.2-12.1 7.6-15.3z" fill="#fcac15"/><path d="m44 12.3c.2 3.9 1 10.6 4.7 18 4 8.1 9.5 13 12.6 15.5 2.9 2 6 4.5 9.1 7.3 5.3 4.8 9.4 9.6 12.6 13.9-1-2.6-2.3-5.7-4.1-9.1-.6-1.1-2.1-3.9-4.2-7.1-4.7-7-9.5-12-13.6-16-3.5-3.6-6.9-7.3-10.5-10.8-.8-.8-1.7-1.8-2.6-3-.6-.9-1.5-2.1-2.3-3.8-.9-1.9-1.4-3.5-1.7-4.9z" fill="#fe7611"/></svg>