<svg viewBox="0 0 320 320" xmlns="http://www.w3.org/2000/svg"><circle fill="#2d598a" cx="160" cy="160" r="160"/><path fill="white" d="M160 227.05L160 227.05Q140.02 227.05 124.09 218.59L124.09 218.59L124.09 218.59Q108.16 210.13 99.07 195.19L99.07 195.19L99.07 195.19Q89.98 180.25 89.98 161.53L89.98 161.53L89.98 161.53Q89.98 142.81 99.07 127.87L99.07 127.87L99.07 127.87Q108.16 112.93 124.09 104.47L124.09 104.47L124.09 104.47Q140.02 96.01 160 96.01L160 96.01L160 96.01Q179.98 96.01 195.91 104.47L195.91 104.47L195.91 104.47Q211.84 112.93 220.93 127.87L220.93 127.87L220.93 127.87Q230.02 142.81 230.02 161.53L230.02 161.53L230.02 161.53Q230.02 180.25 220.93 195.19L220.93 195.19L220.93 195.19Q211.84 210.13 195.91 218.59L195.91 218.59L195.91 218.59Q179.98 227.05 160 227.05L160 227.05ZM160 197.53L160 197.53Q169.54 197.53 177.28 193.03L177.28 193.03L177.28 193.03Q185.02 188.53 189.52 180.34L189.52 180.34L189.52 180.34Q194.02 172.15 194.02 161.53L194.02 161.53L194.02 161.53Q194.02 150.91 189.52 142.72L189.52 142.72L189.52 142.72Q185.02 134.53 177.28 130.03L177.28 130.03L177.28 130.03Q169.54 125.53 160 125.53L160 125.53L160 125.53Q150.46 125.53 142.72 130.03L142.72 130.03L142.72 130.03Q134.98 134.53 130.48 142.72L130.48 142.72L130.48 142.72Q125.98 150.91 125.98 161.53L125.98 161.53L125.98 161.53Q125.98 172.15 130.48 180.34L130.48 180.34L130.48 180.34Q134.98 188.53 142.72 193.03L142.72 193.03L142.72 193.03Q150.46 197.53 160 197.53L160 197.53Z"/></svg>