<svg enable-background="new 0 0 400 400" viewBox="0 0 400 400" xmlns="http://www.w3.org/2000/svg"><circle cx="200.2" cy="200" fill="#f0ece9" r="200"/><path d="m328.9 147.1c-5.3-22.7-15.8-39.4-23.1-49.1 0-15.7 0-31.3 0-47h-71c-8.4-2.2-19.2-4.3-32-4.7-16.2-.4-29.8 2.1-39.4 4.7-23.4 0-46.8 0-70.2 0v47.7c-7.3 10.4-17.9 28.3-22.7 52.3-11.1 56.2 18.4 102.2 28.9 118.5 19.5 30.4 43.6 48.6 57.4 58.8 16.4 12.1 31.6 20.3 42.8 25.7 12.1-5.5 28.4-14 45.9-27 13.6-10.1 37.5-28.1 56.7-58.7 9.8-15.5 40.2-63.9 26.7-121.2zm-16.2 40.2c-.9 7.6-2.2 22.8-8.5 40.4-12.9 35.9-36.6 57.4-53.3 72.7-10.9 9.9-27.7 23.5-51 36-20.8-11.1-36.1-23-46-31.7-17.6-15.4-47.5-42.1-61-86-4.9-15.8-6.2-29.4-6.7-38.2-.8-9.2-1-25.5 5.7-44.1 5.4-15.1 13.3-25.8 18.9-32.3v-37c10.6.1 21.3.2 31.9.3-2.6 1-5.8 2.5-9.2 4.9-5.2 3.8-8.5 8.1-10.3 11 12.8-7.1 41.8-20.8 80.7-20 34.1.7 59.6 12.2 72.3 19-2-2.4-4.6-5-7.7-7.7-4-3.4-7.9-5.9-11.2-7.7h32.4v36.7c5.8 7.7 14.3 20.9 19.4 39.3 5.3 18.8 4.7 34.8 3.6 44.4z"/><path d="m270.5 106c-21.2-13.6-49.2-12.6-70.3 2.7-19.4-14.6-45.6-16.7-67-5.3-21.6 11.4-34.6 34.4-33.3 58.8.1 6.4 1.1 43.4 31.3 71.9 27.9 26.2 61.1 27 68.4 27 6.3 0 46-1 74.6-33.7 23.2-26.6 24.3-57 24.3-65.2 1.3-22.7-9.4-44.2-28-56.2zm-11.3 112c-23 25.6-53.6 27.2-59 27.3-6.3-.1-33.2-1.4-55.7-23-25-24-25.4-55-25.3-60.3-.5-18.4 9.7-35.3 25.7-43 18.2-8.7 40.8-4 54.8 12 15.1-16.3 38.8-20.5 56.9-10.7 14.7 8 23.8 24.1 23.7 41.7-.1 6.3-.5 33-21.1 56z"/><path d="m222.5 152.7c-11.8 13.7-10 30-9.7 32.7 1.8.2 22.5 2.4 36.7-13.7 12.1-13.7 10.3-30.4 10-33-1.8-.2-22.8-2.4-37 14z"/><path d="m179.5 155.7c-13.7-19-38-17.3-39.3-17.2-.4 2.2-3.1 19.9 9.7 34.2 14.5 16.1 35.5 13.1 37 12.9.4-3.6 1.6-17.4-7.4-29.9z"/><path d="m186.8 185.6c-.2 3-.1 9.2 3 16.1 3.1 6.8 7.6 10.8 10 12.7 2.5-2.2 5.9-5.9 8.7-11.3 3.7-7.3 4.3-14 4.3-17.7-2.2 1.2-6.7 3.2-12.7 3.3-6.3.1-11-2-13.3-3.1z"/></svg>