<svg enable-background="new 0 0 32 32" viewBox="0 0 32 32" xmlns="http://www.w3.org/2000/svg"><circle cx="16" cy="16" fill="#4392cd" r="16"/><path clip-rule="evenodd" d="m16.9 25.5h-1.7c-1.3 0-1.7-1.2-1.7-2.1s.1-1.3.1-1.7c0-.6-.3-2.3-.9-3-1.2-1.3-1.9-2.5-1.9-4.2-1-.5-2.8-1-3.5-1.8s-1.3-1.9-1.3-3.5c0-.4.1-1 .3-1.7.4 1.2 1 2.1 1.8 2.5 1.2.7 2.6 1.2 3.7 1.2h8.4c1.2 0 2.5-.5 3.7-1.2.8-.5 1.4-1.3 1.8-2.5.2.7.3 1.3.3 1.7 0 1.6-.6 2.7-1.3 3.5s-2.5 1.3-3.5 1.8c0 1.7-.7 2.9-1.9 4.2-.6.7-.9 2.3-.9 3 0 .4.1.8.1 1.7s-.4 2.1-1.6 2.1z" fill="#fff" fill-rule="evenodd"/></svg>