<svg xmlns="http://www.w3.org/2000/svg" viewBox="0 0 2756 1652.69"><path fill="#062f5b" d="m0 0h2756v1652.69h-2756z"/><path d="m545.65 742.34h149.06s-81.25 67.22-45 158.41c0 0 14 43.84 80.08 50.27l166.59 1.75s94.69 0 138.53-86.51c0 0 38.58-75.4-1.75-121.58l149.64-.58s27.17 153.79-118 256.09q-1.93 1.37-3.83 2.8c-9.25 7-63.94 45.23-171.39 56.52a256.16 256.16 0 0 1 -26.85 1.4h-159.26s-116.32 0-178.28-100c0 .09-50.85-82.37 20.46-218.57"/><path d="m538.64 732.41h149.05s-81.25 67.22-45 158.4c0 0 14 43.84 80.08 50.27l166.59 1.76s94.7 0 138.54-86.51c0 0 38.58-75.41-1.76-121.59l149.64-.58s27.22 153.84-118.01 256.09q-1.93 1.37-3.83 2.8c-9.25 7-63.94 45.23-171.39 56.52a256.35 256.35 0 0 1 -26.86 1.4h-159.23s-116.32 0-178.28-100c0 .03-50.86-82.37 20.46-218.56" fill="#f1b931"/><path d="M1291.51,825.93l-274.14,242h222.12l159.57-149.06,91.77,149.06h228l-168.93-242,91.19-79.49H1440L1354.64,598H828.56s-186.46-8.19-279.4,129.18l166.59.58s19.87-23.38,80.66-21L922.7,704.6A162.72,162.72,0,0,1,971.22,711c15.36,4.5,30.76,11.66,33.29,22.59l222.7-.59Z"/><path d="M1291.51,814.83l-274.14,242h222.12l159.57-149.06,91.77,149.06h228l-168.93-242,91.19-79.5H1440l-85.34-148.47H828.56S642.1,578.68,549.16,716l166.59.58s19.87-23.38,80.66-21l126.29-2.09a163,163,0,0,1,48.52,6.39c15.36,4.5,30.76,11.67,33.29,22.59l222.7-.58Z" fill="#fff"/><path d="m1456.35 730.65h285.83l75.4 138.54-41.5 196.4h166.01l42.08-194.65 271.22-271.22h-185.29l-141.46 157.82-73.06-157.82h-270.05l-129.18 130.93"/><path fill="#f1b931" d="m1455.76 717.79h285.83l75.41 138.54-41.5 196.4h166l42.09-194.65 271.22-271.22h-185.3l-141.45 157.82-73.07-157.82h-270.05l-129.18 130.93"/></svg>