<svg enable-background="new 0 0 691.4 480.1" viewBox="0 0 691.4 480.1" xmlns="http://www.w3.org/2000/svg" xmlns:xlink="http://www.w3.org/1999/xlink"><radialGradient id="a" cx="370.6202" cy="249.0566" gradientUnits="userSpaceOnUse" r="231"><stop offset="0" stop-color="#185522"/><stop offset="1" stop-color="#091f0d"/></radialGradient><circle cx="370.6" cy="249.1" fill="url(#a)" r="231"/><path d="m455.3 217.9h-11.5v-54.3-5h-.2c-2.9-33-34.2-59-72.4-59-34.4 0-63.2 21.1-70.7 49.3-1.3 4.7-1.9 9.6-1.9 14.7v30h8.5 13.9v-27.5c0-23.7 22.3-42.8 49.8-42.8s49.8 19.2 49.8 42.8v44.5 7.4h-136.3c-12.2 0-22.2 9.9-22.2 22.2v96.7c0 12.2 9.9 22.2 22.2 22.2h112.6l46.9 31.3v-31.3h11.5c12.2 0 22.2-9.9 22.2-22.2v-96.7c0-12.4-10-22.3-22.2-22.3zm-64.5 110.7h-41l11.6-40.9c-7.8-3-13.2-9.8-13.2-17.7 0-10.7 9.9-19.4 22.1-19.4s22.1 8.7 22.1 19.4c0 7.9-5.4 14.7-13.2 17.7z" fill="#fff"/><path d="m151.8 356.9c3.9 8.9 8.7 18.6 14.7 28.7 9.9 16.6 20.4 30.1 30 40.7-36.9 9.1-67.3 8.9-86.7 7.3-33.2-2.6-80.7-6.4-100.7-39.3-6.1-10.1-8-20.1-8.7-26.7-2.1-20.6 3.6-36.9 7.3-46.2 3.3-8.4 6.8-14.4 13.9-26.6 0 0 7.2-12.3 14.8-23.3 20.4-29.3 56.9-61.3 66.7-70 34.2-30.5 62.9-50.9 72-57.3 26.4-18.6 61.8-41 106-62.7-61.6 38.9-104.6 75.8-132.1 102-12.9 12.3-33.5 32.8-47.9 65.4-10 22.6-21.3 48-9.8 71.9 14.7 30.7 55.8 35.6 60.5 36.1z" fill="#5384ac"/><path d="m297.4 87.6c53.4-26.9 99-43.2 132-53.3 40.4-12.3 65.9-16.4 83-18.5 23.9-2.9 44.2-3.3 59.3-3 14.1.3 25.7 2 34.3 3.8 14 2.8 24.7 5.1 36.3 12.5 8 5.1 13.5 10.8 17 15-2.3-5.8-6.9-14.9-15.8-23-11.9-11-25.1-14.2-37.8-17.3-8-2-20-4.1-34.9-3.7-12.9.3-30.2 1.2-50.5 4-34.9 4.8-60.3 12.4-81.1 18.8-56.2 17.2-94.8 37.5-105.3 43.2-15.2 8.1-27.6 15.7-36.5 21.5z" fill="#f3c531"/><path d="m605.1 212.1v-42c17.2-16.2 30.1-31.2 39-42.5 12.9-16.4 19.9-27.9 25-38 8.8-17.3 10.6-27.1 11.3-33 1.1-10.2 0-18.7-1.3-24.5 3.7 5.4 9 14.5 11.3 26.8 2.8 15-.4 26.9-3.3 37-4.7 17-11.6 28.3-19.9 41.8-15.7 25.5-32.1 43.3-44.4 56.4-7.1 7.7-13.3 13.8-17.7 18z" fill="#5384ac"/></svg>