<svg enable-background="new 0 0 400 400" viewBox="0 0 400 400" xmlns="http://www.w3.org/2000/svg"><circle cx="200" cy="200" fill="#f7eb17" r="200"/><g fill="#191919"><path d="m178.7 149.9-60 35.1v-99.7h88.1c8.5.3 19.7 1.5 32.3 5.3 9.7 3 17.7 6.8 24 10.3-17.5 10.2-34.9 20.3-52.4 30.5l-27.8.1c-2.3 0-4.2 1.9-4.2 4.2z"/><path d="m339.8 122.3-96.3 55.6c.6-3.6 2.3-16.9-5.9-29.8-5.3-8.3-12.3-12.6-15.9-14.5 27.2-15.8 54.4-31.6 81.6-47.3z"/><path d="m96.4 263.2 101-58.7-15.9.1c-1.5 0-2.7-1.2-2.7-2.7v-44l-118.8 68.9z"/><path d="m211.2 204.5-92.5 53.8v74.7l59.7-34.7v-43.8c0-2.3 1.9-4.2 4.2-4.3l33.8-.1c6.2-.2 45.5-1.7 69-33 8.8-11.7 12.5-23.8 14.2-32.3.6-5.3 1-11.3.9-17.8-.1-4.9-.4-9.5-.9-13.6-19.9 11.6-39.9 23.2-59.8 34.8-1.5 2.6-4.5 7-9.8 10.7-7.9 5.4-15.8 5.7-18.8 5.6z"/></g></svg>