<svg xmlns="http://www.w3.org/2000/svg" xmlns:xlink="http://www.w3.org/1999/xlink" viewBox="0 0 522.81 522.81"><defs><linearGradient id="k" x1="161.68" y1="265.65" x2="167.81" y2="264.28" xlink:href="#X"/><linearGradient id="U" x1="109.7" x2="128.52" xlink:href="#A"/><linearGradient id="W" x1="128.23" x2="151.76" xlink:href="#A"/><linearGradient id="V" x1="136.52" y1="308.32" x2="96.39" y2="290.66" xlink:href="#L"/><linearGradient id="T" x1="138.69" x2="154.66" xlink:href="#A"/><linearGradient id="O" x1="242.3" y1="240.07" x2="106.64" y2="270.24" xlink:href="#G"/><linearGradient id="S" x1="145.57" x2="172.09" xlink:href="#A"/><linearGradient id="P" x1="150.26" y1="222.21" x2="175.84" y2="251.95" xlink:href="#L"/><linearGradient id="R" x1="132.72" x2="145.3" xlink:href="#A"/><linearGradient id="Q" x1="147.24" x2="179.35" xlink:href="#A"/><linearGradient id="X" x1="260.94" x2="301.34" gradientUnits="userSpaceOnUse"><stop stop-color="#b84600"/><stop offset=".43" stop-color="#ff8100"/><stop offset=".89" stop-color="#e49f00"/></linearGradient><linearGradient id="g" x1="213.45" y1="314.91" x2="211.77" y2="325.08" xlink:href="#X"/><linearGradient id="Y" x1="202.54" y1="239.34" x2="184.31" y2="335.54" gradientUnits="userSpaceOnUse"><stop stop-color="#b84600"/><stop offset=".31" stop-color="#ff8100"/><stop offset=".52" stop-color="#e49f00"/><stop offset=".96" stop-color="#f9df00"/></linearGradient><linearGradient id="h" x1="149.03" y1="271.56" x2="148.97" y2="283.3" xlink:href="#X"/><linearGradient id="j" x1="157.1" y1="266.74" x2="164.27" y2="264.3" xlink:href="#X"/><linearGradient id="i" x1="150.66" y1="270.01" x2="159.13" y2="264.21" gradientUnits="userSpaceOnUse"><stop stop-color="#b84600"/><stop offset=".43" stop-color="#ff8100"/><stop offset=".91" stop-color="#e49f00"/></linearGradient><linearGradient id="f" x1="208.87" y1="318.83" x2="207.87" y2="328.46" xlink:href="#X"/><linearGradient id="Z" x1="264.05" y1="212.87" x2="357.5" y2="384.28" xlink:href="#X"/><linearGradient id="e" x1="207.36" y1="327.3" x2="206.5" y2="336.17" xlink:href="#X"/><linearGradient id="a" x1="241.71" y1="178.08" x2="268.62" y2="174.31" xlink:href="#X"/><linearGradient id="d" x1="282.62" y1="155.12" x2="273.72" y2="140.34" gradientUnits="userSpaceOnUse"><stop stop-color="#f9df00"/><stop offset=".96" stop-color="#e49f00"/></linearGradient><linearGradient id="b" x1="244.96" y1="198.11" x2="327.57" y2="233.59" gradientUnits="userSpaceOnUse"><stop offset=".14" stop-color="#b84600"/><stop offset=".59" stop-color="#ff8100"/><stop offset=".89" stop-color="#e49f00"/></linearGradient><linearGradient id="N" x1="99.48" x2="138.69" xlink:href="#A"/><linearGradient id="C" x1="392.46" y1="216.7" x2="401.13" y2="219.96" xlink:href="#A"/><linearGradient id="M" x1="239.62" x2="338.62" xlink:href="#G"/><linearGradient id="B" x1="406.57" x2="417.52" xlink:href="#A"/><linearGradient id="A" x1="387.12" y1="182.66" x2="411.41" y2="203.83" gradientUnits="userSpaceOnUse"><stop stop-color="#af6700"/><stop offset=".4" stop-color="#c18b00"/><stop offset=".69" stop-color="#e39600"/><stop offset=".92" stop-color="#f6ba00"/></linearGradient><linearGradient id="7" x1="284.39" y1="463.91" x2="319.73" y2="488.43" gradientUnits="userSpaceOnUse"><stop offset=".2" stop-color="#f9df00"/><stop offset=".51" stop-color="#ecc000"/><stop offset=".89" stop-color="#e39600"/></linearGradient><linearGradient id="3" x1="83.18" x2="439.63" gradientUnits="userSpaceOnUse"><stop stop-color="#e39600"/><stop offset=".26" stop-color="#ecc000"/><stop offset=".55" stop-color="#f9df00"/><stop offset=".82" stop-color="#ecc000"/><stop offset="1" stop-color="#e39600"/></linearGradient><linearGradient id="0" x1="-65.84" x2="599.25" gradientUnits="userSpaceOnUse"><stop offset=".08" stop-color="#666"/><stop offset=".5" stop-color="#f6f6f6"/><stop offset=".88" stop-color="#666"/></linearGradient><linearGradient id="2" x1="43.08" x2="461.58" gradientUnits="userSpaceOnUse"><stop stop-color="#e39600"/><stop offset=".15" stop-color="#ecc000"/><stop offset=".35" stop-color="#f9df00"/><stop offset=".51" stop-color="#fff"/><stop offset=".73" stop-color="#f9df00"/><stop offset=".89" stop-color="#ecc000"/><stop offset="1" stop-color="#e39600"/></linearGradient><linearGradient id="1" x2="522.81" gradientUnits="userSpaceOnUse"><stop stop-color="#e39600"/><stop offset=".26" stop-color="#ecc000"/><stop offset=".52" stop-color="#f9df00"/><stop offset=".77" stop-color="#ecc000"/><stop offset=".99" stop-color="#e39600"/></linearGradient><linearGradient id="9" x1="223.6" y1="437.9" x2="211.71" y2="488.4" xlink:href="#7"/><linearGradient id="I" x1="176.71" y1="142.66" x2="236.84" y2="152.92" gradientUnits="userSpaceOnUse"><stop stop-color="#833700"/><stop offset=".34" stop-color="#9e4f00"/><stop offset=".42" stop-color="#a55500"/><stop offset=".95" stop-color="#e39600"/></linearGradient><linearGradient id="J" x1="189.04" y1="213.45" x2="191.43" y2="222.55" xlink:href="#G"/><linearGradient id="L" x1="117.22" y1="222.63" x2="115.87" y2="251.95" gradientUnits="userSpaceOnUse"><stop stop-color="#af6700"/><stop offset=".29" stop-color="#c18b00"/><stop offset=".61" stop-color="#e39600"/><stop offset=".92" stop-color="#f6ba00"/></linearGradient><linearGradient id="K" x1="127.07" x2="153.04" xlink:href="#G"/><linearGradient id="D" x1="288.27" x2="302.79" xlink:href="#A"/><linearGradient id="G" x1="193.15" y1="204.94" x2="212.38" y2="226.71" gradientUnits="userSpaceOnUse"><stop offset=".15" stop-color="#833700"/><stop offset=".56" stop-color="#a55500"/><stop offset=".95" stop-color="#e39600"/></linearGradient><linearGradient id="F" x1="272.4" y1="121.11" x2="251.36" y2="115.48" gradientUnits="userSpaceOnUse"><stop stop-color="#af6700"/><stop offset=".3" stop-color="#c18b00"/><stop offset=".69" stop-color="#e39600"/><stop offset=".92" stop-color="#f6ba00"/></linearGradient><linearGradient id="H" x1="163.38" x2="192.42" xlink:href="#G"/><linearGradient id="E" x1="289.51" y1="122.71" x2="262.25" y2="103.41" xlink:href="#A"/><radialGradient id="8" cx="260.68" cy="477.06" r="42.48" gradientTransform="matrix(.99994-.01082.00465.42997-2.2 275.43)" gradientUnits="userSpaceOnUse"><stop stop-color="#e39600"/><stop offset=".51" stop-color="#ecc000"/><stop offset="1" stop-color="#f9df00"/></radialGradient><radialGradient id="c" cx="273.84" cy="236.95" r="19.03" gradientTransform="matrix(.96-.28.23.78-43.25 130.94)" gradientUnits="userSpaceOnUse"><stop offset=".5" stop-color="#f9df00"/><stop offset=".96" stop-color="#e49f00" stop-opacity=".6"/></radialGradient><radialGradient id="6" cx="261.4" cy="42.28" r="59.18" gradientTransform="matrix(.96753-.25274.14406.55149 2.37 84.92)" xlink:href="#4"/><radialGradient id="4" cx="475.61" cy="258.86" r="73.36" gradientTransform="matrix(.98351.18086-.09405.51142 32.34 39.65)" gradientUnits="userSpaceOnUse"><stop offset=".03" stop-color="#e39600"/><stop offset=".51" stop-color="#ecc000"/><stop offset="1" stop-color="#f9df00"/></radialGradient><radialGradient id="5" cx="45.02" cy="254.57" r="71.16" gradientTransform="matrix(.93975-.34186.10939.30072-25.05 193.66)" gradientUnits="userSpaceOnUse"><stop offset=".05" stop-color="#e39600"/><stop offset=".51" stop-color="#ecc000"/><stop offset=".93" stop-color="#f9df00"/></radialGradient></defs><g stroke-miterlimit="10"><circle cx="261.4" cy="261.4" r="258.5" fill="url(#0)" stroke="url(#1)" stroke-width="5.809"/><circle cx="261.4" cy="257.05" r="175.72" fill="url(#2)" stroke="url(#3)" stroke-width="5"/></g><path d="m506.11 234.54h-20.33l5.81-8.72h-7.27l-8.71 16-5.81-4.36 5.81-8.71h-5.81l-7.26 8.71v-11.64h-4.36v11.62l-5.81-10.16h-7.26l5.81 10.16h-4.35v24.69h2.9l8.71-13.07v11.62h4.36v-11.62l7.26 8.71h-4.35v2.91h5.8v5.81h-21.78v21.78h4.36l.72-16.7h16v20.33h5.81v-20.33h16v11.62h-10.21c.72 3.63 3.63 5.08 9.44 5.08h7.26v-21.78h-23.24v-2.91l13.07-8.71 11.62 8.71 4.36-4.35-11.66-8.72m-34.82-5.81h-2.9l-4.36 5.81v-8.71h7.26m11.62 8.71l-4.35-5.81h-2.91v-2.9h7.26m5.81 17.43v-11.62l4.36-4.36 7.26 7.26m2.9-2.9s-4.35-1.45-5.81-10.17h11.62s-1.45 7.26-5.81 10.17" fill="url(#4)"/><path d="M76.24,263.29v4.89a2.66,2.66,0,0,1-2.66,2.66H52.76a2.66,2.66,0,0,1-2.66-2.66V244.4A2.65,2.65,0,0,1,48.65,242V220h5.81v8.71a13.44,13.44,0,0,0,11.23-2.57.74.74,0,0,1,.85,0l3.13,2.09a.73.73,0,0,1,.09,1.14c-5.88,5.18-15.3,5.18-15.3,5.18v4.65a1.16,1.16,0,0,0,1.16,1.16h12.2A1.16,1.16,0,0,0,69,239.19v-2A1.16,1.16,0,0,1,70.14,236h3.49a1.16,1.16,0,0,1,1.16,1.16V242a2.66,2.66,0,0,1-2.66,2.66H55.91v10.17a13.44,13.44,0,0,0,11.23-2.57.74.74,0,0,1,.85,0l3.13,2.09a.73.73,0,0,1,.1,1.14c-5.89,5.18-15.31,5.18-15.31,5.18v4.65a1.16,1.16,0,0,0,1.16,1.16H69.28a1.15,1.15,0,0,0,1.15-1.16v-2a1.16,1.16,0,0,1,1.16-1.16h3.5A1.16,1.16,0,0,1,76.24,263.29ZM13.8,237.44H41.39l2.9,2.91,2.91-2.91L37,224.37l-4.35,2.91,2.46,3.7a.42.42,0,0,1-.35.65H26.2a.42.42,0,0,1-.35-.65l5.37-8.06-5.81-1.45-7.26,11.62H13.8Zm29,2.91v32H32.68a4.36,4.36,0,0,1-4.36-4.36H37v-5.81H22.51V272.3H18.15v-32ZM37,253.42H24v2.9H37Zm0-7.26H24v2.9H37Zm-15.66,29.3-6.43,9.65a2.05,2.05,0,0,0,.57,2.85l.93.62a2,2,0,0,0,2.85-.57l6.44-9.65a2.06,2.06,0,0,0-.57-2.85l-.94-.62A2.05,2.05,0,0,0,21.37,275.46Zm11.88,1.47,3.21,9.62a1.82,1.82,0,0,0,2.3,1.15l.9-.31a1.8,1.8,0,0,0,1.15-2.3l-3.2-9.62a1.83,1.83,0,0,0-2.3-1.15l-.91.31A1.81,1.81,0,0,0,33.25,276.93Zm16.11.53,3.38,10.15A2.23,2.23,0,0,0,55.56,289l.56-.19A2.23,2.23,0,0,0,57.53,286l-3.38-10.14a2.23,2.23,0,0,0-2.82-1.42l-.56.19A2.23,2.23,0,0,0,49.36,277.46Zm14.9,1.43,6.21,8.64a2.27,2.27,0,0,0,3.16.51l.42-.3a2.26,2.26,0,0,0,.52-3.16L68.37,276a2.26,2.26,0,0,0-3.16-.52l-.43.31A2.27,2.27,0,0,0,64.26,278.89Z" fill="url(#5)"/><path d="M256.32,35.58V76.24h4.36V71.89h24.69v4.35h4.35V35.58Zm14.52,32h-8.71V57.36h8.71Zm0-16h-8.71V41.39h8.71Zm14.53,16h-8.72V57.36h8.72Zm0-16h-8.72V41.39h8.72ZM262.13,9.44h5.81V16.7h10.17V9.44h5.8V16.7h8.72V24h-8.72v8.72h-5.8V24H267.94v8.72h-5.81V24h-1.45V16.7h1.45ZM230.18,16.7l7.26-1.45L250.51,8l4.36,4.35L241.8,19.61l4.36,7.26,8.71-5.81,2.9,4.35-10.16,7.27s8.1,9.45,7.38,27.05q-.08,1.53-.09,3.06c0,3.76-1.23,15.92-16,13.45V71.89s11.62-1.46,8.72-14.53L233.09,69l-2.91-4.36L247.61,50.1s0-4.35-1.45-5.81L233.09,54.46l-2.91-2.91L244.7,39.94s0-2.91-1.45-4.36l-10.16,7.26-2.91-4.36,8.71-5.8Z" fill="url(#6)"/><g stroke="#776000" stroke-width=".29" stroke-miterlimit="10"><path d="m326 466.9s-5.81-23.24-42.12-13.07l10.17 47.92s39.24 0 31.95-34.85m-27 27l-7-34.43c25-7 27.53 10.44 27.53 10.44 5.07 23.97-20.46 23.97-20.46 23.97" fill="url(#7)"/><path fill="url(#8)" d="m243.25 452.38v49.37h7.26v-34.85l21.79 34.85h5.81v-49.37h-7.27v33.4l-20.33-33.4h-7.26z"/><path d="m208.4 448l-2.91 11.62-8.71-1.46-1.45 4.36 8.67 1.48-7.26 31.95 5.81 1.45 4.45-18.88 10.11 1.48s17.43 2.9 21.78-11.62c0-.03 5.81-18.91-30.49-20.38m21.78 24.69c-9.16 5.88-20.53.26-20.53.26l1.63-7.42 13.25 1.85 1.59-4.46-13.24-1.85 1.67-7.47c10.69.28 17 3.8 18.54 7.47 1.65 4.11 1.04 9.1-2.91 11.64" fill="url(#9)"/></g><path d="m400.09 172.09l-1.45 7.26s-10.16-2.9-18.88 10.17c0 0 11.62-4.36 17.43-4.36a42 42 0 0 1 0 14.52s-1.45 11.62 2.9 17.43c0 0 1.34-13.34 4-18.28a11 11 0 0 0 .91 -2.41c.95-3.56 2.39-11.56-2-17.07l-1.45-7.26" fill="url(#A)"/><path d="m410.29 192.42s-12.06 8.47 7.23 20.33c0 0-9.64-11.86-7.23-20.33" fill="url(#B)"/><path d="m395.74 204s-1.45 7.26 1.45 11.62c0 0-5.81 4.36-5.81 14.52 0 .04-10.17-17.39 4.36-26.14" fill="url(#C)"/><path d="m288.27 114s2.91 4.36 2.91 7.26c0 0 2.9-7.26 11.61-14.52a20.1 20.1 0 0 0 -14.52 7.26" fill="url(#D)"/><path d="m275.2 102.38s13.07 8.72 14.52 20.33c0 0 0 2.91-4.35 7.27 0 0-7.26-17.43-29.05-24.69 0 0 14.52-2.91 21.79 7.26 0 0 0-7.26-2.91-10.17" fill="url(#E)"/><path d="m254.87 122.71s7.26-7.26 14.52-8.71c0 0 2.91 1.45 7.26 7.26 0 0-5.81-2.9-21.78 1.45" fill="url(#F)"/><path d="m199.68 192.42l-1.45 45 5.77-20.31s10.17 7.26 14.52 18.88c0 0 0-17.43-2.9-23.24 0 0 8.71 1.46 11.62 8.72 0 0 0-11.62-14.53-14.52" fill="url(#G)"/><path d="m163.38 127.07s7.26 0 11.62-4.36c0 0 4.35-5.8 10.16 4.36 0 0 5.81-1.45 7.26 2.91 0 0-10.16 11.61-29 13.07 0 0 16-7.26 17.42-14.53a40.47 40.47 0 0 1 -17.46 -1.45" fill="url(#H)"/><path d="m193.47 130.65l-18.47 31.28s10.16-4.36 18.87-16v18.88s8.72-8.71 7.27-29c0 0 1.45 13.07 16 23.23 0 0-2.9-7.26-2.9-13.07 0 0 5.81 8.71 20.33 8.71l1.45-1.45s-27.59-8.71-27.59-24.69c0 0-5.81-1.45-7.26 2.91 0 0-2.5-3.75-6.34-2a3 3 0 0 0 -1.36 1.2" fill="url(#I)"/><path d="m195.33 208.4v10.16s-5.81 2.91-8.72 14.53c0 0-4.35-11.62 8.72-24.69" fill="url(#J)"/><path d="m127.07 221.47s10.73-16 26-4.67c-.07 0-15.27-3.44-26 4.67" fill="url(#K)"/><path d="m122.71 224.37s-1.45-4.35-7.26-1.45c0 0-4.35 7.26-17.42 14.52 0 0 13.07-1.45 21.78-7.26 0 0 0 5.81-10.17 17.43 0 0 18.88-7.26 26.15-26.14 0 0-10.17-1.47-13.08 2.9" fill="url(#L)"/><path d="m376.86 150.31s-21.79-10.17-90-5.81l-2.91-5.81s88.59-2.9 94.4 7.26" fill="url(#M)"/><path d="M99.48 282.46a70.74 70.74 0 0 0 18.88 -5.81s2.9-1.45 2.9 0l17.43-17.42-1.45 4.35-14.53 14.53s1.46 4.35-2.9 5.8A54.87 54.87 0 0 1 99.48 282.46" fill="url(#N)"/><path d="m265 144.5l1.45-2.91-33.4 11.62-32 23.24s-10.17 0-10.17 10.16l-26.14 29-29 45s-26.15 61 14.52 92.94c0 0-37.76-33.4-5.81-97.3 0 0 8.71-18.88 30.5-45 .05.05 24.73-34.8 90.05-66.75" fill="url(#O)"/><path d="M134.47 240.88a17.46 17.46 0 0 0 5.67 5.28s-5.81-11.62 1.45-18.88c0 0 5.81-4.36 10.17 0 0 0-7.26 8.71-10.17 8.71 0 0 13.07-2.9 27.6-16 0 0-4.36 11.61 8.71 30.49V220s0-5.81-4.36-5.81h-8.71s-5.81 4.35-11.62 4.35c0 0-8.71-1.45-11.62 4.36 0 0-2.08-.7-5.78 2.73A11.44 11.44 0 0 0 134.47 240.88" fill="url(#P)"/><path d="m151.76 343.46s24.69-2.91 27.59 4.35c0 0-10.16-2.9-16 0 0 0 13.07 11.62 14.52 23.24 0 0-21.78-17.43-30.5-21.78.03 0-1.37-5.81 4.39-5.81" fill="url(#Q)"/><path d="m137.24 342s-10.17 13.07 0 29.05c0 0 0-14.52 7.26-17.43 0 0 4.36-10.16-7.26-11.62" fill="url(#R)"/><path d="m145.66 357.34c-.35 7-.1 22 7.55 29.68 0 0-1.45-10.16 1.45-16 0 0 2.91 17.43 17.43 24.69 0 0-5.18-10.37-3.31-20.09a7.22 7.22 0 0 0 -.41 -4.16c-1.44-3.47-5-8.94-12.25-4.8 0 0 4.75-11.88-6.16-13.07a3.92 3.92 0 0 0 -4.3 3.75" fill="url(#S)"/><path d="m138.69 333.29s8.71-5.81 11.62 8.71c0 0 1.45 7.27 4.35 10.17 0 0-13.07-7.26-15.97-18.88" fill="url(#T)"/><path d="M120.5 302.6a5.53 5.53 0 0 0 -2.33 3.8c-.34 2.37-1.33 6.12-4.17 8 0 0-7.26 4.36-2.9 14.52s14.52 21.79 14.52 21.79-11.62-18.88-7.26-29.05c0 0 0 5.81 8.71 11.62 0 0-5.81-14.52-2.9-20.33l4.35-5.81S128.52 297.23 120.5 302.6" fill="url(#U)"/><path d="m124.17 285.37s-4.36-1.46-7.26 1.45c0 0-5.81 7.26-17.43 13.07 0 0 7.26 0 16-5.81 0 0-5.81 13.07-13.07 18.88 0 0 14.53-7.26 18.88-16a16.94 16.94 0 0 1 0 13.07s7.26-2.9 10.17-21.78c-.03.02-.03-4.34-7.29-2.88" fill="url(#V)"/><path d="m128.52 302.79s1.46 8.72 14.53 20.33a26 26 0 0 1 -4.36 -14.52s2.9 2.91 13.07 4.36c0 0-16.58-14.46-18.83-20.91a.46 .46 0 0 0 -.74 -.21c-.73.62-1.77 2.11-.76 5.14 0 .02-4.36.02-2.91 5.81" fill="url(#W)"/><path d="M266.25,172.09v-9.32a20.2,20.2,0,0,1-2.71-3.47c-5.67-8.92-1.65-20.73,8.09-24.85,7-3,16.69-5.14,21.18,2.66,0,0,1.66,4.81,0,8,0,0,3.32-3.21,6.64-1.61,0,0,6.64,4.81-5,11.23v17.34Z" fill="url(#X)"/><path d="M244.7,273.75s-11.39-20.09-30.12-19.44a16.71,16.71,0,0,0-8.79,3c-4.25,2.91-11.73,8.9-21.88,20.35a2.71,2.71,0,0,1-3.68.34L164.8,264.8a5.51,5.51,0,0,0-3.66-1.32c-4.83.08-15.7,2.06-14.21,18.4a9.76,9.76,0,0,0,2.52,5.72l12.82,14a5.73,5.73,0,0,1,1.39,2.63c1,4.45,5.45,17.66,21.14,15.24a8.22,8.22,0,0,0,4.82-2.56c3.55-3.87,14.65-10.87,30.4-9.75Z" fill="url(#Y)"/><path d="M241.19,276.15s-11.22-15.59-26.9-15a14,14,0,0,0-7.35,2.51A100.61,100.61,0,0,0,188.07,281c-2.08,2.49-8.72,2.9-11.62,0l-9.62-9.68a4.59,4.59,0,0,0-3.06-1.1c-4.05.07-7.65-2.29-9,11-.18,1.78.9,3.48,2.11,4.8l10.73,11.7a4.86,4.86,0,0,1,1.15,2.2c.87,3.73,4.57,14.78,17.7,12.75a6.8,6.8,0,0,0,4-2.14c3-3.24,18.31-10.31,31.48-9.37Z"/><path d="m328.93 180.8s-13.07-24.68-29-10.16c0 0-36.31-13.07-55.19 20.33 0 0-14.52 26.14 2.91 50.83 0 0 4.35 4.36 1.45 17.43 0 0 0 4.35 7.26 7.26 0 0-18.88 5.81-29 20.33 0 0-2.91 2.9-11.62 5.81a6.36 6.36 0 0 0 4.36 1.45h1.45s-2.91 8.71-1.45 16c0 0-19.38 0-19 20.27a3.77 3.77 0 0 0 .78 2.19c.61.79 1.35 2.43 1.09 5.58a6.62 6.62 0 0 0 1.44 4.67l22 27.2a6 6 0 0 0 2.47 1.84 14.44 14.44 0 0 0 12.93 -.75s7-2.78 35.86 8a17.46 17.46 0 0 0 4.49 1.05c9.74.91 44.79.75 67.12-43.9 0 0 16-31.95 26.14-47.93 0 0 24.68-33.4 5.8-74.06l-26.14-59.55s7.27-26.14-21.78-27.59a14.49 14.49 0 0 0 -11.62 7.26s-10.48 2.62-7.8 14.09a6.46 6.46 0 0 0 1.74 3.08l10.38 10.4s4.39 7.26 2.93 18.87" fill="url(#Z)"/><path d="m221.47 317.32l13.07 14.52s11.62 8.71 29-1.45l17.46-14.53s21.6-13.2 36.44 12.77a29.32 29.32 0 0 1 3.06 22.63c-3.06 10.55-12.57 22.75-40.89 18.8a23.53 23.53 0 0 1 -5.29 -1.37l-23.15-9a1.28 1.28 0 0 0 -1.2 .14 19 19 0 0 1 -16.17 2.5 12.86 12.86 0 0 1 -5.66 -3.62l-16.79-18a3.74 3.74 0 0 1 -.81 -3.75c1.92-5.69 7.39-20.82 10.93-19.64"/><path d="m327.48 138.69h-5a3.16 3.16 0 0 0 -3 4.3 14 14 0 0 0 2.18 3.3l11 13.18 4.88 27.93a90.42 90.42 0 0 1 1.14 18.88l-6 39.31c.37 12.65 12.13 21.3 22.87 21.31 19.82 1 25.62-17.84 22.72-36.72l-26.05-74 .32-4.87c.32-4.9-.06-8.23-3.41-11.22l-2.94-2.62c-2.56-2.27-7.21-4.73-10.36-4.27l-3.65.54c-2.18.26-2.97 3.33-4.7 4.95"/><path d="M265,175l-3.61-8a10,10,0,0,0-16.07-2.1L240.53,170a10,10,0,0,0-.37,13.18l6,9.22Z" fill="url(#a)"/><path d="m259.23 175s-1.46-11.62-10.17-5.81l-4.11 4.1a6.67 6.67 0 0 0 -.31 9.12 40.56 40.56 0 0 0 4.42 4.2"/><path d="m269.39 172.09v-16s-14.52-14.53 13.07-18.88c0 0 11.62-1.45 8.72 10.16 0 0 5.8-2.9 5.8 1.46 0 0-1.45 2.9-7.26 7.26l1.46 16"/><path d="m299.89 170.64s-36.31-13.07-55.19 20.36c0 0-14.52 26.14 2.91 50.83 0 0 4.35 4.36 1.45 17.43 0 0 0 4.35 7.26 7.26 0 0 30.85 9.26 49.38 0 8.71-4.36 11.29-5.16 16-14.53 1.45-2.9 4.36-24.68 4.36-33.4 0-2.9 2.38-30.52 2.9-36.3 1.43-16.01-20.36-23.29-29.07-11.65" fill="url(#b)"/><path d="m300.21 175.43l1.21-1a10 10 0 0 1 13.16 .37l7.19 6.84a8.85 8.85 0 0 1 -.41 13.29l-1.22 1a9.94 9.94 0 0 1 -13.16 -.36l-7.18-6.84a8.83 8.83 0 0 1 .41 -13.3"/><path d="m288.27 236s0-14.52-17.43-10.17c0 0-16 2.91-10.16 18.88a2 2 0 0 1 0 2.91s0 2.9 8.71 0c0 0 8.72-2.91 13.07-2.91" fill="url(#c)"/><path d="m269.94 230.31c5.16-.87 17.34-1.1 22.68 9.68a7.62 7.62 0 0 1 -1.79 9.26c-2.86 2.28-9.82 3-20.37-2.95 0 0-11.16-5.46-6.12-12.58a8.58 8.58 0 0 1 5.6 -3.41"/><ellipse cx="271.57" cy="238.89" rx="1.45" ry="2.18" transform="matrix(.29954-.95408.95408.29954-37.7 426.44)" fill="#f9df00"/><path d="m275.48 145.24s-4.84-2.92-6.2 1.85c0 0-1.36 4.77 6.69 9.12a19 19 0 0 1 -1.92 -7.76s3.41 6.13 6.62 7.55c0 0-1.92-7.76-.42-9.4 0 0 1.85 6.2 5.05 7.63 0 0-.35-7.84 1.15-9.47 0 0-3.34-4.57-6.27.27 0-.03-1.71-3.03-4.7.21" fill="url(#d)"/><path d="m202.8 326s7.35-.92 8.73 3.21c0 0 1.14 3.43-2.13 4a1.29 1.29 0 0 1 -1.42 -.81c-.75-1.89-2.69-6.09-5.18-6.4" fill="url(#e)"/><path d="m203.75 319.67s7-2.29 9.18 1.51c0 0 1.4 2.49-.46 3.9a1.94 1.94 0 0 1 -2.73 -.53c-1.23-1.84-3.69-4.99-5.99-4.88" fill="url(#f)"/><path d="m209.28 315.78s5.51-1.79 7.17 1.18c0 0 1.1 2-.36 3.05a1.51 1.51 0 0 1 -2.13 -.41c-.96-1.45-2.88-3.9-4.68-3.82" fill="url(#g)"/><path d="m143.85 276s6.28-3.92 9.27-.75c0 0 2.48 2.63-.23 4.56a1.3 1.3 0 0 1 -1.64 -.14c-1.47-1.38-4.99-4.38-7.4-3.67" fill="url(#h)"/><path d="m145.32 268.62s6.37-3.78 9.29-.54c0 0 1.91 2.12.4 3.9a1.91 1.91 0 0 1 -2.77 .08c-1.61-1.52-4.7-4.06-6.92-3.44" fill="url(#i)"/><path d="m152.64 265s5.51-1.79 7.18 1.18c0 0 1.09 1.95-.36 3.05a1.51 1.51 0 0 1 -2.13 -.41c-.97-1.49-2.89-3.95-4.69-3.82" fill="url(#j)"/><path d="m159.16 263.79s4.58-1.49 6 1c0 0 .91 1.62-.3 2.54a1.25 1.25 0 0 1 -1.77 -.35c-.84-1.22-2.43-3.27-3.93-3.19" fill="url(#k)"/></svg>