<svg enable-background="new 0 0 373 353.1" viewBox="0 0 373 353.1" xmlns="http://www.w3.org/2000/svg"><path d="m79.2 63.9c29.5-43.6 79.8-68 131-63.4 57.7 5.2 107.2 46.5 124 103.9-6.9-12.8-32.9-57.8-87.5-77.3-55.9-19.8-120.1-5.3-167.5 36.8z" fill="#61cce0"/><path d="m221.7 350.1c59.9-3.5 113-35.5 137.3-85.2 27.4-56.3 7-113.5 2.5-126.2-11-30.9-28.4-52.2-39.9-64.3 6.8 13.4 35.9 74.9 13.4 149.3-26.4 86.8-102.1 121.5-113.3 126.4z" fill="#544c90"/><path d="m159.5 353.1c-9-.1-59-1.7-97.6-42.7-34.1-36.3-36.5-79.2-36.8-89.8 9.9 22.6 30.5 61.2 71 94.6 23.1 18.9 45.8 30.6 63.4 37.9z" fill="#25afc6"/><path d="m96.2 51.4c12-9.7 50.1-38.1 104-37 35 .7 60.2 13.6 67 17.3 34.8 18.7 52.1 46.9 61.5 62.7 11.9 19.9 17.9 38.3 21.2 51 2.3 8.9 22.6 91.2-27.4 149.7-25.4 29.7-60.4 43.3-69.3 46.5-24.1 8.7-45.4 10.4-59.5 10.4-13 1.2-36.2 1.5-62.3-8.4-38.7-14.7-59.6-42.8-66.9-53.9-11-11.4-29.4-33.7-38.3-66.9-4.3-15.8-5.3-30-5.2-41.1.4-11.2 2.3-28 9.6-46.9 6-15.5 13.2-26 19.2-34.6 9-12.7 23.7-30.8 46.4-48.8z" fill="#332050"/><path d="m351.9 182.9c0 87.5-70.3 158.5-157.1 158.5s-157.1-71-157.1-158.5 70.3-158.5 157.1-158.5c57.8 0 108.4 31.5 135.7 78.5 13.6 23.5 21.4 50.8 21.4 80z"/><path d="m25.2 218.6c-2.4-9.6-5.1-24.4-4-42.2 3.1-49.9 33.3-83.9 57.5-111.3 15.4-17.4 36.7-40.8 72.8-55.2 11.3-4.5 21.3-7 28.4-8.5-12.1-.8-29.6-.4-49.4 5.8-8.2 2.5-28.2 8.9-46.8 25.5-4 3.4-12.7 11.7-20.5 23.7-3.5 5.4-5.2 8-6.8 12-2.2 5.7-2.7 9.8-6.2 16-1.3 2.3-2.6 4.1-3.5 5.2-3 3.3-7.7 8.4-14 14.3-12.6 11.9-16.3 13-22.3 21-3.7 4.9-9.7 13.3-10.4 24.7-.4 7.3 1.6 12.8 2.9 16.3 7.8 21.1 17.4 42.3 22.3 52.7z" fill="#b32c77"/><path d="m311.7 260.5v.9h-.3v48.3h-30.4v-48.3h-55.8l12.6-29.9h43.2v-90h55.6c38.7 0 65 24.2 65 59.5 0 34.8-26.3 59.5-65 59.5zm0-28.5h23.8c22.3 0 35.5-12.4 35.5-31.1s-13.2-31.1-35.5-31.1h-23.8v61.5z" fill="#fff" transform="translate(-125 -42)"/></svg>