<svg xmlns="http://www.w3.org/2000/svg" viewBox="0 0 538 538"><path fill="#4ac53b" d="m0 0h538v538h-538z"/><g fill="#fff"><path d="m270.52 265.96v-120.06l41.03 28.87-41.03 91.19"/><path d="m269 265.96v-120.06l-41.03 28.87 41.03 91.19"/><path d="m269 82.07v60.79l-39.51 27.36 39.51-88.15"/><path d="m270.52 82.07v60.79l41.03 28.87-41.03-89.66"/><path d="m258.79 272.66l-77.94-62.93 39.52-10.64 38.42 73.57"/><path d="m258.01 273.68l-78.68-62.43-1.52 41.03 80.2 21.4"/><path d="m138.3 177.81l39.51 31.92-3.04 39.51-36.47-71.43"/><path d="m139.82 176.29l39.51 31.92 39.52-10.64-79.03-21.28"/><path d="m281.16 272.66l77.93-62.93-39.51-10.64-38.42 73.57"/><path d="m281.93 273.68l78.68-62.43 1.52 41.03-80.2 21.4"/><path d="m401.65 177.81l-39.52 31.92 3.04 39.51 36.48-71.43"/><path d="m400.13 176.29l-39.52 31.92-39.51-10.64 79.03-21.28"/><path d="m285.5 284.68l74.96 16.54-12.54-28.74-62.42 12.2"/><path d="m285.25 285.63l75.03 17.23-23.84 20.54-51.19-37.77"/><path d="m399.93 311.43l-38.01-8.39-22.2 20.73 60.21-12.34"/><path d="m400.11 309.79l-38.01-8.39-12.54-28.74 50.55 37.13"/><path d="m255.49 284.68l-74.96 16.54 10.96-27.66 64 11.12"/><path d="m255.74 285.63l-75.03 17.23 22.94 20.85 52.09-38.08"/><path d="m141.06 311.43l38.01-8.39 22.2 20.73-60.21-12.34"/><path d="m140.88 309.79l38.01-8.39 11.08-27.84-49.09 36.23"/><text transform="translate(29.24 416.76)" font-family="CenturyGothic, Century Gothic" letter-spacing="0" font-size="98">PARAGON</text></g></svg>