<svg xmlns="http://www.w3.org/2000/svg" viewBox="0 0 643.27 643.27"><defs><linearGradient id="0" x2="643.27" gradientUnits="userSpaceOnUse"><stop stop-color="#fff"/><stop offset=".34" stop-color="#333"/><stop offset=".71" stop-color="#fff"/><stop offset="1" stop-color="#333"/></linearGradient></defs><circle cx="321.64" cy="321.64" r="306.5" fill="#fbb466"/><g fill="#f89d4c"><path d="M101.34,200.6,205.83,312.06l-61,196.78L242.4,615.07S533.23,686.48,622,380L611.59,251.11l-87.07-81.85Z"/><path d="m371.79 108.64l39.53 36.24h-48.76l9.23-36.24"/><path d="m446.67 112.12l39.54 36.24h-48.77l9.23-36.24"/></g><circle cx="321.64" cy="321.64" r="306.5" fill="none" stroke="url(#0)" stroke-width="30.27" stroke-miterlimit="10"/><path d="M147.49,138.78l-47,62.69h363.1v65.31a30.72,30.72,0,0,1-24.38,26.12H268.52l12.19-59.21H200.6L144.88,508.84h78.36l31.35-155h43.54L294.41,368A15.1,15.1,0,0,0,309,386.94h4.16a15.09,15.09,0,0,0,14.4-10.56l7.12-22.53h36.57l-3.58,13.6a15.54,15.54,0,0,0,15,19.49h1.54a15.53,15.53,0,0,0,14.82-10.86l7-22.23h51.38a106.16,106.16,0,0,0,28.09-3.69c19.52-5.34,48.53-17.92,56.38-46.24a51.47,51.47,0,0,0,1.72-13.77V210.7a62.55,62.55,0,0,0-28.48-52.78c-11.46-7.34-27.49-13.19-49.88-14.79H447.89l4-16.09a15.07,15.07,0,0,0-14.63-18.73h-6.21a15.07,15.07,0,0,0-14.38,10.53l-7.12,22.55H374.75l4-16.09a15.08,15.08,0,0,0-14.62-18.74h-3.9a15.08,15.08,0,0,0-14.58,11.24l-5.75,21.85Z"/></svg>