<svg enable-background="new 0 0 32 32" viewBox="0 0 32 32" xmlns="http://www.w3.org/2000/svg"><g clip-rule="evenodd" fill-rule="evenodd"><circle cx="16" cy="16" fill="#00acff" r="16"/><path d="m15.1 20.2c.3-.1.6 0 .7.3.1.3 0 .6-.3.7l-3.4 1.4-.5 2.4h-2.3l.3-1.4-1.4.6c-.3.1-.6 0-.7-.3-.1-.3 0-.6.3-.7l2-.8.1-.8-2.7 1.1c-.3.1-.6 0-.7-.3-.1-.3 0-.6.3-.7l3.3-1.4 2.4-13.3h6.8c4.1-.1 6.2 1.2 6.2 4.2 0 3.7-2.7 6.6-7.3 6.6h-5.3l-.3 1.6 1.5-.6c.3-.1.6 0 .7.3.1.3 0 .6-.3.7l-2.1.9-.2.8zm-.6-11.1-1.2 6.4h5.2c3.2 0 4.4-2.2 4.4-3.8s-.8-2.7-3.3-2.7h-5.1z" fill="#fff"/></g></svg>