<svg xmlns="http://www.w3.org/2000/svg" viewBox="0 0 344 329.81"><g><path d="M106.77,71.1v23a26.32,26.32,0,0,1-26.29,26.29H29.62A29.71,29.71,0,0,0,0,150v43.45A29.71,29.71,0,0,0,29.62,223H80.48a26.32,26.32,0,0,1,26.29,26.29v50.86a29.71,29.71,0,0,0,29.62,29.62h43.45a29.71,29.71,0,0,0,29.62-29.62V249.33A26.32,26.32,0,0,1,235.75,223h23C175.15,223,106.77,154.66,106.77,71.1Z"/><g fill="#db0029"><path d="M316.23,193.41V150a29.71,29.71,0,0,0-29.62-29.63H235.75a26.32,26.32,0,0,1-26.29-26.29V43.2a29.71,29.71,0,0,0-29.62-29.62H136.39A29.71,29.71,0,0,0,106.77,43.2V71.1c0,83.56,68.38,151.94,151.94,151.94h27.9A29.71,29.71,0,0,0,316.23,193.41Z"/><path d="M240.32,82.09S230.44-21.23,344,4C341.9,34.44,344.74,109.24,240.32,82.09Z"/></g></g></svg>