<svg enable-background="new 0 0 373.8 352.2" viewBox="0 0 373.8 352.2" xmlns="http://www.w3.org/2000/svg"><path d="m85 308.7c6.8 7.9 18.7 19.7 36.6 29.2 20.8 11 40 13.6 51 14.3 6.5-.3 17.1-1.5 29-6.8s19.9-12.3 24.5-17c5-4.5 12.3-10.9 21.3-18.5 19.9-17 30.1-25.6 41.8-33.5 6-4.1 14.1-9.1 24.1-14.3 5.3-2.7 10.7-5.1 16.2-7.3 7.4-3 19.8-9.5 30-22.7 12.3-16.1 14.1-32.8 14.5-39-.5-7.9-2-18.6-6.3-30.5-3.4-9.5-7.5-17.2-11.3-23-14.7 26.3-46.6 74.8-105.5 114-68.3 45.5-135.4 53.4-165.9 55.1z" fill="#0293d6"/><path d="m123.3 24.8c3.9-4 8.9-8.4 15.4-12.4 16.8-10.4 33.6-12 42.6-12.2 4.2-.3 10.1-.3 17 1.5 10.1 2.6 17 7.7 20.8 10.8 8.9 6.2 20.5 13.1 35 18.9 20.4 8.2 38.7 11 52 12 2.7.1 6.6.3 11.2 1.1 8.2 1.5 26.5 4.7 38.3 19.6 9.2 11.6 10.2 25 10.3 31.3-.3 6.5-1.2 14.1-3 22.5s-4.1 15.7-6.5 21.8c-77.7-38.3-155.4-76.6-233.1-114.9z" fill="#ebe638"/><path d="m85 308.7c-8.6-1.1-20.9-3.5-34.6-9.4-14.1-6.1-31.9-13.7-42.4-32.2-6.7-11.8-8-23.7-8-31.7.1-7.4.7-16.2 2.7-26 2.9-14.7 7.8-26.7 12.2-35.5 3.7-8.8 7.3-18.8 10.5-29.7 4.6-15.7 7.3-30.1 9-42.8 1.2-8.5 2.8-15.4 4.2-20.3 2.9-10.5 5.6-20 12.7-29.8 4-5.6 8.2-9.6 11-12 6.7-4.3 17.6-10.2 32.3-13.2 11.7-2.4 21.8-2.1 28.8-1.3-15.9 22.6-44 68.9-53.5 134.5-10 68.6 5.7 123.2 15.1 149.4z" fill="#bad147"/><path d="m123.3 24.8c-1.6-.1 53.7 3.5 87.6 15.3 10.1 3.5 19.3 7.5 27.7 11.6-10.9-.7-80.5-3.8-133.7 49.7-66.7 67.1-45 160.6-43.8 165.8-6.5-8.3-16.3-23.3-20.2-44.3-1.8-9.5-1.9-17.9-1.5-24.8.7-19 4-44.4 14.2-72.6 18.9-51.9 51.3-84.7 69.7-100.7z" fill="#78b650"/><path d="m256.9 272.2c9.1-16.3 26.4-52.8 25.2-101.6-1.6-62.3-32.3-104.9-43.4-118.9 6.3 1 15.4 3 25.9 6.9 23 8.7 37.6 21.5 50.8 33.3 11.3 10.1 26.5 25.6 41 47.8-6.7 17.6-16.7 38.8-31.8 61-22.8 33.7-48.4 56.8-67.7 71.5z" fill="#2f8260"/><path d="m289.3 95.7c-16.7-26.5-39.2-39.2-49-44-8-1.4-83.4-13.6-140.7 41.3-45.9 44-48.4 100.7-48.7 112.3.1 15 2.1 38.6 13 64.7 6.9 16.5 15.4 29.4 22.7 38.7 7.6 1.4 15.9 2.6 25 3.3 12.2 1 23.3.9 33 .3 8.1-.1 19.3-.8 32.5-3.3 15.1-2.9 49.4-9.4 79.6-35.3 4.2-3.6 48.6-44.8 50.9-109.7.4-10.7 0-39.2-18.3-68.3zm-36 145c-27.8 32.4-67.7 32.7-73.8 32.7-5.7-.1-45.8-1.1-73.8-34.7-3.6-4.3-23.4-28.8-22.3-64.7 1.4-48.3 39.3-75.9 47.7-81.7 7.1-4.8 23.9-16 48.5-17.7 6.1-.4 27.2-1.6 48.5 10 46.1 25.1 47.6 85.5 47.7 89.3-.1 10.9-.2 40.9-22.5 66.8z" fill="#085229"/></svg>