<svg xmlns="http://www.w3.org/2000/svg" viewBox="0 0 138.42 86.04"><circle cx="10.71" cy="68.22" r="9.81" fill="#fff" stroke="#000" stroke-width="1.797" stroke-miterlimit="10"/><path d="m101.07 24.12h16.92v1.68h-16.92z"/><circle cx="127.72" cy="24.12" r="9.81" fill="#fff" stroke="#000" stroke-width="1.797" stroke-miterlimit="10"/><path transform="matrix(-.90579.42373-.42373-.90579 76.45 102.51)" d="m18.37 58.91h16.92v1.68h-16.92z"/><g stroke="#000" stroke-width="1.797" stroke-miterlimit="10"><path d="M32.19,16V55.22s8.09,20.29,35.64,29.87c0,0,23.65-7.86,33.24-28.22V15.4S78.76,13.9,67.53,1.32C67.53,1.32,56,13.3,32.19,16Z" fill="#49e1cd" isolation="isolate"/><path fill="#fff" d="m82.65 24.12l6.28 6.18-28.74 28.74-12.1-11.66 6.26-5.8 5.35 5.26 22.95-22.72z"/></g></svg>