<svg xmlns="http://www.w3.org/2000/svg" viewBox="0 0 3289.6 3150.12"><g transform="translate(0 .02)"><path d="M2290.4,96.2h0a120.41,120.41,0,0,0-170.1,0L1900.7,316.1,1619,34.7a113.14,113.14,0,0,0-18.9-15.3C1557.2-10.2,1497.8-6,1459.7,32.2l-2.4,2.4-.1.1-.1.1L737.5,755.5a18.48,18.48,0,0,1-1.4,1.4c-.5.5-1,.9-1.5,1.4a106.41,106.41,0,0,0,0,150.4l217.7,217a106.07,106.07,0,0,0,150-150L965.4,839l566.8-567.7,294.4,294.4a114.37,114.37,0,0,0,136.1,19.4,121.64,121.64,0,0,0,32.3-23l295.4-295.7A120.53,120.53,0,0,0,2290.4,96.2Z" fill="#348f8d"/><path d="m2465.8 935.2l-2.7-2.7-.2-.2-.2-.2-214.6-214.3a106.07 106.07 0 0 0 -150 150l136.9 136.7-565.8 566.3-295.1-294.8a114.36 114.36 0 0 0 -105.6 -30.9 118 118 0 0 0 -62 33.3l-295.4 295.7a120.28 120.28 0 1 0 170.1 170.1l218.4-219.2 275.3 275a103.39 103.39 0 0 0 9.8 11.2 110.21 110.21 0 0 0 155.8 0l722.5-723.3a18.48 18.48 0 0 1 1.4 -1.4c.5-.5 1-.9 1.5-1.4a105.89 105.89 0 0 0 -.1 -149.9" fill="#7abdc1"/><g fill="#3e898a"><path d="m207.2 2599.7c-12.3 0-24.5-.2-36.4-.6s-23.2-1.1-33.6-2.2v292.9h-137.2v-749.2h216.1q54.3 0 94.9 4.8c27.1 3.2 51.2 7.9 72.5 14.3q76.65 23.55 118.2 75 41.4 51.6 41.4 131 0 54.3-22.4 97.7t-65.5 73.6c-28.8 20.2-63.8 35.7-105.3 46.5s-89 16.2-142.7 16.2m-70-118.1c7.8 1.1 17.8 2 30 2.5s24.7.8 37.8.8c37 0 67.9-3 93-9s45.2-14.3 60.5-24.9 26.3-23.5 33-38.6a120.83 120.83 0 0 0 10.1 -49.6c0-22-5-41.1-15.1-57.1s-27.6-28.6-52.6-37.5c-13.1-4.5-29.2-7.7-48.4-9.8s-42.8-3.1-70.8-3.1h-77.3v226.3"/><path d="M991.1,2832.1h-2.2a254.81,254.81,0,0,1-26.9,24.1,251.23,251.23,0,0,1-35.8,23.2,204,204,0,0,1-44.8,17.6,200.84,200.84,0,0,1-53.2,6.7c-25.8,0-49.8-4-72.2-12s-41.6-19.6-57.7-34.7a159.36,159.36,0,0,1-37.8-54.9c-9.2-21.5-13.7-45.4-13.7-72q0-43.65,16-78.4a168,168,0,0,1,44.5-58.8c19-16,41.8-28.3,68.3-36.7s55.8-12.6,87.9-12.6a435.54,435.54,0,0,1,65,4.5,461.58,461.58,0,0,1,52.1,10.6V2537a108.59,108.59,0,0,0-6.4-36.7,82.74,82.74,0,0,0-20.7-31.4c-9.5-9.1-21.9-16.4-37.2-21.8s-34-8.1-56-8.1a368.11,368.11,0,0,0-80.6,9c-26.9,6-56,14.9-87.4,26.9V2371.3a435.09,435.09,0,0,1,86.8-27.4,506.63,506.63,0,0,1,96.3-10.1q59.4,0,103.9,14.6c29.7,9.7,54.5,23.1,74.5,40a162,162,0,0,1,44.8,60.2c9.9,23.2,14.8,48.3,14.8,75.6v204.4q0,53.7,1.1,92.4c.7,25.8,1.5,48.7,2.2,68.9h-120Zm-10.6-173.6c-12.7-3-27.3-5.7-43.7-8.1a343.47,343.47,0,0,0-49.8-3.6c-32.5,0-58.1,6.4-77,19.3s-28.3,32.6-28.3,59.1c0,12.3,2.1,23.1,6.4,32.2a63.8,63.8,0,0,0,17.4,22.7,72.35,72.35,0,0,0,25.5,13.4,103.83,103.83,0,0,0,30.8,4.5,135.43,135.43,0,0,0,38.1-5.3,171.22,171.22,0,0,0,33-13.4,163.16,163.16,0,0,0,27.2-18.2,184.22,184.22,0,0,0,20.4-19.6v-83Z"/><path d="m1194.9 2347.2h142.2l81.2 196.5q45.9 112.05 65 165.7h2.2q13.95-42 59.4-155.7l84-206.6h143.9l-349.4 803h-131l124.3-290.6"/></g><g fill="#7abebe"><path d="m2075.2 2599.7c-12.3 0-24.5-.2-36.4-.6s-23.2-1.1-33.6-2.2v292.9h-137.2v-749.2h216.1q54.3 0 94.9 4.8c27.1 3.2 51.2 7.9 72.5 14.3q76.65 23.55 118.2 75 41.4 51.6 41.4 131 0 54.3-22.4 97.7t-65.5 73.6q-43 30.3-105.3 46.5-62.1 16.2-142.7 16.2m-70-118.1c7.8 1.1 17.8 2 30 2.5s24.7.8 37.8.8c37 0 67.9-3 93-9s45.2-14.3 60.5-24.9 26.3-23.5 33-38.6a120.83 120.83 0 0 0 10.1 -49.6c0-22-5-41.1-15.1-57.1s-27.6-28.6-52.6-37.5c-13.1-4.5-29.2-7.7-48.4-9.8s-42.8-3.1-70.8-3.1h-77.3v226.3"/><path d="m2609.7 2065.7a82.62 82.62 0 0 1 82.6 82.6v5.3a82.62 82.62 0 0 1 -82.6 82.6 82.62 82.62 0 0 1 -82.6 -82.6v-5.3a82.43 82.43 0 0 1 82.6 -82.6m-66.4 281.5h132.7v542.6h-132.7"/><path d="M3104.4,2796.8a441,441,0,0,0,80.6-7.8,619.11,619.11,0,0,0,85.1-22.4v105.8q-25.8,11.25-79,21.3a593.06,593.06,0,0,1-110.3,10.1,399.47,399.47,0,0,1-109.5-14.8q-51.75-14.85-90.4-47.9t-61.3-85.7q-22.65-52.65-22.7-127.7,0-73.95,21.3-129.4t57.1-91.8a234,234,0,0,1,82-54.6,258.87,258.87,0,0,1,95.5-18.2c34.3,0,66,5.2,94.9,15.7a191.39,191.39,0,0,1,75,49.3q31.65,33.6,49.3,86.5t17.6,125.1c-.4,18.7-.9,34.5-1.7,47.6H2932.3q2.85,37.5,16.8,64.1a123.55,123.55,0,0,0,36.7,43.1c15.1,11,32.8,19,52.9,24.1Q3069.15,2796.85,3104.4,2796.8Zm-53.2-359.4c-16.8,0-31.7,3.1-44.8,9.2a105.79,105.79,0,0,0-33.9,25.2,123.8,123.8,0,0,0-22.7,37.2,180.8,180.8,0,0,0-11.2,45.4H3152a159.65,159.65,0,0,0-6.4-45.4,110.9,110.9,0,0,0-19-37.2,91.21,91.21,0,0,0-31.4-25.2C3082.6,2440.4,3068,2437.4,3051.2,2437.4Z"/></g></g></svg>