<svg enable-background="new 0 0 204.5 204.5" viewBox="0 0 204.5 204.5" xmlns="http://www.w3.org/2000/svg"><circle cx="102.3" cy="102.3" fill="#1d295b" r="102.3"/><path d="m170.6 83.6c-5.3-9.4-12.9-13.9-17.3-16.5-13.6-7.9-26.8-8.2-40.7-8.3-6.5 0-33.5.2-57.9 12 0 0-19.3 9.3-24.4 22.2v.1c-2.4 6.1-2.3 13 .3 19.1 1.8 4.4 5 9.2 10.5 12.3 2.7 1.5 5.3 2.3 7.6 2.7 1.6.3 2.8-1.6 1.8-2.9-1.1-1.6-2.2-3.5-3.2-5.6-.3-.6-.5-1.2-.8-1.8-.6-1.5-.3-3.3.9-4.5.5-.5 1-.9 1.6-1.4 2.2-1.7 5.3-3.2 16.7-3.9 1.9-.1 4.4-.2 7.3-.3 1.8 0 3.6 0 5.4.2 3.6.3 8.4.7 14 1.2 6.8.6 10.3 1 13.6 1.6 2.2.4 4.9 1 8 1.8 3.4.9 3.4 5.8-.1 6.7-1.8.5-3.8.9-5.8 1.4-2.3.5-9.7 2.2-17.5 3.5-21.9 3.6-31.4 1.5-32 4.1-.8 3.3 14.1 10.3 27.5 14.2 14.9 4.3 28 4.8 37 4.4 1.4 0 35.7.7 48.5-22.9 1.9-3.5 4.1-9 4.4-16.7.1-3.4.2-12.8-5.4-22.7zm-130.6 38.6c-4.1-2.7-5.8-6.5-6.4-8.1 1.4 1.9 3.5 4.3 6.4 6.6 2.4 1.9 4.6 3.2 6.5 4.1-1.5-.3-4-1-6.5-2.6zm8.1 1.4c-3.2-1.5-8.2-4.4-12.3-9.8-2-2.7-4.7-6.2-5.1-11.4-.5-6.3 2.5-11 4.5-14.2 3.8-5.9 8.7-9.2 11.8-10.9-1 .8-11.8 8.9-11.5 23.2.2 14.6 11.6 22.5 12.6 23.1zm-1.6-3.8c-1.8-1.8-4.3-4.7-6.4-8.8-.6-1.1-1-2.2-1.4-3.3-1.9-5.2-1.8-11 .1-16.2v-.1c4.4-12 14.9-17.6 18.4-19.5 9.3-5 18.2-5.4 22.9-5.2 11.3-.2 20.1 1.8 25.8 3.6 6.8 2.1 29.3 9.1 31.7 23.4.3 1.7.2 3.1.1 4-.2 2.1-.7 5.3-2.6 8.6-.7 1.2-1.4 2.1-2.1 2.9 0-.8 0-1.6-.2-2.3-3.1-12-36.5-12.6-45.1-12.6-1.1 0-2.2 0-2.2 0-3.9 0-9.7.1-17.4 1.3-7.1 1.1-10.7 1.6-14.1 3.2-2.6 1.2-8.3 3.8-9.8 8.5-.9 2.7-.5 5.4-.5 5.4.2.9.5 2 .8 3 .6 1.7 1.3 3.1 2 4.1zm71.5-2.7c.5-.9.7-1.7.7-2.2-.1-.4-.2-1-.5-1.7-1.7-3.5-6.5-4.5-9.7-5-10.1-1.7-21.1-2.4-24.9-2.6-7.5-.5-13.9-.4-18.9-.1-8.5.5-13.2 1.6-17.5 4.5-.9.6-1.6 1.2-2 1.5-.3-1.3-.2-2.4 0-3.4 3-12.1 39.4-12.1 42.4-12.1 6.5 0 41.3.5 43.5 10.9.1.6.2 1.3 0 2 .1.6.1 1.6-.2 2.6-.6 1.9-2.3 3-5.8 4.6-2.3 1-5.6 2.3-9.8 3.4.6-.3 1.9-.9 2.7-2.4zm-17.8 6.3c.8-.2 4.4-1.3 9.4-2 2.8-.4 4.4-.4 5.5-.5 5.2-.5 13.2-3.1 18.7-9.3 2.3-2.6 3.8-5.5 4.8-8 1.5-4.1 1.8-8.6.3-12.8v-.1c-.6-1.6-2.5-6.5-11.1-12.7-6.3-4.5-12.4-7-16.9-8.5-6.6-2.2-17.3-4.9-31.2-4.6 4.3-1.1 10.4-2.4 17.8-3.3 6.6-.8 12.6-1.1 18-1 26.8.7 48.1 9.7 53 24.7.7 2.3 1.2 4.9 1 8.1-.7 4.6-2.7 13.3-9.6 20.8-4.3 4.7-8.6 6.8-14.7 9.9-12.1 6.1-22.9 7.5-28.9 8.3-5.2.7-9.5.8-12.5.8-6.2.3-13.6.3-22-.8-8-1-14.9-2.7-20.6-4.5 25.7-2 35.3-3.4 39-4.5zm64 6.1c-3 3-6.1 4.7-8.7 6.2-8.3 4.7-16.1 6-22.3 6.9-3.1.5-7.6 1-13 1-5.8 0-12.5-.4-19.7-1.6-14.7-2.4-26.6-7-35.3-11.3 5.5 1.4 11.9 2.7 19.2 3.5 6.1.6 11.7.8 16.6.6 8 .1 33.7-.1 52.8-13 4.4-3 10.8-7.4 14.5-15.8 3-6.8 3-13.1 2.7-16.8 1 2.6 1.9 5.8 2.5 9.4.4 2.4.6 4.6.6 6.5-.2 5.5-1.7 16.3-9.9 24.4z" fill="#d6daff"/></svg>