<svg id="Layer_1" xmlns="http://www.w3.org/2000/svg" viewBox="0 0 33 43" width="1919" height="2500"><style>.st0{opacity:.25;enable-background:new}.st0,.st1{fill:#2d1b52}</style><path class="st0" d="M16.5 43c-.7 0-1.4-.1-2.1-.3-1.3-.4-2.5-1-4.6-3.2l-6.3-6.3C1.4 31.1.7 29.9.3 28.6a7.5 7.5 0 0 1 0-4.2c.4-1.3 1-2.5 3.2-4.6l6.3-6.3c2.1-2.1 3.3-2.8 4.6-3.2 1.4-.4 2.8-.4 4.2 0 1.3.4 2.5 1 4.6 3.2l6.3 6.3c2.1 2.1 2.8 3.3 3.2 4.6.4 1.4.4 2.8 0 4.2-.4 1.3-1 2.5-3.2 4.6l-6.3 6.3c-2.1 2.1-3.3 2.8-4.6 3.2-.7.2-1.4.3-2.1.3zm0-30c-.4 0-.8.1-1.2.2-.8.2-1.5.5-3.3 2.4l-6.3 6.3c-1.9 1.9-2.2 2.6-2.4 3.3-.2.8-.2 1.6 0 2.5.2.8.5 1.5 2.4 3.3l6.3 6.3c1.9 1.9 2.6 2.2 3.3 2.4.8.2 1.6.2 2.5 0 .8-.2 1.5-.5 3.3-2.4l6.3-6.3c1.9-1.9 2.2-2.6 2.4-3.3.2-.8.2-1.6 0-2.5-.2-.8-.5-1.5-2.4-3.3l-6.3-6.3c-1.9-1.9-2.6-2.2-3.3-2.4-.5-.1-.9-.2-1.3-.2z"/><path class="st1" d="M16.5 33c-.7 0-1.4-.1-2.1-.3-1.3-.4-2.5-1-4.6-3.2l-6.3-6.3C1.4 21.1.7 19.9.3 18.6a7.5 7.5 0 0 1 0-4.2c.4-1.3 1-2.5 3.2-4.6l6.3-6.3C11.9 1.4 13.1.7 14.4.3c1.4-.4 2.8-.4 4.2 0 1.3.4 2.5 1 4.6 3.2l6.3 6.3c2.1 2.1 2.8 3.3 3.2 4.6.4 1.4.4 2.8 0 4.2-.4 1.3-1 2.5-3.2 4.6l-6.3 6.3c-2.1 2.1-3.3 2.8-4.6 3.2-.7.2-1.4.3-2.1.3zm0-30c-.4 0-.8.1-1.2.2-.8.2-1.5.5-3.3 2.4l-6.3 6.3c-1.9 1.9-2.2 2.6-2.4 3.3-.2.8-.2 1.6 0 2.5.2.8.5 1.5 2.4 3.3l6.3 6.3c1.9 1.9 2.6 2.2 3.3 2.4.8.2 1.6.2 2.5 0 .8-.2 1.5-.5 3.3-2.4l6.3-6.3c1.9-1.9 2.2-2.6 2.4-3.3.2-.8.2-1.6 0-2.5-.2-.8-.5-1.5-2.4-3.3l-6.3-6.3c-1.9-1.9-2.6-2.2-3.3-2.4-.5-.1-.9-.2-1.3-.2z"/></svg>