<svg enable-background="new 0 0 42.8 42.8" viewBox="0 0 42.8 42.8" xmlns="http://www.w3.org/2000/svg"><circle cx="21.4" cy="21.4" fill="#dcc857" r="21.4"/><path d="m33 16.2c0-.5.2-3.8-2.4-6.4-2.5-2.6-5.8-2.5-6.3-2.5-.6 0-4-.1-6.7 2.6-2.9 2.9-2.7 6.6-2.7 7.1v4.9h-4v2.9h4v2.2h-4v2.9h4v6.1h4.1v-6.1h7v-2.9h-7v-2.1h5.8c1.6 0 3.3-.4 4.7-1.3.6-.4 1.3-1 1.8-1.7 1.9-2.4 1.7-5.1 1.7-5.7zm-4.3 3c-1.1 1.8-3.1 2.7-5.1 2.7h-4.6v-6c0-2.2 1.3-4.4 3.4-5.1.7-.3 1.5-.4 2.3-.3 2.8.3 4.7 2.9 4.8 5.5.1 1.1-.2 2.2-.8 3.2z" fill="#333"/></svg>