<svg xmlns="http://www.w3.org/2000/svg" width="1718" height="2000" viewBox="0 0 1718 2000"><g transform="translate(-162)"><g fill="#00cd8d"><path d="m1016.6 0c288.78 164.14 574.62 333.72 863.4 498q-.13 502 0 1003.93c-288.69 163.71-573.59 334.24-862.28 498l.43-5.27c6.48-106.17 1.38-212.6 2.76-318.86 192.92-114.9 388.26-225.82 582.14-339.25-.09-224.27.35-448.53-.26-672.8-194-113.17-387.66-226.86-583-337.52l.09-3.11c.26-105.48 5.35-211.39-2.59-316.62"/><path d="m1021.43 631.07l-.09-3.2c107.17 63.76 216.07 124.57 323.06 188.59-.6 122.33-.95 244.65.17 367-106.65 64.53-216.33 124.06-322.89 188.85l.09-3c-.08-246.16.61-492.2-.34-738.24"/></g><g fill="#00a56c"><path d="m163.73 500.54c285.07-163.79 568.67-330.09 853.56-494 7.94 105.22 2.85 211.14 2.59 316.62-191.88 115.27-387.23 224.89-580.07 338.58q-.13 498.64 0 997.37c-92.4-54.34-185.58-107.21-277.81-161.81 2.5-332.3 0-664.51 1.73-996.76"/><path d="m702.69 815.69c106-61.85 211.84-124.14 318.75-184.61.95 246 .26 492.07.35 738.2-107.08-60.21-212.53-123.1-318.92-184.44-.01-123.03.33-246.13-.18-369.15"/><path d="m696 1492.89c8-4.49 14.94 4.49 22.11 7.26q150.78 88.77 302.77 175.72c-1.38 106.26 3.71 212.69-2.76 318.86-107.26-62.81-215-124.75-322.29-187.55.17-104.79-.23-209.5.17-314.29"/></g></g></svg>