<svg enable-background="new 0 0 227 219.8" viewBox="0 0 227 219.8" xmlns="http://www.w3.org/2000/svg"><path d="m221.7 118.4-7.9-8.3c.3-17.5-4.8-34.8-14.6-50.1 3.1-11.2 9-33.6 8-39.8-1.2-8.3-9.9-21.9-30.5-20-14.2 1.3-26.7 10.1-33.2 15.6-26.8-10.8-51.6-10.2-72-5-6.9-4.4-18.9-10.2-27.7-4-8 5.7-10.6 15.4-11.4 22 0 0 0 0-.1 0 0 0-32.3 19.7-32.3 68.7 0 27.5 9.4 47.7 23.1 62.8.4 6.1 1.8 13.6 6.1 16.4 3.8 2.4 10 2.5 15.3 1.9 5.1 3.4 10.4 6.5 15.8 9.2 9.4 4.8 21.3 9.5 34.4 12.3 5.7 7.8 16.3 19.9 27.8 19.7 12.3-.2 21.6-12.6 26.1-22 13.6-4.6 27-12.8 39.2-26 8 4.7 21.8-3.1 31.1-17.6 9.6-14.7 10.8-30.7 2.8-35.8zm-97.3-86.2s-17.1-10.8-33.6-12.7c-16.4-1.9-29 .5-33.3.5l8.4-3.3s11.4-5.1 37.3-1.5c22.3 3.1 31.6 11.1 31.6 11.1s-10.4 5.9-10.4 5.9zm50.1 73.8c-3.7.1-6.9-5.5-7.2-12.5-.3-7.1 2.5-12.9 6.2-13.1 3.7-.1 6.9 5.5 7.2 12.6.3 7-2.5 12.9-6.2 13zm18.1-10.1c-3.1.1-5.8-4.6-6.1-10.6-.2-6 2.1-11 5.2-11.1s5.8 4.6 6.1 10.6c.3 6.1-2.1 11-5.2 11.1zm14.7 53.8c-.6 5.3-3.1 9.3-5.8 9.1-2.6-.3-4.3-4.8-3.7-10 .6-5.3 3.1-9.3 5.8-9 2.6.2 4.3 4.7 3.7 9.9zm12.7-12c-.5 4.8-2.8 8.5-5.1 8.3s-3.7-4.3-3.2-9.1 2.8-8.5 5.1-8.3 3.7 4.3 3.2 9.1z" fill="#f59ba0"/></svg>