<svg enable-background="new 0 0 32 32" viewBox="0 0 32 32" xmlns="http://www.w3.org/2000/svg"><g clip-rule="evenodd" fill-rule="evenodd"><circle cx="16" cy="16" fill="#ed79aa" r="16"/><g fill="#fff"><path d="m23.5 8.9-1.9 1.9c-1.4-1.4-3.2-2.2-5.2-2.1-3.9 0-7.1 3.1-7.3 7v7.1c-1.7-1.9-2.6-4.3-2.6-6.8 0-5.5 4.4-10 9.9-10 2.7 0 5.2 1.1 7.1 2.9zm0 14.2c-1.8 1.8-4.3 2.9-6.9 2.9v-2.7c1.9 0 3.7-.8 5-2.1z" opacity=".5"/><path d="m11.7 24.8v-9.1c.1-2.6 2.3-4.7 4.9-4.7 2.7 0 4.9 2.2 4.9 4.9s-2.2 4.9-4.9 4.9c-.9 0-1.7-.2-2.5-.7v5.5c-.8-.1-1.7-.4-2.4-.8zm4.9-6.4c1.4 0 2.5-1.1 2.5-2.5 0-1.4-1.1-2.5-2.5-2.5s-2.5 1.1-2.5 2.5c0 1.4 1.1 2.5 2.5 2.5z"/></g></g></svg>