<svg enable-background="new 0 0 32 32" viewBox="0 0 32 32" xmlns="http://www.w3.org/2000/svg"><circle clip-rule="evenodd" cx="16" cy="16" fill="#96b73d" fill-rule="evenodd" r="16"/><path d="m11.6 16.1c.1.3.2.5.4.7l-2.5-2.5c-.5-.5-.5-1.4 0-2l3.1-3.1c.1 0 .1-.1.2-.2h.1l2.5-2.5c.5-.5 1.4-.5 1.9 0l8.3 8.4c.4.6.3 1.3-.2 1.8s-1.2.6-1.8.2l-7.4-7.4-3.9 3.9-.1.1 3.9 3.9c.5.5.5 1.4 0 2-.2.2-.4.3-.6.4-.5.1-1 0-1.3-.4l-2-2s-.1-.1-.1-.1l.1-.3c-.1 0-.2-.1-.2-.2v.1c-.2-.3-.3-.5-.4-.8zm8.1 2.6-3.9-3.9c-.5-.5-.5-1.4 0-2 .5-.5 1.4-.5 1.9 0l2 2s.1.1.1.1l.2.1c.1.1.1.1.1.2s-.1-.1-.1-.1l2.6 2.6c.5.5.5 1.4 0 2l-3.1 3.1c-.1 0-.1.1-.2.2l-2.6 2.6c-.5.5-1.4.5-1.9 0l-8.5-8.6c-.4-.6-.3-1.4.2-1.9s1.3-.5 1.9 0l7.4 7.5z" fill="#fff"/></svg>