<svg enable-background="new 0 0 800 1018.4" viewBox="0 0 800 1018.4" xmlns="http://www.w3.org/2000/svg" xmlns:xlink="http://www.w3.org/1999/xlink"><linearGradient id="a" gradientTransform="matrix(800 0 0 -1018.3738 225518 909623.8125)" gradientUnits="userSpaceOnUse" x1="-281.9023" x2="-280.9023" y1="893.0754" y2="892.3557"><stop offset="0" stop-color="#506075"/><stop offset=".5016" stop-color="#00d7af"/><stop offset="1" stop-color="#506075"/></linearGradient><path d="m260.3 561.4c-5.7 3.3-10.4 11.2-10.4 17.7-.1 41.7.1 82.9.1 124.4 0 27.4-19.6 38.6-43.7 25-81-45.9-145-82.3-191.9-109.2-7.9-4.5-14.4-15.7-14.4-24.8v-170.2c2.6 1.5 5.2 2.9 7.8 4.4l-7.8-4.4v-269.6c0-9.1 6.5-20.3 14.5-24.9l220.8-126.3c8-4.6 21.2-4.6 29.3 0l220.8 126.4c8 4.6 14.5 15.8 14.5 24.9v253c0 9.1-6.5 20.3-14.5 24.9-75.1 42.9-150.1 85.8-225.1 128.7zm289.8-122.2c.1-41.7-.1-82.9-.1-124.4 0-27.4 19.6-38.6 43.7-25 81 45.9 145 82.3 191.9 109.2 8 4.6 14.5 15.8 14.5 24.9v170.1c-2.6-1.5-5.2-2.9-7.8-4.4l7.8 4.4v269.6c0 9.1-6.5 20.3-14.5 24.9l-220.8 126.4c-8 4.6-21.2 4.6-29.3 0l-220.9-126.4c-8-4.6-14.5-15.8-14.5-24.9v-253c0-9.1 6.5-20.3 14.5-24.9 75-42.9 150.1-85.9 225.1-128.8 5.7-3.2 10.4-11.2 10.4-17.7z" fill="url(#a)"/></svg>