<svg enable-background="new 0 0 142 88.9" viewBox="0 0 142 88.9" xmlns="http://www.w3.org/2000/svg"><g><path d="m142 9.1-.3-4.8-1.4 4-7.9 7-9.1 1.4-2.7-2.6 7.9-11.1 8.2-2.5-8.8.2-12.8 9.4-12-.9 12 8.4 6 4.2-18.1-12.9-16.8-8.4-9.9 2-31.1 26.2-14.9 4.8-6.2 6.4-11 .1-5.4 10.3-7.7 2.2 7.2 1.1 6.8-9.2 10.3 2.1-.1 9.9-5.2 14.1-3 13.1-3.2 5.3 8.1-1.8-.9-5.4 6.9-14.4 13.3-5.4 5.1-8.6 8.7-6.4 17.2 2.6 17.4-7.8-3 12.2-7.7.7-2.2 10.1 6.6-4.5 10.9-4.8 8.6-13.6.5-6.5 4.7 4.9 13.3 8.4 7.6-3.6-.5-17.9-2.1-7 9.9-2.5z" fill="#313a62"/><path d="m120.7 14.1-5.8-4.3 13.6-6.9z" fill="#3f4b80"/><path d="m86 0 17 8.8 2 14.3z" fill="#313a62"/><path d="m105 23.1-2.7 12.1-16.3-35.2z" fill="#3f4b80"/><path d="m102.3 35.2-26-33.2 9.7-1.9z" fill="#4b5897"/><path d="m102.3 35.2-28.2-11.1 2.2-22.1z" fill="#5161a4"/><path d="m76.3 2-2.2 22.1-29.1 4.1z" fill="#4b5897"/><path d="m102.3 35.2-31.1 8.6 2.9-19.7z" fill="#4b5897"/><path d="m71.2 43.8 31.1-8.6-14 6.6z" fill="#3f4b80"/><path d="m54 46.7 17.2-2.9.3 5.9z" fill="#3f4b80"/><path d="m71.5 49.7-.3-5.9 17.1-2z" fill="#313a62"/><path d="m45 28.2 29.1-4.1-2.9 19.7z" fill="#3f4b80"/><path d="m45 28.2 26.2 15.6-17.2 2.9z" fill="#4b5897"/><path d="m45 28.2 9 18.5-8.7 6.4z" fill="#313a62"/><path d="m30.2 33.2 3.5 21.1-9.6-14.5z" fill="#5161a4"/><path d="m13.1 39.9 11-.1.1 6.8z" fill="#313a62"/><path d="m14 44.5-.9-4.6 11.1 6.7z" fill="#3f4b80"/><path d="m14 44.5-6.3 5.6 5.4-10.2z" fill="#4b5897"/><path d="m7.7 50.1-.5 3.5-7.2-1.2z" fill="#313a62"/><path d="m7.7 50.1 6.3-5.6-6.8 9.1z" fill="#5161a4"/><path d="m24.1 39.8 9.6 14.5-9.5 1.9z" fill="#3f4b80"/><path d="m26.9 67-6.9 14.5-1-11.1z" fill="#3f4b80"/><path d="m19 70.4 1 11.1-4 2z" fill="#1f243e"/><path d="m20 81.5 1.1 5.5-8.3 1.7z" fill="#3f4b80"/><path d="m16 83.5 4-2-7.2 7.2z" fill="#313a62"/><path d="m24.2 56.2 9.5-1.9-14.7 16.1z" fill="#313a62"/><path d="m33.7 54.3 6.5 7.5-21.2 8.6z" fill="#4b5897"/><path d="m30.2 33.2 14.8-5-11.3 26.1z" fill="#4b5897"/><path d="m33.7 54.3 11.3-26.1.3 24.9z" fill="#3f4b80"/><path d="m40.2 61.8-6.5-7.5 11.6-1.2z" fill="#313a62"/><path d="m88.3 41.8 13.7-.1-8.8 13.5z" fill="#4b5897"/><path d="m88.3 41.8 14-6.6-.3 6.5z" fill="#5161a4"/><path d="m85.6 53.8 2.7-12 4.9 13.4z" fill="#3f4b80"/><path d="m82.3 60 3.3-6.2 7.6 1.4z" fill="#4b5897"/><path d="m75.7 64.5 2.1-10.3 7.8-.4z" fill="#3f4b80"/><path d="m75.7 64.5 9.9-10.7-3.3 6.2z" fill="#313a62"/><path d="m114.9 9.8 13-9.2.6 2.3z" fill="#495692"/><path d="m127.9.6 10.7-.5-10.1 2.8z" fill="#5d6cac"/><path d="m121.1 21.7-6-4.3 20.1.1z" fill="#4f60a3"/><path d="m115.1 17.4 17.3-2.2 2.8 2.3z" fill="#495692"/><path d="m132.4 15.2 7.9-7-5.1 9.3z" fill="#3f4b80"/><path d="m135.2 17.5 5.1-9.3 1.7.8z" fill="#4f60a3"/><path d="m140.3 8.2 1.4-4 .3 4.8z" fill="#313a62"/><path d="m105 23.1 2 16.9-4.7-4.8z" fill="#313a62"/><path d="m107 40-2-16.9 16.1-1.4z" fill="#3f4b80"/><path d="m121.1 21.7-16.1 1.4-2-14.3z" fill="#4b5897"/><path d="m120.7 14.1 2.6 2.4-8.2.9z" fill="#313a62"/><path d="m103 8.8 17.7 5.3-5.6 3.3z" fill="#3f4b80"/><path d="m103 8.8 11.9 1 5.8 4.3z" fill="#313a62"/><path d="m120.3 48.5.8-26.8 6.3 5.2z" fill="#3f4b80"/><path d="m120.3 48.5.8-26.8-14.1 18.3z" fill="#495692"/><g fill="#313a62"><path d="m127.4 26.9-2-6.7-4.3 1.5z"/><path d="m128.3 44.8-8 3.7 7.1-21.6z"/></g></g></svg>