<svg enable-background="new 0 0 281.3 195.3" viewBox="0 0 281.3 195.3" xmlns="http://www.w3.org/2000/svg" xmlns:xlink="http://www.w3.org/1999/xlink"><linearGradient id="a" gradientUnits="userSpaceOnUse" x1="0" x2="281.2737" y1="97.6668" y2="97.6668"><stop offset="0" stop-color="#8e82fa"/><stop offset="1" stop-color="#77bff9"/></linearGradient><path d="m281.2 62.9c.3-6.6 0-23.3-11.5-38.7-17.6-23.8-46.4-24.2-49.7-24.2h-156v20.7h26v29h11.5l-15.4 14.2h-26.4l-10-14.8v-21.4h-22.8v19.7l-14 13.6h-12.9v15.8h16.8v-12.9l11.7-12h19.3l8 12h-3.9v37h37.9v-34.1l17.6-17.1h109.7c4.1 0 8.1 1.5 10.9 4.5.2.2.4.4.6.7 3.3 3.9 3.7 8.2 3.8 9.5v16.3c0 3.9-1.5 7.7-4.4 10.4-.2.2-.5.4-.7.6-3.7 3-7.7 3.1-8.9 3.1h-68.4v23.7h-21l-12.3-13.3v-12.5h-14.8v13.8h10.7l13.8 14.5v19.7h-20.4v54.7h20.3 9.7 29v-48h53.3c3.6 0 32.3-.7 50.3-24.5 12.4-16.4 12.6-34.2 12.4-39.8v-16.6c.1-1.2.2-2.4.2-3.6zm-152.1-33.5h-18.2v-18.2h18.2z" fill="url(#a)"/></svg>