<svg viewBox="0 0 320 320" xmlns="http://www.w3.org/2000/svg"><circle fill="#2d598a" cx="160" cy="160" r="160"/><path fill="white" d="M163.87 98.53L163.87 98.53Q180.97 98.53 193.57 104.20L193.57 104.20L193.57 104.20Q206.17 109.87 213.01 120.40L213.01 120.40L213.01 120.40Q219.85 130.93 219.85 145.15L219.85 145.15L219.85 145.15Q219.85 159.37 213.01 169.81L213.01 169.81L213.01 169.81Q206.17 180.25 193.57 185.92L193.57 185.92L193.57 185.92Q180.97 191.59 163.87 191.59L163.87 191.59L141.91 191.59L141.91 224.53L106.27 224.53L106.27 98.53L163.87 98.53ZM161.71 163.51L161.71 163.51Q172.69 163.51 178.27 158.74L178.27 158.74L178.27 158.74Q183.85 153.97 183.85 145.15L183.85 145.15L183.85 145.15Q183.85 136.33 178.27 131.47L178.27 131.47L178.27 131.47Q172.69 126.61 161.71 126.61L161.71 126.61L141.91 126.61L141.91 163.51L161.71 163.51Z"/></svg>