<svg enable-background="new 0 0 180.1 189.1" viewBox="0 0 180.1 189.1" xmlns="http://www.w3.org/2000/svg"><path d="m125.5 54.6c.6.3 4.8 2.2 5.3 5.9.3 1.8-.5 3.5-1.3 5.3-.7 1.7-1.7 3.2-2.5 4.2-4.1 4.6-12.3 3.9-13.1 3.8h-20.3-47.1l-26.4 115.3h48l13.6-61.3h32.2c4.7-.1 33.8-.9 48.7-22.5 3.2-4.6 5.2-9.4 6.4-13.9 1-12.3 2-24.6 3.1-36.9h-46.6z" fill="#500769"/><path d="m125.5 54.6c.4.1 3.8 1.3 5 4.9.9 2.7.2 5.7-1.8 7.9 4.1-.2 11.9 0 20.5 4.1 12.5 6 18.1 16.4 19.9 19.9 1-12.3 2-24.6 3.1-36.9h-46.7z" fill="#42065a"/><path d="m125.5 54.6h-81.9c-4.5.1-16.7-.3-27.4-8.8-13-10.2-18.7-27.9-15.1-45.8h124.4c3.1-.1 36.8-.6 49.2 20.9 4.3 7.5 5 15.9 5.3 19.9.9 11.2-1.8 20.8-6.6 37.3-1.6 5.6-3.2 10.1-4.3 13.3-.2-4.5-1.2-9.7-3.8-14.9-10.5-20.2-37.6-21.8-39.8-21.9z" fill="#60097d"/></svg>