<svg enable-background="new 0 0 200 200" viewBox="0 0 200 200" xmlns="http://www.w3.org/2000/svg"><circle cx="100.5" cy="100.5" fill="#008ace" r="99.5"/><g fill="#fff"><path d="m73.5 48.5c12.3-5.7 24.7-11.3 37-17 .8-.4 1.8-.8 3-1 3.2-.6 6.3-1 7.5-.5-.1-.6.5-.5-1-2-.4-.4-2.8-2.7-5-3-1.6-.5-4.5-.6-7.5-.5-2.5.1-4.5.5-6 1-12 5.3-24 10.7-36 16-1.9 1.6-4.6 4.2-7 8-2.4 3.9-3.5 7.6-4 10 .2 32.8.3 65.7.5 98.5l10 5v-101c.4-1.7 1.1-4 2.5-6.5 2-3.5 4.4-5.7 6-7z"/><path d="m128.5 40.5c.5-.3 2-1.2 4-1 1.4.1 2.5.7 3 1-.3-.7-.9-1.9-2-3-.5-.5-1.5-1.4-3-2-1.5-.8-3.9-1.8-7-2-3.3-.2-5.8.4-7 1-13 6-26 12-39 18-1.4.8-4.1 2.6-6 6-1.4 2.4-1.8 4.6-2 6v100l10 5v-101c0-1 .2-2.4 1-4 1.8-3.5 5.2-4.7 6-5 14-6.3 28-12.7 42-19z"/><path d="m148.5 47.5c-6.6-5.7-14.9-4.2-16-4-13.7 6.3-27.3 12.7-41 19-1.1.7-3.3 2.2-5 5-1.5 2.4-1.9 4.7-2 6v98l10-5v-32c16.3-8 32.7-16 49-24 1.6-.8 5.3-2.7 8-7 2.4-3.7 2.9-7.2 3-9 0-12.3 0-24.7 0-37-.4-1.8-1.7-6.4-6-10zm-3 46c-.3 1.3-1.1 3.7-3 6-1.8 2.2-3.8 3.4-5 4-14.3 6.7-28.7 13.3-43 20v-42.9c0-.1 0-.1 0-.1-.2-1-.4-4.3 0-5.9 1.1-4.2 5.5-5.8 6-6 11.3-5.3 22.7-10.7 34-16 3.4-1 6.9-.2 9 2 1.4 1.4 1.8 3.1 2 4z"/><path d="m123.5 86.5c1.9-2.5 2-5.1 2-6 0-6.3 0-12.7 0-19l-9 5v12c0 .2.2 1.8-1 3-.8.8-1.7.9-2 1-5 2-10 4-15 6v11l21-10c.8-.3 2.6-1.2 4-3z"/><path d="m135.5 57.5c-1.7.7-3.3 1.3-5 2v25c-.2 1.1-.6 3-2 5-1 1.5-2.2 2.4-3 3-9 4.3-18 8.7-27 13v11l35-17c1-.6 2.6-1.9 4-4 1.3-2 1.8-3.9 2-5 0-10.7 0-21.3 0-32-.3-.3-1-.8-2-1-.9-.2-1.6-.1-2 0z"/></g></svg>