<svg enable-background="new 0 0 398.2 398.2" viewBox="0 0 398.2 398.2" xmlns="http://www.w3.org/2000/svg"><g fill="#5a63bd"><path d="m199.1 0c-110 0-199.1 89.1-199.1 199.1s89.1 199.1 199.1 199.1 199.1-89.2 199.1-199.1-89.2-199.1-199.1-199.1zm93.4 204c-2.5 4.7-10.4 18.9-26.5 31.3-19.6 15.2-39.9 19.1-49.8 20.3h-13.7c-.4 14.3-.1 26.4.3 35.7 1.1 23.6 3.2 33.5 4.8 39.7s3.4 11.2 4.7 14.5c-8.6 4.2-16 6.1-21.2 7.2-9.3 1.9-12.5.9-14.6-.3-4.6-2.6-6.4-7.4-7.1-9.7.8-30.6 1.6-61.2 2.3-91.8-2.7-.6-6.4-1.6-10.3-3.7-4.4-2.3-7.6-4.9-9.7-7-.9 19.3-1.3 36.3-.7 47.7.5 9.7 1.3 18.2 4.1 28.5 1.7 6.2 3.7 11.3 5.2 14.8-3.4 2.5-6.6 4.2-9 5.2-6.5 2.9-11.9 3.5-13.4 3.6-3.8.4-6.4.6-9.5-.3-5.8-1.8-9.2-6.4-10.5-8.5.2-33.9 1.2-61.6 2-81 .7-16.9 3.9-84.9 1.7-124-.8-14.8-2.5-27.2-4.4-37.5-1.6-8.8-3.3-16-4.5-20.7 15-5.5 29.4-2.4 35.2 6.2 1.2 1.8 3.2 5.5 2.8 11.8 4.8-3.4 44.7-31 90.5-16.2 6.8 2.2 35.4 12 51.3 40.7 10 18.1 10.3 35.5 10.5 44.7.5 8.4.6 27.7-10.5 48.8z"/><path d="m170 101.5c-1.8.8-3.7 1.8-5.7 2.8-4.3 2.3-8.1 4.8-11.3 7.2v101.3c2 1.9 5 4.4 9 6.5 4.3 2.3 8.3 3.4 11.2 4 .2-8.3.5-20.2.7-34.7.3-18.7.4-28.1.2-37.3-.4-12-1.3-29.1-4.1-49.8z"/><path d="m251 109.5c-20.2-19.1-45-17.5-48.8-17.2 1.9 25.3 2.4 46 2.5 60.8.1 9.3 0 17.8-.2 28.2-.2 20.1-.7 36.7-1 48.3 5.7-.1 27.2-1.4 45.3-18.2 23.1-21.3 22.2-50.4 22-54.7.1-3.8.2-28.3-19.8-47.2z"/></g></svg>