<svg xmlns="http://www.w3.org/2000/svg" viewBox="0 0 640 640"><path d="m0 0h640v640h-640z"/><path d="M545.06 331a.27 .27 0 0 0 0 -.26l-49.3-49.3V142h-.21v-.21H389.71v.11h-.1V175.8L312.84 99 120.92 290.87l-.08.13a.19 .19 0 0 0 -.13 .17V523h374V381.86l50.58-50.58M197.71 497h-51V301.86L312.8 135.76l72.29 72.29a190.45 190.45 0 0 1 4.52 32v7.58h.22c.3 92-86.71 156.13-164.12 147.31-9.4-1.07-17.5-3.06-28-5.9V497M468.77 371a.26 .26 0 0 0 -.08 .19V497h-245V423.72c3.06.17 6.2.25 9.5.25 100.79 0 182.5-76.33 182.5-170.5 0-1.95 0-3.88-.11-5.81v-79.9h54.1V292a.27 .27 0 0 0 0 .34l38.86 38.86" fill="#2cace2"/></svg>