<svg enable-background="new 0 0 267.1 274.1" viewBox="0 0 267.1 274.1" xmlns="http://www.w3.org/2000/svg"><path d="m72.3 95.9c15.3-13.1 30.3-24.4 44.4-34.3 3.7-2.6 4.9-7.6 2.7-11.6-4.3-7.6-9.3-15.6-15.1-23.9-5.6-8.1-12.2-15.5-18.1-22.2-39.4 6.6-69.3 19.9-85.9 28.5-.6 11.5-.6 27.6 2 46.5 1.2 8.9 5.2 34.8 18.9 66.7 14.3-15.9 31.3-32.8 51.1-49.7z" fill="#f4a401"/><path d="m155.9 34.4c1.9 2.1 4.9 2.8 7.6 1.9 6.2-2.1 14.6-4.5 24.6-6.4 16.8-3.2 30.2-3.4 50.5-3.5 5.2 0 11.7.7 19.2 1.5-24.7-11.6-64.9-26.3-116-27.7-9.3-.3-18.2 0-26.8.5 7 4.4 14.7 9.9 22.6 16.5 7 5.8 13.1 11.7 18.3 17.2z" fill="#ef5f00"/><path d="m150.1 100.9c-3.3-4.6-9.4-6.1-14.5-3.8-17.5 8-38.8 18.6-60.2 31.3-14 8.3-23.4 14.7-32.3 21.5-5.5 4.2-10.3 8.2-14.4 11.8 6.5 12.9 14.6 26.4 24.6 39.9 27.4 36.9 58.6 59.5 80.2 72.5 20.1-11.8 50.3-33 77.4-68.2-7.6-17-16.3-35.8-27.2-54.2-11.2-18.8-22.6-35.8-33.6-50.8z" fill="#2eb5a9"/><path d="m193 67.7c-5.5 3.8-7.5 11.1-4.6 17.2 3 6.1 6.5 13.4 9.6 22.2 14.4 40.5 18.1 53.6 19.5 58.8 1.6 5.8 3.6 13.4 5.6 22.7 12.3-19.1 28.5-49.6 37.4-89.7 5-22.3 6.4-42.1 6.6-57.7-9.1.6-20.2 2.2-32.3 5.9-16.9 5.2-31.4 13.4-41.8 20.6z" fill="#62aee0"/></svg>