<svg xmlns="http://www.w3.org/2000/svg" viewBox="0 0 268 268"><path d="m0 0h268v268h-268z"/><g fill="#fff"><path d="M39.6,111.86H20.85v53.33h8.83V156H39.6a22.08,22.08,0,0,0,22.08-22.09h0A22.08,22.08,0,0,0,39.6,111.86Zm12.75,22.21a14,14,0,0,1-14,14H29.93V120h8.38a14,14,0,0,1,14,14Z"/><path d="m100.85 111.89v33.68a13 13 0 0 1 -13 13 13 13 0 0 1 -13 -13v-33.68h-8.08v34.18a21.12 21.12 0 0 0 21.12 21.12 21.13 21.13 0 0 0 21.11 -21.12v-34.18"/><path d="m125.1 126.14l32.75 39.05h8v-53.3h-7.96v39.76l-32.18-39.76h-8.74v53.3h8.13v-39.05"/><path d="m226.85 111.89h8.13v53.31h-8.13z"/><path d="m194.82 111.89h-17.35v53.3h17.35a26.65 26.65 0 1 0 0 -53.3m17.78 28a17.23 17.23 0 0 1 -17.23 17.23h-9.44v-36.76h9.44a17.22 17.22 0 0 1 17.23 17.23"/></g><g fill="#f4cf00"><path transform="matrix(.70711-.70711.70711.70711-9.44 188.89)" d="m216.88 103.23h12.82v5.21h-12.82z"/><path transform="matrix(.70711.70711-.70711.70711 129.37-131.39)" d="m216.88 87.86h12.82v5.21h-12.82z"/><path transform="matrix(-.70711.70711-.70711-.70711 471.39-14.33)" d="m232.25 87.86h12.82v5.21h-12.82z"/><path transform="matrix(-.70711-.70711.70711-.70711 332.58 349.44)" d="m232.25 103.23h12.82v5.21h-12.82z"/><path transform="matrix(-.70711-.70711.70711-.70711 324.83 330.73)" d="m228.31 95.48h5.21v5.21h-5.21z"/></g></svg>