<svg xmlns="http://www.w3.org/2000/svg" viewBox="0 0 2000 1735" enable-background="new 0 0 2000 1735"><path d="m1995 1694.5l-.7-1-344.6-311.5 163.9-506.5.5-1.5v-13.1l-167.7-521.5c-.2-1.4-.7-2.8-1.5-4.1v-1.3l-4.5-4.5c-1.3-2.6-3.4-4.5-6.1-5.5l-441.6-322.1-2.6-1.9h-558c-3.3 0-4 .5-11 5.5-3.3 2.4-8.2 5.9-14.4 10.3-11.7 8.4-28.8 20.7-50.9 36.6-37.2 26.8-89 64.2-154 111.1-110.6 79.9-222.5 160.8-223.6 161.6l-.6.5-8.5 8.5v5.9l-168.6 519.4-.5 1.5v13.2l169.2 520.9v.1c-.1 3.6 1.2 7 3.7 9.5l4.7 4.7 440.4 318.6c1.8 3.1 5 5.1 8.5 5.4 2 1.1 4.3 1.7 6.6 1.7h553.6l2-2c1.2-.3 2.4-.7 3.4-1.4h.4l428.3-310.4 339 307.7c2.2 2.1 4.9 3.7 7.8 4.7 5.9 1.8 12.1 1.8 18 0 3.9-1.4 7.2-4.1 9.2-7.8 3.5-4.2 5.3-9.5 5.1-15 .1-5.8-1.6-11.5-4.9-16.3m-379.7-850.3l22.9-370.8 118.8 370.8h-141.7m141.8 46.6l-118.8 370.8-22.9-370.8h141.7m-1323.5 420.2l142.5 329.5-337-244.9 194.5-84.6m517.3-932l224.5-307.5 153.8 355.1-378.3-47.6m429.5 45l-142.5-329.6 337 244.9-194.5 84.7m22.1 42.9l193.1-84.7-24.1 394.2-.2 4.3-168.8-313.8m-1159.7 313.8l-.2-4.1-24.1-394.3 114.1 50.4 79 34.3-168.8 313.7m890.2-732.4l-225.2 308.3-226.6-308.3h451.8m418.3 842.5l-180.5 334.9-98.9-211.6-55.6-123.3h335m-334.8-46.6l154.4-334.8 180.4 334.8h-334.8m-264.9-416.7l382.2 47.8-157.2 340.6-225-388.4m46.9 800.1l178.1-308.5 157.2 340.5-382.1 47.8 46.8-79.8m-321.4-383.4l230.7-399 113.8 199.4 115.4 199.6h-459.9m459.9 46.6l-229.2 399.1-115.4-199.5-115.3-199.6h459.9m-316.5-390l-181.4 315-157.2-340.5 380.7-47.8-42.1 73.3m42 806.7l-380.7-47.8 118.3-257.4 38.8-83.2 223.6 388.4m-598.1-463.3l180.4-334.7 98.9 216.4 55.4 118.3h-334.7m334.8 46.6l-154.4 334.8-180.4-334.8h334.8m972.2 63.2v1l24.2 397.7-114.1-50.4-79-34.3 168.9-314m-1332.3-614.6l337-244.9-142.5 329.5-194.5-84.6m172.5 928.7l-193.1 84.7 24.1-397.6.1-1.2 168.9 314.1m496.2 110.3l225.2 308.4h-451.8l226.6-308.4m667.1 17.2l-337 244.9 142.5-329.5 194.5 84.6m-1090-968.9l153.8-355.1 224.5 307.4-378.3 47.7m-427.9 417.5l118.8-370.8 22.9 370.8h-141.7m141.8 46.6l-22.9 370.8-118.9-370.8h141.8m664.4 465.2l-224.5 307.4-153.8-355.1 378.3 47.7m466-47.7l-153.8 355.1-224.5-307.4 378.3-47.7" fill="#2e9ad0"/></svg>