<svg id="Layer_1" xmlns="http://www.w3.org/2000/svg" viewBox="0 0 204.1 194.4" width="2500" height="2381"><style>.st0{fill:#0098da}.st1{fill:#fefefe}.st2{enable-background:new}</style><path class="st0" d="M107.4 0C84.8 0 64 7.7 47.6 20.7v20.5l-9.6.3v21.2h-9.9v21.2H11.5c-.6 4.3-.9 8.8-.9 13.3 0 53.6 43.3 97.2 96.8 97.2s96.8-43.6 96.8-97.2C204.1 43.5 160.8 0 107.4 0z"/><path class="st1" d="M107.4 36.2c33.5 0 60.6 27.3 60.6 61 0 7.5-1.4 14.6-3.8 21.2h6.8V129h-12c-.1.3-.3.6-.5.8v.1c-.1.3-.3.5-.5.8-.1.2-.4.5-.5.7l-.1.1c-.1.3-.3.5-.5.8-.1.2-.4.5-.5.7l-.1.1c-.1.2-.4.5-.5.7l-.1.1c-.1.2-.4.4-.5.7h-.1c-.1.2-.4.5-.5.7l-.1.1-.6.6h.1c-.1.2-.3.4-.5.6l-.1.1c-.2.1-.4.4-.5.6l-.1.1c-.1.2-.4.4-.5.6l-.1.1-.6.6-.1.1c-.1.2-.4.4-.5.6l-.1.1c-.1.1-.4.4-.5.6l-.1.1c-.2.1-.4.4-.6.5l-.1.1-.5.5-.1.1c-.2.1-.4.4-.6.5l-.1.1c-.1.1-.4.4-.6.5l-.1.1c-.1.1-.4.3-.6.5l-.1.1c-.1.1-.4.3-.5.4l-.2.1c-.1.1-.4.3-.6.4l-.1.1 7.7 20.3-17.6 14.1-9.1-24c-.2.1-.4.1-.5.1l-.4.1c-.1.1-.3.1-.5.1l-.4.1c-.1.1-.4.1-.5.1l-.5.1-.4.1c-.1.1-.3.1-.5.1l-.4.1c-.2 0-.4.1-.6.1l-.3.1c-.2.1-.4.1-.6.1l-.4.1c-.2.1-.4.1-.6.1l-.4.1c-.2 0-.4.1-.7.1h-.2c-.2.1-.5.1-.7.1h-.2c-.3.1-.6.1-.8.1l-.2.1c-.2 0-.5.1-.8.1h-.1c-.3.1-.6.1-.9.1h-.1c-.3.1-.6.1-.9.1v.1c-.3 0-.6 0-.9.1h-.1c-.4 0-.6.1-.9.1h-.1c-.4 0-.6 0-.9.1h-1.1c-.4 0-.6.1-1 .1h-1c-21.9 0-41.1-11.7-51.8-29.2H42.9v-10.5h7.6c-2.4-6.6-3.8-13.8-3.8-21.2 0-32.9 27.2-60.2 60.7-60.2z"/><g class="st2"><path class="st0" d="M76.5 130.8l-1.1-1.9H70c-1.2 0-2.1-.3-2.7-1-.6-.7-1-1.8-1-3.3v-6.1c0-1.6.3-2.7 1-3.4.6-.7 1.6-1 2.7-1h8.4c1.2 0 2.1.3 2.7 1 .6.7 1 1.8 1 3.4v6.1c0 1.6-.3 2.7-1 3.3-.6.7-1.6 1-2.7 1h-.7l1.1 1.9h-2.3zm-1.5-6.5l1.1 2c.1-.1.2-.2.2-.3.1-.1.1-.3.1-.5v-8c0-.4-.1-.6-.3-.8-.2-.1-.5-.2-.8-.2H73c-.4 0-.6.1-.8.2-.2.1-.3.4-.3.8v8c0 .4.1.6.3.7.2.1.5.2.8.2h1.1l-1.2-2.2H75zM89.1 118.1l.2 1.1c.1-.3.3-.5.5-.7.2-.2.5-.3.9-.3h4.4c1.3 0 2.2.4 2.7 1.1.6.7.8 1.7.8 2.9v4.4c0 .7 0 1.2.1 1.5.1.3.2.6.4.8v.2h-6.6v-.1-.1c.1-.2.3-.5.4-.8.1-.3.1-.8.1-1.5v-5.3c0-.3-.1-.6-.2-.7-.1-.1-.4-.2-.7-.2h-2c-.3 0-.6.1-.7.2-.1.1-.2.4-.2.7v5.3c0 .7 0 1.2.1 1.5.1.3.2.6.4.8v.2h-6.6v-.1-.1c.1-.2.3-.5.4-.8.1-.3.1-.8.1-1.5v-5.8c0-.7 0-1.2-.1-1.5-.1-.3-.2-.6-.4-.8v-.1-.1h6zM115.1 125.7c0 1.1-.2 1.9-.6 2.5-.4.5-1.3.8-2.5.8h-8.5c-1.2 0-2-.3-2.5-.8-.4-.5-.7-1.4-.7-2.5v-4.3c0-1.1.2-2 .7-2.5.4-.5 1.3-.8 2.5-.8h8.5c1.2 0 2 .3 2.5.8.4.5.6 1.3.6 2.5v4.3zm-9.3.2c0 .3.1.5.2.7.1.1.3.2.6.2h2.2c.3 0 .5-.1.7-.2.1-.1.2-.4.2-.7v-4.8c0-.3-.1-.5-.2-.7-.1-.1-.3-.2-.7-.2h-2.2c-.3 0-.5.1-.6.2-.1.1-.2.4-.2.7v4.8zM126.1 128.9l-.3-1.1c0 .1-.1.2-.1.3 0 .1-.1.2-.1.2-.1.2-.3.4-.4.5-.2.1-.3.2-.6.2H120c-1.2 0-2.1-.3-2.6-.9-.5-.6-.8-1.4-.8-2.4v-4.1c0-1 .3-1.8.8-2.4.5-.6 1.4-.9 2.6-.9h4.2c.4 0 .7.1.9.2.2.2.3.3.4.5 0 .1 0 .1.1.2s0 .1.1.1v-3c0-.6 0-1-.1-1.3s-.2-.5-.3-.8h5.9V126.9c0 .6 0 1 .1 1.3.1.3.2.5.3.8h-5.5zm-.5-7.8c0-.3-.1-.5-.2-.6s-.3-.2-.6-.2h-2.2c-.3 0-.5.1-.6.2s-.2.3-.2.6v4.9c0 .3.1.5.2.6.1.1.3.2.6.2h2.2c.3 0 .5-.1.6-.2.1-.1.2-.3.2-.6v-4.9zM138.1 124.7v1c0 .4.1.7.3.8.2.2.5.3.9.3h6c.2 0 .5-.1.7-.1.2 0 .3-.1.5-.1.2-.1.3-.1.5-.2l-.4 2.6h-10.8c-1.2 0-2-.3-2.5-.8-.4-.5-.7-1.4-.7-2.5v-4.3c0-1.1.2-2 .7-2.5.4-.5 1.3-.8 2.5-.8h8.3c1.2 0 2 .3 2.5.8.4.5.6 1.3.6 2.5v3.3h-9.1zm3.8-2.1v-1.5c0-.3-.1-.5-.2-.7-.1-.1-.3-.2-.6-.2h-2.2c-.3 0-.5.1-.6.2-.1.1-.2.4-.2.7v1.5h3.8z"/></g><path class="st0" d="M28.9 22.4h14.3v14.4H28.9zM19.4 44.1h14.3v14.4H19.4zM9.6 65.4h14.3v14.4H9.6zM0 26h12.1v12.2H0z"/></svg>