<svg xmlns="http://www.w3.org/2000/svg" viewBox="0 0 202.8 202.8"><path d="m0 0h202.8v202.8h-202.8z"/><g fill="#fff"><path data-name="Page-1" d="M181.7,143.2a3.12,3.12,0,0,0-3.1,3.1v9.3h-40l-.1-5.9a64.45,64.45,0,1,0-74.1,0h.1l-.1,5.8h-40v-9.3a3.1,3.1,0,1,0-6.2,0v15.4H70.5l.2-13.4a3.2,3.2,0,0,0-1.9-2.9,2,2,0,0,0-.8-.8A57.72,57.72,0,0,1,43,96.9a58.4,58.4,0,1,1,91.1,48.4,4.62,4.62,0,0,0-.7.7,3,3,0,0,0-1.1,2.3l.2,13.4h52.3V146.3A3.12,3.12,0,0,0,181.7,143.2Z"/><g data-name="Page-1"><path d="M140.4,101.41a56.52,56.52,0,0,0-4.1-4.6,56.52,56.52,0,0,0,4.1-4.6c6.9-8.5,9-16,6-21.2-2.3-3.9-7.2-6-14.3-6a56,56,0,0,0-13.2,1.9c-3.8-13.3-10.1-21.8-17.3-21.8s-13.5,8.5-17.4,21.7A56,56,0,0,0,71,64.91c-7.1,0-12,2.1-14.3,6-3,5.2-.9,12.7,6,21.2a56.52,56.52,0,0,0,4.1,4.6c-9.6,9.9-13.8,19.6-10.1,25.8,2.3,3.9,7.2,6,14.3,6a56,56,0,0,0,13.2-1.9c3.8,13.2,10.1,21.7,17.3,21.7s13.5-8.5,17.4-21.7a56,56,0,0,0,13.2,1.9c7.1,0,12-2.1,14.3-6C149.4,117.51,147.3,109.91,140.4,101.41Zm-8.2-32.7c3.9,0,9,.7,10.9,4.1,2.1,3.7,0,9.8-5.7,16.9-1.2,1.4-2.5,2.9-3.9,4.3a118.6,118.6,0,0,0-11.3-9.2,114.31,114.31,0,0,0-2.3-14.4A58.31,58.31,0,0,1,132.2,68.71Zm-22,43.1a90.06,90.06,0,0,1-8.7,4.5c-2.9-1.4-5.8-2.9-8.7-4.6s-5.7-3.4-8.3-5.2c-.2-3.1-.4-6.4-.4-9.8s.1-6.7.4-9.8c2.6-1.8,5.3-3.5,8.3-5.2a90.06,90.06,0,0,1,8.7-4.5q4.35,2.1,8.7,4.5c2.9,1.7,5.7,3.4,8.3,5.2.2,3.1.4,6.4.4,9.8s-.1,6.6-.4,9.8C115.9,108.31,113.1,110.11,110.2,111.81Zm7.9-.3c-.5,3.8-1.1,7.3-1.8,10.6a88.69,88.69,0,0,1-10.1-3.7q3-1.5,6-3.3C114.2,113.91,116.1,112.71,118.1,111.51ZM97,118.41a96.26,96.26,0,0,1-10.1,3.7,77.86,77.86,0,0,1-1.8-10.6c1.9,1.2,3.9,2.4,5.9,3.6Zm-16.4-14.8a98,98,0,0,1-8.3-6.9,86.74,86.74,0,0,1,8.3-6.9c-.1,2.3-.2,4.5-.2,6.9S80.5,101.41,80.6,103.61Zm4.5-21.5c.5-3.8,1.1-7.3,1.8-10.6A88.69,88.69,0,0,1,97,75.21c-2,1-4,2.1-6.1,3.3S87,80.81,85.1,82.11Zm21-6.9a96.26,96.26,0,0,1,10.1-3.7,77.86,77.86,0,0,1,1.8,10.6c-1.9-1.2-3.9-2.4-5.9-3.6S108.1,76.21,106.1,75.21Zm16.5,14.7a80.67,80.67,0,0,1,8.2,6.9c-2.5,2.3-5.3,4.6-8.2,6.9.1-2.2.2-4.5.2-6.9S122.7,92.21,122.6,89.91Zm-21-41c5,0,10.3,7,13.7,18.9A111.61,111.61,0,0,0,101.6,73a111.61,111.61,0,0,0-13.7-5.2C91.3,55.91,96.5,48.91,101.6,48.91ZM60.1,72.81c2-3.4,7-4.1,10.9-4.1a53.15,53.15,0,0,1,12.3,1.7A114.31,114.31,0,0,0,81,84.81,109.6,109.6,0,0,0,69.7,94c-1.4-1.5-2.7-2.9-3.9-4.4C60,82.71,57.9,76.51,60.1,72.81Zm10.9,52c-3.9,0-9-.7-10.9-4.1-2.5-4.4.9-12.4,9.5-21.3a97.3,97.3,0,0,0,11.4,9.2A114.31,114.31,0,0,0,83.3,123,48.73,48.73,0,0,1,71,124.81Zm30.6,19.8c-5,0-10.3-7-13.7-18.9a111.61,111.61,0,0,0,13.7-5.2,111.61,111.61,0,0,0,13.7,5.2C111.9,137.61,106.6,144.61,101.6,144.61Zm41.5-23.9c-2,3.4-7,4.1-10.9,4.1a53.15,53.15,0,0,1-12.3-1.7,114.31,114.31,0,0,0,2.3-14.4,109.6,109.6,0,0,0,11.3-9.2c1.4,1.4,2.7,2.9,3.9,4.3C143.1,110.91,145.2,117.11,143.1,120.71Z"/><path d="M101.6 82.11a14.6 14.6 0 1 0 14.7 14.6A14.7 14.7 0 0 0 101.6 82.11m0 25.5a10.8 10.8 0 1 1 10.8 -10.8A10.88 10.88 0 0 1 101.6 107.61"/></g></g></svg>