<svg viewBox="0 0 320 320" xmlns="http://www.w3.org/2000/svg"><circle fill="#2d598a" cx="160" cy="160" r="160"/><path fill="white" d="M221.02 220.75L236.50 239.11L236.50 239.11Q230.20 246.85 221.11 250.90L221.11 250.90L221.11 250.90Q212.02 254.95 201.22 254.95L201.22 254.95L201.22 254.95Q190.78 254.95 182.32 252.25L182.32 252.25L182.32 252.25Q173.86 249.55 165.31 243.34L165.31 243.34L165.31 243.34Q156.76 237.13 146.14 225.97L146.14 225.97L146.14 225.97Q129.76 223.27 116.98 214.27L116.98 214.27L116.98 214.27Q104.20 205.27 97.09 191.59L97.09 191.59L97.09 191.59Q89.98 177.91 89.98 161.53L89.98 161.53L89.98 161.53Q89.98 142.81 99.07 127.87L99.07 127.87L99.07 127.87Q108.16 112.93 124.09 104.47L124.09 104.47L124.09 104.47Q140.02 96.01 160 96.01L160 96.01L160 96.01Q179.98 96.01 195.91 104.47L195.91 104.47L195.91 104.47Q211.84 112.93 220.93 127.87L220.93 127.87L220.93 127.87Q230.02 142.81 230.02 161.53L230.02 161.53L230.02 161.53Q230.02 182.77 218.41 199.06L218.41 199.06L218.41 199.06Q206.80 215.35 187.18 222.37L187.18 222.37L187.18 222.37Q190.78 226.33 194.29 227.95L194.29 227.95L194.29 227.95Q197.80 229.57 201.94 229.57L201.94 229.57L201.94 229.57Q212.56 229.57 221.02 220.75L221.02 220.75ZM125.98 161.53L125.98 161.53Q125.98 172.15 130.48 180.34L130.48 180.34L130.48 180.34Q134.98 188.53 142.72 193.03L142.72 193.03L142.72 193.03Q150.46 197.53 160 197.53L160 197.53L160 197.53Q169.54 197.53 177.28 193.03L177.28 193.03L177.28 193.03Q185.02 188.53 189.52 180.34L189.52 180.34L189.52 180.34Q194.02 172.15 194.02 161.53L194.02 161.53L194.02 161.53Q194.02 150.91 189.52 142.72L189.52 142.72L189.52 142.72Q185.02 134.53 177.28 130.03L177.28 130.03L177.28 130.03Q169.54 125.53 160 125.53L160 125.53L160 125.53Q150.46 125.53 142.72 130.03L142.72 130.03L142.72 130.03Q134.98 134.53 130.48 142.72L130.48 142.72L130.48 142.72Q125.98 150.91 125.98 161.53L125.98 161.53Z"/></svg>