<svg enable-background="new 0 0 226.8 226.8" viewBox="0 0 226.8 226.8" xmlns="http://www.w3.org/2000/svg"><g fill="#102b73"><path d="m113.4 0c-62.6 0-113.4 50.8-113.4 113.4s50.8 113.4 113.4 113.4 113.4-50.8 113.4-113.4-50.8-113.4-113.4-113.4zm59.2 113.1c-3.2 1.8-6.6 3-10 3.5v.1c-8.4.7-16.2 5.3-20.8 13.2-4.6 8-4.6 17.4-.9 25.1 1.1 3.1 1.8 6.4 1.8 9.9 0 16.2-13.1 29.4-29.3 29.4-16.2-.1-29.4-13.3-29.4-29.5 0-3.7.7-7.2 1.9-10.4 0 0-.1 0-.1-.1 3.6-7.6 3.5-16.8-1-24.6-4.6-8-12.7-12.7-21.3-13.3-3.2-.6-6.4-1.7-9.5-3.4-13.9-8-18.7-26-10.6-40s26.1-18.8 40.1-10.7c3.2 1.8 5.9 4.2 8.1 6.9 4.8 6.9 12.8 11.4 21.8 11.4s17-4.5 21.8-11.4c2.2-2.7 4.9-5.1 8.1-6.9 14-8.1 32-3.3 40.1 10.7s3.2 32-10.8 40.1z"/><path d="m113.4 91.6c-12.1 0-21.8 9.8-21.8 21.8 0 12.1 9.8 21.8 21.8 21.8s21.8-9.8 21.8-21.8c0-12.1-9.8-21.8-21.8-21.8z"/></g></svg>