<svg viewBox="0 0 398.9 398.9" xmlns="http://www.w3.org/2000/svg" xmlns:xlink="http://www.w3.org/1999/xlink"><linearGradient id="a" gradientUnits="userSpaceOnUse" x1="177.5" x2="177.5" y1="212.5208" y2="212.5208"><stop offset="0" stop-color="#1c465e"/><stop offset="1" stop-color="#1e2a3a"/></linearGradient><linearGradient id="b" gradientUnits="userSpaceOnUse" x1="199.7905" x2="199.1238" y1="1.834" y2="398.5007"><stop offset="0" stop-color="#3aa5dd"/><stop offset="1" stop-color="#1a3083"/></linearGradient><path d="m177.5 202v21.1" fill="url(#a)"/><circle cx="199.5" cy="199.5" fill="url(#b)" r="199.5"/><path d="m321.5 101c-5-1.8-10.8-.1-14.2 4.3-20.9 26.5-41.9 53-62.8 79.6-11.4-14.4-22.9-28.8-34.3-43.2-.6-.7-3.7-4.4-9.2-4.8-6.8-.5-11 4.8-11.4 5.2-11.4 14.3-22.9 28.6-34.3 43-20.7-26.5-41.4-53-62.2-79.5-5.2-5-12.2-6.3-17-3.5-3.2 1.9-4.6 5-5.2 6.5l.3 183.2c.3.7 2.2 5.4 7.5 7.2 6 2 10.9-1.5 11.3-1.8l65-82.2c12.4 15.5 24.9 31 37.3 46.5.9.6 3.8 2.5 7.8 2.3 3.6-.2 6.1-1.8 7-2.5l37.5-46c19.6 24.7 39.2 49.3 58.8 74 4.3 8.8 13.4 12.2 19.3 9.3 5.4-2.6 6.6-9.7 6.7-10.5 0-58.7 0-117.4 0-176.2-.1-5-3.4-9.3-7.9-10.9zm-226.7 160.2v-121.5l48.5 60.8zm107.2-22.9c-.2.2-.9.9-2 1-1.5.2-2.5-.9-2.7-1-10.1-12.6-20.2-25.3-30.3-37.9l29.3-37.8c.8-.3 2.2-.7 4-.7 1.4.1 2.4.4 3.2.7 9.8 12.4 19.6 24.8 29.3 37.2zm102.5 22.9-48.7-60.8 48.7-60.8z" fill="#fff"/></svg>