<svg xmlns="http://www.w3.org/2000/svg" viewBox="0 0 1039.91 1190.52"><path d="M970.58,230.37,661.69,37.43A282.25,282.25,0,0,0,373.26,41.9L50.59,243.49c-58.37,35.94-59.61,109-1.5,145.34L320.4,552.65c23.51,14.7,42.69,58.24,56.22,82.44L493.34,833.81a32.73,32.73,0,0,0,57.05.15l137.26-232.6c11.46-20.24,26.2-39.16,46-51.43L985.25,397.82C1051.74,356.54,1038.47,269.32,970.58,230.37ZM881.29,353.65,670.41,484.58A102.07,102.07,0,0,0,635.48,521l-92.7,169.39a24,24,0,0,1-41.88-.11L416.11,532.89a121,121,0,0,0-41.44-43.54L158.25,353.93c-42.66-26.69-42.44-88.91.42-115.29L414.12,81.35a207.22,207.22,0,0,1,211.75-3.28l252.9,156.05C928.61,262.71,930.11,323.34,881.29,353.65Z" fill="#0562cd"/><path d="M0,477.7v406a20.53,20.53,0,0,0,10.2,17.75l484.64,282.71c13.79,8,30.84,8.09,44.67,2l490.12-282.83c6.36-5.54,10.28-12.33,10.28-19.67V480.51A36.54,36.54,0,0,0,1003.37,444h0a36.54,36.54,0,0,0-36.54,36.54v362a20.53,20.53,0,0,1-10.18,17.74L543.31,1103.54a44.5,44.5,0,0,1-44.85,0l-420.8-247a20.54,20.54,0,0,1-10.21-17.75V477.7A33.73,33.73,0,0,0,33.73,444h0A33.73,33.73,0,0,0,0,477.7Z" fill="#61b3fa"/></svg>