<svg enable-background="new 0 0 292.3 293.2" viewBox="0 0 292.3 293.2" xmlns="http://www.w3.org/2000/svg" xmlns:xlink="http://www.w3.org/1999/xlink"><linearGradient id="a" gradientUnits="userSpaceOnUse" x1="148.8163" x2="143.4829" y1="277.1798" y2="11.8465"><stop offset="0" stop-color="#f1a71e"/><stop offset="1" stop-color="#f0c019"/></linearGradient><linearGradient id="b" gradientUnits="userSpaceOnUse" x1="132.9843" x2="125.9843" y1="248.7953" y2="-10.2047"><stop offset="0" stop-color="#f2a01e"/><stop offset="1" stop-color="#f9e7b9"/></linearGradient><ellipse cx="146.5" cy="146.5" fill="#131313" rx="135.9" ry="136.3"/><path d="m60.9 245.7-2.9 4.3c-4-3.7-8.2-8-12.4-12.8-7.7-8.9-13.7-17.6-18.3-25.3 11.2 11.2 22.4 22.5 33.6 33.8z" fill="#f8be3a"/><g fill="#e47c24"><path d="m218.1 262.4v-4.1l-165.9-17.6c10.1 19.6 22.8 30 31 35.3 36 23.5 89.1 17.8 134.9-13.6z"/><path d="m279.7 168.1c-1.3 10.9-4.3 31-16.4 50.3-8.4 13.5-18 22.9-25.3 28.9-16.4-15.6-32.9-31.3-49.3-46.9-2.3 4-7.1 11.1-15.8 16.8-11.1 7.4-22 8.4-26.8 8.5-5.7.2-12.4-.5-19.2-3.3-27.2-11-32.6-45.3-33.1-48.4-5.3 0-10.7 0-16 0v-25.2h14.8l-.2-4.7h-14.5v-5.3l30-21.5-8.4-5.1-25.1-24.4 8.3-8.1 67.3 51.6 66.5.3.1 12.8h-14v21.7l14.1.2-.1 8-18 .1-2.9 6 32.3 43.3z"/><path d="m230.7 120.7c-.9-5.5-6.7-37.5-36-56.6-25.8-16.8-59.8-17.2-88-1.4 25.7-22.4 62.3-25.8 89.5-9 22.4 13.9 35.5 39.6 34.5 67z"/></g><path d="m238.2 243.4-49.9-47c-.9 1.5-16.8 26.1-43 25.9-24.6-.2-48-22.2-50.7-52.8-5.8-.2-11.6-.3-17.3-.5v-19.8h15.3v-8h-15.2v-22.2h19.6l4.2-9.3-32.6-31.4c.4 4.8 1.5 14.4 1.8 19.6.2 4.7.3 9.3.3 13.7-2.1 4.8-4.3 11.1-5.6 18.8-1.3 7-1.5 13.1-1.3 18.1-.5 3.1-6.5 44.3 24.7 72.9 24.2 22.1 53.7 21.2 62.2 20.4 1.2-.1 2.4-.2 3.6-.2 5-.2 11.4-1 18.6-3.2 6.9-2.1 12.4-5 16.5-7.4l28.5 27.8c-7.4 4.5-54.1 31.9-111.5 14.8-51.3-15.3-75.5-55.5-80.4-64.2-5.1-10.1-22.6-47.2-11.7-93.9 9.2-39.4 33.4-63 42.6-71.2 16.8 16.2 33.7 32.4 50.5 48.6 1.9-2.9 15.8-23.5 38.8-25 24.7-1.6 50.3 19.5 55.9 51.5l15 .3-.2 20.9-14.4.1.1 8.5h14.3l.3 21-17.9-.1c-.7 1.9-1.5 3.8-2.2 5.8-.6 1.5-1.1 2.9-1.7 4.4l31.8 31.5c-1.3-4.9-2.4-11.2-2.6-18.4 0-.1 0-.1 0-.2-.2-6.9.8-13.8 2.9-20.4 1.1-3.4 2-7.1 2.8-11.1 2.9-14.6 2.6-27.4 1.4-36.9-.3-5.7-2.6-38-29.1-59.1-25.8-20.6-64.1-22.2-95.7-3.4l-30-27.8 2-1.5c43.4-26.1 96.5-27.4 138.1-3 46.4 27.1 59.1 74.5 61.5 84.1 2.8 13 8.3 46.9-7.8 84-9.6 22-23.3 36.9-32.5 45.3z" fill="url(#a)"/><path d="m146.1 0c-80.7 0-146.1 65.6-146.1 146.6s65.4 146.6 146.1 146.6 146.1-65.6 146.1-146.6-65.3-146.6-146.1-146.6zm.4 282.9c-75.1 0-135.9-61-135.9-136.3s60.8-136.4 135.9-136.4 135.9 61 135.9 136.3-60.9 136.4-135.9 136.4z" fill="#141414"/><path d="m74.4 87.8 11.3-11.4-15.5-15.7-27.3 85.1 25.1-63.4z" fill="#f8be3a"/><path d="m76.7 34.2 3.1-2.2c10.4-5.9 42.4-22.5 85.2-17.3 46.6 5.6 75.1 36.1 83 44.3-11.1-6.1-40-22.8-78.4-19.3-30.5 2.8-52.4 15.2-63 22.3" fill="#fbce37"/><path d="m146.7 10.8c57.3.1 94.3 37.8 101.4 45.4-11.6-6.6-43-22.5-84.4-18.1-26.7 2.8-46.7 12.9-57.8 19.7l-28.2-27.9c11.9-7 36.5-19.1 69-19.1zm-77.4 78.3-1.8-12.6 6.9 6.9 11.3-11.1-29-28.1c-5.6 4.8-49 43-46.7 104.9 1.9 53.2 36.2 85.8 42.9 91.9-5.8-12.6-13.3-33.2-13.8-59.3-.9-47.1 21.5-80.8 30.2-92.6z" fill="url(#b)"/></svg>