<svg viewBox="0 0 320 320" xmlns="http://www.w3.org/2000/svg"><circle fill="#2d598a" cx="160" cy="160" r="160"/><path fill="white" d="M183.94 224.53L161.08 191.05L141.64 191.05L141.64 224.53L106 224.53L106 98.53L163.60 98.53L163.60 98.53Q180.70 98.53 193.30 104.20L193.30 104.20L193.30 104.20Q205.90 109.87 212.74 120.40L212.74 120.40L212.74 120.40Q219.58 130.93 219.58 145.15L219.58 145.15L219.58 145.15Q219.58 158.83 213.19 169.00L213.19 169.00L213.19 169.00Q206.80 179.17 194.92 184.93L194.92 184.93L222.10 224.53L183.94 224.53ZM183.58 145.15L183.58 145.15Q183.58 136.33 178 131.47L178 131.47L178 131.47Q172.42 126.61 161.44 126.61L161.44 126.61L141.64 126.61L141.64 163.51L161.44 163.51L161.44 163.51Q172.42 163.51 178 158.74L178 158.74L178 158.74Q183.58 153.97 183.58 145.15L183.58 145.15Z"/></svg>