<svg enable-background="new 0 0 205.3 338.8" viewBox="0 0 205.3 338.8" xmlns="http://www.w3.org/2000/svg"><path d="m89 274.9-89 63.9 56.5-260zm1.8-.6 54.2.7-86.4-195.2zm59.3-4.3 41.5-153.8-15.7-19.2zm-20-241.1-68.3 46 99.8-32.3zm-8.6 0-42.4 1.4-6.2 17.7z" fill="#384182"/><path d="m172.9 91.1-109.3-15 98.5-31zm-25.9-57.8 6-16.3-31.5-13.7zm9.1-17.9 7.1 25.6 42-11.1z" fill="#f79534"/><path d="m147.4 274-87.6-196 114.2 16zm-20.6-245.1-54 21.1-13 24zm-33.5-16-13.5 14.9 44.8-1.1zm23.6-11.6-21.4 9.9 48.8 21.5zm24.4-1.3h-23l35.6 13.8zm13.3 18.3-5.5 16.4 11 5.3z" fill="#f0513a"/></svg>