<svg xmlns="http://www.w3.org/2000/svg" viewBox="0 0 226.78 226.78" width="2500" height="2500"><defs><style>.cls-1{fill:#231f20}.cls-2{fill:#d31f26}</style></defs><title>rby</title><g id="Laag_2" data-name="Laag 2"><path class="cls-1" d="M98.5 183.91a74.76 74.76 0 0 1 0-145.13V23.15a90 90 0 0 0 0 176.39zM110.65 36.84c1.94-.15 3.89-.25 5.86-.25a75.65 75.65 0 0 1 8.83.52V21.78a92.07 92.07 0 0 0-8.83-.44c-2 0-3.92.09-5.86.21v15.29z"/><path class="cls-2" d="M137.48 23.83v15.75a75 75 0 0 1 48.11 43.16h-17.13a59.3 59.3 0 1 0 2.86 51.26h16.45a74.94 74.94 0 0 1-50.29 49.14v15.74a90 90 0 0 0 0-175zm-7 126.06l-17.34-24.63H84.26v-15.13h33.9c8.28 0 11.26-5.19 11.26-11.37s-3.75-11.82-12.15-11.82h-33V72.81H119c11 0 28.49 4.86 28.49 25.4s-15.46 24.63-15.46 24.63l19.88 27.06h-21.38z"/><path class="cls-1" d="M125.34 185.59a75.65 75.65 0 0 1-8.83.52c-2 0-3.92-.1-5.86-.25v15.28c1.94.13 3.89.21 5.86.21 3 0 5.92-.15 8.83-.44z"/></g></svg>