<svg xmlns="http://www.w3.org/2000/svg" viewBox="0 0 1980.27 2000" width="2000" height="2000"><path d="M1043.8,139.29a943.79,943.79,0,0,0-95.31-4.81C673,134.48,425.42,254,254.67,443.87L404.58,848.72l675.66-233.78Z" transform="translate(-15.73)" fill="#0089ce"/><path fill="#e30613" d="m704.55 1683.02l417.47-339.62-57.51-728.46-453.46 833.82 93.5 234.26"/><path d="M1133,1346.41L720.27,1683l115.26,310.15a938.19,938.19,0,0,0,350.74-23.81l-48.53-626-4.73,3.83Z" transform="translate(-15.73)" fill="#e9453f"/><path fill="#ca1416" d="m1064.76 618.36l-.25-3.42-675.65 233.78 222.19 600.04 453.71-830.4"/><g transform="translate(-15.73)"><path d="M254.67,443.87C124.43,588.73,38.94,774.58,19.84,979.73l384.74-131Z" fill="#0156a3"/><path d="m404.58 848.72l-384.74 131c-2.68 28.82-4.12 58-4.12 87.51 0 321.45 162.61 604.91 410.06 772.64l201-391.12" fill="#149f39"/><path d="M626.78,1448.76l-201,391.12q35.37,24,73,44.7L720.27,1683Z" fill="#28a737"/><path d="M498.78 1884.57a926.49 926.49 0 0 0 336.75 108.6L720.27 1683" fill="#82bb2b"/><path d="M1186.28,1969.37c400-105.14,695-469.16,695-902.13a931.87,931.87,0,0,0-45.7-289l-697.8,565.12Z" fill="#fecc00"/><path d="m1290.33 199.11l-210.09 415.83.25 3.42 57.26 725 697.8-565.12c-86.22-264.81-287.67-477.63-545.22-579.13" fill="#ef7900"/><path d="M1080.24,614.94l210.09-415.83a927.09,927.09,0,0,0-246.54-59.82L1080,612Z" fill="#23a9e1"/><path d="m1109.7 402.29l21.42-96c279.4 116.47 453.1 296.05 547.19 524.47l-83.81 58.85c-110.9-228.17-267.28-397.4-484.8-487.32"/><path d="M1996,393.06C1996,176,1820,0,1602.94,0s-393.06,176-393.06,393.06a395.77,395.77,0,0,0,4.86,61.74c130.85,77,236,187.43,320,325.3a395.06,395.06,0,0,0,68.25,6C1820,786.12,1996,610.14,1996,393.06Z" fill="#e30613"/></g></svg>