<svg xmlns="http://www.w3.org/2000/svg" xmlns:xlink="http://www.w3.org/1999/xlink" viewBox="0 0 476 476"><defs><radialGradient id="5" cx="141.86" cy="218.76" r="156.41" gradientTransform="matrix(.63446-.77296.51788.42509-61.56 235.32)" xlink:href="#0"/><radialGradient id="4" cx="118.87" cy="240.5" r="171.96" xlink:href="#0"/><radialGradient id="6" cx="352" cy="67.5" r="64.24" xlink:href="#0"/><radialGradient id="3" cx="294.71" cy="182.18" r="263.22" gradientTransform="matrix(.54.84-.42.27 212.32-115.17)" xlink:href="#1"/><radialGradient id="1" cx="142.75" cy="278" r="210.66" gradientTransform="matrix(.76256.64692-.43991.51854 155.32 42.51)" gradientUnits="userSpaceOnUse"><stop offset=".18" stop-color="#eaa435"/><stop offset=".67" stop-color="#936213"/><stop offset="1" stop-color="#58390b"/></radialGradient><radialGradient id="0" cx="353.04" cy="140.75" r="124.11" gradientUnits="userSpaceOnUse"><stop offset=".08" stop-color="#8e5e12"/><stop offset=".95" stop-color="#5f3d0f"/></radialGradient><radialGradient id="2" cx="209.38" cy="232.33" r="243.29" gradientTransform="matrix(.73893.67379-.38406.42119 144.17-6.9)" xlink:href="#1"/></defs><g stroke-miterlimit="10"><circle cx="238" cy="238" r="232" fill="#f9e6c8" stroke="#2f200b" stroke-width="12"/><g stroke="#000" stroke-width="2"><path d="m463 272s1-84-120-170c0 0-102.5-72.5-106.5-92.5 0 0 279 143 226.5 262.5" fill="url(#0)"/><path d="m72.5 92.5s-66 84 38 184l84 87s77 68 52 100c0 0-11-35-88-100l-95-99s-72-85 9-172" fill="url(#1)"/><path d="M155,32s-59.92,43.76,0,117l25,36L293,304s78,93,0,146c0,0,47-28-24-116L174,227S31,102,155,32Z" fill="url(#2)"/><path d="m216 16s-28 19 7 51l87 86s127 97 109 185c0 0-9 83-88 112 0 0 139-68 22-209l-155-168s-35-39 18-57" fill="url(#3)"/><path d="m216.5 20.5s-430 227 6 440c0 0-276-79-191-279 0 0 42-101 185-161" fill="url(#4)"/><path d="m242.5 13.5s-28.5 108.5-77.5 149.5l-46.5 63.5s-82.5 105.5-13.5 183.5c0 0-83.5-36.5-51.5-128.5 0 0 26-70 103-150 0 0 82-94 86-118" fill="url(#5)"/></g></g><g fill="#2d1c07"><path d="M107.79,215.49c9.45-7.05,47.22-33.54,93.08-42.92v14.49L168.28,210s8.27,52,.26,140.84a3.11,3.11,0,0,1-3.08,2.82h-4.63a3.09,3.09,0,0,1-3.08-3.37c1.31-14.53,4.78-71.62-20.06-81.2a7.61,7.61,0,0,0-7.65,1.33c-7.65,6.52-26.83,26.81-34.86,71.66a3.1,3.1,0,0,1-3.65,2.5h0A3.07,3.07,0,0,1,89,341.08c2.47-16.23,15.6-95.84,39.4-125l-20.07,1.06A.89.89,0,0,1,107.79,215.49Z"/><path d="m373.63 219.11c-7.38-7.91-43.21-42.41-84.44-34.44a5.29 5.29 0 0 0 -4.21 6.06v.14a5.32 5.32 0 0 0 2.23 3.5l21.08 14.42s-8.28 53.22-.26 142a3.1 3.1 0 0 0 3.08 2.82h4.63a3.09 3.09 0 0 0 3.07 -3.37c-1.3-14.53-3.28-70.27 17.66-83.61 2.34-1.5 5.53-.47 7.64 1.33 7.65 6.51 31.66 36.46 39.69 81.31a3.09 3.09 0 0 0 3.65 2.51 3.09 3.09 0 0 0 2.44 -3.49c-2.47-16.23-15.6-104.29-39.4-133.5l22.51 5.92c.92.04 1.23-.95.63-1.6"/><circle cx="240.71" cy="139.98" r="22.94"/><circle cx="325.21" cy="165.33" r="16.9"/><circle cx="152.58" cy="164.12" r="15.69"/><path d="m190.61 176.8s51.91-30.18 124.34 9.65c0 0-42.25 6-44.67 16.91 0 0-3.7 11.1.24 22a152.12 152.12 0 0 1 5.15 17.35l26 111.58-6 1.21s-27.76-88.13-55.53-95.37c0 0-41 13.28-50.7 91.75l-7.24-1.21 24.1-124.38s6-26.56-16.9-39.84"/></g><path d="m275.5 18.5s116 41 153 98c0 0-50-82-153-98" fill="url(#6)" stroke="#000" stroke-width="2" stroke-miterlimit="10"/></svg>