<svg height="2934pt" preserveAspectRatio="xMidYMid meet" viewBox="0 0 2934 2934" width="2934pt" xmlns="http://www.w3.org/2000/svg"><path d="m6940 23418c0-177-66-4997-73-5345l-5-213h1779 1779v1360 1361l3398-4c3080-3 3413-5 3572-20 486-46 712-95 936-201 125-60 205-115 300-210 253-252 369-617 405-1273 16-303 6-1449-15-1648-41-392-109-640-233-848-56-95-216-262-306-321-256-167-557-246-1107-291-459-38-2554-51-5780-35-2886 14-2623 20-2782-60-123-61-224-136-338-250-176-175-289-371-337-584-24-106-21-309 5-408 61-227 203-443 412-626 47-41 693-512 1435-1046 1501-1081 1604-1155 1678-1207 29-21 1668-1201 3642-2623l3590-2586h2574c1416 0 2572 2 2569 5-12 12-805 562-5120 3550l-4534 3140 1471 6c918 4 1539 10 1655 18 622 38 1068 91 1500 177 1349 270 2213 930 2643 2019 223 565 336 1206 368 2090 13 368 6 1864-10 2115-55 840-169 1438-372 1957-333 850-916 1422-1789 1756-576 221-1363 351-2405 397-137 6-2161 10-5362 10h-5143z" transform="matrix(.1 0 0 -.1 0 2934)"/></svg>