<?xml version="1.0" encoding="utf-8"?>
<!-- Generator: Adobe Illustrator 19.2.1, SVG Export Plug-In . SVG Version: 6.00 Build 0)  -->
<svg version="1.1" id="Layer_1" xmlns="http://www.w3.org/2000/svg" xmlns:xlink="http://www.w3.org/1999/xlink" x="0px" y="0px"
	 viewBox="0 0 1000 1000" style="enable-background:new 0 0 1000 1000;" xml:space="preserve">
<style type="text/css">
	.st0{fill:#5F2652;}
	.st1{fill:#FFFFFF;}
</style>
<circle class="st0" cx="500" cy="500" r="500"/>
<path class="st1" d="M784.3,629.5L784.3,629.5L522.7,160.3c-4.6-8.6-13.2-13.6-22.8-13.6s-18.2,5-22.8,13.6L215.6,629.5
	c-6.8,12.1-2.9,27.8,9.3,35l261.9,156.6c4.3,2.5,8.9,3.6,13.6,3.6c4.6,0,9.3-1.1,13.6-3.6l261.5-156.3
	C787.1,657.3,791.4,641.6,784.3,629.5z M586.6,440.4l-6.4-5.4l-0.4-0.4c-2.1-1.8-4.3-3.2-6.4-4.6l-0.4-0.4c-2.1-1.4-4.3-2.9-6.8-4.3
	c-0.4,0-0.4-0.4-0.7-0.4c-2.1-1.4-4.6-2.5-6.8-3.6c-0.4,0-0.4-0.4-0.7-0.4c-2.1-1.1-4.6-2.1-7.1-3.2c-0.4,0-0.4-0.4-0.7-0.4
	c-2.1-0.7-4.3-1.8-6.4-2.5c-5.7-2.1-11.8-3.9-17.8-5c-4.6,8.9-11.1,16.8-18.2,23.5c11.1,0.7,21.8,3.6,31.4,7.5
	c5.7,2.5,11.4,5.4,16.4,8.6c0.4,0,0.7,0.4,0.7,0.4c1.4,0.7,2.5,1.8,3.9,2.9c0.7,0.4,1.1,0.7,1.8,1.4c1.1,0.7,2.5,1.8,3.6,2.9
	c0.7,0.7,1.4,1.1,2.1,1.8c1.1,1.1,2.1,1.8,3.2,2.9l2.1,2.1l2.9,2.9l2.1,2.1c0.7,1.1,1.8,2.1,2.5,2.9s1.4,1.8,2.1,2.5l2.1,3.2
	c0.7,1.1,1.4,1.8,1.8,2.9l2.1,3.2c0.7,1.1,1.1,2.1,1.8,2.9c0.7,1.1,1.1,2.1,1.8,3.2s1.1,2.1,1.8,3.2c0.4,1.1,1.1,2.1,1.4,3.2
	c0.7,1.4,1.1,2.9,1.8,3.9c2.9,7.1,5,14.6,6.1,22.8l3.2,12.5c1.4,5.4,14.3,51,44.2,66.4c34.3,17.8,79.6,40,97.4,48.5L513.1,790.7
	v-96.3c0-15.3,30.3-33.2,44.2-39.2l0.7-0.4c2.9-1.4,5.7-2.9,8.6-4.6l1.1-0.7c6.1-3.6,11.8-7.8,17.1-12.5c0.4-0.4,1.1-0.7,1.4-1.4
	c0.7-0.4,1.1-1.1,1.8-1.4c1.8-1.4,3.2-3.2,5-4.6l0.7-0.7c1.8-1.8,3.6-3.6,5-5.7c0.4-0.7,1.1-1.1,1.4-1.8c1.4-1.4,2.5-3.2,3.9-5
	c0.4-0.4,0.7-1.1,1.1-1.4l4.3-6.4c0-0.4,0.4-0.4,0.4-0.7c1.8-2.9,3.6-6.1,5.4-8.9c-7.1-8.6-12.5-17.8-16.8-26.4
	c-1.8,5.4-4.3,10.7-6.8,15.3c-1.1,2.1-2.5,4.3-3.6,6.4c-0.4,0.4-0.4,0.7-0.7,0.7c-1.1,1.8-2.5,3.6-3.6,5c-0.4,0.4-0.7,1.1-1.1,1.4
	c-1.1,1.8-2.5,3.2-3.9,4.6c-0.4,0.4-0.4,0.7-0.7,0.7c-8.6,9.6-18.9,17.8-30.7,23.5l-2.1,1.1c-6.1,2.5-58.5,26.4-58.5,62.4V790
	L251.2,649.8c15.3-9.3,59.6-35.7,96-47.1c14.3-4.6,44.6,14.6,61.7,28.5l1.1,1.1c2.1,2.1,4.6,4.3,7.1,6.1l0.7,0.7
	c5.4,4.3,11.1,8.6,17.5,11.8l4.3,2.1c0.4,0,0.7,0.4,0.7,0.4c3.9,2.1,7.8,3.9,12.1,5.7c0.7,0.4,1.1,0.4,1.8,0.7
	c0.4,0,0.7,0.4,1.4,0.4c6.1,2.1,12.1,3.9,18.2,5.4c4.6-8.9,11.4-16.8,18.6-23.5c-10.3-0.7-20-2.9-29.3-6.4c-0.4-0.4-1.1-0.4-1.4-0.7
	c-1.1-0.4-2.1-0.7-3.2-1.4c-0.4-0.4-1.1-0.4-1.4-0.7c-1.1-0.4-2.1-1.1-2.9-1.4c-7.1-3.6-13.6-7.5-19.6-12.5l-9.3-8.6
	c-0.4-0.4-11.8-10.7-27.8-20c-23.2-13.2-42.8-17.5-57.8-12.8c-31,10-66.4,28.9-87.8,41.4l235.1-422.4v185.2
	c0,6.4-9.6,23.5-42.1,38.2l-2.1,1.1c-3.2,1.4-6.1,3.2-9.3,5l-0.7,0.4c-6.1,3.6-11.8,7.8-17.5,12.5c-3.6,2.9-6.8,6.1-9.6,9.3
	l-0.4,0.4c-3.2,3.2-6.1,6.4-8.6,10l-0.4,0.4c-1.4,1.8-2.5,3.6-3.9,5.4c0,0.4-0.4,0.4-0.4,0.7c-1.1,1.8-2.1,3.2-3.2,5
	c0,0.4-0.4,0.4-0.4,0.7l-3.2,5.4c-0.4,0.4-0.4,0.7-0.7,1.4c-1.1,1.8-1.8,3.6-2.5,5c0,0.4-0.4,0.7-0.4,0.7c-0.7,1.8-1.4,3.2-2.1,5
	c-0.4,0.7-0.4,1.1-0.7,1.8l-2.1,5.4c-0.4,0.7-0.4,1.1-0.7,1.8c-0.4,1.4-0.7,2.5-1.4,3.9c-0.4,0.7-0.4,1.4-0.7,2.1
	c-0.4,1.8-1.1,3.6-1.4,5c-0.4,0.7-0.4,1.8-0.7,2.5c-0.4,1.1-0.4,2.5-0.7,3.6c-0.4,1.1-0.4,2.1-0.7,3.2c-0.4,1.4-0.4,2.9-0.7,4.3
	c0,1.1-0.4,1.8-0.4,2.9c0,1.4-0.4,2.5-0.4,3.9c0,1.4,0,2.5-0.4,3.9v5.4c0,6.4,0.4,13.2,1.4,19.3c9.3,2.1,18.9,6.1,29.3,11.1
	c-2.9-9.3-4.3-18.9-4.6-28.9v-1.8c0-2.5,0-4.6,0.4-7.1v-1.8c0-2.1,0.4-3.9,0.7-6.1v-0.7c0.4-2.1,0.7-4.3,1.1-6.8
	c0-0.7,0.4-1.1,0.4-1.8c0.4-1.8,1.1-3.6,1.4-5.4c0-0.4,0.4-0.7,0.4-1.1l2.1-6.4c0.4-0.4,0.4-1.1,0.7-1.4c0.7-1.8,1.4-3.6,2.1-5
	c0.4-0.4,0.4-0.7,0.7-1.4c1.1-2.1,1.8-3.9,3.2-5.7c0.4-0.4,0.4-0.7,0.7-1.1c1.1-1.8,1.8-3.2,2.9-5c0.4-0.4,0.4-0.7,0.7-1.1
	c1.1-1.8,2.5-3.6,3.9-5.4c0,0,0-0.4,0.4-0.4c1.4-1.8,2.5-3.2,3.9-5c0.4-0.4,0.4-0.7,0.7-1.1c6.4-7.1,13.6-13.2,21.8-18.6l11.1-5.4
	c6.1-2.5,58.2-27.1,58.2-63.2V196.3l237.3,426c-21.1-10.3-58.5-28.9-87.4-43.9c-16.8-8.6-27.8-38.9-31-50l-3.2-12.8
	c0-6.8-1.8-13.6-3.9-20.3v0C616.2,473.9,603.4,455,586.6,440.4z"/>
</svg>
