<svg xmlns="http://www.w3.org/2000/svg" width="1275" height="2000" viewBox="0 0 1275 2000"><defs><linearGradient id="0" x2="0" y2="2000" gradientUnits="userSpaceOnUse"><stop stop-color="#6cfdcc"/><stop offset="1" stop-color="#5a89f9"/></linearGradient></defs><path d="m362.5 0h648c65.5 10.44 132.7 1.11 197.7 15 144.78 26.56 275.9 117.67 352 243.56 90 145.78 101.78 335.89 33.33 492.56-62 144.22-191.67 257.11-343.23 298-96.23 27.78-197.23 17.44-296 19.33q253.84 420.5 506.57 841.78c-44.11 30.78-98.11 49.44-134.56 89.78h-5.67c-219.22-366.57-440.64-731.9-660.57-1098.01 156.23-.78 312.46 1.22 468.57-1 180.23-4.89 337.79-164.22 341.57-344.44 11.79-155.67-89.21-310.89-236.9-362.12-61.22-23.89-127.89-22.78-192.56-22.11q-339.18 0-678.25-.11" transform="translate(-362.5)" fill="url(#0)"/></svg>