<svg enable-background="new 0 0 373 373" viewBox="0 0 373 373" xmlns="http://www.w3.org/2000/svg"><path d="m186.5 0c-103 0-186.5 83.5-186.5 186.5s83.5 186.5 186.5 186.5 186.5-83.5 186.5-186.5-83.5-186.5-186.5-186.5zm-56.3 178c-3.9 15.5-18 21.4-19.5 22 4.9 11.4 9.9 22.8 14.8 34.2h-24.3l-12.8-30.3-35.7-.3 7.8-18.7h36.8c6.8-.7 12.1-6.5 12.2-13.3.1-6.9-5.1-12.8-12-13.7-8.5.1-17 .1-25.5.2l7.5-19.2h17.8c1 0 19.2-.3 28.8 14.5 7.2 11.1 4.5 22.9 4.1 24.6zm45 54.6-37.7-92.2h21.8l26.5 66.2 27.2-66.2h22.5l-38.3 92.2zm131.3-54.6c-3.9 15.5-18 21.4-19.5 22 4.9 11.4 9.9 22.8 14.8 34.2h-24.3l-12.8-30.3-35.7-.3 7.8-18.7h36.8c6.8-.7 12.1-6.5 12.2-13.3.1-6.9-5.1-12.8-12-13.7-8.5.1-17 .1-25.5.2l7.5-19.2h17.8c1 0 19.2-.3 28.8 14.5 7.3 11.1 4.5 22.9 4.1 24.6z" fill="#333132"/></svg>