<svg id="Layer_1" xmlns="http://www.w3.org/2000/svg" xmlns:xlink="http://www.w3.org/1999/xlink" viewBox="0 0 56.8 55.9" width="2500" height="2460"><style>.st0{clip-path:url(#SVGID_2_);fill:url(#SVGID_3_)}.st1{opacity:.8}.st2{clip-path:url(#SVGID_5_)}.st3{clip-path:url(#SVGID_7_);fill:#680910}.st4{fill:#fff}</style><defs><path id="SVGID_1_" d="M0 27.9c0 15.4 12.7 27.9 28.4 27.9s28.4-12.5 28.4-27.9C56.8 12.5 44 0 28.4 0 12.7 0 0 12.5 0 27.9"/></defs><clipPath id="SVGID_2_"><use xlink:href="#SVGID_1_" overflow="visible"/></clipPath><linearGradient id="SVGID_3_" gradientUnits="userSpaceOnUse" x1="-273.483" y1="450.862" x2="-272.483" y2="450.862" gradientTransform="matrix(0 -55.8796 -56.7531 0 25616.2 -15226.217)"><stop offset="0" stop-color="#680910"/><stop offset=".148" stop-color="#8e0e16"/><stop offset=".31" stop-color="#b0131b"/><stop offset=".476" stop-color="#cb171f"/><stop offset=".644" stop-color="#de1a22"/><stop offset=".816" stop-color="#e91b23"/><stop offset="1" stop-color="#ed1c24"/></linearGradient><path class="st0" d="M0 0h56.8v55.9H0z"/><g class="st1"><defs><path id="SVGID_4_" d="M9.4 11.7h36.1v34.4H9.4z"/></defs><clipPath id="SVGID_5_"><use xlink:href="#SVGID_4_" overflow="visible"/></clipPath><g class="st2"><defs><path id="SVGID_6_" d="M9.4 11.7h36.1v34.4H9.4z"/></defs><clipPath id="SVGID_7_"><use xlink:href="#SVGID_6_" overflow="visible"/></clipPath><path class="st3" d="M28.1 11.7l3.6 13.1 13.8.7-11.6 7.4L37.4 46l-10.7-8.5-11.5 7.3 4.9-12.6-10.7-8.6 13.8.7z"/></g></g><path class="st4" d="M29.2 9.8l4.3 13h13.8l-11.2 7.9 4.3 13-11.2-8-11.1 8 4.2-13-11.1-7.9H25z"/></svg>