<svg enable-background="new 0 0 32 32" viewBox="0 0 32 32" xmlns="http://www.w3.org/2000/svg"><g clip-rule="evenodd" fill-rule="evenodd"><circle cx="16" cy="16" fill="#60e4dd" r="16"/><path d="m10.1 20c.3-.5.6-.9.9-1.3h-3.1c-.1 0-.1 0-.1-.1v-.6c0-.1 0-.1.1-.1h3.6c1.9-2.8 2.9-4 2.9-4.1 0-.2 0-.3-.7-.3-1.3 0-3.4-.9-3.4-3.5 0-1.4 2.2-3.1 3.5-3.1.6 0 .7.3.4.3-.7 0-2.4 1.5-2.4 3 0 1 .9 2.6 2.8 2.6 2.2 0 4.2-3.6 8.8-3.6 2.8 0 3.5 2.2 3.5 2.8s-.8 1-2 1-1.2-2.1-3.6-2.1c-3.7 0-6.9 4-8.4 7h2.6c.1 0 .1 0 .1.1v.6c0 .1 0 .1-.1.1h-3c-.2.5-.4.9-.5 1.3h2.6c.1 0 .1 0 .1.1v.6c0 .1 0 .1-.1.1h-2.6c0 1.2 1 2.2 2.9 3.2h-7.3c.7-1.1 1.3-2.1 2-3.2h-2.5c-.1 0-.1 0-.1-.1v-.6s0-.1.1-.1z" fill="#fff"/></g></svg>