<svg xmlns="http://www.w3.org/2000/svg" width="2000" height="1755" viewBox="0 0 2000 1755"><path d="M850.84,134.23c77.29-14.62,156.47-12.92,234.67-9,90.16,10.74,180.49,30,263.43,67.82C1514.39,262.6,1656.24,385.5,1751,537.65c35.73,52.9,59.7,112.23,83.85,171,22.33-36.22,42.35-73.83,61.76-111.68,8.37-17.84,25.91-31.67,46.35-30.76,27.48-2.91,54.48,19.53,56.79,47.08,2.24,22.2-11.47,41.37-20.51,60.54-28.33,58.3-65,112-102.9,164.4-7,7.64-4.06,18.14-3.22,27.36,42.17,252.85-38.1,522-209.13,712.43-97.25,110.89-223.15,195.88-361.54,246.66-159.81,56.78-335.81,69.58-501.14,29.85-239.59-52.72-451.63-213.23-572.18-426.28-26.33-43.13-43.14-91.06-63.95-136.86-22.69,35.49-42,72.92-61.4,110.23a58.48,58.48,0,0,1-48.29,32.76c-34.64.06-66.07-37.85-52.12-71.58C33.18,1293.09,74,1228.67,119.7,1168.43c9.83-10.49,8.43-25.24,6.61-38.28-16.5-110.83-12.44-225,14.62-333.83,70-307,320.83-563.51,625-643.34,28.15-6.79,56.3-13.89,84.94-18.75M636.18,319.92C475,406,345.33,550,277.92,720c-38.83,102.76-58.67,213.23-52.6,323.16A526.79,526.79,0,0,0,274,1001c90.46-82,196.39-145.53,307.11-196.19,205.73-95,432.22-135.95,657.37-147-76.14-80.2-158.65-154.15-234.73-234.34,24-26.75,49.93-51.62,76-76.31,29.49,27.18,56.79,56.6,85.73,84.38,93.55,94.7,190.08,186.54,282.18,282.57-98.17,99.55-198.94,196.49-297.1,296a325.71,325.71,0,0,1-26,22.32c-24.75-25.3-53.51-47.5-73.29-77.1,60.37-64.3,129-120.66,187-187.21-103.81,1.46-207.13,16.38-308.75,36.82-82.09,15-161,43.13-239.77,70-165.15,62.79-317.43,163-433.49,296.89-6.92,6.92-5.95,17.17-4.06,25.9,13.71,59.81,39.56,115.81,68,169.86,93.61,171.62,255.36,304.17,441.32,364,108.72,34,224.72,47.07,337.87,31.12,157.44-20,308-89.72,424.75-197.22,169.57-151.84,264.71-383.21,250-610.4-17.84,14.13-33.85,30.27-50.6,45.56a1214.53,1214.53,0,0,1-385.86,227.85C1154,1297.7,958.41,1333.62,762.5,1339.2c17.11,22.69,38.22,41.8,58.12,62,58.61,58,116.49,116.78,176,173.8-22.93,27.48-49.63,51.38-74.93,76.5-25.3-20.93-47.32-45.38-70.8-68.25-88.64-87.3-176.25-175.62-264.58-263.16-12-11.59-23.78-23.48-33.61-36.94,38.22-41.8,82.21-77.77,121.34-118.66,67.28-66,132.75-134,200.82-199.22,25.42,25.11,52.18,49.2,74.87,77-60.55,63.7-125,123.63-186.32,186.6,67.22,3.4,133.66-8.43,200.27-14.8,48.29-5.16,95.62-16.32,143.12-26.33,244.14-57.21,481.85-175.08,645.66-369.14C1689.67,543,1459.06,316.16,1184.59,252,1001.79,204.78,802.48,231.66,636.18,319.92Z" transform="translate(0-122.5)" fill="#3555f9"/></svg>