<svg xmlns="http://www.w3.org/2000/svg" xmlns:xlink="http://www.w3.org/1999/xlink" viewBox="0 0 1980 1980" width="2000" height="2000"><defs><linearGradient id="0" x1="1234.34" y1="1234.33" x2="552.14" y2="552.13" gradientUnits="userSpaceOnUse"><stop stop-color="#024cff"/><stop offset="1" stop-color="#00c0ff"/></linearGradient><linearGradient id="1" x1="765.67" y1="1234.33" x2="1447.87" y2="552.14" xlink:href="#0"/></defs><g fill="#fff" stroke-width="40" stroke-miterlimit="10" transform="translate(-10-10)"><g stroke="#7e00ff"><path d="m1952.56 277.58c18.44 58.88 19 121.27 16.2 182.31-1 35.42-7.63 70.35-14.2 105.07-15.55 75.12-39.42 148.24-68.71 219-87.65 207.65-217.93 395.22-368.54 562.07-166.6 183-359.68 343.65-576.59 463.69-117.72 64.38-242.98 116.89-374.72 144.28-79.08 16.69-161.13 20.65-241.27 9.43-64.63-11.34-128-36.48-177.94-79.85-62.29-53.22-97.99-131.65-110.79-211.46a694.17 694.17 0 0 1 -5.43 -118.94c82.71 47.37 182.43 52.64 274.93 39.38 52-8.45 103.84-19.87 153.5-37.62 139.91-46 269.26-119.84 389.31-204.38 122.66-87.28 235.31-188.35 337.36-299 137.59-150.4 257.14-319.53 337.89-507.35 24.4-60.27 47-121.76 59.16-185.82 24.69-108.09 26.6-228.58-29.13-327.73 54.47-1.35 109.88-.57 162.56 15.06 53.94 14 105.23 40.11 145.91 78.55 43.82 41.31 74.83 95.37 90.5 153.31"/><path d="M1722.42,1952.56c-58.88,18.44-121.27,19-182.31,16.2-35.42-1-70.35-7.63-105.07-14.2-75.12-15.55-148.24-39.42-219-68.71-207.65-87.65-395.22-217.93-562.07-368.54-183-166.6-343.65-359.68-463.69-576.59C125.9,823,73.39,697.74,46,566c-16.69-79.08-20.65-161.13-9.43-241.27,11.34-64.63,36.48-128,79.85-177.94C169.64,84.5,248.07,48.8,327.88,36a694.17,694.17,0,0,1,118.94-5.43C399.45,113.27,394.18,213,407.44,305.49c8.45,52,19.87,103.84,37.62,153.5,46,139.91,119.84,269.26,204.38,389.31,87.28,122.66,188.35,235.31,299,337.36,150.4,137.59,319.53,257.14,507.35,337.89,60.27,24.4,121.76,47,185.82,59.16,108.09,24.69,228.58,26.6,327.73-29.13,1.35,54.47.57,109.88-15.06,162.56-14,53.94-40.11,105.23-78.55,145.91C1834.42,1905.88,1780.36,1936.89,1722.42,1952.56Z"/></g><path d="m47.44 1722.42c-18.44-58.88-19-121.27-16.2-182.31 1-35.42 7.63-70.35 14.2-105.07 15.55-75.12 39.42-148.24 68.71-219 87.65-207.65 217.93-395.22 368.54-562.07 166.6-183 359.68-343.65 576.59-463.69 117.72-64.38 242.98-116.89 374.72-144.28 79.08-16.69 161.13-20.65 241.27-9.43 64.63 11.34 128 36.48 177.94 79.85 62.31 53.21 98 131.63 110.82 211.44a694.17 694.17 0 0 1 5.43 118.94c-82.71-47.37-182.43-52.64-274.93-39.38-52 8.45-103.84 19.87-153.5 37.62-139.91 46-269.26 119.84-389.31 204.38-122.72 87.31-235.33 188.38-337.38 299-137.59 150.4-257.14 319.53-337.89 507.35-24.4 60.27-47 121.76-59.16 185.82-24.69 108.09-26.6 228.58 29.13 327.73-54.47 1.35-109.88.57-162.56-15.06-53.94-14-105.23-40.11-145.91-78.55-43.83-41.29-74.84-95.35-90.51-153.29" stroke="url(#0)"/><path d="M277.58,47.44c58.88-18.44,121.27-19,182.31-16.2,35.42,1,70.35,7.63,105.07,14.2C640.08,61,713.2,84.85,784,114.15c207.65,87.65,395.22,217.93,562.07,368.54,183,166.6,343.65,359.68,463.69,576.59,64.35,117.72,116.86,243,144.24,374.7,16.69,79.08,20.65,161.13,9.43,241.27-11.34,64.63-36.48,128-79.85,177.94-53.21,62.31-131.63,98-211.44,110.82a694.17,694.17,0,0,1-118.94,5.43c47.37-82.71,52.64-182.43,39.38-274.93-8.45-52-19.87-103.84-37.62-153.5-46-139.91-119.84-269.26-204.38-389.31-87.28-122.66-188.35-235.31-299-337.36C901.18,676.75,732.05,557.19,544.23,476.44,484,452,422.48,429.4,358.42,417.28c-108.09-24.69-228.58-26.6-327.73,29.13-1.35-54.47-.57-109.88,15.06-162.56,14-53.94,40.11-105.23,78.55-145.91C165.58,94.12,219.64,63.11,277.58,47.44Z" stroke="url(#1)"/></g></svg>