<svg xmlns="http://www.w3.org/2000/svg" viewBox="0 0 1999.74 1999.74"><g stroke="#ffff28" stroke-width="39.74" stroke-miterlimit="10"><circle cx="999.87" cy="999.87" r="980" fill="#323233"/><g fill="none"><circle cx="402.03" cy="718.14" r="117.62"/><path d="m1575.38 1705.32l-861.48-24.54-309-836.35 86.43-25.83 182.29 463.33h121.2l-131.23-603 74.65-14.93 118.71 617.8h95.37v-733.4l95.37 16.09v717.44h76.31l111-635.29 79.87 33.78-114.44 601.31h114.44l183-475.55 84.14 38.35-267.13 714.66 301 24.54-40.43 121.59" transform="translate(-.13-.13)"/><circle cx="671.55" cy="556.41" r="117.62"/><circle cx="1009.7" cy="438.89" r="117.62"/><circle cx="1323.22" cy="556.41" r="117.62"/><circle cx="1597.7" cy="718.14" r="117.62"/></g></g></svg>