<svg xmlns="http://www.w3.org/2000/svg" viewBox="0 0 2000 2000" width="2000" height="2000"><circle cx="1000" cy="1000" r="1000"/><path d="M400.53,1067.33q-1.8,4-3.93,7.8A103.47,103.47,0,0,1,353.33,1117l68.27,107.13h-97l-47.73-90.73H213.33v90.73H127.67V1067.07" fill="#fff"/><path d="M127.67,1061.53V896.2H275q65,0,100.8,29.2t35.8,82.13a126.67,126.67,0,0,1-11.07,54.27"/><path d="M213.33,1065.07h62.2A57.67,57.67,0,0,0,316,1051.73a48.87,48.87,0,0,0,14.27-37.87A46.67,46.67,0,0,0,316,977.13a58.4,58.4,0,0,0-40.47-12.87h-62.2v100.8Z"/><path d="M800,1061.8a178.93,178.93,0,0,1-23.13,90.6,170.13,170.13,0,0,1-63.53,63.8,187.8,187.8,0,0,1-181,0,167.73,167.73,0,0,1-63.6-63.8,180,180,0,0,1-23.13-90.8"/><path d="M445.27 1059.47A163.07 163.07 0 0 1 531.93 912.8a197.33 197.33 0 0 1 181 0 163.07 163.07 0 0 1 86.67 146.67" fill="#fff"/><path d="M578.33,985.53a91,91,0,0,0-33,34.87,104.4,104.4,0,0,0,0,98.2,95.13,95.13,0,0,0,33,35.07,83.07,83.07,0,0,0,44.93,12.87,81.93,81.93,0,0,0,44.67-12.87A90.47,90.47,0,0,0,700,1118.6a109,109,0,0,0,0-98.2,88.8,88.8,0,0,0-32.07-34.87,83.07,83.07,0,0,0-44.67-12.6A85.4,85.4,0,0,0,578.33,985.53Z"/><path d="M940.6,1138.53a61.93,61.93,0,0,0,46.33,18.73,58,58,0,0,0,44.67-18.47,70.53,70.53,0,0,0,17.07-49.8V896.2h85.6v192.73a149.73,149.73,0,0,1-18,74.6,121.87,121.87,0,0,1-51.47,49.33,168.33,168.33,0,0,1-78.13,17.33,171.2,171.2,0,0,1-78.8-17.33,124.13,124.13,0,0,1-52.4-49.33,146.67,146.67,0,0,1-18.47-74.6V896.2h85.6v192.73A68,68,0,0,0,940.6,1138.53ZM1272.67,1061v163.13h-80V1062.67m303.6-1.67v163.13H1421.4L1302.93,1061" fill="#fff"/><path d="M1417.13,1061l-0.4-164.8h79.53v165.6m-303.6,0V896.2H1268l129.87,164.13"/><path d="M1560,1068.07V896.2h141.27a194.2,194.2,0,0,1,91,20.6,150.73,150.73,0,0,1,61.53,57.73,164.6,164.6,0,0,1,22,85.33v9.67" fill="#fff"/><path d="M1788.33,1069.53v-8.73a103.93,103.93,0,0,0-11.47-49.6,83.87,83.87,0,0,0-31.6-33.33,88.13,88.13,0,0,0-45.87-11.93h-53.8v102.13"/><path d="M1881,1063.22c-0.9,27.82-13.64,54.67-27.2,79a153.33,153.33,0,0,1-62.67,60.6,194.8,194.8,0,0,1-92.87,21.53H1560l-5-164.07"/><path d="M1645.93,1060.27v94.67h58a77.6,77.6,0,0,0,44-12.73,84.47,84.47,0,0,0,29.93-36.2,122.07,122.07,0,0,0,10.47-44"/></svg>