<svg enable-background="new 0 0 364.8 364.7" viewBox="0 0 364.8 364.7" xmlns="http://www.w3.org/2000/svg" xmlns:xlink="http://www.w3.org/1999/xlink"><filter id="a" filterUnits="userSpaceOnUse" height="364.7" width="364.8" x="0" y="0"><feColorMatrix color-interpolation-filters="sRGB" result="source" type="matrix" values="-1 0 0 0 1  0 -1 0 0 1  0 0 -1 0 1  0 0 0 1 0"/></filter><linearGradient id="b" gradientUnits="userSpaceOnUse" x1="62.4545" x2="302.2954" y1="54.2933" y2="310.4567"><stop offset="0" stop-color="#d19b54"/><stop offset=".08476058" stop-color="#cd964d"/><stop offset=".2053" stop-color="#c28a3b"/><stop offset=".2345" stop-color="#bf8635"/><stop offset=".4818" stop-color="#ecd16a"/><stop offset=".7364" stop-color="#bf8635"/><stop offset="1" stop-color="#d19b54"/></linearGradient><linearGradient id="c" gradientUnits="userSpaceOnUse" x1="0" x2="364.75" y1="182.375" y2="182.375"><stop offset="0" stop-color="#c68e00"/><stop offset=".0346991" stop-color="#c99207"/><stop offset=".0841538" stop-color="#d19e19"/><stop offset=".1425" stop-color="#dfb238"/><stop offset=".207" stop-color="#f1cd63"/><stop offset=".2345" stop-color="#fada77"/><stop offset=".4818" stop-color="#c68e00"/><stop offset=".7364" stop-color="#fada77"/><stop offset="1" stop-color="#c68e00"/></linearGradient><mask id="d" height="364.7" maskUnits="userSpaceOnUse" width="364.8" x="0" y="0"><g filter="url(#a)"><image height="370" overflow="visible" transform="translate(-2.6667 -2.6667)" width="370" xlink:href="75024E1C.jpg"/></g></mask><linearGradient id="e" gradientUnits="userSpaceOnUse" x1="181.8771" x2="182.8771" y1="57.698" y2="306.0313"><stop offset="0" stop-color="#fdf9a5"/><stop offset=".05205547" stop-color="#fdf79e"/><stop offset=".1263" stop-color="#fcf08c"/><stop offset=".2137" stop-color="#fbe56d"/><stop offset=".3105" stop-color="#fad642"/><stop offset=".3655" stop-color="#f9cc27"/><stop offset=".7109" stop-color="#fdf9a5"/><stop offset="1" stop-color="#f9cc27"/></linearGradient><filter id="f" filterUnits="userSpaceOnUse" height="258" width="258" x="53.4" y="52.3"><feColorMatrix color-interpolation-filters="sRGB" result="source" type="matrix" values="-1 0 0 0 1  0 -1 0 0 1  0 0 -1 0 1  0 0 0 1 0"/></filter><mask id="g" height="258" maskUnits="userSpaceOnUse" width="258" x="53.4" y="52.3"><g filter="url(#f)"><image height="264" overflow="visible" transform="translate(51.3333 49.3333)" width="263" xlink:href="75024E1D.jpg"/></g></mask><linearGradient id="h" gradientUnits="userSpaceOnUse" x1="248.7333" x2="115.0667" y1="283.9666" y2="80.2999"><stop offset="0" stop-color="#e3ac4c"/><stop offset=".1267" stop-color="#e1a745"/><stop offset=".3068" stop-color="#dd9a33"/><stop offset=".3655" stop-color="#db942b"/><stop offset=".7109" stop-color="#f0da7d"/><stop offset="1" stop-color="#d5ae4f"/></linearGradient><linearGradient id="i" gradientUnits="userSpaceOnUse" x1="123.4475" x2="238.1301" y1="106.2505" y2="274.6222"><stop offset="0" stop-color="#e2b362"/><stop offset=".3333" stop-color="#f2f4ea"/><stop offset=".6666" stop-color="#e2b362"/><stop offset="1" stop-color="#f2f4ea"/></linearGradient><linearGradient id="j" gradientUnits="userSpaceOnUse" x1="179.8429" x2="180.8429" y1="13.9294" y2="58.9294"><stop offset="0" stop-color="#f5d21c"/><stop offset=".121" stop-color="#f5d423"/><stop offset=".2936" stop-color="#f7d835"/><stop offset=".497" stop-color="#f8df54"/><stop offset=".7241" stop-color="#fbe97f"/><stop offset=".968" stop-color="#fff5b5"/><stop offset="1" stop-color="#fff7bd"/></linearGradient><linearGradient id="k" gradientUnits="userSpaceOnUse" x1="173.6221" x2="173.9555" y1="353.3685" y2="312.7018"><stop offset="0" stop-color="#f5d21c"/><stop offset=".1228" stop-color="#f5d322"/><stop offset=".2922" stop-color="#f6d834"/><stop offset=".4889" stop-color="#f8de51"/><stop offset=".706" stop-color="#fbe87a"/><stop offset=".9374" stop-color="#fef3ae"/><stop offset="1" stop-color="#fff7bd"/></linearGradient><filter id="l" filterUnits="userSpaceOnUse" height="336.4" width="335.5" x="13.3" y="13.5"><feColorMatrix color-interpolation-filters="sRGB" result="source" type="matrix" values="-1 0 0 0 1  0 -1 0 0 1  0 0 -1 0 1  0 0 0 1 0"/></filter><mask id="m" height="336.4" maskUnits="userSpaceOnUse" width="335.5" x="13.3" y="13.5"><g filter="url(#l)"><image height="341" overflow="visible" transform="translate(10.3333 11.3333)" width="341" xlink:href="75024E1B.jpg"/></g></mask><circle cx="182.4" cy="182.4" fill="url(#b)" r="175.5"/><path d="m182.4 0c-100.7 0-182.4 81.7-182.4 182.4s81.7 182.4 182.4 182.4 182.4-81.7 182.4-182.4-81.7-182.4-182.4-182.4zm0 358.1c-96.9 0-175.5-78.6-175.5-175.5s78.6-175.5 175.5-175.5 175.5 78.6 175.5 175.5-78.6 175.5-175.5 175.5z" fill="url(#c)"/><g mask="url(#d)" opacity=".75"><path d="m182.4 0c-100.7 0-182.4 81.7-182.4 182.4s81.7 182.4 182.4 182.4 182.4-81.7 182.4-182.4-81.7-182.4-182.4-182.4zm0 358.1c-96.9 0-175.5-78.6-175.5-175.5s78.6-175.5 175.5-175.5 175.5 78.6 175.5 175.5-78.6 175.5-175.5 175.5z" fill="#020000"/></g><path d="m182.4 52.3c-71.3 0-129 57.8-129 129s57.8 129 129 129 129-57.8 129-129-57.8-129-129-129zm-1 251.1c-67.4 0-122.1-54.7-122.1-122.1s54.7-122 122.1-122 122.1 54.7 122.1 122.1-54.7 122-122.1 122z" fill="url(#e)"/><g mask="url(#g)" opacity=".75"><path d="m182.4 52.3c-71.3 0-129 57.8-129 129s57.8 129 129 129 129-57.8 129-129-57.8-129-129-129zm-1 251.1c-67.4 0-122.1-54.7-122.1-122.1s54.7-122 122.1-122 122.1 54.7 122.1 122.1-54.7 122-122.1 122z" fill="#020000"/></g><circle cx="181.4" cy="181.3" fill="url(#h)" r="122.1"/><path d="m217 205.8c-1.5-3.2-3.7-7-7-11-5.3-6.4-11.2-10.3-15.2-12.5 3.4-.5 16.9-3 27.3-15.4 10.4-12.3 10.6-26.1 10.5-29.5.2-4.6-.1-15.3-7-25.7-13-19.5-37.5-19.5-39.5-19.5-18.7 0-37.3 0-56 0l.8 169.5h19.5v-71.7h18c5.8 0 11.6 1.6 16.4 4.8.1.1.5.3 1 .7 6.3 4.6 9.5 10.3 10.6 12.3 3.4 6.1 15.6 26.3 31.9 54h23.3zm-35.7-33.6h-31.3v-62h31.3c1.7-.1 16.5-.5 24.8 10.5 5.1 6.8 5.1 14.4 5.1 18.3 0 3.6-.2 13.5-7.6 22.1-8.5 9.8-20 10.9-22.3 11.1z" fill="url(#i)"/><path d="m126 46.7c-.6-.4-1.6-.9-3-1.3-1.3-.3-2.5-.3-3.2-.3 4.9-2.3 6.9-8.3 4.5-12.8-1.8-3.4-5.8-5.3-9.7-4.7-1.2.2-2.3.7-3.4 1.3l-19.4 11.4 17.5 26.7 5.4-2.9-7.7-11.8 3.8-2.2c2.6-1.5 5.8-1.4 8.3.2l9.7 6.3 6.4-3.4c-3.1-2.2-6.1-4.4-9.2-6.5zm-10-4.8-10.9 6.4-5-8.3 11.2-6.1c1.6-.9 3.6-.9 5.1.2.5.4 1 .9 1.4 1.5.1.2.2.3.3.5.9 2.1-.1 4.6-2.1 5.8zm107.7 11.3-23.8-5 6.1-32.8 28.2 6-1.9 5.7-21.5-6.3-1.9 8.7 19.3 5.2-1.8 4.6-18-4.4-2.4 9.3 19.4 4.3zm-61.2-19c.7 5.3-1.3 10.7-5.5 13.9-1.4 1.1-3.1 2-4.9 2.5-.3.1-.6.2-.9.3-7.6 1.7-15.1-3.1-17.2-10.6-1.7-5.9-3.3-11.8-5-17.7l6.2-1.5c1.2 6.2 2.7 11.4 4 15.3 1.6 4.9 2.8 7.5 5.4 8.8 2.1 1.1 4.3 1 5.8.8 1.6-.2 3.6-.8 5-2.4 1.7-1.9 2-4.7.4-14.1-.6-3.4-1.4-7.8-2.6-12.8 2.2-.6 4.5-1.1 6.7-1.7zm34.1 1.5c-.6-4-4.1-6.3-4.8-6.7 2.9-1.6 4.7-4.6 4.5-7.8-.2-3.5-2.8-6.5-6.4-7.5-.8-.2-1.5-.3-2.3-.3h-19.7l2.2 33.3h15.6c3.9 0 7.7-1.9 9.7-5.3 1-1.7 1.5-3.7 1.2-5.7zm-11.5 6.4h-10.3v-10.4h10.3c2.5.3 4.5 2.5 4.6 4.9.1 2.7-1.9 5.1-4.6 5.5zm4.7-18.9c-.3 2.1-2.7 4.1-5.8 3.8h-10.1v-8.9h10.1c3.5-.2 6 2.7 5.8 5.1zm60.9 22.6c1.6 7.7 2.5 14.8 3 21.2l-5.8-2.1c-.3-5.2-.9-10.8-1.9-16.9-5.5 2.7-10.2 5.6-14.2 8.4-1.9-.7-3.8-1.3-5.7-2 5.5-3.5 11.9-7.1 19.1-10.6-1.4-7-3.1-13.3-4.9-18.8 1.8.6 3.5 1.1 5.3 1.7 1.5 4.6 2.9 9.6 4.2 15 5.4-2.4 10.5-4.3 15.3-5.9 1.3 1.1 2.6 2.3 3.9 3.4-5.4 1.4-11.6 3.5-18.3 6.6z" fill="url(#j)"/><path d="m122.3 340.6-5.8-2.7 9.1-23-19.1 18.9-4.9-2.1 2.8-26-12.2 20.7-5.1-2.4 16.7-27.2 5.9 2.8-2 27.3 19.5-19.1 5.2 2.5zm76.3-23-5.9.3 1.9 22.7-17.4-22.1-5.4.2-1.3 31.1h5.6l.4-22.8 18.4 22.8h6.6zm-48.4 30.3c-9.8.8-18.2-6.1-19-15.3-.7-9.2 6.6-17.3 16.4-18.1s18.2 6.1 19 15.3c.7 9.3-6.6 17.3-16.4 18.1zm10.2-16.8c0-6.7-5.2-12.1-11.5-12.1s-11.5 5.4-11.5 12.1 5.2 12.1 11.5 12.1 11.5-5.4 11.5-12.1zm77.1 5.2-22.7 5.7-1.6-9.6 17.5-4.5-.5-4.8-18 5-2.4-8.5 17.4-4.1c0-1.9-.1-3.8-.1-5.7-3.1 1.2-6.5 2.4-10.3 3.5-4.5 1.3-8.6 2.2-12.4 2.8 1.7 10.7 3.4 21.4 5.1 32.1 5.1-.9 10.7-2.2 16.5-3.9 4.1-1.2 7.9-2.4 11.5-3.8zm16.7-17.3 1.6-21.7-5.5 2.6-1.2 16.7-14.5-9.3-5.3 2.5 18.7 12.9 5.5 11 7-2.5z" fill="url(#k)"/><g fill="#fff662"><path d="m291.5 286.6c-2-.6-1.9-3.6.2-4 5-1 11.1-2.3 15.3-4.1 4.5-1.9 8.5-4 12.1-6-1.3 2.6-4.7 8.5-11.8 12.3-1.7.9-3.3 1.5-4.8 2-3 .9-6.3 1-9.3.3-.6-.1-1.1-.3-1.7-.5.1.1 0 .1 0 0zm40.7-35.4c-4.4 3.3-9.3 6.7-14.7 10-3.8 2.3-7.5 4.4-11 6.3-1.7.9-1.5 3.4.3 4h.1c1.6.5 2.9.4 3.7.3 2.6-.4 6.9-1.6 11.2-4.7 7.5-5.5 9.8-13.5 10.4-15.9zm-39 5.5c-1.1 3.1-1.3 5.9-1.3 8.1 0 .6 0 1.2.2 1.8.3 1.7.9 3.9 2.3 6.3.5 1 1.1 1.8 1.7 2.6 1 1.3 3 .5 2.9-1.1-.3-4-.3-8.5.1-13.5.5-6.2 1.6-11.6 2.8-16.1-2.3 1.5-6.5 5.4-8.7 11.9zm18.9-4.1c-.1-.4-.1-.8-.2-1.2-.5-4-.9-8.3-1.1-13-.1-3.9-.1-7.6.1-11-1.4 1.3-4 4.1-5.4 8.6-1 3.3-.9 6.2-.8 7.9 0 1.7.3 4.6 1.6 7.8.9 2.3 2.2 4.1 3.2 5.3.5.6 1.5.5 1.9-.2.2-.4.4-.9.6-1.4.3-1.2.2-2.2.1-2.8zm12.8-2.7s.1 0 0 0c3.9-1.1 7.3-3.4 9.7-6.6.5-.7 1-1.5 1.5-2.3 3.1-5 4.1-9.9 4.4-12.8-1.6 2.4-3.9 5.4-7.1 8.3-1.1 1-2.2 1.9-3.2 2.7-1.3 1-2.8 1.8-4.2 2.7-1 .6-2.1 1.2-3.1 2.1-2.4 1.9-4.1 3.9-5.4 5.7-.5.8.1 1.8 1 1.7 2.1-.4 4.2-.9 6.4-1.5zm-5-10.1c.6.6 1.7.1 1.7-.8 0-2.1-.2-4.6-.7-7.2-.3-1.8-.8-3.5-1.2-5-.6-1.9-1-3.7-1.3-5.7 0-.2-.1-.5-.1-.7-.6-4.3-.9-8.2-.8-11.8-1.3 2.4-2.8 5.8-3.6 10.1-.1.7-.2 1.3-.3 1.9-.6 4.4-.1 9 1.9 13 .4.9 1 1.8 1.6 2.7.8 1.4 1.8 2.5 2.8 3.5zm12.6-10.1c2.2-.7 3.7-2 4.3-2.7 1.6-1.7 3.6-4 5.3-7.1 3.3-6.1 3.7-11.9 3.8-15.1-1 2.4-2.7 5.6-5.3 8.8-2.3 2.9-4.7 4.9-6.7 6.3-1.2.8-2.9 2.1-4.4 3.9-1.8 2.2-2.9 4.3-3.4 5.8.8.4 3.4 1 6.4.1zm-5-13c.5.2 1-.1 1-.6 0-1.8-.2-4-.8-6.5-.7-2.8-1.7-5-2.6-6.7-.7-1.3-1.3-2.6-1.9-4.2-2.1-5.4-2.6-10.3-2.6-14.1-1.4 2.5-3.8 7.9-3.3 14.8.2 2.8.6 8.1 4.6 12.7 1.9 2.5 4 3.8 5.6 4.6zm4.3-11.8c-.6 1.3.7 2.6 2 2.1 3-1.1 7-3.6 8.5-5.4 1.9-2.2 4.7-6.2 6.2-12.5.3-1.3.5-3 .4-4.9-.1-2.5-.6-4.6-1.1-6.1-1.3 2.9-2.8 6-4.7 9.3-1.5 2.6-3 5-4.5 7.1-1.1 1.2-2.3 2.7-3.4 4.3-1.5 2.1-2.6 4.2-3.4 6.1zm.1-13.4c1.1.5 2.2-.7 1.7-1.7-.7-1.3-1.3-2.6-2-4-1-2-2.1-3.9-3.1-5.7-.9-1.6-1.9-3.1-2.9-4.6-.7-1-1.4-2.1-2-3.3-1.9-3.5-3-6.7-3.7-9.4-.4 3.6-.5 7.6-.3 11.9.2 3.5 1.4 7 3.6 9.8.4.5.9 1.1 1.4 1.6 2.4 2.7 5.1 4.4 7.3 5.4zm-1.1-28.1c-.9-1.5-1.9-2.8-2.8-4.1-1.3-1.7-2.7-3.2-4.1-4.8-.2-.2-.4-.5-.7-.8-3.8-4.6-5.4-9.6-6.1-13.3-.4 1.6-2.6 12.3 4.4 21.6 3.6 4.8 7.4 6.6 10.1 7.5.8.3 1.6-.5 1.3-1.3-.4-1.4-.8-2.8-2.1-4.8zm12.7 12c7.3-10.1 2.8-22.5 2.4-23.7-.9 3.3-2 6.7-3.5 10.4-.4.9-.8 1.9-1.2 2.8s-.8 1.7-1.3 2.5c-.9 1.7-1.9 3.6-2.8 5.7-1.4 3.3-2.4 6.3-3 9-.1.3.3.6.6.5 2.3-1.2 5.9-3.3 8.8-7.2zm-10.9-17.9c0 .7.7 1 1.3.6 2-1.6 4.4-4 6.3-7.4 5.9-10.8.9-22.4.1-24-.6 3.4-1.5 7-2.8 10.9-.5 1.7-1.1 3.3-1.7 4.9-.5 1.1-.9 2.4-1.3 3.7-1.3 4.1-1.8 8-1.9 11.3z"/><path d="m317 111.8 3.8 2.7 3.7-2.8-.6 5 4.4 1.5-4.5 2.2.9 4.4-3.8-3-3.7 3.1-.1-5-3.7-1.5 3.7-1.9zm-12.2-16.1-3.6 2.1 3.8 1.2.4 4.9 3.5-3.3 4 2.8-1.1-4.3 4.4-2.5-4.5-1.2.3-5-3.5 3-4-2.4zm-15-18.4-3.3 2.5 3.9.8 1 4.8 3-3.8 4.3 2.2-1.7-4.1 4-3-4.6-.6-.3-5-3.1 3.4-4.3-1.9z"/><path d="m70.6 288.1c-.5.2-1.1.3-1.6.4-3.1.8-6.3.7-9.3-.3-1.5-.5-3.2-1.1-4.8-2-7.1-3.8-10.6-9.8-11.8-12.3 3.6 2 7.6 4.1 12.1 6 4.3 1.8 10.3 3.1 15.3 4.1 2 .5 2.2 3.4.1 4.1 0-.1 0 0 0 0zm-30.1-19.5c4.3 3.1 8.6 4.2 11.2 4.7.7.1 2.1.2 3.7-.3h.1c1.8-.6 1.9-3.1.3-4-3.5-1.9-7.2-4-11-6.3-5.4-3.3-10.3-6.7-14.7-10 .5 2.3 2.7 10.3 10.4 15.9zm20-22.5c1.2 4.5 2.3 9.9 2.8 16.1.4 5 .4 9.5.1 13.5-.1 1.6 1.9 2.4 2.9 1.1.6-.7 1.1-1.6 1.7-2.6 1.3-2.4 2-4.6 2.3-6.3.1-.6.2-1.2.2-1.8 0-2.1-.3-5-1.3-8.1-2.4-6.4-6.7-10.3-8.7-11.9zm-10.4 10.7c.1.6.4 1 .6 1.4.4.7 1.4.8 1.9.2 1-1.3 2.2-3 3.2-5.3 1.3-3.2 1.6-6.1 1.6-7.8.2-1.7.3-4.6-.8-7.9-1.4-4.5-4.1-7.3-5.4-8.6.2 3.4.2 7.1.1 11-.2 4.7-.5 9-1.1 13-.1.4-.1.8-.2 1.2-.1.6-.2 1.6.1 2.8zm-6.5-4.1c.9.2 1.6-.9 1-1.7-1.2-1.8-3-3.8-5.4-5.7-1.1-.8-2.1-1.5-3.1-2.1-1.4-.8-2.9-1.7-4.2-2.7-1.1-.8-2.1-1.7-3.2-2.7-3.2-2.9-5.5-5.9-7.1-8.3.3 2.9 1.3 7.7 4.4 12.8.5.8 1 1.6 1.5 2.3 2.4 3.2 5.8 5.6 9.7 6.6h.1c2.2.7 4.3 1.2 6.3 1.5zm1.6-15c.6-.9 1.2-1.8 1.6-2.7 2-4 2.5-8.6 1.9-13-.1-.6-.2-1.3-.3-1.9-.8-4.3-2.3-7.7-3.6-10.1 0 3.6-.2 7.6-.8 11.8 0 .2-.1.5-.1.7-.3 1.9-.8 3.8-1.3 5.7-.5 1.5-.9 3.2-1.2 5-.5 2.7-.7 5.1-.7 7.2 0 .9 1 1.4 1.7.8.9-1 1.9-2.1 2.8-3.5zm-9.1-6.6c-.6-1.5-1.6-3.6-3.4-5.8-1.6-1.9-3.2-3.1-4.4-3.9-1.9-1.4-4.3-3.5-6.7-6.3-2.7-3.3-4.3-6.4-5.3-8.8 0 3.2.5 9 3.8 15.1 1.7 3.1 3.6 5.4 5.3 7.1.7.7 2.1 2 4.3 2.8 2.9.7 5.5.1 6.4-.2zm4.2-17.4c4-4.7 4.4-10 4.6-12.7.5-6.9-1.9-12.3-3.3-14.8 0 3.8-.5 8.7-2.6 14.1-.6 1.5-1.2 2.9-1.9 4.2-.9 1.6-1.9 3.9-2.6 6.7-.6 2.5-.8 4.7-.8 6.5 0 .5.5.8 1 .6 1.5-1 3.7-2.3 5.6-4.6zm-13.3-13.6c-1.1-1.7-2.3-3.1-3.4-4.3-1.5-2.1-3-4.5-4.5-7.1-1.9-3.3-3.4-6.4-4.7-9.3-.5 1.5-1 3.6-1.1 6.1-.1 1.9.2 3.6.4 4.9 1.5 6.3 4.3 10.3 6.2 12.5 1.5 1.8 5.5 4.4 8.5 5.4 1.3.5 2.6-.9 2-2.1-.9-1.8-2-3.9-3.4-6.1zm10.6-12.6c.5-.5 1-1.1 1.4-1.6 2.2-2.8 3.4-6.2 3.6-9.8.2-4.3 0-8.3-.3-11.9-.7 2.6-1.8 5.9-3.7 9.4-.7 1.2-1.3 2.3-2 3.3-1 1.5-2 3-2.9 4.6-1 1.8-2.1 3.7-3.1 5.7-.7 1.3-1.4 2.7-2 4-.5 1.1.6 2.3 1.7 1.7 2.1-1.1 4.8-2.7 7.3-5.4zm-8.5-17.8c-.3.8.5 1.6 1.3 1.3 2.6-.9 6.4-2.7 10.1-7.5 7-9.3 4.8-19.9 4.4-21.6-.7 3.7-2.2 8.7-6.1 13.3-.2.3-.4.5-.7.8-1.4 1.6-2.8 3.1-4.1 4.8-.9 1.3-1.9 2.6-2.8 4.1-1.2 1.9-1.5 3.3-2.1 4.8zm-1.6 14.2c.3.1.7-.1.6-.5-.7-2.7-1.7-5.7-3-9-.9-2.1-1.8-4-2.8-5.7-.5-.8-.9-1.7-1.3-2.5-.4-.9-.8-1.8-1.2-2.8-1.5-3.6-2.6-7.1-3.5-10.4-.5 1.2-4.9 13.6 2.4 23.7 2.8 4 6.4 6.1 8.8 7.2zm.2-36.3c-.4-1.3-.8-2.5-1.3-3.7-.6-1.6-1.2-3.2-1.7-4.9-1.2-3.8-2.1-7.5-2.8-10.9-.7 1.6-5.8 13.2.1 24 1.8 3.4 4.2 5.8 6.3 7.4.5.4 1.3 0 1.3-.6-.2-3.3-.7-7.2-1.9-11.3z"/><path d="m44.9 117.2 3.7 1.9-3.7 1.5-.1 5-3.7-3.1-3.8 3 .9-4.4-4.5-2.2 4.4-1.5-.6-5 3.7 2.8 3.8-2.7zm12.7-25.4-4 2.4-3.5-3 .3 5-4.5 1.2 4.4 2.5-1.1 4.3 4-2.8 3.5 3.3.4-4.9 3.8-1.2-3.6-2.1zm15.5-18.4-4.3 1.9-3.1-3.4-.3 5-4.6.6 4 3-1.7 4.1 4.3-2.2 3 3.8 1-4.8 3.9-.8-3.1-2.6z"/></g><g fill="#020000" mask="url(#m)" opacity=".75"><path d="m217 205.8c-1.5-3.2-3.7-7-7-11-5.3-6.4-11.2-10.3-15.2-12.5 3.4-.5 16.9-3 27.3-15.4 10.4-12.3 10.6-26.1 10.5-29.5.2-4.6-.1-15.3-7-25.7-13-19.5-37.5-19.5-39.5-19.5-18.7 0-37.3 0-56 0l.8 169.5h19.5v-71.7h18c5.8 0 11.6 1.6 16.4 4.8.1.1.5.3 1 .7 6.3 4.6 9.5 10.3 10.6 12.3 3.4 6.1 15.6 26.3 31.9 54h23.3zm-35.7-33.6h-31.3v-62h31.3c1.7-.1 16.5-.5 24.8 10.5 5.1 6.8 5.1 14.4 5.1 18.3 0 3.6-.2 13.5-7.6 22.1-8.5 9.8-20 10.9-22.3 11.1z"/><path d="m126 46.7c-.6-.4-1.6-.9-3-1.3-1.3-.3-2.5-.3-3.2-.3 4.9-2.3 6.9-8.3 4.5-12.8-1.8-3.4-5.8-5.3-9.7-4.7-1.2.2-2.3.7-3.4 1.3l-19.4 11.4 17.5 26.7 5.4-2.9-7.7-11.8 3.8-2.2c2.6-1.5 5.8-1.4 8.3.2l9.7 6.3 6.4-3.4c-3.1-2.2-6.1-4.4-9.2-6.5zm-10-4.8-10.9 6.4-5-8.3 11.2-6.1c1.6-.9 3.6-.9 5.1.2.5.4 1 .9 1.4 1.5.1.2.2.3.3.5.9 2.1-.1 4.6-2.1 5.8zm107.7 11.3-23.8-5 6.1-32.8 28.2 6-1.9 5.7-21.5-6.3-1.9 8.7 19.3 5.2-1.8 4.6-18-4.4-2.4 9.3 19.4 4.3zm-61.2-19c.7 5.3-1.3 10.7-5.5 13.9-1.4 1.1-3.1 2-4.9 2.5-.3.1-.6.2-.9.3-7.6 1.7-15.1-3.1-17.2-10.6-1.7-5.9-3.3-11.8-5-17.7l6.2-1.5c1.2 6.2 2.7 11.4 4 15.3 1.6 4.9 2.8 7.5 5.4 8.8 2.1 1.1 4.3 1 5.8.8 1.6-.2 3.6-.8 5-2.4 1.7-1.9 2-4.7.4-14.1-.6-3.4-1.4-7.8-2.6-12.8 2.2-.6 4.5-1.1 6.7-1.7zm34.1 1.5c-.6-4-4.1-6.3-4.8-6.7 2.9-1.6 4.7-4.6 4.5-7.8-.2-3.5-2.8-6.5-6.4-7.5-.8-.2-1.5-.3-2.3-.3h-19.7l2.2 33.3h15.6c3.9 0 7.7-1.9 9.7-5.3 1-1.7 1.5-3.7 1.2-5.7zm-11.5 6.4h-10.3v-10.4h10.3c2.5.3 4.5 2.5 4.6 4.9.1 2.7-1.9 5.1-4.6 5.5zm4.7-18.9c-.3 2.1-2.7 4.1-5.8 3.8h-10.1v-8.9h10.1c3.5-.2 6 2.7 5.8 5.1zm60.9 22.6c1.6 7.7 2.5 14.8 3 21.2l-5.8-2.1c-.3-5.2-.9-10.8-1.9-16.9-5.5 2.7-10.2 5.6-14.2 8.4-1.9-.7-3.8-1.3-5.7-2 5.5-3.5 11.9-7.1 19.1-10.6-1.4-7-3.1-13.3-4.9-18.8 1.8.6 3.5 1.1 5.3 1.7 1.5 4.6 2.9 9.6 4.2 15 5.4-2.4 10.5-4.3 15.3-5.9 1.3 1.1 2.6 2.3 3.9 3.4-5.4 1.4-11.6 3.5-18.3 6.6z"/><path d="m122.3 340.6-5.8-2.7 9.1-23-19.1 18.9-4.9-2.1 2.8-26-12.2 20.7-5.1-2.4 16.7-27.2 5.9 2.8-2 27.3 19.5-19.1 5.2 2.5zm76.3-23-5.9.3 1.9 22.7-17.4-22.1-5.4.2-1.3 31.1h5.6l.4-22.8 18.4 22.8h6.6zm-48.4 30.3c-9.8.8-18.2-6.1-19-15.3-.7-9.2 6.6-17.3 16.4-18.1s18.2 6.1 19 15.3c.7 9.3-6.6 17.3-16.4 18.1zm10.2-16.8c0-6.7-5.2-12.1-11.5-12.1s-11.5 5.4-11.5 12.1 5.2 12.1 11.5 12.1 11.5-5.4 11.5-12.1zm77.1 5.2-22.7 5.7-1.6-9.6 17.5-4.5-.5-4.8-18 5-2.4-8.5 17.4-4.1c0-1.9-.1-3.8-.1-5.7-3.1 1.2-6.5 2.4-10.3 3.5-4.5 1.3-8.6 2.2-12.4 2.8 1.7 10.7 3.4 21.4 5.1 32.1 5.1-.9 10.7-2.2 16.5-3.9 4.1-1.2 7.9-2.4 11.5-3.8zm16.7-17.3 1.6-21.7-5.5 2.6-1.2 16.7-14.5-9.3-5.3 2.5 18.7 12.9 5.5 11 7-2.5z"/><path d="m291.5 286.6c-2-.6-1.9-3.6.2-4 5-1 11.1-2.3 15.3-4.1 4.5-1.9 8.5-4 12.1-6-1.3 2.6-4.7 8.5-11.8 12.3-1.7.9-3.3 1.5-4.8 2-3 .9-6.3 1-9.3.3-.6-.1-1.1-.3-1.7-.5.1.1 0 .1 0 0zm40.7-35.4c-4.4 3.3-9.3 6.7-14.7 10-3.8 2.3-7.5 4.4-11 6.3-1.7.9-1.5 3.4.3 4h.1c1.6.5 2.9.4 3.7.3 2.6-.4 6.9-1.6 11.2-4.7 7.5-5.5 9.8-13.5 10.4-15.9zm-39 5.5c-1.1 3.1-1.3 5.9-1.3 8.1 0 .6 0 1.2.2 1.8.3 1.7.9 3.9 2.3 6.3.5 1 1.1 1.8 1.7 2.6 1 1.3 3 .5 2.9-1.1-.3-4-.3-8.5.1-13.5.5-6.2 1.6-11.6 2.8-16.1-2.3 1.5-6.5 5.4-8.7 11.9zm18.9-4.1c-.1-.4-.1-.8-.2-1.2-.5-4-.9-8.3-1.1-13-.1-3.9-.1-7.6.1-11-1.4 1.3-4 4.1-5.4 8.6-1 3.3-.9 6.2-.8 7.9 0 1.7.3 4.6 1.6 7.8.9 2.3 2.2 4.1 3.2 5.3.5.6 1.5.5 1.9-.2.2-.4.4-.9.6-1.4.3-1.2.2-2.2.1-2.8zm12.8-2.7s.1 0 0 0c3.9-1.1 7.3-3.4 9.7-6.6.5-.7 1-1.5 1.5-2.3 3.1-5 4.1-9.9 4.4-12.8-1.6 2.4-3.9 5.4-7.1 8.3-1.1 1-2.2 1.9-3.2 2.7-1.3 1-2.8 1.8-4.2 2.7-1 .6-2.1 1.2-3.1 2.1-2.4 1.9-4.1 3.9-5.4 5.7-.5.8.1 1.8 1 1.7 2.1-.4 4.2-.9 6.4-1.5zm-5-10.1c.6.6 1.7.1 1.7-.8 0-2.1-.2-4.6-.7-7.2-.3-1.8-.8-3.5-1.2-5-.6-1.9-1-3.7-1.3-5.7 0-.2-.1-.5-.1-.7-.6-4.3-.9-8.2-.8-11.8-1.3 2.4-2.8 5.8-3.6 10.1-.1.7-.2 1.3-.3 1.9-.6 4.4-.1 9 1.9 13 .4.9 1 1.8 1.6 2.7.8 1.4 1.8 2.5 2.8 3.5zm12.6-10.1c2.2-.7 3.7-2 4.3-2.7 1.6-1.7 3.6-4 5.3-7.1 3.3-6.1 3.7-11.9 3.8-15.1-1 2.4-2.7 5.6-5.3 8.8-2.3 2.9-4.7 4.9-6.7 6.3-1.2.8-2.9 2.1-4.4 3.9-1.8 2.2-2.9 4.3-3.4 5.8.8.4 3.4 1 6.4.1zm-5-13c.5.2 1-.1 1-.6 0-1.8-.2-4-.8-6.5-.7-2.8-1.7-5-2.6-6.7-.7-1.3-1.3-2.6-1.9-4.2-2.1-5.4-2.6-10.3-2.6-14.1-1.4 2.5-3.8 7.9-3.3 14.8.2 2.8.6 8.1 4.6 12.7 1.9 2.5 4 3.8 5.6 4.6zm4.3-11.8c-.6 1.3.7 2.6 2 2.1 3-1.1 7-3.6 8.5-5.4 1.9-2.2 4.7-6.2 6.2-12.5.3-1.3.5-3 .4-4.9-.1-2.5-.6-4.6-1.1-6.1-1.3 2.9-2.8 6-4.7 9.3-1.5 2.6-3 5-4.5 7.1-1.1 1.2-2.3 2.7-3.4 4.3-1.5 2.1-2.6 4.2-3.4 6.1zm.1-13.4c1.1.5 2.2-.7 1.7-1.7-.7-1.3-1.3-2.6-2-4-1-2-2.1-3.9-3.1-5.7-.9-1.6-1.9-3.1-2.9-4.6-.7-1-1.4-2.1-2-3.3-1.9-3.5-3-6.7-3.7-9.4-.4 3.6-.5 7.6-.3 11.9.2 3.5 1.4 7 3.6 9.8.4.5.9 1.1 1.4 1.6 2.4 2.7 5.1 4.4 7.3 5.4zm-1.1-28.1c-.9-1.5-1.9-2.8-2.8-4.1-1.3-1.7-2.7-3.2-4.1-4.8-.2-.2-.4-.5-.7-.8-3.8-4.6-5.4-9.6-6.1-13.3-.4 1.6-2.6 12.3 4.4 21.6 3.6 4.8 7.4 6.6 10.1 7.5.8.3 1.6-.5 1.3-1.3-.4-1.4-.8-2.8-2.1-4.8zm12.7 12c7.3-10.1 2.8-22.5 2.4-23.7-.9 3.3-2 6.7-3.5 10.4-.4.9-.8 1.9-1.2 2.8s-.8 1.7-1.3 2.5c-.9 1.7-1.9 3.6-2.8 5.7-1.4 3.3-2.4 6.3-3 9-.1.3.3.6.6.5 2.3-1.2 5.9-3.3 8.8-7.2zm-10.9-17.9c0 .7.7 1 1.3.6 2-1.6 4.4-4 6.3-7.4 5.9-10.8.9-22.4.1-24-.6 3.4-1.5 7-2.8 10.9-.5 1.7-1.1 3.3-1.7 4.9-.5 1.1-.9 2.4-1.3 3.7-1.3 4.1-1.8 8-1.9 11.3z"/><path d="m317 111.8 3.8 2.7 3.7-2.8-.6 5 4.4 1.5-4.5 2.2.9 4.4-3.8-3-3.7 3.1-.1-5-3.7-1.5 3.7-1.9zm-12.2-16.1-3.6 2.1 3.8 1.2.4 4.9 3.5-3.3 4 2.8-1.1-4.3 4.4-2.5-4.5-1.2.3-5-3.5 3-4-2.4zm-15-18.4-3.3 2.5 3.9.8 1 4.8 3-3.8 4.3 2.2-1.7-4.1 4-3-4.6-.6-.3-5-3.1 3.4-4.3-1.9z"/><path d="m70.6 288.1c-.5.2-1.1.3-1.6.4-3.1.8-6.3.7-9.3-.3-1.5-.5-3.2-1.1-4.8-2-7.1-3.8-10.6-9.8-11.8-12.3 3.6 2 7.6 4.1 12.1 6 4.3 1.8 10.3 3.1 15.3 4.1 2 .5 2.2 3.4.1 4.1 0-.1 0 0 0 0zm-30.1-19.5c4.3 3.1 8.6 4.2 11.2 4.7.7.1 2.1.2 3.7-.3h.1c1.8-.6 1.9-3.1.3-4-3.5-1.9-7.2-4-11-6.3-5.4-3.3-10.3-6.7-14.7-10 .5 2.3 2.7 10.3 10.4 15.9zm20-22.5c1.2 4.5 2.3 9.9 2.8 16.1.4 5 .4 9.5.1 13.5-.1 1.6 1.9 2.4 2.9 1.1.6-.7 1.1-1.6 1.7-2.6 1.3-2.4 2-4.6 2.3-6.3.1-.6.2-1.2.2-1.8 0-2.1-.3-5-1.3-8.1-2.4-6.4-6.7-10.3-8.7-11.9zm-10.4 10.7c.1.6.4 1 .6 1.4.4.7 1.4.8 1.9.2 1-1.3 2.2-3 3.2-5.3 1.3-3.2 1.6-6.1 1.6-7.8.2-1.7.3-4.6-.8-7.9-1.4-4.5-4.1-7.3-5.4-8.6.2 3.4.2 7.1.1 11-.2 4.7-.5 9-1.1 13-.1.4-.1.8-.2 1.2-.1.6-.2 1.6.1 2.8zm-6.5-4.1c.9.2 1.6-.9 1-1.7-1.2-1.8-3-3.8-5.4-5.7-1.1-.8-2.1-1.5-3.1-2.1-1.4-.8-2.9-1.7-4.2-2.7-1.1-.8-2.1-1.7-3.2-2.7-3.2-2.9-5.5-5.9-7.1-8.3.3 2.9 1.3 7.7 4.4 12.8.5.8 1 1.6 1.5 2.3 2.4 3.2 5.8 5.6 9.7 6.6h.1c2.2.7 4.3 1.2 6.3 1.5zm1.6-15c.6-.9 1.2-1.8 1.6-2.7 2-4 2.5-8.6 1.9-13-.1-.6-.2-1.3-.3-1.9-.8-4.3-2.3-7.7-3.6-10.1 0 3.6-.2 7.6-.8 11.8 0 .2-.1.5-.1.7-.3 1.9-.8 3.8-1.3 5.7-.5 1.5-.9 3.2-1.2 5-.5 2.7-.7 5.1-.7 7.2 0 .9 1 1.4 1.7.8.9-1 1.9-2.1 2.8-3.5zm-9.1-6.6c-.6-1.5-1.6-3.6-3.4-5.8-1.6-1.9-3.2-3.1-4.4-3.9-1.9-1.4-4.3-3.5-6.7-6.3-2.7-3.3-4.3-6.4-5.3-8.8 0 3.2.5 9 3.8 15.1 1.7 3.1 3.6 5.4 5.3 7.1.7.7 2.1 2 4.3 2.8 2.9.7 5.5.1 6.4-.2zm4.2-17.4c4-4.7 4.4-10 4.6-12.7.5-6.9-1.9-12.3-3.3-14.8 0 3.8-.5 8.7-2.6 14.1-.6 1.5-1.2 2.9-1.9 4.2-.9 1.6-1.9 3.9-2.6 6.7-.6 2.5-.8 4.7-.8 6.5 0 .5.5.8 1 .6 1.5-1 3.7-2.3 5.6-4.6zm-13.3-13.6c-1.1-1.7-2.3-3.1-3.4-4.3-1.5-2.1-3-4.5-4.5-7.1-1.9-3.3-3.4-6.4-4.7-9.3-.5 1.5-1 3.6-1.1 6.1-.1 1.9.2 3.6.4 4.9 1.5 6.3 4.3 10.3 6.2 12.5 1.5 1.8 5.5 4.4 8.5 5.4 1.3.5 2.6-.9 2-2.1-.9-1.8-2-3.9-3.4-6.1zm10.6-12.6c.5-.5 1-1.1 1.4-1.6 2.2-2.8 3.4-6.2 3.6-9.8.2-4.3 0-8.3-.3-11.9-.7 2.6-1.8 5.9-3.7 9.4-.7 1.2-1.3 2.3-2 3.3-1 1.5-2 3-2.9 4.6-1 1.8-2.1 3.7-3.1 5.7-.7 1.3-1.4 2.7-2 4-.5 1.1.6 2.3 1.7 1.7 2.1-1.1 4.8-2.7 7.3-5.4zm-8.5-17.8c-.3.8.5 1.6 1.3 1.3 2.6-.9 6.4-2.7 10.1-7.5 7-9.3 4.8-19.9 4.4-21.6-.7 3.7-2.2 8.7-6.1 13.3-.2.3-.4.5-.7.8-1.4 1.6-2.8 3.1-4.1 4.8-.9 1.3-1.9 2.6-2.8 4.1-1.2 1.9-1.5 3.3-2.1 4.8zm-1.6 14.2c.3.1.7-.1.6-.5-.7-2.7-1.7-5.7-3-9-.9-2.1-1.8-4-2.8-5.7-.5-.8-.9-1.7-1.3-2.5-.4-.9-.8-1.8-1.2-2.8-1.5-3.6-2.6-7.1-3.5-10.4-.5 1.2-4.9 13.6 2.4 23.7 2.8 4 6.4 6.1 8.8 7.2zm.2-36.3c-.4-1.3-.8-2.5-1.3-3.7-.6-1.6-1.2-3.2-1.7-4.9-1.2-3.8-2.1-7.5-2.8-10.9-.7 1.6-5.8 13.2.1 24 1.8 3.4 4.2 5.8 6.3 7.4.5.4 1.3 0 1.3-.6-.2-3.3-.7-7.2-1.9-11.3z"/><path d="m44.9 117.2 3.7 1.9-3.7 1.5-.1 5-3.7-3.1-3.8 3 .9-4.4-4.5-2.2 4.4-1.5-.6-5 3.7 2.8 3.8-2.7zm12.7-25.4-4 2.4-3.5-3 .3 5-4.5 1.2 4.4 2.5-1.1 4.3 4-2.8 3.5 3.3.4-4.9 3.8-1.2-3.6-2.1zm15.5-18.4-4.3 1.9-3.1-3.4-.3 5-4.6.6 4 3-1.7 4.1 4.3-2.2 3 3.8 1-4.8 3.9-.8-3.1-2.6z"/></g></svg>