<svg enable-background="new 0 0 227 186.6" viewBox="0 0 227 186.6" xmlns="http://www.w3.org/2000/svg"><g fill="#d9001f"><path d="m113.5 93 20.2-17.3-20.2-8.9-20.2 8.9zm30.6-26.3h-25l16.5 7.3zm-57.3 26.7 2.7-15.2-19.4 15.2zm53.3 2.3-12.5 39.8 30.4-39.8zm-48.1-18.1-2.8 15.8h21.1zm7.4 58-12.5-39.9h-17.9zm60.1-43.2 3.2-20.6-15.2-4.9-9.9 8.5zm15.9 1-10.7-18.9-3 18.9zm-63.4 2.3h-22.6l13 41.4zm12.7 41.5 13-41.4h-22.7zm64-43.8-20.3-17.2 9.8 17.2zm-31.7 0-19.4-15.2 2.7 15.2zm-40.3 0h21.1l-2.8-15.8zm-51.4 0-3-18.9-10.7 18.9zm60.3 48.8-9.4 30.1 22.7-23.8 17.6-46.8zm35.6-46.5-16.8 44.8 30.8-44.8zm-47.7 4.1-9.8 41.9 9.8 31.2 9.8-31.3z"/><path d="m148.4 58.8h-69.8l-19 6.1-34.3 29.1 88.2 92.6 88.2-92.6-34.3-29.1zm44.3 34.9c.1 0 .1.1 0 0l.2.2c0 .1.1.1.1.2v.1.1.1.1.1.1.1.1s0 .1-.1.1v.1s-.1.1-.1.1 0 0-.1.1l-78.4 82.3c-.1.1-.2.1-.3.2-.1 0-.1.1-.2.1h-.1c-.1 0-.2 0-.3 0-.1 0-.2 0-.3 0h-.1c-.1 0-.1-.1-.2-.1-.1-.1-.2-.1-.2-.2l-78.4-82.2s0 0-.1-.1c0 0-.1-.1-.1-.1v-.1s0-.1-.1-.1v-.1-.1-.1-.1-.1-.1-.1-.1-.1s0-.1.1-.1c0-.1.1-.1.2-.2l28-23.8h.1c.1-.1.2-.1.3-.2h.1l16.8-5.4h.3 67.6c.1 0 .2 0 .3.1l16.8 5.4h.1c.1 0 .2.1.3.2h.1z"/><path d="m107.9 66.7h-25l8.5 7.3zm41.4 70.9 39.8-41.8h-11.1zm-78.7-35.9 17.6 46.8 22.7 23.8-9.4-30.1zm18.7-26.4-9.9-8.5-15.2 4.9 3.2 20.6zm-30.7.9-20.3 17.2h10.5zm-20.7 19.5 39.8 41.8-28.8-41.8zm13.9 0 30.8 44.8-16.8-44.8zm-39.6 37.9-10.7 2.6c-1.1.3-1.7 1.3-1.4 2.4.2.9 1 1.5 1.9 1.5.2 0 .3 0 .5-.1l10.7-2.6c1.1-.3 1.7-1.3 1.4-2.4-.3-1-1.4-1.6-2.4-1.4zm3-52.2-10.7-3.2c-1-.3-2.1.3-2.5 1.3-.3 1 .3 2.1 1.3 2.5l10.7 3.3c1 .3 2.2-.3 2.5-1.3.3-1.1-.2-2.2-1.3-2.6zm25.3-41.4c.8.8 2 .8 2.8 0s.8-2 0-2.8l-7.8-8c-.8-.8-2-.7-2.8.1-.7.7-.7 1.9 0 2.7 0 0 7.8 8 7.8 8zm45.1-26.6c.2.9 1 1.4 1.9 1.4.2 0 .4 0 .5-.1 1.1-.3 1.7-1.4 1.4-2.4l-3-10.9c-.3-1-1.4-1.7-2.5-1.3-1 .3-1.6 1.4-1.4 2.4zm139.9 122.9-10.7-2.6c-1.1-.3-2.1.4-2.4 1.4-.3 1.1.4 2.1 1.4 2.4l10.7 2.6c.2 0 .3.1.5.1.9 0 1.7-.6 1.9-1.5.3-1.1-.3-2.2-1.4-2.4zm-1.8-54.4c1-.3 1.6-1.4 1.3-2.5-.3-1-1.4-1.6-2.5-1.3l-10.7 3.3c-1 .3-1.6 1.4-1.3 2.5.3.8 1 1.4 1.9 1.4.2 0 .4 0 .6-.1 0 0 10.7-3.3 10.7-3.3zm-38.6-41.3c.5 0 1-.2 1.4-.6l7.8-8c.8-.8.8-2 .1-2.8-.8-.8-2-.8-2.8-.1 0 0-.1.1-.1.1l-7.8 8c-.8.8-.7 2 0 2.8.4.4.9.6 1.4.6zm-46.1-25.8c.2 0 .4.1.5.1.9 0 1.7-.6 1.9-1.4l3.1-10.9c.3-1.1-.3-2.1-1.4-2.4-1.1-.3-2.1.3-2.4 1.4l-3.1 10.9c-.3.9.3 2 1.4 2.3z"/></g></svg>