<svg xmlns="http://www.w3.org/2000/svg" viewBox="0 0 2000 2000" width="2000" height="2000"><path d="M800.74,1806.38C355.52,1696,84,1245.58,194.39,800.28A830.59,830.59,0,0,1,800.74,193.82V20.16C259.59,130.22-89.79,658.17,20.25,1199.42c80,393.29,387.27,700.7,780.48,780.63V1806.38Zm135-1634.13c21.57-1.71,43.23-2.82,65.1-2.82a839.17,839.17,0,0,1,98.05,5.75V4.94q-49-4.84-98.05-4.94c-22.17,0-43.53,1-65.1,2.32V172.25h0Z" fill="#231f20"/><path d="M1233.86,27.62v175a833.18,833.18,0,0,1,534.5,479.56H1578.1C1402.55,363.45,1002,247.34,683.24,422.92s-434.73,576.22-259.19,895,576.12,434.81,894.86,259.24a659.05,659.05,0,0,0,291-325.45h182.7a832.74,832.74,0,0,1-558.68,546v174.87c536.82-129.32,867.25-669.35,738.06-1206.27A1000,1000,0,0,0,1234,28.12l-0.1-.5h0Zm-77.8,1400.7L963.39,1154.66H642.63V986.54h376.59c92,0,125.06-57.65,125.06-126.29s-41.62-131.33-134.93-131.33H642.73v-157h385.86c122.24,0,316.53,54,316.53,282.22s-171.72,273.65-171.72,273.65l220.89,300.66H1156.77l-0.71-.1h0Z" fill="#d31f26"/><path d="M1098.92 1825a839.16 839.16 0 0 1 -98.05 5.75c-22.17 0-43.53-1.11-65.1-2.82v169.73c21.57 1.41 43.23 2.32 65.1 2.32a981 981 0 0 0 98.05 -4.94V1825" fill="#231f20"/></svg>