<svg enable-background="new 0 0 254.3 232.1" viewBox="0 0 254.3 232.1" xmlns="http://www.w3.org/2000/svg"><g fill="#231861"><path d="m135.4 155.1 25.1 44.8-22.9 24.3c-4.8 5.1-11.5 8-18.5 8-9.6 0-18.2-5.3-22.6-13.8l-86.2-166.9h107.8c10.4 0 18.9 8.5 18.9 18.9s-8.5 18.9-18.9 18.9h-19.7l13.5 24.1h-19.2l9.3 16h18.9l5.5 9.8h-18.9l9.3 16h18.6z"/><path d="m247.3 108.1-72.4 76.6-16.6-29.6h17.2l-9.3-16h-16.8l-5.5-9.8h16.9l-9.3-16h-16.6l-3.6-6.4c14.9-5.4 25.7-19.8 25.7-36.6 0-21.4-17.4-38.9-38.9-38.9h-117.4c-1.6-6.5-.6-13.4 3-19.3 4.7-7.5 12.8-12.1 21.8-12.1h.7 110.8.3.3c4.4.2 8.7 1.5 12.4 3.8l.4.3.4.3 92 65c6.2 4.1 10.3 10.6 11.3 18 .9 7.6-1.5 15.1-6.8 20.7z"/></g></svg>