<svg id="Layer_1" xmlns="http://www.w3.org/2000/svg" viewBox="0 0 664 663.7" width="2500" height="2499"><style>.st0{fill:url(#SVGID_1_)}.st1{fill:url(#SVGID_2_)}</style><g id="_x23_4eaf41ff"><linearGradient id="SVGID_1_" gradientUnits="userSpaceOnUse" x1="392.278" y1="-1.199" x2="392.278" y2="664.602"><stop offset="0" stop-color="#86c53f"/><stop offset="1" stop-color="#029543"/></linearGradient><path class="st0" d="M260.3 7.7C319.6-5.2 382.5-2 439.9 17.9c18.7 6.2 36.5 14.7 53.9 24 13 7 25.1 15.3 36.9 24.1 56.1 41.7 98.4 101.6 118.6 168.5 14.8 47.1 18.3 97.5 11 146.3-5.6 36.2-16.5 71.7-33.8 104-6.3 12-13.3 23.6-20.9 34.8-.1-4.5 0-9-.1-13.5h-86.1c-21.4-34-42.6-68-64.2-101.9 16.7-5.9 32.8-13.9 46.8-24.8 11.4-9.2 22.1-19.6 30.2-31.9 9.6-15.2 17.4-31.8 21.6-49.4 4.9-20 7.3-40.6 7.2-61.2.1-17.8-1.6-35.7-5.6-53-4.7-19.1-12.5-37.6-24.5-53.2-7.2-10.1-16.8-18.3-27.2-25-19.4-12.3-41-21.3-63.6-25.6-20.6-4.1-41.6-4.6-62.6-4.4H120.4c17.2-14 35.7-26.3 55.1-36.9 26.9-13.9 55.3-24.7 84.8-31.1z"/><linearGradient id="SVGID_2_" gradientUnits="userSpaceOnUse" x1="267.256" y1="-1.199" x2="267.256" y2="664.602"><stop offset="0" stop-color="#86c53f"/><stop offset="1" stop-color="#029543"/></linearGradient><path class="st1" d="M.4 179.7c113.4.1 226.9 0 340.3 0 18.4.1 37-.6 55.1 2.9 12.9 2.7 25.9 7.5 35.3 16.9 10.1 9.2 14.1 23.2 14.8 36.5.2 9.1-.3 18.3-1.6 27.4-1.7 9.5-5.4 18.6-10.3 27-6.8 10.5-18.7 16.4-30.6 19.4-12.6 3.3-25.8 3.9-38.8 3.9-32.1 0-64.2.1-96.3.1 58.3 93.7 116.6 187.3 174.8 281 30.5.1 60.9 0 91.4 0-13.4 10.8-28 19.8-43 28.2-17.4 9.9-36 17.3-54.8 24.1-68 22.3-143.3 22.4-211.2-.7-19-6.3-37.2-14.8-54.9-24.3-16.8-9-32.2-20.1-47.1-31.9C83 557.5 50.3 515.1 29 467.6c-8.5-19.3-15.2-39.4-20.2-59.9C-6.3 344.6-1.8 277 20.9 216.3c.5-1.4 1.1-2.7 1.3-4.1C15 201.3 7.5 190.6.4 179.7m51.1 62C124.3 359.4 197 477.1 270 594.7c42-.1 84 0 126 0-5.5-9.7-11.7-19-17.4-28.5C311.7 458 244.9 349.8 178 241.6c-42.1.1-84.3 0-126.5.1z"/></g></svg>