<svg enable-background="new 0 0 306.2 306.2" viewBox="0 0 306.2 306.2" xmlns="http://www.w3.org/2000/svg" xmlns:xlink="http://www.w3.org/1999/xlink"><linearGradient id="a"><stop offset="0" stop-color="#5b9edb"/><stop offset=".077" stop-color="#5b9edb"/><stop offset=".889" stop-color="#3348a4"/><stop offset="1" stop-color="#3348a4"/></linearGradient><linearGradient id="b" gradientUnits="userSpaceOnUse" x1="302.147" x2="7.147" xlink:href="#a" y1="-4.0663" y2="306.9337"/><linearGradient id="c" gradientTransform="matrix(1742.0989 1742.0989 -1742.0989 1742.0989 1329689 -543315.8125)" gradientUnits="userSpaceOnUse" x1="-1.05" x2="-450.1122" xlink:href="#a" y1="612.2199" y2="462.9414"/><path d="m153.1 0c-84.5 0-153.1 68.6-153.1 153.1s68.6 153.1 153.1 153.1 153.1-68.6 153.1-153.1-68.6-153.1-153.1-153.1zm0 12.4c77.8 0 140.7 62.9 140.7 140.7s-62.9 140.7-140.7 140.7-140.7-62.9-140.7-140.7c0-77.8 62.9-140.7 140.7-140.7z" fill="url(#b)"/><path d="m98.5 98.9v108.4h109.1v-108.4zm11.1 11h87v86.3h-87z" fill="url(#c)"/></svg>