<svg xmlns="http://www.w3.org/2000/svg" xmlns:xlink="http://www.w3.org/1999/xlink" viewBox="0 0 484.4 426.92"><defs><linearGradient id="0" x1="120.51" y1="71.44" x2="360.42" y2="308.69" gradientUnits="userSpaceOnUse"><stop stop-color="#137eaf"/><stop offset="1" stop-color="#003c5a"/></linearGradient><linearGradient id="1" x1="235.77" y1="273.34" x2="408.8" y2="83.03" xlink:href="#0"/></defs><g transform="translate(0 .02)"><path d="m233.9 112.7c131.7 0 238.5 102.5 238.5 229a221 221 0 0 1 -13.5 76 223.73 223.73 0 0 0 25.5 -104c0-126.5-104.8-229-234-229-85.7 0-160.6 45.1-201.4 112.3 43.8-51.4 110.3-84.3 184.9-84.3"/><path d="M152.9,24.7A184.23,184.23,0,0,0,0,106,193.74,193.74,0,0,1,95.9,80.8c108.5,0,196.5,88.9,196.5,198.5a199.86,199.86,0,0,1-9.4,60.8,183.91,183.91,0,0,0,54.4-130.8C337.4,107.3,254.8,24.7,152.9,24.7Z" fill="url(#0)"/><path d="M389.4,60.3A213.28,213.28,0,0,0,196.9,4.5a225.36,225.36,0,0,1,100,56.3C387,148.3,388.4,293,300.1,384a232.19,232.19,0,0,1-56.8,42.9,212.84,212.84,0,0,0,150.6-64.8C476,277.6,474,142.4,389.4,60.3Z" fill="url(#1)"/></g></svg>