<svg enable-background="new 0 0 32 32" viewBox="0 0 32 32" xmlns="http://www.w3.org/2000/svg"><circle clip-rule="evenodd" cx="16" cy="16" fill="#8e9495" fill-rule="evenodd" r="16"/><path d="m7.6 20.7c-.2-.5-.4-1-.5-1.5 0-.3-.1-.6-.1-.9h.9c0 .2.1.5.1.7.1.5.2.9.4 1.4.5 1.1 1.4 1.8 2.5 1.8.9 0 1.6-.4 2.1-1 .4-.6.7-1.3.7-1.9 0-.8-.3-1.4-.9-1.9-.5-.4-1-.7-2.2-1.2l-.2-.1c-1.2-.5-1.7-.8-2.3-1.2-.7-.6-1.1-1.3-1.1-2.2 0-1.1.4-2.1 1.1-2.7s1.6-1 2.5-1c1.3 0 2.3.5 2.9 1.5v-1.3h2.9v12.7h.9v-3.6-.1h.9c0 .2 0 .4.1.6.1.5.2.9.4 1.4.5 1.1 1.3 1.8 2.5 1.8.9 0 1.6-.4 2.1-1 .4-.6.7-1.3.7-1.9 0-.8-.3-1.4-.9-1.9-.5-.4-1-.7-2.2-1.2l-.2-.1c-1.2-.5-1.7-.8-2.3-1.2-.7-.6-1.1-1.3-1.1-2.2 0-1.1.4-2.1 1.1-2.7s1.6-1 2.5-1c1.3 0 2.3.5 2.9 1.5v-1h.9v4.4h-.9c0-.9-.2-1.9-.6-2.6-.5-.8-1.2-1.3-2.3-1.3-.7 0-1.4.3-1.9.7-.5.5-.8 1.2-.8 2.1 0 .7.3 1.1.8 1.6.5.4 1 .6 2.1 1.1l.2.1c1.2.5 1.8.8 2.4 1.3.8.6 1.2 1.5 1.2 2.5 0 .8-.3 1.7-.8 2.4-.7.9-1.6 1.4-2.9 1.4-.8 0-1.6-.3-2.2-.7-.4-.3-.7-.6-.9-1v1.6h-2.6v-12.8h-1.1v3.6h-.9c0-.9-.2-1.9-.6-2.6-.5-.8-1.2-1.3-2.3-1.3-.7 0-1.4.3-1.9.7-.4.6-.7 1.3-.7 2.2 0 .7.3 1.1.8 1.6.4.4 1 .6 2.1 1.1l.2.1c1.2.5 1.8.8 2.4 1.3.8.6 1.2 1.5 1.2 2.5 0 .8-.3 1.7-.8 2.4-.7.8-1.7 1.3-2.9 1.3-.8 0-1.6-.3-2.2-.7-.4-.3-.7-.7-.9-1.1v1.5h-.9v-4.4h.9v2.9c-.1-.1-.2-.3-.3-.5z" fill="#fff"/></svg>