<svg enable-background="new 0 0 226.5 226.5" viewBox="0 0 226.5 226.5" xmlns="http://www.w3.org/2000/svg"><path d="m43.8 7.6 14.1 14.1-14.1 14.1-14.1-14.1zm83.8 8.4-14.1-14.1-51.8 51.8 14.1 14.1zm-20.9 82.6 84.5-84.5-14.1-14.1-84.6 84.5zm112.2-54.8-14.1 14.1-14.1-14.1 14.1-14.1zm-60.2 32 51.8 51.8 14.1-14.1-51.8-51.8zm-16.7 16.7-14.1 14.1 84.5 84.5 14.1-14.1zm40.6 126.3-14.1-14.1 14.1-14.1 14.1 14.1zm-83.8-8.3 14.1 14.1 51.8-51.8-14.1-14.1zm21-82.6-84.5 84.5 14.1 14.1 84.5-84.5zm-112.2 54.7 14.1-14.1 14.1 14.1-14.1 14.1zm60.2-32-51.8-51.8-14.1 14.1 51.8 51.8zm30.8-30.8-84.5-84.5-14.1 14.1 84.5 84.5z" fill="#28a014"/></svg>