<svg height="1023" viewBox="0 0 980 1023" width="980" xmlns="http://www.w3.org/2000/svg"><g fill="none" fill-rule="evenodd"><path d="m978.106 420.9311c0-79.392-48.333-118.558-72.21-133.052-10.573-33.839-42.112-112.36-121.213-179.198-104.122-87.966-213.131-106.431-286.248-106.431-11.512 0-23.127.467-34.522 1.388-70.588 5.7-244.028 39.494-336.706 229.319-50.633 13.497-108.147 59.135-122.07 148.534-12.065 77.474 15.899 130.007 41.479 160.437 25.448 30.264 59.858 51.796 92.79 58.232 19.183 34.064 69.519 109.728 161.389 161.627-.207.733-.912 3.32-.912 3.32l-.13.628c-2.992 14.135-4.51 28.602-4.51 43.002 0 116.91 97.489 212.018 217.313 212.018 119.82 0 217.3-95.108 217.3-212.018 0-16.6-1.99-33.183-5.997-49.595l-.817-2.893c122.142-70.382 168.535-181.008 177.181-204.238 18.227-10.424 77.901-50.709 77.883-131.08zm-654.58 391.584c0-12.788 1.361-25.261 3.917-37.316 53.314 27.416 120.197 45.463 202.253 40.496 67.817-4.106 124.078-21.663 170.277-45.962 3.356 13.735 5.152 28.049 5.152 42.782 0 102.173-85.424 185-190.804 185-105.375 0-190.795-82.827-190.795-185zm632.347-391.737c.009 74.892-63.55 107.846-73.378 111.502-13.762 50.269-108.097 240.157-352.799 254.97-267.829 16.214-374.089-212.687-374.089-212.687-46.514.328-144.95-63.918-125.466-189.07 18.348-117.83 114.655-128.817 114.655-128.817 76.324-169.419 223.735-220.353 322.67-228.339 98.925-7.991 209.309 19.974 303.384 99.46 94.07 79.495 116.563 178.56 116.563 178.56s68.46 28.544 68.46 114.421zm-143.553 155.178c16.29-16.65 58.439-80.385 57.909-174.118-.521-93.868-39.633-157.118-56.423-179.953l-1.199-1.639c-10.218-13.951-34.135-46.64-75.951-77.403-52.439-38.582-113.968-61.479-181.637-64.502-6.001-.274-12.037-.409-17.944-.409-71.262.005-175.753 20.221-258.576 116.582-28.759 33.471-77.178 106.462-74.82 210.953 2.255 100.336 46.416 156.075 60.932 173.745.822 1.011 1.527 1.868 2.066 2.565 11.485 14.655 30.614 27.29 55.857 43.203 25.489 16.067 83.425 35.47 117.255 41.569l4.384.791c18.586 3.396 45.023 6.558 85.774 6.558 31.984 0 67.553-3.198 105.717-9.505 108.416-17.894 158.42-69.6 174.85-86.587zm34.495-174.581c.476 84.988-36.93 142.475-50.97 156.83-14.041 14.355-58.498 64.238-163.455 81.575-41.318 6.823-74.658 9.167-101.773 9.167-41.758 0-68.774-5.574-87.536-8.956-30.937-5.569-84.189-25.494-106.92-39.822-22.732-14.337-37.549-23.921-46.667-35.572-9.122-11.642-55.573-61.067-57.797-159.75-2.218-98.688 43.811-164.47 68.384-193.054 23.647-27.511 97.537-108.219 238.27-108.223 5.525 0 11.152.121 16.888.386 151.746 6.796 223.448 109.53 239.923 131.943 16.48 22.408 51.181 80.488 51.653 165.476zm-93.029 132.154c24.587 0 50.175-16.066 65.208-40.994 32.923-55.174 22.566-120.862-6.194-152.177-12.131-14.086-27.528-21.528-44.524-21.528-24.488 0-50.175 16.075-65.54 41.133-32.734 55.304-22.336 120.948 6.387 152.204 12.208 13.978 27.658 21.362 44.663 21.362zm-34.562-30.471c-31.975-34.8-27.65-97.6-4.909-136.016 19.039-31.054 60.433-50.027 88.321-17.643 32.007 34.863 27.762 97.551 4.806 136.021-18.927 31.378-60.285 49.609-88.218 17.638zm11.93-13.91c22.587 25.849 56.031 11.108 71.334-14.265 18.568-31.113 21.995-81.804-3.89-110.001-14.876-17.275-34.495-16.417-50.556-6.652 4.568-2.26 9.854-2.116 13.95 2.641 7.762 8.462 6.733 23.661 1.168 33.003-4.595 7.609-14.629 12.028-21.406 4.276-7.757-8.439-6.706-23.679-1.191-32.999 1.087-1.774 2.498-3.364 4.074-4.689-6.876 4.878-12.953 11.341-17.458 18.689-18.389 31.068-21.883 81.853 3.975 109.997zm39.925-46.617c3.692-6.032 11.732-9.715 17.144-3.427 6.207 6.764 5.385 18.931.93 26.396-3.675 6.091-11.701 9.626-17.122 3.427-6.207-6.755-5.367-18.945-.952-26.396zm-278.914 52.735c27.6-53.328 17.238-122.942-24.187-162.014-16.264-15.046-35.914-23.001-56.827-23.001-33.062 0-63.936 19.799-80.479 51.482-28.17 52.083-17.858 123.323 23.657 162.355 16.439 14.902 36.206 22.776 57.155 22.776 33.111 0 64.017-19.749 80.681-51.598zm-11.957-6.387c-23.373 44.663-78.188 60.047-116.887 24.968-37.535-35.299-45.041-100.709-20.814-145.503 23.177-44.385 77.982-60.464 116.371-24.945 37.922 35.761 44.947 99.846 21.33 145.48zm-6.966-4.272c19.102-36.902 13.416-88.721-17.247-117.642-24.91-23.045-58.341-19.183-80.273 1.77 6.544-5.228 15.765-5.807 22.745.651 9.199 8.678 10.906 24.223 5.179 35.295-5.673 10.838-18.972 14.57-28.359 6.054-9.105-8.561-10.928-24.429-5.049-35.294.593-1.141 1.316-2.156 2.071-3.14-3.971 4.38-7.528 9.298-10.416 14.84-19.597 36.22-13.529 89.116 16.83 117.656 31.292 28.372 75.619 15.935 94.519-20.19zm-26.374-8.682c-4.537 8.669-15.173 11.656-22.682 4.842-7.29-6.845-8.741-19.538-4.043-28.234 4.496-8.614 15.137-11.736 22.588-4.842 7.353 6.94 8.723 19.377 4.137 28.234z" fill="#007975"/><path d="m978.106 420.9311c0-79.392-48.333-118.558-72.21-133.052-10.573-33.839-42.112-112.36-121.213-179.198-104.122-87.966-213.131-106.431-286.248-106.431-11.512 0-23.127.467-34.522 1.388-70.588 5.7-244.028 39.494-336.706 229.319-50.633 13.497-108.147 59.135-122.07 148.534-12.065 77.474 15.899 130.007 41.479 160.437 25.448 30.264 59.858 51.796 92.79 58.232 19.183 34.064 69.519 109.728 161.389 161.627-.207.733-.912 3.32-.912 3.32l-.13.628c-2.992 14.135-4.51 28.602-4.51 43.002 0 116.91 97.489 212.018 217.313 212.018 119.82 0 217.3-95.108 217.3-212.018 0-16.6-1.99-33.183-5.997-49.595l-.817-2.893c122.142-70.382 168.535-181.008 177.181-204.238 18.227-10.424 77.901-50.709 77.883-131.08zm-654.58 391.584c0-12.788 1.361-25.261 3.917-37.316 53.314 27.416 120.197 45.463 202.253 40.496 67.817-4.106 124.078-21.663 170.277-45.962 3.356 13.735 5.152 28.049 5.152 42.782 0 102.173-85.424 185-190.804 185-105.375 0-190.795-82.827-190.795-185zm632.347-391.737c.009 74.892-63.55 107.846-73.378 111.502-13.762 50.269-108.097 240.157-352.799 254.97-267.829 16.214-374.089-212.687-374.089-212.687-46.514.328-144.95-63.918-125.466-189.07 18.348-117.83 114.655-128.817 114.655-128.817 76.324-169.419 223.735-220.353 322.67-228.339 98.925-7.991 209.309 19.974 303.384 99.46 94.07 79.495 116.563 178.56 116.563 178.56s68.46 28.544 68.46 114.421zm-143.553 155.178c16.29-16.65 58.439-80.385 57.909-174.118-.521-93.868-39.633-157.118-56.423-179.953l-1.199-1.639c-10.218-13.951-34.135-46.64-75.951-77.403-52.439-38.582-113.968-61.479-181.637-64.502-6.001-.274-12.037-.409-17.944-.409-71.262.005-175.753 20.221-258.576 116.582-28.759 33.471-77.178 106.462-74.82 210.953 2.255 100.336 46.416 156.075 60.932 173.745.822 1.011 1.527 1.868 2.066 2.565 11.485 14.655 30.614 27.29 55.857 43.203 25.489 16.067 83.425 35.47 117.255 41.569l4.384.791c18.586 3.396 45.023 6.558 85.774 6.558 31.984 0 67.553-3.198 105.717-9.505 108.416-17.894 158.42-69.6 174.85-86.587zm34.495-174.581c.476 84.988-36.93 142.475-50.97 156.83-14.041 14.355-58.498 64.238-163.455 81.575-41.318 6.823-74.658 9.167-101.773 9.167-41.758 0-68.774-5.574-87.536-8.956-30.937-5.569-84.189-25.494-106.92-39.822-22.732-14.337-37.549-23.921-46.667-35.572-9.122-11.642-55.573-61.067-57.797-159.75-2.218-98.688 43.811-164.47 68.384-193.054 23.647-27.511 97.537-108.219 238.27-108.223 5.525 0 11.152.121 16.888.386 151.746 6.796 223.448 109.53 239.923 131.943 16.48 22.408 51.181 80.488 51.653 165.476zm-93.029 132.154c24.587 0 50.175-16.066 65.208-40.994 32.923-55.174 22.566-120.862-6.194-152.177-12.131-14.086-27.528-21.528-44.524-21.528-24.488 0-50.175 16.075-65.54 41.133-32.734 55.304-22.336 120.948 6.387 152.204 12.208 13.978 27.658 21.362 44.663 21.362zm-34.562-30.471c-31.975-34.8-27.65-97.6-4.909-136.016 19.039-31.054 60.433-50.027 88.321-17.643 32.007 34.863 27.762 97.551 4.806 136.021-18.927 31.378-60.285 49.609-88.218 17.638zm11.93-13.91c22.587 25.849 56.031 11.108 71.334-14.265 18.568-31.113 21.995-81.804-3.89-110.001-14.876-17.275-34.495-16.417-50.556-6.652 4.568-2.26 9.854-2.116 13.95 2.641 7.762 8.462 6.733 23.661 1.168 33.003-4.595 7.609-14.629 12.028-21.406 4.276-7.757-8.439-6.706-23.679-1.191-32.999 1.087-1.774 2.498-3.364 4.074-4.689-6.876 4.878-12.953 11.341-17.458 18.689-18.389 31.068-21.883 81.853 3.975 109.997zm39.925-46.617c3.692-6.032 11.732-9.715 17.144-3.427 6.207 6.764 5.385 18.931.93 26.396-3.675 6.091-11.701 9.626-17.122 3.427-6.207-6.755-5.367-18.945-.952-26.396zm-278.914 52.735c27.6-53.328 17.238-122.942-24.187-162.014-16.264-15.046-35.914-23.001-56.827-23.001-33.062 0-63.936 19.799-80.479 51.482-28.17 52.083-17.858 123.323 23.657 162.355 16.439 14.902 36.206 22.776 57.155 22.776 33.111 0 64.017-19.749 80.681-51.598zm-11.957-6.387c-23.373 44.663-78.188 60.047-116.887 24.968-37.535-35.299-45.041-100.709-20.814-145.503 23.177-44.385 77.982-60.464 116.371-24.945 37.922 35.761 44.947 99.846 21.33 145.48zm-6.966-4.272c19.102-36.902 13.416-88.721-17.247-117.642-24.91-23.045-58.341-19.183-80.273 1.77 6.544-5.228 15.765-5.807 22.745.651 9.199 8.678 10.906 24.223 5.179 35.295-5.673 10.838-18.972 14.57-28.359 6.054-9.105-8.561-10.928-24.429-5.049-35.294.593-1.141 1.316-2.156 2.071-3.14-3.971 4.38-7.528 9.298-10.416 14.84-19.597 36.22-13.529 89.116 16.83 117.656 31.292 28.372 75.619 15.935 94.519-20.19zm-26.374-8.682c-4.537 8.669-15.173 11.656-22.682 4.842-7.29-6.845-8.741-19.538-4.043-28.234 4.496-8.614 15.137-11.736 22.588-4.842 7.353 6.94 8.723 19.377 4.137 28.234z" stroke="#007975"/></g></svg>