<svg enable-background="new 0 0 400 400" viewBox="0 0 400 400" xmlns="http://www.w3.org/2000/svg" xmlns:xlink="http://www.w3.org/1999/xlink"><linearGradient id="a" gradientUnits="userSpaceOnUse" x1="203.1547" x2="158.2429" y1="219.1189" y2="141.0567"><stop offset="0" stop-color="#99509f"/><stop offset="1" stop-color="#5398d2"/></linearGradient><linearGradient id="b" gradientUnits="userSpaceOnUse" x1="324.7596" x2="67.7596" y1="344.0349" y2="48.7016"><stop offset="0" stop-color="#99509f"/><stop offset=".01797026" stop-color="#9754a1"/><stop offset=".1635" stop-color="#886cb0"/><stop offset=".3142" stop-color="#797cbb"/><stop offset=".4692" stop-color="#6b89c5"/><stop offset=".6305" stop-color="#5f92cc"/><stop offset=".8017" stop-color="#5697d1"/><stop offset="1" stop-color="#5398d2"/></linearGradient><g clip-rule="evenodd" fill-rule="evenodd"><path d="m241.8 208.4-64.3 42c-6.9 4.5-15 .1-14.9-8.2l-.4-84.4c.1-7.1 7.9-11.4 14-7.6l65.5 41.5c6.1 3.9 6.2 12.8.1 16.7z" fill="url(#a)"/><path d="m259.2 107.2h-118.3c-19 0-34.3 15.4-34.3 34.3v118.3c0 19 15.4 34.3 34.3 34.3h118.3c19 0 34.3-15.4 34.3-34.3v-118.3c.1-19-15.3-34.3-34.3-34.3zm18.9 152.1c0 10.7-8.7 19.3-19.3 19.3h-116.9c-10.7 0-19.3-8.7-19.3-19.3v-116.8c0-10.7 8.7-19.3 19.3-19.3h116.8c10.7 0 19.3 8.7 19.3 19.3v116.8zm-63.9-239.9c12.8-12.8 32.2-15 49.2-8.6 30.7 11.6 76.4 34.4 107.2 85.3 26.5 44 29.4 87 29.4 107.9l-103-102.1c-9.7-9.6-22.8-15-36.5-15h-114zm-196.1 166.4c-12.8-12.8-15-32.2-8.6-49.2 11.6-30.7 34.4-76.4 85.3-107.2 43.9-26.5 86.9-29.4 107.8-29.4l-102.1 103c-9.6 9.7-15 22.8-15 36.5v114zm167.7 196.1c-12.8 12.8-32.2 15-49.2 8.6-30.7-11.6-76.4-34.4-107.2-85.3-26.5-43.9-29.4-86.9-29.4-107.9l103 102.1c9.7 9.6 22.8 15 36.5 15h114zm195.6-167.7c12.8 12.8 15 32.2 8.6 49.2-11.6 30.7-34.4 76.4-85.3 107.2-43.9 26.6-86.9 29.5-107.8 29.4l102.1-103c9.6-9.7 15-22.8 15-36.5v-114z" fill="url(#b)"/></g></svg>