<svg enable-background="new 0 0 70.4 70.4" viewBox="0 0 70.4 70.4" xmlns="http://www.w3.org/2000/svg"><path d="m35.2 0c-19.4 0-35.2 15.8-35.2 35.2s15.8 35.2 35.2 35.2c19.5 0 35.2-15.8 35.2-35.2s-15.7-35.2-35.2-35.2zm-5.4 26.9c1.5 2.7 4.8 3.3 6.6 3.5.9.1 1.8.2 2.7.4.4.1.8.2 1.1.3 1.5.3 6.3 1.2 10 5.5 1.1 1.3 1.9 2.6 2.4 3.8s.8 2.4.8 3.7c0 3.1-1 6.1-2.9 8.6-.2.2-.4.5-.6.7-.2.3-.5.5-.7.8-3.7 3.8-9 5.8-14.3 5.6-.8 0-1.6 0-2.4-.1-1.5-.1-3.5-.3-5.5-1.2-2.3-.9-4.1-2.3-5.5-3.7-2.9-2.9-4.3-6.9-4.3-10.9l12 .1c0 .5.4 2.8 2.4 4.5 1.5 1.1 3 1.3 3.6 1.3s2.1 0 3.5-1c.1 0 .1-.1.1-.1 2.2-1.4 2.5-4.6.7-6.4-2-2-4.5-2.5-6.1-2.7-1.3-.1-2.6-.3-3.8-.7l-.2-.1c-1.5-.3-3.6-1-5.9-2.5-2.8-1.9-4.5-4.2-5.5-6-.6-1-.9-2.2-.9-3.4 0-4.2 1.6-8.4 4.7-11.3 0 0 .1-.1.1-.1.2-.2.5-.4.7-.6 3.3-2.8 7.5-4.2 11.9-4.2h2.2c1.6 0 3.2.2 4.7.7 2.3.8 5.2 2.2 7.8 5.1 3.5 4 4.1 8.5 4.3 10h-11.8c-.1-.7-.4-2.2-1.6-3.5-1.8-2.2-4.4-2.4-4.9-2.4-.4 0-2.9-.2-4.7 1.7-.2.3-.5.5-.6.8-.7 1.2-.8 2.6-.1 3.8z" fill="#131827"/></svg>