<svg enable-background="new 0 0 226.8 226.8" viewBox="0 0 226.8 226.8" xmlns="http://www.w3.org/2000/svg"><g fill="#156bb4"><path d="m179.4 93.2h-61.7l-3.3-1.7c-8.2-4.1-13.6-6.6-13.6-12.1 0-5.8 5.9-8.8 13.6-8.8 9.1 0 17.5 5.2 26 13.5l23.2-22.9c-12.2-15.7-30-24.3-49.5-24.3-28.9 0-48.6 19.3-48.6 42.2 0 5 1 9.6 2.7 14.1h-20.8v16.8h32.9c3.3 2.9 7.1 5.7 11.4 8.4h-44.3v16.8h75.6c5.1 3.5 8.1 7 8.1 11.4 0 6.6-7.4 11.9-16.7 11.9-9.9 0-22.6-7.2-31.4-17.1l-23.2 24.6c13 16.5 30.8 25.1 52.6 25.1 32.8 0 54-19.6 54-45.8 0-3.7-.5-7-1.3-10.2h14.2v-16.8h-22.8c-2.6-3-5.8-5.7-9.3-8.4h32.1z"/><path d="m113.4 0c-62.5 0-113.4 50.9-113.4 113.4s50.9 113.4 113.4 113.4 113.4-50.9 113.4-113.4-50.9-113.4-113.4-113.4zm0 204c-49.9 0-90.6-40.6-90.6-90.6 0-49.9 40.6-90.6 90.6-90.6s90.6 40.6 90.6 90.6c0 49.9-40.7 90.6-90.6 90.6z"/></g></svg>