<svg enable-background="new 0 0 206.6 200.8" viewBox="0 0 206.6 200.8" xmlns="http://www.w3.org/2000/svg"><path d="m160.4 102.2c0 32-26.2 58.2-58.5 58.2s-58.5-26.2-58.5-58.2 26.2-57.8 58.5-57.8 58.5 25.8 58.5 57.8z" fill="#ee8a14"/><path d="m41.8 184.8c-12.7-9.3-23.2-21.5-30.4-35.4-7.5-14.3-11.4-30.5-11.4-46.7 0-56.6 46.3-102.7 103.3-102.7s103.3 46 103.3 102.6c0 16.4-3.8 32.1-11.3 46.6-7.2 13.8-17.6 26.1-30.3 35.4l-11.2-14.9c21.6-15.9 34.1-40.4 34.1-67.1 0-46.4-37.9-84.1-84.6-84.1-46.6 0-84.6 37.7-84.6 84.1 0 26.8 12.5 51.2 34.2 67.2z" fill="#ee8a14"/><path d="m128.6 104.2c-1.8-2.3-4.4-3.8-8-4.7 4.6-2.3 6.6-6.2 6-11.7-.2-2-.7-3.7-1.7-5.2-.9-1.5-2.2-2.6-3.8-3.5s-3.3-1.6-5.2-2c-1.9-.5-4-.8-6.4-1v-11.6h-7.1v11.2c-1.2 0-3.1 0-5.6.1v-11.3h-7.1v11.4c-1 0-2.5 0-4.4 0h-9.7v7.4h5.1c2.3 0 3.7 1 4.1 3.1v13h.7-.7v18.3c-.2 1.5-1.1 2.3-2.7 2.3h-5.1l-1.4 8.3h9.2 2.5s1.9 0 2.5 0v11.6h7.1v-11.2h5.6v11.4h7.1v-11.6c2.5-.1 4.7-.3 6.7-.7 1.9-.3 3.8-.9 5.6-1.6s3.3-1.6 4.4-2.7c1.2-1.1 2.2-2.4 3-4s1.3-3.5 1.5-5.7c.3-4.1-.4-7.3-2.2-9.6zm-31.5-20.3h1.8s1.8 0 2.5 0 1.5 0 2.7.1c1.1.1 2.1.2 2.8.4.8.2 1.6.4 2.5.7s1.6.8 2.2 1.3 1 1.1 1.4 1.9.6 1.7.6 2.7c0 .8-.1 1.6-.4 2.3s-.7 1.3-1.2 1.7c-.5.5-1.1.9-1.7 1.2s-1.3.6-2.2.8-1.7.4-2.4.5-1.5.2-2.5.2-1.8.1-2.3.1-1.2 0-2.1 0-1.4 0-1.6 0zm19.2 31c-.3.7-.7 1.3-1.1 1.8-.5.5-1.1 1-1.8 1.4s-1.5.7-2.2 1c-.7.2-1.6.5-2.5.6-1 .2-1.9.3-2.6.4s-1.6.1-2.7.2c-1 0-1.8.1-2.4.1s-1.3 0-2.2 0-1.5 0-1.7 0v-15.4h2.2s2.2 0 3 0 1.8 0 3.2.1c1.3.1 2.5.2 3.4.4s1.9.5 3 .8c1.1.4 2 .8 2.6 1.4.7.5 1.2 1.2 1.7 2.1.5.8.7 1.8.7 2.9-.1.7-.3 1.5-.6 2.2z" fill="#fff"/><g fill="#ee8a14"><path d="m69 194.5c1.6 1 4.5 2.2 7.2 2.2 4 0 5.8-2 5.8-4.4 0-2.6-1.6-4-5.6-5.5-5.4-1.9-8-4.9-8-8.4 0-4.8 3.9-8.8 10.4-8.8 3 0 5.7.9 7.4 1.9l-1.4 3.9c-1.2-.7-3.4-1.7-6.2-1.7-3.2 0-5 1.9-5 4.1 0 2.5 1.8 3.6 5.7 5.1 5.2 2 7.9 4.6 7.9 9 0 5.2-4.1 8.9-11.3 8.9-3.3 0-6.3-.8-8.5-2z"/><path d="m96.5 170.2 4 15.2c.9 3.3 1.7 6.4 2.2 9.5h.2c.7-3 1.7-6.2 2.7-9.4l4.9-15.2h4.6l4.7 14.9c1.1 3.6 2 6.7 2.7 9.7h.2c.5-3 1.3-6.2 2.3-9.7l4.3-15h5.4l-9.7 29.8h-5l-4.6-14.2c-1.1-3.3-1.9-6.3-2.7-9.8h-.1c-.7 3.6-1.7 6.7-2.7 9.9l-4.9 14.2h-5l-9.1-29.8z"/></g></svg>