<svg enable-background="new 0 0 349.3 349.3" viewBox="0 0 349.3 349.3" xmlns="http://www.w3.org/2000/svg"><circle cx="174.7" cy="174.7" fill="#181818" r="174.7"/><path d="m71.1 213c-.3-1-1.7-6.4 1.5-10.8 2.9-3.9 8.3-5.5 13.5-4 .9 1 2.2 2.5 4 4 2.3 2 6.6 5.3 15.8 8.8 6.3 2.4 13.1 5 22.7 5.5 4.4.2 12 .7 20.5-2.2 12.4-4.2 13.2-11 27.8-19.8 4.4-2.7 12.6-7.6 23.5-9.5 15.2-2.6 27.4 2.2 37.3 6 18.6 7.2 31.7 18.4 40 27.3 2.1 4.3 1.6 9.4-1.5 13-3.2 3.7-8.3 5.1-13 3.5-.8-.7-1.9-1.8-3.3-3-8.2-7.3-15.9-12.2-21.3-15.3-9.7-5.5-14.6-8.3-21-9.3-1.7-.3-9.7-1.3-19.3 1.8-5.9 1.9-10.3 5-19 11.3-11.1 7.9-10.2 8.9-15.8 12-9.9 5.5-19.3 6.1-25.3 6.5-10 .7-16.9-.9-28.5-3.5 0 0-23.1-5.2-34.5-15.8-1.1-1.2-3.2-3.3-4.1-6.5z" fill="#fff"/><circle cx="209.6" cy="137.7" fill="#ec9d14" r="27.3"/></svg>