<svg xmlns="http://www.w3.org/2000/svg" viewBox="0 0 638 736.7"><defs><linearGradient id="0" y1="638.34" x2="0" y2=".34" gradientUnits="userSpaceOnUse"><stop stop-color="#00bed3"/><stop offset="1" stop-color="#00aee5"/></linearGradient></defs><path fill="url(#0)" d="M638 552.52 638 184.18 319 0 0 184.18 0 552.52 319 736.7 638 552.52z"/><path d="M399 178.35a21 21 0 0 0 0 -42H303.75A23.75 23.75 0 0 0 280 160.1V433.39c-35.16 9.88-61 42.82-61 82 0 46.94 37.16 85 83 85s83-38.06 83-85c0-39.51-26.33-72.72-62-82.25V267.35h56a21 21 0 0 0 21 -21 21 21 0 0 0 -21 -21H323v-47m24.89 337c0 26-20.54 47-45.89 47s-45.89-21-45.89-47 20.54-47 45.89-47S347.89 489.39 347.89 515.35" fill="#fff"/></svg>