<svg height="226.777" viewBox="0 0 226.777 226.777" width="226.777" xmlns="http://www.w3.org/2000/svg"><path d="m61.965 82.459v59.258l51.318 29.628 51.318-29.628v-59.258l-51.318-29.63zm91.385 38.656-13.758-7.797v-16.42l-26.31-15.19-18.547 10.708 58.615 33.151v9.653l-40.067 23.134-40.069-23.134v-33.327l13.759 7.796v17.589l26.31 15.19 19.535-11.281-59.604-33.749v-8.484l40.069-23.134 40.067 23.134z"/><path d="m113.283-.211c-62.681 0-113.494 50.813-113.494 113.494s50.813 113.494 113.494 113.494 113.494-50.813 113.494-113.494-50.813-113.494-113.494-113.494zm64.424 150.689-64.424 37.195-64.424-37.195v-74.39l64.424-37.196 64.424 37.196z"/></svg>