<svg enable-background="new 0 0 315 315" viewBox="0 0 315 315" xmlns="http://www.w3.org/2000/svg"><circle cx="157.5" cy="157.5" r="157.5"/><path d="m29.7 133.4v12.5l30.4 18.9-6.9 3.9 18.6 4v-12l-30.4-19.5 6.4-3.1z" fill="#fff"/><path d="m71.8 133.4v13.2l-21-13.9-16.2-2 16.2-10.9z" fill="#e76000"/><path d="m29.7 172.4v-13.1l21.1 13.9 16.1 2-16.1 10.9z" fill="#e76000"/><g fill="#fff"><path d="m147.2 139.1h-23.8v9c6.5 0 12.9.1 19.4.1.2 0 3.1-.1 4.6 2.2.8 1.1.8 2.3.8 2.9l-.1 3.8c-5.7 0-11.3 0-17 0-1.6.2-4.5.8-6.8 3-3.3 3-3.6 7.2-3.8 9.7-.2 1.9-.4 4.3.8 7 1.9 4.5 6 6.4 7.2 6.9h29.6c0-10.8 0-21.7 0-32.5 0-1.2-.3-4.1-2.3-6.9-2.9-4.4-7.8-5.1-8.6-5.2zm.9 35.1c-4.8 0-9.5 0-14.3 0-1.7-.8-2.7-2.5-2.6-4.3.1-1.6 1.1-3.1 2.6-3.8h14.3z"/><path d="m102.2 139.1c-4.4 0-8.8 0-13.3 0v-16.5h-10v61h9.9v-35l10.9-.1c.2 0 2.7.1 4.1 2.1.9 1.3.8 2.7.8 3.1v29.9h10.3v-31.1c0-1.2-.2-5-3-8.4-3.7-4.5-8.8-5-9.7-5z"/><path d="m185.4 139.1h-18.8v44.5h10.1l-.1-35c1.5 0 3 .1 4.6.1.3 0 2.3-.1 3.8 1.4 1.2 1.2 1.3 2.6 1.4 3l.1 5.6h9.3c0-3.2 0-6.3 0-9.5 0-.7 0-4.2-2.8-7.1-3-3.2-7-3.1-7.6-3z"/><path d="m213.4 172.3c-2.5-2.5-1.8-5.9-1.8-6.1h16.9c6.7-1.8 11.2-8 10.7-14.6-.4-5.9-4.7-11-10.7-12.5h-26.8v30.3c-.1.8-.5 5.9 3.4 10.1 3.5 3.8 8 4.1 8.9 4.1h21.6v-9.4c-5.8 0-11.6 0-17.4 0-.3 0-2.8 0-4.8-1.9zm-1.7-23.9h14.6c1.5.7 2.6 2.1 2.6 3.8.1 1.8-1 3.4-2.6 4.1h-14.6z"/></g><path d="m236 132.2 23.4 8.1 13.2 14.1 12.7-13v11.8l-7.1 7.2 7.1 8.8v12.1l-12.9-14.2-14.3 16.5-28.4 11.6 35.2-34.5z" fill="#e76000"/></svg>