<svg enable-background="new 0 0 134.8 72.6" viewBox="0 0 134.8 72.6" xmlns="http://www.w3.org/2000/svg" xmlns:xlink="http://www.w3.org/1999/xlink"><linearGradient id="a"><stop offset=".01" stop-color="#123aff"/><stop offset="1" stop-color="#03ffff" stop-opacity="0"/></linearGradient><linearGradient id="b" gradientUnits="userSpaceOnUse" x1="81.4" x2="1.4" xlink:href="#a" y1="27" y2="27"/><linearGradient id="c" gradientUnits="userSpaceOnUse" x1="53.4" x2="133.4" xlink:href="#a" y1="5" y2="5"/><linearGradient id="d" gradientUnits="userSpaceOnUse" x1="61.2985" x2="73.5015" y1="5.4374" y2="26.5626"><stop offset="0" stop-color="#0060cc"/><stop offset=".01" stop-color="#006bd0"/><stop offset=".04" stop-color="#008add"/><stop offset=".07" stop-color="#00a6e8"/><stop offset=".11" stop-color="#00bcf0"/><stop offset=".15" stop-color="#00cdf7"/><stop offset=".21" stop-color="#00d8fc"/><stop offset=".29" stop-color="#00dffe"/><stop offset=".5" stop-color="#00e1ff"/><stop offset=".71" stop-color="#00dffe"/><stop offset=".79" stop-color="#00d8fc"/><stop offset=".85" stop-color="#00cdf7"/><stop offset=".89" stop-color="#00bcf0"/><stop offset=".93" stop-color="#00a6e8"/><stop offset=".96" stop-color="#008add"/><stop offset=".99" stop-color="#006bd0"/><stop offset="1" stop-color="#0060cc"/></linearGradient><path d="m1.4 22h80v10h-80z" fill="url(#b)"/><path d="m53.4 0h80v10h-80z" fill="url(#c)"/><path d="m53.4 10 18 12h10l-18-12z" fill="url(#d)"/><g fill="#28345e"><path d="m11.1 53.1c-1.2-1.2-2.9-1.9-4.7-1.8-1.3-.1-2.5.2-3.6.9-.8.6-1.2 1.6-1.1 2.6 0 .5.1 1 .3 1.4s.5.7.9.9c.4.3 1 .5 1.5.6.6.2 1.4.4 2.3.6s1.7.4 2.5.6c.7.2 1.3.5 1.9.9.5.4.9.8 1.2 1.3.3.6.4 1.2.4 1.9s-.1 1.4-.4 2-.7 1-1.2 1.4c-.6.4-1.2.7-1.9.9-.8.2-1.7.3-2.5.3-2.5.1-4.9-.8-6.7-2.5l.6-1c.7.8 1.6 1.4 2.6 1.8 1.1.5 2.3.7 3.5.7 1.2.1 2.4-.2 3.5-.8.8-.5 1.3-1.5 1.3-2.5 0-.5-.1-1-.3-1.4-.3-.4-.6-.7-1-1-.5-.3-1.1-.6-1.7-.7-.7-.2-1.5-.4-2.4-.6s-1.7-.4-2.4-.6c-.6-.2-1.2-.5-1.8-.8-.5-.3-.8-.7-1.1-1.2-.3-.6-.4-1.2-.4-1.8 0-.7.1-1.4.4-2s.7-1.1 1.2-1.5c.6-.4 1.2-.7 1.9-.9.8-.2 1.6-.3 2.4-.3 1 0 2 .2 3 .5.9.3 1.7.8 2.4 1.5z"/><path d="m15.4 52v-2.2h1.2v2.2zm0 15.3v-12.5h1.2v12.5z"/><path d="m20.4 49.8h1.2v15c-.1.8.5 1.4 1.2 1.5h.3c.2 0 .4 0 .6-.1s.5-.1.7-.2l.2 1c-.3.1-.6.2-1 .3-.3.1-.7.1-1 .1-.6 0-1.2-.2-1.6-.6s-.6-1-.6-1.6z"/><path d="m31.9 67.5c-.8 0-1.6-.2-2.4-.5s-1.4-.8-2-1.4-1-1.3-1.3-2.1c-.7-1.6-.7-3.4 0-5 .3-.8.7-1.5 1.3-2s1.2-1 1.9-1.4 1.6-.5 2.4-.5 1.6.2 2.4.5c.7.3 1.4.8 1.9 1.4s1 1.3 1.3 2c.3.8.5 1.6.5 2.5v.5h-10.9c0 .7.2 1.4.5 2s.7 1.1 1.1 1.6c.4.4.9.8 1.5 1.1s1.2.4 1.8.4c.4 0 .9-.1 1.3-.2s.8-.3 1.2-.5.7-.5 1-.8.5-.6.7-1l1.1.3c-.2.5-.4.9-.8 1.2-.3.4-.7.7-1.2 1s-1 .5-1.5.6c-.6.2-1.2.3-1.8.3zm4.9-6.9c0-.7-.2-1.4-.5-2s-.6-1.1-1.1-1.6c-.4-.4-.9-.8-1.5-1s-1.2-.4-1.8-.4-1.2.1-1.8.4c-.5.3-1 .6-1.5 1-.4.5-.8 1-1.1 1.6s-.4 1.3-.5 2z"/><path d="m50.8 67.3h-1.2v-7c.1-1.2-.1-2.4-.7-3.5-.5-.7-1.3-1.1-2.2-1.1-.5 0-1.1.1-1.6.3s-1 .5-1.5.8l-1.2 1.2c-.4.4-.6.9-.7 1.5v7.7h-1.2v-12.4h1.1v3c.3-.4.6-.9.9-1.3.4-.4.8-.7 1.3-1s1-.5 1.5-.6c.5-.2 1.1-.2 1.6-.2 1.1-.1 2.3.4 2.9 1.4.6 1.3.9 2.7.8 4.1v7.1z"/><path d="m59.8 66.7c-.1 0-.2.1-.3.2-.2.1-.4.2-.6.3s-.5.2-.8.2-.6.1-.9.1-.6 0-.9-.1-.6-.2-.8-.4-.4-.4-.5-.7-.2-.7-.2-1v-9.4h-1.8v-1h1.8v-4.3h1.2v4.3h2.9v1h-2.9v9.1c0 .4.2.8.5 1s.7.3 1.1.3c.5 0 .9-.1 1.3-.3.2-.1.5-.2.7-.3z"/><path d="m64.7 52.5v14.7h-1.2v-17h.9l12 15v-15h1.2v17h-1.1z"/><path d="m86.7 67.5c-.8 0-1.6-.2-2.4-.5-.7-.3-1.4-.8-1.9-1.4s-1-1.3-1.3-2.1c-.7-1.6-.7-3.4 0-5 .3-.8.7-1.5 1.3-2.1.5-.6 1.2-1.1 1.9-1.4 1.5-.7 3.3-.7 4.8 0 .7.3 1.4.8 1.9 1.4.6.6 1 1.3 1.3 2.1.7 1.6.7 3.4 0 5-.3.8-.7 1.5-1.3 2.1-.5.6-1.2 1.1-1.9 1.4-.7.4-1.6.5-2.4.5zm-4.9-6.4c0 .7.1 1.4.4 2.1.3.6.6 1.2 1 1.7s.9.9 1.5 1.1c1.2.5 2.6.5 3.8 0 .6-.3 1.1-.7 1.6-1.2s.8-1.1 1.1-1.7c.3-.7.4-1.4.4-2.1s-.1-1.4-.4-2.1c-.3-.6-.6-1.2-1.1-1.7-.4-.5-.9-.9-1.5-1.2-1.2-.5-2.6-.5-3.8 0-.6.3-1.1.7-1.5 1.2s-.8 1.1-1.1 1.7c-.2.7-.4 1.5-.4 2.2z"/><path d="m101.1 66.7c-.1 0-.2.1-.3.2-.2.1-.4.2-.6.3s-.5.2-.8.2c-.3.1-.6.1-.9.1s-.6 0-.9-.1-.6-.2-.8-.4-.4-.4-.5-.7-.2-.7-.2-1v-9.4h-1.8v-1h1.8v-4.3h1.2v4.3h2.9v1h-2.9v9.1c0 .4.2.8.5 1s.7.3 1.1.3c.5 0 .9-.1 1.3-.3.2-.1.5-.2.7-.3z"/><path d="m106.3 67.5c-.5 0-1.1-.1-1.6-.3s-.9-.5-1.3-.8-.7-.7-.9-1.2-.3-1-.3-1.5.1-1 .4-1.5c.3-.4.7-.9 1.1-1.2.5-.3 1-.6 1.6-.8.7-.2 1.4-.3 2.1-.3s1.3.1 2 .2c.6.1 1.2.3 1.8.5v-1.2c.1-1-.3-2-1-2.8-.7-.7-1.7-1.1-2.7-1-.7 0-1.3.1-1.9.4-.7.3-1.4.7-2.1 1.1l-.5-.8c1.3-1 2.9-1.6 4.6-1.6 2.5-.2 4.7 1.6 4.9 4.1v.8 6.1c0 .4.2.6.5.6v1.1h-.5c-.5.1-1-.3-1.1-.9 0-.1 0-.1 0-.2v-1c-.6.8-1.3 1.3-2.2 1.7-.9.3-1.9.5-2.9.5zm.2-.9c.9 0 1.8-.2 2.6-.5.7-.3 1.3-.8 1.8-1.4.3-.3.4-.6.4-1v-2.2c-.6-.2-1.2-.4-1.8-.5s-1.3-.2-1.9-.2-1.1.1-1.7.2c-.5.1-.9.3-1.3.6-.4.2-.7.5-.9.9-.2.3-.3.7-.3 1.1s.1.8.2 1.2.4.7.7.9c.3.3.6.5 1 .6.4.2.8.3 1.2.3z"/><path d="m122 55.9c-1 0-2.1.4-2.9 1-.8.7-1.5 1.6-1.8 2.6v7.8h-1.2v-12.5h1.2v3.1c.4-.8 1-1.6 1.7-2.1.6-.6 1.4-.9 2.3-.9h.7z"/><path d="m125.1 71.5h.8c.1 0 .3-.1.4-.1s.2-.1.3-.2c.1-.2.2-.3.3-.5.2-.4.4-.8.6-1.2.2-.5.5-1.2.9-2.2l-5.6-12.5h1.2l5 11.3 4.6-11.3h1.2l-6.8 16.4c-.2.4-.5.8-.9 1-.5.3-1 .4-1.6.4h-.4z"/></g></svg>