<svg xmlns="http://www.w3.org/2000/svg" width="2000" height="1762" viewBox="0 0 2000 1762"><path d="m1643.82 1880.84c-160.8-160.16-359.11-226.41-578.47-240.23-186.61-11.76-365.09 20.18-532 107.38-62 32.4-118 73.27-166.89 123.64-3.26 3.36-6.94 6.31-10.33 9.38-426.8-354.82-484.29-1009-94.8-1436.86 392.82-431.49 1076.38-434.06 1472.81-4.49 393.74 426.67 338.94 1083.47-90.32 1441.18m-1005.73-760.7c.11 200.38 160.94 361.68 361 362 201.11.36 363.9-161.29 364.11-361.56.2-199.58-163.76-363.1-363.63-362.58-199.67.45-361.57 162.68-361.48 362.14" transform="translate(0-119)" fill="#bbdfd0"/></svg>