<svg xmlns="http://www.w3.org/2000/svg" viewBox="0 0 391.11 352"><path d="M 0,0 H391.11 V352 H0 z"/><path d="m191.64 135.91c4.89 2 9.78 1 13.69 0 2.94 9.78 7.83 18.58 12.71 22.49-2.93 24.44-12.71 33.24-22.48 33.24-13.69 0-20.54-28.35-20.54-33.24 3.91-1.96 12.71-7.82 16.62-22.49m-15.64 86.09c2 7.82 7.82 27.37 20.53 27.37 8.8 0 18.58-10.75 20.54-26.4-6.85-3.91-9.78-12.71-12.71-26.4-3.92 1-9.78 2-13.69 0-4.89 12.67-8.8 20.5-14.67 25.43m-78.22 30.27c4.89 7.82 14.66 20.53 25.42 15.64 2.93-1 3.91-8.8 2.93-15.64-7.82-4.89-12.71-13.69-18.57-27.38-2 1-4.89 1-7.83 0 1.96 14.67 1.96 22.49-1.95 27.38m-41.07-26.4c3.91 21.51 4.89 23.46 3.91 26.4 6.85 12.71 13.69 18.57 22.49 17.6 2.93 0 1-7.83-2.93-15.65a72.51 72.51 0 0 1 -18.58 -27.38 8.88 8.88 0 0 0 -4.89 -.97m-26.4 0c9.78 41.06 28.36 39.13 27.38 37.13-3.91-6.84-7.82-9.78-11.73-12.71-8.8-8.78-15.65-27.36-15.65-24.42m119.29 26.4c4.89 17.6 18.58 17.6 23.47 15.64 6.84-1 9.77-6.84 10.75-17.6-8.8-5.87-11.73-18.58-13.69-27.38-2.93 1-7.82 1-11.73 0-.98 13.69-1.96 24.45-8.8 29.34m-84.09-30.27c3.91 9.77 15.65 28.35 24.45 28.35 3.91 0 5.86-6.84 3.91-27.38-5.87-3.97-10.76-11.77-13.69-24.48-2 1-5.87 1-8.8 0-.98 10.75-1.96 18.58-5.87 23.51m-30.31 0c2.93 7.82 9.78 24.44 18.58 27.37 3.91 2 3.91-3.91-1-26.4 0 0-6.84-5.86-11.73-24.44h-3.89c-.98 8.76-1.96 21.47-1.96 23.47m78.22 0c1 3.91 10.76 23.46 22.49 26.4 13.69 2.93 14.67-14.67 14.67-25.43-6.85-3.91-11.74-11.73-14.67-24.44a18.7 18.7 0 0 1 -12.71 0c-1.96 12.67-4.89 19.47-9.78 23.47m-8.8-2.94c5.87 0 10.76-8.8 12.71-25.42-4.89-4.89-10.75-13.69-11.73-34.22-2.93 1-5.87 1-7.82 0-2.94 18.58-5.87 29.29-11.78 35.16 0 5.86 6.89 24.42 18.62 24.42m-60.62-24.42c4.89 19.55 9.78 24.42 13.69 24.42 8.8 0 6.84-14.66 7.82-25.42-2.93-3.91-8.8-13.69-8.8-34.22h-4.89c-5.82 30.33-5.82 31.31-7.82 35.22m-19.56-34.22c-2-1-11.73 40.08 2.94 57.68 1.95 2 1.95-22.48 1.95-22.48-3.91-8.8-1.95-34.23-4.89-35.2m117.34 34.22c1 2.93 6.84 24.44 22.49 24.44 9.77 0 17.6-10.75 19.55-26.4-7.82-7.82-11.73-18.62-13.69-33.24-2.93 1-7.82 1-11.73 0-5.87 19.55-9.78 30.31-16.62 35.2m-80.18-38.14c1 17.6 4.89 35.2 12.71 35.2 8.8 0 12.71-19.55 15.65-36.17-2.94-2-6.85-7.83-6.85-20.54a5.94 5.94 0 0 1 -7.82 0c-.98 1.96-5.87 18.58-13.69 21.51m-24.44 36.18c4.88 0 9.77-36.18 9.77-36.18-2-2.93-3.91-8.8-2.93-21.51-1 1-2.93 0-3.91 0a90.68 90.68 0 0 1 -9.78 21.51c-1.95 10.76 0 36.18 6.85 36.18m74.31-36.18c1 11.74 6.84 35.2 18.57 35.2 12.72 0 18.58-17.6 21.52-35.2-6.85-3.91-9.78-10.75-11.74-21.51-4.89 1-8.8 1-12.71-1-3.91 9.8-11.73 20.56-15.64 22.51m8.8-26.4c-2.94-3.91-6.85-10.75-4.89-25.42h-6.85c-4.89 9.78-10.75 21.51-18.53 27.38 0 2 1 22.49 10.75 22.49 7.78 0 13.65-8.8 19.52-24.49m-47.91-24.4h-3.92c0 1-12.71 23.47-18.57 27.38-2 9.78-2 21.51 3.91 22.49 5.86 0 9.78-4.89 17.6-24.45-1.96-4.89-3.91-11.73.98-25.42m-28.36 1c-14.67 9.78-22.49 45-18.58 46 1 1 12.71-15.64 11.74-25.42-.98-6.91 9.77-21.58 6.84-20.6m138.84 23.42c-3.91-3.91-8.8-10.75-10.75-25.42a20.06 20.06 0 0 1 -10.76 0c-2.93 8.8-7.82 20.54-17.6 27.38 2 9.78 6.85 21.51 15.65 22.49 16.62.04 20.53-13.65 23.46-24.45m-133-26.4c-9.75 14.71-9.75 27.4-5.84 27.4 4.89 0 18.58-24.44 21.51-29.33-.98-4.87 9.78-14.67 5.87-15.67-6.85 0-19.56 16.67-21.51 17.64m240.53 121.25c-2.93 1-5.87 1-7.82 0-3.91 12.71-9.78 22.49-18.58 27.38-1 6.84-1 14.66 2.93 15.64 10.76 3.91 21.51-7.82 25.43-15.64-2.94-4.89-2.94-12.71-1.96-27.38m39.11 0a72.51 72.51 0 0 1 -18.58 27.38c-4.89 8.8-6.84 15.64-2.93 15.64 8.8 0 15.64-4.89 22.49-17.6-1-2.93 0-4.89 3.91-26.4-1.96 1.96-3.91 1.96-4.89.98m15.65 25.42c-3.92 3.91-7.83 5.87-10.76 12.71-1 2 17.6 3.91 27.38-37.15-1.96-2.94-7.78 15.64-16.62 24.44m-112.45-25.42a23.77 23.77 0 0 1 -11.73 0c-2 8.8-5.87 20.53-13.69 27.38 2 9.77 3.91 15.64 10.75 17.6 4.89 1 18.58 1 23.47-15.65-5.87-6.84-8.8-17.6-8.8-29.33m88-27.38a9.12 9.12 0 0 1 -8.8 0c-2.91 10.76-7.82 20.49-13.69 24.49-2 20.53 0 27.37 3.91 27.37 7.83 0 20.54-18.57 24.45-28.35-4.89-3.95-5.87-11.78-5.87-23.51m35.2 2h-3.91c-4.89 17.6-11.73 24.44-11.73 24.44-4.89 21.51-5.87 27.38-1 26.4 7.82-2.93 14.67-19.55 18.58-27.38-1.94-2.97-1.94-15.68-1.94-23.5m-87-1.96a18.64 18.64 0 0 1 -12.71 0c-2.94 11.73-7.82 20.53-14.67 24.45 0 9.77 1 28.35 14.67 25.42 10.75-2 21.51-21.51 22.49-26.4-5.89-2.98-7.85-9.78-9.8-23.47m37.11-2.93c-4.88-5.87-7.82-17.6-11.73-35.2a10.77 10.77 0 0 1 -7.82 0c-1 20.53-6.85 30.31-11.73 34.22 1.95 15.64 6.84 25.42 12.71 25.42 9.81-.02 17.64-18.58 18.57-24.44m34.23-35.2c-2 0-2.94 1-4.89 0 0 20.53-4.89 30.31-8.8 34.22 1 9.78-1 25.42 7.82 25.42 3.91 0 8.8-5.86 13.69-24.44-1.92-3.91-2.89-4.89-7.78-35.2m20.49 35.2s0 24.44 2 22.49c14.66-15.65 5.86-58.67 2.93-57.69-1.96 1.95 0 27.38-4.89 35.2m-125.2-35.2c-4.88 1-9.77 1-11.73 0-1.87 14.62-6.8 25.42-13.65 33.24 2.94 14.67 8.8 27.38 19.56 26.4 13.69 0 21.51-21.51 22.49-24.44-8.8-4.89-13.69-15.65-16.63-35.2m81.12-24.45a9.49 9.49 0 0 1 -8.8 1c0 11.73-3.91 18.58-6.84 21.51 2.97 17.56 6.88 36.16 15.68 36.16 7.82 0 12.71-18.58 12.71-35.2-6.84-4.89-12.71-21.51-12.71-23.47m43.96 21.51a123.59 123.59 0 0 1 -8.8 -21.51 3 3 0 0 1 -3.91 0c1 10.76-1 17.6-2.93 20.54 0 0 4.88 36.17 9.77 36.17 4.93.98 6.89-24.44 5.91-35.2m-95.8-21.51c-3.91 2-8.8 2-12.71 1-1 9.78-4.89 17.6-10.76 21.51 2.93 18.58 6.85 36.18 21.51 35.2 10.76 0 17.6-23.46 18.58-35.2-5.89-2.95-12.73-13.71-16.62-22.51m24.44 18.58c9.78 0 10.76-19.55 10.76-22.49-6.85-4.89-12.71-15.64-18.58-26.4-2 1-3.91 1-6.84 0 1.95 13.69-1 21.51-4.89 25.42 6.82 15.65 12.69 24.45 19.53 23.47m31.29-23.51c6.85 19.56 10.76 24.45 15.65 24.45 5.86-1 5.86-11.73 3.91-22.49-4.89-2.93-18.58-26.4-18.58-27.38h-3.91c5.86 14.71 3.91 21.55 2.93 25.42m33.29-2.89c-1 8.8 9.77 26.4 10.75 25.42 2.93-1-2.93-36.17-18.58-45.95-1.01-.98 8.76 13.69 7.83 20.53m-124.18 26.4c9.78-1 14.66-10.75 15.64-22.49-7.82-5.86-12.71-17.6-15.64-26.4a20.06 20.06 0 0 1 -10.76 0c-1 13.69-5.86 22.49-10.75 25.42 2.89 10.76 6.8 24.45 21.47 23.47m90.93-67.51c-3.91 0 6.85 10.76 5.87 15.65 2.93 4.89 15.64 29.33 21.51 29.33 3.91 0 3.91-11.73-6.85-27.38-.97-.93-15.64-17.6-20.53-17.6m-217.07 3s2-4.89-1-5.87c-4.89 0-18.58 18.58-24.45 21.51-1 2-8.8 24.45 1 26.4 8.8 1 18.58-15.64 24.44-27.38-2.92-2.95-1.94-8.82.01-14.66m46-1c0-1 0-5.87-4.89-5.87-5.87 0-13.69 18.58-22.49 21.51-2 10.76 0 25.43 8.8 26.4 12.71 1 20.54-14.66 24.45-26.4-4.93-2.93-5.91-9.77-5.91-15.64m138.88 15.64c5.83 10.76 14.63 28.36 24.41 27.36 9.78-2 1.95-24.44 1-26.4-5.87-2.93-19.56-21.51-24.45-21.51-2.93 0-1 4.89-1 5.87 1.96 5.88 1.96 11.75 0 14.68m-51.78 0c3.91 10.76 10.76 28.36 24.45 26.4 9.77-1 11.73-13.68 8.8-26.4-7.83-2.93-17.6-22.48-22.49-21.51-4.89 0-4.89 4.89-4.89 5.87-1.02 5.87-2 12.71-5.91 15.64m-41.06-21.51c-10.76 0-6.85 17.6-18.58 22.49 1 8.8 3.91 26.4 17.6 26.4 15.64 0 18.58-21.51 18.58-26.4-7.83-3.91-7.83-22.49-17.6-22.49" fill="#fff"/></svg>