<svg enable-background="new 0 0 94.6 115.9" viewBox="0 0 94.6 115.9" xmlns="http://www.w3.org/2000/svg"><path d="m83.8 17.7-25.6-14.8c-6.7-3.9-15-3.9-21.7 0l-25.6 14.8c-6.8 3.9-10.9 11-10.9 18.8v29.5c0 7.8 4.1 14.9 10.9 18.8l25.6 14.8c2.2 1.3 4.7 2.2 7.2 2.6v13.7h8v-13.8c2.3-.5 4.5-1.3 6.5-2.5l25.6-14.8c6.7-3.9 10.8-11.1 10.8-18.8v-29.5c0-7.8-4.1-14.9-10.8-18.8zm-43.3-7.9c4.2-2.4 9.5-2.4 13.7 0l5.3 3.1-20.2 13c-1.9 1.1-2.6 3.5-1.5 5.4s3.5 2.6 5.4 1.5c.1-.1.3-.2.4-.3l23.6-15.2 12.5 7.2c.9.5 1.8 1.2 2.5 1.9l-24.8 16c-5.7-5.5-14.7-5.5-20.4 0l-24.8-16c.8-.7 1.6-1.4 2.5-1.9zm6.8 50c-3.7 0-6.8-3-6.8-6.8s3-6.8 6.8-6.8 6.8 3 6.8 6.8c0 3.8-3.1 6.8-6.8 6.8 0 .1 0 .1 0 0zm-6.8 32.9-25.6-14.8c-4.3-2.5-6.9-7-6.9-11.9v-3.3l22.1 14.2c1.8 1.3 4.3.9 5.6-.9s.9-4.3-.9-5.6c-.1-.1-.3-.2-.4-.3l-26.4-17v-16.6c0-1 .1-2 .4-3l24.7 15.9c-2.1 7.8 2.6 15.9 10.4 17.9.1 0 .1 0 .2.1v26.6c-1.2-.3-2.2-.7-3.2-1.3zm46.1-26.7c0 4.9-2.6 9.4-6.8 11.9l-25.6 14.8c-.8.5-1.6.8-2.5 1.1v-26.6c7.6-2.3 12-10.2 9.9-17.8l24.7-15.9c.2 1 .3 2 .3 3z" fill="#3bb46c"/></svg>