<svg enable-background="new 0 0 171 223.4" viewBox="0 0 171 223.4" xmlns="http://www.w3.org/2000/svg" xmlns:xlink="http://www.w3.org/1999/xlink"><linearGradient id="a"><stop offset="0" stop-color="#5f5d9b"/><stop offset="1" stop-color="#6059f3"/></linearGradient><linearGradient id="b" gradientUnits="userSpaceOnUse" x1="18.4194" x2="19.4194" xlink:href="#a" y1="89.9978" y2="188.4978"/><linearGradient id="c" gradientUnits="userSpaceOnUse" x1="154.5" x2="154.5" xlink:href="#a" y1="141.7017" y2="39.2017"/><path d="m95.5 80.2v3.1c0-1 0-2.1 0-3.1z"/><path d="m15.4 125.8c-9.7-13.1-15.4-29.3-15.4-46.9v109.2h38.4v-41.4c-9-5.4-16.8-12.5-23-20.9z" fill="url(#b)"/><path d="m138 35.4v45c6.7 4.8 12.7 10.7 17.6 17.3 9.7 13.1 15.4 29.3 15.4 46.8v-109.1z" fill="url(#c)"/><g fill="#6059f3"><path d="m138 0h-59.1c-42.5 0-77.2 33.7-78.8 75.9 0 1-.1 2-.1 3.1 0 17.5 5.7 33.7 15.4 46.8 6.2 8.4 14 15.5 23 20.9 3.3 2 6.8 3.7 10.4 5.2 9.3 3.8 19.4 6 30.1 6h1.4c.9 0 1.7 0 2.6-.1 9.2-1 16.3-8.7 16.3-18.1 0-9.8-7.8-17.8-17.5-18.2-.2 0-.4 0-.7 0s-.4 0-.7 0c-7.6-.1-14.7-2.2-20.9-5.8-10.6-6.2-18.3-17-20.4-29.6-.4-2.3-.6-4.7-.6-7.2 0-23.5 19.1-42.6 42.6-42.6h57 7.4 25.6v-36.3z"/><path d="m155.6 97.7c-4.9-6.7-10.9-12.5-17.6-17.3-4.7-3.3-9.7-6.2-15.1-8.5-9.5-4-19.9-6.3-30.9-6.3-.6 0-1.3 0-1.9 0-1.2 0-2.4.1-3.6.2-8.8 1.3-15.6 8.8-15.6 18 0 10 8 18.1 18 18.2h.8.9c7.8 0 15.2 2.1 21.5 5.8 10.5 6.1 18.1 16.6 20.3 29 .5 2.5.7 5.1.7 7.7 0 23.5-19.1 42.6-42.6 42.6h-52.1-12.8-25.6v35 1.4h92.1c43.6 0 78.9-35.3 78.9-78.9 0-17.6-5.7-33.8-15.4-46.9z"/></g></svg>