<svg xmlns="http://www.w3.org/2000/svg" viewBox="0 0 2000 2000"><circle cx="1000" cy="1000" r="1000" fill="#007cdc"/><path d="M1093.6,485.2c54.4-3.4,109-4,163.2.6,61,6,122.2,16.8,180,37.4-6.2,34.2-12.2,68.2-18.4,102.4-51.6-1.2-103.2-1.6-154.8-1.8-40.4.6-81,1.4-121.2,6.2a338.41,338.41,0,0,0-54.6,9.2c-22.8,6.4-44.2,17.8-63,32a116.75,116.75,0,0,0-42.8,63c-5.6,21.6-8.2,44.6-2.2,66.4,4.2,15.4,13,29.4,24.6,40.6,26.6,28.2,60.6,47.8,95.4,64.4,37,19.2,76,34.6,113.4,52.8,43.6,23,87,50,117.6,89.4,18.6,25.6,34.8,53.8,41,85,7.2,34,5.4,69,0,103.2-9.4,50-22.6,100-48,144.4a271.78,271.78,0,0,1-74,84.2c-38.4,28.2-83.4,46.2-129.2,58-46.6,11.4-94.4,16.2-142,19.8-47.6,2.6-95.2,4-142.8,2-73.6-3.6-147-16.2-216.8-39.8q9-51.3,18.4-102.2c98.8,2,197.8,5,296.4-4.6,32.4-3.8,65.4-8,95.8-20.6,18.4-9.4,37.2-19.2,51.8-34.2,22.8-22.2,35.6-52.6,40.4-83.6,5.6-27.6,2.8-58.4-14.8-81.4-27-33.4-64.4-56.4-102.6-74.6-37-19.2-75.8-34.8-113.4-52.8-23.8-12-46.8-25.4-68.2-41.2A252.23,252.23,0,0,1,736,902.8c-14.4-36.2-14.6-76.2-9.6-114.2,7.8-51.4,20.8-103,46.8-148.4,22.2-37,52.4-69.6,89.2-92.4C896,526,934,512,972.8,502.4,1012.4,493.2,1053,488.2,1093.6,485.2Z" fill="#fff"/></svg>