<?xml version="1.0" encoding="utf-8"?>
<!-- Generator: Adobe Illustrator 19.2.1, SVG Export Plug-In . SVG Version: 6.00 Build 0)  -->
<svg version="1.1" id="Layer_1" xmlns="http://www.w3.org/2000/svg" xmlns:xlink="http://www.w3.org/1999/xlink" x="0px" y="0px"
	 viewBox="0 0 1000 1000" style="enable-background:new 0 0 1000 1000;" xml:space="preserve">
<style type="text/css">
	.st0{fill:#007CDC;}
	.st1{fill:#FFFFFF;}
</style>
<circle class="st0" cx="500" cy="500" r="500"/>
<path class="st1" d="M546.8,242.6c27.2-1.7,54.5-2,81.6,0.3c30.5,3,61.1,8.4,90,18.7c-3.1,17.1-6.1,34.1-9.2,51.2
	c-25.8-0.6-51.6-0.8-77.4-0.9c-20.2,0.3-40.5,0.7-60.6,3.1c-9.2,0.8-18.3,2.3-27.3,4.6c-11.4,3.2-22.1,8.9-31.5,16
	c-10.4,7.8-18.1,19-21.4,31.5c-2.8,10.8-4.1,22.3-1.1,33.2c2.1,7.7,6.5,14.7,12.3,20.3c13.3,14.1,30.3,23.9,47.7,32.2
	c18.5,9.6,38,17.3,56.7,26.4c21.8,11.5,43.5,25,58.8,44.7c9.3,12.8,17.4,26.9,20.5,42.5c3.6,17,2.7,34.5,0,51.6
	c-4.7,25-11.3,50-24,72.2c-9.3,16.4-21.9,30.9-37,42.1c-19.2,14.1-41.7,23.1-64.6,29c-23.3,5.7-47.2,8.1-71,9.9
	c-23.8,1.3-47.6,2-71.4,1c-36.8-1.8-73.5-8.1-108.4-19.9c3-17.1,6.1-34.1,9.2-51.1c49.4,1,98.9,2.5,148.2-2.3
	c16.2-1.9,32.7-4,47.9-10.3c9.2-4.7,18.6-9.6,25.9-17.1c11.4-11.1,17.8-26.3,20.2-41.8c2.8-13.8,1.4-29.2-7.4-40.7
	c-13.5-16.7-32.2-28.2-51.3-37.3c-18.5-9.6-37.9-17.4-56.7-26.4c-11.9-6-23.4-12.7-34.1-20.6c-19.1-13.3-34.2-32-43.4-53.3
	c-7.2-18.1-7.3-38.1-4.8-57.1c3.9-25.7,10.4-51.5,23.4-74.2c11.1-18.5,26.2-34.8,44.6-46.2c16.8-10.9,35.8-17.9,55.2-22.7
	C506.2,246.6,526.5,244.1,546.8,242.6z"/>
</svg>
