<svg xmlns="http://www.w3.org/2000/svg" viewBox="0 0 2000 1144.05"><g fill="#aa0e20" transform="translate(0-428)"><path d="m1178.37 1068.67l-177.85 345.33-230.89-437.9v-1l-46.8-85.28-51 86.32 328.69 595.86 328.65-595.9-52-86.32"/><path d="m1000.52 428l-40.52 64.48-186.17 312 46.8 89.44 179.93-286 175.77 286 47.84-93.6-156-262.09"/><path d="m1000.52 597.53c-552.26 0-1000.52 411.85-1000.52 412.89s448.26 412.9 1000.52 412.9 999.48-412.9 999.48-412.9-448.26-412.9-999.48-412.9m0 733.24c-430.58 0-916.28-320.33-916.28-320.33s485.7-321.37 916.28-321.37 916.28 313.05 916.28 321.37-486.74 320.33-916.28 320.33"/></g></svg>