<svg enable-background="new 0 0 32 32" viewBox="0 0 32 32" xmlns="http://www.w3.org/2000/svg"><circle cx="16" cy="16" fill="#d21e2b" r="16"/><path d="m16.1 5.9v-2.9l10.6 6.1-2.5 1.4zm8.4 14.4v-9.4l2.5-1.5v12.3zm-8.4 5 8.2-4.7 2.5 1.4-10.6 6.1v-2.8zm-10.9-3.3 2.5-1.4 8.1 4.7v2.9zm-.2-12.6 2.5 1.4v9.4l-2.5 1.5zm.2-.3 10.6-6.1v2.9l-8.1 4.7zm10.8-3-8.2 4.7v9.5l8.2 4.7 8.2-4.7v-9.5zm6.6 8.5-.4.6-2.3-1.3-3 1.7 3 1.7 2.3-1.3.4.6-2 1.1 2 1.1-.4.6-2-1.1v2.2h-.7v-2.6l-3-1.7v3.4l2.3 1.3-.4.6-2-1.1v2.2h-.7v-2.2l-2 1.1-.4-.6 2.3-1.3v-3.4l-3 1.7v2.6h-.7v-2.2l-1.9 1.1-.4-.6 2-1.1-2-1.1.4-.6 2.3 1.3 3-1.7-3-1.7-2.3 1.3-.4-.6 2-1.1-2-1.1.4-.6 1.9 1.1v-2.2h.8v2.6l3 1.7v-3.4l-2.3-1.3.4-.6 2 1.1v-2.2h.7v2.2l2-1.1.4.6-2.3 1.3v3.4l3-1.7v-2.6h.7v2.2l2-1.1.4.6-2 1.1z" fill="#fff"/></svg>