<svg enable-background="new 0 0 203 233" viewBox="0 0 203 233" xmlns="http://www.w3.org/2000/svg"><path d="m106 111v-78.1-32.9l97 55.5-28.9 16.6z" fill="#50c1e0"/><path d="m174.1 72.1-68.1-39.2v-32.9l97 55.5z" fill="#2492d1"/><path d="m106.2 111 67.7-39 28.5-16.5.4 111.8-28.8-16.8z" fill="#40a9ce"/><path d="m174 150.5-.1-78.5 28.5-16.5.4 111.8z" fill="#0784c8"/><path d="m101.5 121.3 67.6 39 28.5 16.5-96.5 56.2.1-33.3z" fill="#5b79bb"/><path d="m101.2 199.7 67.9-39.4 28.5 16.5-96.5 56.2z" fill="#5a5faa"/><path d="m101.4 121.4v78.2 32.9l-97-55.5 28.9-16.6z" fill="#476db4"/><path d="m33.3 160.4 68.1 39.2v32.9l-97-55.5z" fill="#4953a3"/><path d="m96.6 111.9-67.7 39.1-28.5 16.4-.4-111.7 28.8 16.8z" fill="#40a9ce"/><path d="m28.8 72.5.1 78.5-28.5 16.4-.4-111.7z" fill="#4571b7"/><path d="m96.5 111.7-67.7-39-28.5-16.5 96.6-56.2-.1 33.3z" fill="#009cc6"/><path d="m96.8 33.3-68 39.4-28.5-16.5 96.6-56.2z" fill="#5781c1"/></svg>