<svg xmlns="http://www.w3.org/2000/svg" viewBox="0 0 534 534" enable-background="new 0 0 534 534" xmlns:xlink="http://www.w3.org/1999/xlink"><defs><linearGradient id="3" gradientUnits="userSpaceOnUse" x1="330.17" y1="312.71" x2="307.38" y2="184.25" xlink:href="#0"/><linearGradient id="4" gradientUnits="userSpaceOnUse" x1="397.88" y1="343.56" x2="346.68" y2="203.99" xlink:href="#0"/><linearGradient id="2" gradientUnits="userSpaceOnUse" x1="137.94" y1="326.05" x2="209.68" y2="137.37" xlink:href="#0"/><linearGradient id="0" gradientUnits="userSpaceOnUse" x1="210.82" y1="264.55" x2="257.03" y2="45.23"><stop offset=".064" stop-color="#512589"/><stop offset=".435" stop-color="#8b307d"/><stop offset=".708" stop-color="#cb3c6f"/><stop offset=".926" stop-color="#e64169"/></linearGradient><linearGradient id="1" gradientUnits="userSpaceOnUse" x1="260.06" y1="277.6" x2="242.12" y2="69.18" xlink:href="#0"/></defs><circle cx="267" cy="267" r="267" fill="#f8f8f8"/><path d="m267 109.2c-1.3 7-3.1 13.9-4.6 20.9-12.2 53.1-24.4 106.1-36.7 159.2-1 4.5-4.2 7.4-7 10.8-17.4 20.9-34.6 41.9-52 62.8 20-63.9 39.9-128 59.8-191.9 1.7-5.7 5.1-10 8.3-14.8 10.8-15.7 21.2-31.6 32.2-47" fill="url(#0)"/><path d="m276.7 96.4c8 12.2 15.5 24.9 23.5 37.1 1.8 2.9 3.7 5.5 3.9 9 1.2 24.2.7 48.6 1.5 73 .9 22.3.5 44.6 1.5 66.9.9 17.8.3 35.6 1 53.4.6 13.1 1 26.1.8 39.2-32.1.6-64.1.4-96.1.5 14.4-62.2 28.7-124.4 42.8-186.6 7.1-30.8 13.9-61.7 21.1-92.5" fill="url(#1)"/><path d="m213.1 185.3c-19.3 62.6-39 125.2-58.2 187.9-23.3.1-46.5 0-69.8 0 36.7-54.1 73.7-108.1 110.3-162.2 6-8.6 11.5-17.4 17.7-25.7" fill="url(#2)"/><path d="m333 194.3c5.3 35.1 10.2 70.4 15.4 105.5-11.5 21-21.7 42.8-33 64-.1-21.2-1.3-42.4-1.2-63.7.1-19.3-.9-38.4-1.4-57.6-.1-3.9-.1-7.5 1.8-10.9 6.2-12.5 12.3-24.9 18.4-37.3" fill="url(#3)"/><path d="m340.7 199.2c5.1 7.3 9.7 15.1 14.5 22.7 32 50.9 64.2 101.4 96.7 152.1-28.6.1-57.2-.2-85.7 0-1.7-10.5-3.1-21.1-4.6-31.6-5.8-41.4-12-82.8-18.1-124.2-1.1-6.4-2.1-12.7-2.8-19" fill="url(#4)"/></svg>