<svg xmlns="http://www.w3.org/2000/svg" viewBox="0 0 559.57 495"><path d="M 0,0 H559.57 V495 H0 z"/><g fill="#fff"><path d="m364.78 126s94-60 98 21c0 0 4 100-98 248h58s142-222 47-287c0 0-42-28-105 18"/><path d="m321.78 126l16-12-23-48-30 20 37 40"/><path d="m359.78 152l-16 12 23 48 30-20-37-40"/><path d="m357.49 113l14.82 16.94-42.35 37.06-21.18-27.53 48.71-26.47"/><path d="m42.78 374h7v38h-7z"/><path d="m114.65 273.61l-6.92-2.53-69.71 109.89 5.9 3.76 70.73-111.12"/><path transform="matrix(.52399.85173-.85173.52399 282.51-25.43)" d="m160.5 176.43h7v127.2h-7z"/><path transform="matrix(0 1-1 0 487.62-73.57)" d="m277.09 142.83h7v128.38h-7z"/><path transform="matrix(.70711-.70711.70711.70711-169.85 175.73)" d="m123.7 266.96h7v51.87h-7z"/><path transform="matrix(.74431.66783-.66783.74431 310.87-78.25)" d="m254.12 332.81h7v68.1h-7z"/><path transform="matrix(-.38864.92139-.92139-.38864 545.48 78.17)" d="m243.31 187.77h7v64.54h-7z"/><path transform="matrix(-.37671-.92633.92633-.37671 222.54 589.58)" d="m306.14 185.31h7v69.22h-7z"/><path transform="matrix(-.24615-.96923.96923-.24615-7.27 501.74)" d="m187.98 172.46h7v162.47h-7z"/><path transform="matrix(.51129-.85941.85941.51129-63.93 434.98)" d="m346.98 192.46h7v162.47h-7z"/><path transform="matrix(.22852-.97354.97354.22852 33.05 545.1)" d="m356.98 170.46h7v162.47h-7z"/><path transform="matrix(.52532-.8509.8509.52532-15.06 449.68)" d="m392.04 178.89h7v118.9h-7z"/><path transform="matrix(-.75287.65816-.65816-.75287 770.82 446.26)" d="m298.12 333.81h7v68.1h-7z"/><path transform="matrix(-.19441.98092-.98092-.19441 574.86 182.7)" d="m208.9 259.86h7v135.12h-7z"/><path transform="matrix(.19.98-.98.19 601.6-76.96)" d="m344.15 258.43h7v138.68h-7z"/><path transform="matrix(-.88822.45942-.45942-.88822 1016.05 496.51)" d="m444.12 337.81h7v68.1h-7z"/><path transform="matrix(-.59.81-.81-.59 1050.58 177.7)" d="m476.74 310.44h7v89.47h-7z"/><path transform="matrix(-1 0 0-1 1025.57 790.95)" d="m509.28 379h7v32.95h-7z"/><path transform="matrix(-.86.51-.51-.86 1077.23 372.94)" d="m483.69 281.72h7v106.59h-7z"/><path transform="matrix(.93649-.3507.3507.93649-113.68 78.84)" d="m157.38 306.52h7v93.64h-7z"/><path transform="matrix(.52399.85173-.85173.52399 331.43-47.53)" d="m204.74 194.71h7v156.05h-7z"/><path d="m275.83 229h7v116.37h-7z"/><path transform="matrix(.89085.4543-.4543.89085 175.09-16.47)" d="m118.32 304.6h7v103.02h-7z"/><path transform="matrix(-.58397-.81178.81178-.58397-129.68 624.47)" d="m91.7 285.31h7v120.3h-7z"/><path d="m108.07 270.32l-.29.68 1 1v-1l-.71-.68"/><path d="m344.29 203.52l2.49.48v4l-2.52.22.03-4.7"/></g></svg>