<svg enable-background="new 0 0 134.9 193.2" viewBox="0 0 134.9 193.2" xmlns="http://www.w3.org/2000/svg"><path d="m70.8 193.2c-5.2-1.4-12.3-3.7-20.3-7.7-18.8-9.3-32.9-22.8-39.4-32-17.2-24.2-14.2-65.2 7.3-102.2-3.6 15.3 1.3 29.2 10.9 34.3 4.6 2.4 11.7 1.9 13.2 1.9 2.5-.1 7.7-.4 13.5-3.3 8.7-4.4 12.6-11.7 13.8-14 3.6-6.8 3.7-12.8 3.8-19.7.1-3.8 0-13.4-4-25-3.9-11.8-10.1-20.2-14.7-25.5 6.7 3.3 43.3 22.7 51.3 54 1.2 4.7 2.1 10.3 2 16.7.4 20.9-4.9 34.1-9 41.7-3.1 5.6-8.9 14.2-12.3 19.3-4.8 7.2-9 13-12 17-2.3 3.8-6.1 11.2-7.2 21.2-1.1 10.6 1.4 19 3.1 23.3z" fill="#f55"/><path d="m80.6 191.3c-1-2.5-2.2-6.4-2.5-11.3-.6-10.1 3.1-17.8 5.8-23.5 1.8-3.7 4.7-8.9 9.5-14.5 1.9-2.3 4.2-5.4 6.6-9.1 2.3-3.5 5.7-9.1 9-16.6 2.8-6.2 5.8-13 7.3-22.4.8-4.9 1.3-11.3.7-18.7 6.5 10.3 10.6 18.9 13 24.8 2.3 5.7 3.7 10 4.4 15.2.6 4.4.5 8.1.3 10.7 0 4.7-.6 11.4-3.5 18.8-5.9 15.2-17.3 23.4-22 26.3-6.7 4.8-13.4 9.6-20.2 14.3-2.7 2-5.6 4-8.4 6z"/></svg>