<svg xmlns="http://www.w3.org/2000/svg" viewBox="0 0 759 605"><path fill="#5b6bdc" d="m0 0h759v605h-759z"/><g fill="none" stroke="#fff" stroke-miterlimit="10"><ellipse cx="379.92" cy="302" rx="221.08" ry="212.1" stroke-width="24.953"/><ellipse cx="379.92" cy="302" rx="192.31" ry="184.5" stroke-width="12"/></g><g fill="#5b6bdc"><path d="m385 64s-42 48-40 75 70-5 70-5-31-28-18-71-12 1-12 1"/><path d="M379,542s41.09-41.1,38-68-69-3-69-3,30.57,28.14,19.32,71.63S379,542,379,542Z"/></g><g fill="#fff"><path d="m383 87s0 58 73 104l-31 46s-120-73-42-150"/><path d="m379.65 521s0-58-73-104l31-46s120 73 42 150"/><path d="m418.45 252.7c-75.15-48-76.32-108.83-76.32-108.83-81.93 76.4 43.2 158.82 43.42 159 76.7 48.18 77.88 109.83 77.88 109.83 72.36-93.6-44.75-159.85-44.98-160"/><path d="m376.92 311.71c-75-46.22-76.13-104.82-76.13-104.82-81.86 73.67 43 153 43.25 153.15 76.56 46.37 77.7 105.78 77.7 105.78 72.31-90.21-44.59-153.96-44.82-154.11"/></g></svg>