<svg xmlns="http://www.w3.org/2000/svg" viewBox="0 0 3902 3902"><defs><linearGradient id="0" x2="3902" gradientUnits="userSpaceOnUse"><stop stop-color="#be2e55"/><stop offset=".53" stop-color="#df6c4e"/><stop offset=".62" stop-color="#e4774d"/><stop offset=".85" stop-color="#ee8c4b"/><stop offset="1" stop-color="#f2944a"/></linearGradient><linearGradient id="1" x1="1530" x2="2654.24" gradientUnits="userSpaceOnUse"><stop stop-color="#be2e55"/><stop offset=".2" stop-color="#d04f51"/><stop offset=".37" stop-color="#db644f"/><stop offset=".49" stop-color="#df6c4e"/><stop offset=".59" stop-color="#e4774d"/><stop offset=".84" stop-color="#ee8c4b"/><stop offset="1" stop-color="#f2944a"/></linearGradient></defs><path d="M1904,19.49,19.49,1904a66.53,66.53,0,0,0,0,94.1L1904,3882.51a66.53,66.53,0,0,0,94.1,0L3882.51,1998.05a66.53,66.53,0,0,0,0-94.1L1998.05,19.49A66.53,66.53,0,0,0,1904,19.49ZM269.59,1904,1904,269.59a66.55,66.55,0,0,1,94.1,0L3632.41,1904a66.55,66.55,0,0,1,0,94.1L1998.05,3632.41a66.55,66.55,0,0,1-94.1,0L269.59,1998.05A66.55,66.55,0,0,1,269.59,1904Z" fill="url(#0)"/><path d="M1506.32,3020.76h913.94a100.29,100.29,0,0,0,100.29-100.29v-856.8a100.29,100.29,0,0,0-100.29-100.29H1611.75V1307.16H2341.2l-.54-215.43H1527.55A131.24,131.24,0,0,0,1396.31,1223v824.61a131.24,131.24,0,0,0,131.24,131.24h777.56v626.5H1505.62Z" fill="url(#1)"/><path d="M1538.7,2016V1234.73a21.67,21.67,0,0,1,21.66-21.67H2398V1178.4H1525.7a21.67,21.67,0,0,0-21.67,21.66v850.61a21.67,21.67,0,0,0,21.67,21.67h853.08a21.67,21.67,0,0,1,21.67,21.67v781.27a21.67,21.67,0,0,1-21.67,21.67H1541.17v34.66h872.28a21.67,21.67,0,0,0,21.67-21.66V2059.34a21.67,21.67,0,0,0-21.67-21.67H1560.36A21.67,21.67,0,0,1,1538.7,2016Z" fill="#fff"/><circle cx="1504.03" cy="2903.14" r="142.39" fill="#be2e55"/><circle cx="1504.03" cy="2903.14" r="96.58" fill="#fff"/><circle cx="2435.12" cy="1196.97" r="142.39" fill="#f2944a"/><circle cx="2435.12" cy="1196.97" r="85.43" fill="none" stroke="#fff" stroke-width="6.657" stroke-miterlimit="10"/></svg>