<svg xmlns="http://www.w3.org/2000/svg" viewBox="0 0 536 536"><circle cx="268" cy="268" r="268" fill="#23273d"/><circle cx="268" cy="268" r="244" fill="none" stroke="#fff" stroke-width="9.266" stroke-miterlimit="10"/><g fill="#fff"><path d="m286.45 300.49l-109.97-109.97-45.19 45.19-.77.77-26.02 26.02 9 9 26.02-26.02 100.97 100.97 45.96-45.96"/><path d="m414.45 300.49l-109.97-109.97-45.19 45.19-.77.77-12.02 12.02 9 9 12.02-12.02 100.97 100.97 45.96-45.96"/><path d="m480.45 237.49l-47.97-46.97-45.19 45.19-.77.77-12.02 12.02 9 9 12.02-12.02 38.97 37.97 45.96-45.96"/><path d="m156.98 286.41l-61.29 61.28-35.19-.19 78.09-79.48 18.39 18.39"/><path d="m183.98 312.22l-36.29 35.28-35.19-.19 53.09-53.48 18.39 18.39"/><path d="m208.98 338.22l-9.29 9.28-35.19-.19 26.09-27.48 18.39 18.39"/></g></svg>