<svg id="Layer_1" xmlns="http://www.w3.org/2000/svg" viewBox="0 0 298.4 309.5" width="2410" height="2500"><style>.st0{fill:url(#SVGID_1_)}.st1{fill:url(#SVGID_2_)}.st2{fill:url(#SVGID_3_)}.st3{fill:url(#SVGID_4_)}</style><linearGradient id="SVGID_1_" gradientUnits="userSpaceOnUse" x1="198.383" y1="262.161" x2="-11.109" y2="47.365"><stop offset="0" stop-color="#3683c5"/><stop offset="1" stop-color="#2dc4f3"/></linearGradient><path class="st0" d="M187.3 247.6l-37.5 61.9H74.9l37.5-61.9-37.5-61.9-37.4-61.9L0 61.9 37.5 0h74.9L74.9 61.9l37.5 61.9 37.4 61.9z"/><linearGradient id="SVGID_2_" gradientUnits="userSpaceOnUse" x1="309.482" y1="262.161" x2="99.993" y2="47.368"><stop offset="0" stop-color="#3683c5"/><stop offset="1" stop-color="#2dc4f3"/></linearGradient><path class="st1" d="M298.4 247.6l-37.5 61.9H186l37.5-61.9-37.5-61.9-37.4-61.9-37.5-61.9L148.6 0h74.9L186 61.9l37.5 61.9 37.4 61.9z"/><linearGradient id="SVGID_3_" gradientUnits="userSpaceOnUse" x1="69.656" y1="279.346" x2="7.769" y2="215.893"><stop offset="0" stop-color="#3683c5"/><stop offset="1" stop-color="#2dc4f3"/></linearGradient><path class="st2" d="M76.2 247.6l-37.5 61.9-37.4-61.9 37.4-61.9z"/><linearGradient id="SVGID_4_" gradientUnits="userSpaceOnUse" x1="290.604" y1="93.632" x2="228.717" y2="30.179"><stop offset="0" stop-color="#3683c5"/><stop offset="1" stop-color="#2dc4f3"/></linearGradient><path class="st3" d="M222.2 61.9L259.7 0l37.4 61.9-37.4 61.9z"/></svg>