<svg xmlns="http://www.w3.org/2000/svg" viewBox="0 0 2000 2000" width="2000" height="2000"><path d="M1000,0C447.71,0,0,447.72,0,1000S447.71,2000,1000,2000s1000-447.73,1000-1000S1552.3,0,1000,0Zm404,594.19q-1.52,13.06-4,26-2.73,14.48-6.65,28.71a163.21,163.21,0,0,1-9.69,26.77,81.72,81.72,0,0,1-12.81,20.06c-4.71,5.24-9.67,7.83-15,7.83q-12.4,0-30.88-9.78t-45.43-21.26a508.08,508.08,0,0,0-63-21.28q-36.22-9.79-82.07-9.81-47.62,0-80.69,11.8t-54.26,31.13c-14.13,12.8-24.58,27.3-31.31,43.24A123.29,123.29,0,0,0,958.17,776q0,28.34,15.84,50t42.38,40.13a497,497,0,0,0,60.4,35.81q34.64,17.69,68.85,36.19,35.24,19.16,68.75,41.29a311.14,311.14,0,0,1,60.46,52,236.07,236.07,0,0,1,42.34,67.68q15.85,38.14,15.87,87.73,0,74-33.51,137.33t-94.83,110.22q-61.3,46.78-148.17,73.55-24.78,7.51-50.17,12.72l-9.07,126.71A48.67,48.67,0,0,1,946,1693.28h-0.07a48.7,48.7,0,0,1-45.85-51.37l7.74-108.55q-22,1.35-44,1.43c-11.68,0-22.52-.74-33.65-1.25L822,1647.39a48.66,48.66,0,0,1-51.3,45.88h-0.07a48.71,48.71,0,0,1-45.87-51.37l8.59-120.31c-22.22-4.49-43.13-9.41-61.43-15.18q-37.46-11.81-63.07-24.77c-17.06-8.65-29.69-17-37.91-24.78s-12.36-19.68-12.36-35.46a151.1,151.1,0,0,1,1.77-18.9c1.16-8.39,2.78-17.46,4.83-27.11s4.55-19.71,7.51-29.93a166.29,166.29,0,0,1,10.6-27.93,80,80,0,0,1,13.66-20.45c5-5.23,10.43-7.9,16.33-7.9q15,0,35.72,12.23t51.57,26.72q30.86,14.59,73.23,27.15t101.43,12.64q52,0,91.31-11.8t65.7-32.27q26.47-20.48,40.12-47.64t13.71-59.42q0-29.09-15.91-51.14T1028.25,1125a439,439,0,0,0-59.07-35q-34.07-17.08-67.46-35.47-34.61-19-67.48-40.9a300.28,300.28,0,0,1-59.12-51.58A238.52,238.52,0,0,1,733.23,894q-15.86-38.52-15.87-89.67,0-70.84,31.73-130.69T837.3,570.94c29.64-22.52,64-41,102.8-55.73l10.78-150.74a48.7,48.7,0,0,1,97.25,5.49l-8.5,118.75a621.09,621.09,0,0,1,78.24-7.79l8.29-116.45a48.71,48.71,0,0,1,97.26,5.46v0l-8.18,114.52c4.53,0.52,9.27.81,13.71,1.46a603.71,603.71,0,0,1,72.34,15Q1333.9,510,1356.85,521t31.76,18.52c5.88,5,10.15,10.2,12.8,15.68s4,12.51,4,20.89c0,4.26-.48,10.27-1.35,18.14h0Z" fill="#01aef0"/></svg>