<svg enable-background="new 0 0 290 290" viewBox="0 0 290 290" xmlns="http://www.w3.org/2000/svg"><circle cx="145" cy="145" r="145"/><path d="m193 151.2 63-20.7 11.1-28.1c-15.4 3.8-31.5 8.1-48.1 13.1-9.3 2.8-18.4 5.7-27.2 8.6-2.7-23.4-22.5-41.6-46.7-41.6-24.1 0-44 18.2-46.7 41.6-8.8-2.9-17.9-5.8-27.3-8.6-16.6-5-32.7-9.3-48.1-13.1l11 28.1 63 20.7c4.5 1.5 8.3 4.6 10.7 8.7l8.3 14.6-3 3-3-6c-6 0-12.8-.2-20-1-6.9-.7-13.3-1.8-19-3 .5 3.5 1.3 7.6 3 12 .6 1.6 1.3 3.1 1.9 4.5.3 1.1.9 1.9 1.8 2.6 1.2 1 2.5 1.1 2.9 1.1 6.2.8 13 1.5 20.3 1.8 7.2.3 13.9.3 20 0l12 27c-1-10.3-2-20.7-3-31 2.1-1.6 5.4-4.4 8-9 .1-.2.2-.3.3-.5 2.8-5 3.5-9.8 3.7-12.7 0-.3 0-.6 0-.9h-5.2-9.7c-.1-1.3-.3-2.8-.5-4.5-.1-1.1-.3-2.3-.5-3.5-.4-2.3-.9-5.3-2-9-1-3.5-1.6-5.6-3-8-.1-.2-.2-.3-.3-.5-2.2-3.8-5.7-6.7-9.7-8.4.5-18.3 15.5-33 34-33 18.4 0 33.4 14.7 34 33-4.1 1.7-7.5 4.7-9.8 8.5-.1.2-.2.4-.3.5-1.4 2.4-2 4.5-3 8-1.1 3.7-1.6 6.7-2 9-.2 1.3-.4 2.5-.5 3.6-.2 1.7-.4 3.1-.5 4.4h-9.7-5.2v.9c.2 2.9.9 7.6 3.7 12.7.1.2.2.3.3.5 2.6 4.6 5.9 7.4 8 9-1 10.3-2 20.7-3 31l12-27c6.1.3 12.8.3 20 0 7.3-.3 14.1-1 20.3-1.8.4 0 1.7-.1 2.9-1.1.8-.6 1.5-1.5 1.8-2.6.7-1.4 1.3-2.9 1.9-4.5 1.7-4.4 2.5-8.5 3-12-5.7 1.2-12.1 2.3-19 3-7.2.8-14 1-20 1l-3 6-3-3 8.3-14.6c2.4-4.2 6.3-7.3 10.8-8.8z" fill="#c0904b"/><g fill="#d42e26"><path d="m109 168.5-37.8-3.2c-6.9-.6-13-4.6-16.1-10.7 0 0 0-.1-.1-.1-3-5.9-4.8-11.4-6-16 15.9 5.2 31.9 10.4 47.8 15.7 4.5 1.5 8.2 4.9 10 9.3z"/><path d="m180 168.5 37.8-3.2c6.9-.6 13-4.6 16.1-10.7 0 0 0-.1.1-.1 3-5.9 4.8-11.4 6-16-15.9 5.2-31.9 10.4-47.8 15.7-4.5 1.5-8.2 4.9-10 9.3z"/><path d="m131 217.5c-4.5-2.1-9.8-4.2-16-6-2.5-.7-5-1.3-7.3-1.8-5.7-1.2-10.7-4.7-13.5-9.9-.1-.1-.1-.2-.2-.3-1.6-3-2.5-5.8-3-8 5.3 1 11.4 1.7 18 2 3.9.2 7.6.1 11 0 1.2 3.2 2.5 6.5 4 10 2.3 5.1 4.7 9.8 7 14z"/><path d="m159 217.5c4.5-2.1 9.8-4.2 16-6 2.5-.7 5-1.3 7.3-1.8 5.7-1.2 10.7-4.7 13.5-9.9.1-.1.1-.2.2-.3 1.6-3 2.5-5.8 3-8-5.3 1-11.4 1.7-18 2-3.9.2-7.6.1-11 0-1.2 3.2-2.5 6.5-4 10-2.2 5.1-4.6 9.8-7 14z"/></g><path d="m160 151.5-15-10-15 10 5-17-15-12h18.4l6.6-17 6.5 17h17.5l-14 12z" fill="#c0904b"/></svg>