<svg xmlns="http://www.w3.org/2000/svg" viewBox="0 0 2000 2000" width="2000" height="2000"><circle cx="1000" cy="1000" r="1000" fill="#5b6dee"/><path d="M831.27 938.79a571.5 571.5 0 0 0 -104 8.95c28.25-261.28 246-459.12 505.24-459.1 158.73 0 267.49 77.72 267.49 238.64s-130.54 238.64-321 238.64C1038.42 965.91 971.87 938.79 831.27 938.79M821 1034.09c-190.45 0-321 77.72-321 238.64s108.76 238.64 267.49 238.64c259.27 0 477-197.82 505.24-459.1a571.5 571.5 0 0 1 -104 8.95C1028.13 1061.21 961.58 1034.09 821 1034.09" fill="#fff"/></svg>