<svg xmlns="http://www.w3.org/2000/svg" viewBox="0 0 1882.55 2000" width="2000" height="2000"><g transform="translate(-58)"><path d="m285 225.12c-86.76 72.68-176.32 162.24-212.74 271.48-42 128.77 16.74 260.32 72.83 375 55.91 117.45 117.46 232.27 170.6 352.52 42 95.14 100.72 207 86.77 313.47-11.16 75.62-36.41 148.29-50.36 223.91-11.16 50.36 36.41 0 53.15-13.95 97.93-84 204.23-179.13 243.43-307.9 19.52-64.31 8.37-123.19-13.95-184.71-22.31-58.73-47.57-114.67-72.83-173.55-53.13-117.6-109.07-235.05-165.16-352.66-22.31-42-44.78-86.77-64.31-131.56a458.33 458.33 0 0 1 -33.63 -151.08c-2.79-42-2.79-81.2 2.79-123.19 2.79-30.84 11.16-58.73 13.95-89.56 2.94-16.58-11-22.31-30.53-8.21m1281.62-.01c-86.76 72.88-176.32 162.4-212.74 271.48-42 128.77 16.74 260.32 72.83 375 55.94 117.61 117.61 232.28 170.76 352.68 42 95.14 100.72 207 86.77 313.47-11.16 75.62-36.41 148.29-50.36 223.91-11.16 50.36 36.41 0 53.15-13.95 97.93-84 204.23-179.13 243.43-307.9 19.52-64.31 8.37-123.19-13.95-184.71-22.31-58.73-47.57-114.67-72.83-173.55-53.15-117.61-109.09-235.07-165.18-352.68-22.31-42-44.78-86.77-64.31-131.56a458.33 458.33 0 0 1 -33.63 -151.08c-2.79-42-2.79-81.2 2.79-123.19 2.79-30.84 11.16-58.73 13.95-89.56 2.94-16.74-11-22.47-30.68-8.37" fill="#165098"/><path d="M906.23,12.37C808.3,93.57,702,191.5,643.11,306.16c-42,81.2-47.57,165.18-25.26,249,28,100.72,67.1,201.44,109.09,299.37,81.2,187.5,187.5,363.83,265.9,554.12,28,67.1,58.73,142.71,64.31,218.33,5.58,92.35-25.26,190.28-50.36,277.06-5.58,25.26-22.31,58.73-19.52,84,2.79,19.52,13.95,11.16,25.26,2.79a1411.55,1411.55,0,0,0,137.14-120.4c114.67-109.09,246.22-254.75,235.07-425.35-5.58-70-39.2-137.14-67.1-201.44-30.84-75.46-64.31-148.14-97.93-221-61.52-137.14-126-271.48-193.07-405.83-22.31-47.57-50.36-92.35-67.1-139.92-25.26-64.31-36.41-131.56-39.2-198.65-2.79-50.36,0-103.51,5.58-153.87,2.79-33.63,13.95-64.31,13.95-97.93,8.37-30.84-8.37-33.63-33.63-14.1h0Z" fill="#5c9dd5"/></g></svg>