<svg id="Layer_1" xmlns="http://www.w3.org/2000/svg" viewBox="0 0 91.4 91.4" width="2500" height="2500"><style>.st0{fill:#f0047f}.st1{fill:#ed8117}.st2{fill:#eebb18}.st3{fill:#5b6a72}.st4{fill:#dcf2f9}.st5{fill:#fefefe}.st6{fill:#979797}</style><path class="st0" d="M71.5 29.2c-5.1 0-9.3-4.2-9.3-9.3s4.2-9.3 9.3-9.3 9.3 4.2 9.3 9.3-4.2 9.3-9.3 9.3zm0-16.7c-4 0-7.3 3.3-7.3 7.3s3.3 7.3 7.3 7.3 7.3-3.3 7.3-7.3-3.3-7.3-7.3-7.3zM82.1 55.1c-5.1 0-9.3-4.2-9.3-9.3 0-5.1 4.2-9.3 9.3-9.3 5.1 0 9.3 4.2 9.3 9.3 0 5.1-4.2 9.3-9.3 9.3zm0-16.7c-4 0-7.3 3.3-7.3 7.3s3.3 7.3 7.3 7.3 7.3-3.3 7.3-7.3-3.3-7.3-7.3-7.3zM71.5 80.8c-5.1 0-9.3-4.2-9.3-9.3 0-5.1 4.2-9.3 9.3-9.3s9.3 4.2 9.3 9.3c0 5.1-4.2 9.3-9.3 9.3zm0-16.7c-4 0-7.3 3.3-7.3 7.3s3.3 7.3 7.3 7.3 7.3-3.3 7.3-7.3-3.3-7.3-7.3-7.3zM45.7 91.4c-5.1 0-9.3-4.2-9.3-9.3 0-5.1 4.2-9.3 9.3-9.3 5.1 0 9.3 4.2 9.3 9.3 0 5.1-4.2 9.3-9.3 9.3zm0-16.6c-4 0-7.3 3.3-7.3 7.3s3.3 7.3 7.3 7.3 7.3-3.3 7.3-7.3c0-4.1-3.3-7.3-7.3-7.3zM19.9 80.8c-5.1 0-9.3-4.2-9.3-9.3s4.2-9.3 9.3-9.3 9.3 4.2 9.3 9.3-4.1 9.3-9.3 9.3zm0-16.7c-4 0-7.3 3.3-7.3 7.3s3.3 7.3 7.3 7.3 7.3-3.3 7.3-7.3c.1-4-3.2-7.3-7.3-7.3zM9.3 55C4.2 55 0 50.8 0 45.6s4.2-9.3 9.3-9.3 9.3 4.2 9.3 9.3S14.5 55 9.3 55zm0-16.7c-4 0-7.3 3.3-7.3 7.3s3.3 7.3 7.3 7.3 7.3-3.3 7.3-7.3-3.2-7.3-7.3-7.3zM19.9 29.2c-5.1 0-9.3-4.2-9.3-9.3s4.2-9.3 9.3-9.3 9.3 4.2 9.3 9.3-4.1 9.3-9.3 9.3zm0-16.7c-4 0-7.3 3.3-7.3 7.3s3.3 7.3 7.3 7.3 7.3-3.3 7.3-7.3c.1-4-3.2-7.3-7.3-7.3zM45.7 18.6c-5.1 0-9.3-4.2-9.3-9.3S40.5 0 45.7 0C50.8 0 55 4.2 55 9.3s-4.2 9.3-9.3 9.3zm0-16.6c-4 0-7.3 3.3-7.3 7.3s3.3 7.3 7.3 7.3S53 13.4 53 9.3c0-4-3.3-7.3-7.3-7.3zM45.8 57.7c-6.7 0-12.2-5.5-12.2-12.2S39 33.3 45.8 33.3 58 38.8 58 45.5s-5.5 12.2-12.2 12.2zm0-22.4c-5.6 0-10.2 4.6-10.2 10.2s4.6 10.2 10.2 10.2S56 51.1 56 45.5s-4.6-10.2-10.2-10.2z"/><circle class="st0" cx="45.8" cy="25.6" r="5.1"/><circle class="st0" cx="59.8" cy="31.4" r="5.1"/><path class="st0" d="M70.8 45.6c0 2.8-2.3 5.1-5.1 5.1s-5.1-2.3-5.1-5.1 2.3-5.1 5.1-5.1 5.1 2.3 5.1 5.1zM65 59.7c0 2.8-2.3 5.1-5.1 5.1s-5.1-2.3-5.1-5.1 2.3-5.1 5.1-5.1 5.1 2.3 5.1 5.1zM50.7 65.6c0 2.8-2.3 5.1-5.1 5.1s-5.1-2.3-5.1-5.1 2.3-5.1 5.1-5.1 5.1 2.3 5.1 5.1zM36.8 59.7c0 2.8-2.3 5.1-5.1 5.1s-5.1-2.3-5.1-5.1 2.3-5.1 5.1-5.1 5.1 2.3 5.1 5.1z"/><circle class="st0" cx="25.7" cy="45.6" r="5.1"/><circle class="st0" cx="31.5" cy="31.4" r="5.1"/><path class="st1" d="M154.1 55.5c.8.6 2.3-.1 3.3-1.6v-.1c.6-.8.4-2-.4-2.6-.8-.6-2-.4-2.5.4v.1c-1 1.6-1.2 3.2-.4 3.8" transform="translate(-112.64 -3.69)"/><path class="st2" d="M154.9 54.4c.6.4 1.6-.1 2.3-1.1.4-.6.3-1.3-.3-1.7-.6-.4-1.4-.3-1.8.3-.6 1-.7 2.1-.2 2.5" transform="translate(-112.64 -3.69)"/><path class="st3" d="M151.5 49.6c-.1.1-.1.3.1.2.7-.2 2.1-.4 3.9.8 2.3 1.6 2.1-2.6 2.1-2.6-.6-.4-3.4-1.9-6.1 1.6M160.3 56c0 .2.2.1.2 0 2.4-3.8 0-5.8-.5-6.2 0 0-4 1.2-1.7 2.8 1.7 1.2 2 2.7 2 3.4" transform="translate(-112.64 -3.69)"/><path class="st4" d="M157.9 53.3c.5.3.7.4 1.1 0s2.1-2.5 3.8-4.7c1.7-2.3.7-6.1.5-6.3-.2-.2-4.1.1-5.5 2.6-1.4 2.5-2.7 4.9-2.9 5.4-.3.5-.1.7.3 1.1.2.2.8.6 1.4 1s1.1.7 1.3.9" transform="translate(-112.64 -3.69)"/><path class="st3" d="M158.4 53.8c-.2 0-.4-.1-.7-.3-.2-.1-.8-.6-1.4-1l-.9-.7-.5-.4c-.3-.2-.5-.4-.5-.6-.1-.3 0-.6.1-.8.1-.1.2-.3.3-.5.5-.9 1.6-2.9 2.8-4.8.4-.7 1.1-1.3 1.9-1.8.5-.2 1.2-.6 2.2-.8.4-.1.8-.1 1.2-.2.5 0 .6 0 .7.1 0 0 .1.1.3.6.1.3.2.8.2 1.2.2 1.1.2 3.3-1 4.8-1.4 1.8-2.9 3.4-3.6 4.2-.2.2-.3.4-.4.5l-.3.3c-.1.1-.3.2-.4.2m4.7-11.3c-.4 0-1.2.1-2.1.4-1 .3-2.4.9-3.1 2.1-1.2 1.9-2.2 3.9-2.8 4.8-.1.3-.2.4-.3.5-.1.2-.1.3-.1.4 0 .1.2.2.4.4l.5.4.9.7c.6.4 1.2.8 1.4 1 .4.3.6.3.8 0 .1-.1.2-.2.4-.5.7-.8 2.1-2.5 3.6-4.2.9-1.1 1-2.6 1-3.6-.1-1.1-.3-2.1-.4-2.3-.1-.1-.2-.1-.2-.1" transform="translate(-112.64 -3.69)"/><path class="st5" d="M159.3 47.7c.7.5 1.7.3 2.2-.4s.3-1.7-.4-2.2c-.7-.5-1.7-.3-2.2.4s-.3 1.7.4 2.2" transform="translate(-112.64 -3.69)"/><path class="st3" d="M160.2 48.2c-1 0-1.8-.8-1.8-1.8 0-.4.1-.7.3-1.1.6-.8 1.7-1 2.6-.4.8.6 1 1.7.4 2.6-.3.4-.7.7-1.2.8 0-.1-.1-.1-.3-.1m.1-3.2h-.2c-.4.1-.7.3-.9.6-.4.6-.3 1.5.3 1.9.6.4 1.5.3 1.9-.3.4-.6.3-1.5-.3-1.9-.3-.2-.6-.3-.8-.3" transform="translate(-112.64 -3.69)"/><g><path class="st6" d="M37 56.4l2.6-3.6.2.1-2.6 3.6-.2-.1zM38.4 56l1.5-2.1.2.1-1.5 2.1-.2-.1z"/></g></svg>