<svg enable-background="new 0 0 226.8 226.8" viewBox="0 0 226.8 226.8" xmlns="http://www.w3.org/2000/svg"><g fill="#5b6777"><path d="m58.3 92v45.3h94.7zm55.1-40.4-44.4 28.8h88.6zm0 123.5 44.2-28.8h-88.6zm54.8-40.4v-45.4h-94.7z"/><path d="m113.4 0c-62.6 0-113.4 50.8-113.4 113.4s50.8 113.4 113.4 113.4 113.4-50.8 113.4-113.4-50.8-113.4-113.4-113.4zm63.7 141.8c0 1.5-.8 2.9-2 3.7l-61.7 40.2-62-40.2c-.2-.2-.5-.3-.7-.5-.2-.2-.4-.4-.5-.6-.5-.7-.8-1.5-.8-2.4v-.1s0 0 0-.1v-56.9c0-1.6.8-2.9 2-3.7l62-40.2 61.7 40.2c.3.2.5.4.7.6s.4.4.5.7c.3.5.5 1 .7 1.6.1.3.1.5.1.8v.1z"/></g></svg>