<svg xmlns="http://www.w3.org/2000/svg" xmlns:xlink="http://www.w3.org/1999/xlink" viewBox="0 0 346.65 343.85"><defs><clipPath id="4"><path d="M189,331.92l-58.95-5.15a86.09,86.09,0,0,1-58.79-30.6l-38-45.33a86,86,0,0,1-19.92-63.21l5.15-58.95a86.09,86.09,0,0,1,30.6-58.79l45.33-38a86,86,0,0,1,55.52-20.26c2.55,0,5.12.11,7.69.34l58.95,5.15a86.06,86.06,0,0,1,58.79,30.61l38,45.33a86,86,0,0,1,19.93,63.2l-5.15,58.95A86,86,0,0,1,297.56,274l-45.33,38a86,86,0,0,1-55.51,20.26c-2.55,0-5.12-.11-7.69-.34M93.14,30.33l-45.33,38A88,88,0,0,0,16.5,128.51l-5.16,58.94a88,88,0,0,0,20.39,64.66l38,45.33a88,88,0,0,0,60.13,31.31l58.95,5.15c2.64.24,5.26.35,7.88.35a87.91,87.91,0,0,0,56.78-20.73l45.33-38a88,88,0,0,0,31.31-60.13l5.15-58.95a88,88,0,0,0-20.38-64.66l-38-45.33A88,88,0,0,0,216.75,15.1L157.8,10c-2.64-.23-5.26-.35-7.88-.35A87.87,87.87,0,0,0,93.14,30.33"/></clipPath><clipPath id="2"><path d="M184.94,6.3l61.14,16.38A86,86,0,0,1,298.66,63l31.64,54.82a86,86,0,0,1,8.65,65.7l-16.38,61.14a86,86,0,0,1-40.34,52.58L227.41,328.9a86,86,0,0,1-65.7,8.65l-61.14-16.38A86,86,0,0,1,48,280.83L16.35,226A86,86,0,0,1,7.7,160.31L24.08,99.17A86,86,0,0,1,64.42,46.59L119.23,15l-.49-.86.49.86A86,86,0,0,1,184.94,6.3m-66.7,6.93L63.43,44.87A88,88,0,0,0,22.16,98.66L5.78,159.79A87.94,87.94,0,0,0,14.63,227l31.64,54.81a88,88,0,0,0,53.79,41.27l61.13,16.38a88.87,88.87,0,0,0,23.07,3.06,88,88,0,0,0,44.15-11.91L283.22,299a88,88,0,0,0,41.27-53.79l16.38-61.13A88,88,0,0,0,332,116.84L300.38,62a88,88,0,0,0-53.79-41.27L185.46,4.38a88,88,0,0,0-67.22,8.85"/></clipPath><clipPath id="6"><path d="M132.56,21.85l54.85-4.8A86.06,86.06,0,0,1,250.62,37l42.17,35.39a86,86,0,0,1,30.61,58.78L328.19,186a86,86,0,0,1-19.93,63.21L272.87,291.4A86,86,0,0,1,214.09,322l-54.85,4.8A86.05,86.05,0,0,1,96,306.87L53.86,271.48a86.06,86.06,0,0,1-30.61-58.79l-4.8-54.85A86.09,86.09,0,0,1,38.38,94.63L73.77,52.46,73,51.82l.76.64a86.06,86.06,0,0,1,58.79-30.61m62.55-7.12c-2.61,0-5.24.11-7.87.35l-54.85,4.79A88,88,0,0,0,72.25,51.18L36.86,93.36A87.93,87.93,0,0,0,16.48,158l4.79,54.85A88,88,0,0,0,52.58,273l42.17,35.39a87.92,87.92,0,0,0,56.79,20.73c2.61,0,5.24-.11,7.87-.34l54.85-4.8a88,88,0,0,0,60.14-31.31l35.39-42.17a88,88,0,0,0,20.38-64.66L325.38,131a88,88,0,0,0-31.31-60.14L251.9,35.46a88,88,0,0,0-56.78-20.73h0"/></clipPath><clipPath id="8"><path d="M121.34,312.9,77.22,287.43a86,86,0,0,1-40.34-52.57L23.69,185.65a86.08,86.08,0,0,1,8.65-65.71L57.81,75.83A86.06,86.06,0,0,1,110.4,35.48l49.2-13.19a87.44,87.44,0,0,1,22.55-3A86,86,0,0,1,225.31,31l44.11,25.47A86,86,0,0,1,309.77,109L323,158.2a86,86,0,0,1-8.65,65.71L288.83,268a86,86,0,0,1-52.58,40.34l-49.2,13.19a87.44,87.44,0,0,1-22.55,3,86,86,0,0,1-43.16-11.64M159.09,20.37,109.88,33.56A88,88,0,0,0,56.09,74.83L30.62,119a88,88,0,0,0-8.85,67.21L35,235.37a88,88,0,0,0,41.27,53.79l44.12,25.47a88,88,0,0,0,44.14,11.9,89.23,89.23,0,0,0,23.07-3l49.21-13.19A88,88,0,0,0,290.56,269L316,224.9a88,88,0,0,0,8.86-67.21l-13.19-49.21a88,88,0,0,0-41.27-53.79L226.3,29.22a88,88,0,0,0-44.14-11.9,89.23,89.23,0,0,0-23.07,3.05"/></clipPath><clipPath id="0"><path d="M161.65,337.1l-60.8-16.29a86.07,86.07,0,0,1-52.58-40.35L16.8,226a86,86,0,0,1-8.65-65.71l16.29-60.8A86,86,0,0,1,64.79,46.87l54.5-31.47A86.13,86.13,0,0,1,162.45,3.77a87,87,0,0,1,22.55,3L245.8,23a86.07,86.07,0,0,1,52.58,40.35l31.47,54.5a86.09,86.09,0,0,1,8.65,65.71l-16.29,60.8A86.07,86.07,0,0,1,281.86,297l-54.51,31.47a86.11,86.11,0,0,1-43.15,11.64,87,87,0,0,1-22.55-3M118.3,13.68,63.79,45.15A88,88,0,0,0,22.52,98.94L6.23,159.73A88,88,0,0,0,15.08,227l31.47,54.51a88,88,0,0,0,53.79,41.27L161.13,339a89.3,89.3,0,0,0,23.07,3.06,88.08,88.08,0,0,0,44.15-11.91l54.51-31.47a88,88,0,0,0,41.27-53.79l16.29-60.79a88,88,0,0,0-8.85-67.22L300.1,62.39a88,88,0,0,0-53.79-41.27L185.52,4.83a89.29,89.29,0,0,0-23.07-3,88.07,88.07,0,0,0-44.15,11.9"/></clipPath><linearGradient id="7" y1="375.65" x2="0" y2="-508.46" xlink:href="#1"/><linearGradient id="5" y1="425.86" x2="0" y2="-644.97" xlink:href="#1"/><linearGradient id="3" x1="-66.46" x2="902.87" xlink:href="#1"/><linearGradient id="1" x1="-66.12" x2="907.42" gradientUnits="userSpaceOnUse"><stop stop-color="#e3204b"/><stop offset="1" stop-color="#6555a4"/></linearGradient><linearGradient id="9" x1="-329.87" x2="678.18" xlink:href="#1"/></defs><path d="M164,251V106.08H144.89v-9a3.74,3.74,0,0,1,3.73-3.73h54l-7.72,12.68h-16V251Z" fill="#2d2d2d"/><g data-name="Page-1"><path d="M115.75,251.08l-1.27,0A23.17,23.17,0,0,1,92,227.77v-6.83a6.33,6.33,0,0,1,2.3-4.89l12.55-10.34V226.9c0,7.63,3,11.5,8.89,11.5,7,0,8.45-6.25,8.45-11.5v-22c0-5.51-1.11-9.55-4.1-14.89L99,153.28c-4-6.84-6.12-12.08-6.12-20.14V114.22c0-15.25,7.91-23.31,22.87-23.31,15.61,0,22.87,7.06,22.87,22.22v5.1a7.15,7.15,0,0,1-2.66,5.58l-12.19,9.85V114c0-7.3-2.4-10.41-8-10.41s-8,3.11-8,10.41v16.53c0,5.6,1.09,10.32,3.23,14L133.8,183.7A37.94,37.94,0,0,1,139.06,203v24.8c0,7.28-2.15,13.24-6.22,17.26s-9.93,6.05-17.09,6.05" fill="#2d2d2d" data-name="Artboard-Copy-4"/></g><g data-name="Page-1"><path d="M243.46,250l-19.35-78.71V250H209.25V94.77a2.38,2.38,0,0,1,2.37-2.37h12.49v67.41L241.5,92.4h14.89l-20.74,72L258.34,250Z" fill="#2d2d2d" data-name="Artboard-Copy-4"/></g><g clip-path="url(#0)"><rect x="3.13" y="-.6" width="340.38" height="345.05" rx="163.75" transform="matrix(.13295-.99112.99112.13295-20.11 320.87)" fill="url(#1)"/></g><g clip-path="url(#2)"><rect x="3.04" y=".09" width="340.56" height="343.68" rx="158.84" transform="matrix(.13295-.99112.99112.13295-20.11 320.87)" fill="url(#3)"/></g><g clip-path="url(#4)"><rect x="2.73" y="2.97" width="341.2" height="337.9" rx="168.95" transform="matrix(.99915-.04118.04118.99915-6.94 7.3)" fill="url(#5)"/></g><g clip-path="url(#6)"><rect x="11.52" y="11.24" width="323.62" height="321.37" rx="158.2" transform="matrix(.97682-.21405.21405.97682-32.79 41.1)" fill="url(#7)"/></g><g clip-path="url(#8)"><rect x="15.65" y="17.32" width="315.35" height="309.21" rx="150.47" fill="url(#9)"/></g></svg>