<svg enable-background="new 0 0 32 32" viewBox="0 0 32 32" xmlns="http://www.w3.org/2000/svg"><circle cx="16" cy="16" fill="#2dc4e7" r="16"/><path d="m5.2 9c1.1 0 2.2-.1 3.3 0 .5.5.6 1.3 1 1.9h14.5c.4 0 .8 0 1 .4s.1.9-.1 1.2c-1 1.7-1.9 3.3-2.9 5-.4.6-.6 1.3-1.1 1.7-.4.4-1 .4-1.6.4h-6.7c-.4 0-.7 0-1-.3-.7-.8-1.1-1.8-1.5-2.7-.8-1.6-1.5-3.1-2.3-4.7-.2-.4-.3-.7-.5-1-.6 0-1.3 0-1.9 0-.3-.6-.3-1.2-.2-1.9zm7.5 12c.5-.1 1-.1 1.5 0s1 .5 1.2 1.1c.1.6.1 1.3-.1 1.9-.2.5-.8.8-1.4.9-.6 0-1.4 0-1.9-.5-.5-.6-.5-1.4-.4-2.1 0-.7.5-1.2 1.1-1.3zm5.9 0c.6-.1 1.2-.1 1.8.1.5.2.8.8.9 1.4.1.7 0 1.4-.5 1.9-.4.4-1.1.5-1.7.5s-1.2-.2-1.5-.8-.4-1.2-.2-1.9c.2-.6.6-1.1 1.2-1.2z" fill="#fff"/></svg>