<svg enable-background="new 0 0 416.6 416.6" viewBox="0 0 416.6 416.6" xmlns="http://www.w3.org/2000/svg" xmlns:xlink="http://www.w3.org/1999/xlink"><linearGradient id="a" gradientUnits="userSpaceOnUse" x1="209.7377" x2="206.7379" y1="57.5626" y2="374.0468"><stop offset="0" stop-color="#5b5c62"/><stop offset=".03751093" stop-color="#54555a"/><stop offset=".2121" stop-color="#35373a"/><stop offset=".3926" stop-color="#1e2020"/><stop offset=".5793" stop-color="#0d0f0e"/><stop offset=".7762" stop-color="#030503"/><stop offset="1" stop-color="#000200"/></linearGradient><linearGradient id="b"><stop offset="0" stop-color="#dabf26"/><stop offset=".3014" stop-color="#e2cc24"/><stop offset=".8577" stop-color="#f9ee1f"/><stop offset="1" stop-color="#fff81e"/></linearGradient><linearGradient id="c" gradientUnits="userSpaceOnUse" x1="196.0814" x2="220.0802" xlink:href="#b" y1="399.3635" y2="24.3823"/><linearGradient id="d" gradientUnits="userSpaceOnUse" x1="293.4366" x2="317.4355" xlink:href="#b" y1="405.5943" y2="30.613"/><linearGradient id="e" gradientUnits="userSpaceOnUse" x1="271.1489" x2="295.1477" xlink:href="#b" y1="404.1678" y2="29.1866"/><linearGradient id="f" gradientUnits="userSpaceOnUse" x1="296.0324" x2="320.0313" xlink:href="#b" y1="405.7604" y2="30.7791"/><linearGradient id="g" gradientUnits="userSpaceOnUse" x1="292.6385" x2="316.6373" xlink:href="#b" y1="405.5432" y2="30.5619"/><linearGradient id="h" gradientUnits="userSpaceOnUse" x1="230.0588" x2="254.0576" xlink:href="#b" y1="401.5381" y2="26.5568"/><linearGradient id="i" gradientUnits="userSpaceOnUse" x1="219.6709" x2="243.6697" xlink:href="#b" y1="400.8733" y2="25.892"/><linearGradient id="j" gradientUnits="userSpaceOnUse" x1="179.0714" x2="203.0702" xlink:href="#b" y1="398.2749" y2="23.2936"/><linearGradient id="k" gradientUnits="userSpaceOnUse" x1="209.7879" x2="233.7867" xlink:href="#b" y1="400.2407" y2="25.2595"/><linearGradient id="l" gradientUnits="userSpaceOnUse" x1="210.1069" x2="234.1058" xlink:href="#b" y1="400.2612" y2="25.2799"/><circle cx="208.3" cy="208.3" fill="url(#a)" r="208.3"/><path d="m208.3 8.3c-110.5 0-200 89.5-200 200s89.5 200 200 200 200-89.5 200-200-89.5-200-200-200zm130 339.9c-1 .9-2 1.8-2.9 2.6-.2.2-.5.4-.7.6-.5.4-1 .8-1.4 1.2-3.6 3.1-7.3 6-11.1 8.8-.2.2-.5.4-.7.5-.1.1-.3.2-.4.3-1.5 1.1-3 2.1-4.6 3.2-1.5 1-3.1 2.1-4.7 3.1-.1 0-.1.1-.2.1-1.9 1.2-3.8 2.4-5.8 3.5-1.8 1-3.5 2-5.2 2.9-.2.1-.3.2-.5.2 0 0-.1.1-.1.1-.3.2-.6.3-.9.5s-.6.3-.9.5c-.2.1-.3.2-.5.3s-.3.2-.5.2c-.7.4-1.4.7-2 1-.2.1-.4.2-.6.3-.1.1-.3.1-.4.2-.1 0-.2.1-.2.1-1.6.8-3.1 1.5-4.6 2.2-.1 0-.2.1-.2.1-.6.3-1.2.6-1.9.9-23.8 10.7-50.3 16.7-78.1 16.7-105 .3-190.2-84.9-190.2-190s85.2-190.3 190.3-190.3c88.3 0 162.6 60.2 184.1 141.8.1.2.1.5.2.7s.1.4.2.6c.3 1.2.6 2.4.9 3.7.1.5.2 1 .3 1.4.2.9.4 1.9.6 2.9.1.7.3 1.3.4 2 .1.5.2 1 .3 1.4.2 1.2.4 2.4.6 3.5.3 1.7.5 3.4.8 5.1v.2c.2 1.7.5 3.4.7 5.1 0 .2 0 .4.1.5.2 1.7.4 3.4.5 5.1 0 .2 0 .4.1.7.1.7.1 1.4.2 2.1.1.8.1 1.7.2 2.5 0 .5.1.9.1 1.4.1 1.4.1 2.9.2 4.3v.5c.3 12.4-.5 26.4-3.5 41.5v.1c-.7 3.7-1.6 7.4-2.6 11.1-.1.5-.3 1-.4 1.5s-.3 1-.4 1.5c-.2.6-.4 1.2-.5 1.8-.2.8-.5 1.6-.7 2.4-.3.8-.5 1.6-.8 2.5-1.2 3.8-2.6 7.6-4 11.3 0 .1-.1.2-.1.4-10.9 27.3-27.5 51.3-48.5 70.6z" fill="url(#c)"/><path d="m294.7 378.5c.3-.1.5-.2.7-.3.1-.1.3-.1.4-.2-.4.1-.8.3-1.1.5z" fill="url(#d)"/><path d="m288.4 326c-4-5.6-7.3-11-10.2-16.2-2.3-4.2-6-7.5-10.4-9.4-7.3-3.1-14.5-6.2-21.8-9.3-1.2-.5-2.4-.7-3.6-.7h-11.4c-.7 0-1.1.6-1 1.2 3.1 15.3 10.6 40.8 30.6 65.1 9.1 11 18.6 19.2 26.8 25.1.6-.3 1.3-.5 1.9-.8.1 0 .2-.1.2-.1 1.5-.7 3-1.5 4.6-2.2-1.8-1.3-3.9-3.1-6.1-5.4-1.3-1.5-2.4-2.9-3.2-4.2-.2-.2.1-.6.4-.5 2.6.8 5.6 1.9 8.7 3.4 2.3 1.2 4.4 2.4 6.2 3.6 0 0 .1-.1.1-.1.2-.1.3-.2.5-.2 1.7-1 3.5-1.9 5.2-2.9l-3.1-2.6c-1.1-.9-2.4-1.6-3.7-2-10.4-3.3-18-7.6-22.7-10.7-8-5.3-11.3-9.4-12.6-11.3-2.4-3.3-4.2-7-4.8-8.2-1.5-3-2.5-5.7-3.2-7.8-.1-.2.2-.4.3-.2 1.3 1.3 3.1 3.1 5.1 5.3 3 3.4 4 4.8 6.2 7.1 3 3.1 5.6 5 7.9 6.6 7.4 5.3 15.2 8.5 20.1 10.3-.4-2.5-.8-5-1.4-7.8-1.1-4.8-2.5-9.2-3.9-13-.1-.3.2-.6.5-.4.7.3 1.7.9 2.5 1.9.7.8 1 1.6 1.2 2.3.3.9.6 1.7 1 2.5 1.5 2.9 3.3 6 5.3 9.2 3.7 5.9 7.6 11 11.2 15.3.1 0 .1-.1.2-.1 1.6-1 3.1-2 4.7-3.1 1.5-1.1 3.1-2.1 4.6-3.2.1-.1.3-.2.4-.3.2-.2.5-.4.7-.5-10.4-8.2-22.7-19.8-34-35.7z" fill="url(#e)"/><path d="m295.7 377.9c.5-.3 1.1-.5 1.6-.8.3-.2.7-.3 1-.5s.6-.3.9-.5.6-.3.9-.5c-1.5.8-2.9 1.6-4.4 2.3z" fill="url(#f)"/><path d="m294.1 378.8c.1 0 .2-.1.3-.1.1-.1.2-.1.3-.2-.2.1-.4.2-.6.3z" fill="url(#g)"/><path d="m254.6 263.7c-4.8-7.8-10.1-13.6-14.4-17.6-1.1-1-2.7-.9-3.7.1-2 2-4.6 4.2-7.9 6.2-5 3-9.8 4.4-13.1 5-.6.1-1.2.4-1.5.9-.4.5-.6 1.1-.5 1.8.1 1.6 1.4 2.4 1.5 2.4 6.6 5.6 15.9 12.1 28 17.6 6 2.7 11.8 4.7 16.9 6.2 2 .6 3.8-1.3 3.2-3.3-1.6-5.5-4.2-12.2-8.5-19.3z" fill="url(#h)"/><path d="m390.7 266.2c.3-.8.5-1.6.8-2.5.2-.8.5-1.6.7-2.4.3-1.1.6-2.2.9-3.4.1-.5.3-1 .4-1.5 1-3.7 1.8-7.4 2.6-11.1v-.1c2.3-11.9 3.6-24.3 3.6-36.9 0-1.5 0-3.1-.1-4.6 0-.2 0-.4 0-.5 0-1.4-.1-2.9-.2-4.3 0-.5-.1-.9-.1-1.4 0-.8-.1-1.7-.2-2.5-.1-.7-.1-1.4-.2-2.1 0-.2 0-.4-.1-.7-.1-1.7-.3-3.4-.5-5.1 0-.2 0-.4-.1-.5-.2-1.8-.4-3.5-.7-5.1 0-.1 0-.1 0-.2-.2-1.8-.5-3.4-.8-5.1-.2-1.2-.4-2.4-.6-3.5-.1-.5-.2-1-.3-1.4-.1-.7-.3-1.4-.4-2-.2-1-.4-2-.6-2.9-.1-.5-.2-1-.3-1.4-.3-1.2-.6-2.5-.9-3.7-.1-.2-.1-.4-.2-.6s-.1-.5-.2-.7l-34.1 22c1.2 5.1 2.3 10.1 3.5 15.2-5.4-7.5-17.4-21.9-37.8-29.6-6.7-2.5-18.4-6.9-33.2-4.4-15.4 2.6-28 11.7-34.9 19.5-7 7.9-13 15.7-13 15.7-1.5 2-3.8 5-7.3 9-2.1 2.4-4 4.4-5.6 5.9-.2.2-.6-.1-.4-.3 3.1-5.7 6.2-11.4 9.3-17.1.6-1.1.3-2.4-.6-3.2-5.2-4-13.2-9-24-11.7-3.6-.9-22.8-5.2-42.3 4.3-5.4 2.6-9.6 6.1-18 13.1-9.5 7.8-16.9 15-22.2 20.6-.4.4-1.1 0-.9-.6 1.7-4 4.1-8.6 7.5-13.4 5.6-8.1 11.9-13.7 16.8-17.4.7-.5 1-1.4.9-2.3-.9-4.5-1.7-9.5-2.2-14.9-.5-4.8-.7-9.3-.8-13.4 0-.6-.8-.8-1.1-.2-1.5 3.1-3 6.4-4.4 9.9-2.6 6.4-4.6 12.4-6.2 18 0 .1-.2.1-.2 0 1.1-6.6 2-13.9 2.4-21.9.6-11.2.1-21.2-.9-29.8.5 4.8 1.5 10.3 3.4 16.3.9 2.8 1.8 5.3 2.8 7.7 2-5.8 4.8-12.5 8.8-19.7 4.4-7.8 9-14.2 13.2-19.2-1.7-.3-5.2-1.3-8.7-4.2-3.3-2.7-4.8-5.9-5.5-7.5 4.3 5.6 11.1 8.6 17.8 7.7 8.3-1.1 12.7-7.5 13.3-8.5 3.3-4.6 6.6-9.2 9.8-13.8-1.3-.9-2.9-2.3-4.5-4.3-1.8-2.3-2.8-4.4-3.3-6 1.6 2.1 4 4.7 7.3 7.2 1.9 1.4 3.7 2.4 5.3 3.2-1.5 1-3.3 2.4-5 4.3-2.6 3-4.1 5.9-4.8 8 .1.3 1.2 3 4.2 4 2.6.8 4.8-.3 5.2-.5 1.7-.4 4.9-1.3 8-3.8 4.1-3.4 5.5-7.5 6-9.2-.2.2-1.2.9-2.5.7-.7-.1-1.2-.5-1.5-.7.8 0 1.7-.1 2.7-.3 1.4-.3 2.5-.7 3.3-1.2-.9-2.4-1.7-5.3-2.3-8.7-.6-3.3-.7-6.2-.7-8.7 1.6 3.4 3.1 7.5 4.2 12.3.5 2.1.8 4 1 5.8-.6 2.9-1.7 4.8-2.5 5.8-.7.9-2.3 3.1-5.2 4.7-1.9 1-4 1.5-4.9 3.5-.2.3-.2.7-.3.9.4.4.9.7 1.3 1 3.9 2.3 8.6.7 10 .2 2.2-1.1 5.1-2.9 8-5.7 2-1.9 3.4-3.9 4.5-5.5-1.4.5-2.9.3-3.7-.7-.5-.6-.6-1.3-.7-1.7.7-.1 1.5-.1 2.3-.2 1.4 0 2.6 0 3.7.2-1.3-3.6-2.6-6.4-3.5-8.3-1.7-3.5-2.7-5.2-3.3-8.2-.5-2.6-.5-4.7-.3-6.2 1.1 3.5 2.3 6.2 3.1 7.9 2.6 5.5 4.8 7.7 6.1 12.6.7 2.5.8 4.6.8 6-.7.4-1.8 1-3 2-1.5 1.3-1.4 1.6-2.7 2.7-2.3 2-4 2-4.5 3.5-.2.7-.1 1.4 0 1.8 1.2.9 2.3 1.3 3.2 1.5 4.5 1 9.8-2.4 13.5-8.3.1-.2.7-1.1.5-2-.1-.5-.5-1-1.1-1.3 1.1 0 2.4-.3 3.5-1.2.6-.5.9-1 1.2-1.5-1.8-3.3-3.6-7.4-5.1-12.1-1.1-3.3-1.8-6.4-2.4-9.3 3 8.6 4.8 12.5 6 14.5.3.5 1.2 2 2.2 4.3.7 1.8 1.1 3.2 1.3 4.2-.9 2.5-2.1 4-3 4.8-2.3 2.2-4.5 2.4-6.3 5-.8 1.2-1.2 2.3-1.3 3 4.1 1.4 6.5.9 8 .2.7-.4 1.1-.8 3.8-2.7 1.4-1 2.6-1.8 3.4-2.3 1.8-.3 3-1.9 2.9-3.5-.1-.9-.6-1.7-1.3-2.3 1.4.7 3.7 1.6 4.6.8 1-1-.1-4.3-3-8.2-1.4-1.9-3.4-4.7-5.2-8.5-2.5-5.2-2.7-8-4.7-12.8-1.2-2.9-3.3-7-6.8-11.5-2.8.2-5.6.4-8.3.7-6-4.2-11.6-5.9-15.1-6.7-4.4-1-9.3-2.1-15.1-.2-4.3 1.4-7.2 3.9-8.8 5.5-3.6 2.8-7.5 5.8-11.7 8.7-4.9 3.4-9.6 6.4-14.2 9-1 .5-2.4 1.2-4.2 2-4.9 2.2-6.5 2.5-8.2 3.5-1.6.9-3.5 2.5-5.1 5.6-6.1 8.1-12.1 16-18.2 24.1-11.5 10.6-24.3 24.4-36.1 42-9.1 13.5-22.9 34.5-30 65.2-4.3 18.6-4.8 35-4.2 47.7 9.1 1 19 1.5 29.7 1.5 19-.1 35.8-2.1 50-4.8-1.2.9-3 2.2-5.3 3.3-6.9 3.4-12.3 2.9-19.8 4-3.7.5-8.9 1.6-15.2 4 6.2 2.5 15 5.7 25.8 8.7 15.8 4.4 30.9 8.6 50.7 8.3 14.6-.2 27.2-2.7 36.7-4.7 7.4-1.5 13.5-3.1 17.9-4.3-8.5-6.9-17-13.9-25.4-20.8-6.8 2.5-17.6 5.3-30.8 4.7-23-1.1-39-12.1-45.3-17 9.4 4.5 36.9 16.6 61.2 10.3 4.9-1.3 14.7-4.6 25-9.4 8.1-3.8 14.7-7.6 19.4-10.5-.2-.8-.6-2-1.5-3.2-1.4-2-3.3-2.8-4.2-3.2 5 1.7 15.7 6 24.3 16.7 4.9 6 7.5 12.1 8.9 16.3 7 13.4 16.8 29.5 30.7 46.3 13.8 16.6 27.6 29.3 39.4 38.6.5-.4 1-.8 1.4-1.2.2-.2.5-.4.7-.6 1-.9 1.9-1.7 2.9-2.6 12.8-11.9 34.3-35.1 48.2-70.3 0-.1.1-.2.1-.4 1.7-3.9 3-7.7 4.3-11.6z" fill="url(#i)"/><path d="m208.7 112.4c-.2-.3-.6-.5-1-.5-1.7.1-3.9.1-6.3-.3-3.5-.6-6.4-1.7-8.4-2.8-.5-.3-1.1-.1-1.5.3-1.2 1.4-2.6 2.9-4.3 4.5-1.2 1.1-2.3 2-3.4 2.8-.7.5-.6 1.7.2 2 3.2 1.4 6.4 2.9 9.6 4.3.2.1.3.1.5.1h13.1c.6 0 1.1-.4 1.2-1 .1-.8.3-1.7.7-2.6.5-1.2 1-2.2 1.5-3 .3-.4.3-1 0-1.4-.6-.7-1.3-1.5-1.9-2.4z" fill="url(#j)"/><path d="m229 116.9c-.6.3-1.6.8-3 1-1.3.2-2.3 0-3-.1.8 1 1.7 2.7 2.4 4.9.5 1.7.6 3.1.6 4.3.4.2 1.7.6 3.3.1 1.8-.5 2.8-1.9 3-2.3-.2-1-.5-2.3-1-3.8-.7-1.7-1.6-3.1-2.3-4.1z" fill="url(#k)"/><path d="m237.6 115.9c-4.3-.1-5.9-.3-7.6-1-1-.4-1.8-.9-2.4-1.2-1.2-.4-2.8-.8-4.8-1-1.9-.2-3.6-.1-4.9.1-1.2.3-4.6 1.5-5.6 4.3-1.4 3.8 1.9 9.8 9.3 12.6.4 0 1.4-.1 2.4-.9.7-.5 1.1-1.2 1.3-1.6.1-1.1 0-2.8-.5-4.7-.6-2.3-1.6-3.9-2.4-4.9 1 0 2.5 0 4.1-.5 1.3-.4 2.3-.9 3-1.3.8 1.1 1.8 2.7 2.5 4.8.5 1.6.8 3.1.9 4.3 1.2.2 4.1.6 7.3-.9 1.9-.8 3.1-2 3.9-2.8 0-1.8 0-3.6 0-5.4-2.6.1-4.8.1-6.5.1z" fill="url(#l)"/></svg>