<svg enable-background="new 0 0 468.4 468.4" viewBox="0 0 468.4 468.4" xmlns="http://www.w3.org/2000/svg"><path d="m234.2 0c-129.3 0-234.2 104.9-234.2 234.2s104.9 234.2 234.2 234.2 234.2-104.9 234.2-234.2-104.9-234.2-234.2-234.2zm-13.4 74c5.6-7.6 10-14.8 13.4-21.3 3.9 7.6 9.3 16.6 16.9 26 5.6 6.9 11.3 12.6 16.4 17.2-10.5-.3-21.2-.4-32.1-.4-11.6 0-22.9.1-33.9.4 6-5.7 12.7-12.9 19.3-21.9zm27.4 319.9c-5.9 8.6-10.5 16.9-14 24.2-3.6-6.6-7.9-13.7-12.8-21-6.7-9.8-13.5-18.2-19.9-25.4 10.1.6 20.8 1 32.1 1 11.4 0 22.2-.4 32.4-1-5.7 6-11.8 13.4-17.8 22.2zm61.8-80.7c-14 15.7-26.6 31.2-38 46.2-25.7 0-51.5 0-77.3 0-5.3-10.1-12.8-21.7-23.2-33.5-23.6-26.5-50.4-39.9-67-46.4 22.2 0 52.8 2.8 86.8 14.6 16.6 5.8 30.9 12.6 42.8 19.4 11.8-13.3 23.6-26.6 35.4-39.9-20.2-3-40.9-6.5-62.2-10.5-48.5-9.3-93.8-20.4-135.6-32.5 24.2-19.7 49.8-42.6 75.8-68.9 18.2-18.4 34.7-36.5 49.5-54.1h75.8c11.8 12.5 24.6 25.4 38.5 38.5 15.2 14.3 30.1 27.3 44.5 39.2-17.7-.4-41.8-2.9-68.9-11.5-20.8-6.6-37.8-15.1-50.7-22.7-4.5 5.5-9.7 11.3-15.5 17.2-8.2 8.2-16.2 15.2-23.7 21 26.9 4 55.3 9.1 84.9 15.5 39.7 8.7 76.3 18.7 109.8 29.3-26 21.8-53.9 47.9-81.7 79.1z" fill="#2d9cdb"/></svg>