<svg xmlns="http://www.w3.org/2000/svg" viewBox="0 0 556.5 404"><path d="M556.5.5l-11,58S518,51,504,78L473,187l13-9h62l-14,48H464L429.19,344.62A76.09,76.09,0,0,1,356.26,399h0a76.1,76.1,0,0,1-73.78-57.45L206.14,66.13A10.9,10.9,0,0,0,195.59,58h0A10.92,10.92,0,0,0,185,66.35L120,324.49A105.18,105.18,0,0,1,18,404H0l12-58s30,6,40-25L83,213,69,225H8l13-47H89L128.06,54.68A72.62,72.62,0,0,1,198.43,0h0a72.62,72.62,0,0,1,70.41,54.86l75.65,277.9A13.44,13.44,0,0,0,357.54,343h0a13.45,13.45,0,0,0,13-10.14L440.09,68.68A89.81,89.81,0,0,1,525.78,1Z"/></svg>