<svg xmlns="http://www.w3.org/2000/svg" viewBox="0 0 231.33 189.61"><path d="M87.4,151.05A174.93,174.93,0,0,0,115,153.22c31.38,0,59.86-8.17,80.78-21.43-25.67-37.55-64.19-90-104.54-105a83.78,83.78,0,0,0-29.32-5.29c-10.56,0-19.25,2.09-26.13,6.19S25.49,37,25.49,43.17a14.06,14.06,0,0,0,1.65,6.71,18.89,18.89,0,0,0,5.06,5.75c5.75,4.28,18.16,7,37.29,8.22,8.78.52,15.61,1,20.43,1.64q21.27,2.39,33.73,13.67c8.27,7.53,12.42,16.74,12.42,27.74q0,19.57-17,32.27-12.82,9.5-31.63,11.88Z" fill="#f58634"/><path d="m220.53 108.63c6.93-9.79 10.8-20.7 10.8-32.2s-3.87-22.42-10.8-32.2" fill="#97989a"/><path d="M42.28 129.69a90 90 0 0 0 31.75 6q19.39 0 31.5-8.22t12.11-21.14q0-10.28-8.69-16.88c-17.2-13.08-59-6.5-81.72-16.79-6.5-3.16-11.47-7.18-14.84-12.11A28.76 28.76 0 0 1 7.51 47.34C-10.68 81 5.44 115.66 42.28 129.69" fill="#f58634"/><g fill="#97989a"><path d="M203.14,26.56C181.8,10.3,150.21,0,115,0A170.92,170.92,0,0,0,72,5.39a107.94,107.94,0,0,1,24.19,5.25c45.37,15.37,82.29,61.41,107,98Z"/><path d="M1.17,187.46,2,186.31a9.33,9.33,0,0,0,2.36,1.34,6.84,6.84,0,0,0,2.44.46,4.21,4.21,0,0,0,2.41-.62,1.92,1.92,0,0,0,.93-1.63,1.58,1.58,0,0,0-.67-1.29,3.4,3.4,0,0,0-1.84-.6l-.81-.06a11.92,11.92,0,0,1-3.61-.62A2.88,2.88,0,0,1,2,182.36a2.27,2.27,0,0,1-.38-1.28A2.53,2.53,0,0,1,2.79,179a5,5,0,0,1,3-.83,8.05,8.05,0,0,1,2.65.44,8.84,8.84,0,0,1,2.48,1.31L10.15,181a7.66,7.66,0,0,0-2.09-1.21,6.42,6.42,0,0,0-2.24-.4,3.93,3.93,0,0,0-2,.47A1.37,1.37,0,0,0,3,181a1.13,1.13,0,0,0,.12.51,1.74,1.74,0,0,0,.39.44,6,6,0,0,0,2.86.63q1,.06,1.56.12a4.53,4.53,0,0,1,2.59,1.05,2.77,2.77,0,0,1,.95,2.13,3,3,0,0,1-1.31,2.47,5.64,5.64,0,0,1-3.42,1,9.22,9.22,0,0,1-3-.47,9,9,0,0,1-2.62-1.42ZM35,178.35v6.94a3.06,3.06,0,0,0,.62,2.24,3.83,3.83,0,0,0,2.47.56,3.76,3.76,0,0,0,2.45-.56,3,3,0,0,0,.62-2.24v-6.94h1.33v7.3a3.52,3.52,0,0,1-1,2.84,5.33,5.33,0,0,1-3.39.86,5.33,5.33,0,0,1-3.39-.86,3.52,3.52,0,0,1-1-2.84v-7.3Zm31.59,4.77H71.3a2.25,2.25,0,0,0,1.53-.44,1.62,1.62,0,0,0,.52-1.31,1.66,1.66,0,0,0-.52-1.31,2.05,2.05,0,0,0-1.46-.47h-4.8v3.53Zm-1.33,5.95V178.35h6.15a3.58,3.58,0,0,1,2.45.78,2.62,2.62,0,0,1,.9,2.12,3,3,0,0,1-.87,2.26,3.08,3.08,0,0,1-2.3.87h-5v4.69Zm31.57,0V178.35h8.43v1.24h-7.1v3.14h4.3V184h-4.3v3.88h7.54v1.23Zm32-5.95h4.73a2.25,2.25,0,0,0,1.53-.44,1.62,1.62,0,0,0,.52-1.31,1.66,1.66,0,0,0-.52-1.31,2.05,2.05,0,0,0-1.46-.47h-4.8v3.53Zm-1.33,5.95V178.35h6.15a3.55,3.55,0,0,1,2.46.8,2.76,2.76,0,0,1,.89,2.18,3,3,0,0,1-.69,2,3,3,0,0,1-1.84,1l2.67,4.71h-1.47L133,184.38h-4.16v4.69Z"/></g><g fill="#f58634"><path d="m159.25 189.07v-10.72h.7l7 8v-8h1.33v10.72h-.68l-7-8v8m30.7 0v-10.72h8.42v1.23h-7.09v3.14h4.29v1.28h-4.29v3.87h7.53v1.24m23.72-.04v-9.49h-4.52v-1.23h10.36v1.23h-4.51v9.49"/><path d="m158.71 189.07v-11.26h1.49l.16.19 6 6.91v-7.1h2.42v11.8h-1.47l-.16-.19-6-6.91v7.1h-2.42m1.07-10.61v9.52h.2v-7.46l1-.36 6.7 7.69v-9.5h-.24v7.47l-.95.35-6.71-7.71m30.95 10.07v-11.26h9.52v2.32h-7.1v2.05h4.3v2.32h-4.3v2.79h7.54v2.32h-10v-.54m1.13-10.18v9.63h7.78v-.14h-7.54v-5h4.3v-.14h-4.3v-4.24h7.1v-.15m24.15 10.22v-8.94h-4.51v-2.32h11.44v2.32h-4.51v9.48h-2.42m1.09-10.03v8.94h.24v-9.52h4.52v-.15h-9.27v.15h4.51v.54"/></g></svg>