<svg enable-background="new 0 0 275.7 239.9" viewBox="0 0 275.7 239.9" xmlns="http://www.w3.org/2000/svg" xmlns:xlink="http://www.w3.org/1999/xlink"><linearGradient id="a" gradientTransform="matrix(1 0 0 -1 0 242)" gradientUnits="userSpaceOnUse" x1=".000015" x2="275.7" y1="122.05" y2="122.05"><stop offset="0" stop-color="#030003"/><stop offset="1" stop-color="#202c29"/></linearGradient><linearGradient id="b" gradientTransform="matrix(1 0 0 -1 0 242)" gradientUnits="userSpaceOnUse" x1="28.6" x2="247.6" y1="127.9" y2="127.9"><stop offset="0" stop-color="#f7d833"/><stop offset="1" stop-color="#f0940d"/></linearGradient><path d="m275.7 77.7-137.7 162.2-138-162.1 46.8-77.8h182.2z" fill="url(#a)"/><path d="m247.6 75.6-109.4 128.7-109.6-128.6 30.9-51.8h157.3z" fill="url(#b)"/><path d="m229 0h-182.2l-46.8 77.8 138 162.1 137.7-162.2zm-91 234-133.1-156 44.5-74h177.1l44.4 73.9z" fill="#a79d61"/><path d="m186.4 132.7-18.8-12.8-.2-12.5-48.4-28.5 16.9-9.5 50.5 29.7z" fill="#799588"/><path d="m122.3 77.1 13.6-7.7v-15.7l-13.6 7.1z" fill="#e8eeec"/><path d="m186.4 60.2-50.5-29.3-53.1 30.5 20.4 9.3 32.7-17 32 17z" fill="#ff0100"/><path d="m186.4 77.1-18.5 10.4v-16.8l18.5-10.5z" fill="#ff6266"/><path d="m103.2 119.9-18.5 10.4v-15.8l18.5-10.5z" fill="#bed1cb"/><path d="m84.7 130.3 51 31 50.7-28.6-18.8-12.8-32.2 19.3-32.2-19.3z" fill="#475c60"/><path d="m82.8 92.1 52.7 30.5 17.8-10-50.1-27.3v-14.6l-20.4-9.3z" fill="#ff3632"/><path d="m135.4 139.2 13.8-8.3v-16l-13.7 7.7z" fill="#e5f0f0"/></svg>