<svg xmlns="http://www.w3.org/2000/svg" width="2000" height="2000" viewBox="0 0 2000 2000"><circle cx="1000" cy="1000" r="1000" fill="#efd96f"/><path d="m1377.35 708c-215.23 0-396.71 173-557.08 316.52-46.42-42.2-97.07-92.84-139.27-139.27-4.22-4.22-8.44-4.22-12.66-4.22q-6.33 6.33 0 12.66c38 46.42 84.41 101.29 135 147.71-84.41 80.19-219.46 181.47-325 181.47-215.23 0-215.23-295.42-29.54-354.5 8.44 0 8.44-12.66 0-8.44-244.69 59.07-232.03 409.37 33.85 409.37 126.61 0 240.56-84.41 358.72-185.69 126.61 113.95 287 206.79 489.55 206.79 523.32 0 506.44-582.4 46.43-582.4m-50.64 536c-164.59 0-325-71.74-464.23-181.47 160.37-139.27 320.74-295.42 506.43-295.42 371.38-.03 379.82 481.09-42.21 476.89"/><circle cx="562.83" cy="830.39" r="54.86"/></svg>