<?xml version="1.0" encoding="utf-8"?>
<!-- Generator: Adobe Illustrator 19.2.1, SVG Export Plug-In . SVG Version: 6.00 Build 0)  -->
<svg version="1.1" id="Layer_1" xmlns="http://www.w3.org/2000/svg" xmlns:xlink="http://www.w3.org/1999/xlink" x="0px" y="0px"
	 viewBox="0 0 2000 2000" style="enable-background:new 0 0 2000 2000;" xml:space="preserve">
<style type="text/css">
	.st0{fill:#EFD96F;}
	.st1{fill:#333333;}
</style>
<rect x="0" y="0" class="st0" width="2000" height="2000"/>
<g id="Layer_2">
</g>
<g id="Thanks_to_Pieter_Boels_x21_">
	<g>
		<path class="st1" d="M1423,732c-228,0-416,183-586,335c-49-43-104-96-146-146c-4-5-10-6-13-4c-4,3-5,9-1,13c39,48,91,106,140,155
			c-91,86-230,190-342,190c-226,0-227-313-29-372c9-2,9-13,0-10c-259,64-245,429,34,429c133,0,255-89,378-194
			c133,120,301,218,517,218C1923,1346,1907,732,1423,732z M1371,1299c-173-1-341-77-488-192c167-145,336-311,535-311
			C1806,796,1816,1302,1371,1299z"/>
		<circle class="st1" cx="564" cy="861" r="56"/>
	</g>
</g>
</svg>
