<svg xmlns="http://www.w3.org/2000/svg" viewBox="0 0 2000 2000" enable-background="new 0 0 2000 2000"><path fill="#efd96f" d="m0 0h2000v2000h-2000z"/><g fill="#333"><path d="m1423 732c-228 0-416 183-586 335-49-43-104-96-146-146-4-5-10-6-13-4-4 3-5 9-1 13 39 48 91 106 140 155-91 86-230 190-342 190-226 0-227-313-29-372 9-2 9-13 0-10-259 64-245 429 34 429 133 0 255-89 378-194 133 120 301 218 517 218 548 0 532-614 48-614m-52 567c-173-1-341-77-488-192 167-145 336-311 535-311 388 0 398 506-47 503"/><circle cx="564" cy="861" r="56"/></g></svg>