<svg height="226.777" viewBox="0 0 226.777 226.777" width="226.777" xmlns="http://www.w3.org/2000/svg"><path d="m94.466 103.013 38.213 30.797v-9.555l-38.213-30.796z"/><path d="m113.533.289c-62.543 0-113.244 50.701-113.244 113.245 0 62.542 50.701 113.243 113.244 113.243s113.244-50.701 113.244-113.243c0-62.544-50.701-113.245-113.244-113.245zm.637 184.438c-40.111 0-56.982-32.115-56.982-56.102v-29.779l36.995 29.779h-23.275c0 18.227 15.008 42.381 41.569 42.381 31.167 0 43.194-25.646 43.194-42.381l12.907 10.569c.001 9.251-14.77 45.533-54.408 45.533zm32.637-63.419s2.032 24.086-13.924 33.945c-15.956 9.858-27.441 6.505-36.893 1.32-9.452-5.183-14.229-16.599-14.229-18.801h15.45s3.454 8.843 14.227 9.856c10.774 1.018 14.636-4.927 14.636-4.927l-45.532-36.741s-1.627-21.851 11.281-32.115c12.907-10.266 26.525-10.468 37.809-4.371 11.279 6.098 15.956 19.513 15.956 19.513h-15.348s-3.557-7.928-13.415-9.554c-9.859-1.625-15.552 4.878-15.552 4.878zm23.071 6.911-36.994-29.779h23.273c0-18.227-15.008-42.381-41.566-42.381-31.169 0-43.196 25.646-43.196 42.381l-12.907-10.569c0-9.25 14.771-45.533 54.408-45.533 40.112 0 56.982 32.116 56.982 56.103z"/></svg>