<svg xmlns="http://www.w3.org/2000/svg" viewBox="0 0 2000 1993.98" width="2000" height="2000"><g transform="translate(-.99-3)"><path d="m1829.85 555.54h-.16c-208.66-.09-377.79-169.05-377.89-377.67v.13s0-.26 0-.33c0-94.59-76.69-171.33-171.29-171.33s-171.3 76.78-171.3 171.36c0 .07 0 .3 0 .3-.11 206-166.11 374.41-372.09 377.6-2.17-.08-4.34-.2-6.53-.2-94.6 0-171.27 76.81-171.27 171.39s76.68 171.33 171.29 171.33h.32c204.36.17 370.74 162.47 377.5 365.19q-.5 6.56-.51 13.25c0 .1 0 .21 0 .32-.12 140-76.4 262.25-189.65 327.47a376.35 376.35 0 0 1 -187.61 49.77v-.06c-3.7 0-7.37.13-11 .36-204.06-5.43-367.81-172.51-367.82-377.84h-.28l-.49.11v-.08c0-94.59-76.3-171.26-170.9-171.26s-171.17 76.65-171.17 171.28 76.82 171.26 171.42 171.26h.21c208.66.09 377.79 168.83 377.9 377.45v-.34s0 .48 0 .55c0 94.59 76.69 171.44 171.29 171.44a172.11 172.11 0 0 0 172.07 -171.54c0-.05 0-.1 0-.15a377 377 0 0 1 377.11 -377.56v.08a172.17 172.17 0 0 0 172.07 -171.63c0-94.59-77-171.26-171.58-171.26h-.49c-204-.1-370.48-163.49-377.24-365.89.29-4 .56-8.12.56-12.23 0-.1.05-.21.05-.31.17-208.62 169.38-377.68 378.07-377.68s378.06 169.23 378.07 378h-.38l-.17-.1v.08c0 94.59 77 171.26 171.57 171.26s171.47-76.67 171.47-171.25-76.55-171.27-171.15-171.27" fill="#2fade2"/><path d="M550.5,174.44c0,0.05,0,.11,0,0.16h0C550.41,383.23,381,552.33,172.32,552.44h-0.2C77.52,552.44,1,629.12,1,723.71S77.44,895,172,895h0c209,0.11,378.66,170,378.66,377h-0.08c0,95,76.65,171.75,171.25,171.75s171.27-76.43,171.27-171-76.7-171.14-171.3-171.14c-0.1,0-.21.06-0.32,0.06v0c-208.65-.17-377.74-169.33-377.74-378s169.25-378,378-378l0-.24-0.11-.45h0.08c94.6,0,171.29-76.33,171.29-170.91S816.39,3,721.79,3,550.5,79.85,550.5,174.44Z" fill="#707374"/></g></svg>