<svg xmlns="http://www.w3.org/2000/svg" viewBox="0 0 226.78 226.78" width="2500" height="2500"><defs><style>.cls-1{fill:#0082c6}</style></defs><title>sys</title><g id="Laag_2" data-name="Laag 2"><path class="cls-1" d="M128.11 110.63c78.76 14.83-28.39 98.16-105.34 22.73 90.76 60.5 137.5 3.65 104.66-21.18a.87.87 0 0 1 .68-1.55z"/><path class="cls-1" d="M84.28 77.45c-68.14 22.71 9.93 76.27 16.7 49.21a.87.87 0 0 0-1.1-1.05c-10.03 3.39-65.26-12.69-15.6-48.16z"/><path class="cls-1" d="M202.77 91.09c-59-43.83-169.71-7.68-112.6 23.26a.87.87 0 0 0 1.2-1.13c-23.23-51.12 94.75-35.57 111.4-22.13z"/><path class="cls-1" d="M153.81 154.78C185 140 159.63 89.45 118.38 99.21a.87.87 0 0 1-.74-1.52c32.11-25.13 92.36 33.53 36.17 57.09z"/></g></svg>