<svg xmlns="http://www.w3.org/2000/svg" viewBox="0 0 2000 1041.72" width="2000" height="2000"><g fill="#0082c6" transform="translate(0-479.13)"><path d="M1170.49,922.09C2045.56,1086.88,855,2012.75,0,1174.57c1008.42,672.18,1527.79,40.52,1162.93-235.35a9.65,9.65,0,0,1-1.92-13.51A9.54,9.54,0,0,1,1170.49,922.09Z"/><path d="M683.47,553.39C-73.68,805.67,793.73,1400.85,869,1100.19a9.74,9.74,0,0,0-12.3-11.69C745.35,1126.19,131.63,947.49,683.47,553.39Z"/><path d="M2000,705C1344.45,218,114.3,619.61,748.88,963.41a9.68,9.68,0,0,0,13.1-4,9.83,9.83,0,0,0,.3-8.57C504.16,382.86,1815,555.61,2000,705Z"/><path d="M1456,1412.64c346.52-164.19,64.71-725.9-393.69-617.45a9.69,9.69,0,0,1-11.49-7.36,9.51,9.51,0,0,1,3.33-9.47C1410.88,499.07,2080.33,1150.88,1456,1412.64Z"/></g></svg>