<svg enable-background="new 0 0 185.9 73.5" viewBox="0 0 185.9 73.5" xmlns="http://www.w3.org/2000/svg"><g fill="#fd0000"><path d="m0 0 1.5 9.4h8.3l11.1 64.1h10.5l-11.5-64.1 8.2-.3-1.6-9.1z"/><path d="m51.9 0h-20l8.8 73.5h9.1l-2.4-24.4 6.2-.1 5.8 24.4h9.9zm-6 39.9-3.4-31.2h1.9l7 31.2z"/><path d="m156.6 0-1.5 9.4h-8.2l-11.1 64.1h-10.5l11.5-64.1-8.3-.3 1.6-9.1z"/><path d="m72.9 73.5v-64.2h-8v-9.3h26.9v9.3h-7.9l-.1 64.2z"/><path d="m160.1 0h10.3l-11.7 64.3h6.1l10.9-64.3h10.3c-3.5 20.8-6.9 41.5-10.4 62.3-.1 1.1-.8 5-4.2 8-2.7 2.4-5.6 3-6.8 3.2-3 0-6.1 0-9.1 0-1.8 0-4.6-1.3-6.1-3.8-1.6-2.5-1-5.4-.8-6.6 1.1-6.3 5.4-30.3 11.5-63.1z"/><path d="m116.6 0h-19.8l-4.5 73.5h10.2l1.3-24.6h5.5l1.5 24.6h10.5zm-12.8 39.8 1-30.8h2.8l2 30.8z"/></g></svg>