<svg xmlns="http://www.w3.org/2000/svg" viewBox="0 0 1343.93 516.79"><path fill="#223752" d="M 0,0 H1343.93 V516.79 H0 z"/><g data-name="Home 02"><g><path fill="#fff" d="m1114.66 227.66l69.86-106.15h45.4l-91.58 132.59 102.23 146.8h-47.76l-79.33-118.78-78.16 118.78h-46.97l101.44-147.2-92.75-132.19h47.36l70.26 106.15"/><path data-name="х" fill="#00c29d" d="m1113.48 282.12l-78.16 118.78h-46.97l101.44-147.2-92.75-132.19h47.36l70.26 106.15"/><g fill="#fff"><path d="m764.33 115.89h186.39v43.85h-186.39z"/><path d="m764.33 236.47h186.39v43.85h-186.39z"/><path d="m764.33 357.05h186.39v43.85h-186.39z"/></g><path fill="#00c29d" d="m1137.73 253.8l-24.88 28.93.7-56.45 24.18 27.52"/></g><g fill="#fff"><path d="M400.3,400.9H360.89V118.4H400.3Zm68.46-282.5h96.72a190.64,190.64,0,0,1,54.14,8,145.24,145.24,0,0,1,49,25.14q21.88,17.16,35.42,43.89t13.53,64.24q0,36.32-13.53,62.84a131.15,131.15,0,0,1-35.42,43.89,152,152,0,0,1-49,25.94,178.32,178.32,0,0,1-54.14,8.58H468.76Zm39.41,247.78h49.35A149.17,149.17,0,0,0,604.69,359a109,109,0,0,0,37.42-20.75,92.87,92.87,0,0,0,24.48-33.51q8.74-20,8.75-45.09,0-26.34-8.75-46.28a91.07,91.07,0,0,0-24.48-33.32,108.24,108.24,0,0,0-37.42-20.35,153,153,0,0,0-47.17-7H508.17Z"/><path d="m248.02 118.4h75.46v34.72h-75.46v-34.72"/></g><path data-name="Path" fill="#00c29d" d="m233.12 400.9h-39.4v-247.78h-90.36v-34.72h129.76v34.72 247.78"/></g></svg>