<svg enable-background="new 0 0 227.2 227.2" viewBox="0 0 227.2 227.2" xmlns="http://www.w3.org/2000/svg"><circle cx="113.6" cy="113.6" fill="#3d4f59" r="113.6"/><g fill="#fff"><path d="m129.6 180.4h-35.2c.4-.5 1.1-1.2 2.1-1.7 2.4-1.2 4.3-.3 5.8-.9 1.4-.6 2.7-2.5 2.9-8.3v-101.3c0-2.2-1.8-4-4-4h-30.5c-.5 0-.9.2-1.2.6-.4.4-.8 1.1-1.1 1.9-.6 1.9 0 3.5.2 4-.7-.1-1.3-.2-2-.3-.2-1.6-.6-3.9-1.7-6.5-1.1-2.5-2.5-4.4-3.5-5.7l1.7-2.2c.5.9 1.7 2.4 3.7 3.7 1.6 1 3.1 1.3 4 1.5 27.8-.1 55.7-.2 83.5-.3.4 0 3.5.2 5.3-2.2.8-1 1.1-2 1.2-2.7 1.1.9 1.1.9 2.2 1.9-1.1 1.2-2.8 3.3-3.9 6.2-1.2 3-1.4 5.7-1.4 7.4l-2.3-.2c.1-.3.9-2.9-.7-5.2-1.1-1.6-2.7-2-3.2-2.2l-29-.1c-2.2 0-4 1.8-4 4l.6 101.5c-.1 5.5 1.2 7.5 2.5 8.1 1.7.8 3.9-.3 6.3 1.3.8.6 1.3 1.2 1.7 1.7z"/><path d="m112.2 20.7c-51.3 0-92.9 41.6-92.9 92.9s41.6 92.9 92.9 92.9 92.9-41.6 92.9-92.9-41.6-92.9-92.9-92.9zm0 179.1c-47.6 0-86.2-38.6-86.2-86.2s38.6-86.2 86.2-86.2 86.2 38.6 86.2 86.2-38.6 86.2-86.2 86.2z"/></g></svg>