<svg xmlns="http://www.w3.org/2000/svg" viewBox="0 0 1999.75 1391.75"><g fill="none" stroke-width="79.75" stroke-miterlimit="10"><path d="M221,342H1779c99.54,0,181,81.43,181,181V1473c0,99.53-81.45,181-181,181H221c-99.54,0-181-81.43-181-181V523C40,423.43,121.45,342,221,342ZM40,636.07c263.94,0,294.11-134.22,294.11-266.92m1357.42-13.57c0,263.91,134.23,294.07,267,294.07M1960,1372c-263.94,0-294.11,134.22-294.11,268.43M307,1654c0-263.91-132.73-294.07-267-294.07" transform="translate(-.12-302.12)" stroke="#0099c7"/><g stroke="#e2a864"><ellipse cx="1003.65" cy="682.3" rx="428.34" ry="428.29"/><path d="M1208.89,1025.14H975.11V779.33" transform="translate(-.12-302.12)"/></g></g></svg>