<svg xmlns="http://www.w3.org/2000/svg" viewBox="0 0 226.39 262.2"><path d="M154.6 118.69a16.6 16.6 0 0 0 -3.78 -16.59c-3.42-3.47-9.1-6.71-18.25-6.22h-35l-6 27h-18l-3 15h18l-7 30h50s13-1 18-13c0 0 6-14-4-21l-3-2A21.18 21.18 0 0 0 154.6 118.69m-23.19 26.17a6 6 0 0 1 -5.92 5H106.57l3-12h15.92A6 6 0 0 1 131.41 144.86m4-26a6 6 0 0 1 -5.92 5H112.57l3-11h13.92C133.2 112.88 136 115.2 135.41 118.86" transform="translate(-.25-.25)" fill="#e79e42"/><path fill="#1a538a" d="m225.82 199.63l-54 31-4-64 58 33"/><path fill="#185d94" d="m167.82 166.63l4 64-54-35 50-29"/><path fill="#13689f" d="m171.82 230.63l-54 31v-66l54 35"/><path fill="#0090cc" d="m111.77 262.2l-53.78-31.38 53.5-35.35.28 66.73"/><path fill="#44aea2" d="m111.49 195.47l-53.5 35.35 3.45-64.26 50.05 28.91"/><path fill="#70b352" d="m57.99 230.82l-53.78-31.38 57.23-32.88-3.45 64.26"/><path fill="#85b84f" d="M.07 193.66.04 131.39 57.55 159.75.07 193.66z"/><path fill="#9abf4b" d="m57.55 159.75l-57.51-28.36 57.22-29.44.29 57.8"/><path fill="#b9ca40" d="M.04 131.39 0 69.13 57.26 101.95.04 131.39z"/><path fill="#dfbf3d" d="m61.57 95.09l-58.01-32.98 53.99-31.02 4.02 64"/><path fill="#caa32e" d="m61.57 95.09l-4.02-64 54 34.99-49.98 29.01"/><path fill="#ba8327" d="m111.55 66.08l-54-34.99 53.99-31.01.02 66h-.01"/><path fill="#ab6623" d="m118.82 0l53.79 31.37-53.5 35.36-.29-66.73"/><path fill="#a34521" d="m119.11 66.73l53.5-35.36-3.45 64.25-50.05-28.89"/><path fill="#9a171d" d="m172.61 31.37l53.78 31.37-57.22 32.89-.01-.01 3.45-64.25"/></svg>