<svg enable-background="new 0 0 32 32" viewBox="0 0 32 32" xmlns="http://www.w3.org/2000/svg"><circle cx="16" cy="16" fill="#895af8" r="16"/><g fill="#fff"><path clip-rule="evenodd" d="m17.8 14.3h.5c1.5.1 2.2 2.1 3.1 2-.9.7-1.9 1.2-3 1.5-.9.1-1.8-.4-2.2-1.3v4l5.8-3.3v-5.2zm-2.9-.1c-.4-.4-.7-.9-.7-1.5v-.1c0-1.2 1.9-3 1.9-3 .1.1 1.9 1.9 1.9 3v.1c0 .5-.2 1-.6 1.4l4.6-2.5-6-2.9-6 2.9s4.9 2.6 4.9 2.6zm1 2.3c-.3.9-1.2 1.4-2.2 1.3-1.1-.3-2.1-.8-3-1.5.9.1 1.6-1.9 3.1-2h.5l-4.3-2.3v5.2l5.9 3.4z" fill-rule="evenodd"/><path d="m16 4c-6.6 0-12 5.4-12 12s5.4 12 12 12 12-5.4 12-12-5.4-12-12-12zm-6.7 7.2 6.7-3.3 6.7 3.3v6.4l-6.7 3.9-6.7-3.9zm13.4 9-6.7 3.9-6.8-3.9v-.4l6.8 3.9 6.7-3.9zm0-.8-6.7 3.9-6.8-3.9v-.4l6.8 3.9 6.7-3.9zm0-.7-6.7 3.9-6.8-3.9v-.4l6.8 3.9 6.7-3.9z"/></g></svg>