<svg enable-background="new 0 0 351.5 351.5" viewBox="0 0 351.5 351.5" xmlns="http://www.w3.org/2000/svg" xmlns:xlink="http://www.w3.org/1999/xlink"><linearGradient id="a"><stop offset="0" stop-color="#1d4dc7"/><stop offset="1" stop-color="#1437af"/></linearGradient><radialGradient id="b" cx="175.75" cy="175.75" gradientUnits="userSpaceOnUse" r="143.455" xlink:href="#a"/><radialGradient id="c" cx="176.1667" cy="176.9167" gradientUnits="userSpaceOnUse" r="142" xlink:href="#a"/><path d="m175.8 0c-97.1 0-175.8 78.7-175.8 175.8s78.7 175.8 175.8 175.8 175.8-78.7 175.8-175.8-78.8-175.8-175.8-175.8zm.8 329.3c-83.9 0-151.9-68-151.9-151.9s68-151.9 151.9-151.9 151.9 68 151.9 151.9-68 151.9-151.9 151.9z" fill="url(#b)"/><path d="m176.2 34.9c-78.4 0-142 63.6-142 142s63.6 142 142 142 142-63.6 142-142-63.6-142-142-142zm33.8 36 6.1 13.8-3.9 17.8h-9.2zm-113.9 85.9h34.7l-3 9.5h-19zm30.5 64.8c.4-4.4 1.2-7.7 1.4-8.5 2.2-8.5 7.5-31.8 15.3-66.2h-42.6l8.3-34.8h42.1c2.8-12.4 5.7-25.7 8.9-39.8h39.2l-8.9 39.8h47.7l-8.5 34.8h-47l-14.5 65.4c-.2.7-1.8 5.9 1.3 10.7 2.5 3.8 7.1 6 11.8 5.5 12.7 0 25.3-.1 38-.1l-7.8 34.8h-43.8c-2.5 0-6.2-.1-10.5-.8-7.7-1.3-16.9-2.9-23.5-10-8.9-9.6-7.5-24.1-6.9-30.8zm100.6 60.8h-62.4c-4.9 0-9.8-.7-14.4-2.2-5.5-1.8-11.9-5-17.2-10.8-2.5-2.8-4.4-5.7-5.7-8.3 4.9 3.3 11.8 7.1 20.7 9.6h.1c6 1.7 12.2 2.5 18.4 2.5h52.3l11.5-46.3 6.8 13.3zm17.6-115.8-46.7-.1-11.6 52.1h-6.8c-1.4 0-2.4-1.3-2.1-2.7l13.1-59.3h46.5l11.4-45.5 6.8 13.8z" fill="url(#c)"/></svg>