<svg enable-background="new 0 0 32 32" viewBox="0 0 32 32" xmlns="http://www.w3.org/2000/svg"><circle cx="16" cy="16" fill="#0899cd" r="16"/><path d="m27 16.9c-.2 2.7-1.3 5-3.2 6.9-.5.5-1 .9-1.5 1.3 0 0 0-.1-.1-.1l4.7-8.1zm-5.3 8.5c-1.7 1.1-3.6 1.6-5.7 1.6-2 0-3.9-.5-5.5-1.4.2.1.5.3.8.4 0 0 0-.1.1-.1h9.4s0 .1.1.1c.2-.2.5-.4.8-.6zm-11.9-.3c-.6-.4-1.1-.8-1.6-1.3-1.9-1.9-3-4.2-3.2-6.9h.1l4.7 8.1zm-4.8-9.3c0-3 1.1-5.5 3.2-7.6 2.2-2.1 4.8-3.2 7.8-3.2s5.6 1.1 7.8 3.2c2.1 2.1 3.2 4.7 3.2 7.7 0-.3 0-.5 0-.8h-.1l-4.7-8.1s.1-.1.1-.1c-.5-.3-1-.6-1.5-.9 0 0 0 .1-.1.1h-9.4s0-.1-.1-.1c-.5.2-1 .5-1.5.9.1.1.1.1.1.1l-4.7 8.1h-.1zm21.3-.3c-.1.1-.1.2-.2.3h-3.9c0-.1-.1-.2-.2-.3s-.2-.2-.3-.2v-7.7zm-.1.8c0 .1.1.2.2.3l-4.5 7.9v-7.6c.1 0 .2-.1.3-.2s.2-.2.2-.3c-.1-.1 3.8-.1 3.8-.1zm-20.4-.6c0-.1-.1-.2-.2-.3l4.6-7.9v7.6c-.1 0-.2.1-.3.2s-.2.2-.2.3-3.9.1-3.9.1zm5.5-8.9h9.4c0 .1.1.2.2.3l-2.9 4.9c-.2 0-.4 0-.6.1 0 0-6.1-5.3-6.1-5.3zm0 8.9c0-.1-.1-.2-.2-.3s-.2-.2-.3-.2v-7.6l4.6 7.9c-.1.1-.1.2-.1.3-.1-.1-4-.1-4-.1zm7.3-2.6c0-.1.1-.2.1-.3 0-.2-.1-.4-.2-.6l2.7-4.7v7.6s-.1 0-.1.1zm-1.6-.6c0 .1-.1.2-.1.3 0 .2.1.4.2.6l-1 1.8c-.1 0-.2 0-.3 0l-4.2-7.3zm-.2 3.2c0-.1-.1-.2-.2-.3l1-1.8c.2 0 .4 0 .6-.1l2.5 2.1zm4.1.9c.1.1.2.2.3.2v7.6l-4.6-7.9c.1-.1.1-.2.1-.2h3.9c.1.1.2.2.3.3zm-5 .2h.3l4.2 7.3-5.4-4.6c0-.1.1-.2.1-.3 0-.2-.1-.4-.2-.5s1-1.9 1-1.9zm4.8 8.4h-9.4c0-.1-.1-.2-.2-.3l2.9-4.9c.2 0 .4 0 .6-.1zm-6.4-6.9c-.2 0-.4 0-.6.1l-2.4-2.1h3.9c0 .1.1.2.2.3-.1 0-1.1 1.7-1.1 1.7zm-.9.6c0 .1-.1.2-.1.3 0 .2.1.4.2.5l-2.7 4.7v-7.6s.1 0 .1-.1zm-3.5-2.3c.1.1.2.2.3.2v7.6l-4.6-7.9c.1-.1.1-.2.2-.3h3.9c0 .2.1.3.2.4z" fill="#fff"/></svg>