<svg enable-background="new 0 0 361.1 140.2" viewBox="0 0 361.1 140.2" xmlns="http://www.w3.org/2000/svg"><path d="m69.8 137h-32.3l-.1-105.7-37.4-.1v-31.2h52.9c9.3 0 16.9 7.6 16.9 16.9z" fill="#2f88c8"/><path d="m242.6 137h-32.3l-.1-105.8h-37.4v-31.2h52.9c9.3 0 16.9 7.6 16.9 16.9z" fill="#2f88c8"/><g fill="#6b38f7"><path d="m78.5 0h31.3v31.3h-31.3z"/><path d="m252 0h31.3v31.3h-31.3z"/><path d="m140.9 34.7c-25.9 0-47.8 22.8-47.8 52.3 0 29.4 22 53.3 47.8 53.3s46.8-23.8 46.8-53.3c.1-29.4-20.9-52.3-46.8-52.3zm-.3 80.3c-10.3 0-17.6-11.3-17.6-27.8 0-16.4 7.3-27.8 17.6-27.8s17.6 11.3 17.6 27.8c.1 16.5-7.3 27.8-17.6 27.8z"/><path d="m314.2 34.7c-25.9 0-47.8 22.8-47.8 52.3 0 29.4 22 53.3 47.8 53.3s46.8-23.8 46.8-53.3c.1-29.4-20.9-52.3-46.8-52.3zm-.3 80.3c-10.3 0-17.6-11.3-17.6-27.8 0-16.4 7.3-27.8 17.6-27.8s17.6 11.3 17.6 27.8c.1 16.5-7.3 27.8-17.6 27.8z"/></g></svg>