<svg xmlns="http://www.w3.org/2000/svg" viewBox="0 0 246 315"><defs><linearGradient id="3" y1="326.33" x2="0" y2="97.33" gradientUnits="userSpaceOnUse"><stop stop-color="#a7a7a7"/><stop offset=".49" stop-color="#ccc"/><stop offset=".89" stop-color="#f8f8f8"/></linearGradient><linearGradient id="2" y1="264.17" x2="0" y2="102.33" gradientUnits="userSpaceOnUse"><stop offset=".06" stop-color="#808080"/><stop offset=".33" stop-color="#a7a7a7"/><stop offset=".71" stop-color="#ccc"/><stop offset=".86" stop-color="#f8f8f8"/></linearGradient><linearGradient id="0" y1="-62" x2="0" y2="184" gradientUnits="userSpaceOnUse"><stop stop-color="#a7a7a7"/><stop offset=".41" stop-color="#ccc"/><stop offset=".65" stop-color="#f8f8f8" stop-opacity=".5"/></linearGradient><linearGradient id="1" y1="-.83" x2="0" y2="197.17" gradientUnits="userSpaceOnUse"><stop stop-color="#a7a7a7"/><stop offset=".38" stop-color="#ccc"/><stop offset=".68" stop-color="#f8f8f8" stop-opacity=".5"/></linearGradient></defs><path d="M122.5,17C175,17,223,54,233.32,105L246,105C246,55,191.15,0,123.5,0S4,49,0,104l11.93,0C26.27,53.68,70.34,17,122.5,17Z" fill="url(#0)"/><path d="M122.6,48.41c42.23,0,80.89,31.36,89.19,74.55L224,123c-2-42-46.14-89-100.6-89S29,77,22,122.15l11.6,0C45.14,79.5,80.61,48.41,122.6,48.41Z" fill="url(#1)"/><path d="M196 141a73 73 0 0 0 -73 -73c-40.32 0-74 32.68-74 73a78.56 78.56 0 0 0 4.28 25.65v.06C54.7 170.61 61 188.44 63 192l60 123 64.51-135.86C191.66 170 196 151.75 196 141" fill="url(#2)"/><path d="M190.64 141.68A67.68 67.68 0 0 0 123 74c-37.38 0-68.6 30.3-68.6 67.68a73 73 0 0 0 4 23.78v.06c1.3 3.62 7.13 20.14 9 23.44L123 303l59.81-126C186.62 168.52 190.64 151.65 190.64 141.68" fill="url(#3)"/><path d="M37.21,205.3V274H54V256.73l11.55,15.76a2.89,2.89,0,0,0,4.79,0l10.54-15.72V274H99.79l-1-68.8a1.4,1.4,0,0,0-2.53-.8L68,243.48l-28.23-39A1.4,1.4,0,0,0,37.21,205.3Z" fill="#939393"/><path fill="#fff" d="m39 206v66h13v-21l16 21 15-21v21h15l-1-66-29 41-29-41"/><path d="M151,204v67a1.72,1.72,0,0,0,1.73,1.73h14.68a1.72,1.72,0,0,0,1.73-1.73V244.08l31.17,29.18a1.58,1.58,0,0,0,2.66-1.13l1-67.07a1.72,1.72,0,0,0-1.73-1.75H187.59a1.72,1.72,0,0,0-1.73,1.73v28l-32.2-30.2A1.58,1.58,0,0,0,151,204Z" fill="#939393"/><path fill="#fff" d="m153 205v66h14v-32l34 32 1-66h-14v33l-35-33"/><path d="M99.63,204.69V222.6a1.69,1.69,0,0,0,1.68,1.69h13.21v46.76a2,2,0,0,0,2,1.95h17.06a2,2,0,0,0,1.95-1.95V224.29h13.21a1.69,1.69,0,0,0,1.68-1.69V204.69a1.69,1.69,0,0,0-1.68-1.69H101.31A1.69,1.69,0,0,0,99.63,204.69Z" fill="#939393"/><path fill="#fff" d="m102 205v17h15v49h16v-49h15v-17h-46"/><ellipse cx="123.5" cy="141" rx="52.07" ry="54.5" fill="#c4c4c4" stroke="#757575" stroke-width="4.781" stroke-miterlimit="10"/><g fill="#757575"><path d="m156 100v4h-2l-1 1h-2s-1 1 2 2v1h3l1-1 1 1s1 0 1-2c0 0 4-1 2 4l-1 1s-2 1-3-2c0 0-1-1-1 2h-4v2h-1l-1 1h-2v2l1 1s0 2-3 0c0 0-5-1-3 4 0 0 3 3 6-1l2-1v-1l2-1v-1l2 1 1 2 2 1-1 2 1 1 2-2s1-2-3-3c0 0-4-3 1-3l1 1h1v1l2 1-1 2 1 1h1s0-3 2-2l1 3h3v2l2 1s1 4-4 2h-2a2 2 0 0 0 -4 0s-6 2-13-2c0 0-3-2-5 1v3a7.1 7.1 0 0 0 -6 4s0 2 2 1c0 0 1 1-1 2v4l3 6h5s4-4 6 0l3 1v5l4 5-3 5 4 3-1 2h-2l1 2 2 2v4h4s29-47-8-75"/><path d="M118,190h-2l-6-6v-6l-1-1v-3a1.39,1.39,0,0,0,0-2l-1-1v-8l-2-2h-2v-3l-3-5v-4l2-1a2.77,2.77,0,0,0,0-4H99l-3-4-3-1v-1H87l-3-3,1-4s-1-6-5-6c0,0,1,6,3,7,0,0-2,4-4-7l-3-6s8-16,17-21l5,2,4,2a1.39,1.39,0,0,0,0-2l-3-1s-2-3,3-2l2,1h3l2-2s1,1-2,3h-2v2h3l3-1-1-3h2l1,4,1-1s2-3,4-3c0,0,4,0,5,2a2,2,0,0,0,2,2v1h-2l-1,1h-4l3-2s-1-3-4-1l-4,4-2-1-3,1-4,1v3l4,1v4h1l3-4h2v-4s3-3,4,1v3l2-2h2v3h1v2l-1,1,2,1,1,2-4-1s-1-6-5-1l-13,12s-1,1,0,4l-2,1-1-3s-8-2-10,4c0,0-1,6,5,3a2.19,2.19,0,0,1,3-1s-3,1,0,4h1l1,4h3l3-2,5,3,9,1,2,7h6l1,3h3l-4,5,1,6-2,1h-4l1,5-3,3-1,3-5,3,1,4h1v4Z"/></g><path d="m119 155s-11.8-16.86-2.89-20.4a7.43 7.43 0 0 1 5.71 0c3.18 1.45 6.81 5.96-2.82 20.4" fill="#212121"/><path d="m153 142s-11.8-16.86-2.89-20.4a7.43 7.43 0 0 1 5.71 0c3.18 1.45 6.81 5.96-2.82 20.4" fill="#548afe"/><path d="m91 127s-11.8-16.86-2.89-20.4a7.43 7.43 0 0 1 5.71 0c3.18 1.45 6.81 5.96-2.82 20.4" fill="#fff"/></svg>