<svg enable-background="new 0 0 226.9 226.9" viewBox="0 0 226.9 226.9" xmlns="http://www.w3.org/2000/svg"><path d="m113.4 0c-62.5 0-113.4 50.9-113.4 113.4 0 62.6 50.9 113.5 113.4 113.5s113.4-50.9 113.4-113.4c.1-62.6-50.8-113.5-113.4-113.5zm0 219.6c-58.5 0-106.2-47.6-106.2-106.2 0-58.5 47.7-106.2 106.2-106.2 58.6 0 106.2 47.6 106.2 106.2s-47.6 106.2-106.2 106.2z" fill="#686f82"/><circle cx="113.4" cy="50.3" fill="#90c7db" r="23"/><circle cx="54.1" cy="138.9" fill="#90c7db" r="23"/><path d="m58.3 107.7c1.9-18.1 12.5-33.6 27.5-42.3-2.8-5.2-4.1-11.1-3.8-16.9-23.2 11.2-39.4 34.5-40.7 61.6 4-1.8 8.4-2.7 12.8-2.7 1.4 0 2.8.1 4.2.3zm110.3-.2c1.1-.1 2.1-.2 3.2-.2 4.9 0 9.6 1.1 13.8 3.2-1.1-27.3-17.4-50.8-40.7-62.1.4 5.9-.9 11.8-3.8 16.9 15 8.8 25.6 24.2 27.5 42.2zm-22 50.3c-9.3 6.9-20.7 11.1-33.2 11.1-12.7 0-24.5-4.3-33.8-11.6-3.4 4.7-8 8.4-13.4 10.6 12.7 11 29.2 17.7 47.2 17.7 17.9 0 34.3-6.6 46.9-17.4-5.4-2.1-10.2-5.7-13.7-10.4z" fill="#686f82"/><g fill="#90c7db"><circle cx="171.8" cy="138.9" r="23"/><path d="m113.4 15.3c-54.1 0-98.2 44-98.2 98.2 0 54.1 44 98.2 98.2 98.2 54.1 0 98.2-44 98.2-98.2s-44-98.2-98.2-98.2zm58.4 155.1c-1 0-1.9-.1-2.8-.1-14.3 14-33.9 22.7-55.5 22.7s-41.3-8.7-55.6-22.8c-1.2.2-2.5.2-3.7.2-17.4 0-31.5-14.1-31.5-31.5 0-9.8 4.4-18.5 11.4-24.2 0-.4 0-.8 0-1.2 0-33.3 20.6-62 49.8-73.7 4.4-12.2 16-20.9 29.7-20.9s25.3 8.7 29.7 20.9c29.2 11.8 49.8 40.4 49.8 73.7v2.1c6.4 5.8 10.4 14.1 10.4 23.4-.2 17.3-14.3 31.4-31.7 31.4z"/></g></svg>