<svg xmlns="http://www.w3.org/2000/svg" viewBox="0 0 201.51 175.16"><g transform="translate(-.25-.25)"><path d="m95.07 105.92l16.2 28.75h-.37c-38.5-1.31-55.14-29-55.14-29" fill="#eea2d0"/><path d="m110.9 134.67l-51.06.33c-20.84-14.26-4.94-29.33-4.94-29.33h.86s16.64 27.69 55.14 29" fill="#eb82c2"/><path d="M80.48.52l18.11,32L87.13,51.6S48.68,49.33.71,135.22H.25Z" fill="#9e2b48"/><path d="m87.13 51.6l-31.9 53.17c-.76-.08-32.76-3-54.5 30.45 47.95-85.89 86.4-83.62 86.4-83.62" fill="#ca3a5d"/><path d="m59.84 135l-22.84.2h-36.25c21.74-33.48 53.74-30.53 54.5-30.45l-.53.89h.21s-15.93 15.1 4.91 29.36" fill="#e74a99"/><path d="m128 142.76c.22-.43 15.1-28.72-3.33-62.19l26.45 43.65c-1.61 25.19-22.69 19.29-22.69 19.29" fill="#eb82c2"/><path d="m124.66 80.57c18.43 33.47 3.55 61.76 3.33 62.19l-19.94-33.89 16.41-28.63.19.31" fill="#eea2d0"/><path d="m181.55 174.9c-40.37-1.54-54.07-31.21-54.07-31.21h1l-.11-.18s21.08 5.9 22.69-19.29l11.94 19.56" fill="#e74a99"/><path d="m127.48 143.69s13.7 29.67 54.07 31.21c-98.34 2.8-116.08-31.39-116.08-31.39" fill="#ca3a5d"/><path d="m65.48 143.52s17.74 34.19 116.08 31.39l.23.4-156.79.1 18.2-31.95" fill="#9e2b48"/><path d="m102.74 97.27h-33l.18-.32c19.87-32.64 51.81-33.81 52.3-33.83" fill="#eea2d0"/><path d="m69.92 96.94l24.71-44.66c22.66-11.14 28 10.09 28 10.09l-.43.74c-.47.02-32.41 1.19-52.28 33.83" fill="#eb82c2"/><path d="M201.76,136.21l-36.76.1L154,117S174.81,84.56,123.46.65l.22-.4Z" fill="#9e2b48"/><path d="M154,117,123.27,63.1s18.93-26.66.18-62.44h0C174.81,84.56,154,117,154,117Z" fill="#ca3a5d"/><path d="m94.63 52.28l11.07-20 17.75-31.62c18.75 35.78-.18 62.44-.18 62.44l-.52-.92-.1.19s-5.36-21.23-28.02-10.09" fill="#e74a99"/></g></svg>