<svg enable-background="new 0 0 533.1 460.1" viewBox="0 0 533.1 460.1" xmlns="http://www.w3.org/2000/svg"><g clip-rule="evenodd" fill-rule="evenodd"><path d="m266.8 460.1-69.1-208.1c-1.3-4-2.7-10.2-2.6-17.7.3-15.2 7.2-26.3 10.1-30.8 3-4.7 7-9.1 15-18 4.1-4.5 7.5-8.1 9.9-10.5-3.3 1.4-8 3.3-13.9 5-6.7 1.9-15.9 4.6-26.5 4.2-13.8-.5-24-5.8-28.3-8.2-5.5-3-11.1-6.9-34.7-32.7-6.4-7-11.5-12.8-15-16.7-37.3-42.2-74.5-84.4-111.7-126.6 71.1 15.2 142.2 30.3 213.3 45.5 8.2 1.5 21.2 5.4 31.8 16.1 8.3 8.4 11.9 17.9 15.5 27.1 3.5 9.1 5.3 17.1 6.2 22.6.9-5.3 2.5-12.7 5.6-21.3 2.4-6.9 4.5-12.7 8.8-19.2 1.1-1.7 6.9-10.2 17.8-17.5 9.7-6.6 18-8.5 41.5-13.3 17.6-3.5 32.3-6.3 42.8-8.3 50-10.4 100-20.8 150-31.3-49.4 55.4-98.5 110.6-147.6 165.8-4.2 3.8-10.6 8.7-19.5 12.4-4.4 1.9-11.9 4.9-21.8 5.2-6.6.2-12.1-1.1-23.2-3.8-7.5-1.8-13.7-3.7-17.8-5 3.2 3.4 7.9 8.4 13.4 14.7 8.4 9.4 12.6 14.2 14.5 17.5 2 3.5 8.5 15.5 7.5 31.5-.3 5.2-1.3 9.5-2.2 12.3-23.2 69.7-46.5 139.4-69.8 209.1z" fill="#9abe60"/><path d="m247.9 147.8c2.3-1.2 3.7-3.6 3.6-6.1-.3-6.6-.9-13.9-2.2-21.7-2.1-12.8-5.4-23.8-8.8-32.8-1.3-3.6-3.2-7-5.6-10-.6-.8-1.2-1.4-1.7-2-7.2-7.8-15.9-10.7-21.7-12.6-3.4-1.1-6.4-1.7-8.9-2.2-1.3-.2-2.7-.5-4-.7-49.3-10.1-98.7-20.2-148-30.3l108.5 122.2c2.9 3.2 9.5 9.6 19.8 12.3 3.2.8 6.1 1.2 8.7 1.3 1.7.1 3.4-.1 5.1-.3 8.9-1.2 19.4-3.3 30.8-7.1 9.4-3.1 17.5-6.6 24.4-10z" fill="#102335"/><path d="m104.6 61.7 115.9 74.1c3.2 2.3 8.2 5.3 14.7 7.3 5.1 1.6 10.1 1.5 13.9 1.5.8 0 1.3-.9.9-1.6-1.8-2.8-4.6-5.7-8.1-9.4-4.6-4.9-9.4-8-12.8-9.8-41.2-21.2-82.4-42.3-123.6-63.5-1-.4-1.8.9-.9 1.4z" fill="#fff"/><path d="m286 147.3c-2.5-1.6-4-4.4-3.8-7.3.4-7.5 1.4-15.8 3.1-24.9 2.2-11.3 5.2-21.2 8.2-29.3 1-2.1 2.5-4.9 4.8-8 1.9-2.5 5.6-7.4 12.1-10.9 2.6-1.4 5.9-2.3 12.5-4.2 5.3-1.5 9.6-2.5 12.7-3.2 49.2-10.1 98.3-20.1 147.5-30.2l-108.4 121.7c-2.1 2.6-6.7 7.6-14.4 11-7.5 3.3-14.1 3.3-17.5 3.1-9.6-.5-23-2.4-37.8-8.3-7.4-2.9-13.7-6.3-19-9.5z" fill="#102335"/><path d="m284.4 144.7c-.6 0-1-.6-.7-1.2 1.9-3.3 4.9-7.5 9.3-11.7 4.8-4.5 9.7-7.3 13.1-8.9l121.2-62.7c1.1-.6 2.1 1 1 1.7l-115.5 74.2c-3.2 2.1-7.9 4.6-14 6.4-5.6 1.7-10.6 2.2-14.4 2.2z" fill="#fff"/><path d="m266.8 403.6 48.8-146.8c1.9-3.8 5.7-12.8 4.8-24.5-.8-9.8-4.5-16.9-6.8-20.5-6.1-6.8-13.4-14.3-22-21.8-7.4-6.4-14.5-11.9-21.2-16.5-2.2-1.5-5.1-1.6-7.4-.1-7.2 4.6-15.3 10.5-23.6 18.2-7.5 6.9-13.5 13.8-18.3 20-3.7 4.9-8 12.3-8.8 21.6-.9 11.2 3.7 19.9 5 22.5 8.3 16.2 25.5 68.8 49.5 147.9z" fill="#102335"/><path d="m267.6 174.3c-.4-.8-1.6-.8-1.9 0-2.3 4.8-4.8 11.4-6 19.6-.8 5.4-.7 10.2-.4 14.2 2.5 50.6 5 101.1 7.5 151.7l7.3-151.8c.3-4 .4-9-.5-14.7-1.2-8-3.7-14.4-6-19z" fill="#fff"/></g></svg>