<svg enable-background="new 0 0 379.2 326.1" viewBox="0 0 379.2 326.1" xmlns="http://www.w3.org/2000/svg" xmlns:xlink="http://www.w3.org/1999/xlink"><linearGradient id="a" gradientUnits="userSpaceOnUse" x1=".5" x2="378.6667" y1="163.0416" y2="163.0416"><stop offset="0" stop-color="#1c465e"/><stop offset="1" stop-color="#1e2a3a"/></linearGradient><path d="m296 .5h-4.3l-101.3 50.3-2.4.3-101-50.6h-4.5l-82 131.6v3.8l187 189.8h4.5l186.7-189.7v-4.7zm-206.9 16.1 88.9 94.5h-96.5zm-11.1 13.5-6.3 80.5-53.3 15zm-62 107 55.7-15.1 95 167.8zm66.8-16.8h101l.3 180zm101.2-18.5-75.3-79.5 75.3 38.3zm177.5 23.8-53.8-14.5-7-81zm-64.7-14.5h-96.3l88.5-94.5zm-102.3-50.5 76-38.3-76 79.5zm0 59.7h101l-101 180zm17.5 169.5 95-167.8 56 15.1z" fill="url(#a)"/></svg>