<svg enable-background="new 0 0 32 32" viewBox="0 0 32 32" xmlns="http://www.w3.org/2000/svg"><circle cx="16" cy="16" fill="#2b2e7f" r="16"/><g fill="#fff"><path d="m17.1 19v-5.9h.8c2.5 0 3.2-2.4 3.2-2.4h-6.7c-3.2 0-3.7 2.4-3.7 2.4h3.9v8.9c-.1 0 2.5-.8 2.5-3z"/><path d="m24.4 23.6c2.2-2.3 3.1-5.6 2.3-8.7-.4-1.6-1.3-3.1-2.5-4.3-.1-.1-.2-.2-.3-.3l-.1-.1c-.1-.1-.2-.1-.2-.2l-.1-.1-.2-.2h-.3c-.1-.1-.2-.1-.3-.2l-.2-.1c-.1 0-.1-.1-.2-.1l-.2-.1c.1-.1 0-.2-.1-.2l-.2-.1c-.1 0-.1-.1-.2-.1h-.1c.3.2.5.3.7.5 3.4 3.4 3.5 8.9.1 12.4 0 0 0 0-.1.1-4.4 4.4-11.5 4.4-15.9 0-.2-.2-.3-.3-.5-.5l-.1-.1c-.1-.1-.2-.2-.3-.3.6 1.1 1.3 2.1 2.2 3 4.6 4.5 12 4.5 16.6 0 .1-.2.1-.2.2-.3z"/><path d="m10.4 22.4c-.2-.2-.4-.3-.6-.5-3.4-3.4-3.5-9-.1-12.4 0 0 0 0 .1-.1 4.4-4.4 11.5-4.4 15.9 0 .3.3.6.6.9 1-.6-1.1-1.3-2.1-2.2-3-4.6-4.6-12-4.6-16.6 0-.1.1-.1.1-.2.2-3 3.2-3.5 7.9-1 11.5.9 1.4 2.3 2.6 3.8 3.3z"/></g></svg>