<svg enable-background="new 0 0 32 32" viewBox="0 0 32 32" xmlns="http://www.w3.org/2000/svg"><circle cx="16" cy="16" fill="#00843d" r="16"/><g fill="#fff"><path d="m16 5.6c.4 0 .8.1 1.1.3l7.2 4.1c.7.4 1.1 1.1 1.1 1.9v8.4c0 .8-.4 1.5-1.1 1.9l-7.2 4.1c-.7.4-1.6.4-2.2 0l-7.2-4.1c-.7-.2-1.1-1-1.1-1.8v-8.4c0-.8.4-1.5 1.1-1.9l7.2-4.1c.3-.3.7-.4 1.1-.4zm0-1.6c-.7 0-1.3.2-1.9.5l-7.2 4.2c-1.1.7-1.9 1.9-1.9 3.3v8.4c0 1.4.7 2.6 1.9 3.3l7.2 4.1c1.2.7 2.6.7 3.8 0l7.2-4.1c1.2-.7 1.9-1.9 1.9-3.3v-8.4c0-1.4-.7-2.6-1.9-3.3l-7.2-4.1c-.6-.4-1.2-.6-1.9-.6z"/><path d="m15.1 17.5c-.2 0-.3-.1-.4-.2l-.9-1.5c-.1-.1-.1-.3 0-.5l.9-1.5c.1-.1.2-.2.4-.2h1.8c.2 0 .3.1.4.2l.9 1.5c.1.1.1.3 0 .5l-.9 1.5c-.1.1-.2.2-.4.2zm-2.3-2.3c.2 0 .3-.1.4-.2l.9-1.5c.1-.1.1-.3 0-.5l-1.1-1.9-2.1 1.1c-.2.1-.2.2-.2.4 0 .8.1 1.7.3 2.5-.1.1 1.8.1 1.8.1zm6.4 0c-.2 0-.3-.1-.4-.2l-.8-1.6c-.1-.1-.1-.3 0-.5l1.1-1.9 2.1 1.1c.2.1.2.2.2.4 0 .8-.1 1.7-.3 2.5 0 .2-1.9.2-1.9.2zm-3-5.6c-.1-.1-.3-.1-.4 0l-2.1 1.2 1.1 1.8c.1.1.2.2.4.2h1.8c.2 0 .3-.1.4-.2l1.1-1.8zm-5.1 6.3c.4 1.4 1 2.8 1.9 4l1-1.8c.1-.1.1-.3 0-.5l-.9-1.5c-.1-.1-.2-.2-.4-.2zm9.8 0c-.4 1.4-1 2.8-1.9 4l-1-1.8c-.1-.1-.1-.3 0-.5l.9-1.5c.1-.1.2-.2.4-.2zm-5.8 2.4c-.2 0-.3.1-.4.2l-1.2 2.1c.6.8 1.4 1.5 2.2 2.2.2.1.4.1.6 0 .8-.6 1.6-1.4 2.2-2.2l-1.2-2.1c-.1-.1-.2-.2-.4-.2z"/></g></svg>