<svg enable-background="new 0 0 216.7 274.3" viewBox="0 0 216.7 274.3" xmlns="http://www.w3.org/2000/svg"><g fill="#fff"><path d="m67.7 9.9c-.7 2.6-1.3 5.2-1.9 7.8-3.6-.1-7.8-2.8-10.9-.1-16.4 11.9-29.7 28.2-38.5 46.6.4 2.6 1.8 4.9 2.8 7.2-2.4.9-4.8 1.6-7.3 2.4-7.3 18-11.1 37.3-11.9 56.6 1.7 1.9 3.6 3.8 5.4 5.6-1.8 1.8-3.7 3.7-5.4 5.6.7 19.2 4.4 38.3 11.7 56 1.9 1.7 5 1.9 7.4 2.9-1 2.4-2 4.9-3 7.3 9.5 18.6 22.7 35.6 40.1 47.5 3.1.9 6.3-.8 9.5-1 .7 2.6 1.4 5.3 2 7.9 10.2 5.1 21.3 8.5 32.6 9.5 16.6 1.6 33.6-2 48.5-9.5.7-2.6 1.4-5.3 2.1-7.9 3 .4 6 1.6 9 1.2 17.6-11.7 31-29 40.5-47.7-.9-2.4-1.9-4.9-3-7.2 2.4-.8 4.8-1.6 7.2-2.4 7.3-17.9 11.2-37.1 11.8-56.5-1.5-2.2-3.5-3.8-5.3-5.7 1.8-1.9 3.7-3.8 5.5-5.7-.9-19.4-4.5-38.7-12-56.6-2.4-.7-4.8-1.5-7.1-2.4 1-2.4 2-4.8 2.9-7.1-8.4-16.7-19.9-32.1-34.7-43.6-2.1-1.5-4-3.4-6.4-4.3-2.8.3-5.6.9-8.4 1.4-.7-2.6-1.4-5.3-2-7.9-25-13-56.3-13.1-81.2.1z"/><path d="m72.7 19.8c14.7-7.3 31.6-10.3 47.8-7.6 8.2 1.2 16 4.1 23.4 7.6.6 2.2 1.2 4.4 1.9 6.6 3-.2 6.4-2.3 9 0 15.5 11 27.6 26.4 35.9 43.3-.9 2.1-1.8 4.3-2.6 6.4 2.2.7 4.5 1.2 6.5 2.4 6.9 16.7 10.4 34.7 10.9 52.7-1.1 1.9-2.9 3.3-4.4 4.9 1.5 1.5 3 3.1 4.5 4.6-.8 18.2-4.1 36.4-11.1 53.3-2.2.7-4.3 1.4-6.5 2 .9 2.1 1.8 4.2 2.8 6.3-8.2 17.1-20.4 32.4-35.9 43.4-2.6 2.3-6.1.2-9.1 0-.6 2.2-1.2 4.3-1.7 6.5-17.3 8.9-37.9 11.2-56.7 5.8-5.1-1.4-9.9-3.4-14.7-5.7-.7-2.2-1.3-4.4-1.9-6.7-2.9.2-6.4 2.3-8.9.1-15.5-11-27.8-26.4-35.9-43.5.9-2.1 1.8-4.2 2.6-6.4-2.2-.7-4.3-1.4-6.5-2.1-6.8-16.9-10.3-34.9-11-53.1 1.5-1.6 2.9-3.1 4.4-4.6-1.5-1.6-3.3-3-4.4-4.9.5-18.1 4.2-36.1 10.9-52.9 2.1-.7 4.3-1.4 6.5-2.1-.7-2.8-3.5-5.8-1.6-8.6 8.6-16.8 20.9-31.8 36.6-42.5 2.4.4 4.9.8 7.3 1.3.6-2.1 1.2-4.3 1.9-6.5"/><path d="m76.7 23.3c-.4 1.8-1.1 3.6-1.2 5.5 2.9 4.4 6.1 8.6 9.1 13 1.2 2 3.4 3.4 5.7 3.3h35.1c2.3.1 4.9-.7 6.3-2.7 3.2-4.5 6.4-9.1 9.7-13.6-.5-1.9-.9-3.8-1.4-5.7-19.8-9.3-43.7-9.4-63.3.2"/><path d="m31.4 69.3c.7 1.8 1.4 3.6 2.1 5.3 8.3.1 16.6 0 24.9.1 2.3.1 4.5-1.1 5.7-3 4.9-7 9.9-14 14.8-21 1.1-1.4.8-3.3 1-5-3.4-4.9-6.8-9.8-10.3-14.6-1.7-.2-3.4-.6-5.2-.6-14.1 9.7-25 23.6-33 38.8"/><path d="m146.7 31.2c-3.1 4.7-6.4 9.2-9.8 13.8.1 1.9-.6 4 .7 5.6 5 7.1 10 14.2 15 21.3 1.2 1.9 3.5 2.9 5.6 2.8h24.8c.7-1.8 1.4-3.6 2-5.4-7.8-15.3-19.1-28.9-32.9-39.1-1.7.3-3.5.7-5.4 1"/><path d="m84.5 53c-5.1 7.3-10.3 14.5-15.4 21.8v4.2c5.2 7.6 10.6 15 15.9 22.5 1.1 1.8 3.3 2.8 5.4 2.7h35.1c2.4.2 5-.7 6.3-2.8 4.8-6.9 9.6-13.8 14.5-20.6 1.8-2.2 1.9-5.7 0-7.9-4.8-6.8-9.6-13.6-14.5-20.5-1.1-1.8-3.3-3-5.4-3-12 0-24.1 0-36.1 0-2.4.1-4.6 1.6-5.8 3.6"/><path d="m25.9 81.5c-6 15.1-9 31.3-10 47.5 1.4 1.5 2.8 3.1 4.2 4.6 13.3.3 26.6-.1 39.9.2 3.4-1.2 5-4.5 7-7.2 3.8-5.5 7.7-10.9 11.6-16.4 1.8-2 1.7-5.3 0-7.4-4.7-6.6-9.4-13.3-14-20-1.3-2.1-3.6-3.9-6.2-3.7-7.7 0-15.4 0-23 0-3.3-.1-6.4 1.4-9.5 2.4"/><path d="m152.6 82.2c-4.8 6.8-9.6 13.6-14.4 20.4-1.5 1.7-1.5 4.1-1.1 6.1 5.1 7.5 10.5 14.8 15.6 22.3 1.2 1.9 3.5 2.8 5.6 2.7h37.9c1.5-1.6 3-3.1 4.5-4.7-.9-16.3-4.1-32.4-9.9-47.6-3.1-.9-6.1-2.4-9.3-2.3-7.7 0-15.4 0-23.2 0-2.3 0-4.6 1.1-5.7 3.1"/><path d="m84.4 112.1c-5.1 7.3-10.2 14.5-15.3 21.8 0 1.4 0 2.8-.1 4.2 5 7.1 10.1 14.2 15 21.3 1.3 2.2 3.5 3.9 6.1 3.9h35.1c2.4.2 5-.6 6.4-2.7 5.3-7.5 10.6-15 15.9-22.6 0-1.4 0-2.8 0-4.1-5.3-7.4-10.5-14.9-15.8-22.3-1.3-2.2-4-3-6.5-2.8-11.7 0-23.3 0-35 0-2.3-.2-4.5 1.2-5.8 3.3"/><path d="m20.2 138.4c-1.4 1.5-2.8 2.9-4.3 4.3.7 16.3 4 32.5 9.8 47.8 3.1.9 6.2 2.5 9.6 2.3 7.7-.1 15.4 0 23.1 0 2.3.1 4.6-1.1 5.7-3.1 5.2-7.4 10.4-14.7 15.6-22-.1-2 .4-4.3-1.1-5.9-4.9-6.8-9.7-13.7-14.5-20.5-1.2-2-3.4-3.1-5.7-3-12.7.1-25.4-.1-38.2.1"/><path d="m152.6 141.2c-4.8 6.9-9.7 13.7-14.5 20.6-1.5 1.6-1.1 3.8-1.3 5.8 5.3 7.4 10.4 14.9 15.7 22.3 1.2 2 3.5 3.1 5.8 3h23c3.3.2 6.4-1.4 9.4-2.4 5.9-15.2 9.1-31.4 9.8-47.7-2-1.6-3.4-4.8-6.3-4.5-12 0-24 0-36 0-2.1-.2-4.4.9-5.6 2.9"/><path d="m84.9 170.6c-5.2 7.5-10.5 14.9-15.8 22.3 0 1.4-.1 2.8-.1 4.2 5.1 7.3 10.3 14.5 15.4 21.8 1.2 2 3.3 3.6 5.8 3.4h35.2c2.5.2 5.2-.7 6.5-2.9 5.3-7.5 10.5-14.9 15.8-22.3-.1-1.8.3-3.8-1-5.3-4.9-7.1-9.9-14.1-14.9-21.2-1.1-1.8-3.2-2.8-5.2-2.8-12.1-.1-24.2 0-36.3 0-2.1-.1-4.3 1-5.4 2.8"/><path d="m33.5 197.4c-.7 1.8-1.7 3.5-2 5.4 7.4 14.8 18.1 28 31.4 37.8 1.8 1.8 4.4.5 6.7.4 3-4.3 6.1-8.6 9.1-12.9 1.5-2.1 1.5-5.3-.2-7.3-4.9-6.8-9.7-13.7-14.5-20.5-1.2-1.9-3.4-3.1-5.6-3-8.3.1-16.6.1-24.9.1"/><path d="m152.6 200.3c-4.7 6.6-9.3 13.3-14.1 19.9-2 2.1-2.4 5.7-.6 8.1 2.7 3.8 5.3 7.5 8 11.3 1.3 2.2 4.2 1.7 6.3 2.3 14-10.1 25.1-23.8 33.1-39-.7-1.8-1.4-3.6-2.2-5.3-8.2-.3-16.4 0-24.6-.1-2.4-.3-4.7.8-5.9 2.8"/><path d="m85 229.6c-3.3 4.6-6.4 9.2-9.7 13.8.5 1.8 1 3.7 1.5 5.5 19.7 9.4 43.6 9.5 63.2-.1.5-1.8 1-3.6 1.4-5.5-3.3-4.5-6.4-9.2-9.7-13.7-1.3-2-3.9-2.8-6.2-2.7-11.7 0-23.4 0-35.1 0-2.1-.1-4.3 1-5.4 2.7z"/></g><path d="m67.7 12.1c24.9-13.2 56.1-13.1 81.1-.1.7 2.6 1.4 5.3 2 7.9 2.8-.5 5.6-1.1 8.4-1.4 2.4.9 4.3 2.8 6.4 4.3 14.8 11.6 26.3 26.9 34.7 43.6-1 2.4-1.9 4.8-2.9 7.1 2.4.8 4.7 1.6 7.1 2.4 7.5 17.9 11.1 37.3 12 56.6-1.8 1.9-3.6 3.8-5.5 5.7 1.8 1.9 3.9 3.5 5.3 5.7-.6 19.3-4.6 38.5-11.8 56.5-2.4.8-4.8 1.6-7.2 2.4 1 2.4 2 4.8 3 7.2-9.5 18.7-22.8 36-40.5 47.7-3 .4-6-.8-9-1.2-.7 2.6-1.4 5.3-2.1 7.9-14.9 7.5-31.8 11.1-48.5 9.5-11.4-1-22.4-4.4-32.6-9.5-.6-2.7-1.3-5.3-2-7.9-3.1.2-6.4 2-9.5 1-17.4-11.8-30.6-28.9-40.1-47.5 1-2.4 2-4.9 3-7.3-2.4-1-5.5-1.2-7.4-2.9-7.3-17.8-11-36.9-11.7-56 1.7-1.9 3.6-3.8 5.4-5.6-1.9-1.8-3.7-3.7-5.4-5.6.9-19.3 4.7-38.6 12-56.5 2.4-.8 4.9-1.6 7.3-2.4-1-2.4-2.4-4.7-2.8-7.2 8.8-18.3 22-34.6 38.5-46.6 3.1-2.7 7.3 0 10.9.1.6-2.7 1.3-5.3 1.9-7.9m5 9.9c-.7 2.2-1.3 4.4-1.9 6.6-2.4-.5-4.9-.9-7.3-1.3-15.7 10.7-28 25.7-36.6 42.5-2 2.8.9 5.8 1.6 8.6-2.2.7-4.3 1.4-6.5 2.1-6.7 16.8-10.4 34.8-10.9 52.9 1.1 1.9 2.9 3.3 4.4 4.9-1.5 1.5-3 3.1-4.4 4.6.6 18.2 4.2 36.2 11 53.1 2.1.8 4.3 1.5 6.5 2.1-.8 2.1-1.7 4.3-2.6 6.4 8.2 17.1 20.4 32.5 35.9 43.5 2.6 2.2 6 .1 8.9-.1.6 2.2 1.3 4.4 1.9 6.7 4.8 2.2 9.6 4.2 14.7 5.7 18.7 5.3 39.4 3.1 56.7-5.8.5-2.2 1.2-4.3 1.7-6.5 2.9.2 6.5 2.3 9.1 0 15.5-11 27.7-26.4 35.9-43.4-.9-2.1-1.9-4.2-2.8-6.3 2.2-.7 4.3-1.4 6.5-2 7-16.8 10.3-35.1 11.1-53.3-1.5-1.5-3-3.1-4.5-4.6 1.5-1.6 3.3-3 4.4-4.9-.6-18-4-36-10.9-52.7-2-1.2-4.3-1.6-6.5-2.4.9-2.2 1.8-4.3 2.6-6.4-8.3-17-20.4-32.4-35.9-43.3-2.6-2.2-6.1-.2-9 0-.6-2.2-1.3-4.4-1.9-6.6-7.5-3.5-15.3-6.4-23.4-7.6-16.2-2.8-33.1.2-47.8 7.5z"/><path d="m76.6 25.5c19.7-9.6 43.5-9.5 63.3-.1.5 1.9.9 3.8 1.4 5.7-3.3 4.5-6.4 9.1-9.7 13.6-1.3 2-3.9 2.9-6.3 2.7-11.7 0-23.4 0-35.1 0-2.3 0-4.5-1.3-5.7-3.3-3-4.4-6.2-8.6-9.1-13 .2-2 .8-3.8 1.2-5.6z"/><path d="m31.4 71.5c8-15.1 18.9-29 33-38.8 1.7 0 3.4.3 5.2.6 3.5 4.8 6.9 9.7 10.3 14.6-.2 1.7.2 3.6-1 5-4.9 7-9.9 14-14.8 21-1.2 1.9-3.4 3.2-5.7 3-8.3 0-16.6 0-24.9-.1-.7-1.8-1.4-3.6-2.1-5.3z"/><path d="m146.7 33.5c1.8-.4 3.7-.7 5.5-1 13.9 10.2 25.2 23.7 32.9 39.1-.7 1.8-1.4 3.6-2 5.4-8.3 0-16.6 0-24.8 0-2.2.1-4.5-.9-5.6-2.8-5-7.1-10-14.2-15-21.3-1.3-1.6-.6-3.7-.7-5.6 3.3-4.6 6.6-9.2 9.7-13.8z"/><path d="m84.4 55.2c1.2-2 3.4-3.5 5.8-3.4h36.1c2.2 0 4.3 1.1 5.4 3 4.8 6.8 9.6 13.6 14.5 20.5 1.9 2.2 1.8 5.7 0 7.9-4.9 6.8-9.7 13.7-14.5 20.6-1.3 2.1-3.9 3-6.3 2.8-11.7-.1-23.4 0-35.1 0-2.1.1-4.2-.9-5.4-2.7-5.3-7.5-10.7-15-15.9-22.5 0-1.4 0-2.8 0-4.2 5.2-7.5 10.4-14.7 15.4-22z"/><path d="m25.9 83.7c3.1-1 6.2-2.5 9.5-2.3h23c2.6-.2 4.9 1.6 6.2 3.7 4.6 6.7 9.3 13.3 14 20 1.6 2.1 1.7 5.4 0 7.4-3.9 5.5-7.8 10.9-11.6 16.4-2 2.7-3.6 6-7 7.2-13.3-.2-26.6.1-39.9-.2-1.4-1.5-2.8-3.1-4.2-4.6.9-16.3 4-32.5 10-47.6z"/><path d="m152.5 84.4c1.2-1.9 3.5-3.1 5.7-3h23.2c3.3-.1 6.3 1.4 9.3 2.3 5.9 15.2 9.1 31.3 9.9 47.6-1.5 1.6-3 3.1-4.5 4.7-12.6-.1-25.3 0-37.9 0-2.2.1-4.5-.8-5.6-2.7-5.1-7.5-10.5-14.8-15.6-22.3-.5-2.1-.4-4.5 1.1-6.1 4.8-6.9 9.6-13.7 14.4-20.5z"/><path d="m84.4 114.3c1.2-2 3.5-3.4 5.9-3.3h35c2.4-.2 5.1.6 6.5 2.8 5.2 7.5 10.5 14.9 15.8 22.3v4.1c-5.3 7.5-10.6 15-15.9 22.6-1.4 2.1-4 2.9-6.4 2.7-11.7 0-23.4 0-35.1 0-2.6.1-4.9-1.7-6.1-3.9-4.9-7.2-10-14.2-15-21.3 0-1.4 0-2.8.1-4.2 5-7.3 10.2-14.5 15.2-21.8z"/><path d="m20.2 140.6c12.7-.2 25.4 0 38.2-.1 2.3-.1 4.5 1 5.7 3 4.8 6.9 9.6 13.7 14.5 20.5 1.5 1.6 1 3.9 1.1 5.9-5.2 7.3-10.4 14.7-15.6 22-1.2 2-3.4 3.2-5.7 3.1-7.7 0-15.4 0-23.1 0-3.4.2-6.4-1.4-9.6-2.3-5.8-15.3-9.2-31.5-9.8-47.8 1.5-1.4 2.9-2.8 4.3-4.3z"/><path d="m152.6 143.4c1.2-2 3.5-3.1 5.8-2.9h36c2.9-.3 4.3 2.9 6.3 4.5-.8 16.3-4 32.4-9.8 47.7-3.1 1-6.1 2.6-9.4 2.4-7.7 0-15.4 0-23 0-2.3.1-4.6-1-5.8-3-5.3-7.4-10.4-14.9-15.7-22.3.1-2-.2-4.2 1.3-5.8 4.6-6.9 9.5-13.7 14.3-20.6z"/><path d="m84.9 172.8c1.1-1.8 3.3-2.9 5.4-2.8h36.3c2 0 4.1 1 5.2 2.8 5 7 10 14.1 14.9 21.2 1.3 1.5.8 3.5 1 5.3-5.3 7.4-10.5 14.9-15.8 22.3-1.3 2.2-4 3.1-6.5 2.9-11.7 0-23.5 0-35.2 0-2.4.2-4.6-1.4-5.8-3.4-5.1-7.3-10.3-14.5-15.4-21.8 0-1.4 0-2.8.1-4.2 5.3-7.4 10.5-14.8 15.8-22.3z"/><path d="m33.5 199.6h24.9c2.2-.2 4.4 1.1 5.6 3 4.8 6.9 9.6 13.7 14.5 20.5 1.7 2 1.7 5.2.2 7.3-3 4.3-6.1 8.6-9.1 12.9-2.2.1-4.9 1.4-6.7-.4-13.3-9.8-24-23.1-31.4-37.8.3-2 1.3-3.7 2-5.5z"/><path d="m152.6 202.5c1.2-2 3.5-3.1 5.8-2.9 8.2.1 16.4-.2 24.6.1.9 1.7 1.5 3.5 2.2 5.3-7.9 15.3-19.1 28.9-33.1 39-2.1-.6-5-.1-6.3-2.3-2.7-3.8-5.3-7.6-8-11.3-1.8-2.4-1.4-5.9.6-8.1 4.9-6.5 9.5-13.2 14.2-19.8z"/><path d="m85 231.8c1.1-1.7 3.3-2.7 5.3-2.7h35.1c2.3-.1 4.9.7 6.2 2.7 3.3 4.5 6.4 9.2 9.7 13.7-.4 1.8-.9 3.6-1.4 5.5-19.7 9.6-43.5 9.5-63.2.1-.5-1.8-1-3.7-1.5-5.5 3.4-4.6 6.5-9.2 9.8-13.8z"/></svg>