<svg enable-background="new 0 0 297 331.6" viewBox="0 0 297 331.6" xmlns="http://www.w3.org/2000/svg" xmlns:xlink="http://www.w3.org/1999/xlink"><linearGradient id="a"><stop offset="0" stop-color="#fab327"/><stop offset="1" stop-color="#eb221e"/></linearGradient><linearGradient id="b" gradientUnits="userSpaceOnUse" x1="29.7824" x2="268.3417" xlink:href="#a" y1="165.6929" y2="165.6929"/><linearGradient id="c" gradientUnits="userSpaceOnUse" x1="0" x2="296.9754" xlink:href="#a" y1="114.89" y2="114.89"/><linearGradient id="d" gradientUnits="userSpaceOnUse" x1="7.7348" x2="290.5724" xlink:href="#a" y1="286.3594" y2="286.3594"/><path d="m41.9 92.2 99-56.2c5.7-3.2 12.6-3.2 18.3.1l98.2 57.6c5.6 3.3 9.1 9.4 9 15.9l-.8 113.9c0 6.5-3.6 12.5-9.2 15.8l-99 56.2c-5.7 3.2-12.6 3.2-18.3-.1l-98.2-57.6c-5.6-3.3-9.1-9.4-9-15.9l.8-113.9c0-6.6 3.5-12.6 9.2-15.8z" fill="none" stroke="url(#b)" stroke-miterlimit="10" stroke-width="4"/><path d="m17.3 223.3v-124.5c.5-2 1.6-5.2 4-8.5 2.2-3 4.6-4.9 6.3-6 37.7-21.7 75.3-43.3 113-65 1.7-.7 4.9-1.9 9-1.8 3.3.1 5.9 1 7.5 1.8 36.3 20.9 72.7 41.8 109 62.7 2.2 1 7.8 4 11.5 10.5 2.2 4 2.8 7.7 3 10 .1 40.3.2 80.5.3 120.8.8 3.7 4 6.4 7.8 6.5 3.9.1 7.4-2.6 8.3-6.5 0-38.6 0-77.2 0-115.8.4-4 .9-14.5-5.3-25-3.4-5.8-7.5-9.5-10.5-11.7-36.5-21-73-42.1-109.5-63.1-2.7-2.1-8.9-6.3-17.8-7.5-12.2-1.5-21.3 3.7-24 5.4-36.6 21.2-73.1 42.3-109.6 63.4-3.3 1.9-8.3 5.4-12.5 11.3-7.4 10.1-7.8 20.7-7.8 24.7v118.3c1.2 3.7 4.7 6.2 8.5 6.3 3.9 0 7.5-2.6 8.8-6.3z" fill="url(#c)"/><path d="m10.8 256.4 121.6 72.1c3.6 1.5 11.8 3.6 20.4 3 5.7-.4 10.2-1.9 13.3-3.3 40-23.7 80-47.3 120-71 3.6-2.8 5.3-7.1 4.3-10.1-1.5-4.2-8.5-7-15.3-3.4-39.5 22.8-78.9 45.6-118.4 68.4-2 .8-5 1.7-8.9 1.8-4.3.1-9.2-3-11.3-3.7-39.1-22.9-75.9-44.6-115-67.5-3.2-3-9-1.7-11.8 1.3-2.9 3.2-2.6 9.5 1.1 12.4z" fill="url(#d)"/><g fill="#f75f00"><path d="m91.8 121.5c-.9-3.3-3.4-5.8-6.5-6.5-4.2-.9-8.8 1.7-10.5 6.5v55.3c-.2 3.8.1 8.8 1.8 14.5.7 2.5 1.6 4.6 2.5 6.5-6.9 4.2-13.8 8.3-20.7 12.5-2.9 3.5-2.9 8.4-.3 11.5 2.2 2.5 5.8 3.5 9.2 2.5 6.8-3.5 13.5-7 20.3-10.5 15.7 15.7 39.6 19.2 58.2 9 16.6-9.1 26.4-27.7 24.8-47.2.5-5.6-4.1-10.1-8.8-9.8-4.2.2-8 4.2-7.9 9.2 2.5 18.3-11 34.8-28.3 36.2-16.2 1.3-31.4-10.9-33.5-28-.2-20.7-.3-41.2-.3-61.7z"/><circle cx="162.9" cy="152.9" r="9.1"/><path d="m142 188v-44.3c5.3-16.8 22.6-26.4 38.2-22.4 13.6 3.4 23.7 16.4 23.8 31.6.9 3.9 4.3 6.6 8.3 6.6s7.4-2.8 8.3-6.6c-.4-5.4-.8-10.8-1.3-16.1l21.3-11.8c1.9-3.1 2-7 .3-10-2.1-3.7-6.6-5.5-11-4.5-6.3 3.8-12.5 7.7-18.8 11.5-1.7-2.2-15.3-18.9-38.3-19-16.9-.1-32.9 8.9-41.3 22.8-4.8 7.9-6.1 15.7-6.4 20.3v42c.8 4.3 4.7 7.3 8.9 7.1 3.9-.3 7.2-3.2 8-7.2z"/><path d="m183.5 166.3h30.5c.6.1 2.8.3 4.6 2.3 1.5 1.6 1.8 3.4 1.9 4v14.1c-.4 3.3-2.5 19.2-16.6 31-14 11.7-29.8 11.1-33.2 10.9-3.7-1.1-6.3-4.4-6.5-8.2-.2-4 2.5-7.8 6.5-9 2.1.1 13.6.6 23.1-8.3 8-7.4 9.3-16.7 9.6-19.3-6.3-.1-12.7-.2-19-.3-4.1-1.3-6.8-5.2-6.6-9.3.1-3.3 2.4-6.5 5.7-7.9z"/></g></svg>