<svg enable-background="new 0 0 361.4 405.5" viewBox="0 0 361.4 405.5" xmlns="http://www.w3.org/2000/svg"><path d="m70.5 281c-2.7-1.3-4.2-2.8-5-4-1.4-2-2.5-1.7-4-6-.7-1.9-.3-5.4-.8-6.5h.3v-199c-28.6 12.7-47.7 27.1-53.5 35.5-5.6 8.1-7 16-7 16-.6 3.5-.6 6.5-.5 8.5v138.5c-.2 0-.3 0-.5 0v7c0 12.5-.1 13.7 0 16 .5 8.2 3.4 14.8 5 18 4.9 9.5 12.3 15.1 17 18l145 83v-70z" fill="#008dcd"/><path d="m290.2 281.1c2.7-1.2 4.2-2.8 5-4 1.4-2 2.5-1.7 4-6 .7-1.9.3-5.4.8-6.5h-.3l1-199c28.6 12.9 47.6 27.3 53.3 35.8 5.6 8.1 6.9 16 6.9 16 .6 3.5.6 6.5.5 8.5l-.7 138.5h.5v7c0 12.5.1 13.7-.1 16-.6 8.2-3.4 14.8-5.1 18-4.9 9.5-12.3 15-17.1 17.9l-145.4 82.3.3-70z" fill="#008dcd"/><g fill="#c0c0c0"><path d="m88.5 48v68c11.7-6.2 28.4-15.2 48-27 27.4-16.5 33.7-22.2 46-22 12.8.2 18.9 6.5 47 24 18.4 11.5 33.6 20 43 25 0-22.7 0-45.3 0-68-7-5.1-17.3-12.2-30-20-29.8-18.3-44.7-27.4-58-28-16.5-.7-33.7 9.5-68 30-11.9 7.1-21.5 13.5-28 18z"/><path d="m88.5 141v68c11.7-6.2 28.4-15.2 48-27 27.4-16.5 33.7-22.2 46-22 12.8.2 18.9 6.5 47 24 18.4 11.5 33.6 20 43 25 0-22.7 0-45.3 0-68-7-5.1-17.3-12.2-30-20-29.8-18.3-44.7-27.4-58-28-16.5-.7-33.7 9.5-68 30-11.9 7.1-21.5 13.5-28 18z"/><path d="m88.5 234v22c30.7 18 61.3 36 92 54 31.3-17.7 62.7-35.3 94-53v-23c-23.3-14.3-44.2-26.7-63-38-7.7-4.6-19.6-11.8-33-10-3.4.5-10.9 2-19 6-4.6 2.2-7.5 4.3-10 6-1.3.9-1.5 1-27 16-1.8 1.1-32 18.8-34 20z"/></g></svg>