<svg viewBox="0 0 320 320" xmlns="http://www.w3.org/2000/svg"><circle fill="#2d598a" cx="160" cy="160" r="160"/><path fill="white" d="M160 227.05L160 227.05Q131.92 227.05 116.35 211.75L116.35 211.75L116.35 211.75Q100.78 196.45 100.78 168.37L100.78 168.37L100.78 98.53L136.42 98.53L136.42 167.29L136.42 167.29Q136.42 197.53 160.36 197.53L160.36 197.53L160.36 197.53Q184.12 197.53 184.12 167.29L184.12 167.29L184.12 98.53L219.22 98.53L219.22 168.37L219.22 168.37Q219.22 196.45 203.65 211.75L203.65 211.75L203.65 211.75Q188.08 227.05 160 227.05L160 227.05Z"/></svg>