<svg xmlns="http://www.w3.org/2000/svg" viewBox="0 0 1000 1000"><path d="M500,0c276.13,0,500,223.87,500,500s-223.88,500-500,500S0,776.19,0,500,223.84,0,500,0" fill="#53ae94" fill-rule="evenodd"/><path d="M561.71,433.38V359H731.8V245.67H268.64V359H438.75v74.32c-138.24,6.35-242.2,33.73-242.2,66.53s104,60.18,242.2,66.57V804.67h123V566.4c138-6.37,241.74-33.73,241.74-66.51s-103.74-60.13-241.74-66.51m0,112.82v-0.06c-3.47.22-21.3,1.29-61,1.29-31.74,0-54.07-.9-61.94-1.31v0.1c-122.14-5.39-213.33-26.66-213.33-52.11s91.2-46.69,213.33-52.13v83.07c8,0.55,30.88,1.9,62.46,1.9,37.93,0,57-1.58,60.51-1.9V442c121.9,5.43,212.86,26.72,212.86,52.08s-91,46.66-212.86,52.09" fill="#fff"/></svg>