<svg enable-background="new 0 0 392.5 392.5" viewBox="0 0 392.5 392.5" xmlns="http://www.w3.org/2000/svg"><circle cx="196.2" cy="196.2" fill="#3ec0ce" r="196.2"/><path d="m349.4 191.5c0-.4-.1-.7-.1-1.1-.8-5.8-4.4-10.8-9.4-13.7l-125.6-72.7c-4.2-2.4-9.1-3.5-13.8-2.7-2.3.4-4.7 1.1-7.1 2.6-.3.2-.6.3-.8.5-5.4 3.6-8.5 9.8-8.5 16.3l-.3 132.1c0 1.7-.9 3.2-2.3 4.1l-34.5 20.6c-2.3 1.3-5.1-.3-5.1-2.9.1-66.8.2-133.5.3-200.3 0-2.8-.5-5.6-1.7-8.2-3.2-6.9-10.2-11.6-18-11.6-6.9.1-13.1 3.8-16.6 9.5-1.9 3.1-2.7 6.7-2.7 10.3v237.8c0 9.6 6.5 18.1 15.8 20.2.4.1.8.2 1.2.2 7.8 1.3 14-1.9 16.6-3.6 1.1-.7 2.2-1.4 3.3-2l199.7-117.1c6.1-3.6 10-10.1 9.9-17.2-.3-.4-.3-.7-.3-1.1zm-62.4 4.3-61.2 35.8c-1.7 1-3.7-.2-3.7-2.1v-71.3c0-1.9 2.1-3.1 3.7-2.2l61.2 35.5c1.7 1 1.7 3.4 0 4.3z" fill="#fff"/></svg>