<svg xmlns="http://www.w3.org/2000/svg" width="2000" height="1566.02" viewBox="0 0 2000 1566.02"><g fill="#f93" transform="translate(0-217)"><path d="M0,217q165.65.3,331.24.07,104.64,547.1,209.09,1094.14c3.22,16.12,7.24,32.12,11.52,48,16.45-63.58,26.72-128.6,40.41-192.83q95.26-474.64,190.46-949.35,160.22.1,320.38.07Q926.78,985.27,750.4,1753.41H352.69Q176.18,985.76,0,218.05Z"/><path d="m1231.36 699.67c69.7-85.69 181.12-124.58 288.52-131.36 105.89-7.31 220.21 2.11 310 64 79.5 54.43 123.07 146.37 143.8 237.91 25.07 114.65 26.39 232.58 26.26 349.4q-293.49.1-586.92.07c.46 86.35-5.13 175.52 24.48 258.25 14.28 40.74 40.94 81.21 83.39 96.09 45.15 14.41 99.58 5 132.55-30.67 44-48.7 53.18-117.08 62.79-179.54h266.41c-6 103.72-25.6 213.3-95 294.84-69.56 84.77-181.78 119.45-288 123.66-115.37 4.28-240.68-11.06-332.68-87.14-85.49-69.83-122.81-180.39-137.62-286.35-14.81-122.08-15.6-245.55-8.69-368.22 9.35-119.58 31.46-246.21 110.63-341m227.52 122c-45.48 64-46.6 146.37-45.87 221.79q151.53.1 303.2 0c-4.67-71.67-4.15-147.49-37.18-213.17-40.95-81-170.58-81.33-220.07-8.61"/></g></svg>