<svg enable-background="new 0 0 134.5 133.2" viewBox="0 0 134.5 133.2" xmlns="http://www.w3.org/2000/svg" xmlns:xlink="http://www.w3.org/1999/xlink"><linearGradient id="a" gradientUnits="userSpaceOnUse" x1="103.1667" x2="13.1667" y1="66.5833" y2="66.5833"><stop offset="0" stop-color="#232323"/><stop offset="1" stop-color="#454545"/></linearGradient><linearGradient id="b" gradientUnits="userSpaceOnUse" x1="101.2634" x2="103.2634" y1="71.217" y2="1.217"><stop offset="0" stop-color="#595959"/><stop offset="1" stop-color="#94989b"/></linearGradient><path d="m88.7 86.8-20.5 46.3-50.1-110.5c-.7-1.5-1.3-3.1-2-4.6-1.1-2.6-3.5-7.1-8.4-10-3-1.7-5.8-2.3-7.7-2.5v-5.5h71.8c-1.9 1.8-8 8-9.2 17.8-.4 3.4-.1 6.4.4 8.9.4 2.1 1.1 4 1.9 6 8 18 15.9 36.1 23.8 54.1z" fill="url(#a)"/><path d="m93.7 71.8 27-56.2c.7-1.5 2.4-4.4 5.6-6.8 3.3-2.5 6.5-3.3 8.2-3.5 0-1.6 0-3.1 0-5.3h-43.3c-14.5.7-24.1 15.9-17.9 29z" fill="url(#b)"/></svg>