<svg xmlns="http://www.w3.org/2000/svg" viewBox="0 0 257 257"><defs><linearGradient id="0" x2="257" gradientUnits="userSpaceOnUse" x1="0"><stop stop-color="#3ac3ff"/><stop offset=".5" stop-color="#328ee8"/><stop offset="1" stop-color="#377dd9"/></linearGradient></defs><path fill="url(#0)" d="m0 0h257v257h-257z"/><g fill="#fff"><path d="M237.6,147.1c-8.1-5.1-17.1-8-26.2-10.5-4.5-1.2-9-2.2-13.7-3.4,18.7-28.7,37.2-57.1,55.8-85.8a13.05,13.05,0,0,0-1.7-.1c-11.9,0-23.8,0-35.7-.1-1.8,0-2.4.9-3.2,2.1q-33,50.85-66,101.8c-6,9.3-12.1,18.6-18.4,28.3a12.52,12.52,0,0,1-1.4-2q-40.95-64.05-82-128a4.07,4.07,0,0,0-3.9-2.3c-11.3.1-22.6,0-33.9.1-.7,0-1.5.1-2.6.2C23,75.8,40.9,103.8,59,132.1c-.7.2-1.1.2-1.5.3-8.4,2.2-16.8,4.1-25.1,6.7s-16.3,6-22.8,12c-8.2,7.5-8,15.3.5,22.6.3.3.7.5,1,.8,5.8,4.7,12.5,7.8,19.5,10.3,22.1,8.1,45.2,11.2,68.6,12.9a4.12,4.12,0,0,1,3.5,2.1c6.8,10.7,13.6,21.4,20.5,32,1.7,2.6,3.4,5.2,5.2,8a22.75,22.75,0,0,1,1.8-2.6c8.2-12.5,16.3-25,24.5-37.5a4.27,4.27,0,0,1,2.7-1.9c11.7-1.5,23.5-2.5,35.1-4.3,14.3-2.2,28.3-5.9,41.5-12.4,5.2-2.5,10.1-5.5,13.7-10.2,4.1-5.4,4.4-10.8-.1-15.9a58.94,58.94,0,0,0-10-7.9M47.9,167.3a32.53,32.53,0,0,1-8.1-6.7,6.7,6.7,0,0,1,.1-9.3,27.7,27.7,0,0,1,7.7-6.4,112.59,112.59,0,0,1,13.9-5.7,2.85,2.85,0,0,1,2.5.8c8.1,12.5,16.1,25.1,24.2,37.6.1.2.1.5.3,1.2-14.3-2.2-28.1-4.7-40.6-11.5M211.8,163a33.21,33.21,0,0,1-14.5,8.4c-8.7,2.5-17.6,4.5-26.4,6.7a9.4,9.4,0,0,1-2.4,0c3.1-4.8,6.1-9.5,9.1-14.1,4.8-7.3,9.6-14.6,14.3-22,.9-1.4,1.8-2,3.3-1.2,4.4,2.2,8.9,4.3,13.2,6.5a15.39,15.39,0,0,1,3.4,2.8c4,4.2,4,8.8,0,12.9"/><path d="m197.4 35.5c-22.9 37.2-45.6 74.2-68.5 111.5-23.2-37.3-46.2-74.3-69.4-111.5"/></g></svg>