<svg enable-background="new 0 0 369.5 369.5" viewBox="0 0 369.5 369.5" xmlns="http://www.w3.org/2000/svg"><circle cx="184.8" cy="184.6" fill="#07ae4e" r="167.6"/><path d="m184.8 0c-102.1 0-184.8 82.7-184.8 184.8s82.7 184.8 184.8 184.8 184.8-82.7 184.8-184.8-82.8-184.8-184.8-184.8zm4.6 275.4s-2.8 2.1-9.6 3.9c-.1 0-.4.1-.8 0-.8-.1-1.4-.7-1.6-1.5-5.5-25.3-17.1-65.5-43.5-106.5-26.1-40.4-56.2-66.9-77.2-82.6 29.2-38.9 75.6-64.1 128-64.1 52.6 0 99.3 25.4 128.4 64.6-2.7 3.6-6.7 8-12.2 12.1-3.5 2.6-7.2 4.7-15.3 8.3-6.9 3-16.6 7-28.8 10.7-4.5-11.8-10.3-20.1-14.5-25.2-6.4-7.8-13.5-16.3-25.5-19.3-3.5-.9-6.5-1-8.5-1-3.1 0-11.5.3-19.5 6-7.6 5.4-10.9 13-12.4 18.4-1.1 4-1 8.2.2 12.2 2.2 7.4 7.7 20 20.9 29.2 18.4 12.8 37.8 9.4 41.3 8.7 4.9 13.3 5.6 24.6 5.5 31.8-.2 14.6-4.1 26-7.8 36.5-2.5 7.1-4.5 11.3-5.5 13.3-3.9 7.6-7.9 12.7-12.8 18.8-4.8 6-8.5 10.6-14.5 15.8-5.3 4.7-10.5 7.9-14.3 9.9m39.5-152.5c-4.4-.6-10.6-2.1-17.1-5.9-2.7-1.6-4.9-3.2-6.7-4.8-2.5-2.7-2.5-6.8-.5-9.1 2.4-2.8 7.5-2.9 10.4.5 2.1 1.9 4.5 4.4 6.8 7.4 3.4 4.4 5.6 8.5 7.1 11.9zm-102.2 211.3c-37.2-13.2-78.7-54.9-91.8-92.2-16.6-47.3-11.6-93.2 7.7-130.6 19.5 15.2 45.9 39.6 68.8 75.5 19.9 31.2 30.6 60.7 36.6 82.5.5 1.6.9 3.3 1.2 5 .6 2.7 1.5 6 2.9 9.8 2.4 6.2 3.8 9.9 7.3 13.5 8.3 8.6 20.4 8.1 21.8 8 3.6-.2 6.4-1.1 8.3-1.8 5-1.8 11.8-4.8 19.3-9.5 13.9-8.7 22.1-18.5 28.5-26.3 13.1-15.9 19.8-30.4 21.5-34.3 3.4-7.6 9.9-22.7 11.5-43.8 1.4-18.8-1.7-34.3-4.8-44.8 8.5-1.7 20.1-4.9 32.8-11.7 13-7 22.4-15.3 28.8-22 11.2 21.9 17.6 46.7 17.6 72.9-.1 107.2-105.3 189.7-218 149.8z" fill="#fff"/></svg>