<svg enable-background="new 0 0 226.7 226.7" viewBox="0 0 226.7 226.7" xmlns="http://www.w3.org/2000/svg"><g fill="#00aae5"><path d="m149.1 73h-18.7l-17.1 45.5-17-45.5h-18.7l35.8 87z"/><path d="m25.9 149.1c0-41.6 34.5-87 87.8-87 30.2-.1 58.4 15.4 74.5 41 3.1-8.5 4.7-17.5 4.7-26.6 0-32.5-20.1-60.5-48.7-72.3-10-2.8-20.4-4.2-30.8-4.2-62.6 0-113.4 50.8-113.4 113.4 0 37.4 18.1 70.6 46.1 91.2-12.6-15.1-20.2-34.4-20.2-55.5z"/><path d="m184.2 24.8c10.8 14.5 17.2 32.3 17.2 51.7 0 48.1-41.4 87-87.8 87-30.2.1-58.4-15.4-74.5-41-3.1 8.5-4.7 17.5-4.7 26.6 0 36.5 25.3 67.3 59.5 75.9 6.4 1.1 12.9 1.7 19.4 1.7 62.6 0 113.4-50.8 113.4-113.4 0-35.8-16.6-67.7-42.5-88.5z"/></g></svg>