<svg xmlns="http://www.w3.org/2000/svg" width="2000" height="1608" viewBox="0 0 2000 1608"><g transform="translate(0-210)"><g fill="#dcdddd"><path d="m866.59 227.09q64-8.48 128-17.08c6.69-.11 13.28 1.65 19.95 2.26 37.87 5.25 75.9 9.73 113.68 15.47 106.76 66.34 213.17 133.35 319.8 199.92-19.86 7.81-39.88 15.24-59.72 23.1q-34.35 87.85-69 175.61-161.9-106.06-323.77-212.22-158.87 104.7-318.11 208.85c-22.23-57.32-44.57-114.58-66.57-172-21.31-8.82-43.07-16.58-64.5-25.11q154.27-96.44 308.46-193c3.77-2.2 7.19-5.44 11.78-5.8"/><path d="M231.64,701.23c5.91.13,11.78.8,17.65,1.29,117,10.63,234,20.67,350.93,31.59,53.9,34.71,107.32,70.31,161,105.36Q880.6,917.94,1000.09,996.2q117.14-76.87,234.28-153.75c55.17-36,110-72.59,165.39-108.19,122.11-11,244.39-21,366.55-31.68-2,4.09-3.81,8.26-5.51,12.46q-25.17,53.15-50.43,106.25Q1422,1001.48,1133.83,1182c-11.31,3.33-23.46,3.37-35.1,5.45q-43.95,5.82-87.88,11.72c-4.28.47-8.53,1.56-12.83,1q-51.12-6.82-102.23-13.66c-9.82-1.78-20.2-1.54-29.64-4.69q-283.86-177.39-567.51-355c-3.82-2.37-7.81-4.58-11-7.84l-.05-.09c-4.37-12-10.33-23.39-16.33-34.62l-.51-1.05c-.16-.33-.51-1-.69-1.36l-.92-2c-.2-.42-.6-1.27-.82-1.7l-1-2c-.2-.36-.56-1.11-.74-1.47-10.6-22-21-44-31.58-66l-7.66.71c1-2.14,2.07-4.26,3.12-6.36Z"/></g><g fill="#00a2e9"><path d="m1900.63 253.54c33.1-12.88 66.48-25.2 99.37-38.6v.83c-3.73 3.68-5.22 8.82-7.54 13.37q-115.92 242.93-231.65 485.86c1.7-4.2 3.53-8.37 5.51-12.46-122.16 10.72-244.45 20.65-366.55 31.68-55.41 35.6-110.22 72.21-165.39 108.19q42.24-108.12 84.89-216.08 34.54-87.8 69-175.61c19.84-7.86 39.86-15.29 59.72-23.1q226.28-87.16 452.64-174.08"/><path d="M0,215.57q273,105.54,546.35,210.3c21.44,8.53,43.2,16.29,64.5,25.11,22,57.41,44.34,114.67,66.57,172q42,108.23,83.84,216.5c-53.72-35.05-107.14-70.65-161-105.36-116.92-10.92-234-21-350.93-31.59-5.87-.49-11.74-1.16-17.65-1.29L230.53,703l.78-1.79Q115.88,458.29,0,215.57Z"/><path d="m266.66 774.69c.18.36.54 1.11.74 1.47-.2-.37-.56-1.16-.74-1.47"/><path d="m268.36 778.15c.22.43.62 1.29.82 1.7-.18-.42-.6-1.27-.82-1.7"/><path d="m270.1 781.82c.18.34.53 1 .69 1.36-.16-.32-.51-1.01-.69-1.36"/><path d="m271.3 784.23c6 11.23 12 22.64 16.33 34.62-5.63-11.43-11.35-22.85-16.33-34.62"/><path d="m287.68 818.94c3.15 3.26 7.14 5.47 11 7.84q283.77 177.47 567.51 355c9.44 3.15 19.82 2.92 29.64 4.69q50.55 130.22 101 260.5 50.74-129.89 102-259.6c11.63-2.08 23.79-2.12 35.1-5.45q288.34-180.19 576.55-360.68-197.39 413.76-394.43 827.63c-.85 2.1-3.26 2.75-5 3.91q-136 72.36-271.9 144.94c-12.1 6.9-25.19 12.52-36.64 20.27h-1.87l-.07-1.38q-158.37-83.26-316.92-166.16-197.91-415.79-395.97-831.51"/></g></g></svg>