<svg xmlns="http://www.w3.org/2000/svg" viewBox="0 0 400 400"><g><path d="m0 200v200h400v-400h-400m292 57.5c1 1.2 1 2.5.1 5.9-1.7 6.8-1.4 15.5.5 16.3s6.7-3.7 9.5-8.8c2.7-4.7 5.1-6.1 8.4-4.9 4.4 1.7 3.7 3.2-5.3 10.9-7.5 6.4-9 8.7-7 10.7 1.2 1.2 2.1 1 6.4-1.3 5.4-2.8 8.4-2.6 8.4.6 0 1.5-2 2.7-9.3 5.5-5.2 2-10.3 4.6-11.5 5.9-2.4 2.6-6.6 10.8-11.6 22.9-4.3 10.5-8.4 18.2-11.1 21.2-2.2 2.4-9.6 3.9-25.2 5.1-7.3.6-8.2.5-8.6-1.2-.6-1.7-2.7-13.1-2.7-14.1 0-.3 3.7-.2 8.3.1 8.2.6 16.4 2.8 20.2 5.4 2.9 2 3.2 1.7 4.5-3.9q2.4-9.6 10.2-25.2c3.9-7.7 4-8.3 3.6-15.6-.5-8.1-1.9-11.6-6.8-16.9-1.8-1.9-2.9-4-2.6-4.8a11.8 11.8 0 0 0 .6 -1.9c0-.2.9-.4 1.9-.4 1.2 0 3.3 1.8 5.2 4.5 5.3 7.4 6.9 6 6.9-6.3 0-5.6.4-8 1.7-9.4 2-2.2 3.6-2.3 5.3-.3m-85.5 35.9c4.2 1.8 5.4 4.1 6.1 11.9.7 7.4 2.1 10 6.6 11.6 1.8.7 4.3 1.7 5.5 2.1 2.9 1.2 3.7 5.5 6.8 33.5 3.3 30.4 4 34.7 7.1 44.1 4.7 14.3 4.3 30.9-1.2 47.6-2.8 8.6-5.9 12.5-12.3 15.9-12.8 6.7-26 1.8-36.3-13.4a48.89 48.89 0 0 1 -7.8 -37.7c1.5-7 2.3-17.6 1.6-20.2-.3-1.3-3.5-5.3-7.1-9.1-11.2-11.5-23-32.1-20.7-35.8.7-1 1.2-4.1 1.2-6.8 0-5.5-1.6-7.7-8.6-11.6-4.6-2.6-4.9-5.2-1.1-12.4 2.1-4.2 3.3-5.1 13.8-10.4 10.7-5.4 15.5-6.9 31.4-9.7 6.6-1.2 11.4-1.1 15 .4m-92.4 36.9c2.1 1.7 3.9 7.2 3.9 12.3s1.7 10.1 2.9 8.8c.5-.5 1.6-3.3 2.6-6.2 1.6-5 4.5-8 6.5-6.7 1.7 1.1 1.1 6.9-1.1 10.5-3 4.9-3 14.2.1 20.4 3.1 6 9.5 12.6 12.3 12.6 1.7-.1 3.7-2.5 9.2-11.8l7-11.7 1.1 7c1.1 7.9.6 10.3-3.9 18-5 8.7-10.6 15.5-12.7 15.5-2.4 0-7.8-5.3-12.4-12.1-1.8-2.8-6.8-8.2-11-12.1l-7.7-7.1-4.7.8a55.9 55.9 0 0 1 -8.7 .9c-3.6.1-4-.1-4.3-2.6-.3-2.2.2-2.9 2.3-3.4a22.28 22.28 0 0 1 6.9 -.1c2.8.4 4.9.2 6-.6 1.7-1.2 1.6-1.4-.1-3.4-1-1.2-4-2.8-6.8-3.7-7-2.2-11.5-5.2-11.5-7.5 0-3 3.8-3.7 6.9-1.2 10.3 8.4 13.2 9.6 15.9 6.9 1.9-1.9 1.4-5.5-1.8-11.8-2.8-5.6-3.8-10.8-2.3-12.3 1-1.1 3.6-.8 5.4.6m196.7 87.2c.3 2.5-3.7 8.7-9.9 15.2-2.5 2.6-9.7 10.9-16 18.4-18.6 22.2-20.5 24.6-19.7 25.4s16.6-6.1 20.2-8.8c4.5-3.5 12.7-12.1 14.2-15 .7-1.2 1.7-4.9 2.4-8.1 1.2-6 4.5-10.6 7.5-10.6 2 0 2.9 2.3 2.1 5.3a59.62 59.62 0 0 1 -5 9.7c-2.5 4.1-4.2 7.8-4 8.2 1 1.5 4.7.8 9-1.7 2.5-1.4 6.1-5.1 8.8-8.9 5.3-7.4 8.9-10.6 12.1-10.6 2.7 0 5.9 3.4 5.2 5.4-.3.8-4.9 4.7-10.1 8.6-9 6.7-11.8 10.2-10.2 12.8.9 1.5 9.2-.5 18-4.4 15-6.7 19.1-7.1 21.5-2.6 2 3.7-2.9 6-22.1 10.2-5.3 1.2-11.1 3.1-12.9 4.2l-3.3 2 2.3 1.9c2 1.6 4.1 1.9 14 1.9 8.9 0 12.2.4 13.7 1.5 1.9 1.5 1.8 1.6-1 4.1-1.8 1.5-3.5 2.3-4.5 1.9-4.4-1.8-19.3-4.5-24.7-4.5-9.7 0-10.5 3.5-1.7 6.9 4 1.6 5.5 3.4 4.7 5.5-.9 2.4-3.3 2-12-2-17.6-8.1-20.8-8.5-41.9-5.8-10 1.3-12.9 1.4-14 .4-2.2-1.8-1.8-3.5 1.3-6.2 2.5-2.1 21.8-37.6 20.9-38.4-.5-.5-20 6.4-34.1 12.2-1.8.7-1.8.6 0-2.2 6.6-10.7 25.7-22.7 47.9-30.2 11.5-3.9 12.2-4 17-3.9 3.2.2 4.1.6 4.3 2.2m-246.3 39c2.2 3.9 5.4 9.1 7.1 11.5 3.7 5.2 12.2 14 13.5 14s.2-8.7-2.2-17.8c-2.2-8.3-2.4-12.3-.7-14 1.3-1.3 5.7-1.6 7.5-.4.7.4 1.5 6.1 2.1 14.7 1.1 15.7 1.9 18.6 5.8 21.1 2.5 1.7 2.7 1.7 3.9.1.6-.9 1.3-4.6 1.4-8.3.3-9.9 2.7-14.3 7-12.9 3.3 1 3.6 5.1 1.1 12.9-2.9 9.1-3.4 15.7-2.1 24.6 1.9 12.1 6.5 22.9 8.8 20.6.5-.4.8-13.9.9-29.9.1-25 .3-30 1.8-34.7 2.8-8.6 3.4-9 14.4-9 18.1 0 51.7 4.8 56.2 8 4.8 3.4 3.8 4.6-5.7 7.6-20.7 6.3-30.8 7.5-43.3 5.1-4.1-.8-7.8-1.3-8.2-1.1s0 2.5.8 5.1c2.5 8.1 1.8 13.1-4.1 30.9-3.1 9.1-6 19.7-6.4 23.5s-1.5 7.6-2.1 8.4c-2.6 3.1-5.5 1.7-10.2-4.8-5.9-8-15.2-16.8-20.6-19.6-2.3-1.2-9.9-3.4-16.8-5-12.4-2.8-16.4-4.7-14.9-7.1.5-.9 2.7-1 7.5-.6 8.8.9 9.5-.3 3.6-5.8a74.81 74.81 0 0 0 -21.8 -13.3c-7.5-3-8.8-4-8.8-6.4 0-1.9 2.8-3.9 5.5-3.9.9 0 4.9 2.7 8.8 6.1 8.2 6.9 13.9 10.2 17 9.7 5.7-.8-1.1-13.9-11.8-22.7-3.9-3.2-7.7-7.1-8.5-8.6-1.3-2.5-1.3-2.8.5-4.1a9.37 9.37 0 0 1 5.5 -1.2c3.1.3 3.8.9 7.5 7.3" fill="#399b32"/><g fill="#fff"><path d="m215 96.3s-1.1 8.7 1 13.6c0 0 2.7 4.4 6.3 5.1 0 0 1.6-8.6-1.1-15.5 0 .1-1.1-4-6.2-3.2"/><path d="m142.9 124.8s7.7 4.2 10.6 8.7c0 0 2 4.7.5 8.1 0 0-8-3.7-12-9.9 0 .1-2.6-3.2.9-6.9"/></g></g></svg>