<svg xmlns="http://www.w3.org/2000/svg" viewBox="0 0 579.3 390.4" enable-background="new 0 0 579.3 390.4"><path d="m576.2 48.4c-4.4-7.7-11.5-11.4-20.8-11.4-57 .2-114 .6-171 .1-14.4-.1-23 5.5-29.7 17.7-14.4 26-29.6 51.6-44.5 77.4-6.3 10.9-12.4 21.9-18.6 32.8-.5.8-1.2 1.5-2 2.1-.7-.7-1.5-1.3-2-2.1-6.3-10.9-12.4-21.9-18.6-32.8-14.8-25.8-30.1-51.3-44.5-77.4-6.7-12.2-15.3-17.8-29.7-17.7-57 .5-114 .1-171-.1-9.2 0-16.4 3.7-20.8 11.4-4.5 7.8-3.8 16 1 24 6.6 10.9 12.9 22 19.3 33 17.6 30.5 35.1 61 52.7 91.5 18.5 32.1 37.1 64.1 55.7 96.2 16.6 28.7 33.1 57.3 49.8 85.9 4.6 7.8 11.5 11.8 20.6 11.4 8.9-.4 15.2-4.9 19.4-12.7 4.3-7.8 8.8-15.6 13.3-23.3 14.8-25.6 29.6-51.3 44.4-76.9 3.3-5.8 6.8-11.5 10.5-17.9 3.8 6.4 7.2 12.1 10.5 17.9 14.8 25.6 29.6 51.3 44.4 76.9 4.5 7.8 9 15.5 13.3 23.3 4.2 7.8 10.5 12.3 19.4 12.7 9.1.4 16-3.5 20.6-11.4 16.6-28.6 33.2-57.3 49.8-85.9 18.6-32.1 37.1-64.1 55.7-96.2 17.6-30.5 35.1-61 52.7-91.5 6.4-11 12.6-22.1 19.3-33 4.7-8 5.3-16.2.8-24m-314 169.5c-16.7 29.3-33.6 58.5-50.5 87.7-3.2 5.6-6.6 11-10.6 17.8-46.5-80.7-92.5-160.6-138.9-241.1 2.6-.2 4.4-.5 6.2-.5 38-.1 76-.1 114-.3 4.2 0 6.6 1.3 8.7 4.9 20.3 35.5 40.7 70.8 61.1 106.2 3.4 5.9 7.2 11.6 10.1 17.6 1 2.1 1.1 5.7-.1 7.7m116.1 105.5c-4-6.7-7.4-12.2-10.6-17.8-16.9-29.2-33.8-58.4-50.5-87.7-1.1-2-1.1-5.6 0-7.7 3-6.1 6.7-11.8 10.1-17.6 20.4-35.4 40.8-70.8 61.1-106.2 2.1-3.6 4.5-4.9 8.7-4.9 38 .2 76 .2 114 .3 1.8 0 3.5.3 6.2.5-46.5 80.5-92.5 160.4-139 241.1" fill="#2c2c2c"/></svg>