<svg xmlns="http://www.w3.org/2000/svg" viewBox="0 0 2000 2000"><g><path d="M1651.87,561.79L1156.14,64.5c-85.79-86-225.92-86-311.38,0L349.36,560.81c-28.49,28.56-28.49,75.5,0,104.05L499.65,815.53l99.87,92.57a76.7,76.7,0,0,0,104.78,0L904.35,722.63a142.58,142.58,0,0,1,194.16,0l200.06,185.46a76.28,76.28,0,0,0,104.45,0l99.87-92.57,149-149.35a73.83,73.83,0,0,0,0-104.38" fill="#3db6d3"/><path d="M67.12,1156.24L844.43,1935.5c85.79,86,225.92,86,311.38,0l777.31-779.25c134.9-135.24,39.95-175-58.94-268.83l-121.8-115.87c-29.47-27.9-75-27.57-104.78,0L1447.55,957a142.58,142.58,0,0,1-194.16,0L1053.33,771.54a76.28,76.28,0,0,0-104.45,0L748.82,957a142.58,142.58,0,0,1-194.16,0L354.6,771.54a76.7,76.7,0,0,0-104.78,0l-112,103.73C35,971.11-73.67,1015.1,67.12,1156.24" fill="#e2e1e1"/></g></svg>