<svg xmlns="http://www.w3.org/2000/svg" viewBox="0 0 82 83"><defs><linearGradient id="0" x1="3.81" x2="78.21" gradientUnits="userSpaceOnUse"><stop stop-color="#ebebeb"/><stop offset=".95" stop-color="#d3d2d3"/></linearGradient><linearGradient id="1" x2="82" gradientUnits="userSpaceOnUse"><stop offset=".23" stop-color="#44b9d1"/><stop offset=".88" stop-color="#1296d4"/></linearGradient></defs><path d="M16.07 35.14a4.91 4.91 0 0 0 3.44 1.3A5.55 5.55 0 0 0 23.1 35l5.44-4.94 5.37-5.23A10.65 10.65 0 0 1 38 22a9.13 9.13 0 0 1 8 2L58 36c4 4 8 0 8 0L78.21 23.79a41 41 0 0 0 -74.4 0" fill="url(#0)"/><path d="M68,41a8,8,0,0,1-7.37,2.38,9.33,9.33,0,0,1-4.91-2.66L45,30a5.9,5.9,0,0,0-6.51-1.34,9,9,0,0,0-3.32,2.17L25,41a8,8,0,0,1-11,0L1.85,29.79a41,41,0,1,0,78.28-.06Z" fill="url(#1)"/><g fill="#fff"><path d="m15.33 66.85v-4.19h4.59v4.19"/><path d="m23.23 57.1c0-2.9 0-3.65 0-4.39h4.32a8.33 8.33 0 0 1 .14 1.47c.58-.78 1.77-1.74 4.3-1.74 3.17 0 5 1.46 5 4.32v10.08h-4.5v-9.34c0-1.4-.38-2.26-2.19-2.26s-2.52.69-2.52 2.84v8.76h-4.55"/><path d="M44.47,60.62c0,1.8.3,3.79,2.79,3.79,2.24,0,2.53-1.38,2.6-1.86h4.3c-.07.45-.51,4.56-7,4.56S40,63.26,40,59.68c0-4.48,2.34-7.22,7.27-7.22,5.65,0,7,3.07,7,6.76a12.15,12.15,0,0,1-.07,1.4Zm5.41-2.36c0-1.37-.22-3.12-2.6-3.12-2.57,0-2.73,2.1-2.74,3.12Z"/><path d="M55.56,52.71h2.55V49.17H62.6v3.54h3v2.67h-3v7.74c0,.82.2,1.29,1.6,1.29a7.58,7.58,0,0,0,1.11-.06v2.4a10.79,10.79,0,0,1-2.75.28c-3.1,0-4.45-.83-4.45-3.37V55.38H55.56Z"/></g></svg>