<svg xmlns="http://www.w3.org/2000/svg" width="2000" height="2000" viewBox="0 0 2000 2000"><circle cx="1000" cy="1000" r="1000" fill="#141b24"/><path d="m1122.8 773.26c45.24-.29 90.55-.7 135.74.19 23 17 43.69 37 66.11 54.84q184 155.31 368.35 310.22c-33.77 1.19-67.59.19-101.36.51-11.61-.34-23.3.78-34.81-.48-13.75-9.24-25.36-21.19-38.45-31.25-19.35-16.56-39.13-32.61-58.33-49.29-33.41 25.84-64.37 54.77-97.75 80.63-37.84.8-75.78.41-113.65.19-6.76-5.09-11-12.73-16.66-19-13.24-15.22-25.89-30.93-38.91-46.33-62.91-.58-125.82.22-188.73-.39a61.82 61.82 0 0 1 9.09 -13.89c12.58-14.3 24.44-29.29 37.12-43.54 31-.17 61.92.29 92.85-.22-22.5-29.41-47.59-56.75-70.79-85.6-48 58.47-97.55 115.74-145.85 174-32.73 38.38-64.85 77.24-97.51 115.66-3.08 3.18-5.7 8.44-10.93 7.42-36.92-.34-73.84.56-110.74-.51 25.36-28.44 48.92-58.4 74-87-40.24-1.14-80.56.41-120.8-.8-9.82-22.81-17.45-46.69-26-70.06-13.53-35.18-24.87-71.2-39.52-106-12.07 33.87-24.68 67.52-36.53 101.46-8.12 21.46-16.44 42.86-23.44 64.7-2.23 3.68-2.09 11.08-8 10.25-39.59 0-79.18.24-118.74-.15-.56-.8-1.65-2.42-2.21-3.25-33-91.61-67-182.91-99.52-274.67 30.93 0 61.87-.17 92.8.1 13.65 31.49 23.1 64.61 36.27 96.34 10.55 31.08 22.28 61.7 33.26 92.63 22.89-60.1 44.22-120.83 66.45-181.19 1.65-2.93 2-8.65 6.62-7.83 37 0 74.14-.41 111.2.22 22.21 62.81 45.84 125.09 67.74 188 8.15-15.39 12-32.49 18.84-48.44 14.23-39.76 28.75-79.4 43.13-119.08 2.86-6.93 4-15.3 9.55-20.68 30.21-.36 60.46 0 90.67-.17-.39 8.15-4.39 15.39-6.91 23-27.42 74.69-54.3 149.6-81.82 224.27-2.18 4.82-2.81 10.09-3.22 15.3 10.09-4.78 15.49-15.22 22.79-23.18q100.7-119.61 201.42-239.19c37.92.19 75.93-.78 113.77.46 20.27 20.9 37.5 44.56 56.9 66.26 39.1 47.71 79.76 94.16 118.4 142.26 6.74-1.38 10.79-7.44 16-11.37 22-17.5 42.81-36.44 64.8-54 2-1.45 3.18-3.61 4.53-5.62-22.47-17.33-43.25-36.68-65.34-54.47q-74.88-63.35-150-126.48c-16.92-15.27-35.49-28.85-51.88-44.78" fill="#fff"/><path d="m1521.43 893.29c10.35-9.58 21.16-18.69 32.29-27.39 43.4-1.16 87-.12 130.43-.53-41.14 37.14-85 71.2-126.62 107.76-17.7-19.56-40.46-33.53-59.35-51.81a5.54 5.54 0 0 1 -1.94 -7.32c7.69-7.72 17.02-13.51 25.19-20.71" fill="#ff8b00"/></svg>