<svg enable-background="new 0 0 119 120.8" viewBox="0 0 119 120.8" xmlns="http://www.w3.org/2000/svg"><g fill="#5783cb"><path d="m96.5 19.3c-3.7-3.1-10.6-8-20.5-10.5-7.4-1.9-13.3-1.7-16.5-1.5-5.2.3-14.6.8-24.5 6.5-8.9 5.1-13.8 11.8-16 15-2.6 3.7-9.6 13.8-10 28-.1 5 .6 8.8 1 11 1 5.1 4 19.6 17 31 14.1 12.4 30.4 13 35 13 4.8 0 18.2-.7 31-10 16.4-12 20.1-29.7 21-34 .6-2.9.9-5.3 1-7 .5-1.5 1.3-3.1 2-3 1.3.1 2 6 2 10 0 6.5-1.7 11.7-3 15-6.9 17.4-20 27-20 27-14.3 10.5-29.1 10.9-34 11-5 .1-23.5-.3-40-14-1.9-1.6-23-19.7-22-49 .2-5.3 1.4-20.1 12-34 14.3-18.8 34.9-22.2 40-23 4.6-.7 14.8-2.1 27 2 10.5 3.5 17.4 9.5 21 13 1.3 1.2 1.1 3.2 0 4-.9.7-2.5.6-3.5-.5z"/><path d="m110.3 29.3c-4.3 0-7.8 3.5-7.8 7.8 0 1.3.3 2.5.9 3.6-2 3.8-4.4 7.9-7.4 12.2-4.1 5.8-8.2 10.7-12 14.5-.2 0-.5 0-.7 0s-.4 0-.6 0c-1.6-1.4-3.7-3.5-5.6-6.5-1.4-2.3-2.3-4.4-2.9-6.1.6-1.1.9-2.3.9-3.6 0-4.3-3.5-7.8-7.8-7.8s-7.8 3.5-7.8 7.8c0 1.3.3 2.6.9 3.7-1.5 3.6-3.6 7.7-6.4 12.1-3.4 5-6.9 9.2-10 12.4-.1 0-.2 0-.3 0-3.4-3.6-7.2-8.4-10.7-14.5-2.3-4-4.1-7.9-5.4-11.3.9-1.3 1.4-2.8 1.4-4.5 0-4.3-3.5-7.8-7.8-7.8s-7.8 3.5-7.8 7.8 3.5 7.8 7.8 7.8h.9c2.3 2.9 4.6 6.2 6.9 10 3.5 5.8 6 11.2 7.8 16-.8 1.2-1.3 2.7-1.3 4.3 0 4.3 3.5 7.8 7.8 7.8s7.8-3.5 7.8-7.8c0-.9-.2-1.8-.5-2.6.2.1-.7-.8-.5-.6 1.3-4.1 4.4-8.4 8-14 3-4.7 6.3-8.3 9-11h.3c.4 0 .8 0 1.2-.1 1.4.8 3.6 2.4 5.6 5.1 1.9 2.5 2.7 5 3.1 6.5-1 1.3-1.6 2.9-1.6 4.7 0 4.3 3.5 7.8 7.8 7.8s7.8-3.5 7.8-7.8c0-1.2-.3-2.3-.7-3.3 1.8-4.1 4.3-8.9 7.7-14 3.7-5.5 7.6-9.8 11-13.1.4.1.8.1 1.3.1 4.3 0 7.8-3.5 7.8-7.8s-3.8-7.8-8.1-7.8z"/></g></svg>