<svg enable-background="new 0 0 221.3 221.3" viewBox="0 0 221.3 221.3" xmlns="http://www.w3.org/2000/svg"><path d="m111.1 141.1c-6 0-10.8 4.8-10.8 10.8s4.8 10.8 10.8 10.8c5 0 9.1-3.4 10.4-7.9h-7.5v-5.4h7.6c-1.3-4.8-5.5-8.3-10.5-8.3z" fill="none"/><path d="m110.6 0c-61.1 0-110.6 49.5-110.6 110.6s49.5 110.6 110.6 110.6 110.6-49.5 110.6-110.6-49.5-110.6-110.6-110.6zm0 179.4c-15.1 0-27.3-12.2-27.3-27.3s12.2-27.3 27.3-27.3c14.1 0 25.8 10.7 27.2 24.5h-16.3c-1.2-4.7-5.4-8.2-10.4-8.2-6 0-10.8 4.8-10.8 10.8s4.8 10.8 10.8 10.8c5 0 9.1-3.4 10.4-7.9h16.4c-1.4 13.8-13.1 24.6-27.3 24.6zm43.6-34.2c-.8 1.9-3.5 1.9-4.4.1l-37.2-77.8c-.8-1.7-3.3-1.7-4.1 0l-37.4 78c-.7 1.4-2.7 1.4-3.3 0l-36-80.5c-1-2.2.6-4.7 3-4.7h151.9c2 0 3.4 2.1 2.6 4z" fill="#ea532e"/></svg>