<svg enable-background="new 0 0 1845.1 1845.5" viewBox="0 0 1845.1 1845.5" xmlns="http://www.w3.org/2000/svg"><path d="m922.5 0c-125 0-244.8 24.1-359.3 72.4-110.2 46.7-207.9 112.5-293.1 197.7-84.9 85.2-151 183-197.3 293.1-48.7 114.5-72.8 234-72.8 359.3 0 125 24.1 244.8 72.8 358.9 46.3 110.5 112.5 208.3 197.3 293.5 85.3 85.3 183 151 293.1 197.7 114.4 48.3 234.3 72.8 359.3 72.8 125.3 0 244.8-24.5 359.3-72.8 110.2-46.7 207.9-112.5 293.1-197.7 84.8-85.2 151-182.9 197.4-293.5 48.6-114 72.8-233.9 72.8-358.9 0-125.3-24.1-244.8-72.8-359.3-46.3-110.2-112.5-207.9-197.4-293.1-85.2-85.3-182.9-151-293.1-197.7-114.4-48.3-233.9-72.4-359.3-72.4z" fill="#fff"/><path d="m1335.9 302.1c9.4-1.2 14.8-5.1 17.1-10.5 2.7-6.6 1.2-13.2-4.3-19.9-43.6-74-142.1-119.5-296.2-135.9-64.2-7-133.1-3.9-207.1 9.3-78.2 13.6-146 35.4-203.2 66.2-142.4 76.7-224.1 178.4-245.6 305.2-3.1 11.7-2.3 19.9 1.5 24.9 4.3 5.1 11.3 5.8 21 2.7 190.3-63.8 337.9-109.8 442.2-137.8 164.8-43.1 322.8-78.2 474.6-104.2z" fill="#eebd31"/><path d="m1191.5 85.7c-84.6-27.6-173-41.6-262-41.6-128.1 0-248.7 24.5-361.2 74-106.3 46.2-199.3 111.6-279.9 195.7-77.4 81.3-137.8 174.3-180.2 279.1-42.8 104.7-63.8 212.1-63.8 322.7 0 119.1 22.2 232.8 67 341.8 43.6 106.3 104.7 200.1 184.5 281.8 78.7 81.7 172.9 146.8 277.2 191.5 109.4 47.5 224.6 70.9 346.1 70.9 211.4 0 395.9-63.8 553.5-192.3 61.9-50.2 116.4-108.6 163.9-174.4 40.1-55.7 71.6-112.1 94.6-168.6l-147.5-80.2c-62.3 140.1-148.7 251.1-259.2 332.4-117.2 86-249.9 130-397.4 132.4-109.4 1.6-212.5-15.6-309.1-51.8-94.2-35-177.1-86-248.7-153.4l-85.3 36.6v-132c-47.5-63.8-83.3-133.9-108.2-211.4-25.7-79.8-38.5-164.3-38.5-253 0-114 21-221.9 63.1-323.9 40.9-99.3 99.3-186.4 175.2-261.6 76.7-76.3 165.8-134.7 267.8-175.9 105.9-42.4 219.5-63.8 340.6-63.8 64.6 0 134.3 8.6 207.5 25z" fill="#3261a5"/><path d="m1630.6 689c-5.8-12.4-15.2-21-28.4-26.5-20.6-7.8-43.2-12.9-68.9-14.4-25.3-1.6-50.6 0-76.3 5.5-49 9.7-91.1 30.7-125.7 63-50.2 46.7-75.5 110.2-75.5 191.1 0 67.7 22.2 117.9 66.6 150.6 37.7 27.6 84.1 38.5 138.6 32.3 61.5-7 109.4-27.6 144-61.9 19.9-19.5 29.6-46.3 30-80.6.8-23.4.8-72.8 0-147.5l-184.1 40.1v42.8c.4 31.1 14.8 44 44 38.1l23.4-5.8.4 35c.4 3.1-.8 6.6-4.3 10.5-6.6 8.6-19.9 14.4-39.3 18.3-29.6 4.3-51.7-1.6-66.9-18.7-14.4-16-21.8-41.3-22.2-75.1.8-33.9 9.7-61.9 27.2-83.7 16-19.8 36.6-33.1 62.7-38.9 23-5.4 44.8-7 65.4-4.3l38.1 7.4c14.8 2.3 26.8-1.2 37.4-9.4 9-7.8 15.2-18.3 17.9-31.1 2.5-12.2 1.1-25.2-4.1-36.8zm-497.9 67.3c-10.9 14.4-16.3 33.9-16.3 59.6l-.4 130c-49-61.5-89.9-108.6-121.9-140.9-17.5-17.1-40.1-20.6-68.5-10.5l-63 19.1v434l61.1-21c22.6-7.8 38.5-19.1 48.3-33.1 9.4-14 13.6-32.7 13.6-56.4l-.8-149.9 131.2 151.4c19.5 19.8 43.6 25.7 72.8 17.1 13.1-3.7 24.6-11.7 32.7-22.6 9.4-11.7 14-25.3 14.4-40.9v-376c-22.6 4.7-43.2 9.7-62.3 15.2-17.9 5.1-31.5 13.3-40.9 24.9zm-381.8 90.3c-22.2 8.2-38.5 19.5-48.6 33.1-11.7 16.4-17.1 39.3-17.1 69.7l-.4 360.5 70.8-25.3c24.5-9.4 41.6-20.6 51.8-35 10.1-14 15.2-33.9 15.2-59.2l.4-367.1c-24.4 7-48.4 14.8-72.1 23.3zm-317.3 121.9-131.2 54.5-.8 432.5 92.6-38.9c12.5-3.1 22.2-10.9 29.2-22.2 7-10.9 10.1-24.9 9.7-42.4v-137.4l103.5 110.2c12.8 12.8 28 20.6 45.5 22.6 20.2 2.7 38.9-3.1 56.1-16.7 15.6-12.8 23.7-29.2 24.5-49 .4-18.3-4.3-33.1-14.8-44.8l-94.6-94.6 96.9-153c8.9-14.8 11.3-30 7-45.1-4.7-16-15.2-27.6-31.1-34.6-16.7-7.8-33.5-8.6-49-2.7-13.6 5.1-24.1 13.2-31.5 24.9l-111.7 190z" fill="#cc2131"/><path d="m1504.1 1125.3c-4.7-5.1-12.8-6.2-24.1-3.1-130 30.4-279.1 72-447.6 125-181 56.8-327.8 109.4-439.9 157.6l-11.3 5.4c-2.7 1.9-5.1 4.3-6.2 7.8-3.5 7.4-1.6 14.8 5.8 22.6 12.8 15.6 34.3 30.8 64.6 45.5 32.7 15.6 70.1 28.4 112.9 38.1 104.3 23 209 21.8 314.1-3.5 149.1-35.8 264.7-103.5 346.8-203.2 27.3-33.5 49.4-68.9 66.6-105.9 10.5-22.6 17.9-42.8 22.2-60.7 2.3-11.9 1.1-20.5-3.9-25.6z" fill="#eebd31"/><path d="m410.7 650.5c-20.6-10.9-47.1-10.9-79.4 1.2-16.3 5.8-48.6 18.7-97.3 38.5l.4 315.3 116-49.4c31.9-13.2 55.7-28 71.2-44 19.5-20.2 28.8-44 28.4-72-.4-15.6-5.4-28.8-16-39.7-9.5-10.4-22.3-17.3-36.2-19.5 27.6-22.2 41.3-48.3 41.3-78.6 0-24.2-9.8-41.3-28.4-51.8zm-81.8 124.5-14.8 6.2v-66.5c12.9-7 23.7-8.6 32.3-5.8 8.2 3.1 12.5 10.1 12.1 21.8 0 19.8-10.1 34.6-29.6 44.3zm23 50.2c8.9 4.7 13.6 12.8 13.6 25.3.8 21.8-10.5 37.8-32.7 47.9l-17.9 8.2v-76.7c15.2-7.8 27.6-9.3 37-4.7zm318.8-251.4c0-12.8-3.9-21.4-12.1-26.1-7-4.3-16.7-4.7-28-1.2-12.1 3.5-24.9 7.8-38.9 13.2v195.8c-.8 29.2-9.7 45.5-27.6 50.2-8.9 1.9-16 .4-20.6-4.7-4.3-4.7-6.6-12.4-6.6-22.6l-.4-160.4c0-12.9-3.9-21.8-11.7-26.5-7.4-4.7-16.7-4.7-28.4-1.2l-39.7 14.4v194.2c-.4 32.7 9.7 56.4 30.4 70.5 21 14.8 48.6 17.1 82.5 7 33.1-9.7 57.2-24.5 72.8-43.2 18.7-22.6 28-54.1 28.4-95zm580.4-82.9v-44l67.3-14c16-3.1 24.1-14.4 24.1-33.1v-33.5c-55.7 9.4-112.5 21-170.1 34.3l-1.2 287.7c48.5-11.8 97.2-22.9 146-33.5 18.7-4.3 28.4-16.7 28.4-37.4v-33.5l-94.6 20.6.4-55.7 59.2-12.4c16.3-3.9 24.5-14 24.5-31.2l-.4-31.9zm-558.6 332.4 47.1-16c21.4-8.6 31.9-22.6 32.3-42.8l.4-77.1 67.7 70.5c10.1 9.7 21.4 14 34.6 13.3 10.5-1.2 19.1-4.7 26.1-11.3 8.6-7.8 12.9-17.9 12.9-30-.4-11.7-4.3-21.4-12.1-29.2l-51.4-49.1c33.1-27.2 49.4-58.8 49.8-93.8 0-24.5-9.3-42.8-28.4-54.5-19.5-12.1-44.4-14.8-74.3-7.8-25.7 5.8-60.7 16.7-104.7 31.9zm79.4-180.2v-82.1c30.4-11.3 45.9-4.7 46.3 19.9.4 25.6-15.2 46.2-46.3 62.2zm767.2-282.2c-18.7-14.4-42.8-19.9-71.6-16l-104.3 17.5v283.4l43.2-8.2c22.2-5.1 33.5-18.3 33.9-40.5v-69.3l66.6 78.2c6.6 7.4 14.8 11.7 23.7 13.2 10.5 1.9 20.6 0 30.3-6.2 10.5-6.6 16.4-16 17.5-27.6 1.2-11.7-1.9-21.8-9.7-30l-51.4-57.6c31.9-21.4 48.3-48.3 48.3-80.6.4-24-8.6-42.3-26.5-56.3zm-98.9 123-.4-76.7c30-6.2 45.5 1.2 46 22.6 0 24.5-15.2 42.4-45.6 54.1zm-288.8-21.9c.4-13.6-5.4-24.1-17.5-31.5-13.2-7.4-31.9-10.5-56.8-10.1-52.9 1.9-94.6 20.2-125 55.3-28 32.3-42 73.2-42 123 0 47.1 14 82.1 41.6 105.1 25.7 21.4 59.2 28.4 99.2 21 34.3-6.6 61.1-18.7 80.6-36.2 14.4-12.5 21.4-29.2 21.4-49.8v-111.7l-118 26.5v32.7c0 7.8 2.7 13.6 7.8 17.9 5 4.3 11.3 5.8 18.7 4.3l17.1-3.9.4 32.3c0 6.6-3.9 11.7-12.1 15.6-7.8 3.9-17.1 5.8-27.3 5.4-29.2-.4-43.6-21.8-44.4-64.2.4-26.5 6.6-47.9 17.9-65 11.3-16 25.7-26.1 44-31.2 11.7-2.7 26.9-3.1 46-.8 14.8 2.7 26.5.4 35-5.8 8.7-6.3 13-16 13.4-28.9z" fill="#cc2131"/><path d="m492.8 475.3c3.9-2.7 5.8-7.4 6.6-13.2 13.2-50.2 38.5-99.6 75.9-147.5 35-44.8 73.2-79.8 114.8-105.1-59.6 26.1-112.1 67.7-158 125-18.7 23.7-33.9 47.1-45.5 70.5-10.9 22.2-17.1 40.5-18.7 55.7 0 5.4 1.2 9.7 3.9 13.2 2.7 3.1 6.2 4.7 10.5 5.1 3.9.2 7.4-1 10.5-3.7zm735.7-219.2c.4-12.8-8.2-26.1-24.9-39.7-16-12.8-38.1-24.5-65.8-35.4-28.8-10.5-59.2-17.9-91.9-23-35-5-69.3-6.6-102.4-3.9 65.4 4.7 119.9 17.5 163.5 39.7 19.1 9.3 33.9 19.5 44.4 30.3 10.1 10.5 15.6 20.6 15.6 30 .4 11.7-4.3 22.6-13.6 31.9-8.6 9.7-20.2 16.7-33.9 21l45.9-10.9c15.6-3.5 26.9-6.6 34.3-9.7 19.1-6.5 28.4-16.6 28.8-30.3zm195.8 968.5c3.9-8.2 4.3-15.6 1.6-21.8-1.9-5.8-6.2-9.7-12.5-11.7-6.2-1.9-12.1-1.2-17.9 1.9-7 3.9-11.7 10.5-14.8 19.9-18.3 47.5-44 91.1-77.1 131.2-38.9 47.9-86.1 87.2-140.9 118.3 55.7-21.8 105.5-51.7 149.1-89.9 48.7-42.4 86-91.5 112.5-147.9z" fill="#fff"/><path d="m1709.2 1189.2h-29.2v4.7h11.3v22.6h7.4v-22.6h10.5zm11.3 5 6.6 22.2h7.4l6.6-22.2v22.2h7.4v-27.3h-10.9l-6.6 21-7-21h-10.9v27.3h7.4z" fill="#cc2131"/></svg>