<svg xmlns="http://www.w3.org/2000/svg" viewBox="0 0 318 318"><g fill="#01c4c2"><path d="M302.12,89.67l-18,104.41a40,40,0,0,1-40.41,33.21h0a40,40,0,0,1-38.94-37.12l-7.19-108.1a8.35,8.35,0,0,0-16.66,0L170.26,239.54a41.51,41.51,0,0,1-41.42,38.71h0a41.51,41.51,0,0,1-41.43-38.9L80,121.13a7.54,7.54,0,0,0-15-.36L53.61,222.62a83.81,83.81,0,0,1-9.24,30l-5.55,10.49A159,159,0,0,0,302.12,89.67Z"/><path d="M18.79 224.68A47.41 47.41 0 0 0 21.45 214L34 116.58a38.19 38.19 0 0 1 76 1.53l10.37 121.28a8.45 8.45 0 0 0 16.85 0L150.73 80a40.1 40.1 0 0 1 40 -36.75 40.1 40.1 0 0 1 40 37.34l7.37 106.68a6.78 6.78 0 0 0 13.46 .66L275.25 50.55A159 159 0 0 0 16.76 230.1"/></g></svg>