<svg enable-background="new 0 0 402.3 402.3" viewBox="0 0 402.3 402.3" xmlns="http://www.w3.org/2000/svg"><circle cx="201.1" cy="201.1" r="201.1"/><path d="m336.3 255.7c-3.2 1.9-7.7 4-13.3 5.5-4.2 1.1-8.1 1.5-11.2 1.7 4.2-2.3 11.4-6.9 17.5-15.2 8.3-11.3 9.7-22.9 10-27.8-1.5 2.9-3.9 6.8-7.7 10.7-3 3.1-5.9 5.3-8.3 6.8 2.9-5.7 6.1-13.6 8-23.3 0-.1 0-.1 0-.2 2-10.3 1.8-20.9-.2-31.2-2.5-13-7.8-30-19.9-46.6-33.9-46.7-91.2-49.1-99-49.3 7.4 2.4 18.6 7.1 30 16.2 12.4 9.9 19.7 20.7 23.7 27.7-.2-4.2-.8-9.1-2.2-14.5-.7-3-1.6-5.7-2.5-8.2 7.6 3.6 28.2 14.6 41.8 39 11.5 20.6 12.1 40 11.8 48.7 0 10.8-1.4 41.3-22.7 70.7-17 23.5-38.3 34.6-48.5 39.2.8-1.6 1.7-4 2.2-7 .4-3.1.2-5.8-.2-7.5-3.3 2.6-7.6 5.4-13 7.8-11.1 4.9-21.2 5.4-27.3 5.2-7.2 0-31.3-.9-53.8-18.8-21.9-17.4-28.4-39.9-30.2-47 2.3 4.4 5.9 9.6 11.2 14.6 2 1.9 9.2 8.1 20.5 11.9 6.5 2.2 12.2 2.8 16.1 3 0-1.2.1-3.5 1.3-5.8 1.7-3.4 4.6-5 5.7-5.5 1.2-.6 2.2-.9 4.2-1.3 3.5-.6 7.1-.9 10.6-.8l11.7.1c3 0 7 .3 11.5 1.7 2.1.6 3.9 1.4 5.5 2.2 1.8.8 4.1 1.6 6.7 2.2 3.2.7 6 1 8.3 1 2.4.1 6.8-.1 11.7-2.2 3.2-1.3 5.6-3.1 7.3-4.5 1-.9 1.5-2.1 1.4-3.4-.1-1.4-.3-2.7-.5-4 .4 0 2.1.1 3.7-1.2 1.7-1.4 2-3.3 2-3.7.1-.3.7-2.4-.5-4.3-.6-.9-1.4-1.4-1.8-1.7.7-.6 1.7-1.7 2.5-3.2 0 0 0 0 0-.1 1.1-2 1.4-4.3 1.1-6.6-.5-4-2.4-11.8-8.3-14.3-.8-.3-1.7-.6-2.7-.7.6.7 1.3 1.7 1.8 3.2.8 2.4.5 4.5.3 5.5-.5 1.9-1.5 4.6-3.7 7.3-2.1 2.6-4.5 4.4-6.7 5.6-4.3 2.3-9.6 2.4-13.8-.3-.2-.1-.5-.3-.7-.5-1-.7-1.8-1.5-2.5-2.3-1.5-1.7-1.7-4.3-.4-6.2.7-1.1 1.5-1.8 2.1-2.3-.9.1-5.2.5-8.2 4.2-1.6 2-2.1 4-2.3 5.2s-.3 3.1.3 5.3c.3 1.2.8 2.2 1.3 3-4.4.1-41.6.1-64-29.5-11.8-15.7-14-32.3-14.4-40.1-.2-3.8-.1-13.7 6.2-23.8 5.5-8.8 12.8-13.2 16.2-15-2 2.6-5.6 7.7-7.2 15.2-1.7 7.9-.4 14.5.5 17.7 2.4-1.6 6.4-3.7 11.7-4.7 3.3-.6 6.2-.7 8.5-.5 2 .2 4.1.5 6.3 1 8.7 2 15.2 6.4 19.4 10.1 1 .9 2 1.7 3.1 2.5 2 1.6 4.2 3.5 6.3 6 1.7 1.9 3.1 3.7 4.2 5.4 1.7 2.5 2.8 5.4 3.3 8.5v.1c.4 2.9.2 5.3-.1 7 3.1-2.2 8-6.3 11.9-13 .5-.8 1-1.7 1.4-2.5 3.7-7.2 5-15.4 4.4-23.4-.7-8.3-3.1-21-11.3-33.9-12.6-19.9-30.9-27.7-37-30-4.3-1.8-10.4-4.6-17.5-8.5-9.6-5.3-17.9-9.9-26.1-18.3-3.5-3.6-8.2-9.1-12.6-17.1 0 1.8 0 4.4.5 7.5 1.5 9.3 5.7 16 11.5 25 1.7 2.6 4 6.1 7.1 10.1-5.9 2-12.1 4.5-18.7 7.5-12.3 5.7-22.6 12.1-31 18.2 3.8-1.3 9.6-2.8 16.7-2.8 6.7 0 12.1 1.2 15.8 2.3-9.1 1.7-16.6 4-22.2 6-13.7 4.9-19.3 9.3-21.1 10.7-2.8 2.3-4.9 4.5-6.4 6.1 3.1-1.2 7.1-2.4 12-3 6-.7 11.2-.3 14.8.3-5.8 1.9-14.3 5.4-23 12.2-10.3 8-16.3 16.8-19.5 22.5 4.7-3 11.2-6.5 19.3-8.8 4.2-1.2 8.1-1.9 11.5-2.3-5.3 3.2-12.1 8-18.7 15.3-9.8 11-14.6 22.9-16.8 30.2 2.7-3.1 6.5-6.9 11.5-10.5 4.6-3.3 9.1-5.6 12.7-7.2-4.2 4.9-10.9 14.1-14.4 27.5-2.5 9.6-2.4 17.9-1.9 23.5.7-.6 1.8-1.5 3.3-2.2 1.6-.7 3-.9 4-1 1.7 11.8 8 44.5 35.8 72.7 12.2 12.4 25.5 20.8 38.2 26.4 25.5 11.4 54.1 14.2 81.5 8.4.2 0 .4-.1.6-.1 7.8-1.7 14.9-3.8 21-6-3.3-.7-7.4-1.8-11.7-3.8-2.2-1-4.1-2.1-5.8-3.2 8.5-.4 18.8-1.6 30.3-4.5 11-2.8 20.4-6.4 27.8-9.8-4.4-.1-9.7-.5-15.5-1.8-3.6-.8-6.8-1.8-9.7-2.8 7.6-2 16.4-4.9 25.8-9.2 11.2-5.1 20.5-10.8 27.7-16-4.5 1.1-10 2.1-16.3 2.3-3.3.1-6.4 0-9.2-.2 5.3-2.7 12-6.8 18.8-12.8 9.5-8.4 15.3-17.3 18.8-23.6zm-128.8-126c4.1 4.5 8.2 9.1 9.3 15.8.3 1.7.3 3.2.3 4.2-1.5-.2-3.6-.6-5.8-1.5-2.1-.9-3.8-1.9-5-2.8.1-.9.3-2.1.3-3.7 0-1-.1-4.7-3.4-11.8-1-2.2-2.5-5.1-4.7-8.3 4 3 6.9 5.9 9 8.1z" fill="#e9332a"/></svg>