<svg xmlns="http://www.w3.org/2000/svg" viewBox="0 0 2000 1684"><g transform="translate(0-157)"><path d="m698.2 745.95v-54m618.92 0v54" fill="none" stroke="#1d1d1b" stroke-miterlimit="10" stroke-width=".25"/><path d="M540.54,999.9l142.34,54v45H499.1v110.77h-200v118H151.35V1778H0v63H612.61v-63H350.45V1419.55H484.68V1306.08h198.2v-54H917.12L1004.5,1461l71.17-208.92H1301.8v54h200.9v112.57h145v358.41h-255V1841H2000v-63.94H1847.75V1325.89H1710.81V1212.43H1502.7V1099.86H1317.12V1053l141.44-54,0.9-.9-142.34-54V899H1500.9V788.27h200v-118h147.75V220H2000V157H1387.39v63h262.16V578.45H1515.32V691.92h-198.2v54H1082.88L995.5,537,924.32,745.95H698.2v-54H497.3V579.35h-145V220.94h255V157H0v63.94H152.25V672.11H289.19V785.57H497.3V898.14H682.88V945L541.44,999" fill="#af8e58"/></g></svg>