<svg xmlns="http://www.w3.org/2000/svg" viewBox="0 0 226.78 226.78" width="2500" height="2500"><defs><style>.cls-1{fill:#ec1550}</style></defs><title>xcp</title><path class="cls-1" d="M202.65 127.78L176.45 154h-24.89a5.11 5.11 0 0 0-5.1 5.1v14.94a3 3 0 0 1-3 2.95h-19a3 3 0 0 1-3-3v-36.3l15.56-15.56a3 3 0 0 1 4.17.05l6.87 6.87h18l11.6-11.6v-15.23l-11.89-11.95h-16l-63.62 63.62H49.07l-26.42-26.41V91.85L49.1 65.4h36.16l15.67 15.67a3 3 0 0 1 0 4.16L87.61 98.52a2.94 2.94 0 0 1-4.36.1l-8.31-8.28H59.43l-11.84 11.83v15L59.39 129h16.43l63.62-63.62h36.66l26.55 26.55z" id="Laag_2" data-name="Laag 2"/></svg>