<svg xmlns="http://www.w3.org/2000/svg" viewBox="0 0 2000 1996"><g transform="translate(0-2)"><path d="M1000.52,1998l-11.46-5.73C542.31,1730.78,204.38,1299.4,66.92,784,45,702.92,28.73,619.89,17.28,535.9A2252.41,2252.41,0,0,1,.09,282c0-14.32-1.91-12.41,11.46-19.09A1992.11,1992.11,0,0,1,755.19,16.72,2145.4,2145.4,0,0,1,1048.25,2.41c55.37,1,109.78,4.77,164.19,10.5q411,44.38,771.32,246.23c3.82,1.91,6.68,3.82,10.5,5.73s5.73,4.77,5.73,9.54v14.32c-1,49.63-2.86,98.3-6.68,147.93a1946.43,1946.43,0,0,1-28.64,210c-28.64,149.84-73.5,293.95-135.55,432.33q-147.49,330.69-402.84,588.85a1987.89,1987.89,0,0,1-409.53,319.71c-5.73,3.82-10.5,6.68-16.23,10.5h0Z"/><path d="M91.74,330.71A1782,1782,0,0,1,476.44,164.65c183.28-54.4,369.43-80.17,560.36-76.35,88.78,1.91,236.74,16.22,261.56,25.77,1,1.91-1,2.86-2.86,2.86-8.59,3.82-18.14,6.68-26.73,10.5-157.51,65.85-269.2,204.24-301.66,372.2a612.21,612.21,0,0,0-8.59,83c-1,42-4.77,84-17.18,125-42,147.93-163.24,263.41-313.11,297.76C431.58,1050.31,233,953,147.1,770.68c-4.77-10.5-8.59-21-10.5-31.49a1782,1782,0,0,1-32.46-187.06c-8.59-69.67-13.36-139.34-13.36-209a54.4,54.4,0,0,0,1-12.41h0Z" fill="#f7a800"/><path d="m1499.78 1474.05c1.91-18.13 3.82-34.36 4.77-51.54 4.77-94.48-15.27-184.19-60.14-267.22-43-79.21-103.1-142.2-180.42-189.92-6.68-4.77-14.32-8.59-21-13.36-106-66.81-170.88-161.29-193.79-284.4-41-221.41 98.32-435.19 316.93-487.68 77.32-18.13 152.74-16.22 228.15 7.63 62 19.09 121.24 44.86 180.42 72.53 41 19.09 80.19 40.08 119.33 62 4.77 2.86 8.59 4.77 14.32 8.59 0 3.82 1 6.68 1 10.5 0 50.58-2.86 102.12-6.68 152.7a1905.19 1905.19 0 0 1 -33.41 221.41c-46.78 215.69-129.83 415.15-250.11 600.3-33.41 51.54-69.69 101.16-107.87 148.88-3.86 2.9-5.77 6.72-11.5 9.58" fill="#67b2e8"/><path d="M1000.52,1900.65c-14.32-5.73-58.23-32.45-105-63.94a1821,1821,0,0,1-288.29-239.55A1771.84,1771.84,0,0,1,374.3,1303.22,1722.5,1722.5,0,0,1,216.79,993a59.29,59.29,0,0,1-2.86-9.54c4.77,2.86,6.68,3.82,9.55,5.73,33.41,25.77,68.73,47.72,106.92,63.94,48.69,21,99.28,35.31,152.74,40.08,107.87,10.5,209.06-11.45,304.52-64.9a450,450,0,0,1,159.42-53.44c199.51-24.81,398.07,93.53,460.12,299.67,31.5,105.94,22,209-26.73,309.22-6.68,13.36-12.41,25.77-19.09,38.17-3.82,7.64-8.59,15.27-15.27,21-101.19,95.44-211.92,179.42-332.2,250-4.77,2.86-9.55,5.73-13.36,7.64h0Z" fill="#00c4b3"/></g></svg>