<?xml version="1.0" encoding="utf-8"?>
<!-- Generator: Adobe Illustrator 19.2.1, SVG Export Plug-In . SVG Version: 6.00 Build 0)  -->
<svg version="1.1" id="Layer_1" xmlns="http://www.w3.org/2000/svg" xmlns:xlink="http://www.w3.org/1999/xlink" x="0px" y="0px"
	 viewBox="0 0 1000 1000" style="enable-background:new 0 0 1000 1000;" xml:space="preserve">
<style type="text/css">
	.st0{fill:#FA6800;}
	.st1{fill:#4C4C4C;}
</style>
<path class="st0" d="M500,0C223.9,0,0,223.9,0,500c0,55.2,8.9,108.3,25.5,157.9H175V237.2l325,325l325-325v420.7h149.5
	c16.5-49.7,25.5-102.7,25.5-157.9C1000,223.9,776.1,0,500,0"/>
<path class="st1" d="M425.3,637L283.4,495.1v264.7H72.7C160.5,903.8,319,1000,500,1000s339.5-96.2,427.2-240.2H716.5V495.1
	L574.7,637L500,711.7L425.3,637L425.3,637L425.3,637z"/>
</svg>
