<svg xmlns="http://www.w3.org/2000/svg" viewBox="0 0 2000 2000"><g><path d="M1265.57,992.74c0,194.21-166.7,184.74-166.7,184.74V554.73H896.09v623.06s-161.66,1.61-161.66-182.22V554.73H533V979c0,352.45,308.81,365.35,362.73,365.35v68.43H771.11v91.51H895.59v105.22h203.29V1504.33h130v-91.51H1098.67v-67.53c168.82,0,368.78-88.09,368.78-347.31V554.73H1265.57v438Z" fill="#fff"/><path d="M1000,0C447.69,0,0,447.69,0,1000S447.69,2000,1000,2000s1000-447.69,1000-1000S1552.21,0,1000,0Zm467.45,998c0,259.22-200,347.31-368.78,347.31v67.53h130.22v91.51h-130v105.22H895.59V1504.33H771.11v-91.51H895.69v-68.43C841.77,1344.39,533,1331.49,533,979V554.73H734.43V995.57c0,183.83,161.66,182.22,161.66,182.22V554.73h202.78v622.76s166.7,9.47,166.7-184.74v-438h201.87V998Z" fill="#ffd512"/></g></svg>