<?xml version="1.0" encoding="utf-8"?>
<!-- Generator: Adobe Illustrator 19.2.1, SVG Export Plug-In . SVG Version: 6.00 Build 0)  -->
<svg version="1.1" id="Layer_1" xmlns="http://www.w3.org/2000/svg" xmlns:xlink="http://www.w3.org/1999/xlink" x="0px" y="0px"
	 viewBox="0 0 1000 1000" style="enable-background:new 0 0 1000 1000;" xml:space="preserve">
<style type="text/css">
	.st0{clip-path:url(#SVGID_2_);fill:url(#SVGID_3_);}
</style>
<g>
	<defs>
		<path id="SVGID_1_" d="M645.8,26.9c-65.7,38.6-104.6,108.3-104.6,181.8c0,38.6,15.5,77.5,34.9,112.2c15.5,31,23.1,85.1-31,112.2
			c-38.6,23.1-89.1,7.7-112.2-31c-23.1-31-50.2-62-85.1-85.1c-65.7-38.6-143.2-38.6-208.9,0S34.4,425.5,34.4,499
			S73,642.2,138.9,680.9c65.7,38.6,143.2,38.6,208.9,0c34.9-19.4,62-50.2,81.2-85.1c15.5-27.1,58.1-62,112.2-31
			c38.6,23.1,50.2,73.6,31,112.2c-19.4,34.9-31,73.6-31,112.2c0,73.6,38.6,143.2,104.6,181.8c65.7,38.6,143.2,38.6,208.9,0
			c65.7-38.6,104.6-108.3,104.6-181.8S920.6,646,854.7,607.3c-34.9-19.4-73.6-27.1-116.1-27.1c-34.9,0-81.2-23.1-81.2-81.2
			c0-46.5,34.9-81.2,81.2-81.2c38.6,0,81.2-7.7,116.1-27.1c65.7-38.6,104.6-108.3,104.6-181.8S920.6,65.7,854.7,27.1
			C823.7,7.7,785.1,0,750.2,0C715.5-0.2,676.6,7.7,645.8,26.9"/>
	</defs>
	<clipPath id="SVGID_2_">
		<use xlink:href="#SVGID_1_"  style="overflow:visible;"/>
	</clipPath>
	
		<linearGradient id="SVGID_3_" gradientUnits="userSpaceOnUse" x1="684.4271" y1="674.2366" x2="716.9571" y2="674.2366" gradientTransform="matrix(21.373 21.373 21.373 -21.373 -28818.9219 9.9569)">
		<stop  offset="0" style="stop-color:#11AAE2"/>
		<stop  offset="0.594" style="stop-color:#0880B7"/>
		<stop  offset="1" style="stop-color:#016197"/>
	</linearGradient>
	<path class="st0" d="M498.7-464.5L1466,506.7L498.7,1474l-971.2-967.3L498.7-464.5z"/>
</g>
</svg>
