<svg xmlns="http://www.w3.org/2000/svg" viewBox="0 0 1933.2 1679.8"><g><path d="M0,1.6c0,1,141.8,248,315.1,549.1C538.6,938.9,630.7,1098,631.8,1097.8,633.2,1097.5,1263,3,1263,.9c0-.5-132.1-.9-297-.9C711.4,0,669,.2,669,1.4c0,.8,61.2,106.7,135.9,235.3S941,471.2,941.2,471.8,930,492.9,916,517.3l-25.5,44.5-2.7-4.6c-1.5-2.6-74.9-128.9-163.1-280.7L564.2.5,282.1.2C20.3,0,0,.1,0,1.6Z" fill="#56f4f1"/><path d="m1366.7.7c-10.4 17.5-682.1 1187.4-682.5 1188.5-.6 2.4 280.7 491 282.5 490.6 1.2-.3 284.1-490.4 285-493.9.3-1-54.5-96.2-128.6-223.8-71-122.1-129.2-222.4-129.3-222.9-.4-1.2 50.3-89.2 51.1-88.7.4.2 58.5 99.9 129.2 221.5 99.2 170.7 128.8 221 130.1 220.8s106.4-182 315-544.3c172.2-299.2 313.3-545 313.6-546.3l.4-2.2h-283c-155.7 0-283.3.3-283.5.7" fill="#0ed8d2"/></g></svg>