<svg xmlns="http://www.w3.org/2000/svg" viewBox="0 0 2000 2000" width="2000" height="2000"><path d="M1000.11,2000c-135,0-265.93-26.48-389.23-78.58A1003.22,1003.22,0,0,1,78.8,1389.34C26.48,1265.82,0,1134.92,0,999.89S26.48,734,78.58,610.66A999,999,0,0,1,999.89,0C1134.7,0,1266,26.27,1389.34,78.37A999,999,0,0,1,2000,999.67c0,135-26.48,265.93-78.58,389.23A1003.22,1003.22,0,0,1,1389.34,1921C1266,1973.52,1135.14,2000,1000.11,2000Zm0-1777.92c-207.75,0-403.13,81-550.09,227.72-147,147-227.72,342.34-227.72,550.09S303.27,1403,450,1550c147,146.75,342.34,227.72,550.09,227.72s403.13-81,550.09-227.72c146.75-147,227.72-342.34,227.72-550.09s-81-403.13-227.72-550.09c-147-146.75-342.34-227.72-550.09-227.72h0Z"/><path d="m940 1248.89h433.3v217.74h-266.8c4.34 62.3 6.73 120 11.07 182.13h-224.48v-180h-266.8c0-71.2-8.9-142.19 4.34-208.84 6.73-35.6 46.67-66.64 71.2-97.69 84.45-100.08 168.89-197.76 255.51-297.84 33.43-37.77 66.64-73.37 104.42-115.49h-415.5v-217.69h246.61v-182.14h215.56v177.79h269c0 73.37 8.9 144.36-4.34 211.22-6.73 35.6-46.67 66.64-73.37 97.69-84.45 100.08-168.89 197.76-255.51 297.84-33 39.73-66.21 75.11-104.2 115.27"/></svg>