<svg xmlns="http://www.w3.org/2000/svg" viewBox="0 0 567.8 566.7"><path d="M283.7,566.7C126.9,566.6,0,439.7,0,283,0,126.6,127.3-.1,284.3,0,440.8.1,568,127.1,567.8,283.4,567.5,438,443,566.5,283.7,566.7ZM168,412.9c.8-1.5,1.4-2.7,2-3.7q38.1-67.05,76.3-134,33.45-58.65,66.7-117.4a3.76,3.76,0,0,1,3.9-2.3c25.9.1,51.9.1,77.8.1h3.7c-36,63.4-71.7,126.3-107.7,189.6,1.3.1,2,.1,2.7.1q97.5,0,194.9.1c2.2,0,2.9-.8,3.4-2.7a213.86,213.86,0,0,0,2.7-106.3c-9.7-42.5-31-78.4-62.4-108.4a197.61,197.61,0,0,0-47.5-33.4c-43.2-22-88.7-29-136.4-20.6-47.5,8.4-87.5,30.8-120.3,66.2-4.3,4.6-8.2,9.6-12.3,14.4.1.3.3.5.4.8H301.2c-1,1.9-1.7,3.3-2.5,4.6-11.3,20-22.7,39.9-33.9,59.9a5.12,5.12,0,0,1-5.2,3q-87.6-.15-175.1-.1H81C51.4,315.6,93.2,432,198,478.6c101.5,45.2,207.9,3.6,257.8-65.9Q311.95,413,168,412.9Zm326.3,48.9c36-39.9,68-105.6,66-184.5-1.6-65-23.9-122.1-65.6-172.6-13,13.1-25.7,25.8-38.3,38.5,66.1,79.3,68.9,196.6.7,280.8Z" fill="#c87035"/></svg>