<svg enable-background="new 0 0 32 32" viewBox="0 0 32 32" xmlns="http://www.w3.org/2000/svg"><circle cx="16" cy="16" fill="#07bc9c" r="16"/><g fill="#fff"><path clip-rule="evenodd" d="m23.9 6.7c-.6-.1-1.9-.1-2.3.4.4.2.7.6 1.1.6s.9-.4 1.4-.2c-.2 0-1.3.2-1.3.5.1.2.3.5.5.6.3.3.3.4.7.2.5-.3.9-.8 1-1.3 0-.3.1-.1-.1-.3-.3-.3-.6-.4-1-.5zm-5.3.5c.8-.4 1.7-.5 2.5-.3-.1-.9-.5-1.8-1.2-2.4.8.5 1.4 1.3 1.6 2.3.5-.1.9-.3 1.4-.3-.1-.9-.5-1.8-1.1-2.4-.4-.3-1.3-1.1-1.8-1.1s-1.2 1.1-1.3 1.6c-.3.8-.4 1.7-.1 2.6z" fill-rule="evenodd"/><path clip-rule="evenodd" d="m18.4 8.7c-.2-.4.6-.6.8-.5.4.1.8.3 1.1.6.6.4 1.8 1.8 2.6 1.4.9-.3-.2-1.8-.6-2.2-.8-.7-1.9-1.1-2.9-.9-.5.1-.9.5-1.1.9 0 .3-.2.7.1.7z" fill-rule="evenodd"/><path d="m22.4 14.4c-.5-.3-.7-1.3-1.1-1.8-.5-.7-1.1-1.3-1.5-2.1s-.4-1.3-1.1-1.7c-.5-.3-1.2-.3-1.7 0-.8.4-1.7.7-2.7.8-.4.1-.8.2-1.2.4-.3.2-.7.3-1 .5-.9.1-2.5-.9-2.3.7 0 .3.3.5.2.9s-.5.7-.7 1c-.4.7-.7 1.4-.9 2.2-.5 1.7-.4 3.6.3 5.3.4.8.8 1.6 1.4 2.3.3.3.5.7.7 1 .2.4.4.9.6 1.3.4.5 1.1.8 1.8.6.3-.1.6-.3.9-.4.5-.2 1-.3 1.6-.4 2-.3 3.8-1.3 5.1-2.8.6-.8 1.1-1.6 1.4-2.5.2-.5.3-1 .4-1.6 0-.3-.1-1.2.2-1.4.2-.2.5-.2.7-.3.1-.2.2-.4.2-.6.1-.8-.9-1.2-1.3-1.4zm.7 1.3c-.1.3-.7.5-.9.9-.4.6-.8 1.2-1.4 1.7-1.2.6-2.6.3-3.4-.7-.4-.5-.6-1.2-.6-1.8 0-.5.6-1.8 0-2.1s-.8.6-1.1.9c-.4.6-1 1.1-1.6 1.4-1.1.4-2.3.1-3.1-.7-.6-.8-.7-1.8-.4-2.7 0-.5 0-.9-.1-1.4 0-.7.6-.4 1.1-.3 1.2.2 2.3.7 3.3 1.4.9.8 2.1 1.3 3.3 1.5.8.1 1.6.2 2.4.4.4.1.7.3 1.1.4s.8.3 1.2.5c0 0 .4.2.2.6z"/></g></svg>