<svg xmlns="http://www.w3.org/2000/svg" width="1863" height="1995" viewBox="0 0 1863 1995"><g fill="#1763a5"><circle cx="573" cy="127" r="60"/><circle cx="824" cy="60" r="60"/><circle cx="362" cy="165" r="60"/><circle cx="146" cy="212" r="60"/><circle cx="1071" cy="60" r="60"/><circle cx="1314" cy="127" r="60"/><circle cx="1525" cy="165" r="60"/><circle cx="1743" cy="212" r="60"/><circle cx="1672" cy="476" r="60"/><circle cx="1672" cy="705" r="60"/><circle cx="1434" cy="887" r="60"/><circle cx="1207" cy="965" r="60"/><circle cx="973" cy="776" r="60"/><circle cx="1033" cy="581" r="60"/><circle cx="894" cy="272" r="60"/><circle cx="824" cy="484" r="60"/><circle cx="219" cy="476" r="60"/><circle cx="219" cy="705" r="60"/><circle cx="453" cy="741" r="60"/><circle cx="643" cy="951" r="60"/><circle cx="180" cy="918" r="60"/><circle cx="60" cy="1171" r="60"/><circle cx="656" cy="1365" r="60"/><circle cx="746" cy="1231" r="60"/><circle cx="453" cy="1650" r="60"/><circle cx="242" cy="1444" r="60"/><circle cx="633" cy="1564" r="60"/><circle cx="656" cy="1815" r="60"/><circle cx="933" cy="1935" r="60"/><circle cx="1207" cy="1815" r="60"/><circle cx="1207" cy="1564" r="60"/><circle cx="1237" cy="1351" r="60"/><circle cx="1093" cy="1257" r="60"/><circle cx="1732" cy="918" r="60"/><circle cx="1803" cy="1171" r="60"/><circle cx="1612" cy="1444" r="60"/><circle cx="1413" cy="1650" r="60"/><circle cx="1473" cy="1171" r="73"/><circle cx="929" cy="1042" r="93"/><circle cx="932" cy="1663" r="73"/><circle cx="375" cy="1171" r="73"/><circle cx="472" cy="507" r="73"/><circle cx="1387" cy="507" r="73"/></g><g fill="none" stroke="#1763a5" stroke-miterlimit="10"><g stroke-width="20"><path d="m1314 127l73 380"/><path d="m1525 165l-138 342"/><path d="m1743 212l-356 295"/><path d="m1672 476l-285 31"/><path d="m1672 705l-285-198"/><path d="m1434 887l-47-380"/><path d="m1207 965l180-458"/><path d="m1033 581l354-74"/><path d="m894 272l493 235"/><path d="m1071 60l316 447"/><path d="m824 60l-352 447"/><path d="m573 127l-101 380"/><path d="m362 165l110 342"/><path d="m146 212l326 295"/><path d="m824 484l-352 23"/><path d="m219 476l253 31"/><path d="m219 705l253-198"/><path d="m973 776l-501-269"/><path d="m643 951l-268 220"/><path d="m453 741l-78 430"/><path d="m180 918l195 253"/><path d="m60 1171h315"/><path d="m242 1444l133-273"/><path d="m453 1650l-78-479"/><path d="m656 1365l-281-194"/><path d="m746 1231l186 432"/><path d="m633 1564l299 99"/><path d="m656 1815l276-152"/><path d="m933 1935l-1-272"/><path d="m1207 1815l-275-152"/><path d="m1207 1564l-275 99"/><path d="m1237 1351l-305 312"/><path d="m1093 1257l380-86"/><path d="m1413 1650l60-479"/><path d="m1612 1444l-139-273"/><path d="m1803 1171h-330"/><path d="m1732 918l-259 253"/></g><g stroke-width="50"><path d="m929 1042l544 129"/><path d="m1387 507l-458 535"/><path d="m472 507l457 535"/><path d="m375 1171l554-129"/><path d="m932 1663l-3-621"/></g></g></svg>