<svg xmlns="http://www.w3.org/2000/svg" viewBox="0 0 308.1 436.06"><path data-name="path0 fill" d="M308.1,180.2l-62.8,28L78.7,293l166.6,80.1V240.7l62.8-28.3V408l-62.8,28L0,318.6V256.2l169.8-83.3L0,91.3V28L63.8,0,308.1,117.6Z" fill="#49c1bf"/><path data-name="path1 fill" d="M0,28,245.3,145.6l62.8-28L63.8,0Z" fill="#077a8f"/><path data-name="path2 fill" d="m245.3 145.33l62.8-28v62.6l-62.8 28" fill="#298e97"/><path data-name="path3 fill" d="M0,28.06v63.3L169.8,173,0,256.26v62.4l245.3,117.4v-62.8L78.7,293.06l166.6-84.8v-62.6Z" fill="#49c1bf"/><path data-name="path4 fill" d="M245.3,435.59l62.8-28V212l-62.8,28.3Z" fill="#298e97"/></svg>